<?xml version="1.0" standalone="no"?> <!DOCTYPE svg PUBLIC "-//W3C//DTD SVG 1.0//EN" "http://www.w3.org/TR/2001/REC-SVG-20010904/DTD/svg10.dtd" > <svg xmlns="http://www.w3.org/2000/svg" width="100%" height="100%">
<defs >
<font id="LMRomanDemi10-Oblique" horiz-adv-x="574" ><font-face
    font-family="LM Roman Demi 10"
    units-per-em="1000"
    panose-1="0 0 7 0 0 0 0 0 0 0"
    ascent="914"
    descent="-250"
    alphabetic="0" />
<missing-glyph horiz-adv-x="364" d="M33 0V666H298V0H33ZM66 33H265V633H66V33Z" />
<glyph unicode=" " glyph-name="space" horiz-adv-x="333" />
<glyph unicode="!" glyph-name="exclam" horiz-adv-x="306" d="M338 634L334 621L219 248Q215 233 210 230T191 226Q175 226 172 230T170 252L179 616Q178 624 180 634Q184 663 211 684T271 705T323 684T338 634ZM249 110T244 78T212 23T153 0T102 23T88 78T120
133T179 156T230 133Z" />
<glyph unicode="&quot;" glyph-name="quotedbl" horiz-adv-x="440" d="M303 640L233 418H185L189 640Q189 663 209 680T255 697Q280 697 295 680T303 640ZM465 640L395 418H347L351 640Q351 663 371 680T417 697Q442 697 457 680T465 640Z" />
<glyph unicode="#" glyph-name="numbersign" horiz-adv-x="833" d="M799 139Q794 108 748 108H537L421 -164Q408 -194 385 -194Q371 -194 364 -185T359 -164Q359 -159 366 -144L474 108H318L202 -164Q189 -194 166 -194Q152 -194 145 -185T140 -164Q140 -159 147
-144L255 108H120Q108 108 101 109T85 117T79 139Q84 169 125 169H282L351 332H152Q142 332 136 333T122 341T116 362Q122 393 168 393H379L495 664Q505 694 531 694Q545 694 552 685T557 664Q554 654 549 644L442 393H598L714 664Q724 694 750 694Q764 694 771
685T776 664Q773 654 768 644L661 393H796Q808 393 815 392T831 384T836 362Q831 332 790 332H633L564 169H763Q773 169 779 168T793 160T799 139ZM570 332H414L345 169H501L570 332Z" />
<glyph unicode="$" glyph-name="dollar" horiz-adv-x="500" d="M478 210Q465 128 413 68T272 -5L264 -56H217L225 -5Q138 4 107 60T87 185Q92 214 110 230T140 249T161 252Q183 252 200 237T213 189Q209 167 191 147T135 127Q149 53 233 42L275 294Q215 306 181
343T140 419T139 498Q152 578 205 634T343 699L351 750H398L390 699Q473 691 507 641T530 522Q524 485 501 471T456 456Q433 456 417 472T405 519Q409 542 427 561T480 581Q462 643 382 652L344 428Q384 419 413 399T455 355T475 303T482 252T478 210ZM299 440L335
651Q306 646 285 634T252 604T235 573T227 546Q222 512 239 482T299 440ZM390 161Q397 202 380 236T320 282L280 43Q373 62 390 161Z" />
<glyph unicode="%" glyph-name="percent" horiz-adv-x="833" d="M813 719Q810 708 800 696L192 -37Q175 -56 161 -56Q148 -56 141 -47T135 -25Q136 -17 150 0L673 632Q624 611 565 611Q493 611 429 647Q434 606 425 549Q407 445 362 396T265 347Q240 347 217 357T174
390T147 452T148 549Q157 602 177 642T224 705T278 739T332 750Q370 750 399 721Q471 646 570 646Q680 646 757 733Q772 750 788 750Q799 750 807 742T813 719ZM800 145Q783 44 738 -6T641 -56Q616 -56 593 -46T549 -13T522 49T523 146Q540 248 594 297T708 347Q759
347 788 298T800 145ZM378 549Q389 609 382 646T360 698T328 714Q316 714 306 708T288 687T275 660T265 623T257 587T250 548Q237 494 238 439T273 383Q302 383 333 423T378 549ZM753 146Q764 206 757 243T736 295T704 311Q692 311 682 305T664 284T651 257T641
220T633 184T626 145Q613 91 614 36T649 -20Q678 -20 708 20T753 146Z" />
<glyph unicode="&amp;" glyph-name="ampersand" horiz-adv-x="778" d="M793 397Q750 397 728 394Q712 392 707 388T687 366L657 326Q551 183 485 118Q540 36 591 36Q618 36 651 55T694 118H741Q730 61 684 25T577 -11Q480 -11 407 53Q315 -11 221 -11Q146 -11
101 31T65 137Q73 180 103 213Q109 221 167 271Q171 274 189 290T222 318T239 332Q216 433 231 528Q244 609 304 657T427 705Q461 705 481 683T504 631T504 574Q491 502 350 383Q374 285 462 153Q514 205 561 269Q564 274 586 303T628 357T647 385Q647 388 643
390T631 393T614 395T596 396T582 397T572 397L580 444Q620 441 702 441Q753 441 801 444L793 397ZM457 575Q467 669 423 669Q399 669 375 645T341 565Q329 493 342 421Q448 516 457 575ZM376 81Q289 174 250 297Q214 259 199 174Q193 127 192 100T200 58T217 40T239
36Q305 36 376 81Z" />
<glyph unicode="&apos;" glyph-name="quotesingle" horiz-adv-x="278" d="M303 640L233 418H185L189 640Q189 663 209 680T255 697Q280 697 295 680T303 640Z" />
<glyph unicode="(" glyph-name="parenleft" horiz-adv-x="389" d="M293 -235Q290 -249 272 -249Q253 -249 214 -196T154 -85Q102 64 134 250Q179 527 365 699Q374 708 401 729T439 750Q446 750 451 747T455 736Q453 729 446 723Q283 562 231 250Q179 -64 286 -218Q294
-230 293 -235Z" />
<glyph unicode=")" glyph-name="parenright" horiz-adv-x="389" d="M338 250Q292 -26 107 -198Q98 -207 71 -228T32 -249Q25 -249 21 -246T17 -235Q17 -230 33 -214Q189 -55 241 251Q293 562 186 719Q178 730 179 736Q182 750 199 750Q219 750 259 695T324 568Q367
430 338 250Z" />
<glyph unicode="*" glyph-name="asterisk" horiz-adv-x="500" d="M511 443Q507 422 491 408T458 394Q445 394 432 408L352 492V365V345Q349 328 334 317T300 306Q283 306 271 316T263 345Q264 350 267 358L311 492L203 407Q186 394 173 394Q157 394 145 408T136
443Q140 470 171 480L300 528L187 576Q160 586 164 613Q168 634 184 648T217 662Q230 662 243 648L323 564V691Q323 708 324 711Q326 728 341 739T375 750Q392 750 404 740T413 711L408 698L364 564L472 649Q489 662 502 662Q518 662 530 648T539 613Q535 586 504
576L375 528L488 480Q515 470 511 443Z" />
<glyph unicode="+" glyph-name="plus" horiz-adv-x="778" d="M763 250Q758 220 715 220H456L412 -40Q406 -82 374 -82Q344 -82 351 -40L395 220H136Q125 220 118 221T104 229T98 251Q103 281 146 281H405L448 541Q454 583 486 583Q516 583 509 541L466 281H725Q736
281 743 280T757 272T763 250Z" />
<glyph unicode="," glyph-name="comma" horiz-adv-x="278" d="M233 31Q223 -30 188 -85T122 -167T82 -194Q76 -194 71 -188T66 -174T81 -157Q171 -86 194 18Q174 0 139 0Q103 0 86 23T74 78Q79 111 104 133T164 156Q206 156 224 120T233 31Z" />
<glyph unicode="-" glyph-name="hyphen" horiz-adv-x="333" d="M305 174H40L56 271H321L305 174Z" />
<glyph unicode="." glyph-name="period" horiz-adv-x="278" d="M235 110T230 78T198 23T139 0T88 23T74 78T106 133T165 156T216 133Z" />
<glyph unicode="/" glyph-name="slash" horiz-adv-x="500" d="M563 719Q561 711 555 700L82 -220Q69 -250 44 -250Q33 -250 25 -242T19 -219Q21 -212 28 -200L501 722Q516 750 538 750Q549 750 557 742T563 719Z" />
<glyph unicode="0" glyph-name="zero" horiz-adv-x="500" d="M518 349T513 319T505 270T491 212T468 148T435 90T389 37T327 3T247 -11T172 3T122 37T93 89T80 148T79 212T84 270T92 319T101 369T115 427T137 492T170 552T216 606T279 640T359 655T434 641T484
606T513 552T525 492T526 427T521 369ZM387 331Q410 466 415 521Q420 575 400 597T352 619Q345 619 336 617T311 606T280 576T257 520Q242 455 222 330Q194 147 193 131Q190 98 195 75T213 42T234 29T254 25Q268 25 283 31T319 61T349 126Q360 172 387 331Z" />
<glyph unicode="1" glyph-name="one" horiz-adv-x="500" d="M430 0Q393 3 256 3Q122 3 83 0L91 47H203L289 561Q233 544 160 544L168 591Q308 591 384 655Q411 655 416 651T418 623L322 47H438L430 0Z" />
<glyph unicode="2" glyph-name="two" horiz-adv-x="500" d="M486 222L418 0H50L53 18Q56 38 69 51L260 249Q371 363 389 466Q392 486 392 506T387 552T364 592T316 608Q266 608 229 573Q255 568 268 550T278 501Q272 466 247 448T194 429Q169 429 148 446T134
503Q145 566 206 610T346 655Q438 655 489 602T527 466Q513 389 432 318Q419 307 377 275T326 236L190 125H310Q396 125 402 133Q418 150 439 222H486Z" />
<glyph unicode="3" glyph-name="three" horiz-adv-x="500" d="M487 180Q474 99 405 44T232 -11Q149 -11 102 33T65 139Q72 176 97 196T155 217T206 196T219 141Q213 109 192 90T143 65Q179 32 234 32Q255 32 272 43T299 68T316 106T327 144T334 181Q340 215 341
237T340 283T320 318T276 330H250Q239 330 235 330T227 335T225 348Q227 360 233 363T260 368Q283 369 295 371T321 385T348 417Q372 464 380 520Q381 539 383 560T374 598T333 616Q281 616 241 579Q277 575 287 554T293 510Q288 481 266 461T212 441Q183 441 166
459T154 512Q164 568 217 611T345 655Q434 655 480 617T516 516Q506 455 460 413T363 351Q418 338 449 307T486 245T487 180Z" />
<glyph unicode="4" glyph-name="four" horiz-adv-x="500" d="M471 0Q433 3 330 3Q209 3 173 0L181 47H278L296 156H54L62 203L442 641Q450 652 456 654T475 656Q495 656 498 650T499 624L429 203H505L497 156H421L403 47H479L471 0ZM315 203L363 493L111 203H315Z" />
<glyph unicode="5" glyph-name="five" horiz-adv-x="500" d="M483 202Q466 104 392 47T218 -11Q141 -11 104 41T77 159Q82 187 99 204T130 225T155 229Q179 229 198 213T211 161Q206 133 186 114T131 94Q143 63 168 48T221 32Q247 32 272 46T311 87Q326 116 342
208Q358 277 353 325T306 373Q233 373 186 315Q176 305 164 305Q148 305 145 314T146 338L194 626Q199 655 214 655L226 651Q287 623 354 623T491 650Q500 655 505 655Q519 655 516 637Q514 621 485 590T398 529T278 499Q246 499 227 504L206 378Q257 409 316 409Q406
409 452 352T483 202Z" />
<glyph unicode="6" glyph-name="six" horiz-adv-x="500" d="M491 205Q474 101 406 45T251 -11Q208 -11 176 4T126 41T98 97T85 159T84 223T89 276T95 316Q108 396 137 459T201 557T276 616T349 647T412 655Q478 655 503 617T521 531Q516 500 496 483T447 466T405
484T395 528Q400 556 420 572T464 591Q447 616 408 616Q395 616 380 612T343 596T300 555T266 483Q259 461 253 434T243 390T240 369Q275 418 333 418Q414 418 461 364T491 205ZM356 209Q371 294 372 324Q373 349 360 365T320 382Q293 382 273 365T241 314T224
259T213 204Q197 111 202 88Q212 32 256 32Q284 32 304 48T333 92Q344 134 356 209Z" />
<glyph unicode="7" glyph-name="seven" horiz-adv-x="500" d="M588 617Q587 609 576 598L409 413Q340 337 304 113L295 60Q283 -11 220 -11Q214 -11 207 -10T189 -3T172 19T170 60Q181 124 208 190T270 306T323 383T357 425L359 427L444 519H310Q218 519 211 511Q197
496 173 422H126L204 676H251Q251 663 258 657T295 648Q330 644 374 644H592L588 617Z" />
<glyph unicode="8" glyph-name="eight" horiz-adv-x="500" d="M489 189Q474 103 410 46T246 -11Q156 -11 106 34T69 162Q79 223 115 260T206 327Q132 381 149 478Q162 554 217 604T360 655Q439 655 482 616T515 507Q508 464 482 433T406 371Q424 358 435 348T465
315T489 260T489 189ZM440 507Q447 553 426 584T351 616Q307 616 274 596T234 538Q227 500 264 474L369 398Q428 438 440 507ZM393 133Q397 157 389 176T371 206T338 232L243 299Q169 244 155 163Q146 105 171 69T256 32Q308 32 346 58T393 133Z" />
<glyph unicode="9" glyph-name="nine" horiz-adv-x="500" d="M512 330Q499 249 471 186T410 87T338 28T268 -3T206 -11Q138 -11 108 25T86 113Q91 144 111 161T160 178T202 160T211 116Q207 91 190 75T149 54Q170 32 211 32Q266 32 307 85Q333 120 351 198Q357
224 367 276Q333 227 274 227Q192 227 145 282T115 440Q131 538 200 596Q270 655 360 655Q402 655 433 640T482 603T509 547T522 486T523 423T518 370T512 330ZM395 446Q407 514 407 557Q398 616 356 616Q325 616 305 599T278 562Q268 538 251 435Q237 361 234
320Q234 296 247 280T287 263Q333 263 357 312T395 446Z" />
<glyph unicode=":" glyph-name="colon" horiz-adv-x="278" d="M283 398T278 366T246 311T187 288T136 311T122 366T154 421T213 444T264 421ZM235 110T230 78T198 23T139 0T88 23T74 78T106 133T165 156T216 133Z" />
<glyph unicode=";" glyph-name="semicolon" horiz-adv-x="278" d="M283 398T278 366T246 311T187 288T136 311T122 366T154 421T213 444T264 421ZM225 31Q215 -29 182 -84T121 -167T82 -194Q76 -194 71 -188T66 -174T84 -153Q160 -86 185 12Q165 0 139 0Q103 0
86 23T74 78Q79 111 104 133T164 156Q203 156 218 121T225 31Z" />
<glyph unicode="&lt;" glyph-name="less" horiz-adv-x="894" d="M788 -56Q786 -67 776 -76T752 -86Q744 -86 731 -79L158 219Q135 231 138 251T168 282L844 581Q856 587 864 587Q877 587 884 578T890 557Q887 537 860 525L239 250L768 -24Q790 -36 788 -56Z" />
<glyph unicode="=" glyph-name="equal" horiz-adv-x="778" d="M781 362Q776 332 735 332H152Q142 332 136 333T122 341T116 362Q122 393 168 393H741Q753 393 760 392T776 384T781 362ZM744 139Q739 108 693 108H120Q108 108 101 109T85 117T79 139Q84 169 125
169H708Q718 169 724 168T738 160T744 139Z" />
<glyph unicode="&gt;" glyph-name="greater" horiz-adv-x="894" d="M839 251Q835 230 809 219L133 -80Q121 -86 113 -86Q99 -86 92 -77T87 -56Q90 -36 117 -24L738 251L209 525Q185 538 189 557Q191 569 201 578T224 587Q233 587 246 580L819 282Q842 270 839 251Z" />
<glyph unicode="?" glyph-name="question" horiz-adv-x="472" d="M510 571Q501 510 442 474Q312 394 294 285L289 256Q286 236 282 231T260 226Q244 226 241 231T241 253L248 294Q267 398 347 494Q363 512 370 527T384 579Q395 620 387 642T333 664Q279 664 239
633Q259 627 269 612T276 572Q272 543 251 526T203 509Q180 509 164 524T152 573Q160 624 212 662T345 700Q363 700 377 699T422 692T471 673T503 634T510 571ZM318 110T313 78T281 23T222 0T171 23T157 78T189 133T248 156T299 133Z" />
<glyph unicode="@" glyph-name="at" horiz-adv-x="778" d="M734 79L730 69Q656 32 548 11Q466 -6 391 -6Q236 -6 162 91T114 347Q141 511 250 605T505 700Q648 700 727 608T778 343Q743 128 626 128Q549 128 519 168Q468 128 408 128Q325 128 277 185T247 347Q264
452 331 509T481 566Q521 566 555 546T604 482H638Q660 482 663 478T664 453L625 221Q617 164 641 164Q667 164 686 191T713 250T729 332Q755 487 696 573Q632 664 499 664Q376 664 281 581T161 347Q136 201 200 116T396 30Q520 30 652 86Q667 93 685 93H709Q719
93 723 93T731 89T734 79ZM557 478Q531 530 478 530Q441 530 409 483T361 347T363 211T417 164Q465 164 509 211L550 453Q552 470 557 478Z" />
<glyph unicode="A" glyph-name="A" horiz-adv-x="756" d="M720 0Q685 3 571 3Q444 3 407 0L415 47H498L473 182H254L197 71L191 59Q191 56 195 54T208 51T225 49T243 48T258 47T267 47L259 0L142 3L35 0L43 47Q81 47 101 49Q122 51 128 54T140 70L452 672Q461
690 469 694T494 698Q505 698 510 697T520 690T527 672L643 47H728L720 0ZM464 229L415 493L278 229H464Z" />
<glyph unicode="B" glyph-name="B" horiz-adv-x="711" d="M685 186Q672 108 607 54T438 0H34L42 47H136L235 639H141L148 686H526Q629 686 677 636T713 514Q703 457 658 415T539 359Q622 348 659 300T685 186ZM571 514Q592 639 506 639H366L322 375H439Q496 375
528 413T571 514ZM538 188Q551 246 535 292Q528 314 515 325T492 337T468 339H316L267 47H409Q466 47 500 92Q528 129 538 188Z" />
<glyph unicode="C" glyph-name="C" horiz-adv-x="722" d="M703 227Q688 139 605 64T406 -11Q251 -11 169 84T113 343Q141 508 256 602T523 697Q616 697 676 635L743 688Q755 697 763 697Q775 697 777 690T777 669L741 454Q737 434 733 430T709 426Q699 426 695
426T689 430T686 442Q688 545 644 597T534 650Q423 650 351 568Q324 538 305 492T280 418T266 343Q254 267 254 218T271 128Q291 84 335 60T434 36Q479 36 525 56T609 123T657 231Q659 243 664 245T682 248Q696 248 700 245T703 227Z" />
<glyph unicode="D" glyph-name="D" horiz-adv-x="767" d="M766 337Q739 177 638 89T406 0H34L42 47H136L235 639H141L148 686H520Q650 686 722 595T766 337ZM619 337Q645 490 623 549Q589 639 471 639H371L272 47H373Q491 47 553 132Q596 192 619 337Z" />
<glyph unicode="E" glyph-name="E" horiz-adv-x="656" d="M673 274L581 0H34L42 47H136L234 633H140L147 680H681L672 439H625Q629 481 625 516T610 578T565 618T475 633H376L333 376H355Q388 376 409 383T442 408T459 443T469 493H516L469 212H422Q428 249 428
275T410 315T347 329H325L278 47H381Q422 47 453 54T509 77T549 111T580 158T604 211T626 274H673Z" />
<glyph unicode="F" glyph-name="F" horiz-adv-x="628" d="M658 439H611Q615 480 612 515T598 577T554 618T466 633H376L331 364H348Q410 364 430 390T461 481H508L461 200H414Q420 238 420 264T402 303T340 317H323L278 47H396L388 0Q348 3 204 3Q70 3 34 0L42
47H136L234 633H140L147 680H667L658 439Z" />
<glyph unicode="G" glyph-name="G" horiz-adv-x="786" d="M773 229H704L671 28Q669 18 668 14T663 5T652 0T613 17T564 52Q507 -11 406 -11Q253 -11 170 83T113 343Q141 507 255 602T524 697Q618 697 677 635L744 688Q756 697 764 697Q776 697 778 690T778 669L742
454Q738 434 734 430T710 426Q700 426 696 426T690 430T687 442Q689 546 645 598T535 650Q418 650 342 557Q291 494 266 343Q242 194 271 128Q295 78 342 57T435 36Q468 36 502 56T545 128L562 229H437L445 276Q489 273 632 273Q744 273 781 276L773 229Z" />
<glyph unicode="H" glyph-name="H" horiz-adv-x="783" d="M748 0Q714 3 584 3T418 0L426 47H520L568 333H326L278 47H372L364 0Q330 3 200 3T34 0L42 47H136L235 639H141L148 686Q183 683 313 683T478 686L471 639H377L333 380H575L619 639H525L532 686Q567 683
697 683T862 686L855 639H761L662 47H756L748 0Z" />
<glyph unicode="I" glyph-name="I" horiz-adv-x="397" d="M368 0Q333 3 199 3T28 0L36 47H135L234 639H135L142 686Q178 683 312 683T482 686L475 639H376L277 47H376L368 0Z" />
<glyph unicode="J" glyph-name="J" horiz-adv-x="517" d="M566 639H495L413 149Q401 74 335 32T174 -11Q97 -11 54 24T19 114Q25 151 51 171T109 191Q138 191 158 171T172 114Q168 92 155 75T130 51T110 41Q138 25 175 25Q210 25 238 54T277 147L359 639H236L243
686Q284 683 426 683Q536 683 573 686L566 639Z" />
<glyph unicode="K" glyph-name="K" horiz-adv-x="783" d="M741 0Q699 3 608 3Q484 3 448 0L456 47Q520 47 522 58Q522 61 518 69L394 333L314 266L278 47H372L364 0Q330 3 200 3T34 0L42 47H136L235 639H141L148 686Q183 683 313 683T478 686L471 639H377L325
332L663 618L674 629Q651 639 612 639L619 686Q656 683 749 683Q796 683 841 686L834 639Q777 639 761 634T718 608L500 423L668 66Q672 58 675 55T690 49T726 47H749L741 0Z" />
<glyph unicode="L" glyph-name="L" horiz-adv-x="600" d="M603 274L526 0H34L42 47H136L235 639H141L148 686Q183 683 317 683Q461 683 502 686L495 639H377L278 47H344Q387 47 422 64T478 105T516 164T541 221T556 274H603Z" />
<glyph unicode="M" glyph-name="M" horiz-adv-x="950" d="M915 0Q881 3 759 3Q638 3 602 0L610 47H704L801 629H800L469 25Q464 16 462 13T452 5T436 0Q426 0 421 4T414 12T410 25L284 613H283L194 76Q191 60 193 56T214 50Q235 47 263 47H283L275 0L155 3L34
0L42 47H62Q90 47 112 50Q130 52 134 55T141 76L235 639H141L148 686H357Q377 686 383 682T394 660L501 158L776 661Q785 678 793 682T821 686H1029L1022 639H928L829 47H923L915 0Z" />
<glyph unicode="N" glyph-name="N" horiz-adv-x="783" d="M855 639H835Q807 639 784 636Q766 634 762 631T756 610L659 32Q657 19 655 13T647 4T627 0Q609 0 602 13L279 589L194 76Q191 60 193 56T214 50Q235 47 263 47H283L275 0L155 3L34 0L42 47H62Q90 47 112
50Q130 52 134 55T141 76L235 639H141L148 686H356Q372 686 377 684T389 671L639 225L703 610Q706 620 705 625T699 632T682 636Q661 639 634 639H614L621 686L742 683L862 686L855 639Z" />
<glyph unicode="O" glyph-name="O" horiz-adv-x="750" d="M750 339Q722 175 618 82T372 -11Q235 -11 160 81T113 339Q141 507 246 602T491 697Q628 697 703 604T750 339ZM599 353Q610 422 612 456T605 553Q593 603 561 630T484 657Q444 657 403 633T330 557Q292
494 268 353Q260 303 257 276T253 206T263 130Q275 85 305 58T380 31Q422 31 463 59T532 134Q576 210 599 353Z" />
<glyph unicode="P" glyph-name="P" horiz-adv-x="683" d="M708 491Q693 404 621 353T452 302H320L278 47H372L364 0Q330 3 200 3T34 0L42 47H136L235 639H141L148 686H507Q616 686 669 631T708 491ZM555 491Q561 535 563 568T541 620T459 639H371L321 343H409Q444
343 469 351T508 369T532 402T546 441T555 491Z" />
<glyph unicode="Q" glyph-name="Q" horiz-adv-x="750" d="M697 -10Q694 -25 690 -43T673 -90T645 -140T603 -178T546 -194Q512 -194 492 -179T464 -137T455 -76T456 -2Q420 -11 373 -11Q233 -11 159 81T113 339Q141 507 246 602T491 697Q628 697 703 604T750 339Q743
297 729 257T689 170T619 83T517 18Q527 -9 541 -23T563 -39T585 -41Q650 -41 662 -3Q670 18 684 18Q703 18 697 -10ZM603 340Q625 476 610 542Q597 600 563 628T484 657Q444 657 398 630T315 534Q282 472 260 340Q252 293 249 260T246 186T260 115T298 60L299
73Q305 107 334 131T401 155Q464 155 494 78Q529 109 553 162T586 252T603 340ZM454 49Q451 119 396 119Q372 119 355 105T335 73Q334 65 335 57T347 39T380 29Q419 29 454 49Z" />
<glyph unicode="R" glyph-name="R" horiz-adv-x="760" d="M772 94Q770 85 765 72T747 38T708 3T648 -11Q482 -11 464 80Q461 101 472 169Q481 221 481 239T472 287Q454 325 404 325H318L272 47H366L358 0Q324 3 197 3T34 0L42 47H136L235 639H141L148 686H481Q605
686 668 633T717 500Q709 446 661 402T539 339Q621 301 622 219Q622 214 619 145Q617 121 618 100T621 62T634 35T661 25Q706 25 725 94Q729 117 752 117Q759 117 763 117T770 111T772 94ZM564 500Q568 524 569 535T571 567T564 597T545 618T509 634T453 639H371L324
361H404Q437 361 462 366T504 382T531 404T548 434T557 465T564 500Z" />
<glyph unicode="S" glyph-name="S" horiz-adv-x="556" d="M533 203Q517 110 456 50T300 -11Q200 -11 142 40L109 12Q81 -11 72 -11T60 -8T57 0T59 17L89 199Q92 218 96 223T118 228Q133 228 136 224T137 205Q131 156 146 121T190 68T247 43T307 36Q362 36 390
71T428 153Q440 237 380 266Q367 271 315 283Q263 297 243 303T201 323T164 361Q126 421 139 497Q154 584 215 640T367 697Q450 697 502 647L533 674Q561 697 570 697Q582 697 584 690T584 669L553 486Q550 468 546 463T524 458Q512 458 508 461T503 475Q502 487
503 508T497 554T475 602T433 639T361 654Q310 654 281 623T245 549Q239 514 252 487T291 449Q297 447 361 430Q400 420 415 415T453 401T487 378T512 343Q547 284 533 203Z" />
<glyph unicode="T" glyph-name="T" horiz-adv-x="694" d="M729 434H682Q686 491 686 534T659 602T571 628H523L426 47H560L552 0Q505 3 348 3T142 0L150 47H284L381 628H332Q305 628 283 623T246 610T218 586T197 557T180 520T167 480T155 434H108L170 675H749L729 434Z" />
<glyph unicode="U" glyph-name="U" horiz-adv-x="769" d="M841 639H821Q793 639 770 636Q752 634 748 631T742 610L678 227Q661 124 587 57T402 -11Q275 -11 212 56T166 229L235 639H141L148 686Q183 683 313 683T478 686L471 639H377L305 210Q303 194 302 186T300
157T301 123T311 91T330 63T364 44T414 36Q487 36 547 81T625 230L689 610Q692 620 691 625T685 632T668 636Q647 639 620 639H600L607 686L728 683L848 686L841 639Z" />
<glyph unicode="V" glyph-name="V" horiz-adv-x="756" d="M840 639Q784 639 770 635T747 616L418 17Q412 6 409 2T397 -5T376 -8Q357 -8 352 -3T343 17L210 639H129L136 686Q172 683 283 683Q409 683 445 686L438 639H356L453 184L696 629Q673 639 621 639L628
686L745 683L847 686L840 639Z" />
<glyph unicode="W" glyph-name="W" horiz-adv-x="1033" d="M1118 639Q1066 639 1052 635T1031 616L729 17Q722 4 715 -2T692 -8Q675 -8 670 -3T662 18L590 441L376 17Q363 -8 338 -8Q322 -8 317 -2T309 17L203 639H128L135 686Q174 683 277 683Q402 683 438 686L431
639H347L421 205L577 515L556 639H481L488 686Q527 683 630 683Q755 683 791 686L784 639H700L774 205L987 628Q961 639 900 639L907 686Q948 683 1029 683Q1076 683 1125 686L1118 639Z" />
<glyph unicode="X" glyph-name="X" horiz-adv-x="756" d="M727 0Q691 3 580 3Q452 3 415 0L423 47H496L394 279L215 58Q243 47 297 47L289 0Q253 3 152 3L29 0L37 47H61Q124 47 151 57L371 329L234 639H149L156 686Q192 683 304 683Q432 683 468 686L461 639H388L470
451L604 616L613 628Q584 639 531 639L538 686Q574 683 676 683L798 686L791 639H767Q737 639 712 636Q690 634 684 631T668 617L493 401L650 47H735L727 0Z" />
<glyph unicode="Y" glyph-name="Y" horiz-adv-x="756" d="M846 639Q787 639 771 635T745 618L491 274L453 47H548L540 0Q506 3 378 3Q251 3 215 0L223 47H317L355 274L208 639H123L130 686Q166 683 280 683Q411 683 447 686L440 639H365L483 346L692 629Q670 639
625 639L632 686L751 683L853 686L846 639Z" />
<glyph unicode="Z" glyph-name="Z" horiz-adv-x="611" d="M607 284L542 0H88Q75 0 70 1T61 7T60 26Q63 40 72 52L504 639H410Q361 639 323 625T263 591T225 541T202 492T190 445H143L195 686H636Q649 686 654 685T662 679T664 661T653 637L223 51H323Q362 51 394
59T447 79T487 112T516 149T536 194T550 239T560 284H607Z" />
<glyph unicode="[" glyph-name="bracketleft" horiz-adv-x="280" d="M215 -250H65L232 750H382L372 689H283L136 -189H225L215 -250Z" />
<glyph unicode="\" glyph-name="backslash" horiz-adv-x="575" d="M473 -219Q471 -233 461 -241T438 -250Q431 -250 426 -248T418 -241T413 -232T410 -220L187 699Q183 715 184 719Q186 733 196 741T219 750Q229 750 235 746T242 736T247 720L471 -199Q474 -212
473 -219Z" />
<glyph unicode="]" glyph-name="bracketright" horiz-adv-x="280" d="M130 -250H-20L-10 -189H79L226 689H137L147 750H297L130 -250Z" />
<glyph unicode="^" glyph-name="asciicircum" horiz-adv-x="556" d="M658 584L643 562L391 685L100 562L92 584L402 744L658 584Z" />
<glyph unicode="_" glyph-name="underscore" horiz-adv-x="756" d="M731 -149H-25L-17 -101H739L731 -149Z" />
<glyph unicode="`" glyph-name="grave" horiz-adv-x="500" d="M406 544L367 511L252 595Q224 617 228 644Q233 668 255 687T301 706Q330 706 344 676L406 544Z" />
<glyph unicode="a" glyph-name="a" horiz-adv-x="486" d="M489 24Q486 8 479 4T453 0H411Q385 0 368 6T343 19T333 39T330 58T332 74Q282 -6 196 -6Q131 -6 84 23T46 109Q59 183 144 223T347 265L353 301Q362 354 346 385T287 417Q258 417 227 411Q229 409 232
405T240 388T241 361Q236 331 215 315T168 298Q145 298 128 314T116 361Q120 386 138 405T176 432T223 446T265 452T296 453Q388 453 433 412T467 300L431 84Q430 73 430 66T440 53T472 47Q482 46 486 42T489 24ZM326 138L342 233Q328 232 315 230T274 220T227
200T187 164T163 109T171 54T214 30Q245 30 281 55T326 138Z" />
<glyph unicode="b" glyph-name="b" horiz-adv-x="556" d="M559 222Q542 116 469 55T301 -6Q229 -6 189 47L133 0H85L185 600Q190 628 181 633T123 639L130 686L309 694L261 408Q322 450 389 450Q477 450 527 391T559 222ZM431 223Q447 317 441 352Q436 381 418
397T373 414Q312 414 259 357L214 89Q243 30 299 30Q326 30 352 46T394 88Q415 126 431 223Z" />
<glyph unicode="c" glyph-name="c" horiz-adv-x="444" d="M435 117Q434 112 428 100T407 69T372 34T318 6T247 -6Q154 -6 103 54T70 222Q87 327 157 390T327 453Q392 453 432 430T464 361Q459 331 438 315T391 298Q368 298 351 314T339 361Q344 390 367 408Q342
413 323 413Q301 413 283 404T252 378T230 344T215 302T205 263T199 227Q184 135 196 95Q213 34 271 34Q342 34 388 118Q394 131 413 131Q420 131 424 131T432 127T435 117Z" />
<glyph unicode="d" glyph-name="d" horiz-adv-x="556" d="M539 0L355 -6L362 35Q305 -6 241 -6Q152 -6 102 53T70 222Q88 329 161 389T327 450Q389 450 431 412L462 600Q467 628 458 633T400 639L407 686L586 694L484 86Q480 58 489 53T547 47L539 0ZM372 94L416
361Q388 414 331 414Q267 414 231 349Q215 318 198 221Q182 127 188 93Q193 64 211 47T256 30Q320 30 372 94Z" />
<glyph unicode="e" glyph-name="e" horiz-adv-x="467" d="M458 117Q456 107 443 89T408 48T345 10T258 -6Q157 -6 103 56T66 225Q83 329 154 391T323 453Q368 453 400 440T449 406T475 358T484 303T479 247Q476 227 469 223T442 218H192Q188 195 187 183T185 145T187
103T201 69T228 43T274 34Q309 34 347 54T409 116Q414 124 416 127T424 133T437 135Q442 135 446 135T454 130T458 117ZM385 251Q387 264 389 277T391 318T384 366T362 401T318 417Q227 417 198 251H385Z" />
<glyph unicode="f" glyph-name="f" horiz-adv-x="306" d="M500 613Q495 584 474 568T428 551Q405 551 389 567T377 613Q384 648 410 663Q406 664 399 664T385 663T362 656T333 639T308 603T289 546L272 444H371L363 397H270L212 47H299L291 0Q256 3 154 3L27 0L35
47H104L162 397H104L112 444H170L187 545Q196 599 232 635T313 686T408 700Q459 700 482 674T500 613Z" />
<glyph unicode="g" glyph-name="g" horiz-adv-x="500" d="M551 397Q548 379 534 367T501 354T472 366T465 397L471 415Q447 408 432 399Q462 358 452 302Q442 240 389 197T248 154Q187 154 144 179Q133 167 129 144Q125 118 137 102T171 83H229Q353 83 399 63Q478
30 461 -71Q452 -127 389 -164T215 -201Q96 -201 51 -162T13 -75Q23 -16 99 11Q67 41 73 104Q83 154 123 196Q81 235 92 302Q102 365 156 407T297 450Q369 450 410 418Q457 455 505 455Q533 455 544 437T551 397ZM341 302Q345 327 346 341T346 375T329 404T291
414Q271 414 256 407T233 390T218 363T209 334T203 302Q199 276 198 262T199 229T216 200T254 190Q274 190 289 197T312 214T326 241T335 270T341 302ZM374 -75Q380 -42 353 -28T265 -13H171Q110 -13 100 -73Q93 -112 122 -138T222 -165Q293 -165 331 -138T374
-75Z" />
<glyph unicode="h" glyph-name="h" horiz-adv-x="556" d="M553 0L429 3L305 0L313 47H378L424 321Q433 364 429 384T419 409T403 414Q358 414 310 373T250 256L215 47H284L276 0L151 3L24 0L32 47H101L193 600Q198 628 189 633T131 639L138 686L317 694L261 359H262Q326
450 424 450Q501 450 523 412T536 309L492 47H561L553 0Z" />
<glyph unicode="i" glyph-name="i" horiz-adv-x="278" d="M265 0L149 3L26 0L34 47H103L154 356Q159 384 150 389T95 395L103 442L278 450L211 47H273L265 0ZM319 609Q314 578 288 555T227 531Q195 531 176 554T162 609Q167 640 193 663T254 687Q286 687 305 664T319
609Z" />
<glyph unicode="j" glyph-name="j" horiz-adv-x="306" d="M235 -42Q223 -115 165 -157T38 -200Q-18 -200 -52 -176T-80 -109Q-75 -82 -55 -64T-7 -46Q20 -46 35 -64T45 -108Q37 -143 10 -159Q25 -164 42 -164Q68 -164 87 -141T114 -95T127 -44L193 355Q195 368
195 374T192 385T178 393Q163 395 124 395L132 442L317 450L235 -42ZM344 609Q339 578 313 555T252 531Q220 531 201 554T187 609Q192 640 218 663T279 687Q311 687 330 664T344 609Z" />
<glyph unicode="k" glyph-name="k" horiz-adv-x="528" d="M511 0Q445 3 411 3L290 0L298 47Q335 47 337 57Q338 61 305 124T259 212L218 179L196 47H265L257 0L137 3L16 0L24 47H93L185 600Q190 628 181 633T123 639L130 686L309 694L234 248L395 376Q404 380
404 386Q405 389 399 392T382 396T363 397L371 444Q410 441 485 441Q539 441 562 444L554 397Q510 397 495 393T466 378L343 279L452 66Q458 55 461 52T475 48T519 47L511 0Z" />
<glyph unicode="l" glyph-name="l" horiz-adv-x="278" d="M272 0L150 3L26 0L34 47H103L195 600Q200 628 191 633T133 639L140 686L319 694L211 47H280L272 0Z" />
<glyph unicode="m" glyph-name="m" horiz-adv-x="833" d="M830 0L706 3L582 0L590 47H655L701 321Q710 364 706 384T696 409T680 414Q635 414 587 373T527 256L492 47H561L553 0L429 3L305 0L313 47H378L424 321Q433 364 429 384T419 409T403 414Q358 414 310
373T250 256L215 47H284L276 0L151 3L24 0L32 47H101L152 356Q157 384 148 389T90 395L98 442L271 450L254 349H255Q321 450 424 450Q536 450 540 359Q603 450 701 450Q778 450 800 412T813 309L769 47H838L830 0Z" />
<glyph unicode="n" glyph-name="n" horiz-adv-x="556" d="M553 0L429 3L305 0L313 47H378L424 321Q433 364 429 384T419 409T403 414Q358 414 310 373T250 256L215 47H284L276 0L151 3L24 0L32 47H101L152 356Q157 384 148 389T90 395L98 442L271 450L254 349H255Q321
450 424 450Q501 450 523 412T536 309L492 47H561L553 0Z" />
<glyph unicode="o" glyph-name="o" horiz-adv-x="500" d="M508 219Q490 115 419 55T248 -6Q150 -6 99 54T65 219Q83 326 155 389T325 453Q425 453 475 389T508 219ZM381 229Q397 322 393 356Q391 381 371 399T319 417Q290 417 263 401T224 356Q210 325 194 229Q178
135 181 100Q183 69 204 52T256 34Q284 34 310 51T349 96Q364 127 381 229Z" />
<glyph unicode="p" glyph-name="p" horiz-adv-x="556" d="M559 223Q541 115 468 55T301 -6Q243 -6 204 30L174 -147H243L236 -194L110 -191L-16 -194L-9 -147H60L145 362Q149 377 147 384T132 393Q121 395 82 395L90 442L268 450L261 407Q323 450 392 450Q480
450 528 390T559 223ZM431 223Q446 312 429 361T371 410Q312 410 258 354L214 89Q242 30 298 30Q340 30 377 78T431 223Z" />
<glyph unicode="q" glyph-name="q" horiz-adv-x="528" d="M507 -194L381 -191L255 -194L262 -147H331L362 38Q306 -6 241 -6Q153 -6 103 53T70 222Q88 330 161 390T325 450Q405 450 440 380L504 450H545L445 -147H514L507 -194ZM384 132L410 290Q417 330 396 370T330
410Q289 410 252 364T198 221Q183 131 200 81T257 30Q300 30 340 64Q379 99 384 132Z" />
<glyph unicode="r" glyph-name="r" horiz-adv-x="428" d="M461 368Q457 340 436 324T390 307T351 323T339 368Q341 381 348 392T360 409L366 414Q334 414 309 396T269 348T245 288T231 226L201 47H288L280 0Q245 3 143 3L16 0L24 47H93L144 356Q149 384 140 389T82
395L90 442L257 450L242 359H243Q288 450 368 450Q409 450 438 429T461 368Z" />
<glyph unicode="s" glyph-name="s" horiz-adv-x="394" d="M383 139Q373 76 329 35T198 -6Q141 -6 106 22Q94 16 79 6Q59 -6 50 -6T38 -3T35 5T37 22L55 131Q58 150 62 155T84 160Q97 160 100 157T105 143Q110 88 132 59T204 30Q295 30 306 104Q310 126 304 141T280
165T252 178T219 186Q138 202 111 235Q79 273 87 322Q99 394 151 423T269 453Q320 453 349 435Q385 453 393 453Q402 453 405 450T408 442T406 425L393 345Q390 327 386 322T364 317Q350 317 347 320T344 336Q352 421 263 421T164 359Q162 345 167 334T178 317T201
304T225 296T253 290Q279 285 292 282T324 268T355 242Q393 200 383 139Z" />
<glyph unicode="t" glyph-name="t" horiz-adv-x="390" d="M353 122Q344 71 312 33T227 -6Q82 -6 103 123L148 397H85L91 433Q160 436 200 496T255 635H302L270 444H391L383 397H262L216 118Q203 34 247 34Q268 34 284 58T307 123L316 177H363L353 122Z" />
<glyph unicode="u" glyph-name="u" horiz-adv-x="556" d="M553 0L375 -6L386 62H385Q336 -6 256 -6Q177 -6 140 22T113 122L152 356Q157 384 148 389T90 395L98 442L282 450L225 105Q215 65 223 48T276 30Q322 30 355 68T397 163L429 356Q434 384 425 389T367
395L375 442L559 450L498 86Q494 58 503 53T561 47L553 0Z" />
<glyph unicode="v" glyph-name="v" horiz-adv-x="528" d="M571 397Q528 397 517 393T498 375L303 23Q297 13 294 9T283 0T263 -4Q249 -4 242 1T231 24L150 397H88L96 444L208 441L331 444L323 397H266L321 147L445 373L451 385Q453 397 402 397L410 444Q452 441
500 441Q542 441 579 444L571 397Z" />
<glyph unicode="w" glyph-name="w" horiz-adv-x="722" d="M766 397Q738 397 724 394T706 388T696 374L515 22Q501 -4 476 -4Q462 -4 456 0T446 22L403 256L282 21Q275 7 268 2T243 -4Q232 -4 226 -1T218 8T214 23L145 397H87L95 444L201 441L310 444L302 397H260L304
160L384 315L390 327L377 397H331L339 444Q384 441 429 441L541 444L533 397H474L523 135L646 372L653 387Q632 397 593 397L601 444L697 441Q738 441 774 444L766 397Z" />
<glyph unicode="x" glyph-name="x" horiz-adv-x="528" d="M511 0L405 3L285 0L293 47H339L274 170L175 58Q189 48 219 47L211 0L110 3Q63 3 18 0L26 47Q56 47 70 47T99 52T123 66L253 211L156 397H88L96 444Q150 441 203 441L321 444L313 397H267L324 289L410
386Q395 397 365 397L373 444L476 441Q519 441 567 444L559 397Q521 397 501 395T474 389T461 377L346 249L451 47H519L511 0Z" />
<glyph unicode="y" glyph-name="y" horiz-adv-x="528" d="M571 397Q527 397 516 393T495 373L242 -84Q218 -128 174 -164T79 -200Q39 -200 17 -172T1 -108Q5 -81 25 -66T68 -50Q93 -50 107 -66T116 -107Q109 -147 70 -162Q78 -164 86 -164Q134 -164 176 -108Q189
-90 238 0L150 397H88L96 444L208 441L331 444L323 397H267L322 150L444 372L451 385Q452 390 440 393T414 396L401 397L409 444Q448 441 500 441Q542 441 579 444L571 397Z" />
<glyph unicode="z" glyph-name="z" horiz-adv-x="444" d="M435 202L383 0H60Q51 0 47 0T38 3T32 9T32 22Q33 32 43 44L337 408H284Q209 408 181 377T134 269H87L128 444H441Q453 444 458 444T467 438T470 423Q469 415 458 402L166 40H221Q266 40 295 50T342 86T368
135T388 202H435Z" />
<glyph unicode="{" glyph-name="braceleft" horiz-adv-x="575" d="M457 -232Q455 -244 449 -247T423 -250Q397 -250 373 -248T315 -238T258 -215T221 -174T213 -111L249 99Q255 137 254 146Q251 178 223 203T134 232Q117 233 120 250Q121 258 125 262T132 266T145
268Q206 271 250 305Q276 325 284 344T302 417L336 623Q347 681 415 715T590 750Q600 750 604 750T613 748T618 743T618 732Q617 724 613 720T606 716T593 714Q543 711 496 686Q453 657 444 606L409 396Q405 373 401 358T382 319T339 279T266 250Q323 234 346 202T365
134L326 -103Q322 -127 323 -138Q335 -207 443 -214Q460 -215 457 -232Z" />
<glyph unicode="|" glyph-name="bar" horiz-adv-x="319" d="M156 -206Q147 -250 117 -250Q86 -250 95 -206L247 706Q253 750 285 750Q314 750 308 706L156 -206Z" />
<glyph unicode="}" glyph-name="braceright" horiz-adv-x="575" d="M538 250Q537 242 533 238T526 234T513 232Q448 228 410 196Q382 174 374 155T357 83L322 -123Q312 -179 245 -214T67 -250Q54 -250 49 -250T41 -245T39 -232Q40 -224 44 -220T51 -216T64 -214Q122
-211 164 -184Q183 -171 194 -156T208 -131T214 -106L249 104Q253 129 258 143T276 180T319 221T393 250Q335 267 312 299T293 366L333 603Q336 631 335 638Q331 669 301 690T214 714Q197 715 200 732Q202 744 209 747T234 750Q272 750 305 745T376 727T433 684T445
611L410 401Q403 361 405 352Q416 273 524 268Q541 267 538 250Z" />
<glyph unicode="~" glyph-name="asciitilde" horiz-adv-x="556" d="M603 290L542 246Q519 229 479 211Q438 193 403 193Q361 193 309 227Q250 264 211 264Q143 264 46 193L35 210L96 254Q118 270 159 289Q202 307 235 307Q276 307 330 273Q387 236 427 236Q495
236 592 307L603 290Z" />
<glyph unicode="&#xa0;" glyph-name="uni00A0" horiz-adv-x="500" />
<glyph unicode="&#xa1;" glyph-name="exclamdown" horiz-adv-x="306" d="M301 422Q296 390 269 367T210 344T159 367T145 422Q151 454 177 477T236 500T287 477T301 422ZM210 -134Q205 -163 178 -184T119 -205T67 -184T52 -134L56 -121L170 249Q175 266 179 270T199
274Q213 274 216 270T220 252L211 -116Q211 -128 210 -134Z" />
<glyph unicode="&#xa2;" glyph-name="cent" horiz-adv-x="444" d="M435 117Q434 112 429 101T410 73T378 39T331 11T267 -5L260 -48Q258 -58 250 -65T232 -72T216 -65T212 -48L219 -5Q138 4 96 64T70 222Q86 318 147 379T295 451L302 492Q303 502 311 509T330
516Q353 516 350 492L344 453Q403 450 437 427T464 361Q459 331 438 315T391 298Q368 298 351 314T339 361Q344 390 367 408Q342 413 337 413L274 34Q343 36 388 118Q394 131 413 131Q420 131 424 131T432 127T435 117ZM228 47L288 406Q266 397 249 377T222 325T208
276T199 227Q184 135 196 95Q205 64 228 47Z" />
<glyph unicode="&#xa3;" glyph-name="sterling" horiz-adv-x="756" d="M729 148Q716 74 681 22T592 -31Q576 -31 561 -29T528 -21T501 -10T472 5T447 20T420 39T394 56Q345 -11 162 -11Q116 -11 87 14T65 79Q73 125 122 146T236 168Q273 168 309 154Q310 174 308
198T304 236T296 280T289 319H173L181 367H282Q279 405 285 444Q302 543 379 614T550 686Q628 686 677 638T714 517Q709 491 688 473T641 454T600 472T588 517Q592 542 612 560T657 580Q642 607 611 622T542 638Q485 638 449 582T399 444Q392 401 395 367H558L550
319H399Q400 307 406 267T414 209T416 159T412 100Q489 57 546 57Q594 57 634 82T681 148H729ZM301 107Q264 120 228 120Q208 120 197 120T169 117T142 111T124 99T113 79Q109 59 126 48T170 37Q213 37 250 55T301 107Z" />
<glyph unicode="&#xa5;" glyph-name="yen" horiz-adv-x="756" d="M846 639Q787 639 771 635T745 618L545 348H662L654 300H510L491 274L478 200H637L629 152H470L453 47H548L540 0Q506 3 378 3Q251 3 215 0L223 47H317L334 152H176L184 200H342L355 274L344 300H201L209
348H325L208 639H123L130 686Q166 683 280 683Q411 683 447 686L440 639H365L482 348H484L692 629Q670 639 625 639L632 686L751 683L853 686L846 639Z" />
<glyph unicode="&#xa7;" glyph-name="section" horiz-adv-x="604" d="M583 200Q571 124 477 74Q505 24 496 -32Q483 -108 416 -160T267 -212Q195 -212 153 -161T122 -37Q127 -11 148 7T195 26T236 8T248 -37Q244 -60 227 -77T187 -99Q219 -134 280 -134Q322 -134
356 -104T398 -32Q400 -16 395 -3T375 22T350 40T318 57L223 102Q161 133 127 184T104 300Q117 377 210 425Q182 476 192 532Q205 608 272 660T421 712Q493 712 535 661T566 537Q562 511 540 493T492 474T451 492T440 537Q444 560 461 577T500 599Q470 634 408
634Q366 634 332 604T290 532Q287 516 292 503T312 478T338 460T370 443L464 398Q526 367 560 316T583 200ZM473 200Q482 254 400 294L306 339Q272 354 243 383Q224 357 214 300Q205 247 287 206L382 161Q413 145 445 117Q465 145 473 200Z" />
<glyph unicode="&#xa8;" glyph-name="dieresis" horiz-adv-x="500" d="M294 609Q289 581 266 560T211 539Q182 539 165 559T153 609Q158 637 181 658T235 679Q264 679 281 659T294 609ZM552 609Q547 581 524 560T469 539Q440 539 423 559T411 609Q416 637 439
658T493 679Q522 679 539 659T552 609Z" />
<glyph unicode="&#xa9;" glyph-name="copyright" horiz-adv-x="686" d="M743 343Q720 201 603 101T343 0T118 100T57 343Q81 485 198 585T457 686Q600 686 683 586T743 343ZM683 343Q702 460 633 543T447 626T234 543T117 343Q98 226 167 143T353 60T566 143T683
343ZM523 285Q516 241 474 204T375 166Q298 166 257 213T228 343Q242 425 299 472T433 520Q479 520 510 489L543 515Q549 520 553 520Q562 520 559 506L541 398Q539 388 537 386T526 384Q518 384 516 385T514 392Q515 443 494 469T439 496Q383 496 347 455Q319
424 304 343Q292 269 307 236Q326 190 389 190Q425 190 458 215T500 287Q501 296 512 296Q519 296 521 294T523 285Z" />
<glyph unicode="&#xaa;" glyph-name="ordfeminine" horiz-adv-x="431" d="M473 397Q471 385 465 383T444 380H408Q381 380 365 386T346 400T340 417T341 432Q301 376 228 376Q173 376 133 396T100 456Q108 508 179 536T349 566L354 591Q366 672 294 672Q268 672
244 668Q246 667 248 664T255 652T258 633Q254 612 237 601T197 589Q177 589 163 600T153 633Q163 697 301 697Q378 697 417 669T448 590L423 439Q422 431 422 426T431 418T459 413Q463 413 465 413T470 410T474 405T473 397ZM438 329Q434 312 411 312H124Q114
312 108 317T103 329Q104 336 112 341T130 346H417Q427 346 433 341T438 329ZM335 477L346 543Q331 542 314 539T270 528T223 502T198 456Q195 435 206 418T243 401Q269 401 298 419T335 477Z" />
<glyph unicode="&#xab;" glyph-name="guillemotleft" horiz-adv-x="556" d="M253 16Q251 0 236 0H228Q218 0 216 10Q198 131 125 227Q118 235 129 246Q232 341 292 463Q297 472 307 472H315Q321 472 324 468T326 456Q295 350 238 236Q256 129 253 16ZM447 16Q445
0 430 0H422Q412 0 410 10Q392 131 319 227Q312 235 323 246Q426 341 486 463Q491 472 501 472H509Q515 472 518 468T520 456Q489 350 432 236Q450 129 447 16Z" />
<glyph unicode="&#xac;" glyph-name="logicalnot" horiz-adv-x="778" d="M744 138Q742 125 732 117T709 108T689 116T684 138L717 333H142Q129 333 122 341T117 363Q118 376 128 384T152 393H757Q770 393 777 385T782 363L744 138Z" />
<glyph unicode="&#xae;" glyph-name="registered" horiz-adv-x="686" d="M743 343Q720 201 603 101T343 0T118 100T57 343Q81 485 198 585T457 686Q600 686 683 586T743 343ZM683 343Q702 460 633 543T447 626T234 543T117 343Q98 226 167 143T353 60T566 143T683
343ZM575 222Q574 215 570 205T551 182T513 169Q430 169 422 215Q421 227 426 259Q433 302 426 318Q417 337 392 337H349L326 198H373L369 175Q351 176 288 176Q224 176 207 175L211 198H258L307 494H260L264 517H430Q492 517 523 491T548 424Q543 397 519 375T458
344Q499 324 500 284Q500 283 500 276T500 261T499 247Q498 235 498 225T500 206T506 192T520 187Q542 187 552 222Q553 233 565 233T575 222ZM472 424Q474 443 475 458T462 484T416 494H375L352 355H392Q416 355 432 360T455 377T466 398T472 424Z" />
<glyph unicode="&#xaf;" glyph-name="overscore" horiz-adv-x="500" d="M528 583H167L176 635H537L528 583Z" />
<glyph unicode="&#xb0;" glyph-name="degree" horiz-adv-x="375" d="M417 547Q408 490 361 449T256 408T165 449T140 547Q150 605 197 645T302 686Q359 686 393 646T417 547ZM357 547Q363 580 344 603T292 626Q259 626 233 603T200 547Q195 515 214 492T266 468Q298
468 325 491T357 547Z" />
<glyph unicode="&#xb1;" glyph-name="plusminus" horiz-adv-x="778" d="M726 30Q721 0 678 0H99Q88 0 81 1T67 9T61 31Q66 61 109 61H368L408 302H149Q138 302 131 303T117 311T112 333Q117 363 160 363H419L462 623Q468 665 500 665Q530 665 523 623L480 363H739Q750
363 757 362T771 354T776 332Q771 302 728 302H469L429 61H688Q699 61 706 60T720 52T726 30Z" />
<glyph unicode="&#xb4;" glyph-name="acute" horiz-adv-x="500" d="M486 644Q482 616 446 595L303 511L276 544L382 676Q407 706 435 706Q459 706 474 687T486 644Z" />
<glyph unicode="&#xb5;" glyph-name="mu" horiz-adv-x="556" d="M552 0Q518 -2 495 -2Q438 -2 374 -6L385 62H384Q336 -6 256 -6Q227 -6 206 -3L182 -147H251L244 -194Q193 -191 118 -191Q42 -191 -8 -194L-1 -147H68L152 354Q157 384 148 389T90 395L98 442L282
450L225 106Q215 66 223 48T275 30Q321 30 354 67T397 165L428 354Q433 384 424 389T366 395L374 442L558 450L498 88Q493 58 502 53T560 47L552 0Z" />
<glyph unicode="&#xb6;" glyph-name="paragraph" horiz-adv-x="703" d="M781 663Q776 633 731 633H680L549 -150Q546 -163 545 -169T534 -184T511 -194Q482 -194 488 -150L619 633H539L408 -150Q405 -163 404 -169T393 -184T370 -194Q341 -194 347 -150L409 220Q272
228 198 292T140 457Q157 559 253 626T467 694H741Q753 694 760 693T775 685T781 663Z" />
<glyph unicode="&#xb7;" glyph-name="middot" horiz-adv-x="778" d="M529 375T524 343T492 288T433 265T382 288T368 343T400 398T459 421T510 398Z" />
<glyph unicode="&#xb8;" glyph-name="cedilla" horiz-adv-x="444" d="M337 -116Q333 -140 316 -157T280 -182T225 -194T167 -199T104 -200H56L64 -152H88Q115 -152 129 -152T164 -148T196 -137T209 -116Q211 -100 197 -91T160 -81L175 5H271L264 -33Q299 -33 320
-57T337 -116Z" />
<glyph unicode="&#xba;" glyph-name="ordmasculine" horiz-adv-x="419" d="M485 533Q473 460 415 418T272 376Q190 376 146 418T113 533Q126 608 184 652T325 697Q410 697 453 652T485 533ZM427 329Q423 312 400 312H124Q114 312 108 317T103 329Q104 336 112
341T130 346H406Q416 346 422 341T427 329ZM378 540Q389 603 386 629Q383 647 365 659T321 672Q297 672 275 661T244 629Q234 610 221 540Q210 474 213 450Q216 428 234 416T277 404Q300 404 322 415T355 447Q368 473 378 540Z" />
<glyph unicode="&#xbb;" glyph-name="guillemotright" horiz-adv-x="556" d="M506 227Q403 131 342 10Q339 0 328 0H320Q304 0 308 16Q344 134 396 236Q378 346 382 456Q382 463 387 467T398 472H406Q416 472 418 463Q438 340 509 246Q515 236 506 227ZM312 227Q209
131 148 10Q145 0 134 0H126Q110 0 114 16Q150 134 202 236Q184 346 188 456Q188 463 193 467T204 472H212Q222 472 224 463Q244 340 315 246Q321 236 312 227Z" />
<glyph unicode="&#xbf;" glyph-name="questiondown" horiz-adv-x="472" d="M370 422Q365 390 338 367T279 344T228 367T214 422Q220 454 246 477T305 500T356 477T370 422ZM403 -73Q393 -131 333 -165T188 -200Q175 -200 165 -199T133 -195T96 -184T66 -162T45
-126T44 -71Q55 -9 105 26Q143 53 169 83T209 142T228 191T238 235L240 247Q243 265 247 269T268 274Q285 274 287 268T286 237Q264 110 199 8Q179 -24 170 -85Q160 -133 164 -148T199 -164Q262 -164 313 -133Q288 -120 281 -104Q275 -90 278 -72Q283 -43 304 -26T351
-9Q374 -9 391 -25T403 -73Z" />
<glyph unicode="&#xc0;" glyph-name="Agrave" horiz-adv-x="756" d="M720 0Q685 3 571 3Q444 3 407 0L415 47H498L473 182H254L197 71L191 59Q191 56 195 54T208 51T225 49T243 48T258 47T267 47L259 0L142 3L35 0L43 47Q81 47 101 49Q122 51 128 54T140 70L452
672Q461 690 469 694T494 698Q505 698 510 697T520 690T527 672L643 47H728L720 0ZM464 229L415 493L278 229H464ZM577 776L545 738L413 798Q380 814 380 841Q379 870 401 892T452 914Q476 914 491 892L577 776Z" />
<glyph unicode="&#xc1;" glyph-name="Aacute" horiz-adv-x="756" d="M720 0Q685 3 571 3Q444 3 407 0L415 47H498L473 182H254L197 71L191 59Q191 56 195 54T208 51T225 49T243 48T258 47T267 47L259 0L142 3L35 0L43 47Q81 47 101 49Q122 51 128 54T140 70L452
672Q461 690 469 694T494 698Q505 698 510 697T520 690T527 672L643 47H728L720 0ZM464 229L415 493L278 229H464ZM656 841Q646 814 609 798L457 738L437 776L561 892Q586 914 608 914Q637 914 651 892T656 841Z" />
<glyph unicode="&#xc2;" glyph-name="Acircumflex" horiz-adv-x="756" d="M720 0Q685 3 571 3Q444 3 407 0L415 47H498L473 182H254L197 71L191 59Q191 56 195 54T208 51T225 49T243 48T258 47T267 47L259 0L142 3L35 0L43 47Q81 47 101 49Q122 51 128 54T140
70L452 672Q461 690 469 694T494 698Q505 698 510 697T520 690T527 672L643 47H728L720 0ZM464 229L415 493L278 229H464ZM678 752L658 728L508 786L338 728L328 752L527 893L678 752Z" />
<glyph unicode="&#xc3;" glyph-name="Atilde" horiz-adv-x="756" d="M720 0Q685 3 571 3Q444 3 407 0L415 47H498L473 182H254L197 71L191 59Q191 56 195 54T208 51T225 49T243 48T258 47T267 47L259 0L142 3L35 0L43 47Q81 47 101 49Q122 51 128 54T140 70L452
672Q461 690 469 694T494 698Q505 698 510 697T520 690T527 672L643 47H728L720 0ZM464 229L415 493L278 229H464ZM680 812L630 759Q627 755 620 749T597 736T562 728Q543 728 499 742Q451 759 429 759Q391 759 361 728L337 750L387 803Q390 807 397 813T420 826T455
834T517 820Q566 803 588 803Q626 803 656 834L680 812Z" />
<glyph unicode="&#xc4;" glyph-name="Adieresis" horiz-adv-x="756" d="M720 0Q685 3 571 3Q444 3 407 0L415 47H498L473 182H254L197 71L191 59Q191 56 195 54T208 51T225 49T243 48T258 47T267 47L259 0L142 3L35 0L43 47Q81 47 101 49Q122 51 128 54T140 70L452
672Q461 690 469 694T494 698Q505 698 510 697T520 690T527 672L643 47H728L720 0ZM464 229L415 493L278 229H464ZM429 798Q424 770 401 749T346 728Q317 728 300 748T288 798Q293 826 316 847T370 868Q399 868 416 848T429 798ZM735 798Q730 770 707 749T652 728Q623
728 606 748T594 798Q599 826 622 847T676 868Q705 868 722 848T735 798Z" />
<glyph unicode="&#xc5;" glyph-name="Aring" horiz-adv-x="756" d="M720 0Q685 3 571 3Q444 3 407 0L415 47H498L473 182H254L197 71L191 59Q191 56 195 54T208 51T225 49T243 48T258 47T267 47L259 0L142 3L35 0L43 47Q81 47 101 49Q122 51 128 54T140 70L452
672Q461 690 469 694T494 698Q505 698 510 697T520 690T527 672L643 47H728L720 0ZM464 229L415 493L278 229H464ZM561 782Q565 808 555 816T515 825Q484 825 472 816T455 782Q451 756 461 748T501 739Q532 739 544 748T561 782ZM615 783Q609 747 578 723T493 698Q442
698 419 722T401 783Q407 816 438 841T523 866Q575 866 598 842T615 783Z" />
<glyph unicode="&#xc6;" glyph-name="AE" horiz-adv-x="906" d="M923 274L831 0H348L356 47H427L470 306H322L198 72L192 60Q191 54 210 51T248 48L268 47L260 0L142 3L35 0L43 47Q85 47 105 49T130 56T141 70L443 639H376L383 686H932L923 445H876Q880 486 877
521T864 583T822 624T739 639H658L610 353H641Q704 353 725 379T757 470H804L758 189H711Q717 227 717 253T697 292T633 306H602L559 47H645Q677 47 704 53T750 68T787 96T814 129T838 173T857 220T876 274H923ZM478 353L526 639H500L347 353H478Z" />
<glyph unicode="&#xc7;" glyph-name="Ccedilla" horiz-adv-x="722" d="M703 227Q689 146 617 75T443 -9L439 -33Q474 -33 495 -57T512 -116Q508 -140 491 -157T455 -182T400 -194T342 -199T279 -200H231L239 -152H263Q290 -152 304 -152T339 -148T371 -137T384
-116Q386 -100 372 -91T335 -81L348 -7Q219 11 154 103T113 343Q141 508 256 602T523 697Q616 697 676 635L743 688Q755 697 763 697Q775 697 777 690T777 669L741 454Q737 434 733 430T709 426Q699 426 695 426T689 430T686 442Q688 545 644 597T534 650Q423 650
351 568Q324 538 305 492T280 418T266 343Q254 267 254 218T271 128Q291 84 335 60T434 36Q479 36 525 56T609 123T657 231Q659 243 664 245T682 248Q696 248 700 245T703 227Z" />
<glyph unicode="&#xc8;" glyph-name="Egrave" horiz-adv-x="656" d="M673 274L581 0H34L42 47H136L234 633H140L147 680H681L672 439H625Q629 481 625 516T610 578T565 618T475 633H376L333 376H355Q388 376 409 383T442 408T459 443T469 493H516L469 212H422Q428
249 428 275T410 315T347 329H325L278 47H381Q422 47 453 54T509 77T549 111T580 158T604 211T626 274H673ZM527 776L495 738L363 798Q330 814 330 841Q329 870 351 892T402 914Q426 914 441 892L527 776Z" />
<glyph unicode="&#xc9;" glyph-name="Eacute" horiz-adv-x="656" d="M673 274L581 0H34L42 47H136L234 633H140L147 680H681L672 439H625Q629 481 625 516T610 578T565 618T475 633H376L333 376H355Q388 376 409 383T442 408T459 443T469 493H516L469 212H422Q428
249 428 275T410 315T347 329H325L278 47H381Q422 47 453 54T509 77T549 111T580 158T604 211T626 274H673ZM606 841Q596 814 559 798L407 738L387 776L511 892Q536 914 558 914Q587 914 601 892T606 841Z" />
<glyph unicode="&#xca;" glyph-name="Ecircumflex" horiz-adv-x="656" d="M673 274L581 0H34L42 47H136L234 633H140L147 680H681L672 439H625Q629 481 625 516T610 578T565 618T475 633H376L333 376H355Q388 376 409 383T442 408T459 443T469 493H516L469 212H422Q428
249 428 275T410 315T347 329H325L278 47H381Q422 47 453 54T509 77T549 111T580 158T604 211T626 274H673ZM628 752L608 728L458 786L288 728L278 752L477 893L628 752Z" />
<glyph unicode="&#xcb;" glyph-name="Edieresis" horiz-adv-x="656" d="M673 274L581 0H34L42 47H136L234 633H140L147 680H681L672 439H625Q629 481 625 516T610 578T565 618T475 633H376L333 376H355Q388 376 409 383T442 408T459 443T469 493H516L469 212H422Q428
249 428 275T410 315T347 329H325L278 47H381Q422 47 453 54T509 77T549 111T580 158T604 211T626 274H673ZM379 798Q374 770 351 749T296 728Q267 728 250 748T238 798Q243 826 266 847T320 868Q349 868 366 848T379 798ZM685 798Q680 770 657 749T602 728Q573
728 556 748T544 798Q549 826 572 847T626 868Q655 868 672 848T685 798Z" />
<glyph unicode="&#xcc;" glyph-name="Igrave" horiz-adv-x="397" d="M368 0Q333 3 199 3T28 0L36 47H135L234 639H135L142 686Q178 683 312 683T482 686L475 639H376L277 47H376L368 0ZM398 776L366 738L234 798Q201 814 201 841Q200 870 222 892T273 914Q297
914 312 892L398 776Z" />
<glyph unicode="&#xcd;" glyph-name="Iacute" horiz-adv-x="397" d="M368 0Q333 3 199 3T28 0L36 47H135L234 639H135L142 686Q178 683 312 683T482 686L475 639H376L277 47H376L368 0ZM477 841Q467 814 430 798L278 738L258 776L382 892Q407 914 429 914Q458
914 472 892T477 841Z" />
<glyph unicode="&#xce;" glyph-name="Icircumflex" horiz-adv-x="397" d="M368 0Q333 3 199 3T28 0L36 47H135L234 639H135L142 686Q178 683 312 683T482 686L475 639H376L277 47H376L368 0ZM499 752L479 728L329 786L159 728L149 752L348 893L499 752Z" />
<glyph unicode="&#xcf;" glyph-name="Idieresis" horiz-adv-x="397" d="M368 0Q333 3 199 3T28 0L36 47H135L234 639H135L142 686Q178 683 312 683T482 686L475 639H376L277 47H376L368 0ZM250 798Q245 770 222 749T167 728Q138 728 121 748T109 798Q114 826 137
847T191 868Q220 868 237 848T250 798ZM556 798Q551 770 528 749T473 728Q444 728 427 748T415 798Q420 826 443 847T497 868Q526 868 543 848T556 798Z" />
<glyph unicode="&#xd1;" glyph-name="Ntilde" horiz-adv-x="783" d="M855 639H835Q807 639 784 636Q766 634 762 631T756 610L659 32Q657 19 655 13T647 4T627 0Q609 0 602 13L279 589L194 76Q191 60 193 56T214 50Q235 47 263 47H283L275 0L155 3L34 0L42 47H62Q90
47 112 50Q130 52 134 55T141 76L235 639H141L148 686H356Q372 686 377 684T389 671L639 225L703 610Q706 620 705 625T699 632T682 636Q661 639 634 639H614L621 686L742 683L862 686L855 639ZM694 812L644 759Q641 755 634 749T611 736T576 728Q557 728 513 742Q465
759 443 759Q405 759 375 728L351 750L401 803Q404 807 411 813T434 826T469 834T531 820Q580 803 602 803Q640 803 670 834L694 812Z" />
<glyph unicode="&#xd2;" glyph-name="Ograve" horiz-adv-x="750" d="M750 339Q722 175 618 82T372 -11Q235 -11 160 81T113 339Q141 507 246 602T491 697Q628 697 703 604T750 339ZM599 353Q610 422 612 456T605 553Q593 603 561 630T484 657Q444 657 403 633T330
557Q292 494 268 353Q260 303 257 276T253 206T263 130Q275 85 305 58T380 31Q422 31 463 59T532 134Q576 210 599 353ZM574 776L542 738L410 798Q377 814 377 841Q376 870 398 892T449 914Q473 914 488 892L574 776Z" />
<glyph unicode="&#xd3;" glyph-name="Oacute" horiz-adv-x="750" d="M750 339Q722 175 618 82T372 -11Q235 -11 160 81T113 339Q141 507 246 602T491 697Q628 697 703 604T750 339ZM599 353Q610 422 612 456T605 553Q593 603 561 630T484 657Q444 657 403 633T330
557Q292 494 268 353Q260 303 257 276T253 206T263 130Q275 85 305 58T380 31Q422 31 463 59T532 134Q576 210 599 353ZM653 841Q643 814 606 798L454 738L434 776L558 892Q583 914 605 914Q634 914 648 892T653 841Z" />
<glyph unicode="&#xd4;" glyph-name="Ocircumflex" horiz-adv-x="750" d="M750 339Q722 175 618 82T372 -11Q235 -11 160 81T113 339Q141 507 246 602T491 697Q628 697 703 604T750 339ZM599 353Q610 422 612 456T605 553Q593 603 561 630T484 657Q444 657 403
633T330 557Q292 494 268 353Q260 303 257 276T253 206T263 130Q275 85 305 58T380 31Q422 31 463 59T532 134Q576 210 599 353ZM675 752L655 728L505 786L335 728L325 752L524 893L675 752Z" />
<glyph unicode="&#xd5;" glyph-name="Otilde" horiz-adv-x="750" d="M750 339Q722 175 618 82T372 -11Q235 -11 160 81T113 339Q141 507 246 602T491 697Q628 697 703 604T750 339ZM599 353Q610 422 612 456T605 553Q593 603 561 630T484 657Q444 657 403 633T330
557Q292 494 268 353Q260 303 257 276T253 206T263 130Q275 85 305 58T380 31Q422 31 463 59T532 134Q576 210 599 353ZM677 812L627 759Q624 755 617 749T594 736T559 728Q540 728 496 742Q448 759 426 759Q388 759 358 728L334 750L384 803Q387 807 394 813T417
826T452 834T514 820Q563 803 585 803Q623 803 653 834L677 812Z" />
<glyph unicode="&#xd6;" glyph-name="Odieresis" horiz-adv-x="750" d="M750 339Q722 175 618 82T372 -11Q235 -11 160 81T113 339Q141 507 246 602T491 697Q628 697 703 604T750 339ZM599 353Q610 422 612 456T605 553Q593 603 561 630T484 657Q444 657 403 633T330
557Q292 494 268 353Q260 303 257 276T253 206T263 130Q275 85 305 58T380 31Q422 31 463 59T532 134Q576 210 599 353ZM426 798Q421 770 398 749T343 728Q314 728 297 748T285 798Q290 826 313 847T367 868Q396 868 413 848T426 798ZM732 798Q727 770 704 749T649
728Q620 728 603 748T591 798Q596 826 619 847T673 868Q702 868 719 848T732 798Z" />
<glyph unicode="&#xd8;" glyph-name="Oslash" horiz-adv-x="778" d="M778 340Q750 174 641 82T387 -11Q298 -11 232 25L170 -59L139 -39L202 45Q154 78 124 151T113 340Q140 503 248 600T505 697Q588 697 659 661L721 745L752 725L690 640Q752 592 772 512T778
340ZM618 607Q611 617 599 627T559 649T498 661Q455 661 406 638T320 558Q279 493 255 340Q246 289 243 259T240 186T252 114L618 607ZM636 340Q645 395 648 422T651 495T638 571L272 78Q317 25 393 25Q434 25 481 45T563 113Q584 142 599 185T621 258T636 340Z"
/>
<glyph unicode="&#xd9;" glyph-name="Ugrave" horiz-adv-x="769" d="M841 639H821Q793 639 770 636Q752 634 748 631T742 610L678 227Q661 124 587 57T402 -11Q275 -11 212 56T166 229L235 639H141L148 686Q183 683 313 683T478 686L471 639H377L305 210Q303 194
302 186T300 157T301 123T311 91T330 63T364 44T414 36Q487 36 547 81T625 230L689 610Q692 620 691 625T685 632T668 636Q647 639 620 639H600L607 686L728 683L848 686L841 639ZM607 776L575 738L443 798Q410 814 410 841Q409 870 431 892T482 914Q506 914 521
892L607 776Z" />
<glyph unicode="&#xda;" glyph-name="Uacute" horiz-adv-x="769" d="M841 639H821Q793 639 770 636Q752 634 748 631T742 610L678 227Q661 124 587 57T402 -11Q275 -11 212 56T166 229L235 639H141L148 686Q183 683 313 683T478 686L471 639H377L305 210Q303 194
302 186T300 157T301 123T311 91T330 63T364 44T414 36Q487 36 547 81T625 230L689 610Q692 620 691 625T685 632T668 636Q647 639 620 639H600L607 686L728 683L848 686L841 639ZM686 841Q676 814 639 798L487 738L467 776L591 892Q616 914 638 914Q667 914 681
892T686 841Z" />
<glyph unicode="&#xdb;" glyph-name="Ucircumflex" horiz-adv-x="769" d="M841 639H821Q793 639 770 636Q752 634 748 631T742 610L678 227Q661 124 587 57T402 -11Q275 -11 212 56T166 229L235 639H141L148 686Q183 683 313 683T478 686L471 639H377L305 210Q303
194 302 186T300 157T301 123T311 91T330 63T364 44T414 36Q487 36 547 81T625 230L689 610Q692 620 691 625T685 632T668 636Q647 639 620 639H600L607 686L728 683L848 686L841 639ZM708 752L688 728L538 786L368 728L358 752L557 893L708 752Z" />
<glyph unicode="&#xdc;" glyph-name="Udieresis" horiz-adv-x="769" d="M841 639H821Q793 639 770 636Q752 634 748 631T742 610L678 227Q661 124 587 57T402 -11Q275 -11 212 56T166 229L235 639H141L148 686Q183 683 313 683T478 686L471 639H377L305 210Q303
194 302 186T300 157T301 123T311 91T330 63T364 44T414 36Q487 36 547 81T625 230L689 610Q692 620 691 625T685 632T668 636Q647 639 620 639H600L607 686L728 683L848 686L841 639ZM459 798Q454 770 431 749T376 728Q347 728 330 748T318 798Q323 826 346 847T400
868Q429 868 446 848T459 798ZM765 798Q760 770 737 749T682 728Q653 728 636 748T624 798Q629 826 652 847T706 868Q735 868 752 848T765 798Z" />
<glyph unicode="&#xdf;" glyph-name="germandbls" horiz-adv-x="560" d="M561 180Q546 91 479 43T325 -6Q277 -6 254 20T235 80Q240 107 258 119T294 131Q314 131 327 117T336 81Q330 50 302 37Q312 30 328 30Q417 30 443 179Q479 397 335 408Q330 409 329 409T323
411T320 416T320 426Q321 434 325 438T332 442T345 444Q461 451 479 563Q495 664 402 664Q368 664 344 653T309 621T293 588T286 559L193 0Q152 3 129 3L16 0L24 47H93L151 397H82L90 444H159L178 556Q190 626 252 663T409 700Q515 700 560 660T597 562Q580 466
449 422Q515 395 545 330T561 180Z" />
<glyph unicode="&#xe0;" glyph-name="agrave" horiz-adv-x="486" d="M489 24Q486 8 479 4T453 0H411Q385 0 368 6T343 19T333 39T330 58T332 74Q282 -6 196 -6Q131 -6 84 23T46 109Q59 183 144 223T347 265L353 301Q362 354 346 385T287 417Q258 417 227 411Q229
409 232 405T240 388T241 361Q236 331 215 315T168 298Q145 298 128 314T116 361Q120 386 138 405T176 432T223 446T265 452T296 453Q388 453 433 412T467 300L431 84Q430 73 430 66T440 53T472 47Q482 46 486 42T489 24ZM326 138L342 233Q328 232 315 230T274
220T227 200T187 164T163 109T171 54T214 30Q245 30 281 55T326 138ZM399 544L360 511L245 595Q217 617 221 644Q226 668 248 687T294 706Q323 706 337 676L399 544Z" />
<glyph unicode="&#xe1;" glyph-name="aacute" horiz-adv-x="486" d="M489 24Q486 8 479 4T453 0H411Q385 0 368 6T343 19T333 39T330 58T332 74Q282 -6 196 -6Q131 -6 84 23T46 109Q59 183 144 223T347 265L353 301Q362 354 346 385T287 417Q258 417 227 411Q229
409 232 405T240 388T241 361Q236 331 215 315T168 298Q145 298 128 314T116 361Q120 386 138 405T176 432T223 446T265 452T296 453Q388 453 433 412T467 300L431 84Q430 73 430 66T440 53T472 47Q482 46 486 42T489 24ZM326 138L342 233Q328 232 315 230T274
220T227 200T187 164T163 109T171 54T214 30Q245 30 281 55T326 138ZM479 644Q475 616 439 595L296 511L269 544L375 676Q400 706 428 706Q452 706 467 687T479 644Z" />
<glyph unicode="&#xe2;" glyph-name="acircumflex" horiz-adv-x="486" d="M489 24Q486 8 479 4T453 0H411Q385 0 368 6T343 19T333 39T330 58T332 74Q282 -6 196 -6Q131 -6 84 23T46 109Q59 183 144 223T347 265L353 301Q362 354 346 385T287 417Q258 417 227
411Q229 409 232 405T240 388T241 361Q236 331 215 315T168 298Q145 298 128 314T116 361Q120 386 138 405T176 432T223 446T265 452T296 453Q388 453 433 412T467 300L431 84Q430 73 430 66T440 53T472 47Q482 46 486 42T489 24ZM326 138L342 233Q328 232 315
230T274 220T227 200T187 164T163 109T171 54T214 30Q245 30 281 55T326 138ZM508 527L484 505L343 604L168 505L154 527L362 712L508 527Z" />
<glyph unicode="&#xe3;" glyph-name="atilde" horiz-adv-x="486" d="M489 24Q486 8 479 4T453 0H411Q385 0 368 6T343 19T333 39T330 58T332 74Q282 -6 196 -6Q131 -6 84 23T46 109Q59 183 144 223T347 265L353 301Q362 354 346 385T287 417Q258 417 227 411Q229
409 232 405T240 388T241 361Q236 331 215 315T168 298Q145 298 128 314T116 361Q120 386 138 405T176 432T223 446T265 452T296 453Q388 453 433 412T467 300L431 84Q430 73 430 66T440 53T472 47Q482 46 486 42T489 24ZM326 138L342 233Q328 232 315 230T274
220T227 200T187 164T163 109T171 54T214 30Q245 30 281 55T326 138ZM517 640L467 587Q436 556 399 556Q380 556 336 570Q288 587 266 587Q227 587 198 556L173 578L223 631Q254 662 291 662Q310 662 354 648Q402 631 424 631Q463 631 492 662L517 640Z" />
<glyph unicode="&#xe4;" glyph-name="adieresis" horiz-adv-x="486" d="M489 24Q486 8 479 4T453 0H411Q385 0 368 6T343 19T333 39T330 58T332 74Q282 -6 196 -6Q131 -6 84 23T46 109Q59 183 144 223T347 265L353 301Q362 354 346 385T287 417Q258 417 227 411Q229
409 232 405T240 388T241 361Q236 331 215 315T168 298Q145 298 128 314T116 361Q120 386 138 405T176 432T223 446T265 452T296 453Q388 453 433 412T467 300L431 84Q430 73 430 66T440 53T472 47Q482 46 486 42T489 24ZM326 138L342 233Q328 232 315 230T274
220T227 200T187 164T163 109T171 54T214 30Q245 30 281 55T326 138ZM287 609Q282 581 259 560T204 539Q175 539 158 559T146 609Q151 637 174 658T228 679Q257 679 274 659T287 609ZM545 609Q540 581 517 560T462 539Q433 539 416 559T404 609Q409 637 432 658T486
679Q515 679 532 659T545 609Z" />
<glyph unicode="&#xe5;" glyph-name="aring" horiz-adv-x="486" d="M489 24Q486 8 479 4T453 0H411Q385 0 368 6T343 19T333 39T330 58T332 74Q282 -6 196 -6Q131 -6 84 23T46 109Q59 183 144 223T347 265L353 301Q362 354 346 385T287 417Q258 417 227 411Q229
409 232 405T240 388T241 361Q236 331 215 315T168 298Q145 298 128 314T116 361Q120 386 138 405T176 432T223 446T265 452T296 453Q388 453 433 412T467 300L431 84Q430 73 430 66T440 53T472 47Q482 46 486 42T489 24ZM326 138L342 233Q328 232 315 230T274
220T227 200T187 164T163 109T171 54T214 30Q245 30 281 55T326 138ZM397 605Q401 631 391 639T351 648Q320 648 308 639T291 605Q287 579 297 571T337 562Q368 562 380 571T397 605ZM451 606Q445 570 414 546T329 521Q278 521 255 545T237 606Q242 639 273 664T359
689Q411 689 434 665T451 606Z" />
<glyph unicode="&#xe6;" glyph-name="ae" horiz-adv-x="722" d="M713 117Q707 87 657 41T528 -6Q433 -6 378 54Q307 -6 199 -6Q126 -6 81 22T45 103Q67 235 345 248L354 301Q374 417 287 417Q258 417 227 411Q229 409 232 405T240 388T241 361Q236 331 215 315T168
298Q145 298 128 314T116 361Q120 386 138 405T176 432T223 446T266 452T297 453Q399 453 443 403Q508 453 593 453Q679 453 714 397T734 247Q731 227 724 223T697 218H454Q441 132 456 92Q479 34 543 34Q573 34 607 53T664 116Q669 127 674 131T692 135Q697 135
701 135T709 130T713 117ZM640 251Q662 417 587 417Q532 417 496 360Q475 327 460 251H640ZM343 121Q344 125 342 130Q334 170 340 214Q320 213 300 209T247 195T191 161T162 103Q158 75 171 53T215 30Q263 30 300 60T343 121Z" />
<glyph unicode="&#xe7;" glyph-name="ccedilla" horiz-adv-x="444" d="M435 117Q433 107 421 86T373 36T292 -2L286 -33Q321 -33 342 -57T359 -116Q355 -140 338 -157T302 -182T247 -194T189 -199T126 -200H78L86 -152H110Q137 -152 151 -152T186 -148T218 -137T231
-116Q233 -100 219 -91T182 -81L196 -1Q125 15 90 73T70 222Q87 327 157 390T327 453Q392 453 432 430T464 361Q459 331 438 315T391 298Q368 298 351 314T339 361Q344 390 367 408Q342 413 323 413Q301 413 283 404T252 378T230 344T215 302T205 263T199 227Q184
135 196 95Q213 34 271 34Q342 34 388 118Q394 131 413 131Q420 131 424 131T432 127T435 117Z" />
<glyph unicode="&#xe8;" glyph-name="egrave" horiz-adv-x="467" d="M458 117Q456 107 443 89T408 48T345 10T258 -6Q157 -6 103 56T66 225Q83 329 154 391T323 453Q368 453 400 440T449 406T475 358T484 303T479 247Q476 227 469 223T442 218H192Q188 195 187
183T185 145T187 103T201 69T228 43T274 34Q309 34 347 54T409 116Q414 124 416 127T424 133T437 135Q442 135 446 135T454 130T458 117ZM385 251Q387 264 389 277T391 318T384 366T362 401T318 417Q227 417 198 251H385ZM389 544L350 511L235 595Q207 617 211
644Q216 668 238 687T284 706Q313 706 327 676L389 544Z" />
<glyph unicode="&#xe9;" glyph-name="eacute" horiz-adv-x="467" d="M458 117Q456 107 443 89T408 48T345 10T258 -6Q157 -6 103 56T66 225Q83 329 154 391T323 453Q368 453 400 440T449 406T475 358T484 303T479 247Q476 227 469 223T442 218H192Q188 195 187
183T185 145T187 103T201 69T228 43T274 34Q309 34 347 54T409 116Q414 124 416 127T424 133T437 135Q442 135 446 135T454 130T458 117ZM385 251Q387 264 389 277T391 318T384 366T362 401T318 417Q227 417 198 251H385ZM469 644Q465 616 429 595L286 511L259
544L365 676Q390 706 418 706Q442 706 457 687T469 644Z" />
<glyph unicode="&#xea;" glyph-name="ecircumflex" horiz-adv-x="467" d="M458 117Q456 107 443 89T408 48T345 10T258 -6Q157 -6 103 56T66 225Q83 329 154 391T323 453Q368 453 400 440T449 406T475 358T484 303T479 247Q476 227 469 223T442 218H192Q188 195
187 183T185 145T187 103T201 69T228 43T274 34Q309 34 347 54T409 116Q414 124 416 127T424 133T437 135Q442 135 446 135T454 130T458 117ZM385 251Q387 264 389 277T391 318T384 366T362 401T318 417Q227 417 198 251H385ZM498 527L474 505L333 604L158 505L144
527L352 712L498 527Z" />
<glyph unicode="&#xeb;" glyph-name="edieresis" horiz-adv-x="467" d="M458 117Q456 107 443 89T408 48T345 10T258 -6Q157 -6 103 56T66 225Q83 329 154 391T323 453Q368 453 400 440T449 406T475 358T484 303T479 247Q476 227 469 223T442 218H192Q188 195
187 183T185 145T187 103T201 69T228 43T274 34Q309 34 347 54T409 116Q414 124 416 127T424 133T437 135Q442 135 446 135T454 130T458 117ZM385 251Q387 264 389 277T391 318T384 366T362 401T318 417Q227 417 198 251H385ZM277 609Q272 581 249 560T194 539Q165
539 148 559T136 609Q141 637 164 658T218 679Q247 679 264 659T277 609ZM535 609Q530 581 507 560T452 539Q423 539 406 559T394 609Q399 637 422 658T476 679Q505 679 522 659T535 609Z" />
<glyph unicode="&#xec;" glyph-name="igrave" horiz-adv-x="278" d="M265 0L149 3L26 0L34 47H103L154 356Q159 384 150 389T95 395L103 442L278 450L211 47H273L265 0ZM295 544L256 511L141 595Q113 617 117 644Q122 668 144 687T190 706Q219 706 233 676L295 544Z" />
<glyph unicode="&#xed;" glyph-name="iacute" horiz-adv-x="278" d="M265 0L149 3L26 0L34 47H103L154 356Q159 384 150 389T95 395L103 442L278 450L211 47H273L265 0ZM375 644Q371 616 335 595L192 511L165 544L271 676Q296 706 324 706Q348 706 363 687T375 644Z" />
<glyph unicode="&#xee;" glyph-name="icircumflex" horiz-adv-x="278" d="M265 0L149 3L26 0L34 47H103L154 356Q159 384 150 389T95 395L103 442L278 450L211 47H273L265 0ZM404 527L380 505L239 604L64 505L50 527L258 712L404 527Z" />
<glyph unicode="&#xef;" glyph-name="idieresis" horiz-adv-x="278" d="M265 0L149 3L26 0L34 47H103L154 356Q159 384 150 389T95 395L103 442L278 450L211 47H273L265 0ZM183 609Q178 581 155 560T100 539Q71 539 54 559T42 609Q47 637 70 658T124 679Q153 679
170 659T183 609ZM441 609Q436 581 413 560T358 539Q329 539 312 559T300 609Q305 637 328 658T382 679Q411 679 428 659T441 609Z" />
<glyph unicode="&#xf1;" glyph-name="ntilde" horiz-adv-x="556" d="M553 0L429 3L305 0L313 47H378L424 321Q433 364 429 384T419 409T403 414Q358 414 310 373T250 256L215 47H284L276 0L151 3L24 0L32 47H101L152 356Q157 384 148 389T90 395L98 442L271 450L254
349H255Q321 450 424 450Q501 450 523 412T536 309L492 47H561L553 0ZM552 640L502 587Q471 556 434 556Q415 556 371 570Q323 587 301 587Q262 587 233 556L208 578L258 631Q289 662 326 662Q345 662 389 648Q437 631 459 631Q498 631 527 662L552 640Z" />
<glyph unicode="&#xf2;" glyph-name="ograve" horiz-adv-x="500" d="M508 219Q490 115 419 55T248 -6Q150 -6 99 54T65 219Q83 326 155 389T325 453Q425 453 475 389T508 219ZM381 229Q397 322 393 356Q391 381 371 399T319 417Q290 417 263 401T224 356Q210 325
194 229Q178 135 181 100Q183 69 204 52T256 34Q284 34 310 51T349 96Q364 127 381 229ZM406 544L367 511L252 595Q224 617 228 644Q233 668 255 687T301 706Q330 706 344 676L406 544Z" />
<glyph unicode="&#xf3;" glyph-name="oacute" horiz-adv-x="500" d="M508 219Q490 115 419 55T248 -6Q150 -6 99 54T65 219Q83 326 155 389T325 453Q425 453 475 389T508 219ZM381 229Q397 322 393 356Q391 381 371 399T319 417Q290 417 263 401T224 356Q210 325
194 229Q178 135 181 100Q183 69 204 52T256 34Q284 34 310 51T349 96Q364 127 381 229ZM486 644Q482 616 446 595L303 511L276 544L382 676Q407 706 435 706Q459 706 474 687T486 644Z" />
<glyph unicode="&#xf4;" glyph-name="ocircumflex" horiz-adv-x="500" d="M508 219Q490 115 419 55T248 -6Q150 -6 99 54T65 219Q83 326 155 389T325 453Q425 453 475 389T508 219ZM381 229Q397 322 393 356Q391 381 371 399T319 417Q290 417 263 401T224 356Q210
325 194 229Q178 135 181 100Q183 69 204 52T256 34Q284 34 310 51T349 96Q364 127 381 229ZM515 527L491 505L350 604L175 505L161 527L369 712L515 527Z" />
<glyph unicode="&#xf5;" glyph-name="otilde" horiz-adv-x="500" d="M508 219Q490 115 419 55T248 -6Q150 -6 99 54T65 219Q83 326 155 389T325 453Q425 453 475 389T508 219ZM381 229Q397 322 393 356Q391 381 371 399T319 417Q290 417 263 401T224 356Q210 325
194 229Q178 135 181 100Q183 69 204 52T256 34Q284 34 310 51T349 96Q364 127 381 229ZM524 640L474 587Q443 556 406 556Q387 556 343 570Q295 587 273 587Q234 587 205 556L180 578L230 631Q261 662 298 662Q317 662 361 648Q409 631 431 631Q470 631 499 662L524
640Z" />
<glyph unicode="&#xf6;" glyph-name="odieresis" horiz-adv-x="500" d="M508 219Q490 115 419 55T248 -6Q150 -6 99 54T65 219Q83 326 155 389T325 453Q425 453 475 389T508 219ZM381 229Q397 322 393 356Q391 381 371 399T319 417Q290 417 263 401T224 356Q210
325 194 229Q178 135 181 100Q183 69 204 52T256 34Q284 34 310 51T349 96Q364 127 381 229ZM294 609Q289 581 266 560T211 539Q182 539 165 559T153 609Q158 637 181 658T235 679Q264 679 281 659T294 609ZM552 609Q547 581 524 560T469 539Q440 539 423 559T411
609Q416 637 439 658T493 679Q522 679 539 659T552 609Z" />
<glyph unicode="&#xf7;" glyph-name="divide" horiz-adv-x="778" d="M763 250Q758 220 717 220H134Q124 220 118 221T104 229T98 250Q103 281 149 281H722Q734 281 741 280T757 272T763 250ZM556 536T551 504T519 449T460 426T409 449T395 504T427 559T486 582T537
559ZM467 -2Q461 -34 435 -57T376 -80T325 -57T311 -2Q316 30 343 53T402 76T453 53T467 -2Z" />
<glyph unicode="&#xf8;" glyph-name="oslash" horiz-adv-x="500" d="M508 219Q490 115 419 55T248 -6Q201 -6 162 9L83 -105L54 -89L131 25Q42 86 65 219Q82 325 153 389T326 453Q373 453 413 437L490 550L519 534L442 420Q485 391 502 338T508 219ZM383 393Q359
417 320 417Q289 417 259 400T212 350Q195 315 179 219Q162 120 172 85L383 393ZM394 219Q411 322 401 360L192 53Q215 30 255 30Q319 30 354 83Q375 113 394 219Z" />
<glyph unicode="&#xf9;" glyph-name="ugrave" horiz-adv-x="556" d="M553 0L375 -6L386 62H385Q336 -6 256 -6Q177 -6 140 22T113 122L152 356Q157 384 148 389T90 395L98 442L282 450L225 105Q215 65 223 48T276 30Q322 30 355 68T397 163L429 356Q434 384 425
389T367 395L375 442L559 450L498 86Q494 58 503 53T561 47L553 0ZM434 544L395 511L280 595Q252 617 256 644Q261 668 283 687T329 706Q358 706 372 676L434 544Z" />
<glyph unicode="&#xfa;" glyph-name="uacute" horiz-adv-x="556" d="M553 0L375 -6L386 62H385Q336 -6 256 -6Q177 -6 140 22T113 122L152 356Q157 384 148 389T90 395L98 442L282 450L225 105Q215 65 223 48T276 30Q322 30 355 68T397 163L429 356Q434 384 425
389T367 395L375 442L559 450L498 86Q494 58 503 53T561 47L553 0ZM514 644Q510 616 474 595L331 511L304 544L410 676Q435 706 463 706Q487 706 502 687T514 644Z" />
<glyph unicode="&#xfb;" glyph-name="ucircumflex" horiz-adv-x="556" d="M553 0L375 -6L386 62H385Q336 -6 256 -6Q177 -6 140 22T113 122L152 356Q157 384 148 389T90 395L98 442L282 450L225 105Q215 65 223 48T276 30Q322 30 355 68T397 163L429 356Q434 384
425 389T367 395L375 442L559 450L498 86Q494 58 503 53T561 47L553 0ZM543 527L519 505L378 604L203 505L189 527L397 712L543 527Z" />
<glyph unicode="&#xfc;" glyph-name="udieresis" horiz-adv-x="556" d="M553 0L375 -6L386 62H385Q336 -6 256 -6Q177 -6 140 22T113 122L152 356Q157 384 148 389T90 395L98 442L282 450L225 105Q215 65 223 48T276 30Q322 30 355 68T397 163L429 356Q434 384
425 389T367 395L375 442L559 450L498 86Q494 58 503 53T561 47L553 0ZM322 609Q317 581 294 560T239 539Q210 539 193 559T181 609Q186 637 209 658T263 679Q292 679 309 659T322 609ZM580 609Q575 581 552 560T497 539Q468 539 451 559T439 609Q444 637 467 658T521
679Q550 679 567 659T580 609Z" />
<glyph unicode="&#xff;" glyph-name="ydieresis" horiz-adv-x="528" d="M571 397Q527 397 516 393T495 373L242 -84Q218 -128 174 -164T79 -200Q39 -200 17 -172T1 -108Q5 -81 25 -66T68 -50Q93 -50 107 -66T116 -107Q109 -147 70 -162Q78 -164 86 -164Q134 -164
176 -108Q189 -90 238 0L150 397H88L96 444L208 441L331 444L323 397H267L322 150L444 372L451 385Q452 390 440 393T414 396L401 397L409 444Q448 441 500 441Q542 441 579 444L571 397ZM308 609Q303 581 280 560T225 539Q196 539 179 559T167 609Q172 637 195
658T249 679Q278 679 295 659T308 609ZM566 609Q561 581 538 560T483 539Q454 539 437 559T425 609Q430 637 453 658T507 679Q536 679 553 659T566 609Z" />
<glyph unicode="&#x131;" glyph-name="dotlessi" horiz-adv-x="278" d="M265 0L149 3L26 0L34 47H103L154 356Q159 384 150 389T95 395L103 442L278 450L211 47H273L265 0Z" />
<glyph unicode="&#x152;" glyph-name="OE" horiz-adv-x="1017" d="M1034 274L942 0H574Q547 0 475 -7Q435 -11 405 -11Q255 -11 179 83T130 340Q156 501 263 599T523 697Q564 697 612 691Q653 686 688 686H1043L1034 445H987Q988 479 988 508T981 561T960 602T916
629T843 639H747L703 380H763Q829 380 853 407T887 497H934L887 216H840Q846 253 845 279T823 319T756 333H696L648 47H749Q783 47 811 53T859 69T897 97T926 130T949 173T968 220T987 274H1034ZM574 344Q604 515 606 560Q609 614 593 637T518 661Q483 661 448
645T380 594T320 498T279 355Q252 192 292 109T412 25Q471 25 495 49T534 127Q546 168 574 344Z" />
<glyph unicode="&#x153;" glyph-name="oe" horiz-adv-x="778" d="M769 117Q764 87 713 41T584 -6Q484 -6 427 61Q351 -6 250 -6Q151 -6 100 56T65 224Q83 330 156 391T327 453Q431 453 480 388Q550 453 648 453Q737 453 771 396T790 247Q787 227 780 223T753 218H509Q507
199 506 193T504 162T504 126T512 93T528 62T556 43T598 34Q631 34 665 54T720 116Q725 127 730 131T748 135Q753 135 757 135T765 130T769 117ZM696 251Q720 417 642 417Q619 417 594 402T551 360Q530 327 515 251H696ZM397 229Q413 324 400 362Q392 387 371 402T321
417Q292 417 266 401T223 362Q199 324 183 229Q168 132 178 94Q185 64 207 47T256 30Q317 30 357 93Q381 132 397 229Z" />
<glyph unicode="&#x178;" glyph-name="Ydieresis" horiz-adv-x="756" d="M846 639Q787 639 771 635T745 618L491 274L453 47H548L540 0Q506 3 378 3Q251 3 215 0L223 47H317L355 274L208 639H123L130 686Q166 683 280 683Q411 683 447 686L440 639H365L483 346L692
629Q670 639 625 639L632 686L751 683L853 686L846 639ZM429 798Q424 770 401 749T346 728Q317 728 300 748T288 798Q293 826 316 847T370 868Q399 868 416 848T429 798ZM735 798Q730 770 707 749T652 728Q623 728 606 748T594 798Q599 826 622 847T676 868Q705
868 722 848T735 798Z" />
<glyph unicode="&#x192;" glyph-name="florin" horiz-adv-x="306" d="M500 613Q495 584 474 568T428 551Q405 551 389 567T377 613Q384 648 410 663Q406 664 399 664T385 663T362 656T333 639T308 603T289 546L272 444H371L363 397H270L212 47H299L291 0Q256 3
154 3L27 0L35 47H104L162 397H104L112 444H170L187 545Q196 599 232 635T313 686T408 700Q459 700 482 674T500 613Z" />
<glyph unicode="&#x2c6;" glyph-name="circumflex" horiz-adv-x="500" d="M515 527L491 505L350 604L175 505L161 527L369 712L515 527Z" />
<glyph unicode="&#x2c7;" glyph-name="caron" horiz-adv-x="500" d="M542 690L334 505L188 690L212 712L353 613L528 712L542 690Z" />
<glyph unicode="&#x2d8;" glyph-name="breve" horiz-adv-x="500" d="M524 702Q507 617 453 566T337 515Q273 515 236 566T211 702H247Q239 645 269 611T347 577Q393 577 435 610T488 702H524Z" />
<glyph unicode="&#x2d9;" glyph-name="dotaccent" horiz-adv-x="278" d="M319 609Q314 578 288 555T227 531Q195 531 176 554T162 609Q167 640 193 663T254 687Q286 687 305 664T319 609Z" />
<glyph unicode="&#x2da;" glyph-name="ring" horiz-adv-x="811" d="M560 605Q564 631 554 639T514 648Q483 648 471 639T454 605Q450 579 460 571T500 562Q531 562 543 571T560 605ZM614 606Q608 570 577 546T492 521Q441 521 418 545T400 606Q405 639 436 664T522
689Q574 689 597 665T614 606Z" />
<glyph unicode="&#x2db;" glyph-name="ogonek" horiz-adv-x="500" d="M329 -150Q270 -204 213 -204Q163 -204 140 -177T123 -114Q127 -86 154 -52T215 5H293Q252 -12 226 -50Q204 -82 214 -110T260 -138Q267 -138 272 -137T281 -134T288 -130T295 -124T301 -119Q317
-109 330 -122Q334 -127 334 -136T329 -150Z" />
<glyph unicode="&#x2dc;" glyph-name="tilde" horiz-adv-x="500" d="M524 640L474 587Q443 556 406 556Q387 556 343 570Q295 587 273 587Q234 587 205 556L180 578L230 631Q261 662 298 662Q317 662 361 648Q409 631 431 631Q470 631 499 662L524 640Z" />
<glyph unicode="&#x2dd;" glyph-name="hungarumlaut" horiz-adv-x="500" d="M369 647Q365 625 340 602L245 511L207 532L249 652Q269 706 312 706Q337 706 355 689T369 647ZM536 647Q532 625 507 602L412 511L374 532L416 652Q436 706 479 706Q504 706 522 689T536 647Z" />
<glyph unicode="&#x3a9;" glyph-name="Omega" horiz-adv-x="722" d="M710 200L640 0H480Q459 0 454 4T453 29Q464 94 516 230Q575 381 588 458Q590 471 591 482T594 515T593 555T582 593T561 628T525 651T470 661Q390 661 340 598Q300 550 285 458Q272 381 282
228Q289 93 278 29Q274 9 268 5T241 0H81L77 200H124Q124 198 125 170T128 129Q129 119 131 115T146 107T185 103H237Q227 147 189 225Q165 276 154 301T134 371T132 457Q149 556 237 626T477 697Q625 697 691 627T741 457Q732 404 702 354T618 238Q543 147 518
103H570Q595 103 609 106T626 114T634 126Q647 149 663 200H710Z" />
<glyph unicode="&#x2013;" glyph-name="endash" horiz-adv-x="500" d="M542 256H43L49 292H548L542 256Z" />
<glyph unicode="&#x2014;" glyph-name="emdash" horiz-adv-x="1000" d="M1042 256H43L49 292H1048L1042 256Z" />
<glyph unicode="&#x2018;" glyph-name="quoteleft" horiz-adv-x="278" d="M287 422Q282 389 257 367T197 344Q155 344 136 379T125 469Q131 508 148 545T185 608T225 654T260 684T280 694Q286 694 291 688T295 674Q294 668 278 655Q188 587 163 479Q187 500 222
500Q258 500 275 477T287 422Z" />
<glyph unicode="&#x2019;" glyph-name="quoteright" horiz-adv-x="278" d="M326 569Q320 530 303 493T266 430T226 384T191 354T171 344Q165 344 160 350T156 364Q157 370 173 383Q264 450 288 559Q264 538 229 538Q193 538 176 561T164 616Q169 649 194 671T254
694Q296 694 315 659T326 569Z" />
<glyph unicode="&#x201a;" glyph-name="quotesinglbase" horiz-adv-x="278" d="M229 29Q223 -10 206 -47T169 -110T129 -156T94 -186T74 -196Q68 -196 63 -190T59 -176Q60 -170 76 -157Q166 -89 191 19Q167 -2 132 -2Q96 -2 79 21T67 76Q72 109 97 131T157 154Q199
154 218 119T229 29Z" />
<glyph unicode="&#x201c;" glyph-name="quotedblleft" horiz-adv-x="517" d="M287 422Q282 389 257 367T197 344Q155 344 136 379T125 469Q131 508 148 545T185 608T225 654T260 684T280 694Q286 694 291 688T295 674Q294 668 278 655Q188 587 163 479Q187 500
222 500Q258 500 275 477T287 422ZM526 422Q521 389 496 367T436 344Q394 344 375 379T364 469Q370 508 387 545T424 608T464 654T499 684T519 694Q525 694 530 688T534 674Q533 668 517 655Q427 587 402 479Q426 500 461 500Q497 500 514 477T526 422Z" />
<glyph unicode="&#x201d;" glyph-name="quotedblright" horiz-adv-x="517" d="M326 569Q320 530 303 493T266 430T226 384T191 354T171 344Q165 344 160 350T156 364Q157 370 173 383Q264 450 288 559Q264 538 229 538Q193 538 176 561T164 616Q169 649 194 671T254
694Q296 694 315 659T326 569ZM565 569Q559 530 542 493T505 430T465 384T430 354T410 344Q404 344 399 350T395 364Q396 370 412 383Q503 450 527 559Q503 538 468 538Q432 538 415 561T403 616Q408 649 433 671T493 694Q535 694 554 659T565 569Z" />
<glyph unicode="&#x201e;" glyph-name="quotedblbase" horiz-adv-x="517" d="M236 29Q230 -10 213 -47T176 -110T136 -156T101 -186T81 -196Q75 -196 70 -190T66 -176Q67 -170 83 -157Q173 -89 198 19Q174 -2 139 -2Q103 -2 86 21T74 76Q79 109 104 131T164 154Q206
154 225 119T236 29ZM475 29Q469 -10 452 -47T415 -110T375 -156T340 -186T320 -196Q314 -196 309 -190T305 -176Q306 -170 322 -157Q412 -89 437 19Q413 -2 378 -2Q342 -2 325 21T313 76Q318 109 343 131T403 154Q445 154 464 119T475 29Z" />
<glyph unicode="&#x2020;" glyph-name="dagger" horiz-adv-x="511" d="M521 443Q518 421 501 405T455 388T379 414Q360 424 341 428Q341 396 348 359Q356 310 356 290T350 231Q334 137 308 29T267 -130T246 -200Q241 -211 220 -211Q203 -211 201 -204Q200 -201
200 -185T200 -156Q208 49 239 231Q243 257 245 268T256 301T280 353Q306 405 312 428Q290 423 254 407Q212 388 186 388Q159 388 147 404T138 444Q141 466 158 482T204 499T280 473Q299 463 318 459Q319 489 311 542Q302 612 307 643T332 688T373 702Q392 702
407 689T418 643Q413 609 379 537Q355 490 347 459Q369 464 405 480Q447 499 473 499Q500 499 512 483T521 443Z" />
<glyph unicode="&#x2021;" glyph-name="daggerdbl" horiz-adv-x="511" d="M526 476Q524 466 520 456T499 433T460 421Q431 421 385 446Q371 453 348 460Q348 435 354 402Q368 339 362 308Q357 279 338 265T297 250Q277 250 262 264T251 308Q257 342 290 401Q309
436 317 460Q294 455 273 445Q220 421 191 421Q158 421 149 439T143 476Q147 499 165 515T209 531Q238 531 284 506Q299 499 322 492Q322 517 316 550Q302 613 307 644Q312 673 331 687T373 702Q393 702 408 688T418 644Q413 610 380 551Q363 521 353 492Q374 497
412 513Q451 531 480 531Q506 531 518 515T526 476ZM451 23Q448 1 431 -15T385 -32T325 -14Q284 5 272 8Q272 -18 280 -55Q292 -115 287 -144T263 -187T221 -202Q201 -202 186 -188T176 -144Q180 -116 210 -62Q233 -17 241 8Q221 3 184 -13Q142 -32 116 -32Q89
-32 77 -16T68 24Q71 46 88 62T134 79Q160 79 210 54Q229 43 247 39Q247 65 239 102Q227 162 232 191T256 234T298 249Q318 249 333 235T343 191Q337 159 309 109Q286 64 278 39Q303 46 335 60Q377 79 403 79Q430 79 442 63T451 23Z" />
<glyph unicode="&#x2022;" glyph-name="bullet" horiz-adv-x="778" d="M602 292T591 225T524 110T399 61Q332 61 292 109T263 225T330 341T454 389Q522 389 562 341Z" />
<glyph unicode="&#x2026;" glyph-name="ellipsis" horiz-adv-x="770" d="M235 110T230 78T198 23T139 0T88 23T74 78T106 133T165 156T216 133ZM481 110T476 78T444 23T385 0T334 23T320 78T352 133T411 156T462 133ZM727 110T722 78T690 23T631 0T580 23T566
78T598 133T657 156T708 133Z" />
<glyph unicode="&#x2030;" glyph-name="perthousand" horiz-adv-x="1129" d="M1100 145Q1083 44 1038 -6T941 -56Q916 -56 893 -46T849 -13T822 49T823 146Q840 248 894 297T1008 347Q1059 347 1088 298T1100 145ZM773 145Q756 44 711 -6T614 -56Q589 -56 566
-46T522 -13T495 49T496 146Q513 248 567 297T681 347Q732 347 761 298T773 145ZM810 719Q807 708 797 696L189 -37Q172 -56 158 -56Q145 -56 138 -47T132 -25Q133 -17 147 0L670 632Q621 611 562 611Q490 611 426 647Q431 606 422 549Q404 445 359 396T262 347Q237
347 214 357T171 390T144 452T145 549Q154 602 174 642T221 705T275 739T329 750Q367 750 396 721Q468 646 567 646Q677 646 754 733Q769 750 785 750Q796 750 804 742T810 719ZM1053 146Q1064 206 1057 243T1036 295T1004 311Q992 311 982 305T964 284T951 257T941
220T933 184T926 145Q913 91 914 36T949 -20Q978 -20 1008 20T1053 146ZM726 146Q737 206 730 243T709 295T677 311Q665 311 655 305T637 284T624 257T614 220T606 184T599 145Q586 91 587 36T622 -20Q651 -20 681 20T726 146ZM375 549Q386 609 379 646T357 698T325
714Q313 714 303 708T285 687T272 660T262 623T254 587T247 548Q234 494 235 439T270 383Q299 383 330 423T375 549Z" />
<glyph unicode="&#x2039;" glyph-name="guilsinglleft" horiz-adv-x="362" d="M253 16Q251 0 236 0H228Q218 0 216 10Q198 131 125 227Q118 235 129 246Q232 341 292 463Q297 472 307 472H315Q321 472 324 468T326 456Q295 350 238 236Q256 129 253 16Z" />
<glyph unicode="&#x203a;" glyph-name="guilsinglright" horiz-adv-x="362" d="M312 227Q209 131 148 10Q145 0 134 0H126Q110 0 114 16Q150 134 202 236Q184 346 188 456Q188 463 193 467T204 472H212Q222 472 224 463Q244 340 315 246Q321 236 312 227Z" />
<glyph unicode="&#x2044;" glyph-name="fraction" horiz-adv-x="571" d="M627 666Q626 658 619 650L112 4Q100 -10 84 -10Q71 -10 64 -2T59 20Q61 29 66 36L574 682Q584 696 602 696Q614 696 621 688T627 666Z" />
<glyph unicode="&#x20ac;" glyph-name="Euro" horiz-adv-x="627" d="M572 3Q568 -11 555 -11H548Q545 -11 541 -9L503 19Q454 -11 401 -11Q339 -11 287 14T205 87Q163 153 161 253H110Q103 253 100 258T99 271L108 291Q111 301 123 301H164Q165 315 169 343L178
385H132Q125 385 122 390T121 403L130 423Q133 433 145 433H191Q225 532 291 599Q386 697 519 697Q572 697 611 667L658 695Q664 697 666 697H673Q687 697 685 683L662 546Q660 532 646 532H622Q608 532 610 544Q612 588 590 618T530 649Q491 649 454 628T393 571Q357
522 338 433H569Q576 433 579 428T580 415L571 395Q568 385 556 385H328L321 343L314 301H512Q519 301 522 296T523 283L514 263Q511 253 499 253H308Q298 166 317 115Q330 79 359 58T428 37Q466 37 498 67T543 142Q546 154 559 154H583Q588 154 591 150T594 140L572
3Z" />
<glyph unicode="&#x2122;" glyph-name="trademark" horiz-adv-x="987" d="M484 542H456Q458 576 458 601T443 642T390 658H361L303 309H383L378 281Q349 283 255 283T132 281L137 309H218L276 658H246Q224 658 207 652T180 637T162 611T150 580T140 542H112L148
686H496L484 542ZM990 281Q969 283 896 283T802 281L807 309H864L922 659H921L722 296Q713 281 703 281Q697 281 694 283T689 288T687 296L611 649L558 327Q556 321 556 318T559 313T570 311Q571 311 581 310T599 309H611L606 281L534 283L462 281L467 309H479Q495
309 509 311Q519 312 521 314T526 327L582 665H526L531 693H656Q668 693 671 691T678 677L742 376L907 678Q915 693 934 693H1059L1054 665H998L939 309H995L990 281Z" />
<glyph unicode="&#x221a;" glyph-name="radical" horiz-adv-x="472" d="M653 723Q643 695 613 695H541Q530 695 525 684L214 -38Q204 -60 199 -69T184 -87T157 -95Q153 -95 146 -95T135 -94L133 156L57 51L41 68L37 77L48 95L222 331L224 131Q226 138 232 151T239
166Q268 238 302 318T380 498T447 650Q452 661 458 676T468 698T476 715T483 729T490 740T498 748T506 752T516 755T529 756H619Q636 756 646 748T653 725V723Z" />
<glyph unicode="&#x221e;" glyph-name="infinity" horiz-adv-x="1000" d="M459 188L424 249Q407 278 397 292T369 328T331 359T288 369Q236 369 195 326T143 222Q131 153 156 102T239 51Q353 51 459 188ZM931 222Q943 291 918 342T835 393Q721 393 615 256L650
195Q667 166 677 152T705 116T743 85T786 75Q838 75 879 118T931 222ZM995 222Q978 121 903 48T733 -26Q661 -26 603 8T510 101L504 111Q382 -23 255 -23Q163 -23 113 50T79 222Q96 323 171 396T341 470Q413 470 471 436T564 343L570 333Q692 467 819 467Q911 467
961 394T995 222Z" />
<glyph unicode="&#xfb01;" glyph-name="f_i" horiz-adv-x="556" d="M539 0L417 3L293 0L301 47H370L422 362Q426 387 422 392T398 397H259L201 47H270L262 0L140 3L16 0L24 47H93L151 397H93L101 444H159L176 544Q185 599 229 635T328 686T445 700Q512 700 541
664T564 585Q558 553 536 536T486 518Q459 518 444 536T432 583Q437 610 454 626T491 647Q467 664 434 664Q370 664 329 632T278 543L261 444H367L369 448L546 454L478 47H547L539 0Z" />
<glyph unicode="&#xfb02;" glyph-name="f_l" horiz-adv-x="556" d="M539 0L417 3L293 0L301 47H370L428 397H259L201 47H270L262 0L140 3L16 0L24 47H93L151 397H93L101 444H159L176 544Q185 598 227 634T324 685T443 700Q480 700 504 692Q513 689 519 689Q546
689 586 694L478 47H547L539 0ZM436 444L453 545Q456 563 452 567Q434 584 439 613Q447 645 468 660Q454 664 432 664Q373 664 331 635Q285 602 278 543L261 444H436Z" />
</font>
</defs>
</svg>
