<?xml version="1.0" standalone="no"?> <!DOCTYPE svg PUBLIC "-//W3C//DTD SVG 1.0//EN" "http://www.w3.org/TR/2001/REC-SVG-20010904/DTD/svg10.dtd" > <svg xmlns="http://www.w3.org/2000/svg" width="100%" height="100%">
<defs >
<font id="LMRomanSlant10-Bold" horiz-adv-x="652" ><font-face
    font-family="LM Roman Slanted 10"
    units-per-em="1000"
    panose-1="0 0 8 0 0 0 0 0 0 0"
    ascent="909"
    descent="-250"
    alphabetic="0" />
<missing-glyph horiz-adv-x="364" d="M33 0V666H298V0H33ZM66 33H265V633H66V33Z" />
<glyph unicode=" " glyph-name="space" horiz-adv-x="383" />
<glyph unicode="!" glyph-name="exclam" horiz-adv-x="350" d="M360 634L356 621L241 248Q237 233 232 230T213 226Q197 226 194 230T192 252L201 616Q200 624 202 634Q206 663 233 684T293 705T345 684T360 634ZM271 110T266 78T234 23T175 0T124 23T110 78T142
133T201 156T252 133Z" />
<glyph unicode="&quot;" glyph-name="quotedbl" horiz-adv-x="481" d="M324 640L254 418H206L210 640Q210 663 230 680T276 697Q301 697 316 680T324 640ZM486 640L416 418H368L372 640Q372 663 392 680T438 697Q463 697 478 680T486 640Z" />
<glyph unicode="#" glyph-name="numbersign" horiz-adv-x="958" d="M916 139Q911 108 865 108H612L481 -166Q467 -194 447 -194Q433 -194 426 -185T421 -164Q422 -156 428 -144L548 108H356L225 -166Q211 -194 191 -194Q177 -194 170 -185T165 -164Q166 -156 172
-144L292 108H128Q116 108 109 109T93 117T87 139Q92 169 133 169H322L398 332H160Q150 332 144 333T130 341T124 362Q130 393 176 393H429L558 664Q572 694 594 694Q608 694 615 685T620 664Q619 658 612 644L493 393H685L814 664Q828 694 850 694Q864 694 871
685T876 664Q875 658 868 644L749 393H913Q925 393 932 392T948 384T953 362Q948 332 907 332H718L642 169H880Q890 169 896 168T910 160T916 139ZM654 332H462L386 169H578L654 332Z" />
<glyph unicode="$" glyph-name="dollar" horiz-adv-x="575" d="M545 210Q532 130 473 68T310 -5L302 -56H255L263 -5Q219 -2 186 11T135 44T105 88T93 136T95 185Q100 214 118 230T148 249T169 252Q191 252 208 237T221 189Q217 166 199 147T144 127Q165 52 271
42L313 293Q284 300 269 304T227 322T183 359Q134 418 147 498Q160 573 219 632T381 699L389 750H436L428 699Q497 695 538 667T592 602T597 522Q591 485 568 471T523 456Q500 456 484 472T472 519Q476 542 494 561T545 581Q523 643 420 652L382 428Q467 411 505
366Q560 299 545 210ZM337 439L373 652Q315 648 279 618T235 546Q230 511 253 480T337 439ZM457 162Q465 206 438 240T358 283L318 42Q375 48 412 81T457 162Z" />
<glyph unicode="%" glyph-name="percent" horiz-adv-x="958" d="M917 719Q915 710 902 695L210 -40Q197 -56 182 -56Q169 -56 162 -47T156 -25Q157 -20 160 -14T168 -4L171 0L763 630Q705 608 642 608Q559 608 476 649Q483 602 474 548Q458 448 407 398T294 347Q225
347 182 397T156 549Q172 647 231 698T361 750Q402 750 435 724Q530 644 647 644Q770 644 859 731Q878 750 892 750Q903 750 911 742T917 719ZM917 145Q901 45 850 -5T737 -56Q668 -56 625 -6T598 146Q615 244 674 295T804 347Q864 347 899 297T917 145ZM428 549Q442
634 419 674T357 714Q340 714 326 707T302 685T285 656T273 619T265 583T258 548Q253 514 251 495T250 445T264 399T302 383Q339 383 376 422T428 549ZM870 146Q884 231 861 271T800 311Q783 311 769 304T745 282T728 253T716 216T708 180T701 145Q696 111 694
92T693 42T707 -4T745 -20Q782 -20 819 19T870 146Z" />
<glyph unicode="&amp;" glyph-name="ampersand" horiz-adv-x="894" d="M902 397Q869 397 854 397T823 392T799 377L697 258Q640 191 547 110Q613 36 677 36Q688 36 703 38T739 48T778 74T802 118H849Q837 58 783 24T664 -11Q562 -11 464 52Q357 -11 254 -11Q168
-11 114 30T71 138Q79 182 115 218Q122 224 187 273L271 336Q245 437 260 528Q273 609 337 657T470 705Q523 705 544 663T558 574Q550 528 484 464Q435 418 383 379Q413 278 521 141Q622 224 753 387Q730 397 681 397L689 444Q730 441 811 441Q862 441 910 444L902
397ZM511 574Q512 591 512 612T500 651T465 669Q439 669 409 645T370 565Q357 485 374 415Q500 513 511 574ZM428 80Q331 165 281 302Q220 263 205 174Q202 158 202 139T206 95T227 53T274 36Q353 36 428 80Z" />
<glyph unicode="&apos;" glyph-name="quotesingle" horiz-adv-x="319" d="M324 640L254 418H206L210 640Q210 663 230 680T276 697Q301 697 316 680T324 640Z" />
<glyph unicode="(" glyph-name="parenleft" horiz-adv-x="447" d="M343 -235Q340 -249 322 -249Q311 -249 287 -229T231 -164T177 -67Q120 75 150 251Q196 519 403 696Q470 750 489 750Q496 750 501 747T505 736Q504 731 485 715Q298 553 247 250Q223 109 241
-9Q262 -136 341 -225L343 -235Z" />
<glyph unicode=")" glyph-name="parenright" horiz-adv-x="447" d="M380 250Q335 -17 126 -195Q62 -249 40 -249Q33 -249 29 -246T25 -235Q26 -230 44 -214Q232 -52 283 251Q333 551 200 713Q186 729 187 736Q190 750 207 750Q218 750 242 730T299 665T353 568Q410
426 380 250Z" />
<glyph unicode="*" glyph-name="asterisk" horiz-adv-x="575" d="M573 440Q570 420 554 406T521 392Q509 392 496 403L390 495V418Q390 403 390 374L389 345Q386 326 370 316T338 306T310 315T301 345Q301 349 307 368L351 496L212 403Q196 392 183 392Q167 392
156 405T147 440Q152 469 184 479L333 528L200 577Q172 587 177 616Q181 637 197 650T229 664Q241 664 254 653L361 560V688Q360 702 362 711Q365 730 380 740T412 750T440 741T450 711Q450 709 443 688L399 560L538 653Q554 664 567 664Q583 664 595 651T603 616Q598
587 566 577L417 528L550 479Q578 469 573 440Z" />
<glyph unicode="+" glyph-name="plus" horiz-adv-x="894" d="M871 250Q866 220 823 220H514L462 -90Q456 -132 424 -132Q394 -132 401 -90L453 220H144Q133 220 126 221T112 229T106 250Q111 281 154 281H463L515 591Q521 633 553 633Q583 633 576 591L524 281H833Q844
281 851 280T865 272T871 250Z" />
<glyph unicode="," glyph-name="comma" horiz-adv-x="319" d="M255 31Q249 -8 232 -45T194 -108T154 -154T118 -184T98 -194Q92 -194 87 -188T82 -174T93 -160Q192 -86 217 20Q197 0 159 0Q123 0 106 23T94 78Q99 111 124 133T184 156Q226 156 245 120T255 31Z" />
<glyph unicode="-" glyph-name="hyphen" horiz-adv-x="383" d="M347 174H42L58 271H363L347 174Z" />
<glyph unicode="." glyph-name="period" horiz-adv-x="319" d="M255 110T250 78T218 23T159 0T108 23T94 78T126 133T185 156T236 133Z" />
<glyph unicode="/" glyph-name="slash" horiz-adv-x="575" d="M630 719Q629 712 622 700L89 -222Q83 -232 80 -236T70 -245T52 -250Q41 -250 33 -242T27 -219Q29 -212 36 -200L568 722Q568 723 570 726T574 731T577 735T580 739T583 742T588 746T593 748T599 749T605
750Q616 750 624 742T630 719Z" />
<glyph unicode="0" glyph-name="zero" horiz-adv-x="575" d="M582 319Q577 290 573 269T558 211T534 147T498 88T446 36T376 3T285 -11Q235 -11 198 3T140 36T106 88T89 146T86 211T90 269T98 319Q103 351 107 369T122 427T146 493T182 552T234 606T304 640T396
655T483 641T541 606T575 553T592 493T594 427T590 369T582 319ZM456 331Q488 519 477 556Q468 587 444 603T390 619Q378 619 364 616T331 603T294 573T268 520Q251 467 228 331Q202 172 202 120Q203 71 230 48T291 25Q311 25 331 31T377 63T416 132Q433 187 456
331Z" />
<glyph unicode="1" glyph-name="one" horiz-adv-x="575" d="M494 0Q451 3 296 3T96 0L104 47H243L329 564Q264 544 196 544H176L184 591H204Q328 591 414 648Q424 655 437 655Q455 655 458 648T458 623L362 47H502L494 0Z" />
<glyph unicode="2" glyph-name="two" horiz-adv-x="575" d="M554 222L486 0H57L60 18Q62 33 65 38T79 52L314 257Q440 366 457 465Q467 525 439 566T348 608Q288 608 240 573Q251 570 260 565T279 542T285 501Q279 466 254 448T201 429Q176 429 155 446T141 503Q152
570 220 612T381 655Q488 655 548 603T595 466Q589 431 575 404T527 348T467 299T379 240Q314 197 216 125H363Q454 125 466 131Q482 138 507 222H554Z" />
<glyph unicode="3" glyph-name="three" horiz-adv-x="575" d="M556 180Q543 103 470 46T272 -11Q174 -11 117 30T71 139Q78 176 103 196T161 217T212 196T225 141Q215 82 154 66Q203 32 274 32Q304 32 327 44T362 70T384 109T396 147T403 181Q407 203 408 217T409
255T399 293T370 318T319 330H275Q264 330 260 330T252 335T250 348Q253 364 265 365Q276 367 314 369Q411 375 444 519Q445 537 446 558T430 598T374 616Q308 616 258 580Q314 566 304 510Q299 481 277 461T223 441Q194 441 177 460T165 511Q176 572 237 613T386
655Q488 655 539 616T580 516T521 413T411 352Q476 338 512 306T554 243T556 180Z" />
<glyph unicode="4" glyph-name="four" horiz-adv-x="575" d="M542 0Q508 3 381 3Q247 3 208 0L216 47H328L346 156H58L66 203L488 640Q499 651 504 653T524 656Q545 656 549 651T549 624L479 203H576L568 156H471L453 47H550L542 0ZM365 203L417 513L118 203H365Z" />
<glyph unicode="5" glyph-name="five" horiz-adv-x="575" d="M551 201Q535 108 455 49T257 -11Q168 -11 120 40T84 159Q89 187 106 204T137 225T162 229Q186 229 205 213T218 161Q213 131 192 114T142 94Q177 32 260 32Q294 32 320 44T360 71T386 113T400 158T409
205Q414 236 416 254T419 298T413 338T390 362T348 373Q262 373 205 317Q193 305 181 305Q166 305 163 313T164 336L213 628Q216 655 231 655Q232 655 244 651Q319 623 394 623Q474 623 552 651Q563 655 567 655Q581 655 578 637Q576 626 555 605T501 559T418 517T317
499Q284 499 245 506L223 374Q281 409 358 409Q465 409 515 350T551 201Z" />
<glyph unicode="6" glyph-name="six" horiz-adv-x="575" d="M560 205Q544 106 470 48T289 -11Q158 -11 113 89Q77 172 101 317Q113 390 141 448T205 545T286 608T372 644T458 655Q532 655 563 619T585 530Q580 501 561 484T512 466Q484 466 470 484T460 528Q464
552 481 569T524 590Q503 616 454 616Q409 616 368 593T301 533Q263 476 244 361L241 342Q296 418 374 418Q469 418 523 362T560 205ZM425 207Q430 241 432 255T436 295T434 332T422 358T398 377T359 382Q313 382 275 340T221 210Q206 119 217 87Q219 79 224 71T237
54T261 38T294 32Q323 32 344 41T378 63T400 103T414 149T425 207Z" />
<glyph unicode="7" glyph-name="seven" horiz-adv-x="575" d="M665 644Q661 618 659 611T647 596L462 416Q402 356 370 249Q349 182 336 106L328 60Q316 -11 253 -11Q249 -11 244 -11T230 -7T214 4T204 25T203 59Q237 259 437 454L503 519H334Q236 519 224 513Q206
506 181 422H134L212 676H259Q259 657 279 653Q288 650 362 647T461 644H665Z" />
<glyph unicode="8" glyph-name="eight" horiz-adv-x="575" d="M557 187Q543 101 471 45T283 -11Q179 -11 120 32T75 161Q93 272 231 329Q145 383 160 480Q173 556 235 605T398 655Q489 655 540 618T579 508Q564 422 455 370Q480 354 493 344T528 310T556 256T557
187ZM504 507Q512 558 482 587T388 616Q258 616 245 539Q239 503 279 479L415 395Q492 440 504 507ZM462 132Q466 155 457 173T435 200T397 226L272 302Q176 252 161 161Q151 102 186 67T294 32Q329 32 360 38T424 69T462 132Z" />
<glyph unicode="9" glyph-name="nine" horiz-adv-x="575" d="M581 329Q566 237 529 169T441 63T340 7T237 -11Q158 -11 123 24T96 114Q101 143 121 160T170 178Q198 178 212 160T221 116Q218 96 205 81T182 61T162 54Q192 32 242 32Q290 32 327 57T385 116Q419
171 437 282L441 304Q386 227 308 227Q212 227 158 283T121 440Q138 539 214 597T398 655Q447 655 483 640T540 603T573 547T588 486T591 422T587 369T581 329ZM460 428Q476 519 469 553Q467 563 462 574T439 601T394 616Q356 616 331 604T291 562T271 509T257
438Q252 406 250 390T246 349T248 313T260 287T284 269T323 263Q362 263 393 292T439 357T460 428Z" />
<glyph unicode=":" glyph-name="colon" horiz-adv-x="319" d="M303 398T298 366T266 311T207 288T156 311T142 366T174 421T233 444T284 421ZM255 110T250 78T218 23T159 0T108 23T94 78T126 133T185 156T236 133Z" />
<glyph unicode=";" glyph-name="semicolon" horiz-adv-x="319" d="M303 398T298 366T266 311T207 288T156 311T142 366T174 421T233 444T284 421ZM245 32Q239 -6 223 -43T188 -106T150 -153T117 -184T98 -194Q92 -194 87 -188T82 -174T94 -159Q178 -89 205 12Q185
0 159 0Q123 0 106 23T94 78Q99 111 124 133T184 156Q224 156 239 121T245 32Z" />
<glyph unicode="&lt;" glyph-name="less" horiz-adv-x="894" d="M788 -56Q786 -67 776 -76T752 -86Q744 -86 731 -79L158 219Q135 231 138 251T168 282L844 581Q856 587 864 587Q877 587 884 578T890 557Q887 537 860 525L239 250L768 -24Q790 -36 788 -56Z" />
<glyph unicode="=" glyph-name="equal" horiz-adv-x="894" d="M889 362Q884 332 843 332H160Q150 332 144 333T130 341T124 362Q130 393 176 393H849Q861 393 868 392T884 384T889 362ZM852 139Q847 108 801 108H128Q116 108 109 109T93 117T87 139Q92 169 133
169H816Q826 169 832 168T846 160T852 139Z" />
<glyph unicode="&gt;" glyph-name="greater" horiz-adv-x="894" d="M839 251Q835 230 809 219L133 -80Q121 -86 113 -86Q99 -86 92 -77T87 -56Q90 -36 117 -24L738 251L209 525Q185 538 189 557Q191 569 201 578T224 587Q233 587 246 580L819 282Q842 270 839 251Z" />
<glyph unicode="?" glyph-name="question" horiz-adv-x="543" d="M573 571Q570 549 560 531T534 500T510 482T488 469Q344 392 326 283L322 256Q319 236 315 231T293 226Q277 226 274 231T274 253L281 291Q298 403 405 498Q423 514 432 530T446 578Q449 602 450
621T431 652T368 664Q297 664 250 633L252 632Q255 631 258 629T266 624T274 616T281 605T284 590T284 572Q280 543 259 526T211 509Q188 509 172 524T160 573Q168 626 225 663T380 700Q396 700 409 699T450 695T499 684T540 662T569 626T573 571ZM351 110T346
78T314 23T255 0T204 23T190 78T222 133T281 156T332 133Z" />
<glyph unicode="@" glyph-name="at" horiz-adv-x="894" d="M842 79L838 69Q815 58 770 44T632 12T450 -6Q353 -6 282 23T174 102T123 214T122 347Q148 501 266 600T564 700Q739 700 826 603T887 345Q883 321 878 299T859 243T828 187T783 146T720 128Q629 128
603 173Q543 128 466 128Q363 128 311 188T275 347Q291 446 364 506T539 566Q594 566 632 543T687 482H726Q748 482 751 478T752 453L713 223Q705 164 736 164Q810 164 839 340Q865 498 784 581T557 664Q402 664 298 577T169 347Q147 211 218 121T455 30Q601 30
757 86Q775 93 793 93H817Q827 93 831 93T839 89T842 79ZM599 222L641 472Q624 502 595 516T536 530Q487 530 446 484T389 347Q374 257 400 211T475 164Q549 164 599 222Z" />
<glyph unicode="A" glyph-name="A" horiz-adv-x="869" d="M827 0Q793 3 665 3Q527 3 488 0L496 47H591L555 193H287L217 72L211 60Q210 54 232 51T276 48L298 47L290 0Q254 3 159 3L41 0L49 47H70Q106 47 125 50T148 57T159 70L507 672Q513 683 516 687T528 695T550
698Q561 698 566 697T577 690T586 672L738 47H835L827 0ZM543 240L475 518L315 240H543Z" />
<glyph unicode="B" glyph-name="B" horiz-adv-x="818" d="M784 186Q771 108 697 54T503 0H39L47 47H155L254 639H146L153 686H587Q703 686 761 637T807 514Q797 456 744 414T608 358Q697 351 746 304T784 186ZM665 514Q670 531 667 553T657 594T626 626T567 639H385L341
375H497Q567 375 611 414T665 514ZM637 187Q649 253 622 296Q596 339 529 339H335L286 47H470Q510 47 542 61T590 92T618 133T632 167T637 187Z" />
<glyph unicode="C" glyph-name="C" horiz-adv-x="831" d="M804 227Q789 135 693 62T464 -11Q280 -11 188 88T121 343T272 598T582 697Q695 697 768 629L844 688Q856 697 864 697Q876 697 878 690T878 669L842 454Q838 434 834 430T810 426Q793 426 790 429T787
447Q786 540 732 595T595 650Q468 650 379 573Q303 505 274 343Q249 193 296 121Q355 36 496 36Q581 36 659 87T758 231Q760 243 765 245T783 248Q797 248 801 245T804 227Z" />
<glyph unicode="D" glyph-name="D" horiz-adv-x="882" d="M873 337Q847 181 735 91T470 0H39L47 47H155L254 639H146L153 686H583Q735 686 817 592T873 337ZM726 338Q752 486 719 550Q671 639 536 639H390L291 47H437Q575 47 648 131Q678 165 695 211T726 338Z" />
<glyph unicode="E" glyph-name="E" horiz-adv-x="756" d="M769 274L677 0H39L47 47H155L253 633H145L152 680H773L764 439H717Q718 480 716 506T705 559T678 600T627 624T547 633H395L352 376H407Q474 376 498 403T532 493H579L532 212H485Q496 275 481 302T399
329H344L297 47H449Q503 47 544 58T611 86T659 135T693 196T722 274H769Z" />
<glyph unicode="F" glyph-name="F" horiz-adv-x="724" d="M748 439H701Q702 474 701 504T691 558T665 598T615 624T535 633H395L350 364H400Q467 364 490 391T524 481H571L524 200H477Q488 263 474 290T392 317H342L297 47H432L424 0Q381 3 223 3Q78 3 39 0L47
47H155L253 633H145L152 680H757L748 439Z" />
<glyph unicode="G" glyph-name="G" horiz-adv-x="904" d="M883 229H803L770 28Q768 18 767 14T762 5T751 0T712 17T662 53Q599 -11 465 -11Q277 -11 186 89T121 343Q148 500 273 598T581 697Q693 697 767 629L843 688Q855 697 863 697Q875 697 877 690T877 669L841
454Q837 434 833 430T809 426Q792 426 789 429T786 447Q785 540 731 595T595 650Q525 650 465 626T368 563Q298 487 274 344Q250 198 294 127Q322 82 377 59T500 36Q553 36 594 57Q636 80 644 128L661 229H517L525 276Q579 273 730 273Q856 273 891 276L883 229Z"
/>
<glyph unicode="H" glyph-name="H" horiz-adv-x="900" d="M860 0Q823 3 682 3T502 0L510 47H618L666 333H345L297 47H405L397 0Q360 3 219 3T39 0L47 47H155L254 639H146L153 686Q191 683 332 683T511 686L504 639H396L352 380H673L717 639H609L616 686Q654 683
795 683T974 686L967 639H859L760 47H868L860 0Z" />
<glyph unicode="I" glyph-name="I" horiz-adv-x="436" d="M403 0Q363 3 219 3T33 0L41 47H155L254 639H140L147 686Q188 683 332 683T517 686L510 639H396L297 47H411L403 0Z" />
<glyph unicode="J" glyph-name="J" horiz-adv-x="594" d="M634 639H553L471 150Q459 74 388 32T214 -11Q128 -11 80 23T42 114Q48 151 74 171T132 191Q161 191 181 171T195 114Q191 90 177 72T150 48L137 42Q172 25 215 25Q243 25 265 36T299 62T320 97T331 128T335
149L417 639H276L283 686Q331 683 482 683Q606 683 641 686L634 639Z" />
<glyph unicode="K" glyph-name="K" horiz-adv-x="901" d="M852 0Q816 3 707 3Q572 3 530 0L538 47Q593 47 612 55Q608 68 607 69L446 340L332 257L297 47H405L397 0Q360 3 219 3T39 0L47 47H155L254 639H146L153 686Q191 683 332 683T511 686L504 639H396L342
319L764 628L760 630L752 634Q728 639 695 639L702 686Q738 683 848 683Q910 683 950 686L943 639H926Q854 639 829 621L555 421L766 67Q774 54 784 51T831 47H860L852 0Z" />
<glyph unicode="L" glyph-name="L" horiz-adv-x="692" d="M689 274L612 0H39L47 47H155L254 639H146L153 686Q191 683 336 683Q494 683 538 686L531 639H396L297 47H400Q437 47 469 56T523 79T564 115T594 155T616 199T631 239T642 274H689Z" />
<glyph unicode="M" glyph-name="M" horiz-adv-x="1092" d="M1051 0Q1016 3 881 3Q747 3 710 0L718 47H826L925 639H924L542 24Q529 0 506 0Q486 0 478 25L306 626H305L214 76Q211 60 214 56T239 50Q266 47 292 47H317L309 0Q269 3 175 3Q79 3 40 0L48 47H73Q103
47 127 50Q149 52 153 55T161 76L255 639H147L154 686H376Q389 686 395 685T407 679T416 661L568 132L896 661Q906 678 915 682T944 686H1165L1158 639H1050L951 47H1059L1051 0Z" />
<glyph unicode="N" glyph-name="N" horiz-adv-x="900" d="M967 639H942Q912 639 887 636Q866 634 861 630T854 610L757 32Q755 19 753 13T745 4T725 0Q713 0 710 2T700 13L300 599L213 76Q210 60 213 56T238 50Q265 47 291 47H316L308 0Q268 3 174 3Q78 3 39 0L47
47H72Q102 47 126 50Q148 52 152 55T160 76L254 639H146L153 686H382Q397 686 401 684T413 673L733 205L801 610Q803 627 800 630T775 636Q748 639 723 639H698L705 686Q746 683 840 683Q936 683 974 686L967 639Z" />
<glyph unicode="O" glyph-name="O" horiz-adv-x="864" d="M856 339Q829 183 714 86T429 -11Q260 -11 177 85T121 339Q148 499 263 598T548 697Q714 697 798 599T856 339ZM705 354Q727 493 698 563Q677 610 635 633T541 657Q493 657 444 636T359 571Q301 499 276
354Q253 211 281 135Q301 82 344 57T436 31Q547 31 621 126Q679 199 705 354Z" />
<glyph unicode="P" glyph-name="P" horiz-adv-x="786" d="M803 491Q788 406 706 354T516 302H339L297 47H405L397 0Q360 3 219 3T39 0L47 47H155L254 639H146L153 686H570Q692 686 754 631T803 491ZM645 462T650 491T656 535T654 573T638 608T597 629T525 639H390L340
343H474Q518 343 549 352T598 374T626 409T641 447Z" />
<glyph unicode="Q" glyph-name="Q" horiz-adv-x="864" d="M804 -8Q792 -74 748 -134T636 -194Q613 -194 597 -189T569 -169T550 -141T539 -101T532 -56T527 -2Q480 -11 430 -11Q259 -11 177 86T121 339Q148 499 263 598T548 697Q714 697 798 599T856 339Q845 277
820 221T736 106T595 18Q608 -9 624 -23T651 -39T677 -41Q756 -41 769 -2Q775 18 790 18Q807 18 804 -8ZM709 340Q733 479 703 552Q661 657 541 657Q418 657 339 546Q288 472 268 340Q264 313 262 295T257 244T259 188T272 136T300 87T346 51Q343 57 346 73Q352
108 385 131T457 155Q488 155 512 139T546 108T568 69Q605 92 632 128T675 211T696 280T709 340ZM522 45Q510 119 452 119Q427 119 407 106T382 73Q381 64 383 56T398 38T437 29Q483 29 522 45Z" />
<glyph unicode="R" glyph-name="R" horiz-adv-x="863" d="M876 105T874 95T866 71T845 37T802 3T736 -11Q641 -11 594 15Q571 27 558 42T543 79T541 116T548 164Q559 217 558 241T538 291Q512 325 454 325H337L291 47H399L391 0Q356 3 216 3T39 0L47 47H155L254
639H146L153 686H533Q670 686 741 633T801 501Q792 448 743 405T607 340Q697 304 699 223Q699 221 698 183T696 138Q694 122 695 103T700 66T717 37T751 25Q775 25 796 43T827 94Q829 102 831 106T838 113T854 117Q861 117 865 117T872 111ZM647 500Q651 524 652
538T649 574T630 608T585 629T508 639H390L343 361H459Q506 361 541 371T594 393T624 427T640 463T647 500Z" />
<glyph unicode="S" glyph-name="S" horiz-adv-x="639" d="M608 203Q593 117 526 53T345 -11Q219 -11 154 44L101 -2Q88 -11 80 -11Q71 -11 68 -8T65 0T67 17L97 199Q100 218 104 223T126 228Q141 228 144 224T145 205Q140 163 153 131T188 81T242 53T300 39T353
36Q423 36 459 72T503 153Q510 201 477 240Q464 255 446 261T357 283Q269 303 238 316T179 363Q134 418 147 496Q161 581 228 639T404 697Q506 697 566 642L618 686Q632 697 640 697Q652 697 654 690T654 669L623 486Q620 468 616 463T594 458Q579 458 577 461T574
484Q573 577 522 615T398 654Q330 654 295 622T253 549Q246 508 271 481T331 445L471 414Q540 399 580 341T608 203Z" />
<glyph unicode="T" glyph-name="T" horiz-adv-x="800" d="M829 434H782Q787 477 786 512T774 573T734 613T652 628H576L479 47H632L624 0Q571 3 401 3T176 0L184 47H337L434 628H357Q305 628 271 615T215 572T184 514T161 434H114L176 675H849L829 434Z" />
<glyph unicode="U" glyph-name="U" horiz-adv-x="885" d="M952 639H927Q897 639 872 636Q851 634 846 630T839 610L775 229Q759 129 677 59T460 -11Q311 -11 240 57T186 231L254 639H146L153 686Q191 683 332 683T511 686L504 639H396L326 223Q322 198 321 181T323
134T342 85T389 51T472 36Q515 36 554 46T628 79T689 140T723 233L786 610Q788 627 785 630T760 636Q733 639 708 639H683L690 686Q731 683 825 683Q921 683 959 686L952 639Z" />
<glyph unicode="V" glyph-name="V" horiz-adv-x="869" d="M949 639H930Q880 639 865 634T843 617L477 16Q462 -8 433 -8Q414 -8 408 -3T397 18L225 639H133L140 686Q175 683 298 683Q437 683 475 686L468 639H374L507 160L785 615Q785 616 787 620T791 627Q791
630 786 632T772 635T753 637T732 638T715 639T705 639L712 686Q751 683 843 683L956 686L949 639Z" />
<glyph unicode="W" glyph-name="W" horiz-adv-x="1189" d="M1271 639Q1234 639 1213 637Q1190 635 1184 632T1172 615L841 18Q835 8 832 4T822 -4T802 -8Q785 -8 780 -2T771 18L672 468L423 18Q417 8 414 4T404 -4T384 -8Q367 -8 362 -2T353 18L217 639H131L138
686Q173 683 291 683Q428 683 466 686L459 639H363L463 181L658 533L635 639H549L556 686Q591 683 709 683Q846 683 884 686L877 639H781L881 181L1128 628Q1101 639 1028 639L1035 686Q1071 683 1171 683Q1197 683 1278 686L1271 639Z" />
<glyph unicode="X" glyph-name="X" horiz-adv-x="869" d="M835 0Q801 3 674 3Q534 3 492 0L500 47H583L449 288L248 69Q239 60 238 58Q271 47 328 47L320 0Q285 3 169 3Q77 3 34 0L42 47H71Q102 47 132 50Q156 52 162 55T178 67L424 332L254 639H156L163 686Q198
683 325 683Q465 683 506 686L499 639H416L526 442L687 617Q689 620 697 628Q664 639 607 639L614 686Q650 683 766 683Q858 683 900 686L893 639H864Q830 639 805 636Q779 634 772 632T755 618L550 397L745 47H843L835 0Z" />
<glyph unicode="Y" glyph-name="Y" horiz-adv-x="869" d="M956 639H935Q908 639 882 636Q851 632 840 619L548 274L510 47H619L611 0Q574 3 435 3Q295 3 258 0L266 47H374L412 274L224 639H126L133 686Q168 683 298 683Q440 683 481 686L474 639H389L542 342L775
617L784 629Q760 639 710 639L717 686Q754 683 849 683L963 686L956 639Z" />
<glyph unicode="Z" glyph-name="Z" horiz-adv-x="703" d="M692 284L627 0H96Q83 0 78 1T69 7T68 26T81 52L579 639H449Q344 639 284 592T201 445H154L206 686H720Q733 686 738 685T746 679T748 661T736 637L240 51H380Q439 51 484 65T554 100T599 155T627 216T645
284H692Z" />
<glyph unicode="[" glyph-name="bracketleft" horiz-adv-x="319" d="M251 -250H86L253 750H418L408 689H304L157 -189H261L251 -250Z" />
<glyph unicode="\" glyph-name="backslash" horiz-adv-x="575" d="M473 -219Q471 -233 461 -241T438 -250Q431 -250 426 -248T418 -241T413 -232T410 -220L187 699Q183 715 184 719Q186 733 196 741T219 750Q229 750 235 746T242 736T247 720L471 -199Q474 -212
473 -219Z" />
<glyph unicode="]" glyph-name="bracketright" horiz-adv-x="319" d="M148 -250H-17L-7 -189H97L244 689H140L150 750H315L148 -250Z" />
<glyph unicode="^" glyph-name="asciicircum" horiz-adv-x="556" d="M658 584L643 562L391 685L100 562L92 584L402 744L658 584Z" />
<glyph unicode="_" glyph-name="underscore" horiz-adv-x="869" d="M844 -149H-25L-17 -101H852L844 -149Z" />
<glyph unicode="`" glyph-name="grave" horiz-adv-x="575" d="M451 546L415 509L277 590Q266 597 261 601T251 616T248 642Q252 666 273 685T318 704Q341 704 361 678L451 546Z" />
<glyph unicode="a" glyph-name="a" horiz-adv-x="559" d="M562 24Q559 8 552 4T526 0H478Q441 0 419 7T392 26T385 51T387 77Q330 -6 224 -6Q194 -6 165 -2T106 14T60 50T50 108Q74 251 401 265L407 299Q427 417 317 417Q277 417 243 410Q246 408 249 403T256
387T257 361Q252 331 231 315T184 298Q161 298 144 314T132 361Q148 453 327 453Q435 453 484 411T521 299L485 84Q483 72 484 64T498 52T540 47Q549 47 553 46T560 40T562 24ZM380 139L396 234Q186 221 167 109Q162 76 184 53T245 30Q258 30 275 34T315 48T356
82T380 139Z" />
<glyph unicode="b" glyph-name="b" horiz-adv-x="639" d="M637 223Q620 119 540 57T347 -6Q265 -6 211 56L153 0H106L206 600Q211 628 202 633T144 639L151 686L330 694L281 401Q347 450 436 450Q544 450 599 387T637 223ZM509 223Q513 247 515 262T518 303T514
345T499 379T469 405T419 414Q338 414 278 350L237 99Q243 86 252 74T286 46T344 30Q414 30 460 82Q492 120 509 223Z" />
<glyph unicode="c" glyph-name="c" horiz-adv-x="511" d="M498 117Q497 112 491 101T469 71T430 35T369 7T285 -6Q171 -6 115 57T75 222Q91 318 166 385T367 453Q541 453 525 361Q520 331 499 315T452 298Q429 298 412 314T400 361Q407 391 428 407Q402 413 364
413Q327 413 299 398T255 365T227 316T212 269T204 227Q170 34 311 34Q402 34 449 116Q455 126 459 128T476 131Q483 131 487 131T495 127T498 117Z" />
<glyph unicode="d" glyph-name="d" horiz-adv-x="639" d="M601 0L417 -6L425 43Q356 -6 277 -6Q168 -6 113 57T75 221Q92 325 172 387T364 450Q441 450 492 405L524 600Q529 628 520 633T462 639L469 686L648 694L546 86Q542 58 551 53T609 47L601 0ZM435 103L477
353Q441 414 368 414Q297 414 252 362Q220 323 203 221Q199 197 197 182T194 141T198 99T213 65T243 39T293 30Q370 30 435 103Z" />
<glyph unicode="e" glyph-name="e" horiz-adv-x="527" d="M514 117Q512 108 499 90T462 50T392 11T292 -6Q173 -6 113 58T70 225Q86 323 162 388T355 453Q458 453 505 399Q551 343 535 245Q532 226 525 222T498 218H196Q193 199 192 186T191 148T196 106T214 71T250
44T308 34Q357 34 399 56T464 114Q471 127 476 131T493 135Q498 135 502 135T510 130T514 117ZM441 251Q465 417 349 417Q288 417 245 365Q219 333 202 251H441Z" />
<glyph unicode="f" glyph-name="f" horiz-adv-x="351" d="M539 613Q534 584 513 568T467 551Q444 551 428 567T416 613Q421 644 447 662Q441 664 431 664T411 663T383 654T353 635T328 600T310 545L293 444H414L406 397H291L233 47H320L312 0Q277 3 175 3L48 0L56
47H125L183 397H108L116 444H191L208 545Q221 623 288 661T440 700Q495 700 520 674T539 613Z" />
<glyph unicode="g" glyph-name="g" horiz-adv-x="575" d="M624 397Q621 379 607 367T574 354T545 366T538 397Q540 406 546 417Q514 414 480 398Q513 357 504 302Q495 242 438 198T281 154Q208 154 163 180Q150 165 148 147Q146 136 148 124T161 100T192 84Q197
83 269 83Q329 83 357 82T418 75T476 55Q545 17 530 -72Q520 -128 450 -164T253 -201Q182 -201 132 -189T58 -157T25 -117T19 -75Q23 -53 37 -36T69 -9T99 5T120 12Q84 45 92 108Q101 156 141 197Q96 234 106 302Q116 362 173 406T330 450Q415 450 459 417Q512
455 571 455Q602 455 615 437T624 397ZM393 302Q396 320 397 331T398 360T389 388T366 406T324 414Q293 414 272 404T240 374T225 340T217 302Q215 278 213 253T228 209T287 190Q318 190 339 200T370 230T385 264T393 302ZM443 -75Q454 -13 310 -13H193Q116 -13
106 -73Q99 -111 137 -138T259 -165Q347 -165 392 -137T443 -75Z" />
<glyph unicode="h" glyph-name="h" horiz-adv-x="639" d="M615 0L490 3L363 0L371 47H440L485 317Q494 371 484 392T446 414Q391 414 337 373T271 256L236 47H305L297 0L172 3L45 0L53 47H122L214 600Q219 628 210 633T152 639L159 686L338 694L281 354H282Q353
450 467 450Q545 450 577 417T597 306L554 47H623L615 0Z" />
<glyph unicode="i" glyph-name="i" horiz-adv-x="319" d="M286 0L170 3L47 0L55 47H124L175 356Q180 384 171 389T116 395L124 442L299 450L232 47H294L286 0ZM344 639T339 607T307 552T248 529T197 552T183 607T215 662T274 685T325 662Z" />
<glyph unicode="j" glyph-name="j" horiz-adv-x="351" d="M260 -42Q247 -116 186 -158T53 -200Q-10 -200 -45 -176T-74 -109Q-69 -82 -49 -64T-1 -46Q26 -46 41 -64T51 -108Q44 -141 19 -158Q40 -164 57 -164Q97 -164 120 -127T152 -42L218 355Q220 368 220 374T217
385T203 393Q188 395 149 395L157 442L342 450L260 -42ZM373 639T368 607T336 552T277 529T226 552T212 607T244 662T303 685T354 662Z" />
<glyph unicode="k" glyph-name="k" horiz-adv-x="607" d="M587 0Q536 3 484 3Q406 3 361 0L369 47Q400 47 401 56Q402 58 382 91L302 217Q276 200 238 174L217 47H286L278 0L158 3L37 0L45 47H114L206 600Q211 628 202 633T144 639L151 686L330 694L254 237L467
386Q459 397 435 397L443 444L558 441Q609 441 636 444L628 397Q596 397 577 395T552 389T535 379L388 278L522 67Q527 60 529 57T538 51T553 48T578 47H595L587 0Z" />
<glyph unicode="l" glyph-name="l" horiz-adv-x="319" d="M293 0L171 3L47 0L55 47H124L216 600Q221 628 212 633T154 639L161 686L340 694L232 47H301L293 0Z" />
<glyph unicode="m" glyph-name="m" horiz-adv-x="958" d="M935 0L810 3L683 0L691 47H760L805 317Q814 371 804 392T765 414Q711 414 657 373T590 256L555 47H624L616 0L491 3L364 0L372 47H441L486 317Q495 371 485 392T446 414Q392 414 338 373T271 256L236
47H305L297 0L172 3L45 0L53 47H122L173 356Q178 384 169 389T111 395L119 442L292 450L274 342Q348 450 468 450Q598 450 602 354Q673 450 787 450Q866 450 898 416T917 306L874 47H943L935 0Z" />
<glyph unicode="n" glyph-name="n" horiz-adv-x="639" d="M615 0L490 3L363 0L371 47H440L485 317Q494 371 484 392T446 414Q391 414 337 373T271 256L236 47H305L297 0L172 3L45 0L53 47H122L173 356Q178 384 169 389T111 395L119 442L292 450L274 342Q348 450
467 450Q545 450 577 417T597 306L554 47H623L615 0Z" />
<glyph unicode="o" glyph-name="o" horiz-adv-x="575" d="M578 218Q562 121 485 58T286 -6T109 57T68 218Q86 321 164 387T363 453Q482 453 539 387T578 218ZM452 229Q469 332 454 366Q431 417 357 417Q276 417 237 359Q215 327 198 229Q194 203 192 190T189 153T189
116T198 84T216 57T247 41T293 34Q329 34 356 47T399 76T426 124T442 174T452 229Z" />
<glyph unicode="p" glyph-name="p" horiz-adv-x="639" d="M637 223Q620 119 540 57T347 -6Q275 -6 227 39L195 -147H264L257 -194L131 -191L5 -194L12 -147H81L166 357Q170 385 161 390T103 395L111 442L289 450L281 401Q352 450 440 450Q547 450 600 387T637
223ZM509 223Q524 313 497 361T417 410Q349 410 296 363Q283 352 280 348T275 329L240 117Q237 103 237 99T245 84Q281 30 342 30Q397 30 445 77T509 223Z" />
<glyph unicode="q" glyph-name="q" horiz-adv-x="607" d="M569 -194L443 -191L317 -194L324 -147H393L426 48Q354 -6 277 -6Q171 -6 115 56T75 222Q92 325 171 387T362 450Q456 450 500 371L566 450H607L507 -147H576L569 -194ZM448 142L471 281Q478 324 450 367T368
410T267 364T203 221Q187 127 214 79T293 30Q367 30 426 100Q445 122 448 142Z" />
<glyph unicode="r" glyph-name="r" horiz-adv-x="474" d="M503 368Q499 340 478 324T432 307T393 323T381 368Q383 381 390 392T402 409L408 414Q362 414 326 379T274 304T251 222L222 47H309L301 0Q266 3 164 3L37 0L45 47H114L165 356Q170 384 161 389T103 395L111
442L278 450L259 337Q320 450 411 450Q453 450 481 428T503 368Z" />
<glyph unicode="s" glyph-name="s" horiz-adv-x="454" d="M438 140Q432 105 417 79T380 37T337 13T291 0T255 -5T229 -6Q157 -6 116 26L88 9Q64 -6 55 -6T43 -3T40 5T42 22L60 131Q63 150 67 155T89 160Q101 160 105 158T110 146Q112 129 114 117T125 87T146 58T182
39T235 30Q349 30 362 105Q365 122 359 135T342 156T316 170T289 178T264 183Q216 192 198 196T157 210T118 238Q83 273 92 322Q98 359 119 385T164 424T220 444T266 452T298 453Q361 453 395 434Q438 453 444 453Q453 453 456 450T459 442T457 425L444 345Q441
327 437 322T415 317Q400 317 397 321T395 337Q398 379 373 400T291 421Q179 421 169 359Q167 346 173 335T186 318T210 307T235 299T260 294Q324 283 350 275T401 246Q449 201 438 140Z" />
<glyph unicode="t" glyph-name="t" horiz-adv-x="447" d="M403 124Q394 68 355 31T260 -6Q194 -6 153 22T124 123L169 397H87L93 433Q164 435 212 494T276 635H323L291 444H437L429 397H283L237 121Q222 34 281 34Q305 34 326 56T356 126L365 177H412L403 124Z" />
<glyph unicode="u" glyph-name="u" horiz-adv-x="639" d="M615 0L437 -6L450 72Q391 -6 293 -6Q208 -6 166 21T135 123L173 356Q178 384 169 389T111 395L119 442L303 450L246 109Q238 63 248 47T313 30Q368 30 409 67T460 165L491 356Q496 384 487 389T429 395L437
442L621 450L560 86Q556 58 565 53T623 47L615 0Z" />
<glyph unicode="v" glyph-name="v" horiz-adv-x="607" d="M646 397Q602 397 589 393T569 376L343 20Q328 -4 302 -4Q293 -4 289 -3T278 3T269 21L156 397H92L100 444L214 441L338 444L330 397H276L358 124L515 374L522 386Q523 389 519 391T507 394T492 396T476
397L484 444L575 441Q616 441 654 444L646 397Z" />
<glyph unicode="w" glyph-name="w" horiz-adv-x="831" d="M871 397Q843 397 828 394T809 388T800 376L597 23Q591 12 588 8T576 0T556 -4T538 0T530 8T525 23L462 282L313 23Q307 12 304 8T292 0T272 -4T254 0T246 8T241 23L150 397H91L99 444L208 441L331 444L323
397H267L329 139L440 331Q446 340 446 344Q447 347 434 397H375L383 444Q431 441 483 441L597 444L589 397H533L601 117L748 373Q754 382 754 385Q756 397 698 397L706 444L802 441Q844 441 879 444L871 397Z" />
<glyph unicode="x" glyph-name="x" horiz-adv-x="607" d="M585 0L476 3L355 0L363 47H402L314 177L198 68L190 58Q190 55 195 53T208 49T225 47L217 0L115 3L22 0L30 47Q61 47 75 47T107 52T134 66L290 213L164 397H93L101 444L211 441L332 444L324 397H284L363
282L463 376L473 388Q459 397 436 397L444 444L547 441L639 444L631 397Q591 397 570 395T542 389T526 376L387 246L522 47H593L585 0Z" />
<glyph unicode="y" glyph-name="y" horiz-adv-x="607" d="M646 397Q615 397 599 395T579 389T569 376L277 -81Q246 -130 198 -165T96 -200Q51 -200 24 -173T4 -108Q8 -81 28 -66T71 -50Q96 -50 110 -66T119 -107Q112 -146 78 -160Q89 -164 102 -164Q135 -164 165
-143T210 -102T246 -48L277 0L156 397H92L100 444L214 441L338 444L330 397H276L358 127L514 373L521 385Q522 390 511 393T488 396L476 397L484 444L575 441Q618 441 654 444L646 397Z" />
<glyph unicode="z" glyph-name="z" horiz-adv-x="511" d="M496 202L444 0H64Q55 0 51 0T42 3T36 9T36 22Q37 32 48 44L388 408H303Q227 408 193 378T140 269H93L134 444H501Q513 444 518 444T527 438T530 423Q528 414 516 401L179 40H265Q356 40 391 77T449 202H496Z" />
<glyph unicode="{" glyph-name="braceleft" horiz-adv-x="575" d="M457 -232Q455 -244 449 -247T423 -250Q397 -250 373 -248T315 -238T258 -215T221 -174T213 -111L249 99Q255 137 254 146Q251 178 223 203T134 232Q117 233 120 250Q121 258 125 262T132 266T145
268Q206 271 250 305Q276 325 284 344T302 417L336 623Q347 681 415 715T590 750Q600 750 604 750T613 748T618 743T618 732Q617 724 613 720T606 716T593 714Q543 711 496 686Q453 657 444 606L409 396Q405 373 401 358T382 319T339 279T266 250Q323 234 346 202T365
134L326 -103Q322 -127 323 -138Q335 -207 443 -214Q460 -215 457 -232Z" />
<glyph unicode="|" glyph-name="bar" horiz-adv-x="319" d="M156 -206Q147 -250 117 -250Q86 -250 95 -206L247 706Q253 750 285 750Q314 750 308 706L156 -206Z" />
<glyph unicode="}" glyph-name="braceright" horiz-adv-x="575" d="M538 250Q537 242 533 238T526 234T513 232Q448 228 410 196Q382 174 374 155T357 83L322 -123Q312 -179 245 -214T67 -250Q54 -250 49 -250T41 -245T39 -232Q40 -224 44 -220T51 -216T64 -214Q122
-211 164 -184Q183 -171 194 -156T208 -131T214 -106L249 104Q253 129 258 143T276 180T319 221T393 250Q335 267 312 299T293 366L333 603Q336 631 335 638Q331 669 301 690T214 714Q197 715 200 732Q202 744 209 747T234 750Q272 750 305 745T376 727T433 684T445
611L410 401Q403 361 405 352Q416 273 524 268Q541 267 538 250Z" />
<glyph unicode="~" glyph-name="asciitilde" horiz-adv-x="556" d="M603 290L542 246Q519 229 479 211Q438 193 403 193Q361 193 309 227Q250 264 211 264Q143 264 46 193L35 210L96 254Q118 270 159 289Q202 307 235 307Q276 307 330 273Q387 236 427 236Q495
236 592 307L603 290Z" />
<glyph unicode="&#xa0;" glyph-name="uni00A0" horiz-adv-x="575" />
<glyph unicode="&#xa1;" glyph-name="exclamdown" horiz-adv-x="350" d="M323 422Q318 390 291 367T232 344T181 367T167 422Q173 454 199 477T258 500T309 477T323 422ZM232 -134Q227 -163 200 -184T141 -205T89 -184T74 -134L78 -121L192 249Q197 266 201 270T221
274Q235 274 238 270T242 252L233 -116Q233 -128 232 -134Z" />
<glyph unicode="&#xa2;" glyph-name="cent" horiz-adv-x="511" d="M498 117Q497 112 492 102T471 74T436 39T380 10T304 -5L297 -48Q296 -58 288 -65T269 -72T253 -65T249 -48L256 -5Q156 3 108 65T75 222Q90 311 156 376T332 452L339 492Q340 502 348 509T367
516T382 509T387 492L381 453Q402 453 420 451T461 443T497 428T520 401T525 361Q520 331 499 315T452 298Q429 298 412 314T400 361Q407 391 428 407Q409 412 374 413L311 34Q402 34 449 116Q455 126 459 128T476 131Q483 131 487 131T495 127T498 117ZM264 41L325
409Q229 385 204 227Q177 71 264 41Z" />
<glyph unicode="&#xa3;" glyph-name="sterling" horiz-adv-x="869" d="M831 148Q819 76 777 23T678 -31Q659 -31 642 -29T605 -20T573 -10T539 6T510 21T477 40T447 57Q418 14 353 2T186 -11Q136 -11 103 13T76 79Q91 168 267 168Q314 168 359 152Q360 172 359
196T355 235T347 279T340 319H191L199 367H334Q330 403 336 444Q353 545 436 615T621 686Q707 686 762 639T806 517Q802 491 781 473T733 454T692 472T680 517Q684 542 703 559T747 580Q709 638 613 638Q552 638 508 581T450 444Q444 407 446 367H633L625 319H450Q452
301 457 266T464 213T468 160T465 105Q563 57 631 57Q687 57 731 81T783 148H831ZM350 104Q305 120 259 120Q239 120 229 120T200 119T172 115T150 108T132 97T124 79Q121 56 141 47T194 37Q248 37 291 53T350 104Z" />
<glyph unicode="&#xa5;" glyph-name="yen" horiz-adv-x="869" d="M956 639H935Q908 639 882 636Q851 632 840 619L620 359H756L748 311H579L548 274L534 189H728L720 141H526L510 47H619L611 0Q574 3 435 3Q295 3 258 0L266 47H374L390 141H198L206 189H398L412
274L393 311H226L234 359H368L224 639H126L133 686Q168 683 298 683Q440 683 481 686L474 639H389L533 359H557L775 617L784 629Q760 639 710 639L717 686Q754 683 849 683L963 686L956 639Z" />
<glyph unicode="&#xa7;" glyph-name="section" horiz-adv-x="695" d="M666 200Q659 156 627 123T548 71Q574 23 565 -30Q552 -109 478 -160T313 -212Q233 -212 183 -162T145 -37Q150 -11 171 7T218 26T259 8T271 -37Q267 -59 251 -76T213 -98Q249 -134 326 -134Q376
-134 418 -105T467 -30Q470 -12 464 2T440 27T410 44T372 58L258 96Q185 121 144 175T113 300Q120 343 152 376T232 429Q205 475 214 530Q228 609 302 660T467 712Q547 712 597 662T635 537Q631 511 609 493T561 474T520 492T509 537Q513 559 529 576T567 598Q531
634 454 634Q404 634 362 605T312 530Q309 512 315 498T339 473T370 456T408 442L521 404Q595 378 636 325T666 200ZM556 200Q567 263 468 295L355 333Q298 353 265 385Q232 356 223 300Q213 238 311 205L425 167Q478 148 514 114Q548 145 556 200Z" />
<glyph unicode="&#xa8;" glyph-name="dieresis" horiz-adv-x="575" d="M335 636T330 607T302 558T249 537T203 557T190 607T219 656T272 677T318 657ZM592 636T587 607T559 558T506 537T460 557T447 607T476 656T529 677T575 657Z" />
<glyph unicode="&#xa9;" glyph-name="copyright" horiz-adv-x="686" d="M743 343Q720 201 603 101T343 0T118 100T57 343Q81 485 198 585T457 686Q600 686 683 586T743 343ZM683 343Q702 460 633 543T447 626T234 543T117 343Q98 226 167 143T353 60T566 143T683
343ZM526 292Q519 251 477 219T376 187Q296 187 256 230T226 343T292 455T428 499Q479 499 510 469L544 495Q549 499 553 499Q561 499 558 486L542 392Q541 385 540 383T537 381T529 380Q521 380 520 381T519 389Q518 430 495 454T435 478Q379 478 339 444Q304
413 293 343Q283 275 303 245Q330 208 391 208Q428 208 462 230T506 294Q507 301 517 301Q521 301 522 301T525 298T526 292Z" />
<glyph unicode="&#xaa;" glyph-name="ordfeminine" horiz-adv-x="496" d="M535 397Q533 385 527 383T505 380H465Q424 380 405 389T385 410T386 434Q342 376 252 376Q226 376 202 379T153 390T113 415T103 456Q119 553 386 566Q392 566 394 566L398 589Q412 672
319 672Q289 672 258 667Q260 666 263 663T269 651T271 633Q267 612 250 601T211 589Q191 589 177 600T166 633Q176 697 327 697Q418 697 460 668T494 589L469 439Q468 431 469 426T481 417T516 413Q522 413 524 413T530 411T535 407T535 397ZM500 329Q496 312
473 312H127Q117 312 111 317T106 329T115 341T133 346H479Q489 346 495 341T500 329ZM380 477L391 544Q215 536 201 456Q197 433 217 417T269 401Q285 401 305 405T350 428T380 477Z" />
<glyph unicode="&#xab;" glyph-name="guillemotleft" horiz-adv-x="639" d="M320 17Q320 10 315 5T303 0H295Q287 0 283 9Q255 136 167 226Q158 235 171 247Q290 338 359 463Q364 472 374 472H382Q389 472 392 467T393 456Q351 340 280 236Q315 134 320 17ZM514
17Q514 10 509 5T497 0H489Q481 0 477 9Q449 136 361 226Q352 235 365 247Q484 338 553 463Q558 472 568 472H576Q583 472 586 467T587 456Q545 340 474 236Q509 134 514 17Z" />
<glyph unicode="&#xac;" glyph-name="logicalnot" horiz-adv-x="894" d="M852 138Q850 125 840 117T817 108T797 116T792 138L825 333H150Q137 333 130 341T125 363Q126 376 136 384T160 393H865Q878 393 885 385T890 363L852 138Z" />
<glyph unicode="&#xae;" glyph-name="registered" horiz-adv-x="686" d="M743 343Q720 201 603 101T343 0T118 100T57 343Q81 485 198 585T457 686Q600 686 683 586T743 343ZM683 343Q702 460 633 543T447 626T234 543T117 343Q98 226 167 143T353 60T566 143T683
343ZM577 236Q576 230 572 221T553 201T517 190Q476 190 455 201Q435 211 432 228T435 267Q439 290 439 301T430 323Q418 338 393 338H341L321 215H369L366 195Q350 196 288 196Q227 196 211 195L214 215H261L304 476H257L261 496H428Q488 496 519 473T545 415Q536
362 460 344Q500 329 501 293Q500 291 500 275T500 255Q497 206 523 206Q548 206 557 236Q559 246 569 246T577 236ZM478 415Q479 429 480 442T465 466T416 476H364L344 353H395Q421 353 438 358T463 375T473 394T478 415Z" />
<glyph unicode="&#xaf;" glyph-name="overscore" horiz-adv-x="575" d="M592 581H178L187 633H601L592 581Z" />
<glyph unicode="&#xb0;" glyph-name="degree" horiz-adv-x="431" d="M463 526Q452 460 398 414T277 367Q210 367 172 413T144 526Q155 593 209 639T330 686Q396 686 435 640T463 526ZM396 485T403 526T386 596T320 626T245 597T204 526T221 456T287 427T362 456Z" />
<glyph unicode="&#xb1;" glyph-name="plusminus" horiz-adv-x="894" d="M834 30Q829 0 786 0H107Q96 0 89 1T75 9T69 30Q74 61 117 61H426L469 316H160Q149 316 142 317T128 325T122 346Q127 377 170 377H479L525 651Q531 693 563 693Q593 693 586 651L540 377H849Q860
377 867 376T881 368T887 346Q882 316 839 316H530L487 61H796Q807 61 814 60T828 52T834 30Z" />
<glyph unicode="&#xb4;" glyph-name="acute" horiz-adv-x="575" d="M541 642Q539 627 530 616T514 601T494 590L330 509L306 546L440 678Q468 704 491 704Q515 704 530 685T541 642Z" />
<glyph unicode="&#xb5;" glyph-name="mu" horiz-adv-x="639" d="M615 0Q581 -2 558 -2Q501 -2 437 -6L450 72Q390 -6 293 -6Q252 -6 228 -2L203 -147H272L265 -194Q214 -191 139 -191Q62 -191 13 -194L20 -147H89L173 354Q178 384 169 389T111 395L119 442L303
450L246 110Q241 83 242 65T259 39T312 30Q369 30 409 66T460 166L491 354Q496 384 487 389T429 395L437 442L621 450L561 88Q556 58 565 53T623 47L615 0Z" />
<glyph unicode="&#xb6;" glyph-name="paragraph" horiz-adv-x="703" d="M781 663Q776 633 731 633H680L549 -150Q546 -163 545 -169T534 -184T511 -194Q482 -194 488 -150L619 633H539L408 -150Q405 -163 404 -169T393 -184T370 -194Q341 -194 347 -150L409 220Q272
228 198 292T140 457Q157 559 253 626T467 694H741Q753 694 760 693T775 685T781 663Z" />
<glyph unicode="&#xb7;" glyph-name="middot" horiz-adv-x="894" d="M587 375T582 343T550 288T491 265T440 288T426 343T458 398T517 421T568 398Z" />
<glyph unicode="&#xb8;" glyph-name="cedilla" horiz-adv-x="511" d="M390 -116Q387 -136 375 -151T339 -175T294 -189T237 -197T179 -199T117 -200H69L77 -152H101Q124 -152 136 -152T171 -151T205 -148T232 -142T253 -132T262 -116Q268 -81 194 -81L209 5H305L298
-33Q340 -33 368 -56T390 -116Z" />
<glyph unicode="&#xba;" glyph-name="ordmasculine" horiz-adv-x="482" d="M544 533Q533 465 470 421T304 376Q203 376 154 420T116 533Q128 605 192 651T357 697Q457 697 506 651T544 533ZM486 329Q482 312 459 312H127Q117 312 111 317T106 329T115 341T133
346H465Q475 346 481 341T486 329ZM438 540Q451 611 436 636Q416 672 353 672Q287 672 254 631Q235 607 224 540Q220 515 219 502T218 467T229 434T257 413T308 404Q346 404 371 415T410 450T428 491T438 540Z" />
<glyph unicode="&#xbb;" glyph-name="guillemotright" horiz-adv-x="639" d="M547 226Q431 139 358 9Q354 0 344 0H336Q329 0 326 5T325 17Q369 136 437 236Q401 344 398 456Q398 462 403 467T415 472H423Q432 472 434 463Q463 337 550 247Q561 236 547 226ZM353
226Q237 139 164 9Q160 0 150 0H142Q135 0 132 5T131 17Q175 136 243 236Q207 344 204 456Q204 462 209 467T221 472H229Q238 472 240 463Q269 337 356 247Q367 236 353 226Z" />
<glyph unicode="&#xbf;" glyph-name="questiondown" horiz-adv-x="543" d="M403 422Q398 390 371 367T312 344T261 367T247 422Q253 454 279 477T338 500T389 477T403 422ZM466 -73Q456 -131 393 -165T221 -200Q202 -200 187 -199T141 -192T91 -173T59 -134T52
-71Q62 -7 125 29Q169 56 199 86T243 147T262 194T271 235L273 247Q276 265 280 269T301 274Q318 274 320 268T319 237Q295 102 214 6Q199 -12 192 -27T179 -79Q168 -123 177 -143T233 -164Q321 -164 375 -132Q334 -117 341 -72Q346 -43 367 -26T414 -9Q437 -9
454 -25T466 -73Z" />
<glyph unicode="&#xc0;" glyph-name="Agrave" horiz-adv-x="869" d="M827 0Q793 3 665 3Q527 3 488 0L496 47H591L555 193H287L217 72L211 60Q210 54 232 51T276 48L298 47L290 0Q254 3 159 3L41 0L49 47H70Q106 47 125 50T148 57T159 70L507 672Q513 683 516
687T528 695T550 698Q561 698 566 697T577 690T586 672L738 47H835L827 0ZM543 240L475 518L315 240H543ZM642 780L611 738L458 792Q446 796 440 799T426 812T418 837Q416 865 438 887T488 909Q506 909 526 891Q541 878 586 834T642 780Z" />
<glyph unicode="&#xc1;" glyph-name="Aacute" horiz-adv-x="869" d="M827 0Q793 3 665 3Q527 3 488 0L496 47H591L555 193H287L217 72L211 60Q210 54 232 51T276 48L298 47L290 0Q254 3 159 3L41 0L49 47H70Q106 47 125 50T148 57T159 70L507 672Q513 683 516
687T528 695T550 698Q561 698 566 697T577 690T586 672L738 47H835L827 0ZM543 240L475 518L315 240H543ZM729 837Q724 822 714 812T696 799T675 792L504 738L487 780L639 891Q667 909 683 909Q711 909 725 887T729 837Z" />
<glyph unicode="&#xc2;" glyph-name="Acircumflex" horiz-adv-x="869" d="M827 0Q793 3 665 3Q527 3 488 0L496 47H591L555 193H287L217 72L211 60Q210 54 232 51T276 48L298 47L290 0Q254 3 159 3L41 0L49 47H70Q106 47 125 50T148 57T159 70L507 672Q513 683
516 687T528 695T550 698Q561 698 566 697T577 690T586 672L738 47H835L827 0ZM543 240L475 518L315 240H543ZM735 752L715 728L565 786L395 728L385 752L584 893L735 752Z" />
<glyph unicode="&#xc3;" glyph-name="Atilde" horiz-adv-x="869" d="M827 0Q793 3 665 3Q527 3 488 0L496 47H591L555 193H287L217 72L211 60Q210 54 232 51T276 48L298 47L290 0Q254 3 159 3L41 0L49 47H70Q106 47 125 50T148 57T159 70L507 672Q513 683 516
687T528 695T550 698Q561 698 566 697T577 690T586 672L738 47H835L827 0ZM543 240L475 518L315 240H543ZM761 811L703 759Q667 728 626 728Q599 728 550 745Q500 762 473 762Q427 762 391 728L369 753L427 805Q463 836 504 836Q531 836 580 819Q630 802 657 802Q703
802 739 836L761 811Z" />
<glyph unicode="&#xc4;" glyph-name="Adieresis" horiz-adv-x="869" d="M827 0Q793 3 665 3Q527 3 488 0L496 47H591L555 193H287L217 72L211 60Q210 54 232 51T276 48L298 47L290 0Q254 3 159 3L41 0L49 47H70Q106 47 125 50T148 57T159 70L507 672Q513 683 516
687T528 695T550 698Q561 698 566 697T577 690T586 672L738 47H835L827 0ZM543 240L475 518L315 240H543ZM491 827T486 798T457 749T404 728T358 748T346 798Q350 827 374 847T427 868T473 848ZM794 827T789 798T760 749T707 728T661 748T649 798Q653 827 677 847T730
868T776 848Z" />
<glyph unicode="&#xc5;" glyph-name="Aring" horiz-adv-x="869" d="M827 0Q793 3 665 3Q527 3 488 0L496 47H591L555 193H287L217 72L211 60Q210 54 232 51T276 48L298 47L290 0Q254 3 159 3L41 0L49 47H70Q106 47 125 50T148 57T159 70L507 672Q513 683 516 687T528
695T550 698Q561 698 566 697T577 690T586 672L738 47H835L827 0ZM543 240L475 518L315 240H543ZM630 782Q635 809 620 817T572 825Q550 825 538 823T515 811T500 782Q495 755 509 747T558 739Q581 739 593 741T616 753T630 782ZM684 781Q679 749 646 724T551 698Q491
698 466 723T446 783Q451 815 484 840T579 866Q639 866 664 841T684 781Z" />
<glyph unicode="&#xc6;" glyph-name="AE" horiz-adv-x="1042" d="M1055 274L963 0H401L409 47H490L533 306H356L211 58Q236 47 298 47L290 0Q254 3 160 3L41 0L49 47H70Q96 47 121 50Q141 52 146 55T160 71L495 639H417L424 686H1060L1051 445H1004Q1005 480 1005
510T996 564T971 604T923 630T845 639H721L673 353H736Q804 353 828 380T862 470H909L863 189H816Q826 252 811 279T728 306H665L622 47H750Q801 47 840 59T903 87T949 137T981 198T1008 274H1055ZM541 353L589 639H552L384 353H541Z" />
<glyph unicode="&#xc7;" glyph-name="Ccedilla" horiz-adv-x="831" d="M804 227Q790 142 707 72T503 -9L499 -33Q541 -33 569 -56T591 -116Q588 -136 576 -151T540 -175T495 -189T438 -197T380 -199T318 -200H270L278 -152H302Q325 -152 337 -152T372 -151T406
-148T433 -142T454 -132T463 -116Q469 -81 395 -81L408 -8Q251 8 174 104T121 343Q147 499 272 598T582 697Q695 697 768 629L844 688Q856 697 864 697Q876 697 878 690T878 669L842 454Q838 434 834 430T810 426Q793 426 790 429T787 447Q786 540 732 595T595
650Q468 650 379 573Q303 505 274 343Q249 193 296 121Q355 36 496 36Q581 36 659 87T758 231Q760 243 765 245T783 248Q797 248 801 245T804 227Z" />
<glyph unicode="&#xc8;" glyph-name="Egrave" horiz-adv-x="756" d="M769 274L677 0H39L47 47H155L253 633H145L152 680H773L764 439H717Q718 480 716 506T705 559T678 600T627 624T547 633H395L352 376H407Q474 376 498 403T532 493H579L532 212H485Q496 275
481 302T399 329H344L297 47H449Q503 47 544 58T611 86T659 135T693 196T722 274H769ZM586 780L555 738L402 792Q390 796 384 799T370 812T362 837Q360 865 382 887T432 909Q450 909 470 891Q485 878 530 834T586 780Z" />
<glyph unicode="&#xc9;" glyph-name="Eacute" horiz-adv-x="756" d="M769 274L677 0H39L47 47H155L253 633H145L152 680H773L764 439H717Q718 480 716 506T705 559T678 600T627 624T547 633H395L352 376H407Q474 376 498 403T532 493H579L532 212H485Q496 275
481 302T399 329H344L297 47H449Q503 47 544 58T611 86T659 135T693 196T722 274H769ZM673 837Q668 822 658 812T640 799T619 792L448 738L431 780L583 891Q611 909 627 909Q655 909 669 887T673 837Z" />
<glyph unicode="&#xca;" glyph-name="Ecircumflex" horiz-adv-x="756" d="M769 274L677 0H39L47 47H155L253 633H145L152 680H773L764 439H717Q718 480 716 506T705 559T678 600T627 624T547 633H395L352 376H407Q474 376 498 403T532 493H579L532 212H485Q496
275 481 302T399 329H344L297 47H449Q503 47 544 58T611 86T659 135T693 196T722 274H769ZM679 752L659 728L509 786L339 728L329 752L528 893L679 752Z" />
<glyph unicode="&#xcb;" glyph-name="Edieresis" horiz-adv-x="756" d="M769 274L677 0H39L47 47H155L253 633H145L152 680H773L764 439H717Q718 480 716 506T705 559T678 600T627 624T547 633H395L352 376H407Q474 376 498 403T532 493H579L532 212H485Q496 275
481 302T399 329H344L297 47H449Q503 47 544 58T611 86T659 135T693 196T722 274H769ZM435 827T430 798T401 749T348 728T302 748T290 798Q294 827 318 847T371 868T417 848ZM738 827T733 798T704 749T651 728T605 748T593 798Q597 827 621 847T674 868T720 848Z"
/>
<glyph unicode="&#xcc;" glyph-name="Igrave" horiz-adv-x="436" d="M403 0Q363 3 219 3T33 0L41 47H155L254 639H140L147 686Q188 683 332 683T517 686L510 639H396L297 47H411L403 0ZM426 780L395 738L242 792Q230 796 224 799T210 812T202 837Q200 865 222
887T272 909Q290 909 310 891Q325 878 370 834T426 780Z" />
<glyph unicode="&#xcd;" glyph-name="Iacute" horiz-adv-x="436" d="M403 0Q363 3 219 3T33 0L41 47H155L254 639H140L147 686Q188 683 332 683T517 686L510 639H396L297 47H411L403 0ZM513 837Q508 822 498 812T480 799T459 792L288 738L271 780L423 891Q451
909 467 909Q495 909 509 887T513 837Z" />
<glyph unicode="&#xce;" glyph-name="Icircumflex" horiz-adv-x="436" d="M403 0Q363 3 219 3T33 0L41 47H155L254 639H140L147 686Q188 683 332 683T517 686L510 639H396L297 47H411L403 0ZM519 752L499 728L349 786L179 728L169 752L368 893L519 752Z" />
<glyph unicode="&#xcf;" glyph-name="Idieresis" horiz-adv-x="436" d="M403 0Q363 3 219 3T33 0L41 47H155L254 639H140L147 686Q188 683 332 683T517 686L510 639H396L297 47H411L403 0ZM275 827T270 798T241 749T188 728T142 748T130 798Q134 827 158 847T211
868T257 848ZM578 827T573 798T544 749T491 728T445 748T433 798Q437 827 461 847T514 868T560 848Z" />
<glyph unicode="&#xd1;" glyph-name="Ntilde" horiz-adv-x="900" d="M967 639H942Q912 639 887 636Q866 634 861 630T854 610L757 32Q755 19 753 13T745 4T725 0Q713 0 710 2T700 13L300 599L213 76Q210 60 213 56T238 50Q265 47 291 47H316L308 0Q268 3 174 3Q78
3 39 0L47 47H72Q102 47 126 50Q148 52 152 55T160 76L254 639H146L153 686H382Q397 686 401 684T413 673L733 205L801 610Q803 627 800 630T775 636Q748 639 723 639H698L705 686Q746 683 840 683Q936 683 974 686L967 639ZM777 811L719 759Q683 728 642 728Q615
728 566 745Q516 762 489 762Q443 762 407 728L385 753L443 805Q479 836 520 836Q547 836 596 819Q646 802 673 802Q719 802 755 836L777 811Z" />
<glyph unicode="&#xd2;" glyph-name="Ograve" horiz-adv-x="864" d="M856 339Q829 183 714 86T429 -11Q260 -11 177 85T121 339Q148 499 263 598T548 697Q714 697 798 599T856 339ZM705 354Q727 493 698 563Q677 610 635 633T541 657Q493 657 444 636T359 571Q301
499 276 354Q253 211 281 135Q301 82 344 57T436 31Q547 31 621 126Q679 199 705 354ZM640 780L609 738L456 792Q444 796 438 799T424 812T416 837Q414 865 436 887T486 909Q504 909 524 891Q539 878 584 834T640 780Z" />
<glyph unicode="&#xd3;" glyph-name="Oacute" horiz-adv-x="864" d="M856 339Q829 183 714 86T429 -11Q260 -11 177 85T121 339Q148 499 263 598T548 697Q714 697 798 599T856 339ZM705 354Q727 493 698 563Q677 610 635 633T541 657Q493 657 444 636T359 571Q301
499 276 354Q253 211 281 135Q301 82 344 57T436 31Q547 31 621 126Q679 199 705 354ZM727 837Q722 822 712 812T694 799T673 792L502 738L485 780L637 891Q665 909 681 909Q709 909 723 887T727 837Z" />
<glyph unicode="&#xd4;" glyph-name="Ocircumflex" horiz-adv-x="864" d="M856 339Q829 183 714 86T429 -11Q260 -11 177 85T121 339Q148 499 263 598T548 697Q714 697 798 599T856 339ZM705 354Q727 493 698 563Q677 610 635 633T541 657Q493 657 444 636T359
571Q301 499 276 354Q253 211 281 135Q301 82 344 57T436 31Q547 31 621 126Q679 199 705 354ZM733 752L713 728L563 786L393 728L383 752L582 893L733 752Z" />
<glyph unicode="&#xd5;" glyph-name="Otilde" horiz-adv-x="864" d="M856 339Q829 183 714 86T429 -11Q260 -11 177 85T121 339Q148 499 263 598T548 697Q714 697 798 599T856 339ZM705 354Q727 493 698 563Q677 610 635 633T541 657Q493 657 444 636T359 571Q301
499 276 354Q253 211 281 135Q301 82 344 57T436 31Q547 31 621 126Q679 199 705 354ZM759 811L701 759Q665 728 624 728Q597 728 548 745Q498 762 471 762Q425 762 389 728L367 753L425 805Q461 836 502 836Q529 836 578 819Q628 802 655 802Q701 802 737 836L759
811Z" />
<glyph unicode="&#xd6;" glyph-name="Odieresis" horiz-adv-x="864" d="M856 339Q829 183 714 86T429 -11Q260 -11 177 85T121 339Q148 499 263 598T548 697Q714 697 798 599T856 339ZM705 354Q727 493 698 563Q677 610 635 633T541 657Q493 657 444 636T359 571Q301
499 276 354Q253 211 281 135Q301 82 344 57T436 31Q547 31 621 126Q679 199 705 354ZM489 827T484 798T455 749T402 728T356 748T344 798Q348 827 372 847T425 868T471 848ZM792 827T787 798T758 749T705 728T659 748T647 798Q651 827 675 847T728 868T774 848Z"
/>
<glyph unicode="&#xd8;" glyph-name="Oslash" horiz-adv-x="894" d="M886 340Q860 185 742 87T444 -11Q336 -11 255 29L177 -60Q176 -60 171 -55T158 -44T149 -37L223 49Q150 100 129 178T121 340Q147 495 264 596T563 697Q673 697 751 656L830 746L859 723L783
636Q853 587 876 507T886 340ZM708 606Q652 661 556 661Q497 661 441 638T347 568Q321 536 303 494T279 421T263 340Q255 294 252 264T252 187T275 109L708 606ZM744 340Q757 398 757 464T731 576L299 79Q353 25 451 25Q578 25 657 112Q685 143 704 189T729 264T744
340Z" />
<glyph unicode="&#xd9;" glyph-name="Ugrave" horiz-adv-x="885" d="M952 639H927Q897 639 872 636Q851 634 846 630T839 610L775 229Q759 129 677 59T460 -11Q311 -11 240 57T186 231L254 639H146L153 686Q191 683 332 683T511 686L504 639H396L326 223Q322 198
321 181T323 134T342 85T389 51T472 36Q515 36 554 46T628 79T689 140T723 233L786 610Q788 627 785 630T760 636Q733 639 708 639H683L690 686Q731 683 825 683Q921 683 959 686L952 639ZM677 780L646 738L493 792Q481 796 475 799T461 812T453 837Q451 865 473
887T523 909Q541 909 561 891Q576 878 621 834T677 780Z" />
<glyph unicode="&#xda;" glyph-name="Uacute" horiz-adv-x="885" d="M952 639H927Q897 639 872 636Q851 634 846 630T839 610L775 229Q759 129 677 59T460 -11Q311 -11 240 57T186 231L254 639H146L153 686Q191 683 332 683T511 686L504 639H396L326 223Q322 198
321 181T323 134T342 85T389 51T472 36Q515 36 554 46T628 79T689 140T723 233L786 610Q788 627 785 630T760 636Q733 639 708 639H683L690 686Q731 683 825 683Q921 683 959 686L952 639ZM764 837Q759 822 749 812T731 799T710 792L539 738L522 780L674 891Q702
909 718 909Q746 909 760 887T764 837Z" />
<glyph unicode="&#xdb;" glyph-name="Ucircumflex" horiz-adv-x="885" d="M952 639H927Q897 639 872 636Q851 634 846 630T839 610L775 229Q759 129 677 59T460 -11Q311 -11 240 57T186 231L254 639H146L153 686Q191 683 332 683T511 686L504 639H396L326 223Q322
198 321 181T323 134T342 85T389 51T472 36Q515 36 554 46T628 79T689 140T723 233L786 610Q788 627 785 630T760 636Q733 639 708 639H683L690 686Q731 683 825 683Q921 683 959 686L952 639ZM770 752L750 728L600 786L430 728L420 752L619 893L770 752Z" />
<glyph unicode="&#xdc;" glyph-name="Udieresis" horiz-adv-x="885" d="M952 639H927Q897 639 872 636Q851 634 846 630T839 610L775 229Q759 129 677 59T460 -11Q311 -11 240 57T186 231L254 639H146L153 686Q191 683 332 683T511 686L504 639H396L326 223Q322
198 321 181T323 134T342 85T389 51T472 36Q515 36 554 46T628 79T689 140T723 233L786 610Q788 627 785 630T760 636Q733 639 708 639H683L690 686Q731 683 825 683Q921 683 959 686L952 639ZM526 827T521 798T492 749T439 728T393 748T381 798Q385 827 409 847T462
868T508 848ZM829 827T824 798T795 749T742 728T696 748T684 798Q688 827 712 847T765 868T811 848Z" />
<glyph unicode="&#xdf;" glyph-name="germandbls" horiz-adv-x="597" d="M594 180Q580 92 511 43T353 -6Q303 -6 279 20T260 80Q265 107 283 119T319 131Q339 131 352 117T361 81Q355 51 328 37Q342 30 356 30Q450 30 476 179Q513 397 364 408Q359 409 358 409T352
411T349 416T349 426Q350 434 354 438T361 442T374 444Q490 451 508 563Q524 664 427 664Q391 664 367 653T330 621T314 588T307 558L214 0Q174 3 150 3L37 0L45 47H114L172 397H103L111 444H180L199 556Q211 626 275 663T434 700Q543 700 589 659T626 562Q620
525 587 486T480 423Q543 398 576 334T594 180Z" />
<glyph unicode="&#xe0;" glyph-name="agrave" horiz-adv-x="559" d="M562 24Q559 8 552 4T526 0H478Q441 0 419 7T392 26T385 51T387 77Q330 -6 224 -6Q194 -6 165 -2T106 14T60 50T50 108Q74 251 401 265L407 299Q427 417 317 417Q277 417 243 410Q246 408 249
403T256 387T257 361Q252 331 231 315T184 298Q161 298 144 314T132 361Q148 453 327 453Q435 453 484 411T521 299L485 84Q483 72 484 64T498 52T540 47Q549 47 553 46T560 40T562 24ZM380 139L396 234Q186 221 167 109Q162 76 184 53T245 30Q258 30 275 34T315
48T356 82T380 139ZM443 546L407 509L269 590Q258 597 253 601T243 616T240 642Q244 666 265 685T310 704Q333 704 353 678L443 546Z" />
<glyph unicode="&#xe1;" glyph-name="aacute" horiz-adv-x="559" d="M562 24Q559 8 552 4T526 0H478Q441 0 419 7T392 26T385 51T387 77Q330 -6 224 -6Q194 -6 165 -2T106 14T60 50T50 108Q74 251 401 265L407 299Q427 417 317 417Q277 417 243 410Q246 408 249
403T256 387T257 361Q252 331 231 315T184 298Q161 298 144 314T132 361Q148 453 327 453Q435 453 484 411T521 299L485 84Q483 72 484 64T498 52T540 47Q549 47 553 46T560 40T562 24ZM380 139L396 234Q186 221 167 109Q162 76 184 53T245 30Q258 30 275 34T315
48T356 82T380 139ZM533 642Q531 627 522 616T506 601T486 590L322 509L298 546L432 678Q460 704 483 704Q507 704 522 685T533 642Z" />
<glyph unicode="&#xe2;" glyph-name="acircumflex" horiz-adv-x="559" d="M562 24Q559 8 552 4T526 0H478Q441 0 419 7T392 26T385 51T387 77Q330 -6 224 -6Q194 -6 165 -2T106 14T60 50T50 108Q74 251 401 265L407 299Q427 417 317 417Q277 417 243 410Q246 408
249 403T256 387T257 361Q252 331 231 315T184 298Q161 298 144 314T132 361Q148 453 327 453Q435 453 484 411T521 299L485 84Q483 72 484 64T498 52T540 47Q549 47 553 46T560 40T562 24ZM380 139L396 234Q186 221 167 109Q162 76 184 53T245 30Q258 30 275 34T315
48T356 82T380 139ZM545 525L521 503L379 602L205 503L191 525L398 710L545 525Z" />
<glyph unicode="&#xe3;" glyph-name="atilde" horiz-adv-x="559" d="M562 24Q559 8 552 4T526 0H478Q441 0 419 7T392 26T385 51T387 77Q330 -6 224 -6Q194 -6 165 -2T106 14T60 50T50 108Q74 251 401 265L407 299Q427 417 317 417Q277 417 243 410Q246 408 249
403T256 387T257 361Q252 331 231 315T184 298Q161 298 144 314T132 361Q148 453 327 453Q435 453 484 411T521 299L485 84Q483 72 484 64T498 52T540 47Q549 47 553 46T560 40T562 24ZM380 139L396 234Q186 221 167 109Q162 76 184 53T245 30Q258 30 275 34T315
48T356 82T380 139ZM577 636L519 584Q483 553 442 553Q416 553 366 570T289 587Q243 587 207 553L185 578L243 630Q280 661 320 661Q347 661 396 644Q446 627 474 627Q520 627 555 661L577 636Z" />
<glyph unicode="&#xe4;" glyph-name="adieresis" horiz-adv-x="559" d="M562 24Q559 8 552 4T526 0H478Q441 0 419 7T392 26T385 51T387 77Q330 -6 224 -6Q194 -6 165 -2T106 14T60 50T50 108Q74 251 401 265L407 299Q427 417 317 417Q277 417 243 410Q246 408
249 403T256 387T257 361Q252 331 231 315T184 298Q161 298 144 314T132 361Q148 453 327 453Q435 453 484 411T521 299L485 84Q483 72 484 64T498 52T540 47Q549 47 553 46T560 40T562 24ZM380 139L396 234Q186 221 167 109Q162 76 184 53T245 30Q258 30 275 34T315
48T356 82T380 139ZM327 636T322 607T294 558T241 537T195 557T182 607T211 656T264 677T310 657ZM584 636T579 607T551 558T498 537T452 557T439 607T468 656T521 677T567 657Z" />
<glyph unicode="&#xe5;" glyph-name="aring" horiz-adv-x="559" d="M562 24Q559 8 552 4T526 0H478Q441 0 419 7T392 26T385 51T387 77Q330 -6 224 -6Q194 -6 165 -2T106 14T60 50T50 108Q74 251 401 265L407 299Q427 417 317 417Q277 417 243 410Q246 408 249
403T256 387T257 361Q252 331 231 315T184 298Q161 298 144 314T132 361Q148 453 327 453Q435 453 484 411T521 299L485 84Q483 72 484 64T498 52T540 47Q549 47 553 46T560 40T562 24ZM380 139L396 234Q186 221 167 109Q162 76 184 53T245 30Q258 30 275 34T315
48T356 82T380 139ZM446 605Q451 632 436 640T388 648Q366 648 354 646T331 634T316 605Q311 578 325 570T374 562Q397 562 409 564T432 576T446 605ZM500 604Q495 572 462 547T367 521Q307 521 282 546T262 606Q267 638 300 663T395 689Q455 689 480 664T500 604Z"
/>
<glyph unicode="&#xe6;" glyph-name="ae" horiz-adv-x="831" d="M818 117Q816 107 803 89T767 49T702 10T612 -6Q497 -6 436 59Q369 -6 227 -6Q178 -6 140 2T75 35T54 103Q61 143 97 173T190 220Q238 234 274 238T399 248L408 299Q427 417 318 417Q278 417 243
410Q246 408 249 403T256 387T257 361Q252 331 231 315T184 298Q161 298 144 314T132 361Q148 453 328 453Q437 453 493 403L499 399Q502 399 507 404Q582 453 675 453Q775 453 814 397Q855 339 839 246Q836 227 829 223T802 218H508Q506 201 505 192T504 160T507
124T518 91T539 61T575 42T627 34Q667 34 706 54T768 116Q773 124 776 127T784 133T797 135Q802 135 806 135T814 130T818 117ZM745 251Q748 276 749 290T748 332T739 375T714 404T668 417Q605 417 562 366Q530 330 514 251H745ZM398 124Q399 130 397 138Q389 178
394 214Q307 212 244 184T171 103Q166 73 187 52T247 30Q301 30 346 58T398 124Z" />
<glyph unicode="&#xe7;" glyph-name="ccedilla" horiz-adv-x="511" d="M498 117Q497 114 493 104T475 78T443 46T395 16T328 -3L323 -33Q366 -33 394 -56T416 -116Q413 -136 401 -151T364 -175T319 -189T262 -197T204 -199T143 -200H95L103 -152H127Q150 -152
162 -152T197 -151T231 -148T258 -142T279 -132T288 -116Q294 -81 219 -81L233 -2Q145 12 103 72T75 222Q91 318 166 385T367 453Q541 453 525 361Q520 331 499 315T452 298Q429 298 412 314T400 361Q407 391 428 407Q402 413 364 413Q327 413 299 398T255 365T227
316T212 269T204 227Q170 34 311 34Q402 34 449 116Q455 126 459 128T476 131Q483 131 487 131T495 127T498 117Z" />
<glyph unicode="&#xe8;" glyph-name="egrave" horiz-adv-x="527" d="M514 117Q512 108 499 90T462 50T392 11T292 -6Q173 -6 113 58T70 225Q86 323 162 388T355 453Q458 453 505 399Q551 343 535 245Q532 226 525 222T498 218H196Q193 199 192 186T191 148T196
106T214 71T250 44T308 34Q357 34 399 56T464 114Q471 127 476 131T493 135Q498 135 502 135T510 130T514 117ZM441 251Q465 417 349 417Q288 417 245 365Q219 333 202 251H441ZM427 546L391 509L253 590Q242 597 237 601T227 616T224 642Q228 666 249 685T294
704Q317 704 337 678L427 546Z" />
<glyph unicode="&#xe9;" glyph-name="eacute" horiz-adv-x="527" d="M514 117Q512 108 499 90T462 50T392 11T292 -6Q173 -6 113 58T70 225Q86 323 162 388T355 453Q458 453 505 399Q551 343 535 245Q532 226 525 222T498 218H196Q193 199 192 186T191 148T196
106T214 71T250 44T308 34Q357 34 399 56T464 114Q471 127 476 131T493 135Q498 135 502 135T510 130T514 117ZM441 251Q465 417 349 417Q288 417 245 365Q219 333 202 251H441ZM517 642Q515 627 506 616T490 601T470 590L306 509L282 546L416 678Q444 704 467
704Q491 704 506 685T517 642Z" />
<glyph unicode="&#xea;" glyph-name="ecircumflex" horiz-adv-x="527" d="M514 117Q512 108 499 90T462 50T392 11T292 -6Q173 -6 113 58T70 225Q86 323 162 388T355 453Q458 453 505 399Q551 343 535 245Q532 226 525 222T498 218H196Q193 199 192 186T191 148T196
106T214 71T250 44T308 34Q357 34 399 56T464 114Q471 127 476 131T493 135Q498 135 502 135T510 130T514 117ZM441 251Q465 417 349 417Q288 417 245 365Q219 333 202 251H441ZM529 525L505 503L363 602L189 503L175 525L382 710L529 525Z" />
<glyph unicode="&#xeb;" glyph-name="edieresis" horiz-adv-x="527" d="M514 117Q512 108 499 90T462 50T392 11T292 -6Q173 -6 113 58T70 225Q86 323 162 388T355 453Q458 453 505 399Q551 343 535 245Q532 226 525 222T498 218H196Q193 199 192 186T191 148T196
106T214 71T250 44T308 34Q357 34 399 56T464 114Q471 127 476 131T493 135Q498 135 502 135T510 130T514 117ZM441 251Q465 417 349 417Q288 417 245 365Q219 333 202 251H441ZM311 636T306 607T278 558T225 537T179 557T166 607T195 656T248 677T294 657ZM568
636T563 607T535 558T482 537T436 557T423 607T452 656T505 677T551 657Z" />
<glyph unicode="&#xec;" glyph-name="igrave" horiz-adv-x="319" d="M286 0L170 3L47 0L55 47H124L175 356Q180 384 171 389T116 395L124 442L299 450L232 47H294L286 0ZM323 546L287 509L149 590Q138 597 133 601T123 616T120 642Q124 666 145 685T190 704Q213
704 233 678L323 546Z" />
<glyph unicode="&#xed;" glyph-name="iacute" horiz-adv-x="319" d="M286 0L170 3L47 0L55 47H124L175 356Q180 384 171 389T116 395L124 442L299 450L232 47H294L286 0ZM413 642Q411 627 402 616T386 601T366 590L202 509L178 546L312 678Q340 704 363 704Q387
704 402 685T413 642Z" />
<glyph unicode="&#xee;" glyph-name="icircumflex" horiz-adv-x="319" d="M286 0L170 3L47 0L55 47H124L175 356Q180 384 171 389T116 395L124 442L299 450L232 47H294L286 0ZM425 525L401 503L259 602L85 503L71 525L278 710L425 525Z" />
<glyph unicode="&#xef;" glyph-name="idieresis" horiz-adv-x="319" d="M286 0L170 3L47 0L55 47H124L175 356Q180 384 171 389T116 395L124 442L299 450L232 47H294L286 0ZM207 636T202 607T174 558T121 537T75 557T62 607T91 656T144 677T190 657ZM464 636T459
607T431 558T378 537T332 557T319 607T348 656T401 677T447 657Z" />
<glyph unicode="&#xf1;" glyph-name="ntilde" horiz-adv-x="639" d="M615 0L490 3L363 0L371 47H440L485 317Q494 371 484 392T446 414Q391 414 337 373T271 256L236 47H305L297 0L172 3L45 0L53 47H122L173 356Q178 384 169 389T111 395L119 442L292 450L274
342Q348 450 467 450Q545 450 577 417T597 306L554 47H623L615 0ZM617 636L559 584Q523 553 482 553Q456 553 406 570T329 587Q283 587 247 553L225 578L283 630Q320 661 360 661Q387 661 436 644Q486 627 514 627Q560 627 595 661L617 636Z" />
<glyph unicode="&#xf2;" glyph-name="ograve" horiz-adv-x="575" d="M578 218Q562 121 485 58T286 -6T109 57T68 218Q86 321 164 387T363 453Q482 453 539 387T578 218ZM452 229Q469 332 454 366Q431 417 357 417Q276 417 237 359Q215 327 198 229Q194 203 192
190T189 153T189 116T198 84T216 57T247 41T293 34Q329 34 356 47T399 76T426 124T442 174T452 229ZM451 546L415 509L277 590Q266 597 261 601T251 616T248 642Q252 666 273 685T318 704Q341 704 361 678L451 546Z" />
<glyph unicode="&#xf3;" glyph-name="oacute" horiz-adv-x="575" d="M578 218Q562 121 485 58T286 -6T109 57T68 218Q86 321 164 387T363 453Q482 453 539 387T578 218ZM452 229Q469 332 454 366Q431 417 357 417Q276 417 237 359Q215 327 198 229Q194 203 192
190T189 153T189 116T198 84T216 57T247 41T293 34Q329 34 356 47T399 76T426 124T442 174T452 229ZM541 642Q539 627 530 616T514 601T494 590L330 509L306 546L440 678Q468 704 491 704Q515 704 530 685T541 642Z" />
<glyph unicode="&#xf4;" glyph-name="ocircumflex" horiz-adv-x="575" d="M578 218Q562 121 485 58T286 -6T109 57T68 218Q86 321 164 387T363 453Q482 453 539 387T578 218ZM452 229Q469 332 454 366Q431 417 357 417Q276 417 237 359Q215 327 198 229Q194 203
192 190T189 153T189 116T198 84T216 57T247 41T293 34Q329 34 356 47T399 76T426 124T442 174T452 229ZM553 525L529 503L387 602L213 503L199 525L406 710L553 525Z" />
<glyph unicode="&#xf5;" glyph-name="otilde" horiz-adv-x="575" d="M578 218Q562 121 485 58T286 -6T109 57T68 218Q86 321 164 387T363 453Q482 453 539 387T578 218ZM452 229Q469 332 454 366Q431 417 357 417Q276 417 237 359Q215 327 198 229Q194 203 192
190T189 153T189 116T198 84T216 57T247 41T293 34Q329 34 356 47T399 76T426 124T442 174T452 229ZM585 636L527 584Q491 553 450 553Q424 553 374 570T297 587Q251 587 215 553L193 578L251 630Q288 661 328 661Q355 661 404 644Q454 627 482 627Q528 627 563
661L585 636Z" />
<glyph unicode="&#xf6;" glyph-name="odieresis" horiz-adv-x="575" d="M578 218Q562 121 485 58T286 -6T109 57T68 218Q86 321 164 387T363 453Q482 453 539 387T578 218ZM452 229Q469 332 454 366Q431 417 357 417Q276 417 237 359Q215 327 198 229Q194 203
192 190T189 153T189 116T198 84T216 57T247 41T293 34Q329 34 356 47T399 76T426 124T442 174T452 229ZM335 636T330 607T302 558T249 537T203 557T190 607T219 656T272 677T318 657ZM592 636T587 607T559 558T506 537T460 557T447 607T476 656T529 677T575 657Z"
/>
<glyph unicode="&#xf7;" glyph-name="divide" horiz-adv-x="894" d="M871 250Q866 220 825 220H142Q132 220 126 221T112 229T106 250Q111 281 157 281H830Q842 281 849 280T865 272T871 250ZM614 536T609 504T577 449T518 426T467 449T453 504T485 559T544 582T595
559ZM525 -2Q519 -34 493 -57T434 -80T383 -57T369 -2Q374 30 401 53T460 76T511 53T525 -2Z" />
<glyph unicode="&#xf8;" glyph-name="oslash" horiz-adv-x="575" d="M578 218Q562 121 485 58T286 -6Q226 -6 179 11L86 -107L59 -87L148 26Q93 59 76 111T68 218Q86 321 164 387T363 453Q422 453 471 435L562 552L589 532L500 419Q552 389 570 335T578 218ZM438
394Q408 417 357 417Q317 417 286 403T238 370T209 321T192 270T183 219Q164 115 188 77L438 394ZM465 219Q483 328 459 368L212 52Q241 30 292 30Q321 30 345 37T385 53T415 81T436 112T449 149T458 184T465 219Z" />
<glyph unicode="&#xf9;" glyph-name="ugrave" horiz-adv-x="639" d="M615 0L437 -6L450 72Q391 -6 293 -6Q208 -6 166 21T135 123L173 356Q178 384 169 389T111 395L119 442L303 450L246 109Q238 63 248 47T313 30Q368 30 409 67T460 165L491 356Q496 384 487
389T429 395L437 442L621 450L560 86Q556 58 565 53T623 47L615 0ZM483 546L447 509L309 590Q298 597 293 601T283 616T280 642Q284 666 305 685T350 704Q373 704 393 678L483 546Z" />
<glyph unicode="&#xfa;" glyph-name="uacute" horiz-adv-x="639" d="M615 0L437 -6L450 72Q391 -6 293 -6Q208 -6 166 21T135 123L173 356Q178 384 169 389T111 395L119 442L303 450L246 109Q238 63 248 47T313 30Q368 30 409 67T460 165L491 356Q496 384 487
389T429 395L437 442L621 450L560 86Q556 58 565 53T623 47L615 0ZM573 642Q571 627 562 616T546 601T526 590L362 509L338 546L472 678Q500 704 523 704Q547 704 562 685T573 642Z" />
<glyph unicode="&#xfb;" glyph-name="ucircumflex" horiz-adv-x="639" d="M615 0L437 -6L450 72Q391 -6 293 -6Q208 -6 166 21T135 123L173 356Q178 384 169 389T111 395L119 442L303 450L246 109Q238 63 248 47T313 30Q368 30 409 67T460 165L491 356Q496 384
487 389T429 395L437 442L621 450L560 86Q556 58 565 53T623 47L615 0ZM585 525L561 503L419 602L245 503L231 525L438 710L585 525Z" />
<glyph unicode="&#xfc;" glyph-name="udieresis" horiz-adv-x="639" d="M615 0L437 -6L450 72Q391 -6 293 -6Q208 -6 166 21T135 123L173 356Q178 384 169 389T111 395L119 442L303 450L246 109Q238 63 248 47T313 30Q368 30 409 67T460 165L491 356Q496 384 487
389T429 395L437 442L621 450L560 86Q556 58 565 53T623 47L615 0ZM367 636T362 607T334 558T281 537T235 557T222 607T251 656T304 677T350 657ZM624 636T619 607T591 558T538 537T492 557T479 607T508 656T561 677T607 657Z" />
<glyph unicode="&#xff;" glyph-name="ydieresis" horiz-adv-x="607" d="M646 397Q615 397 599 395T579 389T569 376L277 -81Q246 -130 198 -165T96 -200Q51 -200 24 -173T4 -108Q8 -81 28 -66T71 -50Q96 -50 110 -66T119 -107Q112 -146 78 -160Q89 -164 102 -164Q135
-164 165 -143T210 -102T246 -48L277 0L156 397H92L100 444L214 441L338 444L330 397H276L358 127L514 373L521 385Q522 390 511 393T488 396L476 397L484 444L575 441Q618 441 654 444L646 397ZM351 636T346 607T318 558T265 537T219 557T206 607T235 656T288
677T334 657ZM608 636T603 607T575 558T522 537T476 557T463 607T492 656T545 677T591 657Z" />
<glyph unicode="&#x131;" glyph-name="dotlessi" horiz-adv-x="319" d="M286 0L170 3L47 0L55 47H124L175 356Q180 384 171 389T116 395L124 442L299 450L232 47H294L286 0Z" />
<glyph unicode="&#x152;" glyph-name="OE" horiz-adv-x="1169" d="M1182 274L1090 0H649Q619 0 564 -5Q500 -11 464 -11Q285 -11 200 87T140 340T283 596T582 697Q613 697 660 693Q738 686 763 686H1187L1178 445H1131Q1133 497 1130 526T1112 585T1061 626T966
639H824L780 380H869Q939 380 969 404T1010 497H1057L1010 216H963Q974 284 953 308T862 333H773L725 47H870Q935 47 979 61T1053 110T1099 178T1135 274H1182ZM651 343L671 465Q693 575 678 618T580 661Q474 661 394 582T289 355Q263 198 315 112T474 25Q541 25
567 48T612 130Q621 161 651 343Z" />
<glyph unicode="&#x153;" glyph-name="oe" horiz-adv-x="894" d="M881 117Q879 107 866 89T830 49T765 10T675 -6Q608 -6 561 16T491 69Q407 -6 283 -6Q166 -6 110 58T69 224Q86 325 164 389T360 453Q478 453 541 381Q623 453 738 453Q838 453 877 397Q918 339
902 246Q899 227 892 223T865 218H571Q569 201 568 192T567 160T570 124T581 91T602 61T638 42T690 34Q730 34 769 54T831 116Q836 124 839 127T847 133T860 135Q865 135 869 135T877 130T881 117ZM808 251Q811 276 812 290T811 332T802 375T777 404T731 417Q668
417 625 366Q593 330 577 251H808ZM459 229Q462 246 463 257T466 290T465 327T456 360T437 390T403 409T354 417Q279 417 233 361Q204 323 187 229Q172 136 188 93Q197 65 224 48T289 30Q427 30 459 229Z" />
<glyph unicode="&#x178;" glyph-name="Ydieresis" horiz-adv-x="869" d="M956 639H935Q908 639 882 636Q851 632 840 619L548 274L510 47H619L611 0Q574 3 435 3Q295 3 258 0L266 47H374L412 274L224 639H126L133 686Q168 683 298 683Q440 683 481 686L474 639H389L542
342L775 617L784 629Q760 639 710 639L717 686Q754 683 849 683L963 686L956 639ZM491 827T486 798T457 749T404 728T358 748T346 798Q350 827 374 847T427 868T473 848ZM794 827T789 798T760 749T707 728T661 748T649 798Q653 827 677 847T730 868T776 848Z" />
<glyph unicode="&#x192;" glyph-name="florin" horiz-adv-x="351" d="M539 613Q534 584 513 568T467 551Q444 551 428 567T416 613Q421 644 447 662Q441 664 431 664T411 663T383 654T353 635T328 600T310 545L293 444H414L406 397H291L233 47H320L312 0Q277 3
175 3L48 0L56 47H125L183 397H108L116 444H191L208 545Q221 623 288 661T440 700Q495 700 520 674T539 613Z" />
<glyph unicode="&#x2c6;" glyph-name="circumflex" horiz-adv-x="575" d="M553 525L529 503L387 602L213 503L199 525L406 710L553 525Z" />
<glyph unicode="&#x2c7;" glyph-name="caron" horiz-adv-x="575" d="M580 688L372 503L226 688L249 710L391 611L565 710L580 688Z" />
<glyph unicode="&#x2d8;" glyph-name="breve" horiz-adv-x="575" d="M582 700Q566 617 505 565T374 513T260 564T228 700H264Q256 642 293 609T384 575T486 608T546 700H582Z" />
<glyph unicode="&#x2d9;" glyph-name="dotaccent" horiz-adv-x="319" d="M344 639T339 607T307 552T248 529T197 552T183 607T215 662T274 685T325 662Z" />
<glyph unicode="&#x2da;" glyph-name="ring" horiz-adv-x="925" d="M629 605Q634 632 619 640T571 648Q549 648 537 646T514 634T499 605Q494 578 508 570T557 562Q580 562 592 564T615 576T629 605ZM683 604Q678 572 645 547T550 521Q490 521 465 546T445 606Q450
638 483 663T578 689Q638 689 663 664T683 604Z" />
<glyph unicode="&#x2db;" glyph-name="ogonek" horiz-adv-x="575" d="M375 -140Q318 -206 254 -206Q205 -206 178 -174T158 -100Q163 -74 187 -43T240 5H326Q287 -14 267 -51Q252 -81 262 -104T298 -128Q327 -128 347 -105Q357 -95 373 -112Q387 -124 375 -140Z" />
<glyph unicode="&#x2dc;" glyph-name="tilde" horiz-adv-x="575" d="M585 636L527 584Q491 553 450 553Q424 553 374 570T297 587Q251 587 215 553L193 578L251 630Q288 661 328 661Q355 661 404 644Q454 627 482 627Q528 627 563 661L585 636Z" />
<glyph unicode="&#x2dd;" glyph-name="hungarumlaut" horiz-adv-x="575" d="M405 644Q402 622 380 603Q366 591 320 554T264 509L229 533L278 636Q288 656 293 664T307 684T326 700T350 704Q373 704 391 687T405 644ZM597 644Q594 622 572 603Q558 591 512 554T456
509L421 533L470 636Q480 656 485 664T499 684T518 700T542 704Q565 704 583 687T597 644Z" />
<glyph unicode="&#x3a9;" glyph-name="Omega" horiz-adv-x="831" d="M812 200L742 0H551Q532 0 527 4T524 27Q534 93 608 245Q678 384 689 457Q707 558 662 610Q620 661 525 661Q435 661 373 612Q312 563 293 457Q281 381 305 233Q328 105 316 27Q313 8 306 4T279
0H88L84 200H131Q131 197 132 181T134 148T137 123Q139 116 141 113T158 107T201 103H273Q258 152 213 224Q184 270 170 296T145 368T140 457T172 540T243 617T363 675T531 697T691 675T792 617T837 541T842 457Q835 415 809 370T760 297T691 222Q618 145 591 103H663Q691
103 707 106T727 114T736 126Q752 155 765 200H812Z" />
<glyph unicode="&#x2013;" glyph-name="endash" horiz-adv-x="575" d="M617 256H43L49 292H623L617 256Z" />
<glyph unicode="&#x2014;" glyph-name="emdash" horiz-adv-x="1150" d="M1192 256H43L49 292H1198L1192 256Z" />
<glyph unicode="&#x2018;" glyph-name="quoteleft" horiz-adv-x="319" d="M307 422Q302 389 277 367T217 344Q175 344 155 380T143 469Q150 508 167 545T206 609T248 655T284 684T304 694Q310 694 315 688T319 674Q318 666 309 661Q205 590 181 477Q209 500 242
500Q278 500 295 477T307 422Z" />
<glyph unicode="&#x2019;" glyph-name="quoteright" horiz-adv-x="319" d="M348 569Q342 530 324 493T286 429T244 383T207 354T187 344Q181 344 176 350T172 364Q173 372 182 377Q286 447 311 561Q282 538 249 538Q213 538 196 561T184 616Q189 649 214 671T274
694Q316 694 336 658T348 569Z" />
<glyph unicode="&#x201a;" glyph-name="quotesinglbase" horiz-adv-x="319" d="M251 29Q244 -10 227 -47T188 -111T146 -157T110 -186T90 -196Q84 -196 79 -190T75 -176Q76 -168 85 -163Q189 -93 214 21Q185 -2 152 -2Q116 -2 99 21T87 76Q92 109 117 131T177
154Q219 154 239 118T251 29Z" />
<glyph unicode="&#x201c;" glyph-name="quotedblleft" horiz-adv-x="571" d="M307 422Q302 389 277 367T217 344Q175 344 155 380T143 469Q150 508 167 545T206 609T248 655T284 684T304 694Q310 694 315 688T319 674Q318 666 309 661Q205 590 181 477Q209 500
242 500Q278 500 295 477T307 422ZM559 422Q554 389 529 367T469 344Q427 344 407 380T395 469Q402 508 419 545T458 609T500 655T536 684T556 694Q562 694 567 688T571 674Q570 666 561 661Q457 590 433 477Q461 500 494 500Q530 500 547 477T559 422Z" />
<glyph unicode="&#x201d;" glyph-name="quotedblright" horiz-adv-x="571" d="M349 569Q343 530 325 493T287 429T245 383T208 354T188 344Q182 344 177 350T173 364Q174 372 183 377Q287 447 312 561Q283 538 250 538Q214 538 197 561T185 616Q190 649 215 671T275
694Q317 694 337 658T349 569ZM601 569Q595 530 577 493T539 429T497 383T460 354T440 344Q434 344 429 350T425 364Q426 372 435 377Q539 447 564 561Q535 538 502 538Q466 538 449 561T437 616Q442 649 467 671T527 694Q569 694 589 658T601 569Z" />
<glyph unicode="&#x201e;" glyph-name="quotedblbase" horiz-adv-x="571" d="M259 29Q252 -10 235 -47T196 -111T154 -157T118 -186T98 -196Q92 -196 87 -190T83 -176Q84 -168 93 -163Q197 -93 222 21Q193 -2 160 -2Q124 -2 107 21T95 76Q100 109 125 131T185
154Q227 154 247 118T259 29ZM511 29Q504 -10 487 -47T448 -111T406 -157T370 -186T350 -196Q344 -196 339 -190T335 -176Q336 -168 345 -163Q449 -93 474 21Q445 -2 412 -2Q376 -2 359 21T347 76Q352 109 377 131T437 154Q479 154 499 118T511 29Z" />
<glyph unicode="&#x2020;" glyph-name="dagger" horiz-adv-x="511" d="M521 443Q518 421 501 405T455 388T379 414Q360 424 341 428Q341 396 348 359Q356 310 356 290T350 231Q334 137 308 29T267 -130T246 -200Q241 -211 220 -211Q203 -211 201 -204Q200 -201
200 -185T200 -156Q208 49 239 231Q243 257 245 268T256 301T280 353Q306 405 312 428Q290 423 254 407Q212 388 186 388Q159 388 147 404T138 444Q141 466 158 482T204 499T280 473Q299 463 318 459Q319 489 311 542Q302 612 307 643T332 688T373 702Q392 702
407 689T418 643Q413 609 379 537Q355 490 347 459Q369 464 405 480Q447 499 473 499Q500 499 512 483T521 443Z" />
<glyph unicode="&#x2021;" glyph-name="daggerdbl" horiz-adv-x="511" d="M526 476Q524 466 520 456T499 433T460 421Q431 421 385 446Q371 453 348 460Q348 435 354 402Q368 339 362 308Q357 279 338 265T297 250Q277 250 262 264T251 308Q257 342 290 401Q309
436 317 460Q294 455 273 445Q220 421 191 421Q158 421 149 439T143 476Q147 499 165 515T209 531Q238 531 284 506Q299 499 322 492Q322 517 316 550Q302 613 307 644Q312 673 331 687T373 702Q393 702 408 688T418 644Q413 610 380 551Q363 521 353 492Q374 497
412 513Q451 531 480 531Q506 531 518 515T526 476ZM451 23Q448 1 431 -15T385 -32T325 -14Q284 5 272 8Q272 -18 280 -55Q292 -115 287 -144T263 -187T221 -202Q201 -202 186 -188T176 -144Q180 -116 210 -62Q233 -17 241 8Q221 3 184 -13Q142 -32 116 -32Q89
-32 77 -16T68 24Q71 46 88 62T134 79Q160 79 210 54Q229 43 247 39Q247 65 239 102Q227 162 232 191T256 234T298 249Q318 249 333 235T343 191Q337 159 309 109Q286 64 278 39Q303 46 335 60Q377 79 403 79Q430 79 442 63T451 23Z" />
<glyph unicode="&#x2022;" glyph-name="bullet" horiz-adv-x="894" d="M648 292T637 229T575 122T460 77T360 121T333 229T395 336T511 381T611 337Z" />
<glyph unicode="&#x2026;" glyph-name="ellipsis" horiz-adv-x="838" d="M256 110T251 78T219 23T160 0T109 23T95 78T127 133T186 156T237 133ZM515 110T510 78T478 23T419 0T368 23T354 78T386 133T445 156T496 133ZM774 110T769 78T737 23T678 0T627 23T613
78T645 133T704 156T755 133Z" />
<glyph unicode="&#x2030;" glyph-name="perthousand" horiz-adv-x="1288" d="M1255 145Q1239 45 1188 -5T1075 -56Q1006 -56 963 -6T936 146Q953 244 1012 295T1142 347Q1202 347 1237 297T1255 145ZM886 145Q870 45 819 -5T706 -56Q637 -56 594 -6T567 146Q584
244 643 295T773 347Q833 347 868 297T886 145ZM910 719Q908 710 895 695L203 -40Q190 -56 175 -56Q162 -56 155 -47T149 -25Q150 -20 153 -14T160 -4L164 0L756 630Q698 608 635 608Q552 608 469 649Q476 602 467 548Q451 448 400 398T287 347Q218 347 175 397T149
549Q165 647 224 698T354 750Q395 750 428 724Q523 644 640 644Q763 644 852 731Q871 750 885 750Q896 750 904 742T910 719ZM1208 146Q1222 231 1199 271T1138 311Q1121 311 1107 304T1083 282T1066 253T1054 216T1046 180T1039 145Q1034 111 1032 92T1031 42T1045
-4T1083 -20Q1120 -20 1157 19T1208 146ZM839 146Q853 231 830 271T769 311Q752 311 738 304T714 282T697 253T685 216T677 180T670 145Q665 111 663 92T662 42T676 -4T714 -20Q751 -20 788 19T839 146ZM421 549Q435 634 412 674T350 714Q333 714 319 707T295 685T278
656T266 619T258 583T251 548Q246 514 244 495T243 445T257 399T295 383Q332 383 369 422T421 549Z" />
<glyph unicode="&#x2039;" glyph-name="guilsinglleft" horiz-adv-x="445" d="M320 17Q320 10 315 5T303 0H295Q287 0 283 9Q255 136 167 226Q158 235 171 247Q290 338 359 463Q364 472 374 472H382Q389 472 392 467T393 456Q351 340 280 236Q315 134 320 17Z" />
<glyph unicode="&#x203a;" glyph-name="guilsinglright" horiz-adv-x="445" d="M353 226Q237 139 164 9Q160 0 150 0H142Q135 0 132 5T131 17Q175 136 243 236Q207 344 204 456Q204 462 209 467T221 472H229Q238 472 240 463Q269 337 356 247Q367 236 353 226Z" />
<glyph unicode="&#x2044;" glyph-name="fraction" horiz-adv-x="648" d="M695 666Q693 656 686 649L119 3Q108 -10 92 -10Q79 -10 72 -2T67 20Q68 29 75 37L643 683Q654 696 670 696Q682 696 689 688T695 666Z" />
<glyph unicode="&#x20ac;" glyph-name="Euro" horiz-adv-x="720" d="M657 3Q654 -11 640 -11H633Q630 -11 626 -9L583 22Q525 -11 459 -11Q308 -11 233 86Q182 152 179 253H117Q110 253 107 258T107 271L116 291Q121 301 131 301H180Q181 315 185 343L194 385H139Q132
385 129 390T129 403L138 423Q143 433 153 433H209Q244 532 319 600Q426 697 577 697Q643 697 690 664L743 695Q749 697 751 697H758Q772 697 770 683L747 546Q745 532 731 532H707Q695 532 695 544Q697 589 668 619T592 649Q487 649 420 570Q376 518 355 433H648Q655
433 658 428T658 415L648 395Q645 385 633 385H344L337 343L330 301H584Q591 301 594 296T594 283L585 263Q580 253 570 253H325Q318 167 344 116Q364 78 403 58T490 37Q536 37 575 67T628 142Q631 154 644 154H668Q673 154 676 150T679 140L657 3Z" />
<glyph unicode="&#x2122;" glyph-name="trademark" horiz-adv-x="1135" d="M544 542H516Q518 577 518 602T498 643T438 658H393L335 309H426L421 281Q389 283 287 283T153 281L158 309H249L307 658H261Q230 658 210 651T176 624T158 590T143 542H115L152 686H556L544
542ZM1132 281Q1110 283 1029 283Q949 283 927 281L932 309H997L1056 665H1055L826 296Q818 281 805 281T788 296L685 657L630 327Q628 321 628 318T632 313T645 311Q667 309 677 309H692L687 281Q662 283 606 283Q548 283 525 281L530 309H545Q563 309 578 311Q590
312 593 314T598 327L654 665H589L594 693H727Q735 693 738 693T745 689T751 678L842 360L1039 678Q1048 693 1068 693H1201L1196 665H1131L1072 309H1137L1132 281Z" />
<glyph unicode="&#x221a;" glyph-name="radical" horiz-adv-x="543" d="M728 725Q724 695 686 695H598Q592 695 587 690T579 679T572 660T563 641L275 29Q268 14 258 -9T243 -41T230 -64T216 -81T201 -90T180 -94H172Q166 -94 164 -92T162 -82V-75Q160 -43 158
21T154 117Q154 124 154 138T153 163T151 183L66 82L51 99L46 109L234 330L245 101Q248 109 255 123T264 143L507 658Q511 667 517 680T526 700T533 715T540 728T546 737T552 745T559 750T567 754T575 755T586 756H667Q671 756 679 756T691 757Q729 757 729 729L728
725Z" />
<glyph unicode="&#x221e;" glyph-name="infinity" horiz-adv-x="1150" d="M531 190L493 245Q453 303 415 335T323 367Q262 367 212 325T151 222Q140 153 175 103T274 52Q405 52 531 190ZM1073 222Q1084 291 1049 341T950 392Q819 392 693 254L731 199Q771 141
809 109T901 77Q962 77 1012 119T1073 222ZM1137 222Q1120 119 1036 47T849 -26Q770 -26 704 6T596 97L580 120Q439 -23 289 -23Q188 -23 129 48T87 222Q104 325 188 397T375 470Q454 470 520 438T628 347L644 324Q785 467 935 467Q1036 467 1095 396T1137 222Z"
/>
<glyph unicode="&#xfb01;" glyph-name="f_i" horiz-adv-x="639" d="M601 0L479 3L355 0L363 47H432L484 362Q488 387 484 392T460 397H280L222 47H291L283 0L161 3L37 0L45 47H114L172 397H97L105 444H180L197 544Q204 586 233 617T305 666T394 691T491 700Q567
700 600 665T625 584Q621 554 599 536T548 518Q521 518 506 536T494 583Q502 630 549 646Q520 664 479 664Q406 664 357 634T298 542L282 444H429L431 448L608 454L540 47H609L601 0Z" />
<glyph unicode="&#xfb02;" glyph-name="f_l" horiz-adv-x="639" d="M601 0L479 3L355 0L363 47H432L490 397H280L222 47H291L283 0L161 3L37 0L45 47H114L172 397H97L105 444H180L197 544Q204 585 232 616T302 665T391 691T490 700Q535 700 565 691Q571 689 579
689L648 694L540 47H609L601 0ZM498 444L515 545Q518 563 514 567Q496 584 501 613Q505 636 524 655L527 659Q501 664 479 664Q451 664 426 659T372 642T324 605T298 542L282 444H498Z" />
</font>
</defs>
</svg>
