<?xml version="1.0" standalone="no"?> <!DOCTYPE svg PUBLIC "-//W3C//DTD SVG 1.0//EN" "http://www.w3.org/TR/2001/REC-SVG-20010904/DTD/svg10.dtd" > <svg xmlns="http://www.w3.org/2000/svg" width="100%" height="100%">
<defs >
<font id="LMRoman10-BoldItalic" horiz-adv-x="657" ><font-face
    font-family="LM Roman 10"
    units-per-em="1000"
    panose-1="0 0 8 0 0 0 0 0 0 0"
    ascent="918"
    descent="-250"
    alphabetic="0" />
<missing-glyph horiz-adv-x="364" d="M33 0V666H298V0H33ZM66 33H265V633H66V33Z" />
<glyph unicode=" " glyph-name="space" horiz-adv-x="414" />
<glyph unicode="!" glyph-name="exclam" horiz-adv-x="386" d="M423 627L282 237Q277 224 273 222T252 219Q243 219 238 219T228 224T225 236V247L279 633Q283 665 304 684T340 707T367 711Q397 711 413 694T430 655Q430 648 423 627ZM287 87Q287 52 260 26T199
0Q172 0 155 16T137 60Q137 95 165 121T225 147Q253 147 270 130T287 87Z" />
<glyph unicode="&quot;" glyph-name="quotedbl" horiz-adv-x="518" d="M393 650L311 422H255L287 650Q290 672 310 687T354 703Q377 703 389 687T393 650ZM555 650L473 422H417L449 650Q452 672 472 687T516 703Q539 703 551 687T555 650Z" />
<glyph unicode="#" glyph-name="numbersign" horiz-adv-x="944" d="M889 139Q889 108 842 108H610L461 -172Q449 -194 432 -194Q419 -194 410 -185T401 -163Q401 -157 408 -144L541 108H376L227 -172Q215 -194 198 -194Q185 -194 176 -185T167 -163Q167 -157 174
-144L307 108H171Q125 108 125 139Q125 169 165 169H341L427 332H221Q181 332 181 362Q181 393 227 393H460L608 672Q620 694 637 694Q650 694 659 685T668 663Q668 657 661 644L529 393H694L842 672Q854 694 871 694Q884 694 893 685T902 663Q902 657 895 644L763
393H898Q944 393 944 362Q944 332 904 332H730L644 169H848Q889 169 889 139ZM661 332H496L410 169H575L661 332Z" />
<glyph unicode="$" glyph-name="dollar" horiz-adv-x="575" d="M645 549Q642 509 622 483T564 456Q544 456 528 468T513 509Q516 538 537 559T594 581Q577 646 474 652L418 428Q496 411 531 369Q574 316 568 243Q565 208 549 170T504 93T424 27T310 -5L297 -56H250L263
-5Q171 3 136 48T105 154Q106 165 108 178T119 209T144 240T187 252Q197 252 207 249T228 233T237 198Q236 185 231 171T206 142T154 127Q167 50 275 42L337 294Q312 299 299 302T263 319T221 352Q178 400 183 469Q186 503 202 539T247 611T327 671T439 699L451
750H498L486 699Q557 695 604 659T645 549ZM427 652Q359 645 320 608T278 529Q275 495 299 471T373 438L427 652ZM474 182Q477 212 457 242T383 283L322 43Q395 50 433 95T474 182Z" />
<glyph unicode="%" glyph-name="percent" horiz-adv-x="944" d="M946 732T946 719T933 693L228 -42Q214 -56 202 -56Q191 -56 182 -48T172 -25Q172 -13 188 3L783 626H782Q735 611 683 611Q598 611 531 651Q532 644 532 626Q532 584 519 537T482 446T420 375T337
347Q320 347 303 352T265 369T231 410T218 480Q218 542 243 603T319 707T430 750Q471 750 507 716Q577 646 684 646Q806 646 889 737Q902 750 915 750T937 741ZM901 222Q901 164 879 102T811 -8T706 -56Q661 -56 624 -26T587 77Q587 137 611 198T686 303T800 347Q838
347 869 320T901 222ZM478 634Q478 641 477 650T472 676T457 703T430 714Q410 714 387 695T347 624Q335 589 320 528T305 435Q305 411 314 397T340 383Q378 383 411 428T461 531T478 634ZM847 230Q847 311 799 311Q772 311 750 283T714 213T691 131T678 60L674
32Q674 7 683 -6T709 -20Q747 -20 780 25T830 128T847 230Z" />
<glyph unicode="&amp;" glyph-name="ampersand" horiz-adv-x="886" d="M834 298Q834 287 833 272T824 225T801 163T758 99T690 41T586 0T444 -17Q292 -17 217 37T141 181Q141 227 166 288T234 392Q224 418 224 450Q224 508 250 566T332 668T459 711Q516 711 552
679T589 597Q589 553 566 532T516 511Q498 511 483 521T467 557Q467 581 483 601T529 627Q512 675 459 675Q366 675 326 453Q367 469 407 469Q445 469 464 452T483 405Q483 368 455 337T374 306Q330 306 294 323Q256 224 256 155Q256 19 448 19Q587 19 665 74Q724
117 750 180T777 292Q777 356 726 429Q725 428 696 413T655 390Q613 360 610 320Q631 355 672 355Q696 355 709 342T722 308Q722 281 702 259T648 236Q608 236 581 260T554 320Q554 341 563 360T582 393T617 423T654 449T697 474Q775 516 813 576Q775 586 775 622Q775
651 796 672T847 694Q867 694 882 682T897 647Q897 634 891 611T855 543T776 460Q834 374 834 298ZM429 413Q429 433 407 433Q364 433 324 381Q337 342 377 342Q401 342 415 363T429 413Z" />
<glyph unicode="&apos;" glyph-name="quotesingle" horiz-adv-x="356" d="M393 650L311 422H255L287 650Q290 672 310 687T354 703Q377 703 389 687T393 650Z" />
<glyph unicode="(" glyph-name="parenleft" horiz-adv-x="473" d="M567 736Q567 728 561 725L542 708Q463 640 403 541T312 341T267 159T252 16Q252 -125 313 -215Q324 -229 324 -235Q324 -249 306 -249T254 -204T201 -111Q169 -30 169 74Q169 234 238 390T413
650Q446 682 490 716T549 750Q567 750 567 736Z" />
<glyph unicode=")" glyph-name="parenright" horiz-adv-x="473" d="M430 427Q430 344 408 251T326 43T173 -159Q147 -185 106 -217T49 -249Q32 -249 32 -235Q32 -229 51 -212Q119 -154 173 -74T259 84T311 243T339 383T346 485Q346 623 280 724Q274 732 274 736Q274
750 292 750T342 707T391 628Q430 537 430 427Z" />
<glyph unicode="*" glyph-name="asterisk" horiz-adv-x="591" d="M604 450Q604 429 587 412T550 395Q537 395 524 408L438 495L425 358Q424 343 418 333T406 317T391 310T379 307T372 306Q357 306 348 314T338 335Q338 341 344 354L400 494L280 414Q252 395 239
395Q227 395 217 403T207 430Q207 464 247 477L390 528L271 579Q251 587 251 606Q251 627 268 644T305 661Q318 661 331 648L417 561L430 698Q431 713 437 723T449 739T464 746T476 749T483 750Q498 750 507 742T517 721Q517 715 511 702L455 561L588 650Q605 661
616 661Q628 661 638 653T648 626Q648 592 608 579L465 528L584 477Q604 469 604 450Z" />
<glyph unicode="+" glyph-name="plus" horiz-adv-x="886" d="M859 250Q859 220 816 220H530L457 -72Q450 -102 426 -102Q413 -102 404 -93T395 -71Q395 -66 398 -56L467 220H196Q153 220 153 251Q153 281 196 281H482L555 572Q562 603 587 603Q598 603 607 595T617
572Q617 566 613 552L545 281H816Q859 281 859 250Z" />
<glyph unicode="," glyph-name="comma" horiz-adv-x="356" d="M276 67Q276 21 253 -28T200 -113T144 -171T107 -194Q100 -194 95 -188T89 -174Q89 -168 106 -154Q198 -89 230 14Q209 0 182 0Q150 0 136 18T121 58Q121 90 146 118T211 147Q242 147 259 125T276 67Z" />
<glyph unicode="-" glyph-name="hyphen" horiz-adv-x="414" d="M375 202Q370 183 365 179T338 175H125Q92 175 92 194Q92 196 97 218T103 244Q108 262 112 265T138 269H355Q387 269 387 251Q387 250 375 202Z" />
<glyph unicode="." glyph-name="period" horiz-adv-x="356" d="M272 88Q272 53 244 27T182 0Q158 0 140 15T122 59Q122 95 150 121T211 147Q238 147 255 131T272 88Z" />
<glyph unicode="/" glyph-name="slash" horiz-adv-x="591" d="M681 719Q681 712 671 695L97 -227Q82 -250 66 -250Q53 -250 44 -241T35 -219Q35 -212 45 -195L619 727Q634 750 650 750Q663 750 672 741T681 719Z" />
<glyph unicode="0" glyph-name="zero" horiz-adv-x="591" d="M636 481Q636 411 603 287T511 88Q426 -17 292 -17Q115 -17 115 160Q115 225 142 332T209 508Q298 661 460 661Q636 661 636 481ZM446 157Q469 224 502 359T536 543Q536 579 513 602T451 625Q412 625
379 602T331 552Q302 497 260 327T218 105Q218 65 241 42T300 19Q400 19 446 157Z" />
<glyph unicode="1" glyph-name="one" horiz-adv-x="591" d="M494 29Q494 0 464 0Q438 0 384 1T302 3Q276 3 224 2T146 0Q124 0 124 18Q124 32 129 38T141 46T159 47H190Q220 47 234 49Q250 50 254 53T261 67L373 514Q311 485 256 485Q233 485 233 504Q233 529
258 532Q384 541 477 650Q488 661 497 661T511 657T517 650T518 643Q518 639 515 630L370 50Q397 47 429 47H462Q494 47 494 29Z" />
<glyph unicode="2" glyph-name="two" horiz-adv-x="591" d="M601 168Q601 159 594 139T570 91T533 40T479 0T411 -17Q367 -17 300 25Q238 66 202 66Q167 66 147 -3Q144 -13 140 -15T118 -17Q91 -17 91 -3Q91 3 96 20T116 66T154 126T216 191T306 252Q409 305 460
373Q480 400 492 442T506 507T509 539Q509 585 484 605T425 625Q346 625 285 550T224 410Q224 382 243 382Q281 382 311 426T342 498Q342 512 331 530Q326 538 326 541Q326 549 334 554Q339 561 347 561Q358 561 368 541T378 500Q378 457 337 402T239 346Q208 346
189 367T170 421Q170 452 189 492T240 570T323 635T430 661Q512 661 565 619T618 496Q618 412 562 353T352 216Q256 168 203 102Q257 102 319 95Q396 88 424 88Q470 88 501 111T544 167Q548 178 552 180T573 183Q601 183 601 168Z" />
<glyph unicode="3" glyph-name="three" horiz-adv-x="591" d="M628 527Q628 472 591 414T475 328Q547 293 547 206Q547 113 470 48T269 -17Q196 -17 152 20T108 116Q108 145 117 164T139 192T163 203T181 206Q204 206 217 193T231 160Q231 139 216 117T167 90Q175
55 203 37T268 19Q312 19 346 39T396 90Q413 123 425 176T438 250Q438 311 368 311H336Q324 311 319 311T309 315T304 326Q308 348 312 352Q316 358 338 358H366Q451 358 487 412Q504 436 516 486T529 559Q529 625 454 625Q382 625 325 578T268 476Q268 448 287
448T324 463T342 500Q342 513 332 529Q326 535 326 541Q326 549 334 554Q339 561 347 561Q358 561 368 540T379 502Q379 467 350 440T284 412Q253 412 233 431T213 483Q213 547 284 604T458 661Q536 661 582 627T628 527Z" />
<glyph unicode="4" glyph-name="four" horiz-adv-x="591" d="M547 10Q547 -5 506 -14T431 -23Q428 -38 404 -134Q389 -194 339 -194Q318 -194 306 -182T294 -152L312 -74L330 -1Q274 18 251 23T192 28Q124 28 99 12Q82 0 77 0Q69 0 61 10T53 27Q53 46 91 62Q100
67 123 85T193 152T280 263Q369 399 421 599Q425 615 429 624T448 647T487 661Q494 661 502 659T521 647T531 618Q531 611 525 583T495 495T436 372T335 226T186 75H206Q254 75 342 45L372 164Q377 185 381 197T401 222T439 236Q458 236 471 225T484 194Q484 186
480 171L444 24Q480 24 511 34Q522 37 523 37Q532 37 539 26T547 10Z" />
<glyph unicode="5" glyph-name="five" horiz-adv-x="591" d="M565 260Q565 151 483 67T267 -17Q195 -17 157 24T119 122Q119 153 128 175T151 207T177 221T200 225Q221 225 237 213T253 175T235 126T178 98Q185 63 209 45T268 26Q285 26 303 30T348 55T392 110Q408
146 426 221T444 323Q444 344 432 361T392 379Q317 379 257 320Q246 309 243 307T229 305Q205 305 205 323Q205 324 208 339L284 641Q290 661 300 661Q304 661 316 655Q377 629 449 629Q522 629 599 657L613 661Q620 661 624 657T628 647Q628 631 598 606Q494 512
375 512Q363 512 350 513T328 515T318 517Q315 516 312 504L282 385Q337 415 397 415Q469 415 517 377T565 260Z" />
<glyph unicode="6" glyph-name="six" horiz-adv-x="591" d="M577 272Q577 164 501 74T298 -17Q213 -17 173 32T132 169Q132 232 158 337T250 524Q309 598 380 629T514 661T602 633T628 569Q628 526 606 503T555 480Q530 480 518 493T505 526Q505 549 521 569T566
596Q553 622 513 622Q472 622 433 599T369 543Q325 485 293 360Q344 424 413 424Q461 424 495 408T546 367T570 318T577 272ZM414 114Q425 143 444 222T464 331Q464 388 403 388Q357 388 322 349T270 255T245 159T237 97Q237 71 252 49T301 26Q380 26 414 114Z"
/>
<glyph unicode="7" glyph-name="seven" horiz-adv-x="591" d="M706 647Q706 641 694 627Q604 507 550 391Q478 239 430 53Q427 43 426 39T418 22T404 2T384 -11T353 -17Q330 -17 316 -3T301 32Q301 40 308 67T339 157T398 285Q450 385 557 531Q540 526 520 526Q496
526 457 543Q424 556 405 556Q351 556 293 528T203 448Q195 435 191 433T171 430Q143 430 143 444Q143 448 150 461L245 645Q251 657 255 659T276 661T298 659T304 647Q304 639 291 617Q357 661 424 661Q448 661 462 649T486 605Q495 579 502 571T522 562Q576 562
647 648Q655 657 659 659T678 661Q706 661 706 647Z" />
<glyph unicode="8" glyph-name="eight" horiz-adv-x="591" d="M567 226Q567 185 550 144T499 66T413 6T294 -17Q208 -17 159 19T109 118Q109 163 127 201T178 266T231 305T278 331Q259 342 240 370T221 444Q221 480 236 517T279 587T355 640T459 661Q528 661 573
632T618 544Q618 508 605 477T566 424T524 391T483 367Q509 349 523 336T552 294T567 226ZM543 546Q543 622 453 622Q384 622 348 589T312 519Q312 499 322 487T370 448L445 395Q494 425 518 466T543 546ZM465 158Q465 185 453 199T403 241Q376 263 317 302Q255
267 226 214T196 116Q196 73 222 50T300 26Q376 26 420 67T465 158Z" />
<glyph unicode="9" glyph-name="nine" horiz-adv-x="591" d="M621 479Q621 448 615 399T579 264T501 116Q449 50 383 17T251 -17Q197 -17 161 5T125 78Q125 122 147 143T197 164Q222 164 234 151T247 118Q247 96 233 76T191 49Q209 26 253 26Q293 26 328 48T384
98Q427 160 460 286Q407 221 340 221Q290 221 255 238T204 282T182 331T175 373Q175 388 177 411T201 488T260 580Q342 661 459 661Q540 661 580 613T621 479ZM517 552Q517 577 504 599T458 622Q372 622 339 531Q325 494 307 418T288 314Q288 292 301 275T349 257Q396
257 432 299T485 398T509 496T517 552Z" />
<glyph unicode=":" glyph-name="colon" horiz-adv-x="356" d="M346 384Q346 350 318 324T257 297Q230 297 213 313T196 356Q196 391 224 417T286 444Q309 444 327 430T346 384ZM272 88Q272 53 244 27T182 0Q158 0 140 15T122 59Q122 95 150 121T211 147Q238 147
255 131T272 88Z" />
<glyph unicode=";" glyph-name="semicolon" horiz-adv-x="356" d="M346 384Q346 350 318 324T257 297Q230 297 213 313T196 356Q196 391 224 417T286 444Q309 444 327 430T346 384ZM268 74Q268 27 246 -24T196 -111T142 -170T107 -194Q100 -194 95 -188T89 -174Q89
-168 100 -158Q187 -88 219 8Q203 0 182 0Q150 0 136 18T121 58Q121 91 147 119T210 147Q268 147 268 74Z" />
<glyph unicode="&lt;" glyph-name="less" horiz-adv-x="894" d="M783 -56Q781 -67 770 -76T745 -86Q737 -86 724 -79L176 219Q153 230 159 251Q163 271 192 282L892 581Q904 587 913 587Q927 587 933 578T936 557Q931 537 903 525L260 250L766 -24Q788 -37 783 -56Z" />
<glyph unicode="=" glyph-name="equal" horiz-adv-x="886" d="M886 362Q886 332 846 332H221Q181 332 181 362Q181 393 227 393H840Q886 393 886 362ZM831 139Q831 108 784 108H171Q125 108 125 139Q125 169 165 169H790Q831 169 831 139Z" />
<glyph unicode="&gt;" glyph-name="greater" horiz-adv-x="894" d="M860 251Q854 230 827 219L126 -80Q114 -86 106 -86Q93 -86 87 -77T82 -56Q87 -36 115 -24L759 251L252 525Q230 538 235 557Q238 569 249 578T273 587Q282 587 294 580L843 282Q864 270 860 251Z" />
<glyph unicode="?" glyph-name="question" horiz-adv-x="591" d="M614 587Q614 483 505 411L382 332Q369 323 362 318T348 300T341 273Q341 255 357 255Q375 255 398 268T434 313Q438 323 442 325T462 327Q472 327 477 327T486 323T490 313Q490 284 450 252T355
219Q341 219 328 222T299 244T284 293Q284 369 349 411L493 505Q556 546 556 606Q556 675 469 675Q419 675 374 644T296 561Q328 550 333 525Q334 520 334 514Q334 485 313 465T264 444Q242 444 228 457T214 490Q214 516 233 552T283 625T365 686T470 711Q538 711
576 677T614 587ZM389 87Q389 52 362 26T301 0Q274 0 257 16T239 60Q239 95 267 121T327 147Q355 147 372 130T389 87Z" />
<glyph unicode="@" glyph-name="at" horiz-adv-x="886" d="M815 77Q815 68 807 65Q788 57 756 45T629 13T449 -8Q317 -8 241 57T164 247Q164 327 194 406T280 552T423 660T614 702Q742 702 819 637T896 448Q896 421 891 384T871 301T836 217T782 153T708 127Q634
127 608 170Q544 127 477 127Q404 127 357 167T309 285Q309 349 339 412T433 521T580 567Q625 567 662 547T715 482H744Q754 482 759 482T768 478T772 468Q772 453 738 331L729 296Q720 260 712 226T704 184Q704 163 718 163Q749 163 774 201T813 292T834 388T841
451Q841 558 778 612T613 666Q522 666 445 626T320 523T246 387T219 243Q219 141 279 85T451 28Q586 28 733 85Q749 91 767 91H787Q797 91 802 91T811 87T815 77ZM610 246L665 469Q654 503 630 517T580 531Q531 531 490 482T430 373T411 261Q411 248 413 235T421
204T443 175T482 163Q522 163 562 190T610 246Z" />
<glyph unicode="A" glyph-name="A" horiz-adv-x="866" d="M805 29Q805 16 800 9T790 1T777 0Q754 0 708 1T640 3Q615 3 566 2T493 0Q483 0 478 4T472 14L471 18Q471 38 480 42T510 47Q551 47 575 52L560 192H328L247 57Q258 53 273 51T298 48L307 47Q333 47 333
29Q333 0 305 0Q287 0 248 1T190 3Q174 3 141 2T92 0Q84 0 79 4T74 14L73 18Q73 31 78 38T89 46T104 47Q138 47 158 53T185 66T198 84L563 686Q573 703 582 707T610 711Q632 711 638 707T646 682L712 66Q713 55 715 53T727 48Q735 47 760 47H773Q805 47 805 29ZM555
239L525 517L357 239H555Z" />
<glyph unicode="B" glyph-name="B" horiz-adv-x="817" d="M778 225Q778 144 703 72T496 0H96Q64 0 64 18Q64 32 70 38T82 46T99 47H121Q137 47 161 49Q174 50 177 52T184 65L327 637Q303 639 278 639H256Q224 639 224 657Q224 671 230 677T242 685T259 686H639Q723
686 777 652T831 550Q831 486 778 431T628 358Q693 352 735 319T778 225ZM699 557Q699 639 616 639H485Q462 639 457 637T449 623L387 375H526Q608 375 653 433T699 557ZM643 245Q643 278 633 299T605 327T577 337T552 339H378L306 48Q313 47 329 47H470Q529 47
570 81T627 158T643 245Z" />
<glyph unicode="C" glyph-name="C" horiz-adv-x="827" d="M849 446Q845 431 841 429T817 426Q805 426 800 426T790 430T786 441Q786 442 787 454T789 484Q789 559 752 607T644 656Q585 656 522 631T411 547Q354 477 326 368T298 202Q298 119 344 77Q394 30 483
30Q527 30 574 48T669 116T740 239Q743 248 767 248Q795 248 795 234Q795 226 787 203T753 139T688 68Q582 -17 458 -17Q400 -17 349 -3T256 41T188 123T163 245Q163 309 183 374T243 498T338 603T469 676T630 703Q733 703 796 635L882 703Q909 703 909 689Q909
685 905 670L849 446Z" />
<glyph unicode="D" glyph-name="D" horiz-adv-x="876" d="M885 446Q885 369 857 291T776 148T643 41T464 0H96Q64 0 64 18Q64 32 70 38T82 46T99 47H121Q137 47 161 49Q174 50 177 52T184 65L327 637Q303 639 278 639H256Q224 639 224 657Q224 671 230 677T242
685T259 686H635Q684 686 727 673T806 633T864 558T885 446ZM757 436T757 483T741 562T697 610T643 632T585 639H490Q467 639 462 637T454 623L311 48Q318 47 334 47H438Q593 47 673 174Q705 226 731 331Z" />
<glyph unicode="E" glyph-name="E" horiz-adv-x="757" d="M761 256Q761 252 756 239L661 17Q656 5 651 3T628 0H96Q64 0 64 18Q64 32 70 38T82 46T99 47H121Q137 47 161 49Q174 50 177 52T184 65L325 631Q322 631 302 632T276 633H254Q223 633 223 651Q223 665
228 671T240 679T257 680H773Q803 680 805 663L782 465Q781 454 780 450T772 442T753 439Q725 439 725 458Q725 467 728 479Q731 505 731 527Q731 553 727 571T709 601T685 619T646 629T601 632T544 633Q476 633 462 631L399 376H441Q498 376 520 396T556 471Q560
485 565 489T586 493Q614 493 614 475Q614 472 611 462L555 236Q551 219 546 216T525 212Q497 212 497 230Q498 237 500 244Q507 276 507 289Q507 312 493 320T438 329H387L317 48Q324 47 340 47H440Q499 47 540 59T611 102T658 162T699 247Q708 267 712 270T733
274Q761 274 761 256Z" />
<glyph unicode="F" glyph-name="F" horiz-adv-x="727" d="M767 465Q766 454 765 450T757 442T738 439Q710 439 710 458Q710 462 712 470Q716 506 716 529Q716 560 708 580T688 610T649 626T602 632T539 633Q476 633 462 631L396 364H432Q489 364 510 383T546 459Q550
473 555 477T576 481Q604 481 604 463Q604 460 601 450L545 224Q541 207 536 204T515 200Q487 200 487 218Q487 220 488 225T489 232Q497 258 497 278Q497 300 484 308T429 317H384L317 50Q341 47 379 47H415Q447 47 447 29Q447 0 416 0Q388 0 329 1T241 3Q216
3 164 2T86 0Q64 0 64 18Q64 32 70 38T82 46T99 47H121Q137 47 161 49Q174 50 177 52T184 65L325 631Q322 631 302 632T276 633H254Q223 633 223 651Q223 665 228 671T240 679T257 680H758Q788 680 790 663L767 465Z" />
<glyph unicode="G" glyph-name="G" horiz-adv-x="895" d="M874 258Q874 238 865 234T834 229T801 227Q798 227 797 227T794 225T791 220T789 212L742 21Q737 0 725 0Q719 0 694 15T650 47Q578 -17 458 -17Q399 -17 347 -2T253 43T187 124T163 244Q163 309 183
374T243 499T339 603T469 676T629 703Q732 703 795 635L881 703Q908 703 908 689Q908 685 904 670L848 446Q844 431 840 429T816 426Q804 426 799 426T789 430T785 441Q785 442 786 454T788 485Q788 557 752 606T643 656Q584 656 519 629T406 541Q353 472 326 365T298
203Q298 121 347 75Q398 30 486 30Q535 30 576 54T629 119Q632 128 643 174T655 223Q655 229 595 229H561Q529 229 529 247Q529 276 560 276Q588 276 644 275T727 273Q748 273 791 274T854 276T874 258Z" />
<glyph unicode="H" glyph-name="H" horiz-adv-x="896" d="M1003 668Q1003 654 998 648T986 640T969 639L907 638Q893 637 890 634T883 620L741 49Q744 49 764 48T790 47H812Q843 47 843 29Q843 16 837 9T827 1T815 0Q790 0 739 1T661 3Q636 3 585 2T510 0Q488
0 488 18Q488 32 494 38T506 46T523 47H545Q561 47 585 49Q598 50 601 52T608 65L675 333H388L317 49Q320 49 340 48T366 47H388Q419 47 419 29Q419 16 413 9T403 1T391 0Q366 0 315 1T237 3Q212 3 161 2T86 0Q64 0 64 18Q64 32 70 38T82 46T99 47H121Q137 47 161
49Q174 50 177 52T184 65L327 637Q303 639 278 639H256Q224 639 224 657Q224 670 230 677T240 685T253 686Q278 686 329 685T407 683Q432 683 482 684T557 686Q579 686 579 668Q579 654 574 648T562 640T545 639L483 638Q469 637 466 634T459 620L400 380H687L751
637Q727 639 702 639H680Q648 639 648 657Q648 670 654 677T664 685T677 686Q702 686 753 685T831 683Q856 683 906 684T981 686Q1003 686 1003 668Z" />
<glyph unicode="I" glyph-name="I" horiz-adv-x="472" d="M585 668Q585 654 579 648T567 640T550 639H525Q508 639 484 637Q469 636 466 634T459 620L317 49L368 47H393Q425 47 425 29Q425 0 395 0Q369 0 316 1T236 3Q210 3 158 2T81 0Q59 0 59 18Q59 32 64 38T76
46T94 47H118Q148 47 159 48Q174 49 177 51T184 65L326 637Q320 637 299 638T275 639H251Q219 639 219 657Q219 670 224 677T235 685T248 686Q274 686 327 685T407 683Q433 683 485 684T563 686Q585 686 585 668Z" />
<glyph unicode="J" glyph-name="J" horiz-adv-x="611" d="M691 668Q691 654 686 648T674 640T656 639H648Q626 639 615 638Q606 636 604 634T599 622L479 140Q464 77 399 30T230 -17Q160 -17 116 12T72 92Q72 138 100 163T161 188Q190 188 207 171T224 130Q224
105 207 79T155 43Q181 19 226 19Q267 19 301 54T350 149L471 636Q448 639 407 639H368Q337 639 337 657Q337 686 367 686Q395 686 452 685T539 683Q561 683 605 684T671 686Q681 686 686 681T691 668Z" />
<glyph unicode="K" glyph-name="K" horiz-adv-x="895" d="M827 29Q827 16 822 9T812 1T800 0Q781 0 741 1T680 3Q656 3 608 2T536 0Q514 0 514 18Q514 32 519 38T531 46T549 47Q582 47 602 54L477 337L368 254L317 49Q320 49 340 48T366 47H388Q419 47 419 29Q419
16 413 9T403 1T391 0Q366 0 315 1T237 3Q212 3 161 2T86 0Q64 0 64 18Q64 32 70 38T82 46T99 47H121L180 51L327 637Q303 639 278 639H256Q224 639 224 657Q224 670 230 677T240 685T253 686Q278 686 329 685T407 683Q432 683 482 684T557 686Q579 686 579 668Q579
654 574 648T562 640T545 639L483 638Q469 637 466 634T459 620L387 331L784 631Q775 634 763 636T743 638L735 639Q709 639 709 657Q709 670 715 677T725 685T738 686Q759 686 802 685T868 683Q882 683 911 684T954 686Q962 686 967 681T972 668Q972 639 946 639Q876
637 828 601L586 419L742 66Q746 57 749 54T763 49T797 47Q827 47 827 29Z" />
<glyph unicode="L" glyph-name="L" horiz-adv-x="698" d="M687 256Q687 251 682 239L602 21Q596 6 591 3T568 0H96Q64 0 64 18Q64 32 70 38T82 46T99 47H121Q137 47 161 49Q174 50 177 52T184 65L327 637Q303 639 278 639H256Q224 639 224 657Q224 670 230 677T240
685T253 686Q279 686 332 685T411 683Q440 683 497 684T583 686Q606 686 606 668Q606 654 601 648T590 640T572 639H536Q510 639 490 637Q471 636 467 634T459 620L317 48Q324 47 340 47H398Q442 47 479 63T538 98T581 152T610 206T631 258Q633 266 637 269T646
273T659 274Q687 274 687 256Z" />
<glyph unicode="M" glyph-name="M" horiz-adv-x="1073" d="M1180 668Q1180 654 1175 648T1163 640T1146 639L1084 638Q1070 637 1067 634T1060 620L918 49Q920 49 941 48T967 47H989Q1020 47 1020 29Q1020 16 1014 9T1004 1T992 0Q968 0 919 1T846 3T775 2T704
0Q682 0 682 18Q682 32 688 38T700 46T717 47H739Q755 47 779 49Q792 50 795 52T802 65L940 621L939 622L546 25Q539 15 536 11T525 4T505 0Q489 0 483 6T475 29L383 607H382L245 57Q269 47 314 47Q345 47 345 29Q345 0 318 0Q299 0 259 1T199 3Q180 3 141 2T84
0Q73 0 69 6T64 18Q64 31 70 38T81 46T98 47Q128 47 155 52Q174 56 179 60T187 77L327 637Q303 639 278 639H256Q224 639 224 657Q224 671 230 677T242 685T259 686H452Q473 686 479 682T489 658L572 139L918 663Q928 679 936 682T964 686H1148Q1180 686 1180 668Z"
/>
<glyph unicode="N" glyph-name="N" horiz-adv-x="896" d="M1003 668Q1003 655 998 648T987 640T972 639Q938 639 915 634Q894 630 889 626T881 610L735 24Q731 7 726 4T701 0Q685 0 681 2T670 16L376 584L245 57Q269 47 314 47Q345 47 345 29Q345 0 318 0Q299
0 259 1T199 3Q180 3 141 2T84 0Q73 0 69 6T64 18Q64 31 70 38T81 46T98 47Q128 47 155 52Q174 56 179 60T187 77L323 623L326 634Q326 639 283 639H256Q224 639 224 657Q224 671 230 677T242 685T259 686H444Q461 686 465 684T477 669L717 206L823 629Q798 639
753 639Q722 639 722 657Q722 686 750 686Q769 686 808 685T868 683Q887 683 926 684T983 686Q1003 686 1003 668Z" />
<glyph unicode="O" glyph-name="O" horiz-adv-x="855" d="M865 453Q865 372 835 290T751 139T612 27T424 -17Q306 -17 233 45T160 229Q160 290 178 355T233 483T322 594T447 673T603 703Q716 703 790 642T865 453ZM733 501Q733 521 731 540T719 582T696 622T655
651T593 663Q543 663 488 633T388 530Q350 467 324 361T297 193Q297 115 330 72Q368 25 434 25Q545 25 629 148Q672 211 702 325T733 501Z" />
<glyph unicode="P" glyph-name="P" horiz-adv-x="787" d="M825 535Q825 440 741 371T535 302H380L317 49Q320 49 340 48T366 47H388Q419 47 419 29Q419 16 413 9T403 1T391 0Q366 0 315 1T237 3Q212 3 161 2T86 0Q64 0 64 18Q64 32 70 38T82 46T99 47H121Q137
47 161 49Q174 50 177 52T184 65L327 637Q303 639 278 639H256Q224 639 224 657Q224 671 230 677T242 685T259 686H622Q658 686 691 679T755 656T806 609T825 535ZM689 566Q689 584 684 597T666 617T642 629T608 636T573 638T532 639H486Q466 639 462 637T454 623L384
343H499Q605 343 639 397Q661 428 675 485T689 566Z" />
<glyph unicode="Q" glyph-name="Q" horiz-adv-x="855" d="M771 0Q771 -9 761 -37T732 -102T678 -166T600 -194Q510 -194 510 -77Q510 -63 514 -7Q474 -17 424 -17Q306 -17 233 45T160 229Q160 290 178 355T233 483T322 594T447 673T603 703Q716 703 790 642T865
453Q865 413 857 368T827 268T774 167T691 78T575 11Q584 -17 596 -31T617 -48T639 -50Q646 -50 654 -49T680 -44T713 -27T735 3Q740 18 753 18Q760 18 765 13T771 0ZM736 493Q736 572 701 616Q661 663 593 663Q543 663 487 632T387 532Q343 462 316 354T289 190Q289
87 352 46Q352 103 389 129T462 155Q502 155 523 132T560 66Q612 102 650 169T704 307T728 424T736 493ZM516 41Q516 83 504 101T463 119T411 100T388 55Q388 23 434 23T516 41Z" />
<glyph unicode="R" glyph-name="R" horiz-adv-x="859" d="M850 99Q850 92 843 75T822 37T779 -1T716 -17Q694 -17 673 -15T618 -3T562 32T540 95Q540 112 555 172Q570 226 570 247Q570 325 486 325H380L311 49Q314 49 334 48T360 47H382Q413 47 413 29Q413 16
407 9T397 1T385 0Q361 0 310 1T234 3T160 2T86 0Q64 0 64 18Q64 32 70 38T82 46T99 47H121Q137 47 161 49Q174 50 177 52T184 65L327 637Q303 639 278 639H256Q224 639 224 657Q224 671 230 677T242 685T259 686H589Q648 686 698 674T786 626T825 535Q825 468
769 415T623 339Q704 304 704 231Q704 221 697 181Q684 99 684 75Q684 58 685 48T696 29T722 19Q744 19 762 39T793 97Q797 111 802 114T822 117Q850 117 850 99ZM687 561Q687 580 681 594T662 616T636 629T601 636T565 638T525 639H480Q464 639 461 637T454 623L389
361H488Q580 361 631 403Q658 426 672 480T687 561Z" />
<glyph unicode="S" glyph-name="S" horiz-adv-x="650" d="M616 251Q616 208 599 163T551 76T467 9T351 -17Q237 -17 182 38Q165 24 156 16T145 7T143 4T140 1T128 -8Q118 -17 108 -17Q90 -17 90 -3Q91 4 92 9L142 209Q146 223 150 225T172 228Q199 228 199 214Q199
208 198 205Q192 182 192 159Q192 110 220 80T282 40T355 30Q430 30 470 84T510 189Q510 214 503 230T481 256T455 270T424 279Q402 285 360 295Q329 303 313 308T276 326T240 359Q209 402 209 456Q209 493 225 534T271 614T353 678T468 703Q555 703 607 654L612
650L664 694Q675 703 684 703Q703 703 703 688Q703 687 699 670L651 478Q647 463 643 461T621 458Q611 458 606 458T597 462T593 473Q593 474 594 481T596 500T597 521Q597 592 562 626T466 660Q428 660 397 645T350 606T325 561T316 519Q316 455 385 439L453 422Q493
412 509 407T544 391T579 362Q616 317 616 251Z" />
<glyph unicode="T" glyph-name="T" horiz-adv-x="796" d="M842 460Q839 442 834 438T812 434Q784 434 784 453Q784 457 786 467Q794 507 794 547Q794 595 770 611T674 628H639Q627 627 625 625T619 612L479 50Q509 47 550 47H594Q626 47 626 29Q626 16 621 9T610
1T595 0L398 3L205 0Q181 0 181 18Q181 32 187 38T199 46T216 47H261Q323 47 343 52L486 627Q470 628 444 628Q395 628 365 621T311 592T274 541T240 455Q235 440 230 437T210 434Q182 434 182 452Q182 458 201 512L251 656Q256 670 261 672T284 675H840Q851 675
856 675T866 670T872 656Q872 652 870 641L842 460Z" />
<glyph unicode="U" glyph-name="U" horiz-adv-x="881" d="M988 668Q988 655 983 648T972 640T957 639Q923 639 900 634Q879 630 874 626T866 610L769 220Q759 179 736 140T675 64T582 6T458 -17Q347 -17 283 33T218 173Q218 206 225 231L327 637Q303 639 278 639H256Q224
639 224 657Q224 670 230 677T240 685T253 686Q278 686 329 685T407 683Q432 683 482 684T557 686Q579 686 579 668Q579 654 574 648T562 640T545 639L483 638Q469 637 466 634T459 620L358 215Q346 164 346 133Q346 80 378 54Q409 30 463 30Q550 30 617 81T710
233L809 629Q784 639 739 639Q708 639 708 657Q708 686 735 686Q754 686 794 685T854 683Q873 683 911 684T968 686Q988 686 988 668Z" />
<glyph unicode="V" glyph-name="V" horiz-adv-x="866" d="M979 668Q979 655 974 648T963 640T948 639Q884 639 866 613Q863 610 857 601L476 6Q466 -10 457 -13T429 -17Q406 -17 401 -12T392 14L308 621Q307 632 305 634T292 638Q282 639 261 639H250Q218 639
218 657Q218 686 246 686Q267 686 312 685T379 683Q404 683 453 684T526 686Q548 686 548 668Q548 654 542 648T530 640T511 639Q470 639 446 634L511 163L808 629Q781 639 750 639Q724 639 724 657Q724 686 751 686Q769 686 808 685T866 683Q882 683 913 684T960
686Q969 686 974 681T979 668Z" />
<glyph unicode="W" glyph-name="W" horiz-adv-x="1160" d="M1274 668Q1274 649 1266 644T1242 639Q1203 638 1187 629T1160 602L810 9Q800 -8 791 -12T765 -17Q746 -17 740 -13T732 12L692 449L431 7Q422 -9 413 -13T387 -17Q366 -17 362 -12T355 14L298 637Q279
639 256 639H249Q217 639 217 657Q217 686 245 686Q265 686 308 685T373 683Q397 683 446 684T518 686Q540 686 540 668Q540 648 531 644T501 639Q460 639 436 634L477 185L684 536L675 637Q649 639 634 639H627Q595 639 595 657Q595 670 601 677T611 685T623 686Q643
686 686 685T750 683Q774 683 823 684T896 686Q905 686 910 682T916 672L917 668Q917 648 908 644T878 639Q845 639 813 634L854 185L1116 627V628Q1085 639 1044 639Q1019 639 1019 657Q1019 686 1047 686Q1066 686 1106 685T1167 683Q1182 683 1211 684T1255
686Q1264 686 1269 680T1274 668Z" />
<glyph unicode="X" glyph-name="X" horiz-adv-x="866" d="M812 29Q812 16 807 9T797 1T784 0Q762 0 717 1T649 3Q624 3 574 2T500 0Q478 0 478 18Q478 47 505 47T568 54L476 281L271 58Q300 47 334 47Q356 47 356 29Q356 16 351 9T341 1T328 0Q306 0 262 1T197
3Q178 3 141 2T86 0Q66 0 66 18Q66 32 72 38T84 46T102 47Q187 48 222 85L454 337L338 623Q334 632 331 634T317 638Q308 639 284 639H272Q240 639 240 657Q240 686 268 686Q290 686 335 685T403 683Q428 683 478 684T552 686Q574 686 574 668Q574 655 569 648T559
640T547 639Q518 639 484 632L558 449L723 628Q695 639 663 639Q637 639 637 657Q637 670 643 677T653 685T665 686Q686 686 730 685T796 683Q815 683 852 684T907 686Q927 686 927 668Q927 654 922 648T911 640T893 639Q806 639 771 601L580 394L714 63Q718 54
721 52T735 48Q744 47 768 47H780Q812 47 812 29Z" />
<glyph unicode="Y" glyph-name="Y" horiz-adv-x="866" d="M985 668Q985 639 955 639Q921 639 899 633T868 620T848 599L567 274L511 49Q535 47 560 47H582Q614 47 614 29Q614 16 608 9T598 1T585 0Q561 0 510 1T434 3T360 2T286 0Q264 0 264 18Q264 32 270 38T282
46T299 47H321Q350 47 361 48Q375 50 378 52T385 66L437 274L309 623Q305 632 302 634T289 638Q280 639 256 639H244Q212 639 212 657Q212 686 240 686Q262 686 308 685T378 683Q403 683 454 684T529 686Q551 686 551 668Q551 655 546 648T535 640T520 639Q491
639 459 635L562 351L803 631Q782 639 753 639Q727 639 727 657Q727 686 755 686Q773 686 812 685T870 683Q886 683 918 684T966 686Q975 686 980 681T985 668Z" />
<glyph unicode="Z" glyph-name="Z" horiz-adv-x="709" d="M688 251L615 21Q610 6 604 3T581 0H122Q106 0 100 2T94 14Q94 32 110 50L624 639H513Q420 639 365 599T280 470Q274 452 270 449T249 445Q221 445 221 463Q225 479 226 481L281 666Q285 680 291 683T315
686H759Q786 686 786 672Q786 654 773 639L259 51H377Q429 51 469 63T534 93T579 142T609 197T632 259Q638 277 642 280T663 284Q691 284 691 266Q691 260 688 251Z" />
<glyph unicode="[" glyph-name="bracketleft" horiz-adv-x="356" d="M242 -241Q237 -250 212 -250H121Q89 -250 89 -232Q89 -231 92 -216L328 727Q331 739 335 743T344 749T362 750H453Q485 750 485 732Q485 728 482 715T476 699Q471 689 447 689H381L161 -189H218Q250
-189 250 -207Q250 -221 242 -241Z" />
<glyph unicode="\" glyph-name="backslash" horiz-adv-x="575" d="M455 -219Q451 -233 440 -241T418 -250Q396 -250 392 -220L245 699Q243 715 244 719Q248 733 259 741T282 750Q292 750 297 745T304 736T307 720L454 -199Q456 -215 455 -219Z" />
<glyph unicode="]" glyph-name="bracketright" horiz-adv-x="356" d="M389 716L153 -227Q150 -239 146 -243T137 -249T119 -250H28Q-4 -250 -4 -232Q-4 -228 -1 -215T5 -199Q10 -189 34 -189H100L320 689H263Q231 689 231 707Q231 721 239 741Q244 750 269 750H360Q392
750 392 732Q392 731 389 716Z" />
<glyph unicode="^" glyph-name="asciicircum" horiz-adv-x="556" d="M707 584L690 562L448 685L147 562L141 584L464 744L707 584Z" />
<glyph unicode="_" glyph-name="underscore" horiz-adv-x="866" d="M865 -114T862 -125T849 -144T827 -153H-38Q-50 -153 -56 -145T-59 -125T-46 -106T-24 -97H841Q853 -97 859 -105Z" />
<glyph unicode="`" glyph-name="grave" horiz-adv-x="591" d="M499 535Q496 528 481 515T454 502Q449 502 441 508L333 597Q305 620 321 651Q331 672 352 685T392 699Q407 699 414 692T431 668L496 554Q503 545 499 535Z" />
<glyph unicode="a" glyph-name="a" horiz-adv-x="591" d="M625 148Q625 145 621 130T608 90T586 46Q551 -8 501 -8Q469 -8 440 5T398 43Q334 -8 266 -8Q200 -8 153 31T106 152Q106 221 137 289T231 404T374 452Q434 452 471 414Q492 435 518 435Q538 435 550 423T563
393Q563 387 559 372L492 102Q486 78 486 59Q486 28 505 28Q539 28 565 136Q570 155 574 158T597 162Q625 162 625 148ZM386 100Q388 113 389 118L448 354Q431 416 374 416Q346 416 314 392T259 304Q248 275 231 205T213 99Q213 61 230 45T270 28Q332 28 386 100Z"
/>
<glyph unicode="b" glyph-name="b" horiz-adv-x="532" d="M537 292Q537 223 507 156T413 40T268 -8Q204 -8 158 29T112 150Q112 186 121 222L224 637Q200 639 182 639Q155 639 155 657Q155 667 157 673T166 682T176 685T186 687L309 693Q341 695 341 676Q341 675
338 660L279 424Q324 452 377 452Q443 452 490 413T537 292ZM384 140Q395 169 412 239T430 345Q430 383 413 399T373 416Q315 416 269 359Q260 349 252 320Q249 306 242 277T230 228Q208 144 208 107Q208 28 270 28Q285 28 301 33T342 66T384 140Z" />
<glyph unicode="c" glyph-name="c" horiz-adv-x="532" d="M536 86Q536 75 508 52T443 14Q384 -8 301 -8Q199 -8 153 40T107 160Q107 210 127 260T183 354T277 425T403 452Q463 452 496 426T530 360Q530 327 510 305T458 282Q430 282 419 297T408 328Q408 334 409
343T424 369T459 395Q439 416 402 416Q371 416 334 397T271 329Q252 292 234 220T216 116Q216 73 238 51T302 28Q418 28 492 111Q499 118 506 118T524 105T536 86Z" />
<glyph unicode="d" glyph-name="d" horiz-adv-x="591" d="M625 148Q625 145 621 130T608 90T586 46Q551 -8 501 -8Q469 -8 440 5T398 43Q334 -8 266 -8Q200 -8 153 31T106 152Q106 221 137 289T231 404T374 452Q428 452 465 420L518 637Q494 639 476 639Q449 639
449 657Q449 667 451 673T460 682T470 685T480 687L603 693Q635 695 635 676Q635 675 632 660L492 102Q486 78 486 59Q486 28 505 28Q539 28 565 136Q570 155 574 158T597 162Q625 162 625 148ZM386 100Q388 113 389 118L448 354Q431 416 374 416Q346 416 314 392T259
304Q248 275 231 205T213 99Q213 61 230 45T270 28Q332 28 386 100Z" />
<glyph unicode="e" glyph-name="e" horiz-adv-x="532" d="M536 86Q536 75 508 52T443 14Q384 -8 302 -8Q209 -8 160 38T110 167Q110 285 192 368T402 452Q459 452 495 426T532 356Q532 218 274 218H234Q218 158 218 120Q218 28 303 28Q418 28 492 111Q499 118
506 118T524 105T536 86ZM467 357Q467 382 450 399T402 416Q337 416 296 366Q276 344 266 321T243 254Q467 254 467 357Z" />
<glyph unicode="f" glyph-name="f" horiz-adv-x="400" d="M538 623Q538 591 517 570T467 548Q445 548 431 561T417 594Q417 636 457 658Q441 666 425 666Q401 666 391 641Q383 624 352 444H456Q488 444 488 426Q488 412 482 406T470 398T453 397H343L283 73Q274
23 257 -33Q244 -75 225 -107T189 -156T151 -185T117 -199T90 -202Q44 -202 13 -181T-19 -123Q-19 -91 2 -70T52 -48Q74 -48 88 -61T102 -94Q102 -137 61 -158Q67 -162 74 -164T86 -166H91Q127 -166 141 -98Q154 -49 166 16L236 397H150Q118 397 118 415Q118 429
124 435T136 443T153 444H245L263 542Q291 702 425 702Q475 702 506 680T538 623Z" />
<glyph unicode="g" glyph-name="g" horiz-adv-x="532" d="M451 -64Q435 -128 370 -165T212 -202Q180 -202 156 -200T109 -191T72 -169T59 -132Q59 -100 80 -79T130 -58Q153 -58 166 -71T180 -104Q180 -137 152 -160Q176 -166 214 -166Q260 -166 296 -138T349 -44L366
27Q318 0 269 0Q198 0 153 41T107 158Q107 225 137 291T230 404T374 452Q431 452 471 415Q491 435 518 435Q538 435 550 423T563 393Q563 385 559 369L451 -64ZM389 117L448 356Q432 416 374 416Q347 416 317 395T264 318Q251 284 233 214T215 107Q215 36 273 36Q308
36 345 63T389 117Z" />
<glyph unicode="h" glyph-name="h" horiz-adv-x="591" d="M625 148Q625 138 615 115T588 63T540 13T472 -8Q429 -8 398 16T367 81Q367 98 379 131Q443 291 443 359Q443 416 400 416Q341 416 298 372T246 294L184 45Q179 23 165 10T141 -5T122 -8Q102 -8 89 4T76
35Q76 42 80 57L224 637Q200 639 182 639Q155 639 155 657Q155 667 157 673T166 682T176 685T186 687L309 693Q341 695 341 676Q341 675 338 660L273 401Q336 452 407 452Q545 452 545 339Q545 283 486 127Q463 67 463 46Q463 28 477 28Q532 28 569 149Q572 158
577 160T597 162Q625 162 625 148Z" />
<glyph unicode="i" glyph-name="i" horiz-adv-x="356" d="M390 148Q390 138 380 115T353 63T305 13T237 -8Q194 -8 163 16T132 81Q132 96 141 120L231 358Q239 374 239 398Q239 416 225 416Q170 416 133 295Q130 286 125 284T105 282Q77 282 77 296Q77 306 87
329T114 381T162 431T230 452Q273 452 304 428T335 363Q335 348 326 324L236 86Q228 70 228 46Q228 28 242 28Q297 28 334 149Q337 158 341 160T362 162Q390 162 390 148ZM404 614Q404 581 377 554T315 527Q287 527 270 544T253 587Q253 620 280 647T342 674Q371
674 387 656T404 614Z" />
<glyph unicode="j" glyph-name="j" horiz-adv-x="356" d="M277 -52Q261 -116 201 -159T73 -202Q28 -202 0 -183T-29 -130Q-29 -101 -8 -80T42 -58Q65 -58 78 -71T92 -104Q92 -120 83 -137T58 -164Q67 -166 73 -166Q94 -166 112 -153T142 -117T160 -79T171 -47L268
342Q274 366 274 385Q274 405 268 410T253 416Q227 416 196 391T136 299Q130 287 126 285T105 282Q77 282 77 296Q77 302 84 318T108 358T144 402T195 437T258 452Q306 452 340 426T375 355Q375 342 371 326L277 -52ZM404 614Q404 581 377 554T315 527Q287 527
270 544T253 587Q253 620 280 647T342 674Q371 674 387 656T404 614Z" />
<glyph unicode="k" glyph-name="k" horiz-adv-x="532" d="M566 148Q566 142 559 120T537 68T494 15T430 -8Q380 -8 346 21T312 94Q312 106 315 119Q318 130 318 140Q318 199 226 214L181 33Q173 13 156 3T122 -8Q102 -8 89 4T76 35Q76 42 80 57L224 637Q200 639
182 639Q155 639 155 657Q155 667 157 673T166 682T176 685T186 687L309 693Q341 695 341 676Q341 675 338 660L241 274Q274 295 322 345Q374 400 412 426T491 452Q529 452 545 427T562 373Q562 328 539 307T489 286Q466 286 453 299T439 332Q439 358 457 379T506
404Q503 416 488 416Q429 416 339 315L328 304Q318 294 301 278T267 251Q425 233 425 144Q425 134 421 114L413 62Q413 28 435 28Q479 28 506 135Q511 155 515 158T538 162Q566 162 566 148Z" />
<glyph unicode="l" glyph-name="l" horiz-adv-x="297" d="M331 148Q331 145 327 130T314 90T292 46Q257 -8 207 -8Q161 -8 126 18T91 89Q91 102 95 118L224 637Q200 639 182 639Q155 639 155 657Q155 667 157 673T166 682T176 685T186 687L309 693Q341 695 341
676Q341 675 338 660L198 102Q192 78 192 59Q192 28 211 28Q245 28 271 136Q276 155 280 158T303 162Q331 162 331 148Z" />
<glyph unicode="m" glyph-name="m" horiz-adv-x="944" d="M978 148Q978 138 968 115T941 63T893 13T825 -8Q782 -8 751 16T720 81Q720 98 732 131Q796 291 796 359Q796 416 753 416Q694 416 651 372T599 294L538 48Q532 25 518 12T494 -5T474 -8Q456 -8 443 3T429
35Q429 42 445 106L487 274Q502 333 502 359Q502 416 459 416Q418 416 382 391T327 339T305 294L243 46Q238 28 229 16T209 0T192 -6T180 -8Q162 -8 149 3T135 35Q135 42 139 57L210 342Q216 366 216 385Q216 416 197 416Q163 416 137 308Q132 289 128 286T105
282Q77 282 77 296Q77 299 81 314T94 354T116 398Q151 452 201 452Q221 452 240 447T282 426T313 383Q379 452 466 452Q578 452 600 376Q622 398 639 412T690 439T760 452Q898 452 898 339Q898 283 839 127Q816 67 816 46Q816 28 830 28Q885 28 922 149Q925 158
929 160T950 162Q978 162 978 148Z" />
<glyph unicode="n" glyph-name="n" horiz-adv-x="650" d="M684 148Q684 138 674 115T647 63T599 13T531 -8Q488 -8 457 16T426 81Q426 98 438 131Q502 291 502 359Q502 416 459 416Q418 416 382 391T327 339T305 294L243 46Q238 28 229 16T209 0T192 -6T180 -8Q162
-8 149 3T135 35Q135 42 139 57L210 342Q216 366 216 385Q216 416 197 416Q163 416 137 308Q132 289 128 286T105 282Q77 282 77 296Q77 299 81 314T94 354T116 398Q151 452 201 452Q221 452 240 447T282 426T313 383Q379 452 466 452Q604 452 604 339Q604 283
545 127Q522 67 522 46Q522 28 536 28Q591 28 628 149Q631 158 635 160T656 162Q684 162 684 148Z" />
<glyph unicode="o" glyph-name="o" horiz-adv-x="591" d="M595 284Q595 235 576 185T521 91T427 20T297 -8Q208 -8 158 37T107 160Q107 208 126 258T181 352T275 424T405 452Q494 452 544 407T595 284ZM435 124Q453 162 469 229T486 328Q486 376 461 396T403 416Q363
416 326 391T267 320Q249 282 233 215T216 116Q216 68 241 48T299 28Q339 28 376 53T435 124Z" />
<glyph unicode="p" glyph-name="p" horiz-adv-x="591" d="M596 292Q596 223 565 155T471 40T328 -8Q274 -8 237 24L195 -146Q208 -147 238 -147Q265 -147 265 -165Q265 -194 238 -194Q221 -194 186 -193T133 -191Q118 -191 88 -192T44 -194Q25 -194 25 -176Q25
-163 30 -156T41 -148T57 -147Q79 -147 84 -145T92 -131L210 342Q216 366 216 385Q216 416 197 416Q163 416 137 308Q132 289 128 286T105 282Q77 282 77 296Q77 299 81 314T94 354T116 398Q151 452 201 452Q233 452 262 439T304 401Q368 452 436 452Q502 452 549
413T596 292ZM443 140Q454 169 471 239T489 345Q489 383 472 399T432 416Q370 416 316 344Q314 331 313 326L254 90Q271 28 328 28Q356 28 388 52T443 140Z" />
<glyph unicode="q" glyph-name="q" horiz-adv-x="532" d="M500 -165Q500 -194 473 -194Q456 -194 420 -193T365 -191Q348 -191 313 -192T261 -194Q241 -194 241 -176Q241 -162 247 -156T259 -148T277 -147Q298 -147 311 -146Q320 -145 322 -143T327 -130L364 20Q319
-8 266 -8Q200 -8 153 31T106 152Q106 221 137 289T231 404T374 452Q434 452 471 414Q484 425 505 434T541 448L556 452Q574 452 574 434Q574 428 572 420L430 -146Q443 -147 473 -147Q500 -147 500 -165ZM387 110L448 354Q431 416 374 416Q346 416 314 392T259
304Q248 275 231 205T213 99Q213 61 230 45T270 28Q306 28 343 55T387 110Z" />
<glyph unicode="r" glyph-name="r" horiz-adv-x="502" d="M562 363Q562 330 541 308T490 286Q467 286 454 299T440 332Q440 338 441 347T454 373T487 399Q466 416 432 416Q386 416 352 381T311 318L243 46Q238 28 229 16T209 0T192 -6T180 -8Q162 -8 149 3T135
35Q135 42 139 57L210 342Q216 366 216 385Q216 416 197 416Q163 416 137 308Q132 289 128 286T105 282Q77 282 77 296Q77 299 81 314T94 354T116 398Q151 452 201 452Q237 452 265 437T307 398Q361 452 435 452Q490 452 526 427T562 363Z" />
<glyph unicode="s" glyph-name="s" horiz-adv-x="487" d="M465 164Q465 134 447 95T393 31Q338 -8 247 -8Q173 -8 129 18T85 91Q85 126 106 147T157 169Q175 169 190 159T206 123Q206 76 157 55Q190 28 250 28Q289 28 317 38T359 62T379 90T388 114L389 124Q389
140 381 151T355 170T324 181T284 190Q167 213 167 298Q167 323 182 356T220 410Q270 452 351 452Q411 452 448 429T486 364Q486 331 466 313T424 295Q405 295 393 306T380 336Q380 375 418 392Q395 416 349 416Q319 416 298 408T266 389T250 366T244 346L243 338Q243
321 256 310T281 295T314 287Q359 278 380 272T421 249Q465 215 465 164Z" />
<glyph unicode="t" glyph-name="t" horiz-adv-x="385" d="M419 148Q419 142 412 126T388 86T352 42T301 7T238 -8Q190 -8 156 18T121 89Q121 102 125 118L195 397H123Q91 397 91 415Q91 429 96 435T108 443T126 444H207L243 590Q248 611 262 624T286 640T306 643Q326
643 338 631T351 601Q351 590 333 523L314 444H385Q416 444 416 426Q416 412 411 406T399 398T382 397H302L228 102Q222 78 222 59Q222 39 228 34T243 28Q269 28 300 53T360 145Q366 157 370 159T391 162Q419 162 419 148Z" />
<glyph unicode="u" glyph-name="u" horiz-adv-x="621" d="M655 148Q655 145 651 130T638 90T616 46Q581 -8 531 -8Q499 -8 470 5T428 43Q374 -8 309 -8Q242 -8 202 22T161 118Q161 144 171 183T189 246T221 332Q239 374 239 398Q239 416 225 416Q170 416 133 295Q130
286 125 284T105 282Q77 282 77 296Q77 306 87 329T114 381T162 431T230 452Q273 452 304 428T335 363Q335 348 321 309Q263 157 263 97Q263 28 315 28Q353 28 384 57Q404 77 409 85T417 107L486 388Q491 411 505 424T529 441T550 444Q568 444 581 433T595 401Q595
394 591 379L522 102Q516 78 516 59Q516 28 535 28Q569 28 595 136Q600 155 604 158T627 162Q655 162 655 148Z" />
<glyph unicode="v" glyph-name="v" horiz-adv-x="532" d="M555 365Q555 346 548 307T524 212T481 108T413 26T321 -8Q293 -8 269 -3T219 14T178 54T162 122Q162 157 175 200T221 332Q239 374 239 398Q239 416 225 416Q170 416 133 295Q130 286 125 284T105 282Q77
282 77 296Q77 306 87 329T114 381T162 431T230 452Q273 452 304 428T335 363Q335 345 321 310Q264 160 264 103Q264 28 328 28Q359 28 386 53T431 113T460 185T477 246T482 274Q482 312 443 339Q419 358 419 381Q419 408 442 430T491 453Q500 453 509 450T530
437T548 410T555 365Z" />
<glyph unicode="w" glyph-name="w" horiz-adv-x="768" d="M791 365Q791 328 772 251T729 122Q672 -8 572 -8Q476 -8 436 43Q396 -8 330 -8Q300 -8 274 -3T221 16T178 57T162 124Q162 159 175 203T221 332Q239 374 239 398Q239 416 225 416Q170 416 133 295Q130
286 125 284T105 282Q77 282 77 296Q77 306 87 329T114 381T162 431T230 452Q273 452 304 428T335 363Q335 345 323 316Q301 256 293 233T275 171T265 106Q265 28 336 28Q383 28 414 98Q412 107 412 122Q412 148 436 244L470 380Q483 444 535 444Q553 444 566 433T580
401Q580 389 565 334Q514 138 514 103Q514 28 578 28Q635 28 671 111Q687 147 702 204T718 274Q718 312 679 339Q655 358 655 381Q655 408 678 430T727 453Q736 453 745 450T766 437T784 410T791 365Z" />
<glyph unicode="x" glyph-name="x" horiz-adv-x="561" d="M595 162T595 148T582 110T547 58T486 12T404 -8Q315 -8 279 45Q234 -8 177 -8Q131 -8 100 16T68 80Q68 114 89 136T140 158Q163 158 176 145T190 112Q190 63 139 44Q154 28 179 28Q234 28 259 128L291
258Q313 346 313 367Q313 416 262 416Q227 416 190 386T134 296Q130 286 126 284T105 282Q77 282 77 296T90 334T125 386T185 432T267 452Q355 452 393 399Q438 452 495 452Q540 452 572 428T604 364Q604 330 583 308T532 286Q509 286 496 299T482 332Q482 381
533 400Q517 416 492 416Q465 416 444 388T415 327L361 105Q358 93 358 77Q358 28 409 28Q445 28 482 59T538 148Q542 158 546 160T567 162Q595 162 595 148Z" />
<glyph unicode="y" glyph-name="y" horiz-adv-x="562" d="M495 -7Q476 -83 401 -142T234 -202Q178 -202 143 -178T107 -115Q107 -83 128 -61T179 -39Q197 -39 212 -49T228 -85Q228 -130 183 -151Q204 -166 235 -166Q290 -166 334 -112T393 16Q357 -8 309 -8Q242
-8 202 22T161 118Q161 144 171 183T189 246T221 332Q239 374 239 398Q239 416 225 416Q170 416 133 295Q130 286 125 284T105 282Q77 282 77 296Q77 306 87 329T114 381T162 431T230 452Q273 452 304 428T335 363Q335 348 321 309Q263 157 263 97Q263 28 315 28Q351
28 378 52Q408 77 415 104L487 390Q493 414 508 427T533 442T550 444Q568 444 581 433T595 401Q595 394 591 379L495 -7Z" />
<glyph unicode="z" glyph-name="z" horiz-adv-x="491" d="M526 151Q526 137 513 112T478 59T420 12T345 -8Q308 -8 260 30Q220 60 197 60Q158 60 119 2Q114 -5 111 -6T92 -8Q82 -8 77 -8T68 -4T64 6Q64 19 98 60T174 143Q207 175 291 242Q366 304 408 348H387Q380
348 353 347T318 346H247Q209 344 201 330Q197 321 193 320T173 318Q145 318 145 332Q145 362 187 407T287 452Q323 452 366 419Q409 384 433 384Q446 384 484 441Q489 449 493 450T512 452Q522 452 527 452T536 448T540 438Q540 426 507 385T430 301Q397 269 313
202Q238 140 196 96H244L312 98Q388 99 421 108T470 155Q475 166 498 166Q526 166 526 151Z" />
<glyph unicode="{" glyph-name="braceleft" horiz-adv-x="575" d="M438 -232Q435 -244 429 -247T403 -250Q377 -250 353 -248T296 -238T240 -215T207 -174T204 -111L257 99Q267 140 267 146Q267 178 241 203T153 232Q136 233 141 250Q143 258 147 262T154 266T167
268Q230 271 275 305Q304 325 313 345T336 417L388 623Q403 681 475 715T653 750Q666 750 670 750T679 745T679 732Q677 724 673 720T666 716T653 714Q597 711 554 686Q532 673 519 657T502 631T495 606L442 396Q436 372 430 358T409 320T363 279T287 250Q343 234
364 202T377 134L317 -103Q311 -128 312 -138Q318 -207 426 -214Q442 -215 438 -232Z" />
<glyph unicode="|" glyph-name="bar" horiz-adv-x="319" d="M139 -206Q127 -250 97 -250Q65 -250 78 -206L306 706Q315 750 348 750Q357 750 362 747T369 739T371 727T370 717T367 706L139 -206Z" />
<glyph unicode="}" glyph-name="braceright" horiz-adv-x="575" d="M559 250Q557 242 553 238T545 234T532 232Q467 228 426 196Q396 174 387 155T364 83L312 -123Q297 -179 227 -214T47 -250Q34 -250 29 -250T21 -245T20 -232Q22 -224 26 -220T33 -216T47 -214Q103
-211 149 -184Q169 -171 182 -156T198 -131T206 -106L258 104Q264 129 270 143T292 180T338 221T414 250Q358 267 337 299T324 366L383 603Q389 628 389 638Q387 670 359 690T274 714Q257 715 261 732Q264 744 271 747T297 750Q335 750 368 745T437 727T490 684T496
611L443 401Q433 358 434 352Q436 312 466 291T546 268Q563 267 559 250Z" />
<glyph unicode="~" glyph-name="asciitilde" horiz-adv-x="556" d="M627 290L562 246Q540 230 497 211Q452 193 419 193Q376 193 328 227Q308 240 298 246T270 258T233 264Q164 264 62 193L52 210L117 254Q141 270 183 289Q228 307 261 307Q302 307 352 273Q372
260 382 254T410 242T447 236Q514 236 618 307L627 290Z" />
<glyph unicode="&#xa0;" glyph-name="uni00A0" horiz-adv-x="591" />
<glyph unicode="&#xa1;" glyph-name="exclamdown" horiz-adv-x="386" d="M375 440Q375 405 347 379T287 353Q259 353 242 370T225 413Q225 448 252 474T313 500Q340 500 357 484T375 440ZM233 -133Q229 -165 208 -184T172 -207T145 -211Q115 -211 99 -194T82 -155Q82
-148 89 -127L230 263Q235 276 239 278T260 281Q269 281 273 281T282 278T288 270T287 253L233 -133Z" />
<glyph unicode="&#xa2;" glyph-name="cent" horiz-adv-x="532" d="M536 86Q536 75 508 52T443 14Q390 -5 315 -8L305 -48Q302 -58 294 -65T275 -72T260 -65T257 -48L267 -6Q184 2 146 49T107 160Q107 263 182 353T382 451L392 492Q394 502 403 509T422 516T437
509T440 492L429 450Q477 444 503 419T530 360Q530 327 510 305T458 282Q430 282 419 297T408 328Q408 334 409 343T424 369T459 395Q445 409 420 415L324 29Q426 37 492 111Q499 118 506 118T524 105T536 86ZM372 412Q306 396 271 329Q252 292 234 220T216 116Q216
43 276 31L372 412Z" />
<glyph unicode="&#xa3;" glyph-name="sterling" horiz-adv-x="869" d="M741 139Q741 99 679 46T521 -8Q483 -8 451 1T338 43Q272 -8 182 -8Q101 -8 101 40Q101 76 142 107T251 139Q277 139 304 134L353 324H307Q278 324 278 338Q278 354 286 364Q290 371 311 371H364L403
527Q421 600 485 653T643 706Q712 706 748 664T785 564Q785 518 766 490T710 462Q687 462 674 475T660 508Q660 530 676 553T729 579Q726 620 704 645T643 670Q549 670 513 537L471 371H547Q558 371 562 371T571 367T575 356Q575 342 568 330Q564 324 542 324H460L419
163Q415 140 393 105Q494 59 552 59Q562 59 573 60T609 69T654 95T685 143Q689 153 713 153Q741 153 741 139ZM267 66Q243 72 220 72Q198 72 182 63T166 41T185 28Q231 28 267 66Z" />
<glyph unicode="&#xa5;" glyph-name="yen" horiz-adv-x="866" d="M985 668Q985 639 955 639Q921 639 899 633T868 620T848 599L639 357H781Q793 357 799 349T802 329Q799 317 789 309T767 301H590L567 274L548 199H742Q754 199 760 191T763 171Q760 160 750 152T728
143H534L511 49Q535 47 560 47H582Q614 47 614 29Q614 16 608 9T598 1T585 0Q561 0 510 1T434 3T360 2T286 0Q264 0 264 18Q264 32 270 38T282 46T299 47H321Q350 47 361 48Q375 50 378 52T385 66L404 143H209Q198 143 192 151T188 171Q191 183 201 191T223 199H418L437
274L427 301H248Q237 301 231 309T227 329Q230 340 240 348T262 357H407L309 623Q305 632 302 634T289 638Q280 639 256 639H244Q212 639 212 657Q212 686 240 686Q262 686 308 685T378 683Q403 683 454 684T529 686Q551 686 551 668Q551 655 546 648T535 640T520
639Q491 639 459 635L560 357H567L803 631Q782 639 753 639Q727 639 727 657Q727 686 755 686Q773 686 812 685T870 683Q886 683 918 684T966 686Q975 686 980 681T985 668Z" />
<glyph unicode="&#xa7;" glyph-name="section" horiz-adv-x="685" d="M686 200Q674 154 638 119T552 65Q572 22 559 -31Q539 -110 460 -162T289 -214Q206 -214 158 -164T129 -37Q135 -13 156 4T201 21T238 4T245 -37Q240 -56 226 -71T193 -92Q223 -136 309 -136Q362
-136 407 -107T465 -31Q474 5 448 26T373 62L259 99Q186 122 147 175T125 300Q137 346 173 381T259 434Q239 478 252 531Q272 610 351 662T522 714Q605 714 653 664T682 537Q676 513 655 496T610 479T573 496T566 537Q571 556 585 571T618 592Q588 636 502 636Q449
636 404 607T346 531Q337 495 363 474T438 438L552 401Q625 378 664 325T686 200ZM582 200Q599 267 497 299L382 336Q329 353 292 388Q270 376 253 352T229 300Q212 233 314 201L429 164Q485 145 519 112Q541 124 558 148T582 200Z" />
<glyph unicode="&#xa8;" glyph-name="dieresis" horiz-adv-x="591" d="M391 613Q391 583 367 559T312 535Q287 535 272 550T255 589Q255 618 280 642T336 667Q362 667 376 651T391 613ZM636 613Q636 583 612 559T557 535Q532 535 517 550T500 589Q500 618 525
642T581 667Q607 667 621 651T636 613Z" />
<glyph unicode="&#xa9;" glyph-name="copyright" horiz-adv-x="686" d="M686 343Q686 201 586 101T343 0T101 100T0 343T100 585T343 686Q486 686 586 586T686 343ZM626 226T626 343T543 543T343 626T143 543T60 343T143 143T343 60T543 143ZM490 391Q489 384
487 383T475 382Q461 382 461 389L462 395Q462 401 462 409Q462 444 445 467T394 490Q327 490 285 439Q258 406 245 355T232 277Q232 238 253 218Q277 196 318 196Q352 196 387 220T439 294Q440 298 452 298Q465 298 465 292Q465 288 461 277T445 247T415 214Q364
174 307 174Q248 174 208 204T168 297Q168 378 228 445T387 512Q436 512 465 480L506 512Q518 512 518 505Q518 503 516 496L490 391Z" />
<glyph unicode="&#xaa;" glyph-name="ordfeminine" horiz-adv-x="544" d="M616 490Q617 489 614 478T604 450T587 419Q560 381 518 381Q455 381 429 417Q376 381 320 381Q266 381 225 408T180 493Q177 570 236 636T395 703Q446 703 478 677Q494 691 517 691Q534
691 544 683T556 662Q556 658 553 647L506 458Q502 437 503 428Q504 406 520 406Q547 406 567 482Q571 495 574 497T592 500Q616 500 616 490ZM554 334Q550 318 526 318H177Q167 318 162 322T157 334Q160 351 185 351H534Q544 351 549 346T554 334ZM417 457Q418
460 418 463T419 469L461 635Q444 678 396 678Q372 678 347 661T304 600Q295 580 283 531T272 456Q273 429 288 418T322 406Q374 406 417 457Z" />
<glyph unicode="&#xab;" glyph-name="guillemotleft" horiz-adv-x="650" d="M326 16Q325 10 320 5T308 0H300Q291 0 289 9Q277 132 206 226Q199 237 211 246Q326 337 403 463Q408 472 418 472H426Q433 472 435 467T436 456Q384 336 311 236Q334 136 326 16ZM506
16Q505 10 500 5T488 0H480Q471 0 469 9Q457 132 386 226Q379 237 391 246Q506 337 583 463Q588 472 598 472H606Q613 472 615 467T616 456Q564 336 491 236Q514 136 506 16Z" />
<glyph unicode="&#xac;" glyph-name="logicalnot" horiz-adv-x="886" d="M888 363L831 138Q828 125 817 117T794 108Q781 108 775 116T771 138L820 333H203Q190 333 184 341T180 363T194 384T218 393H865Q878 393 884 385T888 363Z" />
<glyph unicode="&#xae;" glyph-name="registered" horiz-adv-x="686" d="M686 343Q686 201 586 101T343 0T101 100T0 343T100 585T343 686Q486 686 586 586T686 343ZM626 226T626 343T543 543T343 626T143 543T60 343T143 143T343 60T543 143ZM547 233Q547 227
542 216T521 191T484 178Q401 178 401 231Q401 238 408 267Q415 288 415 302Q415 339 376 339H326L294 209Q295 209 304 209T317 208H327Q342 208 342 200Q342 186 329 186Q318 186 294 187T258 188T223 187T188 186Q178 186 178 195Q178 208 194 208H205Q207 208
214 208T224 209Q232 210 234 217L301 485Q299 485 290 485T278 486H268Q253 486 253 494Q253 508 270 508H424Q469 508 502 492T535 437Q535 405 509 381T440 345Q478 329 478 295Q478 290 475 271Q469 233 469 221Q469 195 487 195Q509 195 520 232Q523 241 534
241Q547 241 547 233ZM470 436T470 449T464 470T445 481T423 485T394 486H373Q363 486 361 478L330 355H377Q419 355 444 375Q456 386 463 411Z" />
<glyph unicode="&#xaf;" glyph-name="overscore" horiz-adv-x="591" d="M638 608Q638 593 633 586T621 577T603 576H286Q254 576 254 594Q254 609 259 616T271 625T289 626H606Q638 626 638 608Z" />
<glyph unicode="&#xb0;" glyph-name="degree" horiz-adv-x="443" d="M504 539Q488 478 435 435T320 392T227 435T209 539T278 643T393 686T486 643T504 539ZM435 503T444 539T434 600T378 626T310 601T269 539T279 478T335 452Q371 452 403 477Z" />
<glyph unicode="&#xb1;" glyph-name="plusminus" horiz-adv-x="886" d="M804 30Q804 0 761 0H141Q98 0 98 31Q98 61 141 61H427L491 316H220Q177 316 177 347Q177 377 220 377H506L578 662Q585 693 610 693Q621 693 630 685T640 662Q640 656 636 642L569 377H840Q883
377 883 346Q883 316 840 316H554L490 61H761Q804 61 804 30Z" />
<glyph unicode="&#xb4;" glyph-name="acute" horiz-adv-x="591" d="M596 651Q596 619 557 597L404 508Q394 502 388 502Q378 502 369 515T360 535Q360 544 372 554L494 668Q527 699 549 699Q568 699 582 686T596 651Z" />
<glyph unicode="&#xb5;" glyph-name="mu" horiz-adv-x="591" d="M625 148Q625 144 621 128T606 86T585 43Q550 -11 500 -11Q486 -11 471 -8T431 8T395 46Q332 -11 263 -11Q240 -11 218 -8T184 0L173 4L137 -141Q131 -163 127 -176T107 -202T69 -216Q51 -216 38
-205T24 -173Q24 -165 28 -149L165 400Q172 429 191 442T229 455T261 443T274 413Q274 402 259 347L217 179Q205 131 205 101Q205 25 270 25Q302 25 331 45T372 82T386 105L450 361Q458 399 466 414Q484 444 520 444Q538 444 551 433T565 401Q565 398 557 363L520
213L496 118Q485 71 485 55Q485 25 504 25Q540 25 563 128Q571 156 572 157Q578 162 597 162Q625 162 625 148Z" />
<glyph unicode="&#xb6;" glyph-name="paragraph" horiz-adv-x="703" d="M836 663Q828 633 783 633H732L537 -150Q525 -194 495 -194Q463 -194 476 -150L671 633H591L396 -150Q384 -194 354 -194Q322 -194 335 -150L427 220Q291 228 222 292T178 457Q204 559 306
626T525 694H799Q811 694 818 693T833 685T836 663Z" />
<glyph unicode="&#xb7;" glyph-name="middot" horiz-adv-x="886" d="M604 358Q604 323 576 297T514 270Q490 270 472 285T454 329Q454 365 482 391T543 417Q570 417 587 401T604 358Z" />
<glyph unicode="&#xb8;" glyph-name="cedilla" horiz-adv-x="532" d="M395 -125Q390 -143 377 -156T339 -178T292 -190T233 -197T174 -199T112 -200Q101 -200 95 -192T91 -172Q94 -161 104 -153T126 -144Q270 -144 275 -125Q276 -119 269 -115T246 -110T217 -108T183
-107L211 5H323L309 -51Q351 -51 377 -71T395 -125Z" />
<glyph unicode="&#xba;" glyph-name="ordmasculine" horiz-adv-x="496" d="M587 586Q590 510 526 446T346 381Q272 381 228 413T181 499Q178 573 242 638T421 703Q496 703 540 672T587 586ZM506 334Q502 318 478 318H177Q167 318 162 322T157 334Q162 351 185
351H487Q497 351 502 346T506 334ZM458 474Q472 501 483 548T493 616Q492 650 470 664T421 678Q387 678 357 661T310 611Q296 584 285 537T274 468Q278 406 347 406Q381 406 411 424T458 474Z" />
<glyph unicode="&#xbb;" glyph-name="guillemotright" horiz-adv-x="650" d="M558 226Q443 135 366 9Q361 0 351 0H343Q336 0 334 5T333 16Q384 134 457 236Q435 338 443 456Q444 462 449 467T461 472H469Q478 472 480 463Q492 340 563 246Q570 237 558 226ZM378
226Q263 135 186 9Q181 0 171 0H163Q156 0 154 5T153 16Q204 134 277 236Q255 338 263 456Q264 462 269 467T281 472H289Q298 472 300 463Q312 340 383 246Q390 237 378 226Z" />
<glyph unicode="&#xbf;" glyph-name="questiondown" horiz-adv-x="591" d="M477 440Q477 405 449 379T389 353Q361 353 344 370T327 413Q327 448 354 474T415 500Q442 500 459 484T477 440ZM502 10Q502 -16 483 -52T433 -125T351 -186T246 -211Q178 -211 140 -177T102
-87Q102 17 211 89L334 168Q347 177 354 182T368 200T375 227Q375 245 359 245Q341 245 318 232T282 187Q278 177 274 175T254 173Q243 173 239 173T230 177T226 188Q226 215 265 248T361 281Q375 281 388 278T417 256T432 207Q432 144 389 105Q374 93 256 17Q230
0 219 -8T191 -33T167 -66T160 -106Q160 -175 247 -175Q297 -175 342 -144T420 -61Q388 -50 383 -25Q382 -20 382 -14Q382 15 403 35T452 56Q474 56 488 43T502 10Z" />
<glyph unicode="&#xc0;" glyph-name="Agrave" horiz-adv-x="866" d="M805 29Q805 16 800 9T790 1T777 0Q754 0 708 1T640 3Q615 3 566 2T493 0Q483 0 478 4T472 14L471 18Q471 38 480 42T510 47Q551 47 575 52L560 192H328L247 57Q258 53 273 51T298 48L307 47Q333
47 333 29Q333 0 305 0Q287 0 248 1T190 3Q174 3 141 2T92 0Q84 0 79 4T74 14L73 18Q73 31 78 38T89 46T104 47Q138 47 158 53T185 66T198 84L563 686Q573 703 582 707T610 711Q632 711 638 707T646 682L712 66Q713 55 715 53T727 48Q735 47 760 47H773Q805 47
805 29ZM555 239L525 517L357 239H555ZM708 788Q706 781 693 767T668 751Q660 751 652 754L517 815Q482 828 492 861Q500 885 521 901T568 918Q585 918 607 896L702 805Q711 796 708 788Z" />
<glyph unicode="&#xc1;" glyph-name="Aacute" horiz-adv-x="866" d="M805 29Q805 16 800 9T790 1T777 0Q754 0 708 1T640 3Q615 3 566 2T493 0Q483 0 478 4T472 14L471 18Q471 38 480 42T510 47Q551 47 575 52L560 192H328L247 57Q258 53 273 51T298 48L307 47Q333
47 333 29Q333 0 305 0Q287 0 248 1T190 3Q174 3 141 2T92 0Q84 0 79 4T74 14L73 18Q73 31 78 38T89 46T104 47Q138 47 158 53T185 66T198 84L563 686Q573 703 582 707T610 711Q632 711 638 707T646 682L712 66Q713 55 715 53T727 48Q735 47 760 47H773Q805 47
805 29ZM555 239L525 517L357 239H555ZM805 861Q799 829 757 815L591 754Q582 751 574 751Q564 752 558 766T552 788Q553 796 567 805L707 896Q741 918 758 918Q782 918 795 902T805 861Z" />
<glyph unicode="&#xc2;" glyph-name="Acircumflex" horiz-adv-x="866" d="M805 29Q805 16 800 9T790 1T777 0Q754 0 708 1T640 3Q615 3 566 2T493 0Q483 0 478 4T472 14L471 18Q471 38 480 42T510 47Q551 47 575 52L560 192H328L247 57Q258 53 273 51T298 48L307
47Q333 47 333 29Q333 0 305 0Q287 0 248 1T190 3Q174 3 141 2T92 0Q84 0 79 4T74 14L73 18Q73 31 78 38T89 46T104 47Q138 47 158 53T185 66T198 84L563 686Q573 703 582 707T610 711Q632 711 638 707T646 682L712 66Q713 55 715 53T727 48Q735 47 760 47H773Q805
47 805 29ZM555 239L525 517L357 239H555ZM799 766L780 741L629 797L460 741L450 766L648 905L799 766Z" />
<glyph unicode="&#xc3;" glyph-name="Atilde" horiz-adv-x="866" d="M805 29Q805 16 800 9T790 1T777 0Q754 0 708 1T640 3Q615 3 566 2T493 0Q483 0 478 4T472 14L471 18Q471 38 480 42T510 47Q551 47 575 52L560 192H328L247 57Q258 53 273 51T298 48L307 47Q333
47 333 29Q333 0 305 0Q287 0 248 1T190 3Q174 3 141 2T92 0Q84 0 79 4T74 14L73 18Q73 31 78 38T89 46T104 47Q138 47 158 53T185 66T198 84L563 686Q573 703 582 707T610 711Q632 711 638 707T646 682L712 66Q713 55 715 53T727 48Q735 47 760 47H773Q805 47
805 29ZM555 239L525 517L357 239H555ZM820 842Q820 830 759 780Q710 741 673 741Q641 741 605 780Q588 802 570 802Q541 802 482 751Q472 741 464 741Q455 741 451 747T446 759Q446 774 503 817Q558 860 593 860Q626 860 654 828Q679 799 696 799Q724 799 781
847Q794 860 802 860T815 855T820 842Z" />
<glyph unicode="&#xc4;" glyph-name="Adieresis" horiz-adv-x="866" d="M805 29Q805 16 800 9T790 1T777 0Q754 0 708 1T640 3Q615 3 566 2T493 0Q483 0 478 4T472 14L471 18Q471 38 480 42T510 47Q551 47 575 52L560 192H328L247 57Q258 53 273 51T298 48L307
47Q333 47 333 29Q333 0 305 0Q287 0 248 1T190 3Q174 3 141 2T92 0Q84 0 79 4T74 14L73 18Q73 31 78 38T89 46T104 47Q138 47 158 53T185 66T198 84L563 686Q573 703 582 707T610 711Q632 711 638 707T646 682L712 66Q713 55 715 53T727 48Q735 47 760 47H773Q805
47 805 29ZM555 239L525 517L357 239H555ZM557 819Q557 789 533 765T477 741Q452 741 437 756T421 795Q421 824 445 848T501 873Q527 873 542 857T557 819ZM848 819Q848 789 824 765T768 741Q743 741 728 756T712 795Q712 824 736 848T792 873Q818 873 833 857T848
819Z" />
<glyph unicode="&#xc5;" glyph-name="Aring" horiz-adv-x="866" d="M805 29Q805 16 800 9T790 1T777 0Q754 0 708 1T640 3Q615 3 566 2T493 0Q483 0 478 4T472 14L471 18Q471 38 480 42T510 47Q551 47 575 52L560 192H328L247 57Q258 53 273 51T298 48L307 47Q333
47 333 29Q333 0 305 0Q287 0 248 1T190 3Q174 3 141 2T92 0Q84 0 79 4T74 14L73 18Q73 31 78 38T89 46T104 47Q138 47 158 53T185 66T198 84L563 686Q573 703 582 707T610 711Q632 711 638 707T646 682L712 66Q713 55 715 53T727 48Q735 47 760 47H773Q805 47
805 29ZM555 239L525 517L357 239H555ZM689 814Q689 838 642 838Q604 838 590 823Q575 805 575 776Q575 752 622 752Q661 752 674 767Q689 786 689 814ZM751 813Q751 774 714 743T611 711Q565 711 539 728T513 777Q513 817 550 848T653 879Q700 879 725 862T751
813Z" />
<glyph unicode="&#xc6;" glyph-name="AE" horiz-adv-x="1023" d="M1027 256Q1027 252 1022 239L927 17Q922 5 917 3T894 0H432Q400 0 400 18Q400 32 406 38T418 46T435 47H443Q467 47 475 48T485 50T489 54T493 64L553 306H403L248 57Q274 47 307 47Q333 47 333
29Q333 16 328 9T318 1T306 0Q287 0 248 1T190 3Q174 3 141 2T92 0Q83 0 78 5T73 18Q73 31 79 38T89 46T101 47Q137 47 158 53T185 66T200 85L546 639H506Q474 639 474 657Q474 671 480 677T492 685T509 686H1040Q1054 686 1059 685T1069 677T1071 654L1050 472Q1048
454 1043 450T1021 445Q993 445 993 466Q993 475 996 490Q999 518 999 538Q999 567 992 586T974 616T939 632T895 638T835 639H790Q772 639 768 637T761 623L694 353H744Q800 353 822 372T860 447Q865 462 869 466T890 470Q918 470 918 452Q918 451 915 436L859
212Q856 201 852 196T844 190T829 189Q801 189 801 207Q801 211 803 220Q811 248 811 266Q811 289 797 297T741 306H682L618 48Q625 47 641 47H721Q766 47 801 57T858 82T902 127T935 180T965 247Q974 267 978 270T999 274Q1027 274 1027 256ZM565 353L635 636Q628
637 609 637L432 353H565Z" />
<glyph unicode="&#xc7;" glyph-name="Ccedilla" horiz-adv-x="827" d="M849 446Q845 431 841 429T817 426Q805 426 800 426T790 430T786 441Q786 442 787 454T789 484Q789 559 752 607T644 656Q585 656 522 631T411 547Q354 477 326 368T298 202Q298 119 344 77Q394
30 483 30Q527 30 574 48T669 116T740 239Q743 248 767 248Q795 248 795 234Q795 226 787 203T753 139T688 68Q603 0 507 -13L498 -51Q540 -51 566 -71T583 -125Q579 -143 566 -156T527 -178T481 -190T422 -197T363 -199T301 -200Q290 -200 284 -192T280 -172T293
-153T315 -144Q459 -144 463 -125Q465 -119 458 -115T434 -110T405 -108T372 -107L396 -13Q293 2 228 65T163 245Q163 309 183 374T243 498T338 603T469 676T630 703Q733 703 796 635L882 703Q909 703 909 689Q909 685 905 670L849 446Z" />
<glyph unicode="&#xc8;" glyph-name="Egrave" horiz-adv-x="757" d="M761 256Q761 252 756 239L661 17Q656 5 651 3T628 0H96Q64 0 64 18Q64 32 70 38T82 46T99 47H121Q137 47 161 49Q174 50 177 52T184 65L325 631Q322 631 302 632T276 633H254Q223 633 223 651Q223
665 228 671T240 679T257 680H773Q803 680 805 663L782 465Q781 454 780 450T772 442T753 439Q725 439 725 458Q725 467 728 479Q731 505 731 527Q731 553 727 571T709 601T685 619T646 629T601 632T544 633Q476 633 462 631L399 376H441Q498 376 520 396T556 471Q560
485 565 489T586 493Q614 493 614 475Q614 472 611 462L555 236Q551 219 546 216T525 212Q497 212 497 230Q498 237 500 244Q507 276 507 289Q507 312 493 320T438 329H387L317 48Q324 47 340 47H440Q499 47 540 59T611 102T658 162T699 247Q708 267 712 270T733
274Q761 274 761 256ZM653 788Q651 781 638 767T613 751Q604 751 597 754L462 815Q427 828 437 861Q445 885 466 901T513 918Q530 918 552 896L647 805Q656 796 653 788Z" />
<glyph unicode="&#xc9;" glyph-name="Eacute" horiz-adv-x="757" d="M761 256Q761 252 756 239L661 17Q656 5 651 3T628 0H96Q64 0 64 18Q64 32 70 38T82 46T99 47H121Q137 47 161 49Q174 50 177 52T184 65L325 631Q322 631 302 632T276 633H254Q223 633 223 651Q223
665 228 671T240 679T257 680H773Q803 680 805 663L782 465Q781 454 780 450T772 442T753 439Q725 439 725 458Q725 467 728 479Q731 505 731 527Q731 553 727 571T709 601T685 619T646 629T601 632T544 633Q476 633 462 631L399 376H441Q498 376 520 396T556 471Q560
485 565 489T586 493Q614 493 614 475Q614 472 611 462L555 236Q551 219 546 216T525 212Q497 212 497 230Q498 237 500 244Q507 276 507 289Q507 312 493 320T438 329H387L317 48Q324 47 340 47H440Q499 47 540 59T611 102T658 162T699 247Q708 267 712 270T733
274Q761 274 761 256ZM750 861Q744 829 702 815L536 754Q527 751 519 751Q509 752 503 766T497 788Q498 796 512 805L652 896Q686 918 703 918Q727 918 740 902T750 861Z" />
<glyph unicode="&#xca;" glyph-name="Ecircumflex" horiz-adv-x="757" d="M761 256Q761 252 756 239L661 17Q656 5 651 3T628 0H96Q64 0 64 18Q64 32 70 38T82 46T99 47H121Q137 47 161 49Q174 50 177 52T184 65L325 631Q322 631 302 632T276 633H254Q223 633
223 651Q223 665 228 671T240 679T257 680H773Q803 680 805 663L782 465Q781 454 780 450T772 442T753 439Q725 439 725 458Q725 467 728 479Q731 505 731 527Q731 553 727 571T709 601T685 619T646 629T601 632T544 633Q476 633 462 631L399 376H441Q498 376 520
396T556 471Q560 485 565 489T586 493Q614 493 614 475Q614 472 611 462L555 236Q551 219 546 216T525 212Q497 212 497 230Q498 237 500 244Q507 276 507 289Q507 312 493 320T438 329H387L317 48Q324 47 340 47H440Q499 47 540 59T611 102T658 162T699 247Q708
267 712 270T733 274Q761 274 761 256ZM744 766L725 741L574 797L405 741L395 766L593 905L744 766Z" />
<glyph unicode="&#xcb;" glyph-name="Edieresis" horiz-adv-x="757" d="M761 256Q761 252 756 239L661 17Q656 5 651 3T628 0H96Q64 0 64 18Q64 32 70 38T82 46T99 47H121Q137 47 161 49Q174 50 177 52T184 65L325 631Q322 631 302 632T276 633H254Q223 633 223
651Q223 665 228 671T240 679T257 680H773Q803 680 805 663L782 465Q781 454 780 450T772 442T753 439Q725 439 725 458Q725 467 728 479Q731 505 731 527Q731 553 727 571T709 601T685 619T646 629T601 632T544 633Q476 633 462 631L399 376H441Q498 376 520 396T556
471Q560 485 565 489T586 493Q614 493 614 475Q614 472 611 462L555 236Q551 219 546 216T525 212Q497 212 497 230Q498 237 500 244Q507 276 507 289Q507 312 493 320T438 329H387L317 48Q324 47 340 47H440Q499 47 540 59T611 102T658 162T699 247Q708 267 712
270T733 274Q761 274 761 256ZM502 819Q502 789 478 765T422 741Q397 741 382 756T366 795Q366 824 390 848T446 873Q472 873 487 857T502 819ZM793 819Q793 789 769 765T713 741Q688 741 673 756T657 795Q657 824 681 848T737 873Q763 873 778 857T793 819Z" />
<glyph unicode="&#xcc;" glyph-name="Igrave" horiz-adv-x="472" d="M585 668Q585 654 579 648T567 640T550 639H525Q508 639 484 637Q469 636 466 634T459 620L317 49L368 47H393Q425 47 425 29Q425 0 395 0Q369 0 316 1T236 3Q210 3 158 2T81 0Q59 0 59 18Q59
32 64 38T76 46T94 47H118Q148 47 159 48Q174 49 177 51T184 65L326 637Q320 637 299 638T275 639H251Q219 639 219 657Q219 670 224 677T235 685T248 686Q274 686 327 685T407 683Q433 683 485 684T563 686Q585 686 585 668ZM511 788Q509 781 496 767T471 751Q462
751 455 754L320 815Q285 828 295 861Q303 885 324 901T371 918Q388 918 410 896L505 805Q514 796 511 788Z" />
<glyph unicode="&#xcd;" glyph-name="Iacute" horiz-adv-x="472" d="M585 668Q585 654 579 648T567 640T550 639H525Q508 639 484 637Q469 636 466 634T459 620L317 49L368 47H393Q425 47 425 29Q425 0 395 0Q369 0 316 1T236 3Q210 3 158 2T81 0Q59 0 59 18Q59
32 64 38T76 46T94 47H118Q148 47 159 48Q174 49 177 51T184 65L326 637Q320 637 299 638T275 639H251Q219 639 219 657Q219 670 224 677T235 685T248 686Q274 686 327 685T407 683Q433 683 485 684T563 686Q585 686 585 668ZM608 861Q602 829 560 815L394 754Q385
751 377 751Q367 752 361 766T355 788Q356 796 370 805L510 896Q544 918 561 918Q585 918 598 902T608 861Z" />
<glyph unicode="&#xce;" glyph-name="Icircumflex" horiz-adv-x="472" d="M585 668Q585 654 579 648T567 640T550 639H525Q508 639 484 637Q469 636 466 634T459 620L317 49L368 47H393Q425 47 425 29Q425 0 395 0Q369 0 316 1T236 3Q210 3 158 2T81 0Q59 0 59
18Q59 32 64 38T76 46T94 47H118Q148 47 159 48Q174 49 177 51T184 65L326 637Q320 637 299 638T275 639H251Q219 639 219 657Q219 670 224 677T235 685T248 686Q274 686 327 685T407 683Q433 683 485 684T563 686Q585 686 585 668ZM602 766L583 741L432 797L263
741L253 766L451 905L602 766Z" />
<glyph unicode="&#xcf;" glyph-name="Idieresis" horiz-adv-x="472" d="M585 668Q585 654 579 648T567 640T550 639H525Q508 639 484 637Q469 636 466 634T459 620L317 49L368 47H393Q425 47 425 29Q425 0 395 0Q369 0 316 1T236 3Q210 3 158 2T81 0Q59 0 59 18Q59
32 64 38T76 46T94 47H118Q148 47 159 48Q174 49 177 51T184 65L326 637Q320 637 299 638T275 639H251Q219 639 219 657Q219 670 224 677T235 685T248 686Q274 686 327 685T407 683Q433 683 485 684T563 686Q585 686 585 668ZM360 819Q360 789 336 765T280 741Q255
741 240 756T224 795Q224 824 248 848T304 873Q330 873 345 857T360 819ZM651 819Q651 789 627 765T571 741Q546 741 531 756T515 795Q515 824 539 848T595 873Q621 873 636 857T651 819Z" />
<glyph unicode="&#xd1;" glyph-name="Ntilde" horiz-adv-x="896" d="M1003 668Q1003 655 998 648T987 640T972 639Q938 639 915 634Q894 630 889 626T881 610L735 24Q731 7 726 4T701 0Q685 0 681 2T670 16L376 584L245 57Q269 47 314 47Q345 47 345 29Q345 0
318 0Q299 0 259 1T199 3Q180 3 141 2T84 0Q73 0 69 6T64 18Q64 31 70 38T81 46T98 47Q128 47 155 52Q174 56 179 60T187 77L323 623L326 634Q326 639 283 639H256Q224 639 224 657Q224 671 230 677T242 685T259 686H444Q461 686 465 684T477 669L717 206L823 629Q798
639 753 639Q722 639 722 657Q722 686 750 686Q769 686 808 685T868 683Q887 683 926 684T983 686Q1003 686 1003 668ZM835 842Q835 830 774 780Q725 741 688 741Q656 741 620 780Q603 802 585 802Q556 802 497 751Q487 741 479 741Q470 741 466 747T461 759Q461
774 518 817Q573 860 608 860Q641 860 669 828Q694 799 711 799Q739 799 796 847Q809 860 817 860Q824 860 829 855T835 842Z" />
<glyph unicode="&#xd2;" glyph-name="Ograve" horiz-adv-x="855" d="M865 453Q865 372 835 290T751 139T612 27T424 -17Q306 -17 233 45T160 229Q160 290 178 355T233 483T322 594T447 673T603 703Q716 703 790 642T865 453ZM733 501Q733 521 731 540T719 582T696
622T655 651T593 663Q543 663 488 633T388 530Q350 467 324 361T297 193Q297 115 330 72Q368 25 434 25Q545 25 629 148Q672 211 702 325T733 501ZM702 788Q700 781 687 767T662 751Q654 751 646 754L511 815Q476 828 486 861Q494 885 515 901T562 918Q579 918
601 896L696 805Q705 796 702 788Z" />
<glyph unicode="&#xd3;" glyph-name="Oacute" horiz-adv-x="855" d="M865 453Q865 372 835 290T751 139T612 27T424 -17Q306 -17 233 45T160 229Q160 290 178 355T233 483T322 594T447 673T603 703Q716 703 790 642T865 453ZM733 501Q733 521 731 540T719 582T696
622T655 651T593 663Q543 663 488 633T388 530Q350 467 324 361T297 193Q297 115 330 72Q368 25 434 25Q545 25 629 148Q672 211 702 325T733 501ZM799 861Q793 829 751 815L585 754Q576 751 568 751Q558 752 552 766T546 788Q547 796 561 805L701 896Q735 918
752 918Q776 918 789 902T799 861Z" />
<glyph unicode="&#xd4;" glyph-name="Ocircumflex" horiz-adv-x="855" d="M865 453Q865 372 835 290T751 139T612 27T424 -17Q306 -17 233 45T160 229Q160 290 178 355T233 483T322 594T447 673T603 703Q716 703 790 642T865 453ZM733 501Q733 521 731 540T719
582T696 622T655 651T593 663Q543 663 488 633T388 530Q350 467 324 361T297 193Q297 115 330 72Q368 25 434 25Q545 25 629 148Q672 211 702 325T733 501ZM793 766L774 741L623 797L454 741L444 766L642 905L793 766Z" />
<glyph unicode="&#xd5;" glyph-name="Otilde" horiz-adv-x="855" d="M865 453Q865 372 835 290T751 139T612 27T424 -17Q306 -17 233 45T160 229Q160 290 178 355T233 483T322 594T447 673T603 703Q716 703 790 642T865 453ZM733 501Q733 521 731 540T719 582T696
622T655 651T593 663Q543 663 488 633T388 530Q350 467 324 361T297 193Q297 115 330 72Q368 25 434 25Q545 25 629 148Q672 211 702 325T733 501ZM814 842Q814 830 753 780Q704 741 667 741Q635 741 599 780Q582 802 564 802Q535 802 476 751Q466 741 458 741Q449
741 445 747T440 759Q440 774 497 817Q552 860 587 860Q620 860 648 828Q673 799 690 799Q718 799 775 847Q788 860 796 860T809 855T814 842Z" />
<glyph unicode="&#xd6;" glyph-name="Odieresis" horiz-adv-x="855" d="M865 453Q865 372 835 290T751 139T612 27T424 -17Q306 -17 233 45T160 229Q160 290 178 355T233 483T322 594T447 673T603 703Q716 703 790 642T865 453ZM733 501Q733 521 731 540T719 582T696
622T655 651T593 663Q543 663 488 633T388 530Q350 467 324 361T297 193Q297 115 330 72Q368 25 434 25Q545 25 629 148Q672 211 702 325T733 501ZM551 819Q551 789 527 765T471 741Q446 741 431 756T415 795Q415 824 439 848T495 873Q521 873 536 857T551 819ZM842
819Q842 789 818 765T762 741Q737 741 722 756T706 795Q706 824 730 848T786 873Q812 873 827 857T842 819Z" />
<glyph unicode="&#xd8;" glyph-name="Oslash" horiz-adv-x="886" d="M895 449Q895 367 864 286T778 136T633 26T439 -17Q344 -17 272 22L205 -53Q189 -68 183 -68Q175 -68 169 -62T162 -48Q162 -42 180 -21L239 46Q161 117 161 234Q161 311 191 392T276 543T422
658T619 703Q714 703 786 663L853 740Q865 754 874 754Q881 754 888 748T895 734T877 707Q858 684 818 640Q895 576 895 449ZM740 612Q697 667 609 667Q558 667 502 643T400 560Q347 490 316 363T284 182Q284 142 296 111L740 612ZM772 501Q772 545 761 575L317
73Q358 19 448 19Q591 19 676 151Q712 206 742 324T772 501Z" />
<glyph unicode="&#xd9;" glyph-name="Ugrave" horiz-adv-x="881" d="M988 668Q988 655 983 648T972 640T957 639Q923 639 900 634Q879 630 874 626T866 610L769 220Q759 179 736 140T675 64T582 6T458 -17Q347 -17 283 33T218 173Q218 206 225 231L327 637Q303
639 278 639H256Q224 639 224 657Q224 670 230 677T240 685T253 686Q278 686 329 685T407 683Q432 683 482 684T557 686Q579 686 579 668Q579 654 574 648T562 640T545 639L483 638Q469 637 466 634T459 620L358 215Q346 164 346 133Q346 80 378 54Q409 30 463
30Q550 30 617 81T710 233L809 629Q784 639 739 639Q708 639 708 657Q708 686 735 686Q754 686 794 685T854 683Q873 683 911 684T968 686Q988 686 988 668ZM742 788Q740 781 727 767T702 751Q694 751 686 754L551 815Q516 828 526 861Q534 885 555 901T602 918Q619
918 641 896L736 805Q745 796 742 788Z" />
<glyph unicode="&#xda;" glyph-name="Uacute" horiz-adv-x="881" d="M988 668Q988 655 983 648T972 640T957 639Q923 639 900 634Q879 630 874 626T866 610L769 220Q759 179 736 140T675 64T582 6T458 -17Q347 -17 283 33T218 173Q218 206 225 231L327 637Q303
639 278 639H256Q224 639 224 657Q224 670 230 677T240 685T253 686Q278 686 329 685T407 683Q432 683 482 684T557 686Q579 686 579 668Q579 654 574 648T562 640T545 639L483 638Q469 637 466 634T459 620L358 215Q346 164 346 133Q346 80 378 54Q409 30 463
30Q550 30 617 81T710 233L809 629Q784 639 739 639Q708 639 708 657Q708 686 735 686Q754 686 794 685T854 683Q873 683 911 684T968 686Q988 686 988 668ZM839 861Q833 829 791 815L625 754Q616 751 608 751Q598 752 592 766T586 788Q587 796 601 805L741 896Q775
918 792 918Q816 918 829 902T839 861Z" />
<glyph unicode="&#xdb;" glyph-name="Ucircumflex" horiz-adv-x="881" d="M988 668Q988 655 983 648T972 640T957 639Q923 639 900 634Q879 630 874 626T866 610L769 220Q759 179 736 140T675 64T582 6T458 -17Q347 -17 283 33T218 173Q218 206 225 231L327 637Q303
639 278 639H256Q224 639 224 657Q224 670 230 677T240 685T253 686Q278 686 329 685T407 683Q432 683 482 684T557 686Q579 686 579 668Q579 654 574 648T562 640T545 639L483 638Q469 637 466 634T459 620L358 215Q346 164 346 133Q346 80 378 54Q409 30 463
30Q550 30 617 81T710 233L809 629Q784 639 739 639Q708 639 708 657Q708 686 735 686Q754 686 794 685T854 683Q873 683 911 684T968 686Q988 686 988 668ZM833 766L814 741L663 797L494 741L484 766L682 905L833 766Z" />
<glyph unicode="&#xdc;" glyph-name="Udieresis" horiz-adv-x="881" d="M988 668Q988 655 983 648T972 640T957 639Q923 639 900 634Q879 630 874 626T866 610L769 220Q759 179 736 140T675 64T582 6T458 -17Q347 -17 283 33T218 173Q218 206 225 231L327 637Q303
639 278 639H256Q224 639 224 657Q224 670 230 677T240 685T253 686Q278 686 329 685T407 683Q432 683 482 684T557 686Q579 686 579 668Q579 654 574 648T562 640T545 639L483 638Q469 637 466 634T459 620L358 215Q346 164 346 133Q346 80 378 54Q409 30 463
30Q550 30 617 81T710 233L809 629Q784 639 739 639Q708 639 708 657Q708 686 735 686Q754 686 794 685T854 683Q873 683 911 684T968 686Q988 686 988 668ZM591 819Q591 789 567 765T511 741Q486 741 471 756T455 795Q455 824 479 848T535 873Q561 873 576 857T591
819ZM882 819Q882 789 858 765T802 741Q777 741 762 756T746 795Q746 824 770 848T826 873Q852 873 867 857T882 819Z" />
<glyph unicode="&#xdf;" glyph-name="germandbls" horiz-adv-x="665" d="M643 165Q643 98 581 45T440 -8Q389 -8 357 16T324 77Q324 105 340 123T381 141Q400 141 410 130T421 104Q421 78 400 61L388 52Q406 28 440 28Q468 28 488 60T516 120T523 156Q523 183
494 214Q463 247 463 301Q463 343 476 369T525 432Q551 461 566 510L572 528Q577 547 581 566T586 595T584 613T573 636T547 657T501 666Q431 666 407 640T370 542L281 64Q270 7 253 -40Q236 -92 209 -128T154 -178T109 -197T78 -202Q39 -202 13 -180T-13 -124T9
-69T58 -48Q80 -48 94 -61T108 -94Q108 -115 95 -134T61 -161L79 -166Q98 -166 112 -150T138 -101T154 -42T168 27L236 397H150Q118 397 118 415Q118 429 124 435T136 443T153 444H245L259 521Q266 558 279 587T308 636T345 668T385 687T427 697T465 701T499 702Q598
702 644 672T691 592Q691 555 638 484L566 387Q543 355 543 341Q543 326 590 274Q643 220 643 165Z" />
<glyph unicode="&#xe0;" glyph-name="agrave" horiz-adv-x="591" d="M625 148Q625 145 621 130T608 90T586 46Q551 -8 501 -8Q469 -8 440 5T398 43Q334 -8 266 -8Q200 -8 153 31T106 152Q106 221 137 289T231 404T374 452Q434 452 471 414Q492 435 518 435Q538
435 550 423T563 393Q563 387 559 372L492 102Q486 78 486 59Q486 28 505 28Q539 28 565 136Q570 155 574 158T597 162Q625 162 625 148ZM386 100Q388 113 389 118L448 354Q431 416 374 416Q346 416 314 392T259 304Q248 275 231 205T213 99Q213 61 230 45T270
28Q332 28 386 100ZM499 535Q496 528 481 515T454 502Q449 502 441 508L333 597Q305 620 321 651Q331 672 352 685T392 699Q407 699 414 692T431 668L496 554Q503 545 499 535Z" />
<glyph unicode="&#xe1;" glyph-name="aacute" horiz-adv-x="591" d="M625 148Q625 145 621 130T608 90T586 46Q551 -8 501 -8Q469 -8 440 5T398 43Q334 -8 266 -8Q200 -8 153 31T106 152Q106 221 137 289T231 404T374 452Q434 452 471 414Q492 435 518 435Q538
435 550 423T563 393Q563 387 559 372L492 102Q486 78 486 59Q486 28 505 28Q539 28 565 136Q570 155 574 158T597 162Q625 162 625 148ZM386 100Q388 113 389 118L448 354Q431 416 374 416Q346 416 314 392T259 304Q248 275 231 205T213 99Q213 61 230 45T270
28Q332 28 386 100ZM596 651Q596 619 557 597L404 508Q394 502 388 502Q378 502 369 515T360 535Q360 544 372 554L494 668Q527 699 549 699Q568 699 582 686T596 651Z" />
<glyph unicode="&#xe2;" glyph-name="acircumflex" horiz-adv-x="591" d="M625 148Q625 145 621 130T608 90T586 46Q551 -8 501 -8Q469 -8 440 5T398 43Q334 -8 266 -8Q200 -8 153 31T106 152Q106 221 137 289T231 404T374 452Q434 452 471 414Q492 435 518 435Q538
435 550 423T563 393Q563 387 559 372L492 102Q486 78 486 59Q486 28 505 28Q539 28 565 136Q570 155 574 158T597 162Q625 162 625 148ZM386 100Q388 113 389 118L448 354Q431 416 374 416Q346 416 314 392T259 304Q248 275 231 205T213 99Q213 61 230 45T270
28Q332 28 386 100ZM603 519L580 497L439 596L265 497L250 519L457 704L603 519Z" />
<glyph unicode="&#xe3;" glyph-name="atilde" horiz-adv-x="591" d="M625 148Q625 145 621 130T608 90T586 46Q551 -8 501 -8Q469 -8 440 5T398 43Q334 -8 266 -8Q200 -8 153 31T106 152Q106 221 137 289T231 404T374 452Q434 452 471 414Q492 435 518 435Q538
435 550 423T563 393Q563 387 559 372L492 102Q486 78 486 59Q486 28 505 28Q539 28 565 136Q570 155 574 158T597 162Q625 162 625 148ZM386 100Q388 113 389 118L448 354Q431 416 374 416Q346 416 314 392T259 304Q248 275 231 205T213 99Q213 61 230 45T270
28Q332 28 386 100ZM633 642Q633 630 572 580Q523 541 486 541Q454 541 418 580Q401 602 383 602Q354 602 295 551Q285 541 277 541Q268 541 264 547T259 559Q259 574 316 617Q371 660 406 660Q439 660 467 628Q492 599 509 599Q537 599 594 647Q607 660 615 660Q622
660 627 655T633 642Z" />
<glyph unicode="&#xe4;" glyph-name="adieresis" horiz-adv-x="591" d="M625 148Q625 145 621 130T608 90T586 46Q551 -8 501 -8Q469 -8 440 5T398 43Q334 -8 266 -8Q200 -8 153 31T106 152Q106 221 137 289T231 404T374 452Q434 452 471 414Q492 435 518 435Q538
435 550 423T563 393Q563 387 559 372L492 102Q486 78 486 59Q486 28 505 28Q539 28 565 136Q570 155 574 158T597 162Q625 162 625 148ZM386 100Q388 113 389 118L448 354Q431 416 374 416Q346 416 314 392T259 304Q248 275 231 205T213 99Q213 61 230 45T270
28Q332 28 386 100ZM391 613Q391 583 367 559T312 535Q287 535 272 550T255 589Q255 618 280 642T336 667Q362 667 376 651T391 613ZM636 613Q636 583 612 559T557 535Q532 535 517 550T500 589Q500 618 525 642T581 667Q607 667 621 651T636 613Z" />
<glyph unicode="&#xe5;" glyph-name="aring" horiz-adv-x="591" d="M625 148Q625 145 621 130T608 90T586 46Q551 -8 501 -8Q469 -8 440 5T398 43Q334 -8 266 -8Q200 -8 153 31T106 152Q106 221 137 289T231 404T374 452Q434 452 471 414Q492 435 518 435Q538
435 550 423T563 393Q563 387 559 372L492 102Q486 78 486 59Q486 28 505 28Q539 28 565 136Q570 155 574 158T597 162Q625 162 625 148ZM386 100Q388 113 389 118L448 354Q431 416 374 416Q346 416 314 392T259 304Q248 275 231 205T213 99Q213 61 230 45T270
28Q332 28 386 100ZM507 637Q507 661 460 661Q422 661 408 646Q393 628 393 599Q393 575 440 575Q479 575 492 590Q507 609 507 637ZM569 636Q569 597 532 566T429 534Q383 534 357 551T331 600Q331 640 368 671T471 702Q518 702 543 685T569 636Z" />
<glyph unicode="&#xe6;" glyph-name="ae" horiz-adv-x="827" d="M803 87Q803 82 795 72T770 48T729 22T669 1T594 -8Q517 -8 469 32Q455 -8 416 -8Q380 -8 376 28Q323 -8 263 -8Q183 -8 136 22T89 106Q89 122 94 145T129 212T209 293Q299 359 469 409Q482 452
523 452Q558 452 564 419Q625 452 698 452Q753 452 790 427T827 356Q827 218 561 218H516Q503 164 503 130Q503 76 528 52T595 28Q685 28 757 109Q764 119 772 119Q779 119 791 107T803 87ZM762 357Q762 381 746 398T696 416Q632 416 583 367Q543 325 525 254H546Q762
254 762 357ZM397 122L458 366Q349 324 283 250Q260 226 244 199T220 153T208 114T203 88T202 76Q202 28 269 28Q313 28 351 60T397 122Z" />
<glyph unicode="&#xe7;" glyph-name="ccedilla" horiz-adv-x="532" d="M536 86Q536 75 508 52T443 14T347 -6L336 -51Q378 -51 404 -71T421 -125Q417 -143 404 -156T365 -178T319 -190T260 -197T201 -199T139 -200Q128 -200 122 -192T118 -172T131 -153T153 -144Q297
-144 301 -125Q303 -119 296 -115T272 -110T243 -108T210 -107L236 -1Q169 14 138 58T107 160Q107 210 127 260T183 354T277 425T403 452Q463 452 496 426T530 360Q530 327 510 305T458 282Q430 282 419 297T408 328Q408 334 409 343T424 369T459 395Q439 416 402
416Q371 416 334 397T271 329Q252 292 234 220T216 116Q216 73 238 51T302 28Q418 28 492 111Q499 118 506 118T524 105T536 86Z" />
<glyph unicode="&#xe8;" glyph-name="egrave" horiz-adv-x="532" d="M536 86Q536 75 508 52T443 14Q384 -8 302 -8Q209 -8 160 38T110 167Q110 285 192 368T402 452Q459 452 495 426T532 356Q532 218 274 218H234Q218 158 218 120Q218 28 303 28Q418 28 492 111Q499
118 506 118T524 105T536 86ZM467 357Q467 382 450 399T402 416Q337 416 296 366Q276 344 266 321T243 254Q467 254 467 357ZM470 535Q467 528 452 515T425 502Q420 502 412 508L304 597Q276 620 292 651Q302 672 323 685T363 699Q378 699 385 692T402 668L467
554Q474 545 470 535Z" />
<glyph unicode="&#xe9;" glyph-name="eacute" horiz-adv-x="532" d="M536 86Q536 75 508 52T443 14Q384 -8 302 -8Q209 -8 160 38T110 167Q110 285 192 368T402 452Q459 452 495 426T532 356Q532 218 274 218H234Q218 158 218 120Q218 28 303 28Q418 28 492 111Q499
118 506 118T524 105T536 86ZM467 357Q467 382 450 399T402 416Q337 416 296 366Q276 344 266 321T243 254Q467 254 467 357ZM567 651Q567 619 528 597L375 508Q365 502 359 502Q348 502 340 515T331 535Q331 544 343 554L465 668Q498 699 520 699Q539 699 553
686T567 651Z" />
<glyph unicode="&#xea;" glyph-name="ecircumflex" horiz-adv-x="532" d="M536 86Q536 75 508 52T443 14Q384 -8 302 -8Q209 -8 160 38T110 167Q110 285 192 368T402 452Q459 452 495 426T532 356Q532 218 274 218H234Q218 158 218 120Q218 28 303 28Q418 28 492
111Q499 118 506 118T524 105T536 86ZM467 357Q467 382 450 399T402 416Q337 416 296 366Q276 344 266 321T243 254Q467 254 467 357ZM574 519L551 497L410 596L236 497L221 519L428 704L574 519Z" />
<glyph unicode="&#xeb;" glyph-name="edieresis" horiz-adv-x="532" d="M536 86Q536 75 508 52T443 14Q384 -8 302 -8Q209 -8 160 38T110 167Q110 285 192 368T402 452Q459 452 495 426T532 356Q532 218 274 218H234Q218 158 218 120Q218 28 303 28Q418 28 492
111Q499 118 506 118T524 105T536 86ZM467 357Q467 382 450 399T402 416Q337 416 296 366Q276 344 266 321T243 254Q467 254 467 357ZM362 613Q362 583 338 559T283 535Q258 535 243 550T226 589Q226 618 251 642T307 667Q333 667 347 651T362 613ZM607 613Q607
583 583 559T528 535Q503 535 488 550T471 589Q471 618 496 642T552 667Q578 667 592 651T607 613Z" />
<glyph unicode="&#xec;" glyph-name="igrave" horiz-adv-x="356" d="M390 148Q390 138 380 115T353 63T305 13T237 -8Q194 -8 163 16T132 81Q132 96 141 120L231 358Q239 374 239 398Q239 416 225 416Q170 416 133 295Q130 286 125 284T105 282Q77 282 77 296Q77
306 87 329T114 381T162 431T230 452Q273 452 304 428T335 363Q335 348 326 324L236 86Q228 70 228 46Q228 28 242 28Q297 28 334 149Q337 158 341 160T362 162Q390 162 390 148ZM381 535Q378 528 363 515T336 502Q331 502 323 508L215 597Q187 620 203 651Q213
672 234 685T274 699Q289 699 296 692T313 668L378 554Q385 545 381 535Z" />
<glyph unicode="&#xed;" glyph-name="iacute" horiz-adv-x="356" d="M390 148Q390 138 380 115T353 63T305 13T237 -8Q194 -8 163 16T132 81Q132 96 141 120L231 358Q239 374 239 398Q239 416 225 416Q170 416 133 295Q130 286 125 284T105 282Q77 282 77 296Q77
306 87 329T114 381T162 431T230 452Q273 452 304 428T335 363Q335 348 326 324L236 86Q228 70 228 46Q228 28 242 28Q297 28 334 149Q337 158 341 160T362 162Q390 162 390 148ZM478 651Q478 619 439 597L286 508Q276 502 270 502Q260 502 251 515T242 535Q242
544 254 554L376 668Q409 699 431 699Q450 699 464 686T478 651Z" />
<glyph unicode="&#xee;" glyph-name="icircumflex" horiz-adv-x="356" d="M390 148Q390 138 380 115T353 63T305 13T237 -8Q194 -8 163 16T132 81Q132 96 141 120L231 358Q239 374 239 398Q239 416 225 416Q170 416 133 295Q130 286 125 284T105 282Q77 282 77
296Q77 306 87 329T114 381T162 431T230 452Q273 452 304 428T335 363Q335 348 326 324L236 86Q228 70 228 46Q228 28 242 28Q297 28 334 149Q337 158 341 160T362 162Q390 162 390 148ZM485 519L462 497L321 596L147 497L132 519L339 704L485 519Z" />
<glyph unicode="&#xef;" glyph-name="idieresis" horiz-adv-x="356" d="M390 148Q390 138 380 115T353 63T305 13T237 -8Q194 -8 163 16T132 81Q132 96 141 120L231 358Q239 374 239 398Q239 416 225 416Q170 416 133 295Q130 286 125 284T105 282Q77 282 77 296Q77
306 87 329T114 381T162 431T230 452Q273 452 304 428T335 363Q335 348 326 324L236 86Q228 70 228 46Q228 28 242 28Q297 28 334 149Q337 158 341 160T362 162Q390 162 390 148ZM273 613Q273 583 249 559T194 535Q169 535 154 550T137 589Q137 618 162 642T218
667Q244 667 258 651T273 613ZM518 613Q518 583 494 559T439 535Q414 535 399 550T382 589Q382 618 407 642T463 667Q489 667 503 651T518 613Z" />
<glyph unicode="&#xf1;" glyph-name="ntilde" horiz-adv-x="650" d="M684 148Q684 138 674 115T647 63T599 13T531 -8Q488 -8 457 16T426 81Q426 98 438 131Q502 291 502 359Q502 416 459 416Q418 416 382 391T327 339T305 294L243 46Q238 28 229 16T209 0T192
-6T180 -8Q162 -8 149 3T135 35Q135 42 139 57L210 342Q216 366 216 385Q216 416 197 416Q163 416 137 308Q132 289 128 286T105 282Q77 282 77 296Q77 299 81 314T94 354T116 398Q151 452 201 452Q221 452 240 447T282 426T313 383Q379 452 466 452Q604 452 604
339Q604 283 545 127Q522 67 522 46Q522 28 536 28Q591 28 628 149Q631 158 635 160T656 162Q684 162 684 148ZM662 642Q662 630 601 580Q552 541 515 541Q483 541 447 580Q430 602 412 602Q383 602 324 551Q314 541 306 541Q297 541 293 547T288 559Q288 574 345
617Q400 660 435 660Q468 660 496 628Q521 599 538 599Q566 599 623 647Q636 660 644 660T657 655T662 642Z" />
<glyph unicode="&#xf2;" glyph-name="ograve" horiz-adv-x="591" d="M595 284Q595 235 576 185T521 91T427 20T297 -8Q208 -8 158 37T107 160Q107 208 126 258T181 352T275 424T405 452Q494 452 544 407T595 284ZM435 124Q453 162 469 229T486 328Q486 376 461
396T403 416Q363 416 326 391T267 320Q249 282 233 215T216 116Q216 68 241 48T299 28Q339 28 376 53T435 124ZM499 535Q496 528 481 515T454 502Q449 502 441 508L333 597Q305 620 321 651Q331 672 352 685T392 699Q407 699 414 692T431 668L496 554Q503 545 499
535Z" />
<glyph unicode="&#xf3;" glyph-name="oacute" horiz-adv-x="591" d="M595 284Q595 235 576 185T521 91T427 20T297 -8Q208 -8 158 37T107 160Q107 208 126 258T181 352T275 424T405 452Q494 452 544 407T595 284ZM435 124Q453 162 469 229T486 328Q486 376 461
396T403 416Q363 416 326 391T267 320Q249 282 233 215T216 116Q216 68 241 48T299 28Q339 28 376 53T435 124ZM596 651Q596 619 557 597L404 508Q394 502 388 502Q378 502 369 515T360 535Q360 544 372 554L494 668Q527 699 549 699Q568 699 582 686T596 651Z"
/>
<glyph unicode="&#xf4;" glyph-name="ocircumflex" horiz-adv-x="591" d="M595 284Q595 235 576 185T521 91T427 20T297 -8Q208 -8 158 37T107 160Q107 208 126 258T181 352T275 424T405 452Q494 452 544 407T595 284ZM435 124Q453 162 469 229T486 328Q486 376
461 396T403 416Q363 416 326 391T267 320Q249 282 233 215T216 116Q216 68 241 48T299 28Q339 28 376 53T435 124ZM603 519L580 497L439 596L265 497L250 519L457 704L603 519Z" />
<glyph unicode="&#xf5;" glyph-name="otilde" horiz-adv-x="591" d="M595 284Q595 235 576 185T521 91T427 20T297 -8Q208 -8 158 37T107 160Q107 208 126 258T181 352T275 424T405 452Q494 452 544 407T595 284ZM435 124Q453 162 469 229T486 328Q486 376 461
396T403 416Q363 416 326 391T267 320Q249 282 233 215T216 116Q216 68 241 48T299 28Q339 28 376 53T435 124ZM633 642Q633 630 572 580Q523 541 486 541Q454 541 418 580Q401 602 383 602Q354 602 295 551Q285 541 277 541Q268 541 264 547T259 559Q259 574 316
617Q371 660 406 660Q439 660 467 628Q492 599 509 599Q537 599 594 647Q607 660 615 660Q622 660 627 655T633 642Z" />
<glyph unicode="&#xf6;" glyph-name="odieresis" horiz-adv-x="591" d="M595 284Q595 235 576 185T521 91T427 20T297 -8Q208 -8 158 37T107 160Q107 208 126 258T181 352T275 424T405 452Q494 452 544 407T595 284ZM435 124Q453 162 469 229T486 328Q486 376
461 396T403 416Q363 416 326 391T267 320Q249 282 233 215T216 116Q216 68 241 48T299 28Q339 28 376 53T435 124ZM391 613Q391 583 367 559T312 535Q287 535 272 550T255 589Q255 618 280 642T336 667Q362 667 376 651T391 613ZM636 613Q636 583 612 559T557
535Q532 535 517 550T500 589Q500 618 525 642T581 667Q607 667 621 651T636 613Z" />
<glyph unicode="&#xf7;" glyph-name="divide" horiz-adv-x="886" d="M858 250Q858 220 818 220H193Q153 220 153 250Q153 281 199 281H812Q858 281 858 250ZM639 499Q639 464 611 438T549 411Q525 411 507 426T489 470Q489 506 517 532T578 558Q605 558 622 542T639
499ZM522 31Q522 -4 494 -30T432 -57Q408 -57 390 -42T372 2Q372 38 400 64T461 90Q488 90 505 74T522 31Z" />
<glyph unicode="&#xf8;" glyph-name="oslash" horiz-adv-x="591" d="M589 287Q589 236 570 184T514 88T421 16T296 -12Q241 -12 201 7Q179 -21 163 -41T141 -69T130 -83T121 -94Q102 -115 95 -115T83 -110T77 -97Q77 -89 95 -67L170 25Q113 74 113 157Q113 208
132 260T188 356T281 428T406 456Q461 456 501 437L587 545Q599 560 607 560Q613 560 619 556T625 542Q625 535 614 521L532 418Q589 373 589 287ZM467 396Q444 420 404 420Q363 420 323 394T260 319Q241 279 226 214T210 119Q210 100 215 82L467 396ZM442 125Q461
165 476 230T492 325Q492 344 487 362L235 49Q257 24 298 24T379 50T442 125Z" />
<glyph unicode="&#xf9;" glyph-name="ugrave" horiz-adv-x="621" d="M655 148Q655 145 651 130T638 90T616 46Q581 -8 531 -8Q499 -8 470 5T428 43Q374 -8 309 -8Q242 -8 202 22T161 118Q161 144 171 183T189 246T221 332Q239 374 239 398Q239 416 225 416Q170
416 133 295Q130 286 125 284T105 282Q77 282 77 296Q77 306 87 329T114 381T162 431T230 452Q273 452 304 428T335 363Q335 348 321 309Q263 157 263 97Q263 28 315 28Q353 28 384 57Q404 77 409 85T417 107L486 388Q491 411 505 424T529 441T550 444Q568 444
581 433T595 401Q595 394 591 379L522 102Q516 78 516 59Q516 28 535 28Q569 28 595 136Q600 155 604 158T627 162Q655 162 655 148ZM514 535Q511 528 496 515T469 502Q464 502 456 508L348 597Q320 620 336 651Q346 672 367 685T407 699Q422 699 429 692T446 668L511
554Q518 545 514 535Z" />
<glyph unicode="&#xfa;" glyph-name="uacute" horiz-adv-x="621" d="M655 148Q655 145 651 130T638 90T616 46Q581 -8 531 -8Q499 -8 470 5T428 43Q374 -8 309 -8Q242 -8 202 22T161 118Q161 144 171 183T189 246T221 332Q239 374 239 398Q239 416 225 416Q170
416 133 295Q130 286 125 284T105 282Q77 282 77 296Q77 306 87 329T114 381T162 431T230 452Q273 452 304 428T335 363Q335 348 321 309Q263 157 263 97Q263 28 315 28Q353 28 384 57Q404 77 409 85T417 107L486 388Q491 411 505 424T529 441T550 444Q568 444
581 433T595 401Q595 394 591 379L522 102Q516 78 516 59Q516 28 535 28Q569 28 595 136Q600 155 604 158T627 162Q655 162 655 148ZM611 651Q611 619 572 597L419 508Q409 502 403 502Q392 502 384 515T375 535Q375 544 387 554L509 668Q542 699 564 699Q583 699
597 686T611 651Z" />
<glyph unicode="&#xfb;" glyph-name="ucircumflex" horiz-adv-x="621" d="M655 148Q655 145 651 130T638 90T616 46Q581 -8 531 -8Q499 -8 470 5T428 43Q374 -8 309 -8Q242 -8 202 22T161 118Q161 144 171 183T189 246T221 332Q239 374 239 398Q239 416 225 416Q170
416 133 295Q130 286 125 284T105 282Q77 282 77 296Q77 306 87 329T114 381T162 431T230 452Q273 452 304 428T335 363Q335 348 321 309Q263 157 263 97Q263 28 315 28Q353 28 384 57Q404 77 409 85T417 107L486 388Q491 411 505 424T529 441T550 444Q568 444
581 433T595 401Q595 394 591 379L522 102Q516 78 516 59Q516 28 535 28Q569 28 595 136Q600 155 604 158T627 162Q655 162 655 148ZM618 519L595 497L454 596L280 497L265 519L472 704L618 519Z" />
<glyph unicode="&#xfc;" glyph-name="udieresis" horiz-adv-x="621" d="M655 148Q655 145 651 130T638 90T616 46Q581 -8 531 -8Q499 -8 470 5T428 43Q374 -8 309 -8Q242 -8 202 22T161 118Q161 144 171 183T189 246T221 332Q239 374 239 398Q239 416 225 416Q170
416 133 295Q130 286 125 284T105 282Q77 282 77 296Q77 306 87 329T114 381T162 431T230 452Q273 452 304 428T335 363Q335 348 321 309Q263 157 263 97Q263 28 315 28Q353 28 384 57Q404 77 409 85T417 107L486 388Q491 411 505 424T529 441T550 444Q568 444
581 433T595 401Q595 394 591 379L522 102Q516 78 516 59Q516 28 535 28Q569 28 595 136Q600 155 604 158T627 162Q655 162 655 148ZM406 613Q406 583 382 559T327 535Q302 535 287 550T270 589Q270 618 295 642T351 667Q377 667 391 651T406 613ZM651 613Q651
583 627 559T572 535Q547 535 532 550T515 589Q515 618 540 642T596 667Q622 667 636 651T651 613Z" />
<glyph unicode="&#xff;" glyph-name="ydieresis" horiz-adv-x="562" d="M495 -7Q476 -83 401 -142T234 -202Q178 -202 143 -178T107 -115Q107 -83 128 -61T179 -39Q197 -39 212 -49T228 -85Q228 -130 183 -151Q204 -166 235 -166Q290 -166 334 -112T393 16Q357
-8 309 -8Q242 -8 202 22T161 118Q161 144 171 183T189 246T221 332Q239 374 239 398Q239 416 225 416Q170 416 133 295Q130 286 125 284T105 282Q77 282 77 296Q77 306 87 329T114 381T162 431T230 452Q273 452 304 428T335 363Q335 348 321 309Q263 157 263 97Q263
28 315 28Q351 28 378 52Q408 77 415 104L487 390Q493 414 508 427T533 442T550 444Q568 444 581 433T595 401Q595 394 591 379L495 -7ZM376 613Q376 583 352 559T297 535Q272 535 257 550T240 589Q240 618 265 642T321 667Q347 667 361 651T376 613ZM621 613Q621
583 597 559T542 535Q517 535 502 550T485 589Q485 618 510 642T566 667Q592 667 606 651T621 613Z" />
<glyph unicode="&#x131;" glyph-name="dotlessi" horiz-adv-x="356" d="M390 148Q390 138 380 115T353 63T305 13T237 -8Q194 -8 163 16T132 81Q132 96 141 120L231 358Q239 374 239 398Q239 416 225 416Q170 416 133 295Q130 286 125 284T105 282Q77 282 77 296Q77
306 87 329T114 381T162 431T230 452Q273 452 304 428T335 363Q335 348 326 324L236 86Q228 70 228 46Q228 28 242 28Q297 28 334 149Q337 158 341 160T362 162Q390 162 390 148Z" />
<glyph unicode="&#x152;" glyph-name="OE" horiz-adv-x="1141" d="M1145 256Q1145 252 1140 239L1045 17Q1040 5 1035 3T1012 0H640Q606 0 550 -8Q486 -17 456 -17Q403 -17 357 -4T269 36T204 114T180 234Q180 313 211 394T297 545T442 659T636 703Q668 703 728
694Q784 686 811 686H1158Q1172 686 1177 685T1187 677T1189 654L1168 472Q1166 454 1161 450T1139 445Q1111 445 1111 466Q1111 467 1113 490T1116 534Q1116 565 1108 585T1090 616T1052 632T1004 638T938 639H888Q868 639 864 637T856 623L796 380H872Q932 380
958 398T999 472Q1004 489 1008 493T1030 497Q1058 497 1058 479Q1058 476 1055 466L999 240Q995 223 990 220T969 216Q941 216 941 234Q942 240 943 244Q949 280 949 288Q949 312 934 322T869 333H784L713 48Q720 47 736 47H831Q878 47 914 57T973 81T1018 125T1051
179T1083 247Q1092 267 1096 270T1117 274Q1145 274 1145 256ZM624 176L707 510Q720 559 720 599Q720 633 703 650T631 667Q558 667 496 622T396 508T337 361T316 215Q316 121 357 70T470 19Q499 19 518 23T558 43T595 91T624 176Z" />
<glyph unicode="&#x153;" glyph-name="oe" horiz-adv-x="827" d="M803 87Q803 78 782 57T709 14T593 -8Q535 -8 496 12T439 62Q361 -12 267 -12Q202 -12 154 26T106 150Q106 221 137 290T232 407T377 456Q468 456 512 387Q589 452 698 452Q753 452 790 427T827
356Q827 218 566 218H522Q508 161 508 126Q508 28 595 28Q685 28 757 109Q764 119 772 119Q779 119 791 107T803 87ZM762 357Q762 381 746 398T696 416Q635 416 590 371Q552 331 531 254Q557 254 573 254T622 257T674 267T717 284T750 313T762 357ZM387 128Q402
164 419 235T437 340Q437 381 420 400T375 420Q342 420 311 393T257 302Q212 154 212 96Q212 64 227 44T270 24Q285 24 302 30T345 62T387 128Z" />
<glyph unicode="&#x178;" glyph-name="Ydieresis" horiz-adv-x="866" d="M985 668Q985 639 955 639Q921 639 899 633T868 620T848 599L567 274L511 49Q535 47 560 47H582Q614 47 614 29Q614 16 608 9T598 1T585 0Q561 0 510 1T434 3T360 2T286 0Q264 0 264 18Q264
32 270 38T282 46T299 47H321Q350 47 361 48Q375 50 378 52T385 66L437 274L309 623Q305 632 302 634T289 638Q280 639 256 639H244Q212 639 212 657Q212 686 240 686Q262 686 308 685T378 683Q403 683 454 684T529 686Q551 686 551 668Q551 655 546 648T535 640T520
639Q491 639 459 635L562 351L803 631Q782 639 753 639Q727 639 727 657Q727 686 755 686Q773 686 812 685T870 683Q886 683 918 684T966 686Q975 686 980 681T985 668ZM557 819Q557 789 533 765T477 741Q452 741 437 756T421 795Q421 824 445 848T501 873Q527
873 542 857T557 819ZM848 819Q848 789 824 765T768 741Q743 741 728 756T712 795Q712 824 736 848T792 873Q818 873 833 857T848 819Z" />
<glyph unicode="&#x192;" glyph-name="florin" horiz-adv-x="400" d="M538 623Q538 591 517 570T467 548Q445 548 431 561T417 594Q417 636 457 658Q441 666 425 666Q401 666 391 641Q383 624 352 444H456Q488 444 488 426Q488 412 482 406T470 398T453 397H343L283
73Q274 23 257 -33Q244 -75 225 -107T189 -156T151 -185T117 -199T90 -202Q44 -202 13 -181T-19 -123Q-19 -91 2 -70T52 -48Q74 -48 88 -61T102 -94Q102 -137 61 -158Q67 -162 74 -164T86 -166H91Q127 -166 141 -98Q154 -49 166 16L236 397H150Q118 397 118 415Q118
429 124 435T136 443T153 444H245L263 542Q291 702 425 702Q475 702 506 680T538 623Z" />
<glyph unicode="&#x2c6;" glyph-name="circumflex" horiz-adv-x="591" d="M603 519L580 497L439 596L265 497L250 519L457 704L603 519Z" />
<glyph unicode="&#x2c7;" glyph-name="caron" horiz-adv-x="591" d="M643 682L436 497L290 682L313 704L454 605L628 704L643 682Z" />
<glyph unicode="&#x2d8;" glyph-name="breve" horiz-adv-x="591" d="M628 672Q628 631 569 571T428 511Q371 511 333 546T295 638Q295 690 317 690Q324 690 329 685T335 672Q335 669 334 662T332 647Q332 610 362 590T434 570Q459 570 487 577T547 610T592 674Q598
690 610 690Q618 690 623 685T628 672Z" />
<glyph unicode="&#x2d9;" glyph-name="dotaccent" horiz-adv-x="356" d="M404 614Q404 581 377 554T315 527Q287 527 270 544T253 587Q253 620 280 647T342 674Q371 674 387 656T404 614Z" />
<glyph unicode="&#x2da;" glyph-name="ring" horiz-adv-x="949" d="M686 637Q686 661 639 661Q601 661 587 646Q572 628 572 599Q572 575 619 575Q658 575 671 590Q686 609 686 637ZM748 636Q748 597 711 566T608 534Q562 534 536 551T510 600Q510 640 547 671T650
702Q697 702 722 685T748 636Z" />
<glyph unicode="&#x2db;" glyph-name="ogonek" horiz-adv-x="591" d="M369 -150Q319 -204 262 -204Q212 -204 185 -178T157 -114Q157 -84 179 -51T234 5H303Q265 -16 249 -57Q237 -88 251 -113T298 -138Q306 -138 312 -136T321 -132T329 -125T336 -119Q350 -109
365 -122Q371 -127 372 -136T369 -150Z" />
<glyph unicode="&#x2dc;" glyph-name="tilde" horiz-adv-x="591" d="M633 642Q633 630 572 580Q523 541 486 541Q454 541 418 580Q401 602 383 602Q354 602 295 551Q285 541 277 541Q268 541 264 547T259 559Q259 574 316 617Q371 660 406 660Q439 660 467 628Q492
599 509 599Q537 599 594 647Q607 660 615 660Q622 660 627 655T633 642Z" />
<glyph unicode="&#x2dd;" glyph-name="hungarumlaut" horiz-adv-x="591" d="M640 672T640 652T615 607L514 513Q509 509 504 507T496 504L494 503Q488 503 475 511T462 530Q462 536 469 547L537 665Q556 699 591 699Q612 699 626 686ZM463 672T463 652T438 607L337
513Q332 509 327 507T320 504L317 503Q311 503 298 511T285 530Q285 536 292 547L360 665Q379 699 414 699Q435 699 449 686Z" />
<glyph unicode="&#x3a9;" glyph-name="Omega" horiz-adv-x="827" d="M793 178Q793 175 722 17Q716 5 712 3T689 0H540Q508 0 508 18Q508 69 616 257Q646 311 663 344T700 436T720 543Q720 581 707 607T671 645T628 662T584 667Q477 667 406 580T335 332Q335 297
337 272Q342 203 342 145Q342 41 327 11Q322 0 297 0H148Q128 0 122 5T116 31L122 167Q123 185 128 190T151 196Q178 196 178 178L177 135Q177 112 178 108T187 102Q199 99 226 99H297Q290 146 247 238Q222 291 210 326T198 404Q198 458 223 510T294 606T416 676T584
703Q726 703 792 647T858 507Q858 466 844 427T800 347T747 282T682 214Q609 141 583 99H642Q693 99 702 111Q712 128 729 164Q740 187 745 191T765 196Q793 196 793 178Z" />
<glyph unicode="&#x2013;" glyph-name="endash" horiz-adv-x="591" d="M628 292T628 274T597 256H131Q100 256 100 274T131 292H597Q628 292 628 274Z" />
<glyph unicode="&#x2014;" glyph-name="emdash" horiz-adv-x="1182" d="M1188 292T1188 274T1157 256H162Q131 256 131 274T162 292H1157Q1188 292 1188 274Z" />
<glyph unicode="&#x2018;" glyph-name="quoteleft" horiz-adv-x="356" d="M361 442Q361 410 336 382T271 353Q235 353 219 378T203 435Q203 494 241 557T320 657T375 694Q382 694 387 688T393 674Q393 668 379 657Q283 590 248 484Q270 500 300 500Q332 500 346
482T361 442Z" />
<glyph unicode="&#x2019;" glyph-name="quoteright" horiz-adv-x="356" d="M415 611Q415 565 392 516T338 433T281 376T244 353Q236 353 231 360T226 373Q226 381 238 388Q338 458 371 564Q351 547 319 547Q290 547 274 563T258 605Q258 638 283 666T348 694Q376
694 395 675T415 611Z" />
<glyph unicode="&#x201a;" glyph-name="quotesinglbase" horiz-adv-x="356" d="M269 61Q269 15 246 -34T192 -117T135 -174T98 -197Q90 -197 85 -190T80 -177Q80 -169 92 -162Q192 -92 225 14Q205 -3 173 -3Q144 -3 128 13T112 55Q112 88 137 116T202 144Q230
144 249 125T269 61Z" />
<glyph unicode="&#x201c;" glyph-name="quotedblleft" horiz-adv-x="590" d="M596 442Q596 410 571 382T506 353Q470 353 454 378T438 435Q438 494 476 557T555 657T610 694Q617 694 622 688T628 674Q628 668 614 657Q518 590 483 484Q505 500 535 500Q567 500
581 482T596 442ZM361 442Q361 410 336 382T271 353Q235 353 219 378T203 435Q203 494 241 557T320 657T375 694Q382 694 387 688T393 674Q393 668 379 657Q283 590 248 484Q270 500 300 500Q332 500 346 482T361 442Z" />
<glyph unicode="&#x201d;" glyph-name="quotedblright" horiz-adv-x="590" d="M649 611Q649 565 626 516T572 433T515 376T478 353Q470 353 465 360T460 373Q460 381 472 388Q572 458 605 564Q585 547 553 547Q524 547 508 563T492 605Q492 638 517 666T582 694Q610
694 629 675T649 611ZM414 611Q414 565 391 516T337 433T280 376T243 353Q235 353 230 360T225 373Q225 381 237 388Q337 458 370 564Q350 547 318 547Q290 547 274 563T257 605Q257 638 282 666T347 694Q375 694 394 675T414 611Z" />
<glyph unicode="&#x201e;" glyph-name="quotedblbase" horiz-adv-x="590" d="M511 61Q511 15 488 -34T434 -117T377 -174T340 -197Q332 -197 327 -190T322 -177Q322 -169 334 -162Q434 -92 467 14Q447 -3 415 -3Q386 -3 370 13T354 55Q354 88 379 116T444 144Q472
144 491 125T511 61ZM276 61Q276 15 253 -34T199 -117T142 -174T105 -197Q97 -197 92 -190T87 -177Q87 -169 99 -162Q199 -92 232 14Q212 -3 180 -3Q152 -3 136 13T119 55Q119 88 144 116T209 144Q237 144 256 125T276 61Z" />
<glyph unicode="&#x2020;" glyph-name="dagger" horiz-adv-x="511" d="M558 443Q553 422 534 405T487 388Q460 388 414 414Q394 425 377 428Q374 403 378 359Q381 303 380 286T369 231Q345 137 310 29T256 -130T229 -200Q223 -211 202 -211Q185 -211 184 -204Q182
-199 187 -156Q212 47 258 231Q265 258 268 269T281 301T309 353Q338 402 348 428Q325 423 288 407Q244 388 218 388T181 404T175 444Q180 465 199 482T246 499T319 473Q339 462 356 459Q359 479 357 542Q353 609 361 643Q368 674 389 688T432 702Q451 702 465
689T472 643T423 537Q395 486 385 459Q408 464 445 480Q489 499 515 499T552 483T558 443Z" />
<glyph unicode="&#x2021;" glyph-name="daggerdbl" horiz-adv-x="511" d="M566 476Q564 466 558 456T535 433T495 421Q466 421 423 446Q409 453 386 460Q384 438 388 402Q395 336 388 308Q381 279 361 265T318 250Q298 250 284 264T277 308Q285 339 323 401Q345
434 355 460Q332 455 310 445Q255 421 226 421Q203 421 192 432T181 456T183 476Q189 499 208 515T253 531Q283 531 327 506Q340 498 363 492Q365 514 362 550Q353 612 361 644Q369 673 389 687T432 702Q452 702 465 688T472 644Q464 613 426 551Q407 521 394 492Q417
497 454 513Q494 531 524 531Q550 531 561 515T566 476ZM453 23Q448 2 429 -15T382 -32T324 -14Q286 4 273 8Q271 -15 275 -55Q283 -113 275 -144Q268 -173 248 -187T205 -202Q185 -202 171 -188T164 -144Q171 -116 205 -62Q231 -20 242 8Q222 3 183 -13Q139 -32
113 -32T76 -16T70 24Q75 45 94 62T141 79Q167 79 215 54Q232 43 250 39Q252 62 248 102Q240 160 248 191Q255 220 275 234T318 249Q338 249 352 235T359 191Q352 163 318 109Q292 67 281 39Q306 46 340 60Q384 79 410 79T447 63T453 23Z" />
<glyph unicode="&#x2022;" glyph-name="bullet" horiz-adv-x="886" d="M661 260Q661 186 601 129T468 72Q416 72 378 104T340 198Q340 275 400 330T530 386Q588 386 624 351T661 260Z" />
<glyph unicode="&#x2026;" glyph-name="ellipsis" horiz-adv-x="842" d="M271 88Q271 53 243 27T181 0Q157 0 139 15T121 59Q121 95 149 121T210 147Q237 147 254 131T271 88ZM514 88Q514 53 486 27T424 0Q400 0 382 15T364 59Q364 95 392 121T453 147Q480 147
497 131T514 88ZM757 88Q757 53 729 27T667 0Q643 0 625 15T607 59Q607 95 635 121T696 147Q723 147 740 131T757 88Z" />
<glyph unicode="&#x2030;" glyph-name="perthousand" horiz-adv-x="1222" d="M1135 222Q1135 164 1113 102T1045 -8T940 -56Q895 -56 858 -26T821 77Q821 137 845 198T920 303T1034 347Q1072 347 1103 320T1135 222ZM862 732T862 719T849 693L144 -42Q130 -56
118 -56Q107 -56 98 -48T88 -25Q88 -13 104 3L699 626H698Q651 611 599 611Q514 611 447 651Q448 644 448 626Q448 584 435 537T398 446T336 375T253 347Q236 347 219 352T181 369T147 410T134 480Q134 542 159 603T235 707T346 750Q387 750 423 716Q493 646 600
646Q722 646 805 737Q818 750 831 750T853 741ZM789 222Q789 164 767 102T699 -8T594 -56Q549 -56 512 -26T475 77Q475 137 499 198T574 303T688 347Q726 347 757 320T789 222ZM1081 230Q1081 311 1033 311Q1006 311 984 283T948 213T925 131T912 60L908 32Q908
7 917 -6T943 -20Q981 -20 1014 25T1064 128T1081 230ZM394 634Q394 641 393 650T388 676T373 703T346 714Q326 714 303 695T263 624Q251 589 236 528T221 435Q221 411 230 397T256 383Q294 383 327 428T377 531T394 634ZM735 230Q735 311 687 311Q660 311 638
283T602 213T579 131T566 60L562 32Q562 7 571 -6T597 -20Q635 -20 668 25T718 128T735 230Z" />
<glyph unicode="&#x2039;" glyph-name="guilsinglleft" horiz-adv-x="409" d="M295 16Q294 10 289 5T277 0H269Q260 0 258 9Q246 132 175 226Q168 237 180 246Q295 337 372 463Q377 472 387 472H395Q402 472 404 467T405 456Q353 336 280 236Q303 136 295 16Z" />
<glyph unicode="&#x203a;" glyph-name="guilsinglright" horiz-adv-x="409" d="M347 226Q232 135 155 9Q150 0 140 0H132Q125 0 123 5T122 16Q173 134 246 236Q224 338 232 456Q233 462 238 467T250 472H258Q267 472 269 463Q281 340 352 246Q359 237 347 226Z" />
<glyph unicode="&#x2044;" glyph-name="fraction" horiz-adv-x="713" d="M789 666Q788 657 779 648L145 2Q131 -10 117 -10Q105 -10 99 -2T95 20Q98 31 105 38L739 684Q753 696 767 696Q779 696 785 688T789 666Z" />
<glyph unicode="&#x20ac;" glyph-name="Euro" horiz-adv-x="664" d="M604 -3Q600 -17 587 -17H577Q572 -17 569 -14L535 17Q478 -17 417 -17Q352 -17 301 8T221 82Q181 150 189 253H133Q126 253 124 258T124 271L135 291Q140 301 151 301H195Q198 322 204 343Q208
364 216 385H166Q159 385 157 390T157 403L168 423Q173 433 184 433H234Q277 536 351 604Q459 703 597 703Q657 703 698 670L748 700Q751 703 757 703H767Q780 703 777 689L742 546Q738 532 724 532H690Q677 532 679 544Q685 590 665 622T604 655Q561 655 519 634T445
575Q399 520 372 433H632Q639 433 642 428T641 415L631 395Q626 385 615 385H358L348 343L337 301H562Q569 301 572 296T571 283L560 263Q555 253 544 253H327Q311 164 329 111Q342 74 373 53T448 31Q489 31 525 63T579 142Q582 154 596 154H630Q635 154 638 150T640
140L604 -3Z" />
<glyph unicode="&#x2122;" glyph-name="trademark" horiz-adv-x="1121" d="M575 557Q574 550 572 547T567 543T557 542Q541 542 541 553Q541 555 542 561Q547 591 547 609Q547 638 533 648T475 658H454Q447 657 445 656T442 648L358 311Q382 309 400 309H427Q446
309 446 299Q446 281 427 281L309 283L193 281Q179 281 179 292Q179 309 200 309H227Q240 309 251 309T270 311L276 312L362 657Q352 658 337 658Q280 658 258 638T214 554Q211 545 209 544T196 542Q179 542 179 552L191 588L221 675Q224 683 227 684T241 686H574Q593
686 593 675Q593 672 592 666L575 557ZM1215 693T1215 682T1210 668T1194 665L1157 664Q1149 663 1147 662T1143 653L1058 311Q1059 311 1071 310T1087 309H1100Q1119 309 1119 299Q1119 281 1102 281Q1088 281 1058 282T1014 283T972 282T929 281Q916 281 916
292Q916 309 937 309H950Q960 309 974 311Q986 311 988 320L1071 654H1070L834 296Q824 281 810 281Q801 281 798 285T792 299L737 645H736L654 315Q668 309 695 309Q714 309 714 299Q714 281 698 281Q687 281 663 282T626 283T591 282T557 281Q545 281 545 292Q545
309 566 309Q579 309 600 312Q612 315 614 317T619 327L703 663Q689 665 674 665H660Q641 665 641 675Q641 693 662 693H778Q791 693 795 691T800 676L850 365L1058 679Q1067 693 1085 693H1196Q1215 693 1215 682Z" />
<glyph unicode="&#x221a;" glyph-name="radical" horiz-adv-x="531" d="M774 722Q771 695 738 695H656Q651 695 648 693T643 690T639 684T636 678Q589 591 459 340T251 -46Q250 -49 246 -56T241 -66T236 -75T229 -83T222 -89T212 -93T199 -94Q183 -94 179 -88T174
-68V-12L176 236Q170 230 159 219T142 201Q141 200 134 191T122 179T112 171T99 166Q92 166 87 171T82 184Q82 192 99 209L205 318L208 322Q211 326 215 330T223 338T233 346T243 349Q261 349 261 325V286Q261 281 261 272T260 257V150Q260 142 260 125T259 100H260Q263
106 305 185L585 713Q586 715 589 721T594 730T599 738T605 746T612 751T621 755T633 756H717Q720 756 727 756T738 757Q754 757 764 749T774 726V722Z" />
<glyph unicode="&#x221e;" glyph-name="infinity" horiz-adv-x="1060" d="M508 191L476 250Q460 279 450 295T422 333T383 364T335 374Q278 374 229 329T165 222Q147 152 171 100T256 48Q378 48 508 191ZM1007 222Q1024 293 1000 344T915 396Q793 396 663 253L695
194Q711 165 721 149T749 111T788 80T836 70Q893 70 942 115T1007 222ZM1071 222Q1045 119 960 45T778 -29Q705 -29 647 6T556 102L547 119Q404 -26 265 -26Q169 -26 122 47T101 222Q126 325 211 399T393 473Q466 473 524 438T615 342L624 325Q767 470 906 470Q1001
470 1048 397T1071 222Z" />
<glyph unicode="&#xfb01;" glyph-name="f_i" horiz-adv-x="674" d="M708 148Q708 145 704 130T691 90T669 46Q634 -8 584 -8Q538 -8 503 18T468 89Q468 102 472 118L542 397H331L273 81Q255 -11 232 -71Q208 -131 167 -166T83 -202Q41 -202 11 -181T-19 -123Q-19
-91 2 -70T52 -48Q74 -48 88 -61T102 -94Q102 -113 91 -131T59 -159Q64 -162 70 -164T81 -166H85Q115 -166 131 -95Q143 -42 155 20L224 397H138Q106 397 106 415Q106 429 112 435T124 443T141 444H233Q243 502 250 532T275 598T323 657Q348 677 383 688T444 700T510
702Q545 702 568 700T627 691T682 665T701 617Q701 582 679 561T630 540Q608 540 594 553T580 586Q580 628 620 650Q584 666 511 666Q485 666 468 665T434 658T409 648T390 628T375 601T363 561T352 511T340 444H628Q656 444 656 430Q656 423 654 417L575 103Q569
82 569 59Q569 28 588 28Q622 28 648 136Q653 155 657 158T680 162Q708 162 708 148Z" />
<glyph unicode="&#xfb02;" glyph-name="f_l" horiz-adv-x="704" d="M738 148Q738 145 734 130T721 90T699 46Q664 -8 614 -8Q568 -8 533 18T498 89Q498 102 502 118L572 397H331L273 80Q267 47 249 -19Q233 -76 210 -115T163 -172T119 -195T83 -202Q41 -202 11
-181T-19 -123Q-19 -91 2 -70T52 -48Q74 -48 88 -61T102 -94Q102 -121 87 -138T59 -160Q68 -166 85 -166Q114 -166 131 -96Q142 -51 153 8L225 397H138Q107 397 107 415Q107 429 112 435T124 443T141 444H233L248 524Q256 566 270 597T305 647T345 678T391 694T434
700T475 702Q624 702 627 623H628L639 666Q644 686 648 690T671 694H721Q749 694 749 680Q749 677 745 662L605 102Q599 78 599 59Q599 28 618 28Q652 28 678 136Q683 155 687 158T710 162Q738 162 738 148ZM584 444L618 583H617Q615 578 609 571T587 556T556 548Q534
548 520 561T506 594Q506 633 541 655Q516 666 478 666Q448 666 428 661T397 645T382 627T374 606Q361 568 340 444H584Z" />
</font>
</defs>
</svg>
