<?xml version="1.0" standalone="no"?> <!DOCTYPE svg PUBLIC "-//W3C//DTD SVG 1.0//EN" "http://www.w3.org/TR/2001/REC-SVG-20010904/DTD/svg10.dtd" > <svg xmlns="http://www.w3.org/2000/svg" width="100%" height="100%">
<defs >
<font id="LMRomanCaps10-Regular" horiz-adv-x="633" ><font-face
    font-family="LM Roman Caps 10"
    units-per-em="1000"
    panose-1="0 0 5 0 0 0 0 0 0 0"
    ascent="908"
    descent="-250"
    alphabetic="0" />
<missing-glyph horiz-adv-x="364" d="M33 0V666H298V0H33ZM66 33H265V633H66V33Z" />
<glyph unicode=" " glyph-name="space" horiz-adv-x="378" />
<glyph unicode="!" glyph-name="exclam" horiz-adv-x="319" d="M212 665L173 209Q172 187 159 187Q153 187 150 190T147 197T145 210L106 665Q106 688 122 702T159 716T196 702T212 665ZM212 75T212 53T197 16T159 0T122 15T106 53T121 90T159 106T196 91Z" />
<glyph unicode="&quot;" glyph-name="quotedbl" horiz-adv-x="415" d="M195 670L173 423H147L125 670Q124 685 134 695T160 705T185 695T195 670ZM291 670L269 423H243L221 670Q220 685 230 695T256 705T281 695T291 670Z" />
<glyph unicode="#" glyph-name="numbersign" horiz-adv-x="903" d="M830 173T830 153T797 133H559L472 -171Q470 -179 468 -183T462 -191T451 -194Q443 -194 437 -188T431 -174Q431 -172 433 -165T435 -156L518 133H317L230 -171Q228 -179 226 -183T220 -191T209
-194Q201 -194 195 -188T189 -174Q189 -172 191 -165T193 -156L276 133H105Q72 133 72 153T106 173H288L331 327H106Q72 327 72 347T105 367H343L430 671Q432 679 434 683T440 691T451 694Q459 694 465 688T471 674Q471 672 469 665T467 656L384 367H585L672 671Q674
679 676 683T682 691T693 694Q701 694 707 688T713 674Q713 672 711 665T709 656L626 367H797Q830 367 830 347T796 327H614L571 173H796Q830 173 830 153ZM573 327H372L329 173H530L573 327Z" />
<glyph unicode="$" glyph-name="dollar" horiz-adv-x="553" d="M480 195Q480 116 427 57T292 -10V-56H261V-11Q168 -6 120 48T72 178Q72 195 78 206T93 222T107 227T118 229Q137 229 150 216T164 183T151 150T118 137Q110 137 102 139Q115 85 156 55T261 20V319Q225
327 209 332T170 349T127 382Q72 437 72 513Q72 586 125 642T261 704V750H292V705Q382 700 431 651T480 529Q480 507 468 495T448 481T434 479Q416 479 402 491T388 525Q388 546 401 558T434 571Q445 571 449 569Q439 612 399 641T292 674V403Q324 395 341 390T381
372T422 338Q480 276 480 195ZM261 410V673Q199 667 161 629T123 543Q123 441 261 410ZM429 165Q429 225 387 265Q354 298 292 311V21Q357 29 393 71T429 165Z" />
<glyph unicode="%" glyph-name="percent" horiz-adv-x="903" d="M742 730Q742 723 733 712L201 -42Q191 -56 180 -56Q172 -56 166 -50T160 -36Q160 -29 170 -15L642 652L641 653Q579 618 502 618Q411 618 341 662Q364 610 364 548Q364 464 324 406T226 347Q165
347 119 404T72 549Q72 634 118 692T226 750Q267 750 300 719Q390 640 502 640Q627 640 701 735Q713 750 722 750Q730 750 736 744T742 730ZM830 145Q830 61 790 3T692 -56Q631 -56 585 1T538 146Q538 231 584 289T692 347Q750 347 790 289T830 145ZM339 549Q339
626 305 677T228 728Q220 728 211 726T187 714T161 685T142 632T134 548T142 465T161 412T187 384T211 371T228 369Q271 369 305 420T339 549ZM805 146Q805 223 771 274T694 325Q686 325 677 323T653 311T627 282T608 229T600 145T608 62T627 9T653 -19T677 -32T694
-34Q737 -34 771 17T805 146Z" />
<glyph unicode="&amp;" glyph-name="ampersand" horiz-adv-x="844" d="M777 400Q735 400 706 386T665 357T631 309Q579 226 549 183T480 95Q509 66 526 52T571 24T626 9Q668 9 706 37T746 121H771Q770 58 727 18T622 -22Q530 -22 438 54Q346 -22 248 -22Q169 -22
114 21T58 128Q58 153 67 174T88 209T124 248L228 352Q187 466 187 555Q187 630 230 673T327 716Q359 716 380 694T409 644T417 587Q417 516 297 393L291 383Q291 373 312 333T375 230T464 115Q508 166 540 213Q589 282 622 339Q626 347 626 358Q626 378 607 389T558
400V431Q598 428 680 428L777 431V400ZM392 587Q392 595 391 606T384 641T365 679T328 694Q299 694 275 666T250 577Q250 496 281 408Q392 523 392 587ZM419 72Q294 200 238 331Q180 274 161 244T141 159Q141 103 170 56T256 9Q339 9 419 72Z" />
<glyph unicode="&apos;" glyph-name="quotesingle" horiz-adv-x="319" d="M195 670L173 423H147L125 670Q124 685 134 695T160 705T185 695T195 670Z" />
<glyph unicode="(" glyph-name="parenleft" horiz-adv-x="436" d="M362 -240Q362 -250 352 -250Q346 -250 323 -233T264 -174T197 -78T142 65T119 250Q119 375 158 487T273 683Q290 702 316 726T352 750Q362 750 362 740Q362 737 358 731Q335 709 319 691T273
629T225 538T192 414T177 250Q177 -62 358 -231Q362 -235 362 -240Z" />
<glyph unicode=")" glyph-name="parenright" horiz-adv-x="436" d="M316 348T316 250T293 65T238 -78T170 -174T112 -232T84 -250Q73 -250 73 -240Q73 -237 77 -231Q176 -138 217 -16Q258 107 258 250Q258 563 78 730Q73 736 73 740Q73 750 84 750Q89 750 112
733T170 674T237 578T293 436Z" />
<glyph unicode="*" glyph-name="asterisk" horiz-adv-x="553" d="M469 441Q469 428 461 421T442 413Q434 413 423 421L287 515L301 367L303 345Q303 333 295 326T276 319Q262 319 254 329T250 346V351L265 515L130 421Q119 413 110 413Q99 413 91 420T83 441Q83
458 105 468L253 535L104 602Q83 612 83 628Q83 641 91 648T110 656Q118 656 129 648L265 554L251 702L249 724Q249 736 257 743T276 750Q304 750 302 713L287 554L422 648Q433 656 442 656Q453 656 461 649T469 628Q469 611 447 601L299 534L448 467Q469 457 469
441Z" />
<glyph unicode="+" glyph-name="plus" horiz-adv-x="844" d="M771 270T771 250T738 230H442V-67Q442 -100 422 -100T402 -67V230H105Q72 230 72 250T105 270H402V567Q402 600 422 600T442 567V270H738Q771 270 771 250Z" />
<glyph unicode="," glyph-name="comma" horiz-adv-x="319" d="M224 1Q224 -32 216 -64T195 -118T169 -158T145 -184T131 -193Q120 -193 120 -182Q120 -177 130 -169Q202 -97 202 1Q202 13 200 19Q186 0 159 0Q134 0 120 16T106 53T120 90T159 106Q191 106 207 76T224 1Z" />
<glyph unicode="-" glyph-name="hyphen" horiz-adv-x="378" d="M305 187H26V245H305V187Z" />
<glyph unicode="." glyph-name="period" horiz-adv-x="319" d="M212 75T212 53T197 16T159 0T122 15T106 53T121 90T159 106T196 91Z" />
<glyph unicode="/" glyph-name="slash" horiz-adv-x="553" d="M480 730Q480 724 475 712L113 -230Q106 -250 92 -250Q84 -250 78 -244T72 -230Q72 -224 77 -212L439 730Q446 750 460 750Q468 750 474 744T480 730Z" />
<glyph unicode="0" glyph-name="zero" horiz-adv-x="553" d="M495 320Q495 167 452 84Q395 -22 276 -22Q159 -22 102 80Q57 162 57 320Q57 472 101 560Q128 612 175 639T276 666Q328 666 375 640T449 562Q495 475 495 320ZM412 331Q412 483 398 536Q390 569 374
592T339 626T305 640T276 644Q239 644 202 618T151 526Q140 469 140 331Q140 179 153 118Q167 54 202 27T276 0Q289 0 302 3T337 18T375 56T400 125Q412 184 412 331Z" />
<glyph unicode="1" glyph-name="one" horiz-adv-x="553" d="M453 0Q417 3 285 3T117 0V31H152Q199 31 220 37T244 51T248 79V598Q192 571 111 571V602Q235 602 299 666Q316 666 319 662T322 640V79Q322 59 325 51T350 37T418 31H453V0Z" />
<glyph unicode="2" glyph-name="two" horiz-adv-x="553" d="M486 174L458 0H66Q66 18 67 23T76 35L293 264Q395 373 395 472Q395 541 356 588T250 635Q200 635 161 607T106 533Q109 534 118 534Q143 534 157 519T171 482Q171 455 154 442T119 429Q112 429 103
430T80 446T66 485Q66 556 121 611T263 666Q358 666 422 612T486 472Q486 439 477 411T447 356T411 313T364 268Q356 261 324 235T283 200L147 77H340Q429 77 436 84Q447 93 461 174H486Z" />
<glyph unicode="3" glyph-name="three" horiz-adv-x="553" d="M494 171Q494 94 431 36T271 -22Q183 -22 121 22T58 135Q58 165 75 179T114 193Q137 193 153 178T170 137T152 95T105 82Q124 51 160 33T222 10T268 6Q317 6 354 44T391 171Q391 249 358 293T263 337H213Q198
337 194 338T189 348T193 357T213 360Q266 363 288 370T331 401Q373 452 373 529Q373 587 343 614T269 641Q229 641 188 626T128 579Q189 579 189 529Q189 507 175 493T138 478Q116 478 102 492T87 530Q87 589 141 627T273 666T408 627T465 528Q465 477 430 428T319
352Q399 337 446 286T494 171Z" />
<glyph unicode="4" glyph-name="four" horiz-adv-x="553" d="M509 165H402V78Q402 49 414 40T481 31H504V0Q467 3 364 3Q260 3 223 0V31H246Q300 31 312 40T325 78V165H43V196L365 663Q373 673 376 675T386 677Q392 677 395 676T400 671T402 664T402 651V196H509V165ZM331
196V574L71 196H331Z" />
<glyph unicode="5" glyph-name="five" horiz-adv-x="553" d="M486 201Q486 108 419 43T258 -22Q175 -22 121 34T66 162Q66 190 81 202T115 214Q138 214 151 200T165 165T152 131T115 116Q104 116 98 118Q114 70 157 38T256 6Q326 6 368 67Q397 112 397 207Q397
299 372 344Q340 398 285 398Q200 398 152 332Q141 319 134 319Q125 319 123 324T121 345V642Q121 666 131 666Q134 666 143 661Q210 634 283 634T422 661L435 666Q445 666 445 655Q445 650 437 639T411 612T370 584T314 561T245 551Q198 551 152 565V367Q205 420
287 420Q372 420 429 355T486 201Z" />
<glyph unicode="6" glyph-name="six" horiz-adv-x="553" d="M494 204Q494 106 430 42T278 -22Q236 -22 199 -5T130 49T78 154T58 317Q58 472 141 569T334 666Q400 666 434 635T468 558Q468 532 453 521T422 510Q404 510 390 522T376 556Q376 601 430 601Q403 641
336 641Q318 641 298 637T250 614T201 566T164 479T148 346V322Q163 362 197 394T284 426Q323 426 355 414T399 391T433 361Q494 299 494 204ZM404 204Q404 304 383 341Q348 404 283 404T184 349T150 226Q150 137 170 85Q173 76 180 66T199 40T232 16T278 6Q341
6 378 60Q390 79 396 104T403 149T404 204Z" />
<glyph unicode="7" glyph-name="seven" horiz-adv-x="553" d="M523 644Q523 620 514 609L372 420Q293 315 293 82V33Q293 -22 247 -22T201 33Q201 57 204 83T218 167T262 293T344 429L446 567H225Q135 567 124 562Q112 555 97 470H72L105 676H130Q132 666 134
662T149 654T186 647Q222 644 267 644H523Z" />
<glyph unicode="8" glyph-name="eight" horiz-adv-x="553" d="M494 167Q494 88 430 33T275 -22Q189 -22 124 25T58 151Q58 188 72 219T114 273T161 308T211 336Q180 355 165 365T128 396T97 442T87 499Q87 569 142 617T277 666Q352 666 408 625T465 518Q465 425
338 362L398 325Q494 265 494 167ZM421 517Q421 571 378 606T275 641Q217 641 174 613T131 538Q131 515 143 496T167 468T206 443L315 377Q329 384 343 393T376 421T408 464T421 517ZM444 132Q444 159 429 183T402 216T369 238L235 320Q173 290 141 245T108 151Q108
89 158 48T277 6Q344 6 394 41T444 132Z" />
<glyph unicode="9" glyph-name="nine" horiz-adv-x="553" d="M494 329Q494 174 416 76T230 -22Q161 -22 123 7T84 86Q84 112 99 123T130 134Q148 134 162 122T176 88Q176 70 165 56T124 42Q154 6 229 6Q256 6 282 17T337 56T385 145T404 293V324Q360 219 268 219Q214
219 181 237T115 288Q58 348 58 441Q58 493 74 530T125 601Q188 666 279 666Q320 666 356 650T424 597T475 492T494 329ZM402 420Q402 515 382 565Q381 568 378 574T367 593T347 615T318 633T280 641Q216 641 178 588Q158 560 153 529T148 440Q148 339 170 300Q205
241 269 241Q314 241 345 271T389 340T402 420Z" />
<glyph unicode=":" glyph-name="colon" horiz-adv-x="319" d="M212 400T212 378T197 341T159 325T122 340T106 378T121 415T159 431T196 416ZM212 75T212 53T197 16T159 0T122 15T106 53T121 90T159 106T196 91Z" />
<glyph unicode=";" glyph-name="semicolon" horiz-adv-x="319" d="M212 400T212 378T197 341T159 325T122 340T106 378T121 415T159 431T196 416ZM215 3Q215 -50 196 -98T157 -170T131 -193Q120 -193 120 -182Q120 -178 128 -169Q193 -95 193 11Q184 3 167 1Q164
0 159 0Q134 0 120 16T106 53T120 90T159 106Q215 106 215 3Z" />
<glyph unicode="&lt;" glyph-name="less" horiz-adv-x="844" d="M742 -19Q742 -29 736 -34T722 -39Q717 -39 705 -34L120 228Q101 237 101 250Q101 262 121 272L721 540Q742 538 742 519Q742 517 742 515T741 511T738 508T736 505T733 503T730 502T726 500L723
498L170 250L723 2Q724 2 725 1Q742 -7 742 -19Z" />
<glyph unicode="=" glyph-name="equal" horiz-adv-x="844" d="M771 367T771 347T737 327H106Q72 327 72 347T105 367H738Q771 367 771 347ZM771 173T771 153T738 133H105Q72 133 72 153T106 173H737Q771 173 771 153Z" />
<glyph unicode="&gt;" glyph-name="greater" horiz-adv-x="844" d="M742 250Q742 238 722 228L122 -40Q112 -39 107 -33T101 -20Q101 -8 120 2L673 250L120 498Q101 508 101 520Q101 527 107 533T121 539Q126 539 138 534L723 272Q742 263 742 250Z" />
<glyph unicode="?" glyph-name="question" horiz-adv-x="524" d="M451 570Q451 507 400 471Q260 378 260 249V214Q260 203 260 199T256 191T247 187Q239 187 237 191T235 211V255Q235 384 335 484Q368 517 368 574Q368 595 366 609T353 642T317 672T249 683Q149
683 109 615Q164 615 164 570Q164 550 152 537T118 524Q99 524 86 536T72 572Q72 626 121 665T252 705Q359 705 405 664T451 570ZM300 75T300 53T285 16T247 0T210 15T194 53T209 90T247 106T284 91Z" />
<glyph unicode="@" glyph-name="at" horiz-adv-x="844" d="M771 340Q771 128 664 128Q628 128 598 147T561 201Q507 128 421 128Q336 128 274 191T212 347T274 502T421 566Q513 566 570 481H607Q624 481 627 478T631 457V217Q631 150 668 150Q713 150 729 199T746
336Q746 443 697 524T575 644T421 683Q288 683 193 585T97 347Q97 211 190 111T426 11Q567 11 715 75Q721 78 738 78H747Q757 78 760 78T767 75T770 68Q770 60 711 38Q570 -11 427 -11Q273 -11 173 96T72 347Q72 495 174 600T422 705Q561 705 666 603T771 340ZM562
265V429Q562 444 560 450T547 473Q496 544 422 544Q365 544 323 487T281 347T323 207T422 150Q500 150 550 226Q562 245 562 265Z" />
<glyph unicode="A" glyph-name="A" horiz-adv-x="814" d="M765 0L634 3Q526 3 490 0V31Q572 31 572 60Q572 65 567 78L510 231H244L196 101Q191 89 191 81Q191 61 210 46T265 31V0L149 3Q111 3 48 0V31Q79 31 101 38T136 58T152 79T162 100L383 697Q387 708 391
712T406 716Q418 716 421 713T431 694L663 68Q671 46 686 39T747 31H765V0ZM499 262L377 592L255 262H499Z" />
<glyph unicode="B" glyph-name="B" horiz-adv-x="771" d="M698 183Q698 110 632 55T464 0H58V31H82Q136 31 148 40T161 78V605Q161 634 149 643T82 652H58V683H436Q535 683 602 633T669 514Q669 458 619 415T494 357Q584 347 641 297T698 183ZM572 514Q572 564
536 608T429 652H293Q259 652 252 645T244 612V366H400Q480 366 526 411T572 514ZM598 124T598 184T558 294T445 344H244V71Q244 45 251 38T293 31H431Q507 31 552 77Z" />
<glyph unicode="C" glyph-name="C" horiz-adv-x="786" d="M713 233Q713 137 636 58T438 -22Q288 -22 180 84T72 342Q72 493 180 599T437 705Q548 705 634 616L686 693Q694 705 702 705T711 701T713 681V444Q713 428 711 424T697 420Q690 420 687 421T683 426T681
437Q664 548 599 611T449 674Q423 674 394 668T323 641T251 586T198 489T175 341Q175 261 195 200T246 103T316 46T388 16T451 9Q541 9 611 70T688 234Q689 239 689 241T690 245T693 249T700 250Q713 250 713 233Z" />
<glyph unicode="D" glyph-name="D" horiz-adv-x="829" d="M756 336Q756 196 662 98T435 0H57V31H81Q135 31 147 40T160 78V605Q160 634 148 643T81 652H57V683H435Q568 683 662 581T756 336ZM656 336Q656 485 600 558Q529 652 408 652H295Q261 652 254 645T246
612V71Q246 45 253 38T295 31H408Q521 31 591 109Q656 184 656 336Z" />
<glyph unicode="E" glyph-name="E" horiz-adv-x="742" d="M698 258L656 0H55V31H79Q133 31 145 40T158 78V602Q158 631 146 640T79 649H55V680H641L669 455H644Q638 512 628 546T595 605T535 639T439 649H296Q262 649 255 642T247 609V369H345Q416 369 437 393T458
486H483V221H458Q458 290 437 314T345 338H247V71Q247 45 254 38T296 31H447Q500 31 536 41T595 66T633 112T656 174T673 258H698Z" />
<glyph unicode="F" glyph-name="F" horiz-adv-x="713" d="M653 455H628Q621 512 612 545T581 603T523 639T429 649H296Q262 649 255 642T247 609V356H341Q411 356 431 380T451 473H476V208H451Q451 277 431 301T341 325H247V79Q247 58 250 50T275 37T342 31H375V0Q339
3 207 3Q90 3 55 0V31H79Q133 31 145 40T158 78V602Q158 631 146 640T79 649H55V680H625L653 455Z" />
<glyph unicode="G" glyph-name="G" horiz-adv-x="851" d="M785 242Q736 242 724 236T712 198V24Q712 1 703 1Q695 1 672 23T639 63Q614 21 559 0T439 -22Q287 -22 180 84T72 342Q72 492 179 598T437 705Q474 705 506 697T565 671T603 644T633 616L685 693Q693
705 701 705T710 701T712 681V444Q712 428 710 424T696 420Q689 420 686 421T682 426T680 437Q663 549 598 611T449 674Q420 674 389 667T318 638T248 582T196 485T175 342T196 200T247 103T318 46T391 16T456 9Q467 9 479 9T519 16T568 34T606 71T623 130V194Q623
214 620 222T595 236T527 242H492V273Q528 270 658 270L785 273V242Z" />
<glyph unicode="H" glyph-name="H" horiz-adv-x="814" d="M758 0Q723 3 610 3Q498 3 463 0V31H487Q541 31 553 40T566 78V340H247V78Q247 49 259 40T326 31H350V0Q315 3 202 3Q90 3 55 0V31H79Q133 31 145 40T158 78V605Q158 634 146 643T79 652H55V683Q90 680
203 680Q315 680 350 683V652H326Q272 652 260 643T247 605V371H566V605Q566 634 554 643T487 652H463V683Q498 680 611 680Q723 680 758 683V652H734Q680 652 668 643T655 605V78Q655 49 667 40T734 31H758V0Z" />
<glyph unicode="I" glyph-name="I" horiz-adv-x="406" d="M355 0Q320 3 202 3Q85 3 50 0V31H76Q132 31 145 40T158 78V605Q158 634 145 643T76 652H50V683Q85 680 203 680Q320 680 355 683V652H329Q273 652 260 643T247 605V78Q247 49 260 40T329 31H355V0Z" />
<glyph unicode="J" glyph-name="J" horiz-adv-x="567" d="M498 652Q447 652 434 646T421 610V166Q421 131 420 125Q411 59 356 19T229 -22Q157 -22 110 17T62 112Q62 142 79 156T118 170Q140 170 157 155T174 114Q174 58 110 58Q125 33 157 17T226 0Q270 0 302
40T335 149V604Q335 625 331 633T306 646T237 652H201V683Q239 680 369 680L498 683V652Z" />
<glyph unicode="K" glyph-name="K" horiz-adv-x="843" d="M785 0L669 3Q561 3 526 0V31Q583 31 583 60Q583 73 567 94L373 365L247 251V78Q247 49 259 40T326 31H350V0Q315 3 202 3Q90 3 55 0V31H79Q133 31 145 40T158 78V605Q158 634 146 643T79 652H55V683Q90
680 203 680Q315 680 350 683V652H326Q272 652 260 643T247 605V285L580 585Q601 605 601 620Q601 626 599 632T586 645T558 652V683Q592 680 685 680Q744 680 770 683V652Q688 651 623 591L434 419L674 82Q687 63 699 53T726 38T752 32T785 31V0Z" />
<glyph unicode="L" glyph-name="L" horiz-adv-x="683" d="M624 258L596 0H55V31H79Q133 31 145 40T158 78V605Q158 634 146 643T79 652H55V683Q90 680 207 680Q339 680 375 683V652H342Q296 652 275 646T251 632T247 604V71Q247 45 254 38T296 31H390Q428 31 459
39T510 58T546 89T570 126T584 170T593 213T599 258H624Z" />
<glyph unicode="M" glyph-name="M" horiz-adv-x="989" d="M929 0Q892 3 786 3Q679 3 642 0V31H666Q720 31 732 40T745 78V653L744 654L485 18Q477 0 466 0T447 18L191 647L190 646V105Q190 90 192 81T202 59T234 38T293 31V0L176 3L59 0V31Q95 31 118 38T149 58T160
81T162 105V605Q162 634 150 643T83 652H59V683H228Q245 683 251 681T262 665L494 95L726 664Q732 678 737 680T760 683H929V652H905Q851 652 839 643T826 605V78Q826 49 838 40T905 31H929V0Z" />
<glyph unicode="N" glyph-name="N" horiz-adv-x="814" d="M758 652Q722 652 699 645T668 625T657 602T655 576V28Q655 10 653 5T641 0T623 12L186 629V107Q186 91 188 82T198 59T230 38T289 31V0L172 3L55 0V31Q91 31 114 38T145 58T156 81T158 107V625Q158 641
157 643Q154 652 55 652V683H224Q239 683 243 681T256 669L627 147V576Q627 592 625 601T615 624T583 645T524 652V683L641 680L758 683V652Z" />
<glyph unicode="O" glyph-name="O" horiz-adv-x="844" d="M771 339Q771 189 669 84T421 -22Q278 -22 175 83T72 339Q72 491 174 598T422 705Q565 705 668 599T771 339ZM668 354Q668 440 645 506T584 608T505 662T421 680Q380 680 340 663T261 609T199 507T175
354Q175 263 198 193T258 83T337 24T422 4Q463 4 504 23T583 80T644 190T668 354Z" />
<glyph unicode="P" glyph-name="P" horiz-adv-x="742" d="M669 497Q669 422 597 369T430 316H249V78Q249 49 261 40T328 31H352V0Q317 3 204 3Q92 3 57 0V31H81Q135 31 147 40T160 78V605Q160 634 148 643T81 652H57V683H422Q526 683 597 628T669 497ZM566 497Q566
518 565 531T555 570T530 611T479 639T396 652H295Q261 652 254 645T246 612V342H396Q444 342 478 355T529 383T555 424T565 463T566 497Z" />
<glyph unicode="Q" glyph-name="Q" horiz-adv-x="844" d="M777 -10Q777 -34 772 -62T753 -121T713 -173T650 -194Q623 -194 603 -183T570 -157T548 -112T534 -64T522 -7Q475 -22 422 -22Q277 -22 175 83T72 339Q72 491 174 598T422 705Q565 705 668 599T771 339Q771
223 709 134T557 6Q580 -47 602 -69T659 -91T721 -70T755 -7Q757 11 766 11Q777 11 777 -10ZM671 339Q671 427 648 495T588 602T508 660T421 680Q379 680 337 661T257 604T196 497T172 339Q172 264 189 204T234 106T292 48T353 15Q338 40 338 64Q338 98 362 123T423
148Q464 148 491 121T542 41Q671 128 671 339ZM514 25Q491 126 423 126Q395 126 378 107T360 64Q360 53 364 41T383 16T422 3Q471 3 514 25Z" />
<glyph unicode="R" glyph-name="R" horiz-adv-x="800" d="M782 88Q782 75 778 59T763 23T732 -9T683 -22Q602 -22 555 19Q525 46 519 74T512 163Q512 222 507 245T474 295Q436 331 371 331H246V78Q246 49 258 40T325 31H349V0Q313 3 203 3T57 0V31H81Q135 31 147
40T160 78V605Q160 634 148 643T81 652H57V683H381Q494 683 574 630T654 503Q654 450 606 406T470 340Q528 324 562 288Q584 266 592 243T609 161Q624 63 637 32T687 0Q701 0 713 5T739 31T757 89Q759 105 769 105Q782 105 782 88ZM551 503Q551 539 542 565T513
608T475 633T427 646T379 651T332 652Q281 652 272 651Q255 649 251 642T246 612V353H367Q551 353 551 503Z" />
<glyph unicode="S" glyph-name="S" horiz-adv-x="611" d="M538 185Q538 102 480 40T331 -22Q205 -22 135 50L98 -10Q90 -22 83 -22Q75 -22 74 -17T72 2V202Q72 213 72 217T76 224T85 227Q96 227 97 218Q100 112 166 60Q231 9 330 9Q395 9 434 52T474 152Q474 205
438 247Q416 271 397 279T328 300Q320 302 304 305T279 311Q209 328 181 340T119 387Q72 441 72 511Q72 591 131 648T277 705Q321 705 358 691T410 665T446 633L483 692Q489 702 491 703T498 705Q506 705 507 701T509 681V480Q509 469 509 465T505 459T496 456Q488
456 487 459T483 474Q471 562 422 619T278 677Q216 677 176 638T136 546Q136 510 161 472T244 420L380 387Q457 368 497 310T538 185Z" />
<glyph unicode="T" glyph-name="T" horiz-adv-x="786" d="M733 452H708Q702 520 695 554T666 611T612 640T517 646Q469 646 459 644Q448 643 444 638T438 626T437 606V79Q437 59 441 51T468 37T542 31H582V0Q541 3 392 3Q244 3 203 0V31H243Q294 31 317 37T344
51T348 79V606Q348 620 347 626T342 637T326 644Q316 646 268 646Q226 646 200 644T152 633T119 613T98 577T85 525T77 452H52L71 677H714L733 452Z" />
<glyph unicode="U" glyph-name="U" horiz-adv-x="814" d="M758 652Q722 652 699 645T668 624T657 601T655 575V215Q655 131 590 55T420 -22Q313 -22 236 51T158 229V605Q158 634 146 643T79 652H55V683Q90 680 203 680Q315 680 350 683V652H326Q272 652 260 643T247
605V226Q247 173 260 132T293 69T337 32T383 13T422 9Q503 9 563 69T624 231V578Q624 593 622 602T612 624T580 645T521 652V683L640 680L758 683V652Z" />
<glyph unicode="V" glyph-name="V" horiz-adv-x="814" d="M779 652Q694 652 668 587L431 -2Q426 -14 422 -18T406 -22Q395 -22 391 -18T382 -2L133 614Q122 640 107 646T34 652V683L161 680Q270 680 305 683V652Q224 652 224 623Q224 616 229 606L436 93L633 583Q639
596 639 603Q639 621 623 636T568 652V683L682 680Q732 680 779 683V652Z" />
<glyph unicode="W" glyph-name="W" horiz-adv-x="1106" d="M1072 652Q1037 652 1014 639T984 613T970 582L769 -2Q765 -14 762 -18T749 -22Q736 -22 729 -2L552 513L376 -2Q369 -22 356 -22Q349 -22 345 -19T340 -14T336 -3L125 613Q119 632 108 640T82 650T33
652V683L155 680Q263 680 298 683V652Q214 652 214 622Q214 617 219 604L388 111L535 539L538 551Q538 554 526 589T510 631Q502 644 487 648T427 652V683L548 680Q655 680 691 683V652Q607 652 607 622Q607 620 607 618T609 612T611 607L782 111L942 579Q947 592
947 599Q947 621 924 636T862 652V683L981 680Q1027 680 1072 683V652Z" />
<glyph unicode="X" glyph-name="X" horiz-adv-x="814" d="M774 0L644 3Q532 3 497 0V31Q518 31 533 37T553 49T559 60Q559 64 551 75L383 313L229 100Q219 86 219 75Q219 60 233 46T278 31V0Q238 3 150 3L39 0V31Q142 31 188 95L364 340L167 617Q153 638 135 645T72
652H53V683L183 680Q295 680 331 683V652Q304 652 286 643T268 623Q268 617 275 608L416 411L539 581Q550 596 550 608Q550 624 535 637T491 652V683Q527 680 619 680L730 683V652Q627 652 582 589L435 384L659 67Q675 44 695 38T755 31H774V0Z" />
<glyph unicode="Y" glyph-name="Y" horiz-adv-x="814" d="M787 652Q698 650 657 588L449 273V80Q449 49 461 40T529 31H552V0Q516 3 406 3T260 0V31H284Q338 31 350 40T363 78V273L137 618Q124 638 105 645T45 652H26V683L157 680Q270 680 305 683V652Q237 652
237 628Q237 621 246 608L439 314L617 585Q628 602 628 614Q628 652 574 652V683L689 680Q740 680 787 683V652Z" />
<glyph unicode="Z" glyph-name="Z" horiz-adv-x="669" d="M602 267L585 0H98Q81 0 77 2T72 17Q72 27 79 37L492 652H321Q215 652 166 608T112 458H87L98 683H570Q579 683 582 683T590 681T595 676T596 667Q596 658 589 648L176 34H358Q427 34 470 49T536 99T566
170T577 267H602Z" />
<glyph unicode="[" glyph-name="bracketleft" horiz-adv-x="319" d="M281 -250H139V750H281V710H179V-210H281V-250Z" />
<glyph unicode="\" glyph-name="backslash" horiz-adv-x="500" d="M443 -230Q443 -238 437 -244T423 -250Q409 -250 401 -228L61 712L56 730Q56 738 62 744T76 750Q90 750 98 728L438 -212L443 -230Z" />
<glyph unicode="]" glyph-name="bracketright" horiz-adv-x="319" d="M179 -250H37V-210H139V710H37V750H179V-250Z" />
<glyph unicode="^" glyph-name="asciicircum" horiz-adv-x="556" d="M561 584L549 562L277 685L6 562L-5 584L278 744L561 584Z" />
<glyph unicode="_" glyph-name="underscore" horiz-adv-x="814" d="M814 -138H0V-112H814V-138Z" />
<glyph unicode="`" glyph-name="grave" horiz-adv-x="553" d="M341 525L324 506L165 629Q147 644 147 659Q147 672 158 683T183 695Q198 695 219 670L341 525Z" />
<glyph unicode="a" glyph-name="a" horiz-adv-x="613" d="M579 0Q507 3 482 3L376 0V25Q429 25 429 53Q429 60 408 113L386 169H179Q145 80 145 70Q145 62 147 54T160 36T190 25V0L107 3Q67 3 34 0V25Q56 26 72 33T99 53T114 75T125 99L286 512Q290 523 293 527T307
531Q321 531 329 509L501 65Q511 39 524 32T579 25V0ZM376 194L283 435L189 194H376Z" />
<glyph unicode="b" glyph-name="b" horiz-adv-x="580" d="M529 138Q529 83 479 42T348 0H46V25Q95 25 106 33T118 72V442Q118 473 107 481T46 489V514H327Q405 514 455 476T506 387Q506 345 470 313T378 269Q443 261 486 224T529 138ZM426 387Q426 399 422 413T408
446T375 477T320 489H224Q197 489 191 482T184 446V278H296Q333 278 360 289T400 319T420 354T426 387ZM446 97T446 138T419 217T334 256H184V68Q184 39 190 32T224 25H322Q384 25 415 61Z" />
<glyph unicode="c" glyph-name="c" horiz-adv-x="591" d="M540 177Q540 106 482 46T331 -14Q217 -14 134 65T51 257T134 449T331 528Q416 528 476 465L515 516Q525 528 530 528Q540 528 540 504V335Q540 324 540 320T536 314T527 311Q518 311 514 324Q501 413
450 458T337 503Q319 503 299 499T248 480T194 440T154 368T137 257Q137 195 153 148T193 75T246 35T297 15T338 11Q405 11 457 56T515 177Q516 182 516 184T517 188T520 192T527 193Q540 193 540 177Z" />
<glyph unicode="d" glyph-name="d" horiz-adv-x="624" d="M573 253Q573 149 502 75T326 0H45V25Q94 25 105 33T117 72V442Q117 473 106 481T45 489V514H326Q432 514 502 437T573 253ZM490 253Q490 368 446 424Q395 489 303 489H226Q199 489 193 482T186 446V68Q186
39 192 32T226 25H303Q402 25 454 97Q490 152 490 253Z" />
<glyph unicode="e" glyph-name="e" horiz-adv-x="558" d="M529 194L500 0H43V25Q92 25 103 33T115 72V439Q115 470 104 478T43 486V511H488L507 342H482Q473 426 444 456T329 486H227Q200 486 194 479T187 443V278H257Q311 278 327 295T343 365H368V166H343Q343
218 327 235T257 253H187V68Q187 39 193 32T227 25H335Q383 25 413 33T461 64T488 115T504 194H529Z" />
<glyph unicode="f" glyph-name="f" horiz-adv-x="536" d="M496 342H471Q463 427 434 456T322 486H227Q200 486 194 479T187 443V268H254Q308 268 323 285T339 355H364V156H339Q339 208 324 225T254 243H187V75Q187 39 202 32T277 25V0L154 3L43 0V25Q92 25 103
33T115 72V439Q115 470 104 478T43 486V511H477L496 342Z" />
<glyph unicode="g" glyph-name="g" horiz-adv-x="641" d="M595 182Q557 182 548 175T539 137V24Q539 1 530 1Q522 1 505 17T480 46Q437 -14 332 -14Q215 -14 133 65T51 257Q51 370 134 449T330 528Q418 528 475 465L514 516Q524 528 529 528Q539 528 539 504V335Q539
324 539 320T535 314T526 311Q517 311 513 324Q500 413 449 458T337 503Q318 503 297 499T246 480T193 439T154 367T137 257Q137 196 153 150T191 78T244 37T297 16T342 11Q393 11 427 31Q446 42 455 55T465 77T467 101V131Q467 163 454 172T387 182H367V207Q402
204 496 204Q546 204 595 207V182Z" />
<glyph unicode="h" glyph-name="h" horiz-adv-x="613" d="M570 0L462 3L354 0V25Q403 25 414 33T426 72V255H187V72Q187 41 198 33T259 25V0L151 3L43 0V25Q92 25 103 33T115 72V442Q115 473 104 481T43 489V514L151 511L259 514V489Q210 489 199 481T187 442V280H426V442Q426
473 415 481T354 489V514L462 511L570 514V489Q521 489 510 481T498 442V72Q498 41 509 33T570 25V0Z" />
<glyph unicode="i" glyph-name="i" horiz-adv-x="302" d="M263 0L151 3L39 0V25Q92 25 103 32T115 73V441Q115 474 104 481T39 489V514L151 511L263 514V489Q210 489 199 482T187 441V73Q187 40 198 33T263 25V0Z" />
<glyph unicode="j" glyph-name="j" horiz-adv-x="424" d="M371 489Q331 489 324 480T317 424V144Q317 98 316 92Q307 44 266 15T171 -14T82 15T46 84Q46 105 58 116T88 127Q105 127 117 115T129 86Q129 71 120 58T86 44Q116 8 169 8Q198 8 223 34T248 116V439Q248
470 236 479T172 489H154V514Q194 511 276 511Q335 511 371 514V489Z" />
<glyph unicode="k" glyph-name="k" horiz-adv-x="636" d="M595 0Q554 3 510 3L406 0V25Q438 25 438 46Q438 63 416 92L283 271L187 186V72Q187 41 198 33T259 25V0L151 3L43 0V25Q92 25 103 33T115 72V442Q115 473 104 481T43 489V514L151 511L259 514V489Q210
489 199 481T187 442V220L412 417Q445 446 445 470Q445 486 428 489V514Q470 511 521 511Q550 511 584 514V489Q558 487 541 480T473 435T331 313L504 79Q530 44 548 35T595 25V0Z" />
<glyph unicode="l" glyph-name="l" horiz-adv-x="513" d="M473 194L454 0H43V25Q92 25 103 33T115 72V442Q115 473 104 481T43 489V514L154 511L277 514V489Q217 489 202 482T187 439V68Q187 39 193 32T227 25H290Q330 25 359 36T403 60T429 100T442 144T448 194H473Z" />
<glyph unicode="m" glyph-name="m" horiz-adv-x="747" d="M700 0Q601 3 596 3L492 0V25Q541 25 552 33T564 72V484L563 485L373 18Q365 0 354 0T335 18L148 478L147 477V101Q147 25 219 25V0Q182 3 133 3L47 0V25Q119 25 119 101V442Q119 473 108 481T47 489V514H168Q185
514 191 512T202 496L374 75L545 495Q551 509 556 511T579 514H700V489Q651 489 640 481T628 442V72Q628 41 639 33T700 25V0Z" />
<glyph unicode="n" glyph-name="n" horiz-adv-x="613" d="M570 489Q498 489 498 413V26Q498 10 496 5T484 0Q475 0 467 11L153 447L143 459V101Q143 25 215 25V0Q178 3 129 3L43 0V25Q115 25 115 101V482Q95 489 43 489V514H163Q174 514 178 514T185 511T193 501L470
116V413Q470 489 398 489V514Q436 511 484 511L570 514V489Z" />
<glyph unicode="o" glyph-name="o" horiz-adv-x="636" d="M585 255Q585 142 507 64T318 -14T130 64T51 255Q51 367 129 447T318 528T507 448T585 255ZM499 266Q499 332 481 381T434 455T376 491T318 503Q290 503 261 492T203 456T156 382T137 266Q137 196 155
144T201 65T259 25T318 12T376 24T434 64T481 144T499 266Z" />
<glyph unicode="p" glyph-name="p" horiz-adv-x="558" d="M507 373Q507 316 453 275T323 234H189V72Q189 41 200 33T261 25V0L153 3L45 0V25Q94 25 105 33T117 72V442Q117 473 106 481T45 489V514H316Q399 514 453 472T507 373ZM421 351T421 373T419 409T406 444T367
477T295 489H226Q199 489 193 482T186 446V257H295Q339 257 367 268T405 301T418 337Z" />
<glyph unicode="q" glyph-name="q" horiz-adv-x="636" d="M589 -8Q589 -54 565 -99T491 -144Q471 -144 456 -136T431 -118T413 -86T401 -49T391 -4Q361 -14 318 -14Q208 -14 130 64T51 255Q51 367 129 447T318 528T507 448T585 255Q585 166 537 100T424 8Q454
-58 498 -58Q521 -58 542 -45T567 -6Q569 11 578 11Q589 11 589 -8ZM502 255Q502 321 485 371T439 449T380 490T318 503T257 490T198 450T152 372T134 255Q134 152 171 97T258 23Q251 34 251 51Q251 76 270 95T319 114Q337 114 352 107T378 86T395 64T409 39Q502
101 502 255ZM384 25Q368 92 319 92Q299 92 286 80T273 51Q273 45 274 38T287 21T318 11Q356 11 384 25Z" />
<glyph unicode="r" glyph-name="r" horiz-adv-x="602" d="M593 68Q593 54 588 37T563 3T514 -14Q444 -14 411 19Q389 41 384 59T379 124Q379 151 378 163T373 189T358 214Q326 246 276 246H186V72Q186 41 197 33T258 25V0L151 3L45 0V25Q94 25 105 33T117 72V442Q117
473 106 481T45 489V514H285Q374 514 434 474T495 379Q495 336 457 303T363 255Q398 242 419 219T445 181T456 140Q474 49 483 32Q496 8 518 8Q561 8 568 70Q568 83 580 83Q593 83 593 68ZM409 379Q409 410 399 431T375 464T337 481T296 488T250 489Q205 489 198
486Q186 480 186 446V268H274Q320 268 349 279T390 310T405 344T409 379Z" />
<glyph unicode="s" glyph-name="s" horiz-adv-x="458" d="M407 142Q407 80 363 33T248 -14Q157 -14 102 35Q88 14 83 9Q72 -7 69 -10T61 -14Q51 -14 51 10V145Q51 156 51 160T55 167T64 170Q75 170 76 161Q79 86 125 50Q173 11 248 11Q297 11 326 42T356 115Q356
164 324 190Q308 205 295 210T237 226Q162 243 139 251T95 281Q51 325 51 382Q51 442 96 485T208 528Q283 528 333 479Q347 500 352 505Q363 521 366 524T374 528Q384 528 384 504V368Q384 357 384 353T380 347T371 344Q361 344 359 354Q358 356 358 357Q356 372
353 385T340 423T316 463T273 493T209 506Q161 506 132 477T102 411Q102 385 118 361T168 322Q170 321 230 307Q299 291 320 282T368 246Q407 205 407 142Z" />
<glyph unicode="t" glyph-name="t" horiz-adv-x="591" d="M555 339H530Q523 433 498 458T391 483Q348 483 340 478T332 440V76Q332 44 345 35T413 25H434V0Q395 3 296 3T158 0V25H179Q234 25 247 34T260 76V440Q260 472 252 477T201 483Q117 483 93 458T61 339H36L50
508H541L555 339Z" />
<glyph unicode="u" glyph-name="u" horiz-adv-x="613" d="M570 489Q500 489 498 427V161Q497 99 447 43T317 -14T181 35T117 148Q115 161 115 223V440Q115 473 104 481T43 489V514L151 511L259 514V489Q210 489 199 481T187 442V173Q187 131 198 99T224 51T260
25T293 13T319 11Q377 11 425 54T473 178V413Q473 489 401 489V514Q443 511 486 511Q532 511 570 514V489Z" />
<glyph unicode="v" glyph-name="v" horiz-adv-x="613" d="M589 489Q529 485 502 423L328 9Q323 -3 320 -7T306 -11Q294 -11 286 6Q285 8 285 9L99 449Q88 475 76 482T24 489V514Q64 511 118 511L223 514V489Q172 489 172 462Q172 456 180 438L330 78L472 416Q480
434 480 446Q480 485 438 489V514Q478 511 520 511Q558 511 589 514V489Z" />
<glyph unicode="w" glyph-name="w" horiz-adv-x="836" d="M813 489Q757 486 733 417L588 9Q584 -3 581 -7T568 -11T555 -6T547 11L418 375L288 8Q277 -10 268 -11Q255 -11 248 8L89 455Q81 477 69 483T23 489V514Q64 511 113 511L218 514V489Q163 489 163 460Q163
457 164 454T166 446T168 441L291 93L400 400L404 413Q390 459 382 470Q375 482 364 485T323 489V514Q364 511 413 511L518 514V489Q464 489 464 460Q464 452 469 439L592 93L706 415Q711 430 711 440Q711 457 699 472T658 489V514L745 511Q782 511 813 514V489Z"
/>
<glyph unicode="x" glyph-name="x" horiz-adv-x="613" d="M584 0Q538 3 489 3L381 0V25Q394 26 402 31T412 42T414 52Q414 61 407 70L288 233L195 110Q171 77 171 60Q171 28 202 25V0Q160 3 110 3Q66 3 29 0V25Q74 26 102 45T157 99L272 254L134 444Q112 474 97
481T40 489V514Q85 511 136 511L243 514V489Q210 487 210 461Q210 452 219 440L314 311L393 417Q408 434 408 454Q408 485 378 489V514L470 511Q514 511 551 514V489Q480 487 432 427L330 290Q347 266 425 158T513 41Q532 25 584 25V0Z" />
<glyph unicode="y" glyph-name="y" horiz-adv-x="613" d="M594 489Q530 486 486 419L341 205V75Q341 41 352 33T413 25V0L306 3L200 0V25Q249 25 260 33T272 72V206L101 457Q87 477 72 483T19 489V514Q64 511 116 511L224 514V489Q183 489 183 469Q183 459 195
442L333 239L456 421Q471 445 471 459Q471 486 442 489V514Q482 511 524 511Q562 511 594 514V489Z" />
<glyph unicode="z" glyph-name="z" horiz-adv-x="502" d="M455 201L443 0H77Q60 0 56 2T51 15Q51 23 58 33L367 489H244Q166 489 129 457T88 345H63L71 514H425Q441 514 446 512T451 500Q451 493 444 483L136 28H266Q317 28 349 39T398 75T421 128T430 201H455Z" />
<glyph unicode="{" glyph-name="braceleft" horiz-adv-x="500" d="M427 -239Q427 -250 407 -250Q322 -250 268 -212Q233 -187 225 -161T216 -83V115Q216 150 203 175T168 213T127 232T88 239Q83 240 81 240T77 241T73 244T72 250Q72 261 86 261Q149 265 190 306Q209
326 212 348T216 444V627Q217 680 273 715T407 750Q427 750 427 739Q427 730 418 728Q386 726 362 718T329 702T307 682Q290 664 287 643T283 563V383Q283 284 165 250Q266 221 281 147Q283 137 283 56V-94Q283 -131 286 -142Q294 -174 325 -199T411 -228Q416 -229
418 -229T422 -230T426 -233T427 -239Z" />
<glyph unicode="|" glyph-name="bar" horiz-adv-x="278" d="M159 -217Q159 -250 139 -250T119 -217V717Q119 750 139 750T159 717V-217Z" />
<glyph unicode="}" glyph-name="braceright" horiz-adv-x="500" d="M427 250Q427 239 413 239Q350 235 309 194Q290 174 287 152T283 56V-127Q282 -180 226 -215T92 -250Q72 -250 72 -239Q72 -230 81 -228Q113 -226 137 -218T170 -202T192 -182Q209 -164 212 -143T216
-63V117Q216 216 334 250Q233 279 218 353Q216 363 216 444V594Q216 631 213 642Q205 674 174 699T88 728Q83 729 81 729T77 730T73 733T72 739Q72 750 92 750Q175 750 231 712Q266 687 274 661T283 583V385Q283 350 296 325T331 287T372 268T411 261Q416 260 418
260T422 259T426 256T427 250Z" />
<glyph unicode="~" glyph-name="asciitilde" horiz-adv-x="556" d="M555 290L501 246Q481 229 444 211Q404 193 371 193Q329 193 271 227Q206 264 167 264Q99 264 14 193L0 210L54 254Q74 271 111 289Q151 307 184 307Q226 307 284 273Q349 236 388 236Q456 236
541 307L555 290Z" />
<glyph unicode="&#xa0;" glyph-name="uni00A0" horiz-adv-x="553" />
<glyph unicode="&#xa1;" glyph-name="exclamdown" horiz-adv-x="319" d="M212 469T212 447T197 410T159 394T122 409T106 447T121 484T159 500T196 485ZM212 -165Q212 -188 196 -202T159 -216T122 -202T106 -165L145 291Q146 313 159 313Q165 313 168 310T171
303T173 290L211 -154L212 -165Z" />
<glyph unicode="&#xa2;" glyph-name="cent" horiz-adv-x="591" d="M540 177Q540 108 485 49T340 -14V-30Q340 -36 336 -40T325 -45T315 -41T310 -30V-13Q202 -5 127 72T51 257T126 442T310 527V544Q310 550 314 554T325 559T335 555T340 544V528Q419 525 476 465L515
516Q525 528 530 528Q540 528 540 504V335Q540 324 540 320T536 314T527 311Q518 311 514 324Q501 411 451 456T340 503V11Q406 12 458 57T515 177Q516 182 516 184T517 188T520 192T527 193Q540 193 540 177ZM310 13V501Q289 497 269 490T223 465T180 422T150
354T137 257Q137 191 154 142T200 68T255 30T310 13Z" />
<glyph unicode="&#xa3;" glyph-name="sterling" horiz-adv-x="814" d="M745 171Q745 85 718 25T630 -35Q607 -35 584 -29T545 -16T504 9T470 35T433 68T398 99Q387 40 324 9T176 -22Q131 -22 100 12T68 93Q68 145 114 176T224 207Q278 207 331 172Q328 222 312
327H129V357H307Q292 454 292 514Q292 587 350 635T489 683Q561 683 612 655T664 573Q664 554 651 541T618 527Q599 527 586 540T572 573T585 605T618 619H620Q583 657 489 657Q435 657 399 615T362 514Q362 448 376 357H536V327H380Q400 189 400 121V118Q473 56
506 39Q548 17 590 17Q646 17 682 62T719 171H745ZM332 136V148Q278 181 224 181Q171 181 133 158T94 93Q94 57 118 31T176 4Q239 4 285 41T332 136Z" />
<glyph unicode="&#xa5;" glyph-name="yen" horiz-adv-x="814" d="M787 652Q698 650 657 588L495 343H651V313H475L449 273V187H651V157H449V80Q449 49 461 40T529 31H552V0Q516 3 406 3T260 0V31H284Q338 31 350 40T363 78V157H163V187H363V273L337 313H163V343H317L137
618Q124 638 105 645T45 652H26V683L157 680Q270 680 305 683V652Q237 652 237 628Q237 621 246 608L420 343H458L617 585Q628 602 628 614Q628 652 574 652V683L689 680Q740 680 787 683V652Z" />
<glyph unicode="&#xa7;" glyph-name="section" horiz-adv-x="538" d="M498 194Q498 156 473 125T406 76Q448 24 448 -38Q448 -111 396 -163T269 -215Q200 -215 154 -160T107 -29Q107 -10 120 3T153 17T185 4T199 -29T186 -61T153 -75Q148 -75 140 -73Q154 -116
189 -142T269 -169Q319 -169 353 -131T388 -38Q388 36 284 84L184 129Q121 158 81 203T40 306Q40 345 65 375T132 423Q90 476 90 538Q90 611 142 663T269 715Q338 715 384 660T431 529Q431 510 418 497T385 483T353 496T339 529T352 561T385 575Q390 575 398 573Q384
616 349 642T269 669Q219 669 185 631T150 538Q150 464 254 416L354 371Q417 342 457 297T498 194ZM420 125T420 194T325 307L225 352Q185 370 152 401Q118 374 118 306Q118 237 213 193L313 148Q354 128 386 98Q420 125 420 194Z" />
<glyph unicode="&#xa8;" glyph-name="dieresis" horiz-adv-x="553" d="M236 620T236 601T222 568T188 553T154 567T140 601T154 634T188 649T222 635ZM412 620T412 601T398 568T364 553T330 567T316 601T330 634T364 649T398 635Z" />
<glyph unicode="&#xa9;" glyph-name="copyright" horiz-adv-x="683" d="M683 342Q683 200 583 100T342 0Q200 0 100 100T0 342Q0 483 100 583T342 683Q483 683 583 583T683 342ZM643 342Q643 466 555 554T342 643Q217 643 129 555T40 342T128 129T342 40T555 128T643
342ZM491 284Q491 233 450 191T346 149Q267 149 210 205T152 342T209 478T345 534Q403 534 450 487L477 528Q481 534 486 534T491 521V396Q491 387 490 385T483 383Q475 383 474 392Q465 451 431 484T352 518Q333 518 313 512T266 489T223 435T206 341Q206 289
222 252T262 198T309 173T353 166Q401 166 438 198T478 285Q480 293 485 293Q491 293 491 284Z" />
<glyph unicode="&#xaa;" glyph-name="ordfeminine" horiz-adv-x="515" d="M486 334L405 336L316 334V351Q360 351 360 371Q360 373 343 413L324 452H150Q122 390 122 383Q122 353 160 351V334L90 336Q65 336 29 334V351Q53 352 70 362T92 380T105 403L240 692Q246
705 258 705Q269 705 276 690L421 379Q429 361 440 356T486 351V334ZM471 293Q471 283 456 283H59Q44 283 44 293Q44 304 59 304H456Q471 304 471 293ZM316 469L238 638L159 469H316Z" />
<glyph unicode="&#xab;" glyph-name="guillemotleft" horiz-adv-x="611" d="M306 12Q308 0 296 0H294Q287 0 285 7Q236 138 134 234Q131 237 131 242Q131 246 134 249Q237 346 285 477Q286 483 294 483H296Q308 483 306 471Q275 349 203 242Q274 136 306 12ZM481
12Q483 0 471 0H469Q462 0 460 7Q411 138 309 234Q306 237 306 242Q306 246 309 249Q412 346 460 477Q462 483 469 483H471Q483 483 481 471Q450 349 378 242Q449 136 481 12Z" />
<glyph unicode="&#xac;" glyph-name="logicalnot" horiz-adv-x="844" d="M771 153Q771 145 765 139T751 133T737 139T731 153V327H92Q84 327 78 333T72 347T78 361T92 367H751Q759 367 765 361T771 347V153Z" />
<glyph unicode="&#xae;" glyph-name="registered" horiz-adv-x="683" d="M683 342Q683 200 583 100T342 0Q200 0 100 100T0 342Q0 483 100 583T342 683Q483 683 583 583T683 342ZM643 342Q643 466 555 554T342 643Q217 643 129 555T40 342T128 129T342 40T555
128T643 342ZM549 213Q549 195 537 175T496 155Q454 155 428 177Q413 191 410 205T406 253Q406 284 403 296T386 323Q365 342 331 342H265V208Q265 192 271 188T307 183H319V167Q300 168 242 168T165 167V183H177Q206 183 212 187T219 208V487Q219 503 213 507T177
512H165V528H336Q396 528 438 500T481 433Q481 405 456 382T383 347Q415 338 432 319Q444 307 448 295T457 252Q462 222 464 212T470 188T481 171T498 167Q531 167 535 214Q538 222 542 222Q549 222 549 213ZM426 433Q426 456 418 471T399 495T370 507T340 511T310
512Q283 512 279 511Q270 510 268 506T265 491V354H329Q426 354 426 433Z" />
<glyph unicode="&#xaf;" glyph-name="overscore" horiz-adv-x="553" d="M465 585H87V616H465V585Z" />
<glyph unicode="&#xb0;" glyph-name="degree" horiz-adv-x="415" d="M353 538Q353 477 311 435T207 392Q147 392 104 434T61 538Q61 598 104 640T207 683Q268 683 310 641T353 538ZM313 494T313 538T282 612T207 643T132 612T101 538Q101 494 132 463T207 432T282 463Z" />
<glyph unicode="&#xb1;" glyph-name="plusminus" horiz-adv-x="844" d="M771 40T771 20T738 0H105Q72 0 72 20T105 40H402V327H105Q72 327 72 347T105 367H402V661Q402 694 422 694T442 661V367H738Q771 367 771 347T738 327H442V40H738Q771 40 771 20Z" />
<glyph unicode="&#xb4;" glyph-name="acute" horiz-adv-x="553" d="M406 659Q406 644 388 629L229 506L212 525L334 670Q355 695 370 695Q384 695 395 684T406 659Z" />
<glyph unicode="&#xb5;" glyph-name="mu" horiz-adv-x="556" d="M534 0L389 -11V75H388Q347 -11 261 -11Q212 -11 180 2V-116Q180 -150 192 -156T258 -163V-194L145 -191L32 -194V-163Q86 -163 98 -157T110 -116V341Q110 380 98 389T32 399V430L180 441V111Q180
87 182 73T191 43T217 19T266 11Q320 11 353 55T386 167V341Q386 380 374 389T308 399V430L456 441V89Q456 50 468 41T534 31V0Z" />
<glyph unicode="&#xb6;" glyph-name="paragraph" horiz-adv-x="611" d="M582 694T582 674T549 654H499V-161Q499 -194 479 -194T459 -161V654H389V-161Q389 -194 369 -194T349 -161V230Q299 232 249 247T155 289T84 361T56 463Q56 558 129 626T306 694H549Q582
694 582 674Z" />
<glyph unicode="&#xb7;" glyph-name="middot" horiz-adv-x="844" d="M475 364T475 342T460 305T422 289T385 304T369 342T384 379T422 395T459 380Z" />
<glyph unicode="&#xb8;" glyph-name="cedilla" horiz-adv-x="494" d="M396 -133Q396 -149 386 -161T352 -180T307 -191T248 -197T188 -199T125 -200H99V-174H112Q142 -174 158 -174T202 -173T245 -169T278 -162T304 -151T312 -133Q312 -92 221 -92V5H273V-66Q325
-66 360 -82T396 -133Z" />
<glyph unicode="&#xba;" glyph-name="ordmasculine" horiz-adv-x="534" d="M491 514Q491 436 426 381T267 326T109 381T43 514Q43 593 108 649T267 705T425 649T491 514ZM476 285Q476 275 461 275H73Q58 275 58 285Q58 296 73 296H461Q476 296 476 285ZM419 522Q419
568 404 602T364 654T316 680T267 688T219 680T171 655T131 604T115 522Q115 473 130 437T169 381T217 353T267 344T316 353T365 381T404 436T419 522Z" />
<glyph unicode="&#xbb;" glyph-name="guillemotright" horiz-adv-x="611" d="M480 242Q480 237 477 234Q374 137 327 7Q324 0 317 0H315Q310 0 308 4T306 12Q336 135 408 242Q336 350 306 471Q305 475 307 479T315 483H317Q324 483 327 477Q374 346 477 249Q480
246 480 242ZM305 242Q305 237 302 234Q199 137 152 7Q148 0 142 0H140Q135 0 133 4T131 12Q161 135 233 242Q161 350 131 471Q130 475 132 479T140 483H142Q149 483 152 477Q199 346 302 249Q305 246 305 242Z" />
<glyph unicode="&#xbf;" glyph-name="questiondown" horiz-adv-x="524" d="M300 469T300 447T285 410T247 394T210 409T194 447T209 484T247 500T284 485ZM451 -72Q451 -132 393 -168T247 -205Q196 -205 159 -192T105 -157T80 -114T72 -70Q72 -7 122 33Q235 124
235 273V289Q235 300 235 304T238 310T247 313Q259 313 260 301V277Q260 118 184 21Q173 6 169 -2T160 -29T155 -77Q155 -96 155 -106T161 -134T175 -160T204 -176T250 -183Q261 -183 275 -182T318 -175T373 -154T413 -115Q387 -118 373 -104T359 -70Q359 -50 371
-37T405 -24Q424 -24 437 -36T451 -72Z" />
<glyph unicode="&#xc0;" glyph-name="Agrave" horiz-adv-x="814" d="M765 0L634 3Q526 3 490 0V31Q572 31 572 60Q572 65 567 78L510 231H244L196 101Q191 89 191 81Q191 61 210 46T265 31V0L149 3Q111 3 48 0V31Q79 31 101 38T136 58T152 79T162 100L383 697Q387
708 391 712T406 716Q418 716 421 713T431 694L663 68Q671 46 686 39T747 31H765V0ZM499 262L377 592L255 262H499ZM479 768L465 746L287 839Q266 853 264 866Q261 883 271 895T299 908Q313 908 333 889L479 768Z" />
<glyph unicode="&#xc1;" glyph-name="Aacute" horiz-adv-x="814" d="M765 0L634 3Q526 3 490 0V31Q572 31 572 60Q572 65 567 78L510 231H244L196 101Q191 89 191 81Q191 61 210 46T265 31V0L149 3Q111 3 48 0V31Q79 31 101 38T136 58T152 79T162 100L383 697Q387
708 391 712T406 716Q418 716 421 713T431 694L663 68Q671 46 686 39T747 31H765V0ZM499 262L377 592L255 262H499ZM551 866Q548 853 528 839L350 746L336 768L482 889Q502 908 516 908Q533 908 543 895T551 866Z" />
<glyph unicode="&#xc2;" glyph-name="Acircumflex" horiz-adv-x="814" d="M765 0L634 3Q526 3 490 0V31Q572 31 572 60Q572 65 567 78L510 231H244L196 101Q191 89 191 81Q191 61 210 46T265 31V0L149 3Q111 3 48 0V31Q79 31 101 38T136 58T152 79T162 100L383
697Q387 708 391 712T406 716Q418 716 421 713T431 694L663 68Q671 46 686 39T747 31H765V0ZM499 262L377 592L255 262H499ZM558 752L546 736L406 802L266 736L256 752L407 869L558 752Z" />
<glyph unicode="&#xc3;" glyph-name="Atilde" horiz-adv-x="814" d="M765 0L634 3Q526 3 490 0V31Q572 31 572 60Q572 65 567 78L510 231H244L196 101Q191 89 191 81Q191 61 210 46T265 31V0L149 3Q111 3 48 0V31Q79 31 101 38T136 58T152 79T162 100L383 697Q387
708 391 712T406 716Q418 716 421 713T431 694L663 68Q671 46 686 39T747 31H765V0ZM499 262L377 592L255 262H499ZM582 815Q536 767 516 752T468 736Q443 736 397 763Q360 785 335 785Q291 785 249 736L232 751Q278 799 298 814T346 830Q371 830 417 803Q454 781
479 781Q523 781 565 830L582 815Z" />
<glyph unicode="&#xc4;" glyph-name="Adieresis" horiz-adv-x="814" d="M765 0L634 3Q526 3 490 0V31Q572 31 572 60Q572 65 567 78L510 231H244L196 101Q191 89 191 81Q191 61 210 46T265 31V0L149 3Q111 3 48 0V31Q79 31 101 38T136 58T152 79T162 100L383 697Q387
708 391 712T406 716Q418 716 421 713T431 694L663 68Q671 46 686 39T747 31H765V0ZM499 262L377 592L255 262H499ZM351 804T351 784T337 750T303 736T270 750T255 784T269 818T303 832T336 818ZM559 804T559 784T545 750T511 736T478 750T463 784T477 818T511
832T544 818Z" />
<glyph unicode="&#xc5;" glyph-name="Aring" horiz-adv-x="814" d="M765 0L634 3Q526 3 490 0V31Q572 31 572 60Q572 65 567 78L510 231H244L196 101Q191 89 191 81Q191 61 210 46T265 31V0L149 3Q111 3 48 0V31Q79 31 101 38T136 58T152 79T162 100L383 697Q387
708 391 712T406 716Q418 716 421 713T431 694L663 68Q671 46 686 39T747 31H765V0ZM499 262L377 592L255 262H499ZM474 746T474 804T407 862T340 804T407 746ZM507 803Q507 768 479 742T406 716Q366 716 337 741T307 805Q307 840 335 866T408 892Q448 892 477
867T507 803Z" />
<glyph unicode="&#xc6;" glyph-name="AE" horiz-adv-x="975" d="M931 258L889 0H373V31Q425 31 437 37T450 76V313H278L197 100Q192 86 192 81Q192 61 210 47T265 31V0L150 3L48 0V31Q138 31 163 98L374 651Q362 652 336 652H289V683H874L902 458H877Q870 514
862 545T835 604T782 641T694 652H582Q548 652 541 645T533 612V344H627Q696 344 715 368T735 461H760V196H735Q735 264 716 288T627 313H533V71Q533 45 540 38T582 31H693Q722 31 745 34T786 42T819 57T844 76T863 102T877 132T889 169T898 210T906 258H931ZM450
344V604Q450 616 449 623T437 640T406 649L290 344H450Z" />
<glyph unicode="&#xc7;" glyph-name="Ccedilla" horiz-adv-x="786" d="M713 233Q713 142 642 64T458 -21V-66Q510 -66 545 -82T581 -133Q581 -149 571 -161T537 -180T492 -191T433 -197T373 -199T310 -200H284V-174H297Q327 -174 343 -174T387 -173T430 -169T463
-162T489 -151T497 -133Q497 -92 406 -92V-21Q266 -9 169 95T72 342Q72 493 180 599T437 705Q548 705 634 616L686 693Q694 705 702 705T711 701T713 681V444Q713 428 711 424T697 420Q690 420 687 421T683 426T681 437Q664 548 599 611T449 674Q423 674 394 668T323
641T251 586T198 489T175 341Q175 261 195 200T246 103T316 46T388 16T451 9Q541 9 611 70T688 234Q689 239 689 241T690 245T693 249T700 250Q713 250 713 233Z" />
<glyph unicode="&#xc8;" glyph-name="Egrave" horiz-adv-x="742" d="M698 258L656 0H55V31H79Q133 31 145 40T158 78V602Q158 631 146 640T79 649H55V680H641L669 455H644Q638 512 628 546T595 605T535 639T439 649H296Q262 649 255 642T247 609V369H345Q416 369
437 393T458 486H483V221H458Q458 290 437 314T345 338H247V71Q247 45 254 38T296 31H447Q500 31 536 41T595 66T633 112T656 174T673 258H698ZM442 768L428 746L250 839Q230 853 227 866Q224 883 234 895T262 908Q276 908 296 889L442 768Z" />
<glyph unicode="&#xc9;" glyph-name="Eacute" horiz-adv-x="742" d="M698 258L656 0H55V31H79Q133 31 145 40T158 78V602Q158 631 146 640T79 649H55V680H641L669 455H644Q638 512 628 546T595 605T535 639T439 649H296Q262 649 255 642T247 609V369H345Q416 369
437 393T458 486H483V221H458Q458 290 437 314T345 338H247V71Q247 45 254 38T296 31H447Q500 31 536 41T595 66T633 112T656 174T673 258H698ZM514 866Q512 853 491 839L313 746L299 768L445 889Q465 908 479 908Q496 908 506 895T514 866Z" />
<glyph unicode="&#xca;" glyph-name="Ecircumflex" horiz-adv-x="742" d="M698 258L656 0H55V31H79Q133 31 145 40T158 78V602Q158 631 146 640T79 649H55V680H641L669 455H644Q638 512 628 546T595 605T535 639T439 649H296Q262 649 255 642T247 609V369H345Q416
369 437 393T458 486H483V221H458Q458 290 437 314T345 338H247V71Q247 45 254 38T296 31H447Q500 31 536 41T595 66T633 112T656 174T673 258H698ZM521 752L509 736L369 802L229 736L219 752L370 869L521 752Z" />
<glyph unicode="&#xcb;" glyph-name="Edieresis" horiz-adv-x="742" d="M698 258L656 0H55V31H79Q133 31 145 40T158 78V602Q158 631 146 640T79 649H55V680H641L669 455H644Q638 512 628 546T595 605T535 639T439 649H296Q262 649 255 642T247 609V369H345Q416
369 437 393T458 486H483V221H458Q458 290 437 314T345 338H247V71Q247 45 254 38T296 31H447Q500 31 536 41T595 66T633 112T656 174T673 258H698ZM314 804T314 784T300 750T266 736T232 750T218 784T232 818T266 832T300 818ZM522 804T522 784T508 750T474 736T440
750T426 784T440 818T474 832T508 818Z" />
<glyph unicode="&#xcc;" glyph-name="Igrave" horiz-adv-x="406" d="M355 0Q320 3 202 3Q85 3 50 0V31H76Q132 31 145 40T158 78V605Q158 634 145 643T76 652H50V683Q85 680 203 680Q320 680 355 683V652H329Q273 652 260 643T247 605V78Q247 49 260 40T329 31H355V0ZM274
768L260 746L82 839Q62 853 59 866Q56 883 66 895T94 908Q108 908 128 889L274 768Z" />
<glyph unicode="&#xcd;" glyph-name="Iacute" horiz-adv-x="406" d="M355 0Q320 3 202 3Q85 3 50 0V31H76Q132 31 145 40T158 78V605Q158 634 145 643T76 652H50V683Q85 680 203 680Q320 680 355 683V652H329Q273 652 260 643T247 605V78Q247 49 260 40T329 31H355V0ZM346
866Q344 853 323 839L145 746L131 768L277 889Q297 908 311 908Q328 908 338 895T346 866Z" />
<glyph unicode="&#xce;" glyph-name="Icircumflex" horiz-adv-x="406" d="M355 0Q320 3 202 3Q85 3 50 0V31H76Q132 31 145 40T158 78V605Q158 634 145 643T76 652H50V683Q85 680 203 680Q320 680 355 683V652H329Q273 652 260 643T247 605V78Q247 49 260 40T329
31H355V0ZM353 752L341 736L201 802L61 736L51 752L202 869L353 752Z" />
<glyph unicode="&#xcf;" glyph-name="Idieresis" horiz-adv-x="406" d="M355 0Q320 3 202 3Q85 3 50 0V31H76Q132 31 145 40T158 78V605Q158 634 145 643T76 652H50V683Q85 680 203 680Q320 680 355 683V652H329Q273 652 260 643T247 605V78Q247 49 260 40T329
31H355V0ZM146 804T146 784T132 750T98 736T64 750T50 784T64 818T98 832T132 818ZM354 804T354 784T340 750T306 736T272 750T258 784T272 818T306 832T340 818Z" />
<glyph unicode="&#xd1;" glyph-name="Ntilde" horiz-adv-x="814" d="M758 652Q722 652 699 645T668 625T657 602T655 576V28Q655 10 653 5T641 0T623 12L186 629V107Q186 91 188 82T198 59T230 38T289 31V0L172 3L55 0V31Q91 31 114 38T145 58T156 81T158 107V625Q158
641 157 643Q154 652 55 652V683H224Q239 683 243 681T256 669L627 147V576Q627 592 625 601T615 624T583 645T524 652V683L641 680L758 683V652ZM582 815Q536 767 516 752T468 736Q443 736 397 763Q360 785 335 785Q291 785 249 736L232 751Q278 799 298 814T346
830Q371 830 417 803Q454 781 479 781Q523 781 565 830L582 815Z" />
<glyph unicode="&#xd2;" glyph-name="Ograve" horiz-adv-x="844" d="M771 339Q771 189 669 84T421 -22Q278 -22 175 83T72 339Q72 491 174 598T422 705Q565 705 668 599T771 339ZM668 354Q668 440 645 506T584 608T505 662T421 680Q380 680 340 663T261 609T199
507T175 354Q175 263 198 193T258 83T337 24T422 4Q463 4 504 23T583 80T644 190T668 354ZM494 768L480 746L302 839Q282 853 279 866Q276 883 286 895T314 908Q328 908 348 889L494 768Z" />
<glyph unicode="&#xd3;" glyph-name="Oacute" horiz-adv-x="844" d="M771 339Q771 189 669 84T421 -22Q278 -22 175 83T72 339Q72 491 174 598T422 705Q565 705 668 599T771 339ZM668 354Q668 440 645 506T584 608T505 662T421 680Q380 680 340 663T261 609T199
507T175 354Q175 263 198 193T258 83T337 24T422 4Q463 4 504 23T583 80T644 190T668 354ZM566 866Q564 853 543 839L365 746L351 768L497 889Q517 908 531 908Q548 908 558 895T566 866Z" />
<glyph unicode="&#xd4;" glyph-name="Ocircumflex" horiz-adv-x="844" d="M771 339Q771 189 669 84T421 -22Q278 -22 175 83T72 339Q72 491 174 598T422 705Q565 705 668 599T771 339ZM668 354Q668 440 645 506T584 608T505 662T421 680Q380 680 340 663T261 609T199
507T175 354Q175 263 198 193T258 83T337 24T422 4Q463 4 504 23T583 80T644 190T668 354ZM573 752L561 736L421 802L281 736L271 752L422 869L573 752Z" />
<glyph unicode="&#xd5;" glyph-name="Otilde" horiz-adv-x="844" d="M771 339Q771 189 669 84T421 -22Q278 -22 175 83T72 339Q72 491 174 598T422 705Q565 705 668 599T771 339ZM668 354Q668 440 645 506T584 608T505 662T421 680Q380 680 340 663T261 609T199
507T175 354Q175 263 198 193T258 83T337 24T422 4Q463 4 504 23T583 80T644 190T668 354ZM597 815Q551 767 531 752T483 736Q458 736 412 763Q375 785 350 785Q306 785 264 736L247 751Q293 799 313 814T361 830Q386 830 432 803Q469 781 494 781Q538 781 580
830L597 815Z" />
<glyph unicode="&#xd6;" glyph-name="Odieresis" horiz-adv-x="844" d="M771 339Q771 189 669 84T421 -22Q278 -22 175 83T72 339Q72 491 174 598T422 705Q565 705 668 599T771 339ZM668 354Q668 440 645 506T584 608T505 662T421 680Q380 680 340 663T261 609T199
507T175 354Q175 263 198 193T258 83T337 24T422 4Q463 4 504 23T583 80T644 190T668 354ZM366 804T366 784T352 750T318 736T284 750T270 784T284 818T318 832T352 818ZM574 804T574 784T560 750T526 736T492 750T478 784T492 818T526 832T560 818Z" />
<glyph unicode="&#xd8;" glyph-name="Oslash" horiz-adv-x="844" d="M771 339Q771 189 669 84T421 -22Q314 -22 220 43L149 -56L128 -42L201 59Q72 176 72 339Q72 491 174 598T422 705Q528 705 622 639L694 739L715 725L641 623Q692 582 731 508T771 339ZM598
607Q521 683 421 683Q399 683 374 679T309 654T238 600T184 498T161 339Q161 182 228 96L598 607ZM682 339Q682 503 614 587L245 76Q315 0 422 0Q446 0 472 4T537 29T607 84T660 184T682 339Z" />
<glyph unicode="&#xd9;" glyph-name="Ugrave" horiz-adv-x="814" d="M758 652Q722 652 699 645T668 624T657 601T655 575V215Q655 131 590 55T420 -22Q313 -22 236 51T158 229V605Q158 634 146 643T79 652H55V683Q90 680 203 680Q315 680 350 683V652H326Q272
652 260 643T247 605V226Q247 173 260 132T293 69T337 32T383 13T422 9Q503 9 563 69T624 231V578Q624 593 622 602T612 624T580 645T521 652V683L640 680L758 683V652ZM503 768L489 746L311 839Q290 853 288 866Q285 883 295 895T323 908Q337 908 357 889L503
768Z" />
<glyph unicode="&#xda;" glyph-name="Uacute" horiz-adv-x="814" d="M758 652Q722 652 699 645T668 624T657 601T655 575V215Q655 131 590 55T420 -22Q313 -22 236 51T158 229V605Q158 634 146 643T79 652H55V683Q90 680 203 680Q315 680 350 683V652H326Q272
652 260 643T247 605V226Q247 173 260 132T293 69T337 32T383 13T422 9Q503 9 563 69T624 231V578Q624 593 622 602T612 624T580 645T521 652V683L640 680L758 683V652ZM575 866Q572 853 552 839L374 746L360 768L506 889Q526 908 540 908Q557 908 567 895T575
866Z" />
<glyph unicode="&#xdb;" glyph-name="Ucircumflex" horiz-adv-x="814" d="M758 652Q722 652 699 645T668 624T657 601T655 575V215Q655 131 590 55T420 -22Q313 -22 236 51T158 229V605Q158 634 146 643T79 652H55V683Q90 680 203 680Q315 680 350 683V652H326Q272
652 260 643T247 605V226Q247 173 260 132T293 69T337 32T383 13T422 9Q503 9 563 69T624 231V578Q624 593 622 602T612 624T580 645T521 652V683L640 680L758 683V652ZM582 752L570 736L430 802L290 736L280 752L431 869L582 752Z" />
<glyph unicode="&#xdc;" glyph-name="Udieresis" horiz-adv-x="814" d="M758 652Q722 652 699 645T668 624T657 601T655 575V215Q655 131 590 55T420 -22Q313 -22 236 51T158 229V605Q158 634 146 643T79 652H55V683Q90 680 203 680Q315 680 350 683V652H326Q272
652 260 643T247 605V226Q247 173 260 132T293 69T337 32T383 13T422 9Q503 9 563 69T624 231V578Q624 593 622 602T612 624T580 645T521 652V683L640 680L758 683V652ZM375 804T375 784T361 750T327 736T294 750T279 784T293 818T327 832T360 818ZM583 804T583
784T569 750T535 736T502 750T487 784T501 818T535 832T568 818Z" />
<glyph unicode="&#xdf;" glyph-name="germandbls" horiz-adv-x="916" d="M851 142Q851 80 807 33T692 -14Q601 -14 546 35Q532 14 527 9Q516 -7 513 -10T505 -14Q495 -14 495 10V145Q495 156 495 160T499 167T508 170Q519 170 520 161Q523 86 569 50Q617 11 692
11Q741 11 770 42T800 115Q800 164 768 190Q752 205 739 210T681 226Q606 243 583 251T539 281Q495 325 495 382Q495 442 540 485T652 528Q727 528 777 479Q791 500 796 505Q807 521 810 524T818 528Q828 528 828 504V368Q828 357 828 353T824 347T815 344Q805
344 803 354Q802 356 802 357Q800 372 797 385T784 423T760 463T717 493T653 506Q605 506 576 477T546 411Q546 385 562 361T612 322Q614 321 674 307Q743 291 764 282T812 246Q851 205 851 142ZM407 142Q407 80 363 33T248 -14Q157 -14 102 35Q88 14 83 9Q72 -7
69 -10T61 -14Q51 -14 51 10V145Q51 156 51 160T55 167T64 170Q75 170 76 161Q79 86 125 50Q173 11 248 11Q297 11 326 42T356 115Q356 164 324 190Q308 205 295 210T237 226Q162 243 139 251T95 281Q51 325 51 382Q51 442 96 485T208 528Q283 528 333 479Q347
500 352 505Q363 521 366 524T374 528Q384 528 384 504V368Q384 357 384 353T380 347T371 344Q361 344 359 354Q358 356 358 357Q356 372 353 385T340 423T316 463T273 493T209 506Q161 506 132 477T102 411Q102 385 118 361T168 322Q170 321 230 307Q299 291 320
282T368 246Q407 205 407 142Z" />
<glyph unicode="&#xe0;" glyph-name="agrave" horiz-adv-x="613" d="M579 0Q507 3 482 3L376 0V25Q429 25 429 53Q429 60 408 113L386 169H179Q145 80 145 70Q145 62 147 54T160 36T190 25V0L107 3Q67 3 34 0V25Q56 26 72 33T99 53T114 75T125 99L286 512Q290
523 293 527T307 531Q321 531 329 509L501 65Q511 39 524 32T579 25V0ZM376 194L283 435L189 194H376ZM371 608L354 589L195 712Q177 727 177 742Q177 755 188 766T213 778Q228 778 249 753L371 608Z" />
<glyph unicode="&#xe1;" glyph-name="aacute" horiz-adv-x="613" d="M579 0Q507 3 482 3L376 0V25Q429 25 429 53Q429 60 408 113L386 169H179Q145 80 145 70Q145 62 147 54T160 36T190 25V0L107 3Q67 3 34 0V25Q56 26 72 33T99 53T114 75T125 99L286 512Q290
523 293 527T307 531Q321 531 329 509L501 65Q511 39 524 32T579 25V0ZM376 194L283 435L189 194H376ZM436 742Q436 727 418 712L259 589L242 608L364 753Q385 778 400 778Q414 778 425 767T436 742Z" />
<glyph unicode="&#xe2;" glyph-name="acircumflex" horiz-adv-x="613" d="M579 0Q507 3 482 3L376 0V25Q429 25 429 53Q429 60 408 113L386 169H179Q145 80 145 70Q145 62 147 54T160 36T190 25V0L107 3Q67 3 34 0V25Q56 26 72 33T99 53T114 75T125 99L286 512Q290
523 293 527T307 531Q321 531 329 509L501 65Q511 39 524 32T579 25V0ZM376 194L283 435L189 194H376ZM458 610L445 596L306 704L167 596L154 610L306 772L458 610Z" />
<glyph unicode="&#xe3;" glyph-name="atilde" horiz-adv-x="613" d="M579 0Q507 3 482 3L376 0V25Q429 25 429 53Q429 60 408 113L386 169H179Q145 80 145 70Q145 62 147 54T160 36T190 25V0L107 3Q67 3 34 0V25Q56 26 72 33T99 53T114 75T125 99L286 512Q290
523 293 527T307 531Q321 531 329 509L501 65Q511 39 524 32T579 25V0ZM376 194L283 435L189 194H376ZM481 716Q435 668 415 653T367 637Q342 637 296 664Q259 686 234 686Q190 686 148 637L131 652Q177 700 197 715T245 731Q270 731 316 704Q353 682 378 682Q422
682 464 731L481 716Z" />
<glyph unicode="&#xe4;" glyph-name="adieresis" horiz-adv-x="613" d="M579 0Q507 3 482 3L376 0V25Q429 25 429 53Q429 60 408 113L386 169H179Q145 80 145 70Q145 62 147 54T160 36T190 25V0L107 3Q67 3 34 0V25Q56 26 72 33T99 53T114 75T125 99L286 512Q290
523 293 527T307 531Q321 531 329 509L501 65Q511 39 524 32T579 25V0ZM376 194L283 435L189 194H376ZM266 704T266 684T252 650T218 636T184 650T170 684T184 718T218 732T252 718ZM442 704T442 684T428 650T394 636T360 650T346 684T360 718T394 732T428 718Z"
/>
<glyph unicode="&#xe5;" glyph-name="aring" horiz-adv-x="613" d="M579 0Q507 3 482 3L376 0V25Q429 25 429 53Q429 60 408 113L386 169H179Q145 80 145 70Q145 62 147 54T160 36T190 25V0L107 3Q67 3 34 0V25Q56 26 72 33T99 53T114 75T125 99L286 512Q290 523
293 527T307 531Q321 531 329 509L501 65Q511 39 524 32T579 25V0ZM376 194L283 435L189 194H376ZM374 642T374 700T307 758T240 700T307 642ZM407 699Q407 664 379 638T306 612Q266 612 237 637T207 701Q207 736 235 762T308 788Q348 788 377 763T407 699Z" />
<glyph unicode="&#xe6;" glyph-name="ae" horiz-adv-x="736" d="M707 194L678 0H286V25Q323 25 331 32T340 70V235H208L154 99Q146 81 146 69Q146 28 190 25V0Q145 3 108 3Q67 3 34 0V25Q96 26 124 94L282 488Q271 489 250 489H223V514H666L685 345H660Q651 429
625 459T523 489H447Q420 489 414 482T407 446V260H471Q524 260 539 277T554 347H579V148H554Q554 200 539 217T471 235H407V68Q407 39 413 32T447 25H524Q609 25 639 60T682 194H707ZM340 260V437Q340 482 308 485L218 260H340Z" />
<glyph unicode="&#xe7;" glyph-name="ccedilla" horiz-adv-x="591" d="M540 177Q540 111 488 53T351 -13V-66Q403 -66 438 -82T474 -133Q474 -149 464 -161T430 -180T385 -191T326 -197T266 -199T203 -200H177V-174H190Q220 -174 236 -174T280 -173T323 -169T356
-162T382 -151T390 -133Q390 -92 299 -92V-12Q195 -1 123 76T51 257Q51 370 134 449T331 528Q416 528 476 465L515 516Q525 528 530 528Q540 528 540 504V335Q540 324 540 320T536 314T527 311Q518 311 514 324Q501 413 450 458T337 503Q319 503 299 499T248 480T194
440T154 368T137 257Q137 195 153 148T193 75T246 35T297 15T338 11Q405 11 457 56T515 177Q516 182 516 184T517 188T520 192T527 193Q540 193 540 177Z" />
<glyph unicode="&#xe8;" glyph-name="egrave" horiz-adv-x="558" d="M529 194L500 0H43V25Q92 25 103 33T115 72V439Q115 470 104 478T43 486V511H488L507 342H482Q473 426 444 456T329 486H227Q200 486 194 479T187 443V278H257Q311 278 327 295T343 365H368V166H343Q343
218 327 235T257 253H187V68Q187 39 193 32T227 25H335Q383 25 413 33T461 64T488 115T504 194H529ZM344 608L327 589L168 712Q150 727 150 742Q150 755 161 766T186 778Q201 778 222 753L344 608Z" />
<glyph unicode="&#xe9;" glyph-name="eacute" horiz-adv-x="558" d="M529 194L500 0H43V25Q92 25 103 33T115 72V439Q115 470 104 478T43 486V511H488L507 342H482Q473 426 444 456T329 486H227Q200 486 194 479T187 443V278H257Q311 278 327 295T343 365H368V166H343Q343
218 327 235T257 253H187V68Q187 39 193 32T227 25H335Q383 25 413 33T461 64T488 115T504 194H529ZM409 742Q409 727 391 712L232 589L215 608L337 753Q358 778 373 778Q387 778 398 767T409 742Z" />
<glyph unicode="&#xea;" glyph-name="ecircumflex" horiz-adv-x="558" d="M529 194L500 0H43V25Q92 25 103 33T115 72V439Q115 470 104 478T43 486V511H488L507 342H482Q473 426 444 456T329 486H227Q200 486 194 479T187 443V278H257Q311 278 327 295T343 365H368V166H343Q343
218 327 235T257 253H187V68Q187 39 193 32T227 25H335Q383 25 413 33T461 64T488 115T504 194H529ZM431 610L418 596L279 704L140 596L127 610L279 772L431 610Z" />
<glyph unicode="&#xeb;" glyph-name="edieresis" horiz-adv-x="558" d="M529 194L500 0H43V25Q92 25 103 33T115 72V439Q115 470 104 478T43 486V511H488L507 342H482Q473 426 444 456T329 486H227Q200 486 194 479T187 443V278H257Q311 278 327 295T343 365H368V166H343Q343
218 327 235T257 253H187V68Q187 39 193 32T227 25H335Q383 25 413 33T461 64T488 115T504 194H529ZM239 704T239 684T225 650T191 636T158 650T143 684T157 718T191 732T224 718ZM415 704T415 684T401 650T367 636T334 650T319 684T333 718T367 732T400 718Z"
/>
<glyph unicode="&#xec;" glyph-name="igrave" horiz-adv-x="302" d="M263 0L151 3L39 0V25Q92 25 103 32T115 73V441Q115 474 104 481T39 489V514L151 511L263 514V489Q210 489 199 482T187 441V73Q187 40 198 33T263 25V0ZM216 608L199 589L40 712Q22 727 22
742Q22 755 33 766T58 778Q73 778 94 753L216 608Z" />
<glyph unicode="&#xed;" glyph-name="iacute" horiz-adv-x="302" d="M263 0L151 3L39 0V25Q92 25 103 32T115 73V441Q115 474 104 481T39 489V514L151 511L263 514V489Q210 489 199 482T187 441V73Q187 40 198 33T263 25V0ZM281 742Q281 727 263 712L104 589L87
608L209 753Q230 778 245 778Q259 778 270 767T281 742Z" />
<glyph unicode="&#xee;" glyph-name="icircumflex" horiz-adv-x="302" d="M263 0L151 3L39 0V25Q92 25 103 32T115 73V441Q115 474 104 481T39 489V514L151 511L263 514V489Q210 489 199 482T187 441V73Q187 40 198 33T263 25V0ZM303 610L290 596L151 704L12 596L-1
610L151 772L303 610Z" />
<glyph unicode="&#xef;" glyph-name="idieresis" horiz-adv-x="302" d="M263 0L151 3L39 0V25Q92 25 103 32T115 73V441Q115 474 104 481T39 489V514L151 511L263 514V489Q210 489 199 482T187 441V73Q187 40 198 33T263 25V0ZM111 704T111 684T97 650T63 636T30
650T15 684T29 718T63 732T96 718ZM287 704T287 684T273 650T239 636T206 650T191 684T205 718T239 732T272 718Z" />
<glyph unicode="&#xf1;" glyph-name="ntilde" horiz-adv-x="613" d="M570 489Q498 489 498 413V26Q498 10 496 5T484 0Q475 0 467 11L153 447L143 459V101Q143 25 215 25V0Q178 3 129 3L43 0V25Q115 25 115 101V482Q95 489 43 489V514H163Q174 514 178 514T185
511T193 501L470 116V413Q470 489 398 489V514Q436 511 484 511L570 514V489ZM481 716Q435 668 415 653T367 637Q342 637 296 664Q259 686 234 686Q190 686 148 637L131 652Q177 700 197 715T245 731Q270 731 316 704Q353 682 378 682Q422 682 464 731L481 716Z"
/>
<glyph unicode="&#xf2;" glyph-name="ograve" horiz-adv-x="636" d="M585 255Q585 142 507 64T318 -14T130 64T51 255Q51 367 129 447T318 528T507 448T585 255ZM499 266Q499 332 481 381T434 455T376 491T318 503Q290 503 261 492T203 456T156 382T137 266Q137
196 155 144T201 65T259 25T318 12T376 24T434 64T481 144T499 266ZM382 608L365 589L206 712Q188 727 188 742Q188 755 199 766T224 778Q239 778 260 753L382 608Z" />
<glyph unicode="&#xf3;" glyph-name="oacute" horiz-adv-x="636" d="M585 255Q585 142 507 64T318 -14T130 64T51 255Q51 367 129 447T318 528T507 448T585 255ZM499 266Q499 332 481 381T434 455T376 491T318 503Q290 503 261 492T203 456T156 382T137 266Q137
196 155 144T201 65T259 25T318 12T376 24T434 64T481 144T499 266ZM447 742Q447 727 429 712L270 589L253 608L375 753Q396 778 411 778Q425 778 436 767T447 742Z" />
<glyph unicode="&#xf4;" glyph-name="ocircumflex" horiz-adv-x="636" d="M585 255Q585 142 507 64T318 -14T130 64T51 255Q51 367 129 447T318 528T507 448T585 255ZM499 266Q499 332 481 381T434 455T376 491T318 503Q290 503 261 492T203 456T156 382T137 266Q137
196 155 144T201 65T259 25T318 12T376 24T434 64T481 144T499 266ZM469 610L456 596L317 704L178 596L165 610L317 772L469 610Z" />
<glyph unicode="&#xf5;" glyph-name="otilde" horiz-adv-x="636" d="M585 255Q585 142 507 64T318 -14T130 64T51 255Q51 367 129 447T318 528T507 448T585 255ZM499 266Q499 332 481 381T434 455T376 491T318 503Q290 503 261 492T203 456T156 382T137 266Q137
196 155 144T201 65T259 25T318 12T376 24T434 64T481 144T499 266ZM492 716Q446 668 426 653T378 637Q353 637 307 664Q270 686 245 686Q201 686 159 637L142 652Q188 700 208 715T256 731Q281 731 327 704Q364 682 389 682Q433 682 475 731L492 716Z" />
<glyph unicode="&#xf6;" glyph-name="odieresis" horiz-adv-x="636" d="M585 255Q585 142 507 64T318 -14T130 64T51 255Q51 367 129 447T318 528T507 448T585 255ZM499 266Q499 332 481 381T434 455T376 491T318 503Q290 503 261 492T203 456T156 382T137 266Q137
196 155 144T201 65T259 25T318 12T376 24T434 64T481 144T499 266ZM277 704T277 684T263 650T229 636T196 650T181 684T195 718T229 732T262 718ZM453 704T453 684T439 650T405 636T372 650T357 684T371 718T405 732T438 718Z" />
<glyph unicode="&#xf7;" glyph-name="divide" horiz-adv-x="844" d="M771 270T771 250T737 230H106Q72 230 72 250T105 270H738Q771 270 771 250ZM475 429T475 407T460 370T422 354T385 369T369 407T384 444T422 460T459 445ZM475 115T475 93T460 56T422 40T385
55T369 93T384 130T422 146T459 131Z" />
<glyph unicode="&#xf8;" glyph-name="oslash" horiz-adv-x="636" d="M585 255Q585 142 507 64T318 -14Q239 -14 176 27L119 -56L99 -42L155 41Q51 128 51 255Q51 367 129 447T318 528Q394 528 460 486L517 570L537 556L480 471Q525 438 555 380T585 255ZM513 255Q513
377 459 441L195 54Q245 8 318 8Q415 8 470 85Q513 145 513 255ZM441 460Q387 506 318 506Q220 506 164 425Q123 365 123 255Q123 136 176 72L441 460Z" />
<glyph unicode="&#xf9;" glyph-name="ugrave" horiz-adv-x="613" d="M570 489Q500 489 498 427V161Q497 99 447 43T317 -14T181 35T117 148Q115 161 115 223V440Q115 473 104 481T43 489V514L151 511L259 514V489Q210 489 199 481T187 442V173Q187 131 198 99T224
51T260 25T293 13T319 11Q377 11 425 54T473 178V413Q473 489 401 489V514Q443 511 486 511Q532 511 570 514V489ZM390 608L373 589L214 712Q196 727 196 742Q196 755 207 766T232 778Q247 778 268 753L390 608Z" />
<glyph unicode="&#xfa;" glyph-name="uacute" horiz-adv-x="613" d="M570 489Q500 489 498 427V161Q497 99 447 43T317 -14T181 35T117 148Q115 161 115 223V440Q115 473 104 481T43 489V514L151 511L259 514V489Q210 489 199 481T187 442V173Q187 131 198 99T224
51T260 25T293 13T319 11Q377 11 425 54T473 178V413Q473 489 401 489V514Q443 511 486 511Q532 511 570 514V489ZM455 742Q455 727 437 712L278 589L261 608L383 753Q404 778 419 778Q433 778 444 767T455 742Z" />
<glyph unicode="&#xfb;" glyph-name="ucircumflex" horiz-adv-x="613" d="M570 489Q500 489 498 427V161Q497 99 447 43T317 -14T181 35T117 148Q115 161 115 223V440Q115 473 104 481T43 489V514L151 511L259 514V489Q210 489 199 481T187 442V173Q187 131 198
99T224 51T260 25T293 13T319 11Q377 11 425 54T473 178V413Q473 489 401 489V514Q443 511 486 511Q532 511 570 514V489ZM477 610L464 596L325 704L186 596L173 610L325 772L477 610Z" />
<glyph unicode="&#xfc;" glyph-name="udieresis" horiz-adv-x="613" d="M570 489Q500 489 498 427V161Q497 99 447 43T317 -14T181 35T117 148Q115 161 115 223V440Q115 473 104 481T43 489V514L151 511L259 514V489Q210 489 199 481T187 442V173Q187 131 198
99T224 51T260 25T293 13T319 11Q377 11 425 54T473 178V413Q473 489 401 489V514Q443 511 486 511Q532 511 570 514V489ZM285 704T285 684T271 650T237 636T204 650T189 684T203 718T237 732T270 718ZM461 704T461 684T447 650T413 636T380 650T365 684T379 718T413
732T446 718Z" />
<glyph unicode="&#xff;" glyph-name="ydieresis" horiz-adv-x="613" d="M594 489Q530 486 486 419L341 205V75Q341 41 352 33T413 25V0L306 3L200 0V25Q249 25 260 33T272 72V206L101 457Q87 477 72 483T19 489V514Q64 511 116 511L224 514V489Q183 489 183 469Q183
459 195 442L333 239L456 421Q471 445 471 459Q471 486 442 489V514Q482 511 524 511Q562 511 594 514V489ZM266 704T266 684T252 650T218 636T184 650T170 684T184 718T218 732T252 718ZM442 704T442 684T428 650T394 636T360 650T346 684T360 718T394 732T428
718Z" />
<glyph unicode="&#x131;" glyph-name="dotlessi" horiz-adv-x="302" d="M263 0L151 3L39 0V25Q92 25 103 32T115 73V441Q115 474 104 481T39 489V514L151 511L263 514V489Q210 489 199 482T187 441V73Q187 40 198 33T263 25V0Z" />
<glyph unicode="&#x152;" glyph-name="OE" horiz-adv-x="1092" d="M1048 258L1006 0H595Q563 0 502 -14Q463 -22 433 -22Q294 -22 190 82T86 339Q86 492 189 598T434 705Q463 705 520 692Q563 683 595 683H991L1019 458H994Q987 515 978 547T949 606T895 642T804
652H678Q644 652 637 645T629 612V370H746Q821 370 843 393T866 487H891V222H866Q866 291 843 315T746 339H629V71Q629 45 636 38T678 31H806Q849 31 880 36T933 56T969 86T994 132T1010 187T1023 258H1048ZM553 151T553 342T548 576Q542 631 521 657T437 683Q334
683 260 589T186 354Q186 207 260 104T438 0Q472 0 494 8T527 34T542 69T549 115Q553 151 553 342Z" />
<glyph unicode="&#x153;" glyph-name="oe" horiz-adv-x="824" d="M795 194L766 0H454Q428 0 377 -9Q349 -14 327 -14Q220 -14 141 64T62 255T140 448T327 528Q350 528 395 520Q429 514 454 514H754L773 345H748Q740 429 713 459T607 489H521Q494 489 488 482T481
446V279H563Q618 279 635 296T653 366H678V167H653Q653 219 636 236T563 254H481V68Q481 39 487 32T521 25H610Q697 25 726 60T770 194H795ZM418 257Q418 401 414 432Q409 471 393 488T330 506Q254 506 200 437T145 266Q145 159 199 84T330 8Q379 8 394 27T415
92Q418 119 418 257Z" />
<glyph unicode="&#x178;" glyph-name="Ydieresis" horiz-adv-x="814" d="M787 652Q698 650 657 588L449 273V80Q449 49 461 40T529 31H552V0Q516 3 406 3T260 0V31H284Q338 31 350 40T363 78V273L137 618Q124 638 105 645T45 652H26V683L157 680Q270 680 305 683V652Q237
652 237 628Q237 621 246 608L439 314L617 585Q628 602 628 614Q628 652 574 652V683L689 680Q740 680 787 683V652ZM351 804T351 784T337 750T303 736T270 750T255 784T269 818T303 832T336 818ZM559 804T559 784T545 750T511 736T478 750T463 784T477 818T511
832T544 818Z" />
<glyph unicode="&#x192;" glyph-name="florin" horiz-adv-x="536" d="M496 342H471Q463 427 434 456T322 486H227Q200 486 194 479T187 443V268H254Q308 268 323 285T339 355H364V156H339Q339 208 324 225T254 243H187V75Q187 39 202 32T277 25V0L154 3L43 0V25Q92
25 103 33T115 72V439Q115 470 104 478T43 486V511H477L496 342Z" />
<glyph unicode="&#x2c6;" glyph-name="circumflex" horiz-adv-x="553" d="M428 527L415 513L276 621L137 513L124 527L276 689L428 527Z" />
<glyph unicode="&#x2c7;" glyph-name="caron" horiz-adv-x="553" d="M428 675L276 513L124 675L137 689L276 581L415 689L428 675Z" />
<glyph unicode="&#x2d8;" glyph-name="breve" horiz-adv-x="553" d="M432 687Q431 613 386 564T276 515T167 564T120 687H142Q143 626 183 590T276 553T368 589T410 687H432Z" />
<glyph unicode="&#x2d9;" glyph-name="dotaccent" horiz-adv-x="319" d="M213 623T213 601T198 564T160 548T123 563T107 601T122 638T160 654T197 639Z" />
<glyph unicode="&#x2da;" glyph-name="ring" horiz-adv-x="814" d="M474 559T474 617T407 675T340 617T407 559ZM507 616Q507 581 479 555T406 529Q366 529 337 554T307 618Q307 653 335 679T408 705Q448 705 477 680T507 616Z" />
<glyph unicode="&#x2db;" glyph-name="ogonek" horiz-adv-x="553" d="M376 -100Q365 -138 336 -161T273 -184Q232 -184 205 -160T177 -105T198 -45Q221 -15 254 5H292Q261 -8 239 -35Q219 -60 219 -83Q219 -111 243 -127T293 -144Q338 -144 360 -94Q363 -88 370
-90T376 -100Z" />
<glyph unicode="&#x2dc;" glyph-name="tilde" horiz-adv-x="553" d="M451 633Q405 585 385 570T337 554Q312 554 266 581Q229 603 204 603Q160 603 118 554L101 569Q147 617 167 632T215 648Q240 648 286 621Q323 599 348 599Q392 599 434 648L451 633Z" />
<glyph unicode="&#x2dd;" glyph-name="hungarumlaut" horiz-adv-x="553" d="M455 659Q455 648 441 631L345 507L324 521L384 665Q396 694 417 694Q432 694 443 684T455 659ZM280 659Q280 648 266 631L170 507L149 521L209 665Q221 694 242 694Q257 694 268 684T280 659Z" />
<glyph unicode="&#x3a9;" glyph-name="Omega" horiz-adv-x="786" d="M724 162L691 0H522Q509 0 505 1T499 6T496 20Q496 89 551 231Q571 280 581 309T600 379T610 455Q610 562 545 622T392 683Q307 683 241 623T175 455Q175 377 231 238Q289 90 289 20Q289 6 285
3T264 0H94L61 162H86Q100 97 105 84Q108 77 111 74T130 68T173 65H260Q253 92 238 122T210 171T172 227Q138 275 121 303T88 373T72 455Q72 557 164 631T393 705Q528 705 620 631T713 455Q713 414 697 370T661 297T605 215Q542 127 525 65H612Q654 65 665 70T681
89Q688 108 699 162H724Z" />
<glyph unicode="&#x2013;" glyph-name="endash" horiz-adv-x="553" d="M538 255H14V277H538V255Z" />
<glyph unicode="&#x2014;" glyph-name="emdash" horiz-adv-x="1106" d="M1077 255H28V277H1077V255Z" />
<glyph unicode="&#x2018;" glyph-name="quoteleft" horiz-adv-x="319" d="M212 468T212 447T198 410T159 394Q126 394 109 424T91 499Q91 552 113 600T157 670T187 693Q198 693 198 682Q198 678 193 673Q113 597 113 498Q113 483 114 477Q129 500 159 500Q184
500 198 484Z" />
<glyph unicode="&#x2019;" glyph-name="quoteright" horiz-adv-x="319" d="M227 589Q227 536 205 488T161 418T131 395Q120 395 120 406Q120 410 125 415Q205 491 205 590Q205 605 204 611Q189 588 159 588Q134 588 120 604T106 641T120 678T159 694Q192 694 209
664T227 589Z" />
<glyph unicode="&#x201a;" glyph-name="quotesinglbase" horiz-adv-x="319" d="M220 -1Q220 -54 198 -102T154 -172T124 -195Q113 -195 113 -184Q113 -180 118 -175Q198 -99 198 0Q198 15 197 21Q182 -2 152 -2Q127 -2 113 14T99 51T113 88T152 104Q185 104 202
74T220 -1Z" />
<glyph unicode="&#x201c;" glyph-name="quotedblleft" horiz-adv-x="523" d="M416 468T416 447T402 410T363 394Q330 394 313 424T295 499Q295 552 317 600T361 670T391 693Q402 693 402 682Q402 678 397 673Q317 597 317 498Q317 483 318 477Q333 500 363 500Q388
500 402 484ZM212 468T212 447T198 410T159 394Q126 394 109 424T91 499Q91 552 113 600T157 670T187 693Q198 693 198 682Q198 678 193 673Q113 597 113 498Q113 483 114 477Q129 500 159 500Q184 500 198 484Z" />
<glyph unicode="&#x201d;" glyph-name="quotedblright" horiz-adv-x="523" d="M432 589Q432 536 410 488T366 418T336 395Q325 395 325 406Q325 410 330 415Q410 491 410 590Q410 605 409 611Q394 588 364 588Q339 588 325 604T311 641T325 678T364 694Q397 694
414 664T432 589ZM228 589Q228 536 206 488T162 418T132 395Q121 395 121 406Q121 410 126 415Q206 491 206 590Q206 605 205 611Q190 588 160 588Q135 588 121 604T107 641T121 678T160 694Q193 694 210 664T228 589Z" />
<glyph unicode="&#x201e;" glyph-name="quotedblbase" horiz-adv-x="523" d="M432 -1Q432 -54 410 -102T366 -172T336 -195Q325 -195 325 -184Q325 -180 330 -175Q410 -99 410 0Q410 15 409 21Q394 -2 364 -2Q339 -2 325 14T311 51T325 88T364 104Q397 104 414
74T432 -1ZM228 -1Q228 -54 206 -102T162 -172T132 -195Q121 -195 121 -184Q121 -180 126 -175Q206 -99 206 0Q206 15 205 21Q190 -2 160 -2Q135 -2 121 14T107 51T121 88T160 104Q193 104 210 74T228 -1Z" />
<glyph unicode="&#x2020;" glyph-name="dagger" horiz-adv-x="444" d="M387 430Q387 425 386 419T375 405T350 397Q325 397 281 411Q249 419 231 421Q234 383 241 350Q255 279 255 218Q255 98 246 -44Q242 -137 235 -198Q234 -206 233 -208T230 -213T221 -216Q209
-216 208 -196Q188 15 188 218Q188 279 202 351Q209 388 212 421Q186 418 164 411Q115 397 93 397Q56 397 56 431Q56 436 57 442T68 456T93 464Q118 464 162 450Q194 442 212 440Q210 485 201 547Q188 625 188 664Q188 705 222 705Q255 705 255 664Q255 634 244
553Q234 491 231 440Q257 443 279 450Q328 464 350 464Q387 464 387 430Z" />
<glyph unicode="&#x2021;" glyph-name="daggerdbl" horiz-adv-x="444" d="M387 477Q387 472 386 466T375 452T350 444Q325 444 281 458Q249 466 231 468Q232 444 244 373Q255 318 255 289Q255 250 221 250Q188 250 188 289Q188 318 201 390Q211 436 212 468Q186
465 164 458Q115 444 93 444Q56 444 56 478Q56 483 57 489T68 503T93 511Q118 511 162 497Q194 489 212 487Q211 511 199 582Q188 637 188 666Q188 705 221 705Q255 705 255 666Q255 636 242 565Q232 519 231 487Q257 490 279 497Q328 511 350 511Q387 511 387
477ZM387 35T387 22T379 -1T353 -11Q330 -11 297 -2Q253 10 231 12Q234 -35 241 -60Q255 -139 255 -166Q255 -205 221 -205Q188 -205 188 -166Q188 -138 199 -82Q210 -16 212 12Q189 9 149 -1Q122 -11 90 -11Q73 -11 65 -1T56 22Q56 34 64 44T90 55Q114 55 146
46Q190 34 212 32Q209 79 202 104Q188 183 188 210Q188 249 222 249Q255 249 255 210Q255 182 244 126Q233 60 231 32Q254 34 286 44Q329 55 354 55Q369 55 378 45Z" />
<glyph unicode="&#x2022;" glyph-name="bullet" horiz-adv-x="844" d="M602 350T602 276T549 149T422 96T295 149T242 276T295 403T422 456T549 403Z" />
<glyph unicode="&#x2026;" glyph-name="ellipsis" horiz-adv-x="720" d="M213 75T213 53T198 16T160 0T123 15T107 53T122 90T160 106T197 91ZM413 75T413 53T398 16T360 0T323 15T307 53T322 90T360 106T397 91ZM613 75T613 53T598 16T560 0T523 15T507 53T522
90T560 106T597 91Z" />
<glyph unicode="&#x2030;" glyph-name="perthousand" horiz-adv-x="1209" d="M1148 145Q1148 61 1108 3T1010 -56Q949 -56 903 1T856 146Q856 231 902 289T1010 347Q1068 347 1108 289T1148 145ZM806 145Q806 61 766 3T668 -56Q607 -56 561 1T514 146Q514 231
560 289T668 347Q726 347 766 289T806 145ZM731 730Q731 723 722 712L190 -42Q180 -56 169 -56Q161 -56 155 -50T149 -36Q149 -29 159 -15L631 652L630 653Q568 618 491 618Q400 618 330 662Q353 610 353 548Q353 464 313 406T215 347Q154 347 108 404T61 549Q61
634 107 692T215 750Q256 750 289 719Q379 640 491 640Q616 640 690 735Q702 750 711 750Q719 750 725 744T731 730ZM1123 146Q1123 223 1089 274T1012 325Q1004 325 995 323T971 311T945 282T926 229T918 145T926 62T945 9T971 -19T995 -32T1012 -34Q1055 -34
1089 17T1123 146ZM781 146Q781 223 747 274T670 325Q662 325 653 323T629 311T603 282T584 229T576 145T584 62T603 9T629 -19T653 -32T670 -34Q713 -34 747 17T781 146ZM328 549Q328 626 294 677T217 728Q209 728 200 726T176 714T150 685T131 632T123 548T131
465T150 412T176 384T200 371T217 369Q260 369 294 420T328 549Z" />
<glyph unicode="&#x2039;" glyph-name="guilsinglleft" horiz-adv-x="408" d="M292 12Q294 0 282 0H280Q273 0 271 7Q222 138 120 234Q117 237 117 242Q117 246 120 249Q223 346 271 477Q272 483 280 483H282Q294 483 292 471Q261 349 189 242Q260 136 292 12Z" />
<glyph unicode="&#x203a;" glyph-name="guilsinglright" horiz-adv-x="408" d="M291 242Q291 237 288 234Q185 137 138 7Q134 0 128 0H126Q121 0 119 4T117 12Q147 135 219 242Q147 350 117 471Q116 475 118 479T126 483H128Q135 483 138 477Q185 346 288 249Q291
246 291 242Z" />
<glyph unicode="&#x2044;" glyph-name="fraction" horiz-adv-x="627" d="M555 663Q555 658 551 652L109 9Q103 0 92 0Q84 0 78 6T72 20Q72 25 76 31L518 675Q524 683 535 683Q543 683 549 677T555 663Z" />
<glyph unicode="&#x20ac;" glyph-name="Euro" horiz-adv-x="657" d="M599 -12Q599 -22 589 -22H586Q580 -22 579 -19L539 25Q487 -22 418 -22Q356 -22 301 6T204 85Q139 164 122 271H66Q61 271 59 275T57 284L60 294Q62 301 70 301H118Q116 327 116 342Q116 355
118 383H66Q61 383 59 387T57 396L60 406Q62 413 70 413H122Q140 520 204 598Q245 648 300 676T418 705Q488 705 539 659L579 702Q580 705 586 705H589Q599 705 599 695V540Q599 530 589 530H579Q571 530 569 539Q563 596 524 635T429 675Q381 675 340 649T271
580Q228 512 221 413H532Q537 413 540 409T542 400L539 390Q537 383 529 383H219L218 342L219 301H498Q503 301 506 297T508 288L505 278Q503 271 495 271H221Q228 171 271 103Q298 60 339 34T429 8Q484 8 523 47T569 144Q571 153 579 153H589Q599 153 599 143V-12Z"
/>
<glyph unicode="&#x2122;" glyph-name="trademark" horiz-adv-x="1065" d="M440 548H425Q418 625 399 645T310 665Q281 665 275 664Q266 663 264 658T262 641V325Q262 312 264 308T280 300T325 296H349V277Q325 279 235 279Q146 279 122 277V296H146Q177 296 190
299T206 307T209 325V641Q209 648 209 650T208 656T204 661T196 664Q190 665 161 665Q91 665 72 645T46 548H31L43 683H428L440 548ZM997 277Q975 279 911 279T825 277V296H839Q872 296 879 301T887 324V669L886 670L731 288Q724 277 719 277Q712 277 708 288L554
665V340Q554 331 555 326T561 313T580 300T616 296V277L545 279L475 277V296Q497 296 510 300T529 312T536 326T537 340V640Q537 658 530 663T490 668H475V687H577Q593 687 597 676L736 334L875 676Q879 684 882 685T896 687H997V668H983Q950 668 943 663T935 640V324Q935
306 942 301T983 296H997V277Z" />
<glyph unicode="&#x221a;" glyph-name="radical" horiz-adv-x="472" d="M522 715Q522 697 504 695H406Q406 691 398 663L245 77L206 -73Q203 -85 201 -90T193 -99T176 -104H167Q161 -103 158 -86L147 -29L114 134Q113 141 107 170T98 215L38 121L24 136L29 148L137
315L193 36Q194 44 198 58T203 76L362 682Q363 685 365 695T368 709T372 719T379 728T389 732T404 735H494Q522 735 522 715Z" />
<glyph unicode="&#x221e;" glyph-name="infinity" horiz-adv-x="1050" d="M477 193L426 255Q400 287 385 304T345 344T294 377T240 388Q176 388 133 337T90 216Q90 139 133 83T243 27Q374 27 477 193ZM960 216Q960 292 917 348T807 404Q676 404 573 238L624 176Q650
144 665 127T705 87T756 54T810 43Q874 43 917 94T960 216ZM1002 216Q1002 117 940 46T787 -25Q654 -25 543 111L517 143Q404 -22 260 -22Q170 -22 109 48T48 216Q48 314 110 385T263 456Q396 456 507 320L533 288Q646 453 790 453Q880 453 941 383T1002 216Z"
/>
</font>
</defs>
</svg>
