<?xml version="1.0" standalone="no"?> <!DOCTYPE svg PUBLIC "-//W3C//DTD SVG 1.0//EN" "http://www.w3.org/TR/2001/REC-SVG-20010904/DTD/svg10.dtd" > <svg xmlns="http://www.w3.org/2000/svg" width="100%" height="100%">
<defs >
<font id="LMSans10-BoldOblique" horiz-adv-x="596" ><font-face
    font-family="LM Sans 10"
    units-per-em="1000"
    panose-1="0 0 8 0 0 0 0 0 0 0"
    ascent="885"
    descent="-250"
    alphabetic="0" />
<missing-glyph horiz-adv-x="364" d="M33 0V666H298V0H33ZM66 33H265V633H66V33Z" />
<glyph unicode=" " glyph-name="space" horiz-adv-x="367" />
<glyph unicode="!" glyph-name="exclam" horiz-adv-x="367" d="M392 673Q383 632 364 555T338 448L284 224Q279 204 274 200T250 196H201Q190 196 186 196T179 199T176 206Q175 209 191 294T212 404Q218 435 234 528T261 673Q265 688 270 691T293 694H370Q388
694 392 691T392 673ZM259 48Q254 21 242 11T201 0H166Q139 0 131 10T128 48L136 83Q141 110 153 120T194 131H229Q258 131 265 120T267 83L259 48Z" />
<glyph unicode="&quot;" glyph-name="quotedbl" horiz-adv-x="578" d="M322 475Q318 456 302 443T266 430H221Q202 430 192 443T186 475L228 671Q232 690 247 703T282 716H327Q346 716 357 703T364 671L322 475ZM594 475Q590 456 574 443T538 430H493Q474 430
464 443T458 475L500 671Q504 690 519 703T554 716H599Q618 716 629 703T636 671L594 475Z" />
<glyph unicode="#" glyph-name="numbersign" horiz-adv-x="917" d="M884 135Q875 93 822 93H593L467 -157Q447 -194 417 -194Q399 -194 390 -182T384 -152Q386 -137 505 93H360L234 -157Q214 -194 184 -194Q166 -194 157 -182T151 -152Q153 -137 272 93H134Q124
93 116 94T97 105T90 135Q99 177 153 177H315L387 323H184Q173 323 165 324T146 335T139 365Q148 407 201 407H430L556 657Q573 694 606 694Q624 694 633 682T639 652Q638 646 612 593T554 478T518 407H663L789 657Q806 694 839 694Q857 694 866 682T872 652Q871
646 845 593T787 478T751 407H889Q899 407 907 406T926 395T933 365Q924 323 870 323H708L636 177H839Q850 177 858 176T877 165T884 135ZM620 323H475L403 177H548L620 323Z" />
<glyph unicode="$" glyph-name="dollar" horiz-adv-x="550" d="M532 207Q491 12 309 -9Q300 -56 263 -56Q228 -56 237 -9Q148 -1 84 47Q69 59 66 62T64 71Q65 75 71 92T85 128T95 152Q102 167 111 167Q119 167 122 162Q177 102 258 91L301 294Q226 308 189 365T167
501Q188 593 242 643Q299 695 388 703L389 707Q390 711 391 713T393 719T396 727T401 734T407 740T414 745T423 749T434 750Q471 750 461 704Q509 701 550 680Q551 679 553 678T561 674T573 668T584 660T595 652T603 644T605 636Q605 630 600 623L578 566Q571 544
559 544Q554 544 549 549Q500 596 439 603L402 428Q476 413 513 353T532 207ZM334 445L367 602Q303 590 288 524Q276 466 334 445ZM411 184Q418 216 407 240T370 276L331 93Q396 108 411 184Z" />
<glyph unicode="%" glyph-name="percent" horiz-adv-x="1029" d="M538 548Q496 347 317 347Q135 347 178 549Q220 750 402 750Q581 750 538 548ZM980 708Q980 696 962 677L273 -35Q252 -56 231 -56Q214 -56 204 -44T198 -14Q201 0 218 17L906 729Q927 750 947
750Q965 750 974 738T980 708ZM998 145Q979 54 926 -1T776 -56Q594 -56 637 146Q680 347 862 347Q1041 347 998 145ZM425 549Q443 647 414 670Q403 678 386 678Q368 678 355 670T333 651T317 620T306 587T297 548Q281 468 290 443Q300 419 331 419Q397 419 425
549ZM884 146Q912 275 845 275Q827 275 814 267T792 248T776 217T765 184T757 146Q754 129 753 122T749 100T746 78T746 58T749 40T757 28T770 19T790 16Q856 16 884 146Z" />
<glyph unicode="&amp;" glyph-name="ampersand" horiz-adv-x="831" d="M774 25Q771 9 769 4T759 -3Q757 -5 742 -9T696 -17T637 -22Q550 -22 464 33Q354 -22 242 -22Q156 -22 109 27T77 147Q92 215 151 261Q174 278 270 335Q248 429 268 523Q286 608 353 662T495
716Q567 716 604 667T629 553Q618 505 565 456T403 340Q420 292 455 237T506 165Q557 200 614 263T717 413Q725 430 728 434T739 439Q745 439 808 420Q821 416 819 406Q818 397 792 352T705 231T574 102Q612 78 660 78Q712 78 767 98Q775 102 778 102Q787 102 788
95T785 73L774 25ZM514 552Q523 581 515 612T480 644T426 620T387 546Q374 477 385 407Q498 476 514 552ZM390 102Q315 200 290 270Q233 241 219 174Q217 165 217 153T218 122T232 91T267 78Q326 78 390 102Z" />
<glyph unicode="&apos;" glyph-name="quotesingle" horiz-adv-x="306" d="M322 475Q318 456 302 443T266 430H221Q202 430 192 443T186 475L228 671Q232 690 247 703T282 716H327Q346 716 357 703T364 671L322 475Z" />
<glyph unicode="(" glyph-name="parenleft" horiz-adv-x="428" d="M316 -237Q313 -250 286 -250H268Q252 -250 247 -248T229 -231Q181 -178 155 -112T124 22T123 143T139 250Q172 405 251 530T439 734Q454 746 460 748T480 750H498Q508 750 512 750T520 746T523
737Q522 734 514 726Q481 694 455 663T394 576T328 437T275 250Q248 124 248 26T264 -122T307 -219Q316 -231 316 -237Z" />
<glyph unicode=")" glyph-name="parenright" horiz-adv-x="428" d="M394 250Q361 94 282 -31T94 -234Q79 -246 73 -248T53 -250H35Q27 -250 24 -250T16 -249T11 -245T11 -237Q11 -233 19 -226Q53 -193 78 -162T139 -75T205 63T258 250Q285 376 284 474T268 623T226
719Q217 733 218 737Q220 750 247 750H265Q280 750 286 748T304 731Q352 678 378 612T409 478T410 357T394 250Z" />
<glyph unicode="*" glyph-name="asterisk" horiz-adv-x="550" d="M574 436Q569 413 549 396T508 378Q492 378 479 394L398 486V355V336Q395 319 377 306T336 292Q315 292 302 305T293 336Q300 353 301 355L357 486L237 394Q216 378 201 378Q181 378 169 395T161
436Q168 468 203 479L345 521L220 563Q189 573 197 606Q202 629 222 646T262 664Q278 664 292 648L372 556V687V706Q376 724 394 737T434 750Q455 750 468 737T477 706Q470 689 469 687L413 556L534 648Q555 664 569 664Q589 664 602 647T610 606Q603 575 568 563L426
521L551 479Q580 469 574 436Z" />
<glyph unicode="+" glyph-name="plus" horiz-adv-x="856" d="M847 250Q838 208 785 208H514L456 -64Q445 -117 403 -117T372 -64L430 208H158Q148 208 140 209T121 220T114 250Q123 292 176 292H448L506 564Q517 617 559 617T590 564L532 292H803Q813 292 821
291T840 280T847 250Z" />
<glyph unicode="," glyph-name="comma" horiz-adv-x="306" d="M224 27Q219 7 208 -6L138 -89Q128 -101 123 -103T103 -106H91Q83 -106 80 -106T73 -105T68 -101T68 -93L94 -48L121 0Q96 0 92 4T93 27L109 104Q114 124 118 127T142 131H219Q239 131 241 128T240
104L224 27Z" />
<glyph unicode="-" glyph-name="hyphen" horiz-adv-x="367" d="M354 229Q346 193 298 193H101Q90 193 83 194T66 204T61 229Q68 265 116 265H313Q361 265 354 229Z" />
<glyph unicode="." glyph-name="period" horiz-adv-x="306" d="M224 27Q219 7 215 4T191 0H114Q94 0 92 4T93 27L109 104Q114 124 118 127T142 131H219Q239 131 241 128T240 104L224 27Z" />
<glyph unicode="/" glyph-name="slash" horiz-adv-x="550" d="M638 708Q637 700 628 685L99 -216Q80 -250 50 -250Q32 -250 23 -238T17 -208Q18 -200 28 -185L556 716Q575 750 605 750Q623 750 632 738T638 708Z" />
<glyph unicode="0" glyph-name="zero" horiz-adv-x="550" d="M579 343Q573 314 570 299T558 252T543 203T524 155T500 108T470 67T433 30T388 3T333 -16T269 -22Q221 -22 187 -8T133 25T103 79T91 141T94 212T103 278T116 343Q125 384 130 408T149 477T177 549T216
612T269 667T338 701T427 716T509 702T563 667T592 612T604 549T602 476T593 408T579 343ZM446 357Q474 494 478 540Q483 644 411 644Q335 644 297 529Q278 472 255 357Q226 226 222 169Q209 50 285 50Q362 50 398 167Q418 226 446 357Z" />
<glyph unicode="1" glyph-name="one" horiz-adv-x="550" d="M481 36Q473 0 425 0H140Q129 0 121 1T105 11T100 36Q107 72 155 72H233L343 588Q293 575 246 575Q235 575 227 576T211 586T206 611Q213 647 258 647Q354 649 424 702Q442 716 463 716Q492 716 498
699T497 668L370 72H440Q450 72 458 71T475 61T481 36Z" />
<glyph unicode="2" glyph-name="two" horiz-adv-x="550" d="M504 48Q499 21 487 11T446 0H103Q76 0 68 10T65 48L67 56Q69 66 70 69T74 76T83 85L317 289Q437 393 457 484Q468 536 449 576T375 616Q289 616 233 505Q225 486 215 486Q208 486 202 498L165 562Q200
632 262 672Q325 716 411 716Q517 716 567 649T597 486Q588 444 562 406T513 347T446 290L365 232L207 107H369L437 108Q489 108 495 104Q514 95 507 60L504 48Z" />
<glyph unicode="3" glyph-name="three" horiz-adv-x="550" d="M546 203Q524 98 453 38T258 -22Q199 -22 150 -1T81 42T61 72L88 141Q94 152 103 152Q107 152 115 142Q175 72 273 72Q334 72 360 106T400 205Q407 244 408 274T389 321T326 339H282Q262 339 260 342T261
366L265 384Q269 406 277 409Q279 410 311 413Q330 414 340 416T367 425T397 445Q436 483 449 545Q458 587 448 607T393 627Q309 627 243 554Q232 543 226 543Q219 543 214 555L194 595L191 610Q191 613 201 624T231 650T278 681T341 706T417 716Q431 716 444 715T475
712T508 704T539 690T566 668T585 638T593 597T588 543Q565 436 445 377Q575 342 546 203Z" />
<glyph unicode="4" glyph-name="four" horiz-adv-x="550" d="M561 200Q555 172 542 163T503 153H461L438 48Q433 21 421 11T380 0H352Q323 0 316 11T314 48L337 153H112Q83 153 76 164T74 201L79 226Q84 246 95 262L404 671Q421 694 455 694H528Q556 694 563 684T565
646L481 247H523Q550 247 558 237T561 200ZM363 247L435 589H434Q414 546 188 247H363Z" />
<glyph unicode="5" glyph-name="five" horiz-adv-x="550" d="M541 221Q516 101 439 40T240 -22Q200 -22 167 -11T113 16T80 49T61 79T57 94Q58 98 108 159Q119 172 127 172Q133 172 137 160Q163 72 257 72Q287 72 310 81T346 102T369 138T384 178T395 225Q412
284 409 331T363 379Q298 379 250 320Q237 303 228 300T196 296Q183 296 177 297T163 302T154 316T156 342L221 648Q227 676 240 685T279 694H557Q589 694 595 679T594 644Q591 631 589 625T580 610T563 598T535 594H339L306 438Q344 451 382 451Q491 451 527 389T541
221Z" />
<glyph unicode="6" glyph-name="six" horiz-adv-x="550" d="M553 236Q539 170 519 127T454 43Q382 -22 274 -22Q226 -22 191 -7T137 31T109 89T97 153T98 224T107 287T118 340Q199 716 486 716Q523 716 547 706T574 691T574 668L566 631Q561 604 548 604Q543 604
535 611Q509 627 470 627Q372 627 322 542Q306 514 297 489T269 390Q329 479 410 479Q604 479 553 236ZM413 237Q420 270 423 284T429 324T430 360T422 384T403 402T370 407Q320 407 288 362T241 248Q233 211 230 184T230 129T249 87T293 72Q318 72 336 80T366
101T386 137T400 181T413 237Z" />
<glyph unicode="7" glyph-name="seven" horiz-adv-x="550" d="M640 644Q634 618 624 608Q500 485 416 344T291 28Q283 -11 235 -11H189Q160 -11 153 0T151 37Q217 341 492 587H323L253 586Q199 586 192 590Q172 599 181 634L184 647Q187 661 192 670T201 685T217
692T236 694T262 695H325L609 694Q636 693 641 677T640 644Z" />
<glyph unicode="8" glyph-name="eight" horiz-adv-x="550" d="M546 203Q498 -22 269 -22Q41 -22 89 203Q119 340 248 374Q147 411 172 521Q213 716 427 716Q640 716 599 521Q574 410 459 374Q574 339 546 203ZM471 520Q486 573 474 600T407 627T332 603T300 520Q295
497 293 485T292 457T300 432T322 417T362 411Q392 411 412 419T443 445T460 477T471 520ZM408 205Q414 231 416 245T418 280T411 311T388 330T346 339Q314 339 293 329T259 295T241 255T229 205Q223 177 221 161T218 126T225 96T248 79T290 72Q315 72 334 79T364
97T385 126T398 161T408 205Z" />
<glyph unicode="9" glyph-name="nine" horiz-adv-x="550" d="M579 356Q499 -22 224 -22Q180 -22 146 -8T99 19T87 39Q89 46 133 100Q144 113 151 113T162 105Q191 72 242 72Q362 72 410 234Q415 252 419 268T425 293T428 305Q370 215 287 215Q236 215 204 230T151
282Q136 309 133 340T132 396T144 459Q157 521 175 561T231 641Q308 716 427 716Q474 716 508 701T560 665T588 607T600 544T598 474T590 411T579 356ZM457 445Q477 524 468 575T410 627Q383 627 364 618T333 597T311 559T296 514T283 458Q276 426 273 410T267
370T267 335T275 310T294 292T327 287Q360 287 386 308T427 362T448 413T457 445Z" />
<glyph unicode=":" glyph-name="colon" horiz-adv-x="306" d="M293 354Q289 334 285 331T261 327H184Q164 327 161 330T162 354L179 431Q183 451 187 454T211 458H288Q308 458 311 454T310 431L293 354ZM224 27Q219 7 215 4T191 0H114Q94 0 92 4T93 27L109 104Q114
124 118 127T142 131H219Q239 131 241 128T240 104L224 27Z" />
<glyph unicode=";" glyph-name="semicolon" horiz-adv-x="306" d="M293 354Q289 334 285 331T261 327H184Q164 327 161 330T162 354L179 431Q183 451 187 454T211 458H288Q308 458 311 454T310 431L293 354ZM224 27Q219 7 208 -6L138 -89Q128 -101 123 -103T103
-106H91Q83 -106 80 -106T73 -105T68 -101T68 -93L94 -48L121 0Q96 0 92 4T93 27L109 104Q114 124 118 127T142 131H219Q239 131 241 128T240 104L224 27Z" />
<glyph unicode="&lt;" glyph-name="less" horiz-adv-x="894" d="M785 -56Q783 -67 772 -76T748 -86Q740 -86 727 -79L168 219Q146 230 149 251Q153 270 181 282L870 581Q882 587 891 587Q904 587 910 578T915 557Q912 538 884 525L250 250L767 -24Q789 -37 785 -56Z" />
<glyph unicode="=" glyph-name="equal" horiz-adv-x="856" d="M872 365Q863 323 809 323H184Q173 323 165 324T146 335T139 365Q148 407 201 407H828Q838 407 846 406T865 395T872 365ZM823 135Q814 93 761 93H134Q124 93 116 94T97 105T90 135Q99 177 153 177H778Q789
177 797 176T816 165T823 135Z" />
<glyph unicode="&gt;" glyph-name="greater" horiz-adv-x="894" d="M850 251Q846 230 819 219L129 -80Q117 -86 109 -86Q95 -86 89 -77T84 -56Q88 -36 116 -24L749 251L233 525Q210 537 214 557Q217 569 228 578T251 587Q260 587 272 580L832 282Q854 271 850 251Z" />
<glyph unicode="?" glyph-name="question" horiz-adv-x="519" d="M575 554Q559 477 495 438Q371 357 349 250L343 223Q339 203 335 200T310 196H261Q238 196 235 204Q235 211 242 239Q271 378 393 480Q409 493 415 500T428 521T440 559Q449 601 439 617T382 633Q300
633 233 569Q224 560 218 560Q208 560 207 577L199 626L197 642Q199 651 233 667Q311 705 400 705Q425 705 442 704T491 695T543 673T573 628T575 554ZM319 48Q314 21 302 11T261 0H226Q199 0 191 10T188 48L196 83Q201 110 213 120T254 131H289Q318 131 325 120T327
83L319 48Z" />
<glyph unicode="@" glyph-name="at" horiz-adv-x="733" d="M690 88Q688 78 649 55T577 19Q499 -11 421 -11Q245 -11 171 78T135 347Q173 526 284 615T573 705Q636 705 677 688T740 644T766 571T768 479T749 367Q744 343 741 329T727 286T705 238T672 194T626 154T564
129T483 118Q271 118 320 347T580 576Q615 576 645 569Q633 633 557 633Q427 633 349 550Q283 479 255 347Q226 212 266 138Q310 61 439 61Q516 61 602 97Q609 101 627 101H665Q675 101 679 101T687 97T690 88ZM625 347Q657 504 565 504T440 347Q404 190 499 190Q592
190 625 347Z" />
<glyph unicode="A" glyph-name="A" horiz-adv-x="733" d="M696 27Q690 0 651 0H597Q574 0 562 7T547 24T542 55L528 151H251L189 40Q166 0 117 0H81Q70 0 64 1T52 8T48 27Q50 35 57 47L396 651Q421 694 470 694H558Q572 694 580 693T599 681T612 651L695 47Q697
33 696 27ZM516 237L481 518Q478 541 479 567H478Q460 526 416 449L299 237H516Z" />
<glyph unicode="B" glyph-name="B" horiz-adv-x="733" d="M712 194Q699 131 662 89T574 29T488 6T413 0H139Q112 0 104 10T101 48L228 646Q234 673 247 683T287 694H533Q717 694 748 595Q759 560 749 514Q737 456 692 418T572 363Q742 335 712 194ZM613 511Q619
538 610 557T586 585T548 600T510 607T478 608H361L316 397H432Q446 397 458 397T498 404T546 421T586 455T613 511ZM574 196Q582 232 572 258T545 297T501 316T459 324T427 325H301L250 86H395Q551 86 574 196Z" />
<glyph unicode="C" glyph-name="C" horiz-adv-x="703" d="M657 49Q655 41 651 38T624 23Q569 -3 528 -12T425 -22Q56 -22 135 347Q212 716 581 716Q677 716 752 687Q771 680 775 678T777 668Q774 659 772 655L739 568Q732 550 721 550Q715 550 708 557Q679 587
646 601T559 616Q500 616 453 596T378 549T329 482T299 412T282 347Q269 289 269 244T285 159T342 99T449 78Q511 78 549 90T637 134Q653 145 659 145Q670 145 668 127Q667 123 665 105T661 70T657 49Z" />
<glyph unicode="D" glyph-name="D" horiz-adv-x="794" d="M805 342Q771 183 674 92T403 0H139Q112 0 104 10T101 48L228 646Q234 673 247 683T287 694H551Q726 694 788 589Q838 503 805 342ZM661 342Q668 377 671 401T675 460T666 518T637 563T581 597T492 608H364L253
86H382Q443 86 490 102T565 142T613 204T643 271T661 342Z" />
<glyph unicode="E" glyph-name="E" horiz-adv-x="642" d="M605 48Q600 21 588 11T547 0H139Q112 0 104 10T101 48L228 643Q234 671 246 681T286 691H679Q708 691 715 680T717 643L715 635Q710 612 700 601T679 589T647 587L412 590H363L324 405H587Q614 405 622
395T625 358Q619 330 606 321T567 311H304L261 106L407 108L562 110Q583 110 592 109T607 96T608 62L605 48Z" />
<glyph unicode="F" glyph-name="F" horiz-adv-x="611" d="M699 635Q694 612 684 601T663 589T632 587L406 590H363L322 393H554Q581 393 589 383T592 346Q586 318 573 309T534 299H302L248 48Q243 21 231 11T190 0H139Q112 0 104 10T101 48L228 643Q234 671 246
681T286 691H663Q692 691 699 680T701 643L699 635Z" />
<glyph unicode="G" glyph-name="G" horiz-adv-x="733" d="M670 54Q667 35 663 31Q656 26 628 15T540 -9T420 -22Q240 -22 168 71T135 347Q213 716 579 716Q680 716 764 676Q787 664 788 659Q789 657 788 654Q785 645 783 641L750 554Q743 536 732 536Q728 536
723 541Q705 560 697 568T668 591T621 610T559 616Q338 616 282 347Q274 309 271 277T272 206T295 141T350 96T446 78Q495 78 542 89L572 230H503Q483 230 481 234T482 257L490 297Q495 317 499 320T523 324H701Q721 324 723 320T722 297L670 54Z" />
<glyph unicode="H" glyph-name="H" horiz-adv-x="794" d="M712 48Q707 21 695 11T654 0H603Q574 0 567 11T565 48L622 314H305L248 48Q243 21 231 11T190 0H139Q112 0 104 10T101 48L228 646Q234 673 247 683T287 694H338Q367 694 374 683T375 646L325 408H642L692
646Q698 673 710 683T751 694H802Q831 694 838 683T839 646L712 48Z" />
<glyph unicode="I" glyph-name="I" horiz-adv-x="331" d="M249 48Q244 21 232 11T191 0H140Q113 0 105 10T102 48L229 646Q235 673 248 683T288 694H339Q368 694 375 683T376 646L249 48Z" />
<glyph unicode="J" glyph-name="J" horiz-adv-x="519" d="M459 149Q441 65 378 22T230 -22T74 13Q60 19 56 23T53 33L87 121Q95 140 105 140Q111 140 118 128Q146 78 212 78Q243 78 264 86T295 109T309 133T316 155L420 646Q426 673 438 683T479 694H527Q556 694
563 683T564 646L459 149Z" />
<glyph unicode="K" glyph-name="K" horiz-adv-x="764" d="M707 29Q703 9 694 5T666 0H606Q572 0 560 21L400 321L267 216L231 48Q226 21 214 11T173 0H139Q112 0 104 10T101 48L228 646Q234 673 247 683T287 694H321Q350 694 357 683T358 646L300 370L686 674Q712
694 749 694H810Q820 694 825 694T836 688T839 673Q836 663 823 652L507 405L707 29Z" />
<glyph unicode="L" glyph-name="L" horiz-adv-x="581" d="M544 48Q539 21 527 11T486 0H139Q112 0 104 10T101 48L228 646Q234 673 247 683T287 694H338Q367 694 374 683T375 646L259 101L509 105Q530 105 540 98T549 80T546 57L544 48Z" />
<glyph unicode="M" glyph-name="M" horiz-adv-x="978" d="M896 48Q891 21 879 11T838 0H811Q782 0 775 11T773 48L883 565H882Q864 527 772 379L577 65Q559 36 542 29T492 22Q470 22 460 23T440 35T425 65L369 350Q337 522 335 565H334L224 48Q219 21 207 11T166
0H139Q112 0 104 10T101 48L228 646Q234 673 247 683T287 694H370Q420 694 428 653L489 337Q520 157 520 149H521Q538 188 625 327L825 651Q842 679 860 686T902 694H986Q1015 694 1022 683T1023 646L896 48Z" />
<glyph unicode="N" glyph-name="N" horiz-adv-x="794" d="M712 48Q707 21 695 11T654 0H561Q550 0 544 1T528 5T511 17T499 40L337 573H336L224 48Q219 21 207 11T166 0H139Q112 0 104 10T101 48L228 646Q234 673 247 683T287 694H380Q391 694 397 693T413 689T430
677T442 654L604 121H605L716 646Q722 673 734 683T775 694H802Q831 694 838 683T839 646L712 48Z" />
<glyph unicode="O" glyph-name="O" horiz-adv-x="794" d="M805 342Q727 -22 391 -22Q56 -22 134 342Q214 716 549 716Q883 716 805 342ZM655 330T661 358T670 402T676 452T678 506T668 555T644 599T600 626T532 638T460 627T404 599T362 555T331 506T309 451T294
402T284 358Q278 329 275 312T268 260T265 201T274 148T298 101T342 71T409 58T481 70T538 101T581 148T613 201T636 260T651 312Z" />
<glyph unicode="P" glyph-name="P" horiz-adv-x="703" d="M743 478Q720 372 644 320T447 268H295L248 48Q243 21 231 11T190 0H139Q112 0 104 10T101 48L228 646Q234 673 247 683T287 694H537Q657 694 711 641T743 478ZM604 478Q611 504 610 527T600 569T563 597T487
608H364L309 347H431Q479 347 512 357T563 388T589 428T604 478Z" />
<glyph unicode="Q" glyph-name="Q" horiz-adv-x="794" d="M805 342Q753 108 604 28L651 -56Q662 -77 660 -84Q655 -106 619 -106H539Q515 -106 508 -101T490 -71L464 -17Q431 -22 391 -22Q56 -22 134 342Q214 716 549 716Q883 716 805 342ZM661 343Q667 371 670
388T677 439T679 497T669 549T645 595T601 625T532 638Q493 638 459 626T402 596T358 549T326 497T303 440T288 388T278 343Q272 316 269 299T263 248T261 192T271 142T295 97T340 68T408 56L428 58Q428 59 426 66T419 81T415 90Q380 158 382 171Q387 194 423 194H484Q500
194 505 193T516 183L556 112Q627 178 661 343Z" />
<glyph unicode="R" glyph-name="R" horiz-adv-x="703" d="M659 30Q656 16 649 9T636 1T616 0H557Q544 0 538 1T526 7T515 24L412 311H301L245 48Q240 21 228 11T187 0H139Q112 0 104 10T101 48L228 646Q234 673 247 683T287 694H527Q719 694 748 582Q757 545 747
497Q717 358 551 320L659 30ZM607 496Q619 552 597 580T494 608H364L316 383H446Q530 383 563 412T607 496Z" />
<glyph unicode="S" glyph-name="S" horiz-adv-x="611" d="M592 200Q568 87 493 33T300 -22Q227 -22 158 1L150 4Q141 8 131 12T107 23T84 36T68 48T62 60Q62 63 67 73L100 160Q107 178 118 178Q124 178 133 166Q205 87 323 87Q442 87 463 184Q471 223 447 253Q435
267 418 273T355 291Q307 303 287 309T241 330T196 371Q152 429 169 508Q213 716 457 716Q557 716 630 676Q647 666 649 663T651 654Q648 645 646 641L613 554Q606 536 595 536Q591 536 577 552Q529 613 435 613Q316 613 298 526Q290 489 314 468T364 441L455 419Q529
401 569 341T592 200Z" />
<glyph unicode="T" glyph-name="T" horiz-adv-x="733" d="M826 632Q821 609 811 598T791 586T764 584L565 587L450 48Q445 21 433 11T392 0H341Q314 0 306 10T303 48L418 587L216 584Q198 584 190 585T175 598T174 632L176 640Q182 668 194 678T234 688H790Q819
688 826 677T828 640L826 632Z" />
<glyph unicode="U" glyph-name="U" horiz-adv-x="764" d="M721 229Q708 167 679 120T614 47T535 4T455 -17T379 -22Q350 -22 324 -19T268 -9T218 10T176 42T146 87T133 149T140 230L228 646Q234 673 247 683T287 694H338Q367 694 374 683T375 646L286 226Q268
144 292 104T399 64Q485 64 526 105T584 227L673 646Q679 673 691 683T732 694H772Q801 694 808 683T809 646L721 229Z" />
<glyph unicode="V" glyph-name="V" horiz-adv-x="733" d="M847 667L838 649L486 44Q474 24 460 14T436 2T412 0H320Q309 0 303 1T288 5T273 18T265 42L170 649Q168 662 169 667Q175 694 214 694H268Q279 694 285 693T300 689T315 676T323 651L390 204Q393 186
395 167T399 137T401 125L485 279L699 650Q708 666 718 675T739 688T757 693T775 694H814Q825 694 831 693T843 686T847 667Z" />
<glyph unicode="W" glyph-name="W" horiz-adv-x="1039" d="M1155 665Q1154 660 1147 646L855 42Q848 27 840 18T821 6T804 1T786 0H714Q704 0 698 1T683 5T670 18T664 42L642 419Q637 502 638 567H637Q611 508 577 437L389 46Q379 25 365 14T342 2T318 0H252Q241
0 235 1T220 5T207 18T201 42L165 646V665Q172 694 213 694H247Q261 694 269 693T286 681T297 651L315 331Q324 185 321 128H322Q330 148 363 223L409 322L567 650Q577 670 591 680T614 692T638 694H704Q729 694 740 686T754 650L776 245Q781 156 780 128H781Q795
160 840 256L1030 650Q1040 670 1054 680T1077 692T1100 694H1121Q1132 694 1138 693T1151 685T1155 665Z" />
<glyph unicode="X" glyph-name="X" horiz-adv-x="733" d="M699 22Q694 0 658 0H575Q563 0 557 1T543 7T530 22L414 262L202 24Q189 9 180 5T148 0H73Q63 0 57 0T46 6T42 23Q43 29 56 43L361 368L203 652Q196 663 197 672Q202 694 237 694H320Q333 694 339 693T352
687T366 671L461 486L632 673Q652 694 686 694H761Q771 694 777 694T788 688T792 671Q790 664 777 651L511 368L694 42Q700 31 699 22Z" />
<glyph unicode="Y" glyph-name="Y" horiz-adv-x="733" d="M851 671Q848 661 837 650L497 277L448 47Q442 20 430 10T390 0H342Q315 0 307 10T304 48L353 278L171 651Q165 663 167 671Q172 694 208 694H274Q302 694 318 686T346 653L424 491Q451 436 461 403Q485
438 556 516L683 656Q719 694 771 694H820Q830 694 836 694T847 688T851 671Z" />
<glyph unicode="Z" glyph-name="Z" horiz-adv-x="672" d="M626 48Q621 21 609 11T568 0H109Q82 0 74 10T71 48L73 56Q77 77 90 91L560 599H525L264 596Q251 596 246 596T232 597T220 602T213 610T210 624T213 645Q219 671 230 682T272 694H710Q742 694 748 679T747
644Q743 627 741 622T729 607L261 101L581 105Q602 105 611 104T627 91T628 57L626 48Z" />
<glyph unicode="[" glyph-name="bracketleft" horiz-adv-x="343" d="M273 -214Q265 -250 217 -250H82Q53 -250 46 -239T44 -202L236 702Q242 729 254 739T294 750H429Q477 750 470 714Q462 678 414 678H361L179 -178H232Q280 -178 273 -214Z" />
<glyph unicode="\" glyph-name="backslash" horiz-adv-x="575" d="M463 -219Q460 -233 449 -241T427 -250Q417 -250 411 -245T404 -235T400 -220L219 699Q216 712 217 719Q220 733 231 741T253 750Q263 750 268 746T276 736T280 720L462 -199Q464 -215 463 -219Z" />
<glyph unicode="]" glyph-name="bracketright" horiz-adv-x="343" d="M212 -202Q207 -229 195 -239T154 -250H19Q8 -250 1 -249T-16 -239T-21 -214Q-14 -178 34 -178H87L269 678H216Q205 678 198 679T181 689T176 714Q183 750 231 750H366Q395 750 402 739T404
702L212 -202Z" />
<glyph unicode="^" glyph-name="asciicircum" horiz-adv-x="556" d="M685 584L668 562L423 685L125 562L119 584L436 744L685 584Z" />
<glyph unicode="_" glyph-name="underscore" horiz-adv-x="733" d="M692 -193H-41L-12 -57H721L692 -193Z" />
<glyph unicode="`" glyph-name="grave" horiz-adv-x="550" d="M470 550Q467 537 440 537H403L272 666Q262 674 264 681Q267 694 294 694H376Q390 694 394 693T403 682L464 565L470 550Z" />
<glyph unicode="a" glyph-name="a" horiz-adv-x="525" d="M474 48Q469 21 457 11T416 0H379Q350 0 343 11T341 48L345 68Q275 -11 173 -11Q110 -11 79 33T59 133Q68 174 103 204T177 249T267 271T342 281T388 282L395 317Q406 361 395 385T345 409Q253 409 176
342Q168 336 163 336Q151 336 153 347Q153 364 161 420Q163 428 168 432T192 443Q275 475 363 475Q551 475 535 338Q533 327 531 316L474 48ZM361 154L379 241Q364 240 350 239T308 232T257 215T216 184T190 135Q184 105 198 83T243 61Q248 61 255 61T280 67T312
81T341 109T361 154Z" />
<glyph unicode="b" glyph-name="b" horiz-adv-x="561" d="M572 231Q568 213 565 202T552 162T531 115T498 70T452 28T389 1T308 -11Q241 -11 205 39Q196 0 149 0H109Q82 0 74 10T71 48L198 646Q204 673 217 683T257 694H294Q323 694 330 683T331 646L282 413Q292
422 308 432T361 456T435 469Q622 469 572 231ZM436 230Q441 255 443 269T448 306T447 342T436 370T411 390T370 397Q318 397 274 362L218 100Q240 61 288 61Q320 61 345 72T384 98T409 139T425 183T436 230Z" />
<glyph unicode="c" glyph-name="c" horiz-adv-x="489" d="M468 50Q467 43 462 39T433 24Q357 -11 272 -11Q35 -11 86 230Q138 475 380 475Q429 475 457 468T521 443Q530 438 533 436T539 430T541 422T529 389T514 353Q508 340 498 340Q492 340 483 351Q458 376
434 386T364 397Q328 397 302 384T261 344T239 294T222 232Q217 208 215 197T211 162T212 125T224 97T249 74T291 67Q374 67 449 123Q461 133 467 133Q477 133 477 120Q474 84 468 50Z" />
<glyph unicode="d" glyph-name="d" horiz-adv-x="561" d="M509 48Q504 21 492 11T451 0H411Q385 0 376 10T373 47Q306 -11 233 -11Q38 -11 85 228Q139 469 340 469Q413 469 455 419L503 646Q509 673 521 683T562 694H599Q628 694 635 683T636 646L509 48ZM390
125L441 366Q414 397 369 397Q337 397 312 386T273 360T248 319T232 276T221 228Q216 201 214 189T210 152T210 116T221 89T246 68T287 61Q318 61 351 79Q367 89 375 96T385 109T390 125Z" />
<glyph unicode="e" glyph-name="e" horiz-adv-x="511" d="M534 260Q530 239 520 228T500 216T476 214H204Q200 190 199 173T201 133T214 96T246 72T300 61Q383 61 463 119Q476 129 482 129Q489 129 490 125T490 97Q485 56 484 53Q483 45 477 41T450 27Q366 -11
281 -11Q161 -11 108 50T81 233Q105 349 179 412T371 475Q479 475 517 418T534 260ZM425 267Q431 307 431 337T413 385T356 403Q253 403 217 267H425Z" />
<glyph unicode="f" glyph-name="f" horiz-adv-x="336" d="M513 621Q508 595 494 595Q488 595 482 605Q458 633 416 633Q393 633 378 627T354 609T343 589T337 567L313 458H364Q412 458 405 422Q397 386 349 386H301L229 48Q224 21 212 11T171 0H134Q107 0 99 10T96
48L168 386Q152 386 143 387T125 396T120 422Q127 458 183 458L200 538Q236 705 431 705Q467 705 495 699Q519 694 523 690T523 667L513 621Z" />
<glyph unicode="g" glyph-name="g" horiz-adv-x="550" d="M620 405Q618 392 604 392Q599 392 591 396Q553 407 501 407Q523 366 509 303Q474 138 273 138Q193 138 152 164Q151 162 150 160T148 155T147 149Q142 126 158 104Q170 92 220 92H268Q295 92 309 92T348
91T386 88T421 82T453 72T478 58T498 39T510 13T516 -21T510 -64Q480 -206 230 -206Q118 -206 65 -179Q27 -159 16 -128T11 -67Q23 -6 96 21Q77 56 86 100Q94 142 130 181Q90 224 108 304Q143 469 344 469Q433 469 478 434Q543 469 605 469Q618 469 620 466T621
443Q621 409 620 405ZM382 304Q387 332 388 352T376 385T328 397Q303 397 286 391T260 370T245 342T235 303Q230 275 229 255T241 222T289 210Q314 210 331 216T357 237T372 265T382 304ZM407 -67Q412 -41 384 -29T294 -17H178Q162 -17 153 -18T131 -31T114 -64Q111
-81 116 -93T134 -113T160 -125T192 -131T222 -133T247 -134Q393 -134 407 -67Z" />
<glyph unicode="h" glyph-name="h" horiz-adv-x="561" d="M510 48Q505 21 493 11T452 0H412Q383 0 376 11T374 48L433 323Q442 361 433 379T390 397Q347 397 307 364T253 269L206 48Q201 21 189 11T148 0H108Q81 0 73 10T70 48L197 646Q203 673 216 683T256 694H293Q322
694 329 683T330 646L272 372H273Q287 392 306 410T367 449T454 469Q531 469 558 436T569 325L510 48Z" />
<glyph unicode="i" glyph-name="i" horiz-adv-x="256" d="M204 48Q199 21 187 11T146 0H109Q82 0 74 10T71 48L148 410Q154 438 166 448T206 458H243Q272 458 279 447T281 410L204 48ZM330 606Q324 581 313 570T272 558H221Q191 558 185 569T183 606L187 625Q192
652 204 662T245 673H296Q325 673 332 662T334 625L330 606Z" />
<glyph unicode="j" glyph-name="j" horiz-adv-x="286" d="M217 -32Q180 -205 31 -205Q-16 -205 -62 -189T-105 -158Q-104 -154 -87 -126Q-76 -107 -73 -103T-63 -99Q-62 -99 -54 -103Q-30 -121 5 -121Q26 -121 40 -115T62 -98T73 -78T79 -56L178 410Q184 437 196
447T236 458H273Q302 458 309 447T311 410L217 -32ZM353 606Q347 581 336 570T295 558H244Q214 558 208 569T206 606L210 625Q215 652 227 662T268 673H319Q348 673 355 662T357 625L353 606Z" />
<glyph unicode="k" glyph-name="k" horiz-adv-x="531" d="M502 22Q497 0 461 0H413Q391 0 383 4T365 25L271 195L215 152L193 48Q188 21 176 11T135 0H117Q90 0 82 10T79 48L206 646Q212 673 225 683T265 694H286Q315 694 322 683T323 646L250 303L423 437Q450
458 487 458H545Q555 458 560 458T571 452T575 437Q573 428 555 415L371 272L496 44Q498 40 499 37T501 31T502 26T502 23V22Z" />
<glyph unicode="l" glyph-name="l" horiz-adv-x="256" d="M204 48Q199 21 187 11T146 0H109Q82 0 74 10T71 48L198 646Q204 673 217 683T257 694H294Q323 694 330 683T331 646L204 48Z" />
<glyph unicode="m" glyph-name="m" horiz-adv-x="867" d="M816 48Q811 21 799 11T758 0H718Q691 0 683 10T680 48L739 323Q748 363 739 380T695 397Q653 397 612 364T558 269L511 48Q506 21 494 11T453 0H413Q386 0 378 10T375 48L434 323Q443 363 434 380T390
397Q348 397 307 364T253 269L206 48Q201 21 189 11T148 0H108Q81 0 73 10T70 48L148 416Q154 443 167 453T207 464H241Q270 464 277 453T278 416L268 366H269Q296 407 342 436Q394 469 455 469Q477 469 493 467T532 456T566 426T577 370Q652 469 760 469Q837 469
864 436T875 325L816 48Z" />
<glyph unicode="n" glyph-name="n" horiz-adv-x="561" d="M510 48Q505 21 493 11T452 0H412Q383 0 376 11T374 48L433 323Q442 361 433 379T390 397Q347 397 307 364T253 269L206 48Q201 21 189 11T148 0H108Q81 0 73 10T70 48L148 416Q154 443 167 453T207 464H241Q270
464 277 453T278 416L268 366H269Q284 387 302 406T363 447T454 469Q531 469 558 436T569 325L510 48Z" />
<glyph unicode="o" glyph-name="o" horiz-adv-x="550" d="M566 225Q516 -11 272 -11T79 225Q132 475 376 475Q619 475 566 225ZM432 237Q439 268 442 285T445 328T437 368T410 392T360 403T306 392T269 368T244 328T228 285T217 237Q211 210 209 196T204 158T206
121T218 94T245 74T289 67Q327 67 353 81T395 124T417 175T432 237Z" />
<glyph unicode="p" glyph-name="p" horiz-adv-x="561" d="M572 231Q566 204 561 185T536 126T490 59T417 11T309 -11Q240 -11 205 39L166 -146Q161 -173 149 -183T108 -194H68Q40 -194 32 -184T30 -146L148 410Q154 438 166 448T206 458H243Q269 458 278 448T281
411Q356 469 442 469Q485 469 515 456T558 418T579 369T584 314T579 266T572 231ZM436 229Q469 391 367 391Q316 391 273 358L222 118Q218 105 220 98T238 78Q257 61 287 61Q398 61 436 229Z" />
<glyph unicode="q" glyph-name="q" horiz-adv-x="561" d="M468 -146Q463 -173 451 -183T410 -194H370Q341 -194 334 -183T332 -146L373 48Q309 -11 237 -11Q36 -11 85 228Q91 258 100 284T129 347T175 408T246 451T346 469Q422 469 451 402L455 421Q461 448 473
458T514 469H551Q580 469 587 458T588 421L468 -146ZM390 115L433 313Q438 344 418 368Q401 391 368 391Q258 391 221 227Q187 61 288 61Q340 61 390 115Z" />
<glyph unicode="r" glyph-name="r" horiz-adv-x="372" d="M440 395Q436 376 432 373T414 368Q358 364 308 330T243 230L204 48Q199 21 187 11T146 0H109Q82 0 74 10T71 48L149 416Q155 443 168 453T208 464H240Q269 464 276 453T277 416L264 351H265Q290 389 317
414T368 451T408 465T438 469Q450 469 452 463T450 442L440 395Z" />
<glyph unicode="s" glyph-name="s" horiz-adv-x="422" d="M426 141Q394 -11 217 -11Q159 -11 107 6Q106 7 104 7T94 11T80 17T66 24T53 32T44 40T41 48T48 69T62 105T72 129Q80 144 89 144Q95 144 101 136Q144 67 233 67Q312 67 323 121Q326 136 321 147T303 165T280
173T255 179Q220 186 204 190T168 204T135 229Q95 273 108 332Q138 475 317 475Q372 475 412 463Q413 463 418 461T429 458T440 453T452 448T461 442T468 436T469 429Q469 427 463 412T451 379T443 360Q436 347 427 347Q421 347 413 357Q368 404 294 404Q222 404
211 355Q207 337 218 325T245 309T294 298Q321 293 334 290T366 276T401 248Q440 204 426 141Z" />
<glyph unicode="t" glyph-name="t" horiz-adv-x="404" d="M383 47Q379 27 299 5Q244 -11 191 -11Q86 -11 116 133L170 386H150Q139 386 132 387T115 397T110 422Q117 458 165 458H188L206 541Q212 569 224 579T264 589H295Q324 589 331 578T333 541L315 458H404Q452
458 445 422Q437 386 389 386H300L250 150Q241 100 246 84T271 67Q309 67 358 97Q366 104 371 104Q381 104 382 78Q383 48 383 47Z" />
<glyph unicode="u" glyph-name="u" horiz-adv-x="561" d="M510 48Q505 21 493 11T452 0H415Q386 0 379 11T377 48L383 74Q318 -11 220 -11Q137 -11 104 19T87 126L147 410Q153 438 165 448T205 458H245Q274 458 281 447T283 410L221 117Q211 77 219 64T269 50Q320
50 355 85T401 173L451 410Q457 437 469 447T509 458H549Q578 458 585 447T587 410L510 48Z" />
<glyph unicode="v" glyph-name="v" horiz-adv-x="500" d="M564 430Q564 427 555 411L358 42Q335 0 286 0H213Q164 0 159 42L118 411Q117 418 117 430Q123 458 163 458H187Q209 458 221 451T236 437T240 415L275 113L438 415Q450 438 464 448T509 458H530Q541 458
547 457T560 450T564 430Z" />
<glyph unicode="w" glyph-name="w" horiz-adv-x="744" d="M810 430L622 46Q609 19 595 10T549 0H481Q463 0 452 3T436 14T430 30T427 55Q414 265 419 317L418 316Q406 276 300 55Q284 22 270 11T222 0H194Q177 0 169 1T151 14T140 46L115 430Q119 443 128 449T144
457T164 458H184Q214 458 224 449T237 413L257 130Q281 177 318 253T380 379T409 435Q428 458 466 458Q482 458 492 455T507 443T513 430T516 413L537 113L680 403Q698 441 712 449T764 458Q779 458 785 458T799 455T809 446T810 430Z" />
<glyph unicode="x" glyph-name="x" horiz-adv-x="500" d="M479 22Q474 0 439 0H395Q382 0 376 0T364 5T352 20L281 164L168 36Q146 11 137 6T103 0H60Q50 0 44 0T33 6T29 22Q30 31 43 42L242 237L130 417Q122 428 124 436Q128 458 163 458H207Q226 458 235 455T254
436L317 328Q423 439 428 443Q445 458 475 458H518Q529 458 534 458T545 452T549 436Q547 427 534 415L351 237L472 43Q480 29 479 22Z" />
<glyph unicode="y" glyph-name="y" horiz-adv-x="500" d="M565 431Q564 425 555 411L292 -63Q284 -78 270 -96T229 -142T163 -187T80 -205Q12 -205 4 -191Q3 -188 7 -153T13 -110Q16 -95 29 -95Q33 -95 38 -99Q65 -120 100 -120Q125 -120 146 -106T177 -79T200
-42Q207 -28 223 0L122 416Q120 427 121 432Q126 458 165 458H191Q227 458 237 445T260 380Q304 189 298 142H299Q307 172 344 244T414 374T450 435Q470 458 508 458H530Q537 458 542 458T554 455T564 447T565 431Z" />
<glyph unicode="z" glyph-name="z" horiz-adv-x="476" d="M449 37Q441 0 393 0H79Q72 0 68 0T55 3T45 9T39 21T40 42Q43 60 59 76L369 385H332L186 383Q167 383 158 384T140 394T135 420Q143 458 191 458H487Q494 458 498 458T511 455T521 449T527 437T526 416Q523
398 507 382L198 73H244L397 75Q417 75 426 74T444 64T449 37Z" />
<glyph unicode="{" glyph-name="braceleft" horiz-adv-x="575" d="M447 -232Q444 -244 438 -247T412 -250Q386 -250 362 -248T305 -238T249 -215T213 -174T208 -111L253 99Q261 136 261 146Q260 178 233 203T144 232Q127 234 131 250Q133 258 137 262T144 266T157
268Q219 271 264 305Q291 325 300 344T321 417L364 623Q378 681 448 715T624 750Q634 750 638 750T647 748T652 743T652 732Q650 724 646 720T639 716T626 714Q571 711 528 686Q481 656 472 606L427 396Q423 378 420 367T407 335T382 302T340 274T277 250Q333 234
355 202T371 134L321 -103Q316 -125 317 -138Q325 -207 434 -214Q450 -215 447 -232Z" />
<glyph unicode="|" glyph-name="bar" horiz-adv-x="319" d="M146 -206Q137 -250 106 -250Q76 -250 85 -206L279 706Q288 750 319 750Q349 750 340 706L146 -206Z" />
<glyph unicode="}" glyph-name="braceright" horiz-adv-x="575" d="M549 250Q548 242 544 238T537 234T523 232Q457 228 419 196Q390 174 381 155T361 83L317 -123Q304 -179 235 -214T56 -250Q43 -250 38 -250T30 -245T29 -232Q30 -224 34 -220T41 -216T55 -214Q110
-211 156 -184Q201 -154 209 -106L254 104Q259 129 264 143T285 180T329 221T404 250Q347 267 325 298T310 366L360 603Q365 624 365 638Q358 708 247 714Q230 715 234 732Q236 744 243 747T268 750Q306 750 339 745T410 727T464 684T473 611L428 401Q420 361 421
352Q425 312 455 291T536 268Q553 267 549 250Z" />
<glyph unicode="~" glyph-name="asciitilde" horiz-adv-x="556" d="M617 290L553 246Q529 229 489 211Q446 193 412 193Q371 193 319 227Q264 264 223 264Q155 264 55 193L45 210L108 254Q132 271 172 289Q217 307 249 307Q292 307 342 273Q363 259 373 254T401
242T438 236Q507 236 606 307L617 290Z" />
<glyph unicode="&#xa0;" glyph-name="uni00A0" horiz-adv-x="550" />
<glyph unicode="&#xa1;" glyph-name="exclamdown" horiz-adv-x="367" d="M338 417Q332 390 320 380T279 369H244Q215 369 208 380T207 417L214 452Q220 480 232 490T272 500H307Q336 500 343 489T345 452L338 417ZM212 -173Q209 -188 204 -191T181 -194H104Q86
-194 82 -191T81 -173Q90 -132 109 -55T135 52L190 276Q194 296 199 300T224 304H273Q284 304 288 304T294 301T297 294Q298 290 282 203T261 96Q255 65 239 -28T212 -173Z" />
<glyph unicode="&#xa2;" glyph-name="cent" horiz-adv-x="489" d="M468 50Q467 43 462 39T433 24Q380 -1 317 -9L303 -76Q301 -86 293 -93T274 -100H222Q212 -100 207 -93T203 -76L218 -7Q41 19 86 230Q131 442 319 471L333 534Q334 544 343 551T362 558H414Q436
558 433 534L420 474Q468 470 521 443Q530 438 533 436T539 430T541 422T529 389T514 353Q508 340 498 340Q492 340 483 351Q444 389 403 395L334 71Q393 81 449 123Q461 133 467 133Q477 133 477 120Q474 84 468 50ZM236 82L300 382Q277 369 261 343T237 293T222
232Q215 196 212 176T213 126T236 82Z" />
<glyph unicode="&#xa3;" glyph-name="sterling" horiz-adv-x="733" d="M693 153Q677 80 614 29T477 -22Q429 -22 374 -7Q328 4 303 9T242 14T190 -1Q166 -22 136 -22Q108 -22 93 -2T83 46Q89 73 112 93Q198 167 247 273L258 297H172Q157 297 149 307T144 333L150
361Q153 376 165 386T193 397H290L309 464Q336 559 401 626T546 694Q631 694 666 619T681 440Q675 412 651 392T598 372T555 392T545 440Q557 482 553 520T517 558Q501 558 489 550T468 523T454 491T441 453L426 397H488Q503 397 511 387T517 361L511 333Q508 318
495 308T467 297H396Q384 264 372 239Q347 188 320 147Q365 141 433 125Q475 114 506 114Q523 114 538 125T557 153Q562 181 586 201T639 221T682 201T693 153Z" />
<glyph unicode="&#xa5;" glyph-name="yen" horiz-adv-x="733" d="M851 671Q848 661 837 650L598 388H657Q672 388 680 377T686 352L680 324Q677 309 664 299T636 288H507L497 277L486 225H623Q638 225 646 215T651 189L645 161Q642 146 630 136T602 125H465L448
47Q442 20 430 10T390 0H342Q315 0 307 10T304 48L321 125H185Q170 125 162 135T156 161L162 189Q165 204 178 214T206 225H342L353 278L348 288H219Q204 288 196 298T191 324L197 352Q200 366 212 377T240 388H299L171 651Q165 663 167 671Q172 694 208 694H274Q302
694 318 686T346 653L424 491Q451 436 461 403Q485 438 556 516L683 656Q719 694 771 694H820Q830 694 836 694T847 688T851 671Z" />
<glyph unicode="&#xa7;" glyph-name="section" horiz-adv-x="566" d="M571 206Q555 132 497 68Q521 25 511 -24Q494 -106 414 -157T239 -209T86 -158T45 -24H181Q175 -54 200 -70T265 -87T336 -71T375 -24Q378 -8 359 7T307 38L216 85Q154 117 121 172T101 294Q117
368 175 432Q151 474 161 524Q178 606 258 657T434 709T586 658T627 524H491Q498 554 473 570T408 587Q369 587 337 571T297 524Q294 508 313 494T365 462L456 415Q519 383 552 328T571 206ZM435 206Q441 234 423 254T372 292L281 339L259 351Q246 327 237 294Q228
246 300 208L391 161L413 148Q429 177 435 206Z" />
<glyph unicode="&#xa8;" glyph-name="dieresis" horiz-adv-x="550" d="M349 607Q344 584 334 574T297 564H251Q225 564 219 574T217 607L221 624Q226 648 237 657T273 667H319Q345 667 351 658T353 624L349 607ZM591 607Q586 584 576 574T539 564H493Q467 564
461 574T459 607L463 624Q468 648 479 657T515 667H561Q587 667 593 658T595 624L591 607Z" />
<glyph unicode="&#xa9;" glyph-name="copyright" horiz-adv-x="694" d="M799 491T768 347T614 102T347 0T123 101T74 347T228 592T495 694T719 593ZM670 234T694 347T655 540T479 620T269 540T148 347T187 154T363 74T573 154ZM519 194Q518 190 516 188T502 180Q453
157 399 157Q209 157 250 347Q289 537 480 537Q530 537 568 523Q578 519 580 518T581 513Q581 512 580 510T579 506L561 461Q558 452 552 452Q549 452 546 456Q516 486 468 486Q354 486 326 347Q296 209 411 209Q463 209 509 237Q517 243 521 243Q527 243 525 234Q520
196 519 194Z" />
<glyph unicode="&#xaa;" glyph-name="ordfeminine" horiz-adv-x="416" d="M479 418Q475 399 465 392T431 384H400Q376 384 370 392T367 418L370 432Q313 376 227 376Q174 376 147 407T127 477Q133 506 161 527T222 558T297 574T360 580T399 581L405 606Q412 638
402 654T359 670Q282 670 219 623Q213 619 209 619Q199 619 199 627Q200 630 202 653T204 678Q206 686 230 694Q297 716 372 716Q392 716 406 716T447 709T490 693T516 659T519 605L479 418ZM406 311Q403 297 386 287T349 276H185Q164 276 152 286T142 311Q145
326 162 336T200 346H364Q384 346 396 336T406 311ZM381 492L394 553Q251 547 237 478Q232 458 245 443T284 427Q288 427 294 427T315 431T342 441T365 460T381 492Z" />
<glyph unicode="&#xab;" glyph-name="guillemotleft" horiz-adv-x="550" d="M261 16Q261 9 256 5T245 0H199Q191 0 189 7L128 244Q126 250 131 256L292 493Q297 500 305 500H351Q366 500 361 484L264 250L261 16ZM492 16Q492 9 487 5T476 0H430Q422 0 420 7L359
244Q358 250 362 256L523 493Q528 500 536 500H582Q597 500 592 484L495 250L492 16Z" />
<glyph unicode="&#xac;" glyph-name="logicalnot" horiz-adv-x="856" d="M823 135Q819 118 804 106T772 93T745 105T739 135L779 323H172Q155 323 145 335T139 365Q142 382 157 394T190 407H839Q856 407 865 395T872 365L823 135Z" />
<glyph unicode="&#xae;" glyph-name="registered" horiz-adv-x="694" d="M799 491T768 347T614 102T347 0T123 101T74 347T228 592T495 694T719 593ZM670 234T694 347T655 540T479 620T269 540T148 347T187 154T363 74T573 154ZM546 184Q543 168 524 168H494Q477
168 471 181L419 329H362L333 193Q330 179 324 174T303 168H278Q264 168 260 173T258 193L323 501Q330 526 354 526H478Q491 526 501 526T533 520T568 505T589 474T591 425Q576 353 490 333L546 184ZM519 424Q525 453 514 467T461 482H394L370 366H437Q480 366
497 381T519 424Z" />
<glyph unicode="&#xaf;" glyph-name="overscore" horiz-adv-x="550" d="M602 600Q597 580 593 577T569 573H226Q206 573 204 576T205 600L211 631Q216 651 220 654T244 658H587Q607 658 609 654T608 631L602 600Z" />
<glyph unicode="&#xb0;" glyph-name="degree" horiz-adv-x="413" d="M474 542Q460 478 407 434T289 389Q226 389 191 433T168 542Q181 605 236 649T354 694Q418 694 453 650T474 542ZM390 542Q396 570 381 590T336 610T283 590T252 542T262 494T307 473Q335 473
359 493T390 542Z" />
<glyph unicode="&#xb1;" glyph-name="plusminus" horiz-adv-x="856" d="M803 42Q794 0 741 0H114Q104 0 96 1T77 12T70 42Q79 84 132 84H404L451 305H179Q169 305 161 306T142 317T135 347Q144 389 197 389H469L522 641Q533 694 576 694Q617 694 606 641L553 389H824Q834
389 842 388T861 377T868 347Q859 305 806 305H535L488 84H759Q769 84 777 83T796 72T803 42Z" />
<glyph unicode="&#xb4;" glyph-name="acute" horiz-adv-x="550" d="M576 681Q574 676 562 666L375 537H338Q330 537 327 537T319 538T314 542T314 550Q315 554 326 565L437 682Q445 690 450 692T470 694H552Q560 694 563 694T571 693T576 689T576 681Z" />
<glyph unicode="&#xb5;" glyph-name="mu" horiz-adv-x="561" d="M511 50Q504 20 492 10T450 0H417Q408 0 404 0T391 3T381 9T375 22T376 44Q308 -11 221 -11Q207 -11 194 -10L165 -144Q159 -174 147 -184T105 -194H69Q39 -194 31 -184T29 -144L147 408Q153 438
165 448T207 458H243Q273 458 281 448T283 408L222 120Q211 79 219 65T269 50Q318 50 353 84T401 176L451 408Q457 438 469 448T511 458H547Q577 458 585 448T587 408L511 50Z" />
<glyph unicode="&#xb6;" glyph-name="paragraph" horiz-adv-x="703" d="M811 663Q805 633 760 633H709L542 -150Q533 -194 502 -194Q472 -194 481 -150L648 633H568L401 -150Q392 -194 361 -194Q331 -194 340 -150L419 220Q282 228 211 292T161 457Q183 559 282
626T499 694H773Q785 694 792 693T807 685T811 663Z" />
<glyph unicode="&#xb7;" glyph-name="middot" horiz-adv-x="856" d="M559 309Q554 289 550 286T526 282H449Q429 282 427 286T428 309L444 386Q449 406 453 409T477 413H554Q574 413 576 410T575 386L559 309Z" />
<glyph unicode="&#xb8;" glyph-name="cedilla" horiz-adv-x="489" d="M302 -37Q301 -40 294 -53L217 -174Q208 -187 204 -189T182 -192H132Q124 -192 121 -192T114 -191T109 -187T109 -179Q109 -176 133 -148T187 -84T221 -45Q235 -30 240 -27T261 -24H279Q287
-24 290 -24T297 -25T302 -29T302 -37Z" />
<glyph unicode="&#xba;" glyph-name="ordmasculine" horiz-adv-x="461" d="M550 541Q515 376 310 376Q106 376 141 541Q178 716 383 716Q587 716 550 541ZM451 311Q448 297 432 287T394 276H185Q164 276 152 286T142 311Q145 326 162 336T200 346H409Q430 346
442 336T451 311ZM438 550Q443 573 444 583T446 613T438 641T415 658T372 666Q340 666 318 657T284 627T267 592T257 550Q252 528 250 516T249 485T257 456T280 439T323 431Q355 431 376 440T410 471T427 506T438 550Z" />
<glyph unicode="&#xbb;" glyph-name="guillemotright" horiz-adv-x="550" d="M526 244L364 7Q359 0 351 0H305Q299 0 296 4T296 16L392 250L395 484Q395 491 400 495T411 500H457Q465 500 467 493L528 256Q529 251 526 244ZM295 244L133 7Q128 0 120 0H74Q68 0
65 4T65 16L161 250L164 484Q164 491 169 495T180 500H226Q234 500 236 493L297 256Q298 251 295 244Z" />
<glyph unicode="&#xbf;" glyph-name="questiondown" horiz-adv-x="519" d="M398 417Q392 390 380 380T339 369H304Q275 369 268 380T267 417L274 452Q280 480 292 490T332 500H367Q396 500 403 489T405 452L398 417ZM427 -142Q425 -149 421 -152T392 -165Q294
-205 198 -205Q186 -205 176 -205T152 -203T126 -198T101 -190T79 -177T61 -158T49 -132T45 -97T50 -54Q66 23 118 60Q218 132 244 248L250 277Q254 296 259 300T284 304H333Q356 304 358 296Q358 289 351 261Q339 203 314 152T218 17Q203 0 197 -13T185 -58Q174
-102 179 -117T218 -133Q309 -133 395 -64Q402 -60 406 -60Q414 -60 417 -73Q418 -76 418 -77Q429 -131 427 -142Z" />
<glyph unicode="&#xc0;" glyph-name="Agrave" horiz-adv-x="733" d="M696 27Q690 0 651 0H597Q574 0 562 7T547 24T542 55L528 151H251L189 40Q166 0 117 0H81Q70 0 64 1T52 8T48 27Q50 35 57 47L396 651Q421 694 470 694H558Q572 694 580 693T599 681T612 651L695
47Q697 33 696 27ZM516 237L481 518Q478 541 479 567H478Q460 526 416 449L299 237H516ZM630 776Q637 767 632 762T614 756H547L351 862Q346 866 346 871T350 880T365 885H526L630 776Z" />
<glyph unicode="&#xc1;" glyph-name="Aacute" horiz-adv-x="733" d="M696 27Q690 0 651 0H597Q574 0 562 7T547 24T542 55L528 151H251L189 40Q166 0 117 0H81Q70 0 64 1T52 8T48 27Q50 35 57 47L396 651Q421 694 470 694H558Q572 694 580 693T599 681T612 651L695
47Q697 33 696 27ZM516 237L481 518Q478 541 479 567H478Q460 526 416 449L299 237H516ZM749 862L509 756H442Q430 756 427 761T434 776L584 885H745Q754 885 757 881T759 871T749 862Z" />
<glyph unicode="&#xc2;" glyph-name="Acircumflex" horiz-adv-x="733" d="M696 27Q690 0 651 0H597Q574 0 562 7T547 24T542 55L528 151H251L189 40Q166 0 117 0H81Q70 0 64 1T52 8T48 27Q50 35 57 47L396 651Q421 694 470 694H558Q572 694 580 693T599 681T612
651L695 47Q697 33 696 27ZM516 237L481 518Q478 541 479 567H478Q460 526 416 449L299 237H516ZM702 768Q707 763 702 755T688 746H641L637 747L542 828L413 747L407 746H360Q355 746 353 749T351 758T357 766L489 870Q492 873 497 873H608Q613 873 616 870L702
768Z" />
<glyph unicode="&#xc3;" glyph-name="Atilde" horiz-adv-x="733" d="M696 27Q690 0 651 0H597Q574 0 562 7T547 24T542 55L528 151H251L189 40Q166 0 117 0H81Q70 0 64 1T52 8T48 27Q50 35 57 47L396 651Q421 694 470 694H558Q572 694 580 693T599 681T612 651L695
47Q697 33 696 27ZM516 237L481 518Q478 541 479 567H478Q460 526 416 449L299 237H516ZM733 860Q724 819 686 783T598 746Q555 746 508 783Q484 805 466 805Q433 805 419 761Q415 750 410 748T388 746H370Q354 746 349 748T347 763Q355 804 393 840T481 877Q527
877 571 840Q597 818 614 818Q647 818 661 862Q665 873 670 875T691 877H709Q726 877 730 875T733 860Z" />
<glyph unicode="&#xc4;" glyph-name="Adieresis" horiz-adv-x="733" d="M696 27Q690 0 651 0H597Q574 0 562 7T547 24T542 55L528 151H251L189 40Q166 0 117 0H81Q70 0 64 1T52 8T48 27Q50 35 57 47L396 651Q421 694 470 694H558Q572 694 580 693T599 681T612
651L695 47Q697 33 696 27ZM516 237L481 518Q478 541 479 567H478Q460 526 416 449L299 237H516ZM458 789Q453 766 443 756T405 746H359Q333 746 327 756T326 789L329 806Q334 830 345 839T381 849H427Q453 849 459 840T461 806L458 789ZM744 789Q739 766 729 756T691
746H645Q619 746 613 756T612 789L615 806Q620 830 631 839T667 849H713Q739 849 745 840T747 806L744 789Z" />
<glyph unicode="&#xc5;" glyph-name="Aring" horiz-adv-x="733" d="M696 27Q690 0 651 0H597Q574 0 562 7T547 24T542 55L528 151H251L189 40Q166 0 117 0H81Q70 0 64 1T52 8T48 27Q50 35 57 47L396 651Q421 694 470 694H558Q572 694 580 693T599 681T612 651L695
47Q697 33 696 27ZM516 237L481 518Q478 541 479 567H478Q460 526 416 449L299 237H516ZM586 773Q591 794 579 800T538 807Q508 807 495 801T476 773Q472 752 484 746T524 739Q554 739 568 745T586 773ZM654 772Q637 694 514 694Q500 694 490 694T461 699T430 711T411
735T408 774Q425 852 548 852Q562 852 572 852T601 847T632 835T651 811T654 772Z" />
<glyph unicode="&#xc6;" glyph-name="AE" horiz-adv-x="947" d="M910 48Q905 21 893 11T852 0H509Q482 0 474 10T471 48L502 192H289L195 43Q179 16 162 8T119 0H82Q72 0 66 1T54 8T50 26Q51 33 58 44L439 652Q454 677 470 685T514 694H985Q1014 694 1021 683T1022
646L1021 638Q1016 615 1005 604T985 592T956 590L758 593H733L693 406H892Q919 406 927 396T930 359Q924 331 911 322T872 312H673L630 107H681Q712 107 775 108T870 110Q889 110 897 109T912 96T913 62L910 48ZM520 278L587 594H540L342 278H520Z" />
<glyph unicode="&#xc7;" glyph-name="Ccedilla" horiz-adv-x="703" d="M657 49Q655 41 651 38T624 23Q569 -3 528 -12T425 -22Q56 -22 135 347Q212 716 581 716Q677 716 752 687Q771 680 775 678T777 668Q774 659 772 655L739 568Q732 550 721 550Q715 550 708
557Q679 587 646 601T559 616Q500 616 453 596T378 549T329 482T299 412T282 347Q269 289 269 244T285 159T342 99T449 78Q511 78 549 90T637 134Q653 145 659 145Q670 145 668 127Q667 123 665 105T661 70T657 49ZM427 -59Q427 -62 419 -75L342 -196Q334 -209
330 -211T308 -214H258Q248 -214 244 -214T236 -210T234 -201Q237 -191 347 -67Q360 -52 365 -49T386 -46H404Q412 -46 415 -46T422 -47T427 -51T427 -59Z" />
<glyph unicode="&#xc8;" glyph-name="Egrave" horiz-adv-x="642" d="M605 48Q600 21 588 11T547 0H139Q112 0 104 10T101 48L228 643Q234 671 246 681T286 691H679Q708 691 715 680T717 643L715 635Q710 612 700 601T679 589T647 587L412 590H363L324 405H587Q614
405 622 395T625 358Q619 330 606 321T567 311H304L261 106L407 108L562 110Q583 110 592 109T607 96T608 62L605 48ZM584 776Q591 767 586 762T568 756H501L305 862Q300 866 300 871T304 880T319 885H480L584 776Z" />
<glyph unicode="&#xc9;" glyph-name="Eacute" horiz-adv-x="642" d="M605 48Q600 21 588 11T547 0H139Q112 0 104 10T101 48L228 643Q234 671 246 681T286 691H679Q708 691 715 680T717 643L715 635Q710 612 700 601T679 589T647 587L412 590H363L324 405H587Q614
405 622 395T625 358Q619 330 606 321T567 311H304L261 106L407 108L562 110Q583 110 592 109T607 96T608 62L605 48ZM703 862L463 756H396Q384 756 381 761T388 776L538 885H699Q708 885 711 881T713 871T703 862Z" />
<glyph unicode="&#xca;" glyph-name="Ecircumflex" horiz-adv-x="642" d="M605 48Q600 21 588 11T547 0H139Q112 0 104 10T101 48L228 643Q234 671 246 681T286 691H679Q708 691 715 680T717 643L715 635Q710 612 700 601T679 589T647 587L412 590H363L324 405H587Q614
405 622 395T625 358Q619 330 606 321T567 311H304L261 106L407 108L562 110Q583 110 592 109T607 96T608 62L605 48ZM656 768Q661 763 656 755T642 746H595L591 747L496 828L367 747L361 746H314Q309 746 307 749T305 758T311 766L443 870Q446 873 451 873H562Q567
873 570 870L656 768Z" />
<glyph unicode="&#xcb;" glyph-name="Edieresis" horiz-adv-x="642" d="M605 48Q600 21 588 11T547 0H139Q112 0 104 10T101 48L228 643Q234 671 246 681T286 691H679Q708 691 715 680T717 643L715 635Q710 612 700 601T679 589T647 587L412 590H363L324 405H587Q614
405 622 395T625 358Q619 330 606 321T567 311H304L261 106L407 108L562 110Q583 110 592 109T607 96T608 62L605 48ZM412 789Q407 766 397 756T359 746H313Q287 746 281 756T280 789L283 806Q288 830 299 839T335 849H381Q407 849 413 840T415 806L412 789ZM698
789Q693 766 683 756T645 746H599Q573 746 567 756T566 789L569 806Q574 830 585 839T621 849H667Q693 849 699 840T701 806L698 789Z" />
<glyph unicode="&#xcc;" glyph-name="Igrave" horiz-adv-x="331" d="M249 48Q244 21 232 11T191 0H140Q113 0 105 10T102 48L229 646Q235 673 248 683T288 694H339Q368 694 375 683T376 646L249 48ZM398 776Q405 767 400 762T382 756H315L119 862Q114 866 114
871T118 880T133 885H294L398 776Z" />
<glyph unicode="&#xcd;" glyph-name="Iacute" horiz-adv-x="331" d="M249 48Q244 21 232 11T191 0H140Q113 0 105 10T102 48L229 646Q235 673 248 683T288 694H339Q368 694 375 683T376 646L249 48ZM578 862L338 756H271Q259 756 256 761T263 776L413 885H574Q583
885 586 881T588 871T578 862Z" />
<glyph unicode="&#xce;" glyph-name="Icircumflex" horiz-adv-x="331" d="M249 48Q244 21 232 11T191 0H140Q113 0 105 10T102 48L229 646Q235 673 248 683T288 694H339Q368 694 375 683T376 646L249 48ZM500 768Q505 763 500 755T486 746H439L435 747L340 828L211
747L205 746H158Q153 746 151 749T149 758T155 766L287 870Q290 873 295 873H406Q411 873 414 870L500 768Z" />
<glyph unicode="&#xcf;" glyph-name="Idieresis" horiz-adv-x="331" d="M249 48Q244 21 232 11T191 0H140Q113 0 105 10T102 48L229 646Q235 673 248 683T288 694H339Q368 694 375 683T376 646L249 48ZM256 789Q251 766 241 756T203 746H157Q131 746 125 756T124
789L127 806Q132 830 143 839T179 849H225Q251 849 257 840T259 806L256 789ZM542 789Q537 766 527 756T489 746H443Q417 746 411 756T410 789L413 806Q418 830 429 839T465 849H511Q537 849 543 840T545 806L542 789Z" />
<glyph unicode="&#xd1;" glyph-name="Ntilde" horiz-adv-x="794" d="M712 48Q707 21 695 11T654 0H561Q550 0 544 1T528 5T511 17T499 40L337 573H336L224 48Q219 21 207 11T166 0H139Q112 0 104 10T101 48L228 646Q234 673 247 683T287 694H380Q391 694 397 693T413
689T430 677T442 654L604 121H605L716 646Q722 673 734 683T775 694H802Q831 694 838 683T839 646L712 48ZM763 860Q754 819 716 783T628 746Q585 746 538 783Q514 805 496 805Q463 805 449 761Q445 750 440 748T418 746H400Q384 746 379 748T377 763Q385 804 423
840T511 877Q557 877 601 840Q627 818 644 818Q677 818 691 862Q695 873 700 875T721 877H739Q756 877 760 875T763 860Z" />
<glyph unicode="&#xd2;" glyph-name="Ograve" horiz-adv-x="794" d="M805 342Q727 -22 391 -22Q56 -22 134 342Q214 716 549 716Q883 716 805 342ZM655 330T661 358T670 402T676 452T678 506T668 555T644 599T600 626T532 638T460 627T404 599T362 555T331 506T309
451T294 402T284 358Q278 329 275 312T268 260T265 201T274 148T298 101T342 71T409 58T481 70T538 101T581 148T613 201T636 260T651 312ZM660 776Q667 767 662 762T644 756H577L381 862Q376 866 376 871T380 880T395 885H556L660 776Z" />
<glyph unicode="&#xd3;" glyph-name="Oacute" horiz-adv-x="794" d="M805 342Q727 -22 391 -22Q56 -22 134 342Q214 716 549 716Q883 716 805 342ZM655 330T661 358T670 402T676 452T678 506T668 555T644 599T600 626T532 638T460 627T404 599T362 555T331 506T309
451T294 402T284 358Q278 329 275 312T268 260T265 201T274 148T298 101T342 71T409 58T481 70T538 101T581 148T613 201T636 260T651 312ZM779 862L539 756H472Q460 756 457 761T464 776L614 885H775Q784 885 787 881T789 871T779 862Z" />
<glyph unicode="&#xd4;" glyph-name="Ocircumflex" horiz-adv-x="794" d="M805 342Q727 -22 391 -22Q56 -22 134 342Q214 716 549 716Q883 716 805 342ZM655 330T661 358T670 402T676 452T678 506T668 555T644 599T600 626T532 638T460 627T404 599T362 555T331
506T309 451T294 402T284 358Q278 329 275 312T268 260T265 201T274 148T298 101T342 71T409 58T481 70T538 101T581 148T613 201T636 260T651 312ZM732 768Q737 763 732 755T718 746H671L667 747L572 828L443 747L437 746H390Q385 746 383 749T381 758T387 766L519
870Q522 873 527 873H638Q643 873 646 870L732 768Z" />
<glyph unicode="&#xd5;" glyph-name="Otilde" horiz-adv-x="794" d="M805 342Q727 -22 391 -22Q56 -22 134 342Q214 716 549 716Q883 716 805 342ZM655 330T661 358T670 402T676 452T678 506T668 555T644 599T600 626T532 638T460 627T404 599T362 555T331 506T309
451T294 402T284 358Q278 329 275 312T268 260T265 201T274 148T298 101T342 71T409 58T481 70T538 101T581 148T613 201T636 260T651 312ZM763 860Q754 819 716 783T628 746Q585 746 538 783Q514 805 496 805Q463 805 449 761Q445 750 440 748T418 746H400Q384
746 379 748T377 763Q385 804 423 840T511 877Q557 877 601 840Q627 818 644 818Q677 818 691 862Q695 873 700 875T721 877H739Q756 877 760 875T763 860Z" />
<glyph unicode="&#xd6;" glyph-name="Odieresis" horiz-adv-x="794" d="M805 342Q727 -22 391 -22Q56 -22 134 342Q214 716 549 716Q883 716 805 342ZM655 330T661 358T670 402T676 452T678 506T668 555T644 599T600 626T532 638T460 627T404 599T362 555T331
506T309 451T294 402T284 358Q278 329 275 312T268 260T265 201T274 148T298 101T342 71T409 58T481 70T538 101T581 148T613 201T636 260T651 312ZM488 789Q483 766 473 756T435 746H389Q363 746 357 756T356 789L359 806Q364 830 375 839T411 849H457Q483 849
489 840T491 806L488 789ZM774 789Q769 766 759 756T721 746H675Q649 746 643 756T642 789L645 806Q650 830 661 839T697 849H743Q769 849 775 840T777 806L774 789Z" />
<glyph unicode="&#xd8;" glyph-name="Oslash" horiz-adv-x="856" d="M867 342Q790 -22 422 -22Q339 -22 271 -1L231 -50Q216 -70 207 -78T183 -86T157 -76T149 -47Q151 -37 176 -6Q182 1 189 11T206 32Q87 123 134 342Q212 716 580 716Q666 716 731 694L771 744Q787
765 796 772T820 780T845 770T854 741Q851 730 826 699Q815 687 795 661Q917 574 867 342ZM674 623Q629 644 564 644Q516 644 476 633T407 604T356 559T319 508T293 449T276 394T264 343Q253 292 249 258T250 184T273 116L674 623ZM737 343Q772 509 728 576L327
70Q373 50 439 50Q487 50 527 61T595 88T646 131T682 180T708 237T725 291T737 343Z" />
<glyph unicode="&#xd9;" glyph-name="Ugrave" horiz-adv-x="764" d="M721 229Q708 167 679 120T614 47T535 4T455 -17T379 -22Q350 -22 324 -19T268 -9T218 10T176 42T146 87T133 149T140 230L228 646Q234 673 247 683T287 694H338Q367 694 374 683T375 646L286
226Q268 144 292 104T399 64Q485 64 526 105T584 227L673 646Q679 673 691 683T732 694H772Q801 694 808 683T809 646L721 229ZM645 776Q652 767 647 762T629 756H562L366 862Q361 866 361 871T365 880T380 885H541L645 776Z" />
<glyph unicode="&#xda;" glyph-name="Uacute" horiz-adv-x="764" d="M721 229Q708 167 679 120T614 47T535 4T455 -17T379 -22Q350 -22 324 -19T268 -9T218 10T176 42T146 87T133 149T140 230L228 646Q234 673 247 683T287 694H338Q367 694 374 683T375 646L286
226Q268 144 292 104T399 64Q485 64 526 105T584 227L673 646Q679 673 691 683T732 694H772Q801 694 808 683T809 646L721 229ZM764 862L524 756H457Q445 756 442 761T449 776L599 885H760Q769 885 772 881T774 871T764 862Z" />
<glyph unicode="&#xdb;" glyph-name="Ucircumflex" horiz-adv-x="764" d="M721 229Q708 167 679 120T614 47T535 4T455 -17T379 -22Q350 -22 324 -19T268 -9T218 10T176 42T146 87T133 149T140 230L228 646Q234 673 247 683T287 694H338Q367 694 374 683T375 646L286
226Q268 144 292 104T399 64Q485 64 526 105T584 227L673 646Q679 673 691 683T732 694H772Q801 694 808 683T809 646L721 229ZM717 768Q722 763 717 755T703 746H656L652 747L557 828L428 747L422 746H375Q370 746 368 749T366 758T372 766L504 870Q507 873 512
873H623Q628 873 631 870L717 768Z" />
<glyph unicode="&#xdc;" glyph-name="Udieresis" horiz-adv-x="764" d="M721 229Q708 167 679 120T614 47T535 4T455 -17T379 -22Q350 -22 324 -19T268 -9T218 10T176 42T146 87T133 149T140 230L228 646Q234 673 247 683T287 694H338Q367 694 374 683T375 646L286
226Q268 144 292 104T399 64Q485 64 526 105T584 227L673 646Q679 673 691 683T732 694H772Q801 694 808 683T809 646L721 229ZM473 789Q468 766 458 756T420 746H374Q348 746 342 756T341 789L344 806Q349 830 360 839T396 849H442Q468 849 474 840T476 806L473
789ZM759 789Q754 766 744 756T706 746H660Q634 746 628 756T627 789L630 806Q635 830 646 839T682 849H728Q754 849 760 840T762 806L759 789Z" />
<glyph unicode="&#xdf;" glyph-name="germandbls" horiz-adv-x="565" d="M573 186Q531 -11 324 -11Q303 -11 282 -8T244 3T230 20Q230 22 233 27T241 40T248 53Q265 76 271 77Q272 77 281 74Q305 61 334 61Q356 61 373 70T400 89T418 120T430 152T438 186Q449
242 450 285T428 355T354 386Q342 387 341 392T343 413L347 431Q349 441 350 445T355 454T365 458Q397 459 416 464T456 492T487 560Q496 600 482 616T416 633Q362 633 341 615T312 557L204 48Q199 21 187 11T146 0H109Q82 0 74 10T71 48L180 558Q211 705 432 705Q633
705 625 585Q625 574 622 562Q601 465 517 420Q607 355 573 186Z" />
<glyph unicode="&#xe0;" glyph-name="agrave" horiz-adv-x="525" d="M474 48Q469 21 457 11T416 0H379Q350 0 343 11T341 48L345 68Q275 -11 173 -11Q110 -11 79 33T59 133Q68 174 103 204T177 249T267 271T342 281T388 282L395 317Q406 361 395 385T345 409Q253
409 176 342Q168 336 163 336Q151 336 153 347Q153 364 161 420Q163 428 168 432T192 443Q275 475 363 475Q551 475 535 338Q533 327 531 316L474 48ZM361 154L379 241Q364 240 350 239T308 232T257 215T216 184T190 135Q184 105 198 83T243 61Q248 61 255 61T280
67T312 81T341 109T361 154ZM458 550Q455 537 428 537H391L260 666Q250 674 252 681Q255 694 282 694H364Q378 694 382 693T391 682L452 565L458 550Z" />
<glyph unicode="&#xe1;" glyph-name="aacute" horiz-adv-x="525" d="M474 48Q469 21 457 11T416 0H379Q350 0 343 11T341 48L345 68Q275 -11 173 -11Q110 -11 79 33T59 133Q68 174 103 204T177 249T267 271T342 281T388 282L395 317Q406 361 395 385T345 409Q253
409 176 342Q168 336 163 336Q151 336 153 347Q153 364 161 420Q163 428 168 432T192 443Q275 475 363 475Q551 475 535 338Q533 327 531 316L474 48ZM361 154L379 241Q364 240 350 239T308 232T257 215T216 184T190 135Q184 105 198 83T243 61Q248 61 255 61T280
67T312 81T341 109T361 154ZM564 681Q562 676 550 666L363 537H326Q318 537 315 537T307 538T302 542T302 550Q303 554 314 565L425 682Q433 690 438 692T458 694H540Q548 694 551 694T559 693T564 689T564 681Z" />
<glyph unicode="&#xe2;" glyph-name="acircumflex" horiz-adv-x="525" d="M474 48Q469 21 457 11T416 0H379Q350 0 343 11T341 48L345 68Q275 -11 173 -11Q110 -11 79 33T59 133Q68 174 103 204T177 249T267 271T342 281T388 282L395 317Q406 361 395 385T345
409Q253 409 176 342Q168 336 163 336Q151 336 153 347Q153 364 161 420Q163 428 168 432T192 443Q275 475 363 475Q551 475 535 338Q533 327 531 316L474 48ZM361 154L379 241Q364 240 350 239T308 232T257 215T216 184T190 135Q184 105 198 83T243 61Q248 61
255 61T280 67T312 81T341 109T361 154ZM543 556Q545 550 540 543T528 535H481Q477 536 475 537L399 638L279 537L273 535H226Q219 535 217 541T220 554L347 693Q351 697 357 697H468Q475 697 476 693L543 556Z" />
<glyph unicode="&#xe3;" glyph-name="atilde" horiz-adv-x="525" d="M474 48Q469 21 457 11T416 0H379Q350 0 343 11T341 48L345 68Q275 -11 173 -11Q110 -11 79 33T59 133Q68 174 103 204T177 249T267 271T342 281T388 282L395 317Q406 361 395 385T345 409Q253
409 176 342Q168 336 163 336Q151 336 153 347Q153 364 161 420Q163 428 168 432T192 443Q275 475 363 475Q551 475 535 338Q533 327 531 316L474 48ZM361 154L379 241Q364 240 350 239T308 232T257 215T216 184T190 135Q184 105 198 83T243 61Q248 61 255 61T280
67T312 81T341 109T361 154ZM587 664Q579 623 541 587T453 550Q410 550 363 587Q337 609 320 609Q287 609 273 565Q269 554 264 552T243 550H225Q209 550 204 552T202 567Q210 608 248 644T336 681Q379 681 426 644Q452 622 468 622Q501 622 516 666Q520 677 525
679T546 681H564Q581 681 585 679T587 664Z" />
<glyph unicode="&#xe4;" glyph-name="adieresis" horiz-adv-x="525" d="M474 48Q469 21 457 11T416 0H379Q350 0 343 11T341 48L345 68Q275 -11 173 -11Q110 -11 79 33T59 133Q68 174 103 204T177 249T267 271T342 281T388 282L395 317Q406 361 395 385T345 409Q253
409 176 342Q168 336 163 336Q151 336 153 347Q153 364 161 420Q163 428 168 432T192 443Q275 475 363 475Q551 475 535 338Q533 327 531 316L474 48ZM361 154L379 241Q364 240 350 239T308 232T257 215T216 184T190 135Q184 105 198 83T243 61Q248 61 255 61T280
67T312 81T341 109T361 154ZM337 607Q332 584 322 574T285 564H239Q213 564 207 574T205 607L209 624Q214 648 225 657T261 667H307Q333 667 339 658T341 624L337 607ZM579 607Q574 584 564 574T527 564H481Q455 564 449 574T447 607L451 624Q456 648 467 657T503
667H549Q575 667 581 658T583 624L579 607Z" />
<glyph unicode="&#xe5;" glyph-name="aring" horiz-adv-x="525" d="M474 48Q469 21 457 11T416 0H379Q350 0 343 11T341 48L345 68Q275 -11 173 -11Q110 -11 79 33T59 133Q68 174 103 204T177 249T267 271T342 281T388 282L395 317Q406 361 395 385T345 409Q253
409 176 342Q168 336 163 336Q151 336 153 347Q153 364 161 420Q163 428 168 432T192 443Q275 475 363 475Q551 475 535 338Q533 327 531 316L474 48ZM361 154L379 241Q364 240 350 239T308 232T257 215T216 184T190 135Q184 105 198 83T243 61Q248 61 255 61T280
67T312 81T341 109T361 154ZM446 605Q450 626 438 632T398 639Q368 639 354 633T336 605Q331 584 343 578T383 571Q413 571 427 577T446 605ZM513 604Q497 526 374 526Q360 526 350 526T321 531T290 543T271 567T268 606Q284 684 407 684Q421 684 431 684T460 679T491
667T510 643T513 604Z" />
<glyph unicode="&#xe6;" glyph-name="ae" horiz-adv-x="794" d="M817 261Q811 233 798 224T759 214H510Q497 142 515 102T596 61Q678 61 747 119Q760 129 765 129Q772 129 773 125T773 97Q768 56 767 53Q765 45 761 42T733 26Q657 -11 577 -11Q465 -11 409 44Q328
-11 176 -11Q136 -11 108 3T70 39T56 83T57 123Q64 157 93 182T155 219T238 240T315 250T383 253L396 317Q408 358 397 383T346 409Q253 409 176 342Q168 336 163 336Q151 336 153 347Q153 364 161 420Q163 428 168 432T191 442Q275 475 363 475Q466 475 508 434Q574
475 666 475Q766 475 802 419T817 261ZM705 267Q709 289 711 303T713 338T707 372T688 393T652 403Q559 403 523 267H705ZM372 122Q372 129 371 134Q369 161 372 199Q202 190 187 124Q183 101 197 81T245 61Q295 61 331 82T372 122Z" />
<glyph unicode="&#xe7;" glyph-name="ccedilla" horiz-adv-x="489" d="M468 50Q467 43 462 39T433 24Q357 -11 272 -11Q35 -11 86 230Q138 475 380 475Q429 475 457 468T521 443Q530 438 533 436T539 430T541 422T529 389T514 353Q508 340 498 340Q492 340 483
351Q458 376 434 386T364 397Q328 397 302 384T261 344T239 294T222 232Q217 208 215 197T211 162T212 125T224 97T249 74T291 67Q374 67 449 123Q461 133 467 133Q477 133 477 120Q474 84 468 50ZM319 -59Q319 -62 311 -75L234 -196Q226 -209 222 -211T200 -214H150Q140
-214 136 -214T128 -210T126 -201Q129 -191 239 -67Q252 -52 257 -49T278 -46H296Q304 -46 307 -46T314 -47T319 -51T319 -59Z" />
<glyph unicode="&#xe8;" glyph-name="egrave" horiz-adv-x="511" d="M534 260Q530 239 520 228T500 216T476 214H204Q200 190 199 173T201 133T214 96T246 72T300 61Q383 61 463 119Q476 129 482 129Q489 129 490 125T490 97Q485 56 484 53Q483 45 477 41T450
27Q366 -11 281 -11Q161 -11 108 50T81 233Q105 349 179 412T371 475Q479 475 517 418T534 260ZM425 267Q431 307 431 337T413 385T356 403Q253 403 217 267H425ZM451 550Q448 537 421 537H384L253 666Q243 674 245 681Q248 694 275 694H357Q371 694 375 693T384
682L445 565L451 550Z" />
<glyph unicode="&#xe9;" glyph-name="eacute" horiz-adv-x="511" d="M534 260Q530 239 520 228T500 216T476 214H204Q200 190 199 173T201 133T214 96T246 72T300 61Q383 61 463 119Q476 129 482 129Q489 129 490 125T490 97Q485 56 484 53Q483 45 477 41T450
27Q366 -11 281 -11Q161 -11 108 50T81 233Q105 349 179 412T371 475Q479 475 517 418T534 260ZM425 267Q431 307 431 337T413 385T356 403Q253 403 217 267H425ZM557 681Q555 676 543 666L356 537H319Q311 537 308 537T300 538T295 542T295 550Q296 554 307 565L418
682Q426 690 431 692T451 694H533Q541 694 544 694T552 693T557 689T557 681Z" />
<glyph unicode="&#xea;" glyph-name="ecircumflex" horiz-adv-x="511" d="M534 260Q530 239 520 228T500 216T476 214H204Q200 190 199 173T201 133T214 96T246 72T300 61Q383 61 463 119Q476 129 482 129Q489 129 490 125T490 97Q485 56 484 53Q483 45 477 41T450
27Q366 -11 281 -11Q161 -11 108 50T81 233Q105 349 179 412T371 475Q479 475 517 418T534 260ZM425 267Q431 307 431 337T413 385T356 403Q253 403 217 267H425ZM536 556Q538 550 533 543T521 535H474Q470 536 468 537L392 638L272 537L266 535H219Q212 535 210
541T213 554L340 693Q344 697 350 697H461Q468 697 469 693L536 556Z" />
<glyph unicode="&#xeb;" glyph-name="edieresis" horiz-adv-x="511" d="M534 260Q530 239 520 228T500 216T476 214H204Q200 190 199 173T201 133T214 96T246 72T300 61Q383 61 463 119Q476 129 482 129Q489 129 490 125T490 97Q485 56 484 53Q483 45 477 41T450
27Q366 -11 281 -11Q161 -11 108 50T81 233Q105 349 179 412T371 475Q479 475 517 418T534 260ZM425 267Q431 307 431 337T413 385T356 403Q253 403 217 267H425ZM330 607Q325 584 315 574T278 564H232Q206 564 200 574T198 607L202 624Q207 648 218 657T254 667H300Q326
667 332 658T334 624L330 607ZM572 607Q567 584 557 574T520 564H474Q448 564 442 574T440 607L444 624Q449 648 460 657T496 667H542Q568 667 574 658T576 624L572 607Z" />
<glyph unicode="&#xec;" glyph-name="igrave" horiz-adv-x="256" d="M204 48Q199 21 187 11T146 0H109Q82 0 74 10T71 48L148 410Q154 438 166 448T206 458H243Q272 458 279 447T281 410L204 48ZM311 550Q308 537 281 537H244L113 666Q103 674 105 681Q108 694
135 694H217Q231 694 235 693T244 682L305 565L311 550Z" />
<glyph unicode="&#xed;" glyph-name="iacute" horiz-adv-x="256" d="M204 48Q199 21 187 11T146 0H109Q82 0 74 10T71 48L148 410Q154 438 166 448T206 458H243Q272 458 279 447T281 410L204 48ZM440 681Q438 676 426 666L239 537H202Q194 537 191 537T183 538T178
542T178 550Q179 554 190 565L301 682Q309 690 314 692T334 694H416Q424 694 427 694T435 693T440 689T440 681Z" />
<glyph unicode="&#xee;" glyph-name="icircumflex" horiz-adv-x="256" d="M204 48Q199 21 187 11T146 0H109Q82 0 74 10T71 48L148 410Q154 438 166 448T206 458H243Q272 458 279 447T281 410L204 48ZM408 556Q410 550 405 543T393 535H346Q342 536 340 537L264
638L144 537L138 535H91Q84 535 82 541T85 554L212 693Q216 697 222 697H333Q340 697 341 693L408 556Z" />
<glyph unicode="&#xef;" glyph-name="idieresis" horiz-adv-x="256" d="M204 48Q199 21 187 11T146 0H109Q82 0 74 10T71 48L148 410Q154 438 166 448T206 458H243Q272 458 279 447T281 410L204 48ZM202 607Q197 584 187 574T150 564H104Q78 564 72 574T70 607L74
624Q79 648 90 657T126 667H172Q198 667 204 658T206 624L202 607ZM444 607Q439 584 429 574T392 564H346Q320 564 314 574T312 607L316 624Q321 648 332 657T368 667H414Q440 667 446 658T448 624L444 607Z" />
<glyph unicode="&#xf1;" glyph-name="ntilde" horiz-adv-x="561" d="M510 48Q505 21 493 11T452 0H412Q383 0 376 11T374 48L433 323Q442 361 433 379T390 397Q347 397 307 364T253 269L206 48Q201 21 189 11T148 0H108Q81 0 73 10T70 48L148 416Q154 443 167
453T207 464H241Q270 464 277 453T278 416L268 366H269Q284 387 302 406T363 447T454 469Q531 469 558 436T569 325L510 48ZM605 664Q597 623 559 587T471 550Q428 550 381 587Q355 609 338 609Q305 609 291 565Q287 554 282 552T261 550H243Q227 550 222 552T220
567Q228 608 266 644T354 681Q397 681 444 644Q470 622 486 622Q519 622 534 666Q538 677 543 679T564 681H582Q599 681 603 679T605 664Z" />
<glyph unicode="&#xf2;" glyph-name="ograve" horiz-adv-x="550" d="M566 225Q516 -11 272 -11T79 225Q132 475 376 475Q619 475 566 225ZM432 237Q439 268 442 285T445 328T437 368T410 392T360 403T306 392T269 368T244 328T228 285T217 237Q211 210 209 196T204
158T206 121T218 94T245 74T289 67Q327 67 353 81T395 124T417 175T432 237ZM470 550Q467 537 440 537H403L272 666Q262 674 264 681Q267 694 294 694H376Q390 694 394 693T403 682L464 565L470 550Z" />
<glyph unicode="&#xf3;" glyph-name="oacute" horiz-adv-x="550" d="M566 225Q516 -11 272 -11T79 225Q132 475 376 475Q619 475 566 225ZM432 237Q439 268 442 285T445 328T437 368T410 392T360 403T306 392T269 368T244 328T228 285T217 237Q211 210 209 196T204
158T206 121T218 94T245 74T289 67Q327 67 353 81T395 124T417 175T432 237ZM576 681Q574 676 562 666L375 537H338Q330 537 327 537T319 538T314 542T314 550Q315 554 326 565L437 682Q445 690 450 692T470 694H552Q560 694 563 694T571 693T576 689T576 681Z"
/>
<glyph unicode="&#xf4;" glyph-name="ocircumflex" horiz-adv-x="550" d="M566 225Q516 -11 272 -11T79 225Q132 475 376 475Q619 475 566 225ZM432 237Q439 268 442 285T445 328T437 368T410 392T360 403T306 392T269 368T244 328T228 285T217 237Q211 210 209
196T204 158T206 121T218 94T245 74T289 67Q327 67 353 81T395 124T417 175T432 237ZM555 556Q557 550 552 543T540 535H493Q489 536 487 537L411 638L291 537L285 535H238Q231 535 229 541T232 554L359 693Q363 697 369 697H480Q487 697 488 693L555 556Z" />
<glyph unicode="&#xf5;" glyph-name="otilde" horiz-adv-x="550" d="M566 225Q516 -11 272 -11T79 225Q132 475 376 475Q619 475 566 225ZM432 237Q439 268 442 285T445 328T437 368T410 392T360 403T306 392T269 368T244 328T228 285T217 237Q211 210 209 196T204
158T206 121T218 94T245 74T289 67Q327 67 353 81T395 124T417 175T432 237ZM599 664Q591 623 553 587T465 550Q422 550 375 587Q349 609 332 609Q299 609 285 565Q281 554 276 552T255 550H237Q221 550 216 552T214 567Q222 608 260 644T348 681Q391 681 438 644Q464
622 480 622Q513 622 528 666Q532 677 537 679T558 681H576Q593 681 597 679T599 664Z" />
<glyph unicode="&#xf6;" glyph-name="odieresis" horiz-adv-x="550" d="M566 225Q516 -11 272 -11T79 225Q132 475 376 475Q619 475 566 225ZM432 237Q439 268 442 285T445 328T437 368T410 392T360 403T306 392T269 368T244 328T228 285T217 237Q211 210 209
196T204 158T206 121T218 94T245 74T289 67Q327 67 353 81T395 124T417 175T432 237ZM349 607Q344 584 334 574T297 564H251Q225 564 219 574T217 607L221 624Q226 648 237 657T273 667H319Q345 667 351 658T353 624L349 607ZM591 607Q586 584 576 574T539 564H493Q467
564 461 574T459 607L463 624Q468 648 479 657T515 667H561Q587 667 593 658T595 624L591 607Z" />
<glyph unicode="&#xf7;" glyph-name="divide" horiz-adv-x="856" d="M847 250Q838 208 784 208H159Q148 208 140 209T121 220T114 250Q123 292 176 292H803Q813 292 821 291T840 280T847 250ZM584 428Q579 408 575 405T551 401H474Q454 401 452 404T453 428L469
505Q474 525 478 528T502 532H579Q599 532 601 528T600 505L584 428ZM492 -6Q487 -26 483 -29T459 -33H382Q362 -33 360 -30T361 -6L377 71Q382 91 386 94T410 98H487Q507 98 509 94T508 71L492 -6Z" />
<glyph unicode="&#xf8;" glyph-name="oslash" horiz-adv-x="550" d="M566 225Q516 -11 272 -11Q223 -11 186 -2L109 -100Q87 -127 77 -131Q71 -133 63 -133Q48 -133 40 -123T34 -97Q37 -87 56 -63L125 27Q47 83 79 225Q132 475 375 475Q427 475 464 464L544 568Q561
592 584 592Q599 592 607 582T612 556Q610 545 597 529L523 434Q598 373 566 225ZM410 395Q386 403 361 403Q325 403 298 391T256 363T228 320T211 274T199 226Q182 146 192 114L410 395ZM446 226Q464 308 454 345L239 67Q261 61 287 61Q323 61 350 72T392 96T419
136T435 179T446 226Z" />
<glyph unicode="&#xf9;" glyph-name="ugrave" horiz-adv-x="561" d="M510 48Q505 21 493 11T452 0H415Q386 0 379 11T377 48L383 74Q318 -11 220 -11Q137 -11 104 19T87 126L147 410Q153 438 165 448T205 458H245Q274 458 281 447T283 410L221 117Q211 77 219
64T269 50Q320 50 355 85T401 173L451 410Q457 437 469 447T509 458H549Q578 458 585 447T587 410L510 48ZM476 550Q473 537 446 537H409L278 666Q268 674 270 681Q273 694 300 694H382Q396 694 400 693T409 682L470 565L476 550Z" />
<glyph unicode="&#xfa;" glyph-name="uacute" horiz-adv-x="561" d="M510 48Q505 21 493 11T452 0H415Q386 0 379 11T377 48L383 74Q318 -11 220 -11Q137 -11 104 19T87 126L147 410Q153 438 165 448T205 458H245Q274 458 281 447T283 410L221 117Q211 77 219
64T269 50Q320 50 355 85T401 173L451 410Q457 437 469 447T509 458H549Q578 458 585 447T587 410L510 48ZM582 681Q580 676 568 666L381 537H344Q336 537 333 537T325 538T320 542T320 550Q321 554 332 565L443 682Q451 690 456 692T476 694H558Q566 694 569 694T577
693T582 689T582 681Z" />
<glyph unicode="&#xfb;" glyph-name="ucircumflex" horiz-adv-x="561" d="M510 48Q505 21 493 11T452 0H415Q386 0 379 11T377 48L383 74Q318 -11 220 -11Q137 -11 104 19T87 126L147 410Q153 438 165 448T205 458H245Q274 458 281 447T283 410L221 117Q211 77
219 64T269 50Q320 50 355 85T401 173L451 410Q457 437 469 447T509 458H549Q578 458 585 447T587 410L510 48ZM561 556Q563 550 558 543T546 535H499Q495 536 493 537L417 638L297 537L291 535H244Q237 535 235 541T238 554L365 693Q369 697 375 697H486Q493 697
494 693L561 556Z" />
<glyph unicode="&#xfc;" glyph-name="udieresis" horiz-adv-x="561" d="M510 48Q505 21 493 11T452 0H415Q386 0 379 11T377 48L383 74Q318 -11 220 -11Q137 -11 104 19T87 126L147 410Q153 438 165 448T205 458H245Q274 458 281 447T283 410L221 117Q211 77 219
64T269 50Q320 50 355 85T401 173L451 410Q457 437 469 447T509 458H549Q578 458 585 447T587 410L510 48ZM355 607Q350 584 340 574T303 564H257Q231 564 225 574T223 607L227 624Q232 648 243 657T279 667H325Q351 667 357 658T359 624L355 607ZM597 607Q592
584 582 574T545 564H499Q473 564 467 574T465 607L469 624Q474 648 485 657T521 667H567Q593 667 599 658T601 624L597 607Z" />
<glyph unicode="&#xff;" glyph-name="ydieresis" horiz-adv-x="500" d="M565 431Q564 425 555 411L292 -63Q284 -78 270 -96T229 -142T163 -187T80 -205Q12 -205 4 -191Q3 -188 7 -153T13 -110Q16 -95 29 -95Q33 -95 38 -99Q65 -120 100 -120Q125 -120 146 -106T177
-79T200 -42Q207 -28 223 0L122 416Q120 427 121 432Q126 458 165 458H191Q227 458 237 445T260 380Q304 189 298 142H299Q307 172 344 244T414 374T450 435Q470 458 508 458H530Q537 458 542 458T554 455T564 447T565 431ZM324 607Q319 584 309 574T272 564H226Q200
564 194 574T192 607L196 624Q201 648 212 657T248 667H294Q320 667 326 658T328 624L324 607ZM566 607Q561 584 551 574T514 564H468Q442 564 436 574T434 607L438 624Q443 648 454 657T490 667H536Q562 667 568 658T570 624L566 607Z" />
<glyph unicode="&#x131;" glyph-name="dotlessi" horiz-adv-x="256" d="M204 48Q199 21 187 11T146 0H109Q82 0 74 10T71 48L148 410Q154 438 166 448T206 458H243Q272 458 279 447T281 410L204 48Z" />
<glyph unicode="&#x152;" glyph-name="OE" horiz-adv-x="1069" d="M1032 48Q1027 21 1015 11T974 0H592Q556 0 495 -11Q425 -22 386 -22Q203 -22 134 71T103 342Q181 716 544 716Q582 716 635 706Q707 694 740 694H1107Q1136 694 1143 683T1144 646L1143 638Q1138
615 1127 604T1106 592T1074 590L840 593H790L750 406H1014Q1041 406 1049 396T1052 359Q1046 331 1033 322T994 312H730L687 106L834 108L989 110Q1010 110 1019 109T1034 96T1035 62L1032 48ZM569 235L593 347Q630 521 632 552Q636 606 617 625T537 644Q474 644
424 622T346 570T296 495T266 423T250 359Q184 50 412 50Q488 50 515 84T569 235Z" />
<glyph unicode="&#x153;" glyph-name="oe" horiz-adv-x="856" d="M879 261Q873 233 860 224T821 214H571Q566 173 566 139T590 83T658 61Q740 61 809 119Q822 129 827 129Q834 129 835 125T835 97Q830 56 829 53Q829 50 829 49T826 45T821 40T811 35T796 27Q719
-11 638 -11Q525 -11 469 47Q395 -11 276 -11Q155 -11 105 49T80 232Q132 475 379 475Q495 475 547 419Q619 475 728 475Q827 475 864 419T879 261ZM767 267Q770 287 771 298T774 327T773 357T764 380T745 397T713 403Q619 403 584 267H767ZM440 237Q445 261 447
275T452 311T450 347T437 375T409 396T363 403Q330 403 304 392T264 366T238 325T222 282T211 236Q207 214 205 203T200 171T199 137T206 108T221 83T248 68T290 61Q322 61 347 73T387 100T413 144T429 189T440 237Z" />
<glyph unicode="&#x178;" glyph-name="Ydieresis" horiz-adv-x="733" d="M851 671Q848 661 837 650L497 277L448 47Q442 20 430 10T390 0H342Q315 0 307 10T304 48L353 278L171 651Q165 663 167 671Q172 694 208 694H274Q302 694 318 686T346 653L424 491Q451
436 461 403Q485 438 556 516L683 656Q719 694 771 694H820Q830 694 836 694T847 688T851 671ZM458 789Q453 766 443 756T405 746H359Q333 746 327 756T326 789L329 806Q334 830 345 839T381 849H427Q453 849 459 840T461 806L458 789ZM744 789Q739 766 729 756T691
746H645Q619 746 613 756T612 789L615 806Q620 830 631 839T667 849H713Q739 849 745 840T747 806L744 789Z" />
<glyph unicode="&#x192;" glyph-name="florin" horiz-adv-x="336" d="M513 621Q508 595 494 595Q488 595 482 605Q458 633 416 633Q393 633 378 627T354 609T343 589T337 567L313 458H364Q412 458 405 422Q397 386 349 386H301L229 48Q224 21 212 11T171 0H134Q107
0 99 10T96 48L168 386Q152 386 143 387T125 396T120 422Q127 458 183 458L200 538Q236 705 431 705Q467 705 495 699Q519 694 523 690T523 667L513 621Z" />
<glyph unicode="&#x2c6;" glyph-name="circumflex" horiz-adv-x="550" d="M555 556Q557 550 552 543T540 535H493Q489 536 487 537L411 638L291 537L285 535H238Q231 535 229 541T232 554L359 693Q363 697 369 697H480Q487 697 488 693L555 556Z" />
<glyph unicode="&#x2c7;" glyph-name="caron" horiz-adv-x="550" d="M581 678L454 539Q450 535 444 535H333Q326 535 325 539L258 676Q255 682 260 689T273 697H320Q324 696 326 695L402 594L522 695L528 697H575Q582 697 584 691T581 678Z" />
<glyph unicode="&#x2d8;" glyph-name="breve" horiz-adv-x="550" d="M602 649Q580 545 391 545Q373 545 361 545T324 548T283 558T249 575T226 605T225 649Q228 667 241 677T269 687Q273 687 277 686T287 682T296 671T297 651Q321 638 412 638Q502 638 530 651Q542
687 574 687Q587 687 596 677T602 649Z" />
<glyph unicode="&#x2d9;" glyph-name="dotaccent" horiz-adv-x="306" d="M355 606Q349 581 338 570T297 558H246Q216 558 210 569T208 606L212 625Q217 652 229 662T270 673H321Q350 673 357 662T359 625L355 606Z" />
<glyph unicode="&#x2da;" glyph-name="ring" horiz-adv-x="800" d="M584 605Q588 626 576 632T536 639Q506 639 492 633T474 605Q469 584 481 578T521 571Q551 571 565 577T584 605ZM651 604Q635 526 512 526Q498 526 488 526T459 531T428 543T409 567T406 606Q422
684 545 684Q559 684 569 684T598 679T629 667T648 643T651 604Z" />
<glyph unicode="&#x2db;" glyph-name="ogonek" horiz-adv-x="550" d="M358 -162Q354 -176 345 -181Q276 -213 222 -213Q170 -213 148 -185T135 -112Q144 -71 172 -36T239 18L308 10Q255 -25 240 -86Q230 -124 270 -126Q282 -126 337 -114Q342 -112 348 -116T354
-126L358 -162Z" />
<glyph unicode="&#x2dc;" glyph-name="tilde" horiz-adv-x="550" d="M599 664Q591 623 553 587T465 550Q422 550 375 587Q349 609 332 609Q299 609 285 565Q281 554 276 552T255 550H237Q221 550 216 552T214 567Q222 608 260 644T348 681Q391 681 438 644Q464
622 480 622Q513 622 528 666Q532 677 537 679T558 681H576Q593 681 597 679T599 664Z" />
<glyph unicode="&#x2dd;" glyph-name="hungarumlaut" horiz-adv-x="550" d="M419 681Q418 677 407 665L309 551Q300 541 296 539T276 537H258Q248 537 244 537T236 541T234 551L279 673Q285 688 290 691T313 694H395Q403 694 406 694T414 693T419 689T419 681ZM602
681Q601 677 590 665L492 551Q483 541 479 539T459 537H441Q431 537 427 537T419 541T417 551L462 673Q468 688 473 691T496 694H578Q586 694 589 694T597 693T602 689T602 681Z" />
<glyph unicode="&#x3a9;" glyph-name="Omega" horiz-adv-x="794" d="M754 48Q749 21 737 11T696 0H498Q491 0 487 0T474 3T464 9T458 21T459 42Q467 79 491 126T532 200T583 274Q668 392 684 465Q704 559 667 601T533 644Q435 644 381 601T307 465Q299 416 303
378T327 268Q369 119 352 42Q343 0 295 0H97Q70 0 62 10T59 48L62 60Q67 83 77 93T98 106T134 108Q142 108 158 108T183 107H257Q272 107 279 106Q265 156 217 236Q178 299 162 350T160 464Q171 517 206 573T309 666Q402 716 549 716Q713 716 781 655Q855 588 831
464Q822 420 795 376T743 304T673 232Q590 150 560 106Q566 107 582 107H656Q664 107 680 107T705 108Q718 108 723 108T738 107T750 102T757 94T760 80T757 60L754 48Z" />
<glyph unicode="&#x2013;" glyph-name="endash" horiz-adv-x="550" d="M609 283Q602 247 554 247H101Q53 247 60 283Q68 319 116 319H569Q580 319 587 318T604 308T609 283Z" />
<glyph unicode="&#x2014;" glyph-name="emdash" horiz-adv-x="1100" d="M1159 283Q1152 247 1104 247H101Q53 247 60 283Q68 319 116 319H1119Q1130 319 1137 318T1154 308T1159 283Z" />
<glyph unicode="&#x2018;" glyph-name="quoteleft" horiz-adv-x="306" d="M321 484Q316 464 312 461T288 457H211Q191 457 189 460T190 484L210 579L295 681Q303 690 307 692T327 694H339Q347 694 350 694T357 693T362 689T362 681Q360 675 356 668L309 588Q334
588 338 584T337 561L321 484Z" />
<glyph unicode="&#x2019;" glyph-name="quoteright" horiz-adv-x="306" d="M340 572L255 470Q247 461 243 459T223 457H211Q203 457 200 457T193 458T188 462T188 470Q190 476 194 483L241 563Q216 563 212 566T212 590L229 667Q233 686 237 690T262 694H339Q358
694 361 690T360 667L340 572Z" />
<glyph unicode="&#x201a;" glyph-name="quotesinglbase" horiz-adv-x="306" d="M219 7L135 -95Q127 -104 123 -106T103 -108H91Q83 -108 80 -108T73 -107T68 -103T68 -95Q70 -89 74 -82L121 -2Q96 -2 92 1T92 25L109 102Q113 122 117 125T141 129H218Q238 129
241 126T240 102L219 7Z" />
<glyph unicode="&#x201c;" glyph-name="quotedblleft" horiz-adv-x="529" d="M321 484Q316 464 312 461T288 457H211Q191 457 189 460T190 484L210 579L295 681Q303 690 307 692T327 694H339Q347 694 350 694T357 693T362 689T362 681Q360 675 356 668L309 588Q334
588 338 584T337 561L321 484ZM544 484Q539 464 535 461T511 457H434Q414 457 412 460T413 484L433 579L518 681Q526 690 530 692T550 694H562Q570 694 573 694T580 693T585 689T585 681Q583 675 579 668L532 588Q557 588 561 584T560 561L544 484Z" />
<glyph unicode="&#x201d;" glyph-name="quotedblright" horiz-adv-x="529" d="M341 572L256 470Q248 461 244 459T224 457H212Q204 457 201 457T194 458T189 462T189 470Q191 476 195 483L242 563Q217 563 213 566T213 590L230 667Q234 686 238 690T263 694H340Q359
694 362 690T361 667L341 572ZM564 572L479 470Q471 461 467 459T447 457H435Q427 457 424 457T417 458T412 462T412 470Q414 476 418 483L465 563Q440 563 436 566T436 590L453 667Q457 686 461 690T486 694H563Q582 694 585 690T584 667L564 572Z" />
<glyph unicode="&#x201e;" glyph-name="quotedblbase" horiz-adv-x="529" d="M220 7L136 -95Q128 -104 124 -106T104 -108H92Q84 -108 81 -108T74 -107T69 -103T69 -95Q71 -89 75 -82L122 -2Q97 -2 93 1T93 25L110 102Q114 122 118 125T142 129H219Q239 129 242
126T241 102L220 7ZM443 7L359 -95Q351 -104 347 -106T327 -108H315Q307 -108 304 -108T297 -107T292 -103T292 -95Q294 -89 298 -82L345 -2Q320 -2 316 1T316 25L333 102Q337 122 341 125T365 129H442Q462 129 465 126T464 102L443 7Z" />
<glyph unicode="&#x2020;" glyph-name="dagger" horiz-adv-x="511" d="M541 443Q537 422 519 405T472 388T398 414Q378 425 361 428Q359 408 364 359Q370 304 369 286T360 231Q340 137 310 30T261 -132T236 -200Q231 -211 210 -211Q193 -211 192 -204Q188 -198
193 -156Q210 47 249 231Q257 267 264 287T296 353Q324 404 332 428Q309 423 273 407Q229 388 203 388T165 404T158 444Q163 466 181 482T227 499Q254 499 302 473Q322 462 339 459Q341 487 336 542Q330 609 337 643Q343 674 363 688T405 702Q424 702 439 689T448
643Q441 608 403 537Q379 495 368 459Q392 465 427 480Q469 499 496 499Q522 499 534 483T541 443Z" />
<glyph unicode="&#x2021;" glyph-name="daggerdbl" horiz-adv-x="511" d="M548 476Q546 466 541 456T519 433T479 421Q450 421 406 446Q392 453 369 460Q368 432 372 402Q383 341 376 308Q370 279 350 265T308 250Q288 250 274 264T265 308Q272 339 308 401Q328
433 338 460Q315 455 294 445Q239 421 210 421Q187 421 175 432T164 456T165 476Q170 499 188 515T233 531Q262 531 308 506Q324 498 345 492Q346 515 341 550Q331 617 337 644Q343 673 363 687T405 702Q425 702 439 688T448 644Q441 613 405 551Q384 517 376 492Q398
497 435 513Q476 531 504 531Q530 531 541 515T548 476ZM452 23Q448 2 430 -15T383 -32Q356 -32 324 -14Q286 4 273 8Q271 -21 277 -55Q287 -113 280 -144Q274 -173 254 -187T212 -202Q192 -202 178 -188T169 -144Q177 -112 207 -62Q231 -20 242 8Q222 3 183 -13Q141
-32 114 -32Q88 -32 76 -16T69 24Q73 45 91 62T138 79Q164 79 212 54Q231 43 248 39Q250 68 244 102Q234 160 241 191Q247 220 267 234T309 249Q329 249 343 235T352 191Q344 159 314 109Q290 67 279 39Q304 46 338 60Q380 79 407 79Q433 79 445 63T452 23Z" />
<glyph unicode="&#x2022;" glyph-name="bullet" horiz-adv-x="856" d="M618 177Q608 131 598 123T541 114H363Q317 114 311 122T314 177L351 355Q361 401 371 409T428 418H606Q652 418 658 410T655 355L618 177Z" />
<glyph unicode="&#x2026;" glyph-name="ellipsis" horiz-adv-x="768" d="M225 27Q220 7 216 4T192 0H115Q95 0 93 4T94 27L110 104Q115 124 119 127T143 131H220Q240 131 242 128T241 104L225 27ZM456 27Q451 7 447 4T423 0H346Q326 0 324 4T325 27L341 104Q346
124 350 127T374 131H451Q471 131 473 128T472 104L456 27ZM687 27Q682 7 678 4T654 0H577Q557 0 555 4T556 27L572 104Q577 124 581 127T605 131H682Q702 131 704 128T703 104L687 27Z" />
<glyph unicode="&#x2030;" glyph-name="perthousand" horiz-adv-x="1400" d="M1366 145Q1347 54 1294 -1T1144 -56Q962 -56 1005 146Q1048 347 1230 347Q1409 347 1366 145ZM935 145Q916 54 863 -1T713 -56Q531 -56 574 146Q617 347 799 347Q978 347 935 145ZM917
708Q917 696 899 677L210 -35Q189 -56 168 -56Q151 -56 141 -44T135 -14Q138 0 155 17L843 729Q864 750 884 750Q902 750 911 738T917 708ZM543 548Q501 347 322 347Q140 347 183 549Q225 750 407 750Q586 750 543 548ZM1252 146Q1280 275 1213 275Q1195 275 1182
267T1160 248T1144 217T1133 184T1125 146Q1122 129 1121 122T1117 100T1114 78T1114 58T1117 40T1125 28T1138 19T1158 16Q1224 16 1252 146ZM821 146Q849 275 782 275Q764 275 751 267T729 248T713 217T702 184T694 146Q691 129 690 122T686 100T683 78T683 58T686
40T694 28T707 19T727 16Q793 16 821 146ZM430 549Q448 647 419 670Q408 678 391 678Q373 678 360 670T338 651T322 620T311 587T302 548Q286 468 295 443Q305 419 336 419Q402 419 430 549Z" />
<glyph unicode="&#x2039;" glyph-name="guilsinglleft" horiz-adv-x="319" d="M261 16Q261 9 256 5T245 0H199Q191 0 189 7L128 244Q126 250 131 256L292 493Q297 500 305 500H351Q366 500 361 484L264 250L261 16Z" />
<glyph unicode="&#x203a;" glyph-name="guilsinglright" horiz-adv-x="319" d="M295 244L133 7Q128 0 120 0H74Q68 0 65 4T65 16L161 250L164 484Q164 491 169 495T180 500H226Q234 500 236 493L297 256Q298 251 295 244Z" />
<glyph unicode="&#x2044;" glyph-name="fraction" horiz-adv-x="646" d="M716 651L137 -3Q123 -22 98 -22T66 0T77 43L656 698Q674 716 695 716Q721 716 728 694T716 651Z" />
<glyph unicode="&#x20ac;" glyph-name="Euro" horiz-adv-x="658" d="M613 48Q613 42 606 37Q524 -22 431 -22Q274 -22 216 72Q178 130 180 222H116Q110 222 107 227T106 237L130 297Q133 308 145 308H188L196 347L205 386H151Q145 386 142 391T141 401L165 461Q168
472 180 472H233Q269 562 333 623Q432 716 588 716Q667 716 729 681Q736 675 733 667L691 560Q687 551 679 550T666 555Q654 583 628 599T567 616Q483 616 430 552Q400 516 381 472H628Q634 472 637 468T638 457L615 397Q610 386 600 386H353L344 347L336 308H565Q571
308 573 304T574 293L551 233Q546 222 536 222H328Q328 179 343 143Q371 78 453 78T603 141Q610 148 617 145T624 134L613 48Z" />
<glyph unicode="&#x2122;" glyph-name="trademark" horiz-adv-x="1027" d="M555 661Q552 647 546 641T535 633T518 632L399 634L330 310Q326 294 319 288T295 282H265Q248 282 243 288T242 310L311 634L189 632Q178 632 173 633T165 640T164 661L166 666Q169 682
176 688T201 694H534Q552 694 556 688T557 666L555 661ZM1013 310Q1009 294 1002 288T978 282H962Q944 282 940 288T939 310L1005 621H1004Q991 592 938 509L821 321Q810 303 800 299T770 295Q757 295 752 296T740 303T730 321L697 492Q677 592 676 621L610 310Q606
294 599 288T575 282H559Q542 282 537 288T536 310L612 669Q616 686 623 692T647 698H696Q726 698 732 673L768 484Q787 383 787 371H788Q794 386 850 478L970 672Q987 698 1016 698H1066Q1084 698 1088 692T1089 669L1013 310Z" />
<glyph unicode="&#x221a;" glyph-name="radical" horiz-adv-x="519" d="M756 763Q747 723 691 723H627Q615 723 609 710L303 95L235 -41Q216 -82 181 -82Q169 -82 162 -79T152 -68T147 -55T146 -38L144 -8L137 136Q134 200 132 211Q128 205 102 177Q76 147 56
147Q42 147 34 156T26 181L27 183Q29 196 46 213L194 376Q216 398 234 398Q242 398 247 395T256 389T261 379T263 369T263 356T264 345L271 209H272Q279 225 295 255L547 760Q558 787 573 797T612 807H689Q693 807 701 807T714 808Q737 808 748 796T756 763Z" />
<glyph unicode="&#x221e;" glyph-name="infinity" horiz-adv-x="1100" d="M510 203L480 255Q458 291 443 312T398 352T335 372Q286 372 247 329T195 229Q180 163 199 114T270 65Q387 65 510 203ZM1003 229Q1017 296 998 344T927 393Q810 393 687 255L718 203Q739
167 754 146T799 105T863 86Q911 86 950 129T1003 229ZM1124 337T1101 229T988 44T792 -33Q650 -33 566 109Q428 -34 293 -34Q188 -34 131 43T97 229T210 414T405 491Q548 491 632 349Q770 492 904 492Q1010 492 1067 415Z" />
<glyph unicode="&#xfb01;" glyph-name="f_i" horiz-adv-x="586" d="M654 607Q649 580 637 570T596 559H556Q527 559 520 570T518 607L527 647Q532 674 544 684T585 695H625Q654 695 661 684T663 647L654 607ZM534 48Q529 21 517 11T476 0H439Q410 0 403 11T401
48L478 410Q484 437 496 447T536 458H573Q602 458 609 447T611 410L534 48ZM414 422Q406 386 358 386H301L229 48Q224 21 212 11T171 0H134Q107 0 99 10T96 48L168 386Q152 386 143 387T125 396T120 422Q127 458 183 458L201 540Q236 705 397 705Q424 705 447 698Q465
694 467 689T466 667L455 616Q450 589 436 589Q428 589 426 599Q418 633 384 633Q351 633 338 572L313 458H373Q421 458 414 422Z" />
<glyph unicode="&#xfb02;" glyph-name="f_l" horiz-adv-x="586" d="M414 422Q406 386 358 386H301L229 48Q224 21 212 11T171 0H134Q107 0 99 10T96 48L168 386Q152 386 143 387T125 396T120 422Q127 458 183 458L201 540Q236 705 397 705Q424 705 447 698Q465
694 467 689T466 667L456 621Q451 595 437 595Q430 595 427 606L425 610Q423 613 422 614T419 619T413 625T406 629T397 632T384 633Q351 633 338 572L313 458H373Q421 458 414 422ZM534 48Q529 21 517 11T476 0H439Q410 0 403 11T401 48L528 646Q534 673 546 683T587
694H624Q653 694 660 683T661 646L534 48Z" />
</font>
</defs>
</svg>
