<?xml version="1.0" standalone="no"?> <!DOCTYPE svg PUBLIC "-//W3C//DTD SVG 1.0//EN" "http://www.w3.org/TR/2001/REC-SVG-20010904/DTD/svg10.dtd" > <svg xmlns="http://www.w3.org/2000/svg" width="100%" height="100%">
<defs >
<font id="LMSansDemiCond10-Regular" horiz-adv-x="517" ><font-face
    font-family="LM Sans Demi Cond 10"
    units-per-em="1000"
    panose-1="0 0 7 0 0 0 0 0 0 0"
    ascent="874"
    descent="-250"
    alphabetic="0" />
<missing-glyph horiz-adv-x="364" d="M33 0V666H298V0H33ZM66 33H265V633H66V33Z" />
<glyph unicode=" " glyph-name="space" horiz-adv-x="317" />
<glyph unicode="!" glyph-name="exclam" horiz-adv-x="306" d="M206 671L201 429L196 193Q194 183 170 183H136Q116 183 112 190Q106 200 106 381L100 671Q100 688 104 691T126 694H181Q199 694 202 691T206 671ZM206 44Q206 18 197 9T162 0H145Q118 0 109 9T100
45V62Q100 88 109 97T144 106H162Q189 106 197 97T206 62V44Z" />
<glyph unicode="&quot;" glyph-name="quotedbl" horiz-adv-x="488" d="M188 465Q188 450 177 439T151 428H113Q98 428 87 439T76 465V676Q76 692 87 702T113 713H151Q166 713 177 703T188 676V465ZM412 465Q412 450 401 439T375 428H337Q322 428 311 439T300 465V676Q300
692 311 702T337 713H375Q390 713 401 703T412 676V465Z" />
<glyph unicode="#" glyph-name="numbersign" horiz-adv-x="792" d="M738 185T738 150T687 115H495L431 -138Q423 -167 396 -167Q381 -167 371 -157T361 -132Q361 -129 365 -112L423 115H292L228 -138Q220 -167 193 -167Q178 -167 168 -157T158 -132Q158 -129 162
-112L220 115H104Q53 115 53 150T98 185H238L278 343H98Q53 343 53 378T104 413H297L359 660Q367 694 395 694Q410 694 420 684T430 659Q430 653 426 639L369 413H500L562 660Q570 694 598 694Q613 694 623 684T633 659Q633 653 629 639L572 413H687Q738 413 738
378T693 343H554L514 185H693Q738 185 738 150ZM481 343H351L311 185H441L481 343Z" />
<glyph unicode="$" glyph-name="dollar" horiz-adv-x="475" d="M421 202Q421 17 269 -8Q269 -56 237 -56T205 -8Q149 -2 104 22Q42 59 42 72Q42 75 47 101T53 131Q53 143 64 143Q69 143 78 135Q136 88 205 78V306Q139 320 96 374T53 506T88 636T205 702Q205 750
237 750T269 703Q314 698 353 678Q405 652 405 635Q405 632 400 606T394 576Q394 564 383 564Q378 564 369 572Q322 609 269 616V415Q339 400 380 341T421 202ZM205 434V613Q152 597 152 524Q152 458 205 434ZM322 183Q322 260 269 287V82Q322 101 322 183Z" />
<glyph unicode="%" glyph-name="percent" horiz-adv-x="879" d="M360 548Q360 535 359 523T355 484T341 436T316 394T272 360T208 347Q159 347 125 369T77 426T58 490T53 549Q53 642 91 694Q133 750 208 750Q244 750 272 738T315 703T341 661T354 613T359 574T360
548ZM708 715Q708 704 698 689L241 -34Q228 -56 208 -56Q194 -56 184 -46T173 -21Q173 -10 183 5L640 728Q655 750 673 750Q688 750 698 740T708 715ZM825 145Q825 132 824 120T820 81T806 33T781 -9T737 -43T673 -56Q624 -56 590 -34T542 23T523 87T518 146Q518
239 556 291Q598 347 673 347Q709 347 737 335T780 300T806 258T819 210T824 171T825 145ZM265 549Q265 592 259 621T244 663T226 681T208 686Q189 686 177 673T161 635T155 593T154 548T155 504T160 462T177 424T208 411Q265 411 265 549ZM730 146Q730 189 724
218T709 260T691 278T673 283Q654 283 642 270T626 232T620 190T619 145T620 101T625 59T642 21T673 8Q730 8 730 146Z" />
<glyph unicode="&amp;" glyph-name="ampersand" horiz-adv-x="717" d="M663 25Q663 7 658 2T623 -10Q590 -19 554 -19Q471 -19 398 37Q306 -19 213 -19Q139 -19 90 29T40 144Q40 216 92 262L178 337Q137 434 137 532Q137 613 184 663T296 713Q359 713 398 665T438
557Q438 511 401 462T285 344Q325 265 411 159Q501 252 544 422Q548 439 550 443T560 448Q562 448 575 445T603 437T621 432Q632 426 632 419Q632 415 626 393T605 327T569 243Q532 168 472 100Q514 67 557 67Q596 67 640 81Q648 85 652 85Q663 85 663 59V25ZM343
557Q343 588 332 618T296 649Q270 649 252 622T233 551Q233 491 258 407Q301 448 322 482T343 557ZM333 98Q262 177 206 276Q188 261 178 251T160 219T151 168Q151 159 152 148T159 115T179 81T216 67Q276 67 333 98Z" />
<glyph unicode="&apos;" glyph-name="quotesingle" horiz-adv-x="264" d="M188 465Q188 450 177 439T151 428H113Q98 428 87 439T76 465V676Q76 692 87 702T113 713H151Q166 713 177 703T188 676V465Z" />
<glyph unicode="(" glyph-name="parenleft" horiz-adv-x="369" d="M314 -211Q314 -219 309 -220T290 -222H276Q258 -222 256 -220Q243 -210 230 -198T186 -143T132 -50T91 84T72 264Q72 520 189 676Q204 696 220 713T246 739T259 749T276 750H290Q304 750 309
749T314 739Q314 734 304 722Q244 644 214 536T183 264Q183 164 194 84T227 -50T266 -136T308 -198Q314 -206 314 -211Z" />
<glyph unicode=")" glyph-name="parenright" horiz-adv-x="369" d="M296 264Q296 8 179 -148Q164 -168 148 -185T122 -211T109 -221T92 -222H79Q54 -222 54 -211Q54 -206 64 -194Q123 -116 154 -9T185 264Q185 364 174 444T141 579T102 663T60 726Q54 734 54 739Q54
750 79 750H92Q110 750 112 748Q125 738 138 726T182 671T236 578T277 444T296 264Z" />
<glyph unicode="*" glyph-name="asterisk" horiz-adv-x="475" d="M417 422Q417 405 404 391T373 376Q359 376 345 390L253 482Q279 330 279 315Q279 297 266 288T237 278T209 287T195 315Q195 321 198 338L221 482L128 390Q114 376 101 376Q83 376 70 390T57 422Q57
444 82 457L210 514L82 571Q57 584 57 606Q57 623 70 637T101 652Q115 652 129 638L221 546L198 690Q195 707 195 713Q195 731 208 740T237 750T265 741T279 713Q279 707 276 690L253 546L346 638Q360 652 373 652Q391 652 404 638T417 606Q417 584 392 571L264
514L392 457Q417 444 417 422Z" />
<glyph unicode="+" glyph-name="plus" horiz-adv-x="739" d="M685 299T685 264T638 229H404V-6Q404 -53 369 -53T334 -6V229H100Q53 229 53 264T100 299H334V534Q334 581 369 581T404 534V299H638Q685 299 685 264Z" />
<glyph unicode="," glyph-name="comma" horiz-adv-x="264" d="M185 26Q185 8 177 -9Q145 -77 135 -95Q130 -106 126 -108T106 -111Q95 -111 91 -111T83 -108T79 -99Q79 -91 107 0Q87 0 83 3T79 26V80Q79 99 82 102T104 106H160Q178 106 181 103T185 80V26Z" />
<glyph unicode="-" glyph-name="hyphen" horiz-adv-x="317" d="M263 268T263 236T219 204H55Q11 204 11 236T55 268H219Q263 268 263 236Z" />
<glyph unicode="." glyph-name="period" horiz-adv-x="264" d="M185 26Q185 7 182 4T160 0H105Q86 0 83 3T79 26V80Q79 99 82 102T104 106H160Q178 106 181 103T185 80V26Z" />
<glyph unicode="/" glyph-name="slash" horiz-adv-x="475" d="M421 715Q421 710 416 696L123 -193Q115 -222 88 -222Q73 -222 63 -212T53 -187Q53 -182 58 -168L351 721Q359 750 386 750Q401 750 411 740T421 715Z" />
<glyph unicode="0" glyph-name="zero" horiz-adv-x="475" d="M437 381T437 343T437 283T432 218T421 148T400 86T365 31T311 -4T237 -19T163 -5T110 30T75 86T53 148T42 218T38 283T37 343T37 403T42 469T53 541T74 605T109 662T163 698T237 713T311 698T364 662T399
605T421 541T432 470T436 404ZM326 357Q326 395 326 414T325 467T322 517T315 560T305 598T289 624T266 643T237 649Q170 649 154 535Q148 482 148 357Q148 317 148 297T149 242T152 187T159 142T169 101T185 72T208 51T237 45T266 51T288 72T304 101T315 141T321
187T325 241T326 297T326 357Z" />
<glyph unicode="1" glyph-name="one" horiz-adv-x="475" d="M408 64T408 32T364 0H124Q79 0 79 32T124 64H191V595Q148 580 108 580Q67 580 67 612Q67 623 75 633T102 644Q190 648 230 696Q244 713 265 713Q283 713 292 705T302 690T303 669V64H364Q408 64 408 32Z" />
<glyph unicode="2" glyph-name="two" horiz-adv-x="475" d="M427 44Q427 18 418 9T383 0H92Q65 0 56 9T47 45Q47 65 56 75L227 290Q312 397 312 489Q312 502 310 518T299 563T267 609T210 627Q162 627 138 594T101 506Q98 494 96 491T87 487T72 499Q40 546 40
551Q40 555 45 570T64 613T96 661Q145 713 224 713Q318 713 372 648T427 490Q427 442 406 398T355 319T250 202L153 92Q160 93 173 93H295L357 94Q402 94 414 88T427 50V44Z" />
<glyph unicode="3" glyph-name="three" horiz-adv-x="475" d="M434 200Q434 91 377 36T228 -19Q193 -19 161 -9T108 15T71 45T48 72T40 89Q40 91 46 127Q48 144 50 149T60 154Q65 154 75 140Q98 107 131 88T185 65T224 61Q254 61 274 75T301 116T310 160T312 202Q312
275 291 309T217 343H183Q165 343 162 346T158 369V381Q158 401 164 405Q168 407 192 409Q213 411 223 413T247 424T270 450Q293 487 293 548Q293 566 291 579T283 607T263 630T225 638Q214 638 202 636T171 626T134 600T104 553Q99 541 92 541T70 566T54 596T60
612T80 642T113 675T163 702T229 713Q314 713 361 669T408 548Q408 489 379 446T308 376Q434 338 434 200Z" />
<glyph unicode="4" glyph-name="four" horiz-adv-x="475" d="M448 206Q448 192 445 183T433 171T420 167T404 166H368V44Q368 18 359 9T324 0H307Q280 0 272 9T263 44V166H70Q43 166 35 175T26 210V228Q26 247 33 261L230 670Q238 686 245 690T272 694H324Q350
694 359 685T368 650V247H404Q418 247 425 246T440 235T448 206ZM269 247V604Q268 588 238 517Q218 467 192 410T141 303T114 247H269Z" />
<glyph unicode="5" glyph-name="five" horiz-adv-x="475" d="M427 220Q427 105 370 42Q313 -19 211 -19Q176 -19 145 -8T95 18T61 51T40 80T33 96Q58 159 71 159Q80 159 82 150Q95 119 115 99T156 72T188 63T208 61Q231 61 248 68T276 89T292 116T301 152T304
187T305 223Q305 257 304 276T298 325T279 369T243 384Q190 384 153 324Q146 311 138 308T114 304Q94 304 84 311T73 327T71 350V648Q71 675 80 684T116 694H351Q376 694 385 686T395 651T386 617T351 608H176V433Q208 448 245 448Q290 448 326 430T383 384Q427
323 427 220Z" />
<glyph unicode="6" glyph-name="six" horiz-adv-x="475" d="M434 233Q434 170 425 130T383 47Q333 -19 240 -19Q40 -19 40 339Q40 513 96 605Q131 660 182 686T289 713Q321 713 345 703Q367 694 371 689T376 666V642Q376 616 365 616Q361 616 349 623Q325 638
292 638Q262 638 239 627T201 593T177 548T164 493T158 440T155 391Q188 474 266 474Q353 474 400 395Q434 337 434 233ZM319 233Q319 275 318 297T310 350T287 395T243 410Q157 410 157 251Q157 61 239 61Q262 61 278 72T302 97T314 139T318 183T319 233Z" />
<glyph unicode="7" glyph-name="seven" horiz-adv-x="475" d="M434 651Q434 630 425 618Q246 345 243 22Q243 -10 199 -10H170Q150 -10 140 -4T128 11T126 36Q126 342 327 602Q320 601 304 601H175L112 600Q64 600 52 606T40 644V651Q40 683 52 689T117 695H153L386
694Q401 694 407 693T421 688T431 675T434 651Z" />
<glyph unicode="8" glyph-name="eight" horiz-adv-x="475" d="M434 199Q434 94 382 38T237 -19Q145 -19 93 37T40 199Q40 337 156 375Q53 409 53 524Q53 612 100 662T237 713Q326 713 373 663T421 524Q421 408 318 375Q434 337 434 199ZM318 523Q318 549 317 563T308
597T284 628T237 638Q214 638 198 630T173 613T161 585T157 555T156 523Q156 498 157 484T166 449T190 418T237 407T283 417T308 449T316 484T318 523ZM320 201Q320 231 319 248T310 291T285 330T237 343T190 330T164 292T156 249T154 201Q154 177 154 163T159
127T172 93T196 71T237 61T277 70T302 92T314 127T319 163T320 201Z" />
<glyph unicode="9" glyph-name="nine" horiz-adv-x="475" d="M434 357Q434 305 432 269T415 176T373 77Q345 34 299 8T197 -19Q158 -19 127 -5T83 22T70 41Q98 102 109 102Q115 102 121 96Q150 61 196 61Q229 61 257 83T299 148Q306 170 310 194T315 236T319 303Q282
220 208 220Q120 220 72 304Q40 359 40 462Q40 501 42 524T55 581T90 645Q144 713 239 713Q434 713 434 357ZM318 441Q318 638 240 638Q219 638 204 631T180 609T166 580T158 542T156 503T155 461Q155 420 156 398T164 344T187 299T231 284Q261 284 281 304T307
357T316 407T318 441Z" />
<glyph unicode=":" glyph-name="colon" horiz-adv-x="264" d="M185 392Q185 373 182 370T160 366H104Q86 366 83 369T79 392V446Q79 465 82 468T105 472H160Q178 472 181 469T185 446V392ZM185 26Q185 7 182 4T160 0H105Q86 0 83 3T79 26V80Q79 99 82 102T104
106H160Q178 106 181 103T185 80V26Z" />
<glyph unicode=";" glyph-name="semicolon" horiz-adv-x="264" d="M185 392Q185 373 182 370T160 366H104Q86 366 83 369T79 392V446Q79 465 82 468T105 472H160Q178 472 181 469T185 446V392ZM185 26Q185 8 177 -9Q145 -77 135 -95Q130 -106 126 -108T106 -111Q95
-111 91 -111T83 -108T79 -99Q79 -91 107 0Q87 0 83 3T79 26V80Q79 99 82 102T104 106H160Q178 106 181 103T185 80V26Z" />
<glyph unicode="&lt;" glyph-name="less" horiz-adv-x="778" d="M694 -20Q694 -28 688 -34T674 -40Q669 -40 656 -33L102 228Q83 237 83 250T102 272L656 533Q669 540 674 540Q682 540 688 534T694 520Q694 508 675 498L150 250L675 2Q694 -8 694 -20Z" />
<glyph unicode="=" glyph-name="equal" horiz-adv-x="739" d="M685 413T685 378T640 343H98Q53 343 53 378T104 413H634Q685 413 685 378ZM685 185T685 150T634 115H104Q53 115 53 150T98 185H640Q685 185 685 150Z" />
<glyph unicode="&gt;" glyph-name="greater" horiz-adv-x="778" d="M694 263T694 250T675 228L121 -33Q108 -40 103 -40Q95 -40 89 -34T83 -20Q83 -8 102 2L627 250L102 498Q83 508 83 520Q83 528 89 534T103 540Q108 540 121 533L675 272Q694 263 694 250Z" />
<glyph unicode="?" glyph-name="question" horiz-adv-x="449" d="M395 552Q395 477 349 438Q254 359 254 244V210Q254 190 251 187T228 183H194Q176 183 173 186T169 207V250Q169 365 260 477Q270 490 273 496T280 517T284 557Q284 601 271 620T212 640Q143 640
97 587Q90 577 84 577Q79 577 76 581T65 606Q54 639 54 642Q54 649 73 663T131 690T215 704Q395 704 395 552ZM264 44Q264 18 255 9T220 0H203Q176 0 167 9T158 45V62Q158 88 167 97T202 106H220Q247 106 255 97T264 62V44Z" />
<glyph unicode="@" glyph-name="at" horiz-adv-x="633" d="M580 405T580 367T579 308T569 254T542 193Q495 120 396 120Q304 120 254 189Q213 246 213 347Q213 367 214 384T225 440T252 504T307 552T397 574Q430 574 457 565Q448 598 424 619T366 640Q254 640
195 542Q154 474 154 347Q154 329 154 315T159 269T170 211T194 155T233 104T290 69T370 54Q448 54 512 98H555Q569 98 574 97T579 87Q579 83 570 73T542 48T499 21T440 -1T367 -10Q289 -10 223 19T118 106Q53 198 53 347Q53 506 124 597Q208 704 366 704Q408 704
441 693T497 663T535 617T559 562T573 498T579 433ZM479 347Q479 389 473 422T448 483T396 510Q388 510 381 509T361 498T339 474T322 425T314 347Q314 305 320 272T345 211T397 184Q405 184 412 185T432 196T454 220T471 269T479 347Z" />
<glyph unicode="A" glyph-name="A" horiz-adv-x="636" d="M600 25Q600 0 562 0H528Q497 0 487 11T463 64L430 171H188L146 40Q142 26 138 19T122 6T89 0H73Q35 0 35 25L39 41L232 657Q244 694 289 694H346Q360 694 368 693T386 683T403 656L596 39L600 25ZM407
246L351 431Q314 554 309 588H308Q303 554 269 439L211 246H407Z" />
<glyph unicode="B" glyph-name="B" horiz-adv-x="635" d="M581 192Q581 112 527 56T351 0H126Q99 0 90 9T81 45V649Q81 676 90 685T126 694H326Q444 694 499 643T555 516Q555 457 519 418T418 363Q505 348 543 301T581 192ZM444 514Q444 550 426 574T377 606T330
617T296 619H197V393H296Q373 393 408 427T444 514ZM467 194Q467 232 452 259T419 300T373 320T333 328T305 329H197V75H321Q391 75 429 105T467 194Z" />
<glyph unicode="C" glyph-name="C" horiz-adv-x="607" d="M559 51Q559 45 556 42T537 27Q495 0 461 -9T373 -19Q224 -19 137 74Q53 165 53 347Q53 513 126 606Q209 713 371 713Q449 713 523 685Q540 678 544 675T548 665Q548 647 535 591Q532 577 523 577Q518
577 509 584Q446 627 372 627Q332 627 300 614T247 581T212 532T191 479T180 424T176 379T175 347Q175 311 178 279T194 206T227 136T286 87T375 67T457 77T525 114Q537 123 542 123Q550 123 553 111Q559 69 559 51Z" />
<glyph unicode="D" glyph-name="D" horiz-adv-x="688" d="M633 342Q633 174 554 85Q481 0 345 0H126Q99 0 90 9T81 45V649Q81 676 90 685T126 694H344Q413 694 472 667T569 587Q633 495 633 342ZM514 317T514 342T514 383T509 431T498 485T476 534T440 579T386
607T311 619H200V75H312Q354 75 387 86T440 113T476 155T498 203T509 255T513 301Z" />
<glyph unicode="E" glyph-name="E" horiz-adv-x="567" d="M526 44Q526 18 517 9T482 0H126Q99 0 90 9T81 45V646Q81 673 90 682T126 691H469Q497 691 505 681T513 646Q513 624 506 614T491 603T461 601L249 604H203V399H443Q457 399 464 398T479 387T487 358Q487
344 484 335T472 323T459 319T443 318H203V92Q221 94 335 94L476 96Q495 96 503 95T519 83T526 52V44Z" />
<glyph unicode="F" glyph-name="F" horiz-adv-x="540" d="M499 646Q499 624 492 614T477 603T448 601L243 604H203V386H416Q430 386 437 385T452 374T460 345Q460 331 457 322T445 310T432 306T416 305H203V44Q203 18 194 9T159 0H126Q99 0 90 9T81 45V646Q81
673 90 682T126 691H455Q483 691 491 681T499 646Z" />
<glyph unicode="G" glyph-name="G" horiz-adv-x="633" d="M569 58Q569 41 566 36T546 23Q463 -19 369 -19Q212 -19 128 85Q53 178 53 347Q53 523 136 619Q219 713 370 713Q463 713 535 674Q554 664 557 661T561 651Q561 633 548 577Q545 563 536 563Q531 563 523
569Q457 627 372 627Q332 627 300 614T247 581T212 532T191 479T180 424T176 379T175 347T175 316T180 271T190 216T212 163T247 114T299 81T372 67Q416 67 458 78V257H396Q376 257 373 261T369 285V310Q369 330 373 334T397 338H542Q562 338 565 334T569 310V58Z"
/>
<glyph unicode="H" glyph-name="H" horiz-adv-x="678" d="M596 44Q596 18 587 9T552 0H518Q491 0 483 9T474 44V320H203V44Q203 18 194 9T159 0H126Q99 0 90 9T81 45V649Q81 676 90 685T126 694H159Q186 694 194 685T203 650V401H474V650Q474 676 483 685T518
694H552Q579 694 587 685T596 650V44Z" />
<glyph unicode="I" glyph-name="I" horiz-adv-x="283" d="M202 44Q202 18 193 9T158 0H125Q98 0 89 9T80 45V649Q80 676 89 685T125 694H158Q185 694 193 685T202 650V44Z" />
<glyph unicode="J" glyph-name="J" horiz-adv-x="450" d="M368 147Q368 69 323 25T203 -19Q132 -19 62 15Q42 26 41 31Q40 33 40 36Q40 56 52 104Q55 116 64 116Q70 116 77 106Q116 60 175 60Q249 60 249 153V650Q249 676 258 685T293 694H324Q351 694 359 685T368
650V147Z" />
<glyph unicode="K" glyph-name="K" horiz-adv-x="663" d="M605 27Q605 14 600 8T590 1T571 0H532Q512 0 504 3T486 23L289 329L192 223V44Q192 18 183 9T148 0H126Q99 0 90 9T81 45V649Q81 676 90 685T126 694H148Q175 694 183 685T192 650V361L478 673Q497 694
530 694H567Q600 694 600 675Q600 668 588 655L361 407L605 27Z" />
<glyph unicode="L" glyph-name="L" horiz-adv-x="514" d="M473 45Q473 20 465 10T429 0H126Q99 0 90 9T81 45V649Q81 676 90 685T126 694H159Q186 694 194 685T203 650V87L431 91Q451 91 460 84T471 68T473 45Z" />
<glyph unicode="M" glyph-name="M" horiz-adv-x="836" d="M754 44Q754 18 745 9T710 0H694Q667 0 659 9T650 44V584Q649 572 615 462T575 339L479 61Q470 35 458 27T416 19Q404 19 397 19T381 23T365 35T353 58L263 322L221 454Q189 562 186 584H185V44Q185 18
176 9T141 0H126Q99 0 90 9T81 45V649Q81 676 90 685T126 694H188Q202 694 210 693T229 682T247 655L337 392L381 256Q412 157 416 126H417Q420 147 450 248L490 371L587 652Q592 667 596 674T612 687T646 694H710Q737 694 745 685T754 650V44Z" />
<glyph unicode="N" glyph-name="N" horiz-adv-x="678" d="M596 44Q596 18 587 9T552 0H479Q452 0 439 8T416 40L227 482Q196 557 186 588H185V44Q185 18 176 9T141 0H126Q99 0 90 9T81 45V649Q81 676 90 685T126 694H198Q225 694 238 686T261 654L450 212Q481
137 491 106H492V650Q492 676 501 685T536 694H552Q579 694 587 685T596 650V44Z" />
<glyph unicode="O" glyph-name="O" horiz-adv-x="697" d="M643 342Q643 165 564 72Q487 -19 348 -19Q210 -19 135 68Q53 163 53 342Q53 505 119 603Q155 656 215 684T348 713Q508 713 586 588Q643 497 643 342ZM521 358Q521 490 487 556Q442 643 348 643Q257 643
212 561Q175 496 175 358Q175 228 205 157Q230 98 270 76T348 53T426 75T491 156Q521 227 521 358Z" />
<glyph unicode="P" glyph-name="P" horiz-adv-x="608" d="M554 484Q554 427 535 385T483 320T416 288T341 278H203V44Q203 18 194 9T159 0H126Q99 0 90 9T81 45V649Q81 676 90 685T126 694H332Q441 694 497 638T554 484ZM440 483Q440 513 436 533T419 575T377
608T302 619H200V347H302Q348 347 377 358T419 392T436 434T440 483Z" />
<glyph unicode="Q" glyph-name="Q" horiz-adv-x="697" d="M643 342Q643 232 613 156Q580 71 520 32L584 -62Q598 -84 598 -90Q598 -111 565 -111H505Q482 -111 476 -106T451 -74L415 -13Q382 -19 348 -19Q210 -19 135 68Q53 163 53 342Q53 505 119 603Q155 656
215 684T348 713Q508 713 586 588Q643 497 643 342ZM524 343Q524 477 489 552Q468 595 430 619T348 643Q307 643 272 623T215 566Q172 492 172 343Q172 215 203 149Q248 51 348 51Q372 51 372 55L346 99L322 138Q305 165 305 173Q305 194 339 194H385Q401 194 406
193T417 182L467 107Q524 173 524 343Z" />
<glyph unicode="R" glyph-name="R" horiz-adv-x="614" d="M573 22Q573 0 538 0H496Q475 0 468 4T453 24L305 315H200V44Q200 18 191 9T156 0H126Q99 0 90 9T81 45V649Q81 676 90 685T126 694H325Q441 694 500 641T560 500Q560 365 417 324L567 37Q573 25 573 22ZM446
499Q446 556 419 587T311 619H200V379H310Q391 379 418 411T446 499Z" />
<glyph unicode="S" glyph-name="S" horiz-adv-x="528" d="M474 195Q474 99 421 40T263 -19Q161 -19 71 36Q50 49 46 52T42 63Q42 81 55 137Q58 151 67 151Q72 151 83 141Q162 74 262 74Q322 74 345 106T369 184Q369 224 349 251T302 290Q299 291 288 294T261 301T237
308Q188 320 162 332T104 378Q97 385 88 397T66 442T53 512Q53 600 104 656T265 713Q350 713 418 673Q435 663 438 660T442 651Q442 633 429 577Q426 563 417 563Q412 563 405 570Q345 626 266 626Q216 626 187 602T158 527Q158 488 191 452Q203 440 218 435T282
416Q317 407 334 402T376 381T420 343Q474 279 474 195Z" />
<glyph unicode="T" glyph-name="T" horiz-adv-x="644" d="M609 643Q609 615 600 607T563 598L383 601V44Q383 18 374 9T339 0H306Q279 0 270 9T261 45V601L81 598Q53 598 44 606T34 643Q34 670 43 679T79 688H565Q593 688 601 678T609 643Z" />
<glyph unicode="U" glyph-name="U" horiz-adv-x="657" d="M575 228Q575 119 513 50T330 -19T145 49T81 228V649Q81 676 90 685T126 694H159Q186 694 194 685T203 650V227Q203 56 331 56Q464 56 464 228V650Q464 676 473 685T508 694H531Q558 694 566 685T575 650V228Z" />
<glyph unicode="V" glyph-name="V" horiz-adv-x="636" d="M612 669Q612 664 607 650L406 39Q400 21 389 12T369 2T348 0H287Q273 0 265 1T246 12T229 40L28 650Q23 664 23 669Q23 694 60 694H94Q108 694 116 693T135 682T152 655L267 303Q276 278 298 200Q320
131 324 106H325Q335 162 395 341L498 654Q506 680 518 687T556 694H575Q612 694 612 669Z" />
<glyph unicode="W" glyph-name="W" horiz-adv-x="900" d="M879 668Q879 664 876 654L728 39Q724 21 714 12T696 2T674 0H626Q615 0 609 1T595 5T581 17T571 41L494 365Q455 526 447 587H446Q442 552 424 469T400 368L323 43Q319 28 314 19T300 6T285 1T268 0H225Q211
0 204 1T186 12T171 39L23 654L20 668Q20 694 59 694H80Q93 694 101 693T119 683T134 656L217 304Q251 158 255 109H256Q261 162 309 366L377 654Q381 673 391 682T410 692T432 694H475Q488 694 496 693T514 682T529 655L608 322Q646 159 653 107H654Q661 164 700
327L778 656Q782 674 792 683T811 693T836 694Q879 694 879 668Z" />
<glyph unicode="X" glyph-name="X" horiz-adv-x="636" d="M603 27Q603 14 599 8T589 1T570 0H514Q494 0 487 3T469 22L311 274L158 22Q152 11 145 7T132 1T113 0H65Q54 0 49 0T37 6T31 21Q31 28 39 40L252 367L54 654Q45 667 45 674Q45 694 79 694H135Q155 694
162 691T179 673L311 471L439 676Q450 694 482 694H531Q565 694 565 673Q565 669 557 656L370 367L603 27Z" />
<glyph unicode="Y" glyph-name="Y" horiz-adv-x="636" d="M616 673Q616 668 607 653L377 277V43Q377 16 367 8T333 0H302Q276 0 267 9T258 44V278L25 657Q19 666 19 673Q19 694 54 694H95Q143 694 165 658L278 469Q314 408 326 380Q332 400 374 472T454 606T495
671Q515 694 556 694H581Q616 694 616 673Z" />
<glyph unicode="Z" glyph-name="Z" horiz-adv-x="581" d="M533 45Q533 20 525 10T489 0H97Q70 0 62 10T53 45Q53 66 62 80L386 613H350L120 610Q98 610 89 611T73 622T66 652Q66 671 73 681T88 692T111 694H483Q507 694 517 686T527 651Q527 632 518 618L195 87L483
91Q512 91 522 84T533 45Z" />
<glyph unicode="[" glyph-name="bracketleft" horiz-adv-x="293" d="M271 -158T271 -190T227 -222H122Q95 -222 87 -213T78 -178V706Q78 732 87 741T122 750H227Q271 750 271 718T227 686H183V-158H227Q271 -158 271 -190Z" />
<glyph unicode="\" glyph-name="backslash" horiz-adv-x="500" d="M443 -230Q443 -238 437 -244T423 -250Q409 -250 401 -228L61 712L56 730Q56 738 62 744T76 750Q90 750 98 728L438 -212L443 -230Z" />
<glyph unicode="]" glyph-name="bracketright" horiz-adv-x="293" d="M214 -178Q214 -204 205 -213T170 -222H65Q21 -222 21 -190T65 -158H109V686H65Q21 686 21 718T65 750H170Q197 750 205 741T214 706V-178Z" />
<glyph unicode="^" glyph-name="asciicircum" horiz-adv-x="556" d="M561 584L549 562L277 685L6 562L-5 584L278 744L561 584Z" />
<glyph unicode="_" glyph-name="underscore" horiz-adv-x="636" d="M636 -181H0V-69H636V-181Z" />
<glyph unicode="`" glyph-name="grave" horiz-adv-x="475" d="M304 557Q304 546 279 546H248L113 668Q103 677 103 683Q103 691 108 692T127 694H188Q202 694 206 693T216 683L296 572L304 557Z" />
<glyph unicode="a" glyph-name="a" horiz-adv-x="453" d="M398 44Q398 18 389 9T354 0H334Q307 0 299 9T290 44V69Q274 40 240 15T157 -10Q100 -10 63 33T26 132Q26 167 40 194T82 238T134 266T193 282T242 288T276 291Q284 292 285 294T287 310V330Q287 364 281
386T261 416T240 426T220 428Q146 428 95 378Q84 368 79 368Q72 368 70 373T66 397Q63 421 63 433Q63 441 67 444T87 456Q151 487 224 487Q312 487 355 446T398 331V44ZM287 155V256Q269 255 252 252T212 241T172 221T143 186T131 134Q131 101 150 78T198 54Q208
54 220 57T248 70T276 101T287 155Z" />
<glyph unicode="b" glyph-name="b" horiz-adv-x="483" d="M450 237Q450 128 410 68Q358 -10 262 -10Q203 -10 167 35Q167 19 159 11T143 1T123 0H101Q74 0 65 9T56 45V649Q56 676 65 685T101 694H120Q147 694 155 685T164 650V427Q210 482 281 482Q332 482 367
458T419 394T443 316T450 237ZM339 238Q339 260 339 273T336 311T327 351T311 384T285 409T245 418Q218 418 193 403Q175 390 171 383T167 361V94Q192 54 235 54Q265 54 286 68T317 99T332 147T338 193T339 238Z" />
<glyph unicode="c" glyph-name="c" horiz-adv-x="422" d="M395 62Q395 53 380 40T350 19L335 11Q291 -10 238 -10Q138 -10 85 54Q32 119 32 237Q32 357 85 422T242 487Q287 487 313 479T372 452Q388 439 389 434Q389 432 382 397Q379 379 377 374T368 369Q363
369 354 378Q327 399 304 408T243 417Q209 417 188 401T157 354T146 298T143 238Q143 214 143 199T149 154T163 107T192 75T240 60Q309 60 366 117Q373 126 379 126Q386 126 388 121T392 98Q395 74 395 62Z" />
<glyph unicode="d" glyph-name="d" horiz-adv-x="483" d="M426 44Q426 18 417 9T382 0H359Q332 0 324 9T315 44Q311 38 301 28T265 4T208 -10Q116 -10 67 71Q32 130 32 236Q32 349 75 412Q123 482 213 482Q277 482 318 433V650Q318 676 327 685T362 694H382Q409
694 417 685T426 650V44ZM315 101V384Q281 418 247 418Q217 418 196 404T165 373T150 325T144 279T143 235Q143 213 143 200T146 161T155 121T171 88T197 63T237 54Q285 54 315 101Z" />
<glyph unicode="e" glyph-name="e" horiz-adv-x="438" d="M411 275Q411 249 402 241T367 232H129Q129 219 129 208T133 173T144 131T164 94T197 65T247 54Q324 54 376 116Q384 125 389 125Q396 125 397 122T401 105Q402 102 402 101Q405 74 405 65Q405 42 342
12Q293 -10 243 -10Q212 -10 183 -3T125 22T74 67T40 138T26 239Q26 309 45 360T96 438T161 475T231 487Q318 487 364 433T411 275ZM325 279Q324 301 323 314T317 351T302 387T275 412T232 423Q184 423 159 382T130 279H325Z" />
<glyph unicode="f" glyph-name="f" horiz-adv-x="290" d="M329 640Q329 615 318 615Q313 615 305 621Q279 640 244 640Q227 640 215 635T196 624T187 608T184 591T183 574V472H227Q271 472 271 440T227 408H186V44Q186 18 177 9T142 0H123Q96 0 87 9T78 45V408Q61
408 53 409T35 417T25 440T34 462T53 471T78 472V549Q78 622 120 663T244 704Q274 704 300 699Q321 694 325 690T329 668V640Z" />
<glyph unicode="g" glyph-name="g" horiz-adv-x="483" d="M426 27Q426 -65 380 -126T233 -187Q151 -187 82 -154Q71 -148 69 -144T66 -124V-101Q66 -75 77 -75Q82 -75 90 -82Q156 -123 231 -123Q315 -123 315 0V93H314Q286 21 214 21Q124 21 75 84Q32 140 32 238Q32
346 76 409Q126 482 221 482Q282 482 318 424Q318 459 324 470T362 482H382Q409 482 417 473T426 438V27ZM318 272V335Q318 368 298 393T247 418T195 401T163 356T148 299T143 238Q143 219 145 202T154 153T183 104T236 85Q314 85 315 248Q315 262 318 272Z" />
<glyph unicode="h" glyph-name="h" horiz-adv-x="483" d="M428 44Q428 18 419 9T384 0H361Q334 0 326 9T317 44V338Q317 381 306 399T263 418Q224 418 195 383T165 283V44Q165 18 156 9T121 0H99Q72 0 63 9T54 45V649Q54 676 63 685T99 694H118Q145 694 153 685T162
650V387H163Q207 482 300 482Q372 482 400 446T428 342V44Z" />
<glyph unicode="i" glyph-name="i" horiz-adv-x="219" d="M163 44Q163 18 154 9T119 0H100Q73 0 64 9T55 45V427Q55 454 64 463T100 472H119Q146 472 154 463T163 428V44ZM171 608Q171 580 162 571T126 561H93Q66 561 57 571T48 608V632Q48 661 57 670T93 679H126Q153
679 162 670T171 632V608Z" />
<glyph unicode="j" glyph-name="j" horiz-adv-x="246" d="M190 -25Q190 -100 156 -138T62 -177Q24 -177 -19 -163T-62 -136Q-62 -134 -58 -122T-54 -107Q-49 -92 -47 -88T-38 -84Q-37 -84 -25 -90Q-1 -104 27 -104Q52 -104 65 -92T80 -70T82 -42V428Q82 454 91
463T126 472H146Q173 472 181 463T190 428V-25ZM190 608Q190 580 181 571T145 561H112Q85 561 76 571T67 608V632Q67 661 76 670T112 679H145Q172 679 181 670T190 632V608Z" />
<glyph unicode="k" glyph-name="k" horiz-adv-x="457" d="M424 21Q424 0 390 0H362Q331 0 321 15L198 213L156 169V44Q156 18 147 9T112 0H106Q79 0 70 9T61 45V649Q61 676 70 685T106 694H115Q142 694 150 685T159 650V305L293 452Q302 462 310 466T325 471T344
472H377Q410 472 410 453Q410 446 398 433L262 285L417 37Q424 27 424 21Z" />
<glyph unicode="l" glyph-name="l" horiz-adv-x="219" d="M163 44Q163 18 154 9T119 0H100Q73 0 64 9T55 45V649Q55 676 64 685T100 694H119Q146 694 154 685T163 650V44Z" />
<glyph unicode="m" glyph-name="m" horiz-adv-x="747" d="M693 44Q693 18 684 9T649 0H627Q600 0 591 9T582 45V338Q582 381 571 399T528 418Q488 418 459 383T429 283V44Q429 18 420 9T385 0H363Q336 0 327 9T318 45V338Q318 381 307 399T264 418Q224 418 195
383T165 283V44Q165 18 156 9T121 0H99Q72 0 63 9T54 45V433Q54 460 63 469T99 478H115Q142 478 150 469T159 434V381L160 380Q203 482 300 482Q412 482 426 385Q472 482 564 482Q635 482 664 447T693 342V44Z" />
<glyph unicode="n" glyph-name="n" horiz-adv-x="483" d="M428 44Q428 18 419 9T384 0H361Q334 0 326 9T317 44V338Q317 381 306 399T263 418Q224 418 195 383T165 283V44Q165 18 156 9T121 0H99Q72 0 63 9T54 45V433Q54 460 63 469T99 478H115Q142 478 150 469T159
434V380H160Q206 482 300 482Q372 482 400 446T428 342V44Z" />
<glyph unicode="o" glyph-name="o" horiz-adv-x="475" d="M448 232Q448 114 392 52Q337 -10 237 -10Q133 -10 79 54Q26 119 26 232Q26 348 77 415Q130 487 237 487Q341 487 396 417Q448 352 448 232ZM337 244Q337 267 337 280T334 319T325 359T308 390T279 415T237
423Q208 423 188 410T159 381T144 335T138 290T137 244T137 198T143 152T158 105T188 74T237 60T286 73T315 104T330 151T336 198T337 244Z" />
<glyph unicode="p" glyph-name="p" horiz-adv-x="483" d="M450 238Q450 131 409 66Q385 30 346 10T263 -10Q209 -10 167 35V-123Q167 -149 158 -158T123 -167H101Q74 -167 65 -158T56 -122V427Q56 454 65 463T101 472H120Q141 472 151 465T162 450T164 424Q217
482 288 482Q336 482 369 459T419 397T443 320T450 238ZM339 214T339 236T337 278T328 333T299 390T244 412Q199 412 167 375V93Q193 54 235 54Q271 54 294 76T326 136T337 194Z" />
<glyph unicode="q" glyph-name="q" horiz-adv-x="483" d="M426 -123Q426 -149 417 -158T382 -167H359Q332 -167 324 -158T315 -123V43Q274 -10 211 -10Q158 -10 121 13T65 76T40 154T32 235Q32 337 69 400Q118 482 217 482Q282 482 318 420V438Q318 464 327 473T362
482H382Q409 482 417 473T426 438V-123ZM318 109V330Q318 362 298 387T246 412Q210 412 187 390T156 332T145 276T143 234Q143 184 151 146T181 81T238 54Q290 54 318 109Z" />
<glyph unicode="r" glyph-name="r" horiz-adv-x="321" d="M307 427Q307 409 305 406T289 401Q235 396 200 355T164 246V44Q164 18 155 9T120 0H101Q74 0 65 9T56 45V433Q56 460 65 469T101 478H115Q142 478 150 469T159 434V368H160Q180 426 216 454T291 482Q299
482 302 480T306 473T307 456V427Z" />
<glyph unicode="s" glyph-name="s" horiz-adv-x="364" d="M342 140Q342 -10 188 -10Q138 -10 91 7Q26 31 26 50Q26 53 31 79T37 109Q37 121 48 121Q54 121 64 111Q116 59 186 59T256 124Q256 144 250 157T229 179T204 190T174 198Q32 227 32 346Q32 487 187 487Q253
487 305 460Q320 453 323 450T326 441Q326 425 319 404Q316 386 314 382T305 377Q300 377 294 382Q245 425 181 425Q118 425 118 366Q118 348 123 336T143 316T167 305T199 297Q224 292 237 288T270 273T305 243Q342 200 342 140Z" />
<glyph unicode="t" glyph-name="t" horiz-adv-x="346" d="M318 50Q318 42 298 29T241 3T167 -10Q79 -10 79 121V408H62Q18 408 18 440T63 472H82V562Q82 589 91 598T127 607H140Q167 607 175 598T184 563V472H258Q302 472 302 440T258 408H184V139Q184 60 218
60Q257 60 281 88Q289 100 296 100Q302 100 304 96T311 79Q311 78 314 65T318 50Z" />
<glyph unicode="u" glyph-name="u" horiz-adv-x="483" d="M428 44Q428 18 419 9T384 0H364Q337 0 329 9T320 44V75Q282 -10 200 -10Q125 -10 90 22T54 129V427Q54 454 63 463T99 472H121Q148 472 156 463T165 428V122Q165 75 176 59T225 43Q271 43 294 84T317
181V428Q317 454 326 463T361 472H384Q411 472 419 463T428 428V44Z" />
<glyph unicode="v" glyph-name="v" horiz-adv-x="431" d="M409 447Q409 444 406 432L295 39Q290 21 280 12T261 2T239 0H191Q177 0 169 1T151 12T135 39L21 447Q24 464 33 468T59 472H71Q98 472 108 463T126 432L216 111L306 431Q314 457 326 464T362 472H371Q409
472 409 447Z" />
<glyph unicode="w" glyph-name="w" horiz-adv-x="642" d="M621 446Q621 445 618 430L525 39Q521 21 511 12T492 2T471 0H423Q385 0 373 24Q371 29 356 92T325 236T305 354Q305 321 289 239T256 92T238 23Q226 0 189 0H170Q157 0 149 1T131 12T116 39L24 428L20
446Q20 472 59 472H70Q91 472 102 466T117 452T124 429L182 183Q191 145 195 115H196Q199 136 215 207L267 427Q271 443 274 450T288 465T318 472Q359 472 368 433L444 113L520 433Q524 451 534 460T553 470T578 472Q621 472 621 446Z" />
<glyph unicode="x" glyph-name="x" horiz-adv-x="431" d="M411 20Q411 0 377 0H353Q333 0 325 4T308 22L212 178L121 23Q115 12 108 7T95 1T76 0H52Q19 0 19 20Q19 29 27 40L169 244L33 433Q25 445 25 452Q25 472 58 472H82Q104 472 111 468T127 451L212 326L293
450Q303 464 310 468T338 472H362Q395 472 395 451Q395 444 387 433L255 244L403 38Q411 27 411 20Z" />
<glyph unicode="y" glyph-name="y" horiz-adv-x="431" d="M408 447Q408 443 403 428L260 -51Q243 -106 203 -141T107 -177Q53 -177 40 -167Q37 -164 34 -139T31 -103Q31 -89 43 -89Q45 -90 50 -92Q80 -106 108 -106Q149 -106 168 -72Q173 -64 182 -36T192 -1Q192
2 188 14L29 430L24 448Q24 472 61 472H73Q106 472 117 460T146 399Q226 188 229 118Q234 179 270 303L307 432Q312 451 321 460T339 470T366 472Q380 472 387 471T401 465T408 447Z" />
<glyph unicode="z" glyph-name="z" horiz-adv-x="411" d="M381 33Q381 0 337 0H70Q57 0 50 1T34 11T26 38Q26 53 36 68L260 407H222L92 405Q76 405 67 406T49 415T40 438Q40 472 85 472H335Q348 472 355 471T371 461T379 434Q379 419 369 404L145 65H191L328 67Q345
67 354 66T372 57T381 33Z" />
<glyph unicode="{" glyph-name="braceleft" horiz-adv-x="500" d="M427 -239Q427 -250 407 -250Q322 -250 268 -212Q233 -187 225 -161T216 -83V115Q216 150 203 175T168 213T127 232T88 239Q83 240 81 240T77 241T73 244T72 250Q72 261 86 261Q149 265 190 306Q209
326 212 348T216 444V627Q217 680 273 715T407 750Q427 750 427 739Q427 730 418 728Q386 726 362 718T329 702T307 682Q290 664 287 643T283 563V383Q283 284 165 250Q266 221 281 147Q283 137 283 56V-94Q283 -131 286 -142Q294 -174 325 -199T411 -228Q416 -229
418 -229T422 -230T426 -233T427 -239Z" />
<glyph unicode="|" glyph-name="bar" horiz-adv-x="278" d="M159 -217Q159 -250 139 -250T119 -217V717Q119 750 139 750T159 717V-217Z" />
<glyph unicode="}" glyph-name="braceright" horiz-adv-x="500" d="M427 250Q427 239 413 239Q350 235 309 194Q290 174 287 152T283 56V-127Q282 -180 226 -215T92 -250Q72 -250 72 -239Q72 -230 81 -228Q113 -226 137 -218T170 -202T192 -182Q209 -164 212 -143T216
-63V117Q216 216 334 250Q233 279 218 353Q216 363 216 444V594Q216 631 213 642Q205 674 174 699T88 728Q83 729 81 729T77 730T73 733T72 739Q72 750 92 750Q175 750 231 712Q266 687 274 661T283 583V385Q283 350 296 325T331 287T372 268T411 261Q416 260 418
260T422 259T426 256T427 250Z" />
<glyph unicode="~" glyph-name="asciitilde" horiz-adv-x="556" d="M555 304L501 260Q481 243 444 225Q404 207 371 207Q329 207 271 241Q206 278 167 278Q99 278 14 207L0 224L54 268Q74 285 111 303Q151 321 184 321Q226 321 284 287Q349 250 388 250Q456 250
541 321L555 304Z" />
<glyph unicode="&#xa0;" glyph-name="uni00A0" horiz-adv-x="475" />
<glyph unicode="&#xa1;" glyph-name="exclamdown" horiz-adv-x="306" d="M206 466Q206 440 197 431T162 422H144Q117 422 109 431T100 466V483Q100 510 109 519T145 528H162Q189 528 197 519T206 484V466ZM206 -144Q206 -161 203 -164T181 -167H126Q108 -167 104
-164T100 -144L105 99L110 334Q111 345 136 345H170Q190 345 194 339Q195 336 196 294T199 202T200 147L206 -144Z" />
<glyph unicode="&#xa2;" glyph-name="cent" horiz-adv-x="422" d="M395 62Q395 53 380 40T350 19L335 11Q309 -1 275 -7V-65Q275 -73 269 -79T254 -86H211Q202 -86 196 -80T189 -65V-5Q123 9 85 54Q32 119 32 237Q32 340 72 403T189 482V537Q189 546 195 552T211
558H254Q263 558 269 552T275 537V486Q324 481 372 452Q388 439 389 434Q389 432 382 397Q379 379 377 374T368 369Q363 369 354 378Q313 409 275 415V64Q322 73 366 117Q373 126 379 126Q386 126 388 121T392 98Q395 74 395 62ZM189 76V401Q143 366 143 238Q143
112 189 76Z" />
<glyph unicode="&#xa3;" glyph-name="sterling" horiz-adv-x="636" d="M572 157Q572 85 529 33T421 -19Q383 -19 325 -4Q284 6 260 11T205 16T164 3Q147 -19 120 -19Q97 -19 81 -3T64 37Q64 57 75 71Q144 159 165 268Q168 280 172 304H96Q83 304 74 313T64 336V358Q64
372 73 381T96 390H176V474Q178 563 223 628T342 694Q417 694 463 628T509 471Q509 448 493 432T453 415T414 431T397 471Q397 582 342 582Q290 582 288 471V390H350Q363 390 372 381T382 358V336Q382 323 373 314T350 304H284Q281 276 275 245Q263 185 237 126Q283
122 353 104Q393 93 421 93Q440 93 450 112T460 157Q460 180 476 196T516 213T555 197T572 157Z" />
<glyph unicode="&#xa5;" glyph-name="yen" horiz-adv-x="636" d="M616 673Q616 668 607 653L442 383H498Q511 383 520 374T530 351V329Q530 316 521 307T498 297H389L377 277V242H498Q512 242 521 233T530 210V188Q530 174 521 165T498 156H377V43Q377 16 367
8T333 0H302Q276 0 267 9T258 44V156H138Q124 156 115 165T106 188V210Q106 224 115 233T138 242H258V278L246 297H138Q124 297 115 306T106 329V351Q106 364 115 373T138 383H193L25 657Q19 666 19 673Q19 694 54 694H95Q143 694 165 658L278 469Q311 414 325
383H327Q335 406 377 477T455 608T495 671Q515 694 556 694H581Q616 694 616 673Z" />
<glyph unicode="&#xa7;" glyph-name="section" horiz-adv-x="491" d="M458 212Q458 131 412 58Q445 13 445 -33Q445 -107 386 -157T246 -207T106 -157T47 -33H159Q159 -65 184 -86T246 -107T307 -86T333 -33Q333 -19 319 -4T293 20T256 43L167 94Q108 129 71 179T34
288Q34 369 80 442Q47 485 47 533Q47 607 106 657T246 707T386 657T445 533H333Q333 565 308 586T246 607T185 586T159 533Q159 519 173 504T199 480T236 457L325 406Q384 371 421 321T458 212ZM346 212Q346 264 269 309L180 360L161 372Q146 335 146 288Q146 236
223 191L312 140L331 128Q346 163 346 212Z" />
<glyph unicode="&#xa8;" glyph-name="dieresis" horiz-adv-x="475" d="M192 609Q192 584 184 576T151 567H121Q97 567 89 576T81 609V631Q81 657 89 665T121 673H151Q175 673 183 665T192 631V609ZM395 609Q395 584 387 576T354 567H324Q300 567 292 576T284 609V631Q284
657 292 665T324 673H354Q378 673 386 665T395 631V609Z" />
<glyph unicode="&#xa9;" glyph-name="copyright" horiz-adv-x="694" d="M694 491T694 347T593 102T347 0T102 101T0 347T101 592T347 694T592 593ZM630 347Q630 465 548 547T347 630Q230 630 147 548T64 347Q64 230 147 147T347 64Q465 64 547 147T630 347ZM482
166Q482 162 468 152Q425 124 368 124Q277 124 224 181Q173 237 173 347Q173 449 217 505Q269 571 367 571Q412 571 460 554Q466 551 468 550T472 548T474 545T475 541Q475 528 467 496Q464 488 460 488Q457 488 451 492Q413 518 368 518Q334 518 309 503T273 468T255
420T248 377T247 347Q247 319 251 294T266 240T304 193T369 176Q421 176 461 205Q468 210 471 210Q476 210 478 203Q482 187 482 166Z" />
<glyph unicode="&#xaa;" glyph-name="ordfeminine" horiz-adv-x="356" d="M334 403Q334 385 327 379T297 373H281Q258 373 251 379T244 403V421Q230 401 201 384T132 366Q84 366 53 396T22 465Q22 490 34 509T69 540T113 559T162 570T203 574T232 576Q238 577
239 579T241 590V604Q241 628 236 643T220 663T202 670T185 672Q122 672 80 637Q70 630 66 630Q60 630 59 633T55 650Q55 653 54 663T53 676Q53 680 55 682T60 686T73 692Q126 713 188 713Q262 713 298 684T334 604V403ZM291 305Q291 293 279 284T248 275H108Q90
275 78 284T65 305Q65 318 77 327T108 336H248Q266 336 278 327T291 305ZM241 481V552Q221 551 203 548T161 536T124 509T110 466Q110 444 126 427T166 410Q178 410 192 413T224 434T241 481Z" />
<glyph unicode="&#xab;" glyph-name="guillemotleft" horiz-adv-x="475" d="M232 13Q234 0 221 0H179Q171 0 169 7L75 260Q74 264 75 268L169 521Q171 528 179 528H221Q234 528 232 515L186 264L232 13ZM422 13Q424 0 411 0H369Q361 0 359 7L265 260Q264 264 265
268L359 521Q361 528 369 528H411Q424 528 422 515L376 264L422 13Z" />
<glyph unicode="&#xac;" glyph-name="logicalnot" horiz-adv-x="739" d="M685 150Q685 136 675 126T650 115T626 125T615 150V343H88Q74 343 64 353T53 378T63 402T88 413H650Q664 413 674 403T685 378V150Z" />
<glyph unicode="&#xae;" glyph-name="registered" horiz-adv-x="694" d="M694 491T694 347T593 102T347 0T102 101T0 347T101 592T347 694T592 593ZM630 347Q630 465 548 547T347 630Q230 630 147 548T64 347Q64 230 147 147T347 64Q465 64 547 147T630 347ZM512
149Q512 135 491 135H465Q453 135 449 137T439 150L349 328H285V162Q285 146 280 141T258 135H239Q223 135 218 141T212 163V532Q212 548 217 553T239 559H361Q432 559 468 527T504 441Q504 358 417 333L509 158Q512 152 512 149ZM435 440Q435 475 418 494T352
513H285V367H352Q402 367 418 386T435 440Z" />
<glyph unicode="&#xaf;" glyph-name="overscore" horiz-adv-x="475" d="M409 610Q409 591 406 588T384 584H93Q74 584 71 587T67 610V631Q67 650 70 653T92 657H384Q402 657 405 654T409 631V610Z" />
<glyph unicode="&#xb0;" glyph-name="degree" horiz-adv-x="356" d="M310 563Q310 508 272 470T178 431T85 469T46 563Q46 617 84 655T178 694T271 656T310 563ZM240 563Q240 588 222 606T178 624T134 606T116 563Q116 537 134 519T178 501T222 519T240 563Z" />
<glyph unicode="&#xb1;" glyph-name="plusminus" horiz-adv-x="739" d="M685 70T685 35T638 0H100Q53 0 53 35T100 70H334V282H100Q53 282 53 317T100 352H334V587Q334 634 369 634T404 587V352H638Q685 352 685 317T638 282H404V70H638Q685 70 685 35Z" />
<glyph unicode="&#xb4;" glyph-name="acute" horiz-adv-x="475" d="M372 683Q372 677 362 668L227 546H196Q171 546 171 557Q171 561 179 572L259 683Q265 691 269 692T287 694H348Q362 694 367 693T372 683Z" />
<glyph unicode="&#xb5;" glyph-name="mu" horiz-adv-x="483" d="M428 44Q428 18 419 9T384 0H364Q337 0 329 9T320 44V75Q282 -10 200 -10Q183 -10 165 0V-123Q165 -149 156 -158T121 -167H99Q72 -167 63 -158T54 -122V427Q54 454 63 463T99 472H121Q148 472 156
463T165 428V122Q165 75 176 59T225 43Q271 43 294 84T317 181V428Q317 454 326 463T361 472H384Q411 472 419 463T428 428V44Z" />
<glyph unicode="&#xb6;" glyph-name="paragraph" horiz-adv-x="703" d="M670 663Q670 633 625 633H574V-150Q574 -194 543 -194Q513 -194 513 -150V633H433V-150Q433 -194 402 -194Q372 -194 372 -150V220Q234 228 149 292T64 457Q64 559 149 626T351 694H625Q670
694 670 663Z" />
<glyph unicode="&#xb7;" glyph-name="middot" horiz-adv-x="739" d="M422 320Q422 301 419 298T397 294H342Q323 294 320 297T316 320V374Q316 393 319 396T341 400H397Q415 400 418 397T422 374V320Z" />
<glyph unicode="&#xb8;" glyph-name="cedilla" horiz-adv-x="422" d="M268 -32Q268 -38 264 -46L218 -150Q213 -161 209 -163T189 -165H153Q128 -165 128 -154Q128 -150 134 -140L202 -34Q208 -25 212 -23T230 -21H243Q268 -21 268 -32Z" />
<glyph unicode="&#xba;" glyph-name="ordmasculine" horiz-adv-x="398" d="M376 535Q376 452 329 409Q284 366 199 366Q110 366 66 410Q22 456 22 535Q22 616 65 663Q108 713 199 713Q288 713 333 664Q376 619 376 535ZM333 305Q333 293 321 284T290 275H108Q90
275 78 284T65 305Q65 318 77 327T108 336H290Q308 336 320 327T333 305ZM283 523T283 543T283 575T278 607T265 638T240 659T199 669T158 660T133 639T121 607T116 575T115 543T115 511T120 479T133 446T158 425T199 415T240 424T265 446T277 478T282 511Z" />
<glyph unicode="&#xbb;" glyph-name="guillemotright" horiz-adv-x="475" d="M400 260L306 7Q304 0 296 0H254Q241 0 243 13L289 264L243 515Q241 528 254 528H296Q304 528 306 521L400 268Q401 264 400 260ZM210 260L116 7Q114 0 106 0H64Q51 0 53 13L99 264L53
515Q51 528 64 528H106Q114 528 116 521L210 268Q211 264 210 260Z" />
<glyph unicode="&#xbf;" glyph-name="questiondown" horiz-adv-x="449" d="M264 466Q264 440 255 431T220 422H202Q175 422 167 431T158 466V483Q158 510 167 519T203 528H220Q247 528 255 519T264 484V466ZM395 -115Q395 -123 370 -137T301 -164T211 -177Q53
-177 53 -25Q53 49 92 89Q136 133 152 185T169 306V321Q169 338 172 341T194 345H228Q247 345 250 340T254 309Q254 272 252 247T233 166T183 54Q171 35 168 21T164 -30Q164 -78 173 -95T214 -113Q289 -113 349 -60Q359 -50 364 -50T372 -54T383 -79Q384 -83 387
-92T393 -108T395 -115Z" />
<glyph unicode="&#xc0;" glyph-name="Agrave" horiz-adv-x="636" d="M600 25Q600 0 562 0H528Q497 0 487 11T463 64L430 171H188L146 40Q142 26 138 19T122 6T89 0H73Q35 0 35 25L39 41L232 657Q244 694 289 694H346Q360 694 368 693T386 683T403 656L596 39L600
25ZM407 246L351 431Q314 554 309 588H308Q303 554 269 439L211 246H407ZM404 771Q411 765 409 759T397 753H330L143 852Q135 856 136 865T151 874H278L404 771Z" />
<glyph unicode="&#xc1;" glyph-name="Aacute" horiz-adv-x="636" d="M600 25Q600 0 562 0H528Q497 0 487 11T463 64L430 171H188L146 40Q142 26 138 19T122 6T89 0H73Q35 0 35 25L39 41L232 657Q244 694 289 694H346Q360 694 368 693T386 683T403 656L596 39L600
25ZM407 246L351 431Q314 554 309 588H308Q303 554 269 439L211 246H407ZM494 852L307 753H240Q231 753 229 759T233 771L359 874H486Q499 874 500 865T494 852Z" />
<glyph unicode="&#xc2;" glyph-name="Acircumflex" horiz-adv-x="636" d="M600 25Q600 0 562 0H528Q497 0 487 11T463 64L430 171H188L146 40Q142 26 138 19T122 6T89 0H73Q35 0 35 25L39 41L232 657Q244 694 289 694H346Q360 694 368 693T386 683T403 656L596
39L600 25ZM407 246L351 431Q314 554 309 588H308Q303 554 269 439L211 246H407ZM491 765Q497 760 494 752T483 743H436L431 744L319 825L207 744L202 743H155Q147 743 144 750T147 763L257 867Q260 870 265 870H376Q381 870 384 867L491 765Z" />
<glyph unicode="&#xc3;" glyph-name="Atilde" horiz-adv-x="636" d="M600 25Q600 0 562 0H528Q497 0 487 11T463 64L430 171H188L146 40Q142 26 138 19T122 6T89 0H73Q35 0 35 25L39 41L232 657Q244 694 289 694H346Q360 694 368 693T386 683T403 656L596 39L600
25ZM407 246L351 431Q314 554 309 588H308Q303 554 269 439L211 246H407ZM477 845Q477 810 451 777T382 743Q343 743 302 775Q272 798 257 798Q230 798 225 758Q224 747 220 745T200 743H187Q170 743 166 745T161 760Q161 795 187 828T256 862Q295 862 336 830Q366
807 381 807Q408 807 413 847Q414 858 418 860T438 862H452Q468 862 472 860T477 845Z" />
<glyph unicode="&#xc4;" glyph-name="Adieresis" horiz-adv-x="636" d="M600 25Q600 0 562 0H528Q497 0 487 11T463 64L430 171H188L146 40Q142 26 138 19T122 6T89 0H73Q35 0 35 25L39 41L232 657Q244 694 289 694H346Q360 694 368 693T386 683T403 656L596 39L600
25ZM407 246L351 431Q314 554 309 588H308Q303 554 269 439L211 246H407ZM254 785Q254 760 246 752T213 743H183Q159 743 151 752T143 785V807Q143 833 151 841T183 849H213Q237 849 245 841T254 807V785ZM495 785Q495 760 487 752T454 743H424Q400 743 392 752T384
785V807Q384 833 392 841T424 849H454Q478 849 486 841T495 807V785Z" />
<glyph unicode="&#xc5;" glyph-name="Aring" horiz-adv-x="636" d="M600 25Q600 0 562 0H528Q497 0 487 11T463 64L430 171H188L146 40Q142 26 138 19T122 6T89 0H73Q35 0 35 25L39 41L232 657Q244 694 289 694H346Q360 694 368 693T386 683T403 656L596 39L600
25ZM407 246L351 431Q314 554 309 588H308Q303 554 269 439L211 246H407ZM365 753T365 768T357 790T341 799T318 801T295 800T279 791T271 768T279 746T295 737T318 735T341 736T357 745ZM424 768Q424 694 317 694Q305 694 294 695T260 703T225 725T212 768Q212
842 319 842Q331 842 342 841T376 833T411 811T424 768Z" />
<glyph unicode="&#xc6;" glyph-name="AE" horiz-adv-x="819" d="M778 44Q778 18 769 9T734 0H444Q417 0 408 9T399 45V203H211L150 38Q143 20 132 11T113 1T91 0H74Q37 0 37 24Q37 30 42 42L270 655Q277 673 288 682T307 692T330 694H721Q749 694 757 684T765
649Q765 619 755 612T717 604L542 607H520V400H695Q709 400 716 399T731 388T739 359Q739 345 736 336T724 324T711 320T695 319H520V93H564L731 96Q757 96 767 89T778 52V44ZM399 278V608H362L239 278H399Z" />
<glyph unicode="&#xc7;" glyph-name="Ccedilla" horiz-adv-x="607" d="M559 51Q559 45 556 42T537 27Q495 0 461 -9T373 -19Q224 -19 137 74Q53 165 53 347Q53 513 126 606Q209 713 371 713Q449 713 523 685Q540 678 544 675T548 665Q548 647 535 591Q532 577
523 577Q518 577 509 584Q446 627 372 627Q332 627 300 614T247 581T212 532T191 479T180 424T176 379T175 347Q175 311 178 279T194 206T227 136T286 87T375 67T457 77T525 114Q537 123 542 123Q550 123 553 111Q559 69 559 51ZM380 -51Q380 -57 376 -65L330 -169Q325
-180 321 -182T301 -184H265Q240 -184 240 -173Q240 -169 246 -159L314 -53Q320 -44 324 -42T342 -40H355Q380 -40 380 -51Z" />
<glyph unicode="&#xc8;" glyph-name="Egrave" horiz-adv-x="567" d="M526 44Q526 18 517 9T482 0H126Q99 0 90 9T81 45V646Q81 673 90 682T126 691H469Q497 691 505 681T513 646Q513 624 506 614T491 603T461 601L249 604H203V399H443Q457 399 464 398T479 387T487
358Q487 344 484 335T472 323T459 319T443 318H203V92Q221 94 335 94L476 96Q495 96 503 95T519 83T526 52V44ZM369 771Q376 765 374 759T362 753H295L108 852Q100 856 101 865T116 874H243L369 771Z" />
<glyph unicode="&#xc9;" glyph-name="Eacute" horiz-adv-x="567" d="M526 44Q526 18 517 9T482 0H126Q99 0 90 9T81 45V646Q81 673 90 682T126 691H469Q497 691 505 681T513 646Q513 624 506 614T491 603T461 601L249 604H203V399H443Q457 399 464 398T479 387T487
358Q487 344 484 335T472 323T459 319T443 318H203V92Q221 94 335 94L476 96Q495 96 503 95T519 83T526 52V44ZM459 852L272 753H205Q196 753 194 759T198 771L324 874H451Q464 874 465 865T459 852Z" />
<glyph unicode="&#xca;" glyph-name="Ecircumflex" horiz-adv-x="567" d="M526 44Q526 18 517 9T482 0H126Q99 0 90 9T81 45V646Q81 673 90 682T126 691H469Q497 691 505 681T513 646Q513 624 506 614T491 603T461 601L249 604H203V399H443Q457 399 464 398T479
387T487 358Q487 344 484 335T472 323T459 319T443 318H203V92Q221 94 335 94L476 96Q495 96 503 95T519 83T526 52V44ZM456 765Q462 760 459 752T448 743H401L396 744L284 825L172 744L167 743H120Q112 743 109 750T112 763L222 867Q225 870 230 870H341Q346 870
349 867L456 765Z" />
<glyph unicode="&#xcb;" glyph-name="Edieresis" horiz-adv-x="567" d="M526 44Q526 18 517 9T482 0H126Q99 0 90 9T81 45V646Q81 673 90 682T126 691H469Q497 691 505 681T513 646Q513 624 506 614T491 603T461 601L249 604H203V399H443Q457 399 464 398T479
387T487 358Q487 344 484 335T472 323T459 319T443 318H203V92Q221 94 335 94L476 96Q495 96 503 95T519 83T526 52V44ZM219 785Q219 760 211 752T178 743H148Q124 743 116 752T108 785V807Q108 833 116 841T148 849H178Q202 849 210 841T219 807V785ZM460 785Q460
760 452 752T419 743H389Q365 743 357 752T349 785V807Q349 833 357 841T389 849H419Q443 849 451 841T460 807V785Z" />
<glyph unicode="&#xcc;" glyph-name="Igrave" horiz-adv-x="283" d="M202 44Q202 18 193 9T158 0H125Q98 0 89 9T80 45V649Q80 676 89 685T125 694H158Q185 694 193 685T202 650V44ZM197 771Q204 765 202 759T190 753H123L-64 852Q-72 856 -71 865T-56 874H71L197 771Z" />
<glyph unicode="&#xcd;" glyph-name="Iacute" horiz-adv-x="283" d="M202 44Q202 18 193 9T158 0H125Q98 0 89 9T80 45V649Q80 676 89 685T125 694H158Q185 694 193 685T202 650V44ZM346 852L159 753H92Q83 753 81 759T85 771L211 874H338Q351 874 352 865T346 852Z" />
<glyph unicode="&#xce;" glyph-name="Icircumflex" horiz-adv-x="283" d="M202 44Q202 18 193 9T158 0H125Q98 0 89 9T80 45V649Q80 676 89 685T125 694H158Q185 694 193 685T202 650V44ZM314 765Q320 760 317 752T306 743H259L254 744L142 825L30 744L25 743H-22Q-30
743 -33 750T-30 763L80 867Q83 870 88 870H199Q204 870 207 867L314 765Z" />
<glyph unicode="&#xcf;" glyph-name="Idieresis" horiz-adv-x="283" d="M202 44Q202 18 193 9T158 0H125Q98 0 89 9T80 45V649Q80 676 89 685T125 694H158Q185 694 193 685T202 650V44ZM77 785Q77 760 69 752T36 743H6Q-18 743 -26 752T-34 785V807Q-34 833 -26
841T6 849H36Q60 849 68 841T77 807V785ZM318 785Q318 760 310 752T277 743H247Q223 743 215 752T207 785V807Q207 833 215 841T247 849H277Q301 849 309 841T318 807V785Z" />
<glyph unicode="&#xd1;" glyph-name="Ntilde" horiz-adv-x="678" d="M596 44Q596 18 587 9T552 0H479Q452 0 439 8T416 40L227 482Q196 557 186 588H185V44Q185 18 176 9T141 0H126Q99 0 90 9T81 45V649Q81 676 90 685T126 694H198Q225 694 238 686T261 654L450
212Q481 137 491 106H492V650Q492 676 501 685T536 694H552Q579 694 587 685T596 650V44ZM497 845Q497 810 471 777T402 743Q363 743 322 775Q292 798 277 798Q250 798 245 758Q244 747 240 745T220 743H207Q190 743 186 745T181 760Q181 795 207 828T276 862Q315
862 356 830Q386 807 401 807Q428 807 433 847Q434 858 438 860T458 862H472Q488 862 492 860T497 845Z" />
<glyph unicode="&#xd2;" glyph-name="Ograve" horiz-adv-x="697" d="M643 342Q643 165 564 72Q487 -19 348 -19Q210 -19 135 68Q53 163 53 342Q53 505 119 603Q155 656 215 684T348 713Q508 713 586 588Q643 497 643 342ZM521 358Q521 490 487 556Q442 643 348
643Q257 643 212 561Q175 496 175 358Q175 228 205 157Q230 98 270 76T348 53T426 75T491 156Q521 227 521 358ZM434 771Q441 765 439 759T427 753H360L173 852Q165 856 166 865T181 874H308L434 771Z" />
<glyph unicode="&#xd3;" glyph-name="Oacute" horiz-adv-x="697" d="M643 342Q643 165 564 72Q487 -19 348 -19Q210 -19 135 68Q53 163 53 342Q53 505 119 603Q155 656 215 684T348 713Q508 713 586 588Q643 497 643 342ZM521 358Q521 490 487 556Q442 643 348
643Q257 643 212 561Q175 496 175 358Q175 228 205 157Q230 98 270 76T348 53T426 75T491 156Q521 227 521 358ZM524 852L337 753H270Q261 753 259 759T263 771L389 874H516Q529 874 530 865T524 852Z" />
<glyph unicode="&#xd4;" glyph-name="Ocircumflex" horiz-adv-x="697" d="M643 342Q643 165 564 72Q487 -19 348 -19Q210 -19 135 68Q53 163 53 342Q53 505 119 603Q155 656 215 684T348 713Q508 713 586 588Q643 497 643 342ZM521 358Q521 490 487 556Q442 643
348 643Q257 643 212 561Q175 496 175 358Q175 228 205 157Q230 98 270 76T348 53T426 75T491 156Q521 227 521 358ZM521 765Q527 760 524 752T513 743H466L461 744L349 825L237 744L232 743H185Q177 743 174 750T177 763L287 867Q290 870 295 870H406Q411 870
414 867L521 765Z" />
<glyph unicode="&#xd5;" glyph-name="Otilde" horiz-adv-x="697" d="M643 342Q643 165 564 72Q487 -19 348 -19Q210 -19 135 68Q53 163 53 342Q53 505 119 603Q155 656 215 684T348 713Q508 713 586 588Q643 497 643 342ZM521 358Q521 490 487 556Q442 643 348
643Q257 643 212 561Q175 496 175 358Q175 228 205 157Q230 98 270 76T348 53T426 75T491 156Q521 227 521 358ZM507 845Q507 810 481 777T412 743Q373 743 332 775Q302 798 287 798Q260 798 255 758Q254 747 250 745T230 743H217Q200 743 196 745T191 760Q191
795 217 828T286 862Q325 862 366 830Q396 807 411 807Q438 807 443 847Q444 858 448 860T468 862H482Q498 862 502 860T507 845Z" />
<glyph unicode="&#xd6;" glyph-name="Odieresis" horiz-adv-x="697" d="M643 342Q643 165 564 72Q487 -19 348 -19Q210 -19 135 68Q53 163 53 342Q53 505 119 603Q155 656 215 684T348 713Q508 713 586 588Q643 497 643 342ZM521 358Q521 490 487 556Q442 643
348 643Q257 643 212 561Q175 496 175 358Q175 228 205 157Q230 98 270 76T348 53T426 75T491 156Q521 227 521 358ZM284 785Q284 760 276 752T243 743H213Q189 743 181 752T173 785V807Q173 833 181 841T213 849H243Q267 849 275 841T284 807V785ZM525 785Q525
760 517 752T484 743H454Q430 743 422 752T414 785V807Q414 833 422 841T454 849H484Q508 849 516 841T525 807V785Z" />
<glyph unicode="&#xd8;" glyph-name="Oslash" horiz-adv-x="739" d="M685 342Q685 170 603 75Q566 32 506 7T369 -19Q296 -19 236 5L212 -42Q201 -63 195 -69T175 -75Q163 -75 151 -66T138 -41Q138 -32 155 2Q158 6 174 39Q53 126 53 342Q53 520 138 619Q218 713
369 713Q440 713 502 688L532 746Q544 769 563 769Q575 769 587 760T600 735Q600 727 593 714L563 653Q685 564 685 342ZM469 624Q426 649 369 649Q327 649 294 636T239 603T203 554T180 499T169 439T165 386T164 343Q164 266 174 213T214 118L469 624ZM574 343Q574
505 523 574L269 70Q314 45 369 45Q411 45 444 58T499 89T535 137T558 190T569 248T573 300T574 343Z" />
<glyph unicode="&#xd9;" glyph-name="Ugrave" horiz-adv-x="657" d="M575 228Q575 119 513 50T330 -19T145 49T81 228V649Q81 676 90 685T126 694H159Q186 694 194 685T203 650V227Q203 56 331 56Q464 56 464 228V650Q464 676 473 685T508 694H531Q558 694 566
685T575 650V228ZM414 771Q421 765 419 759T407 753H340L153 852Q145 856 146 865T161 874H288L414 771Z" />
<glyph unicode="&#xda;" glyph-name="Uacute" horiz-adv-x="657" d="M575 228Q575 119 513 50T330 -19T145 49T81 228V649Q81 676 90 685T126 694H159Q186 694 194 685T203 650V227Q203 56 331 56Q464 56 464 228V650Q464 676 473 685T508 694H531Q558 694 566
685T575 650V228ZM504 852L317 753H250Q241 753 239 759T243 771L369 874H496Q509 874 510 865T504 852Z" />
<glyph unicode="&#xdb;" glyph-name="Ucircumflex" horiz-adv-x="657" d="M575 228Q575 119 513 50T330 -19T145 49T81 228V649Q81 676 90 685T126 694H159Q186 694 194 685T203 650V227Q203 56 331 56Q464 56 464 228V650Q464 676 473 685T508 694H531Q558 694
566 685T575 650V228ZM501 765Q507 760 504 752T493 743H446L441 744L329 825L217 744L212 743H165Q157 743 154 750T157 763L267 867Q270 870 275 870H386Q391 870 394 867L501 765Z" />
<glyph unicode="&#xdc;" glyph-name="Udieresis" horiz-adv-x="657" d="M575 228Q575 119 513 50T330 -19T145 49T81 228V649Q81 676 90 685T126 694H159Q186 694 194 685T203 650V227Q203 56 331 56Q464 56 464 228V650Q464 676 473 685T508 694H531Q558 694
566 685T575 650V228ZM264 785Q264 760 256 752T223 743H193Q169 743 161 752T153 785V807Q153 833 161 841T193 849H223Q247 849 255 841T264 807V785ZM505 785Q505 760 497 752T464 743H434Q410 743 402 752T394 785V807Q394 833 402 841T434 849H464Q488 849
496 841T505 807V785Z" />
<glyph unicode="&#xdf;" glyph-name="germandbls" horiz-adv-x="468" d="M441 192Q441 174 440 158T430 109T405 52T353 9T270 -10Q244 -10 218 -2T192 18Q192 22 200 47Q203 57 205 60T210 66T217 69Q220 68 223 66Q251 54 267 54Q289 54 303 68T323 108T329
150T331 192Q331 397 236 408Q222 410 220 413T217 434V446Q217 464 219 467T234 472Q266 476 285 496T304 569Q304 603 290 621T234 640Q210 640 195 634T174 616T166 593T164 565V44Q164 18 155 9T120 0H101Q74 0 65 9T56 45V567Q56 600 67 625T97 665T140 689T187
701T235 704Q267 704 296 698T353 679T397 637T414 570Q414 478 346 437Q441 371 441 192Z" />
<glyph unicode="&#xe0;" glyph-name="agrave" horiz-adv-x="453" d="M398 44Q398 18 389 9T354 0H334Q307 0 299 9T290 44V69Q274 40 240 15T157 -10Q100 -10 63 33T26 132Q26 167 40 194T82 238T134 266T193 282T242 288T276 291Q284 292 285 294T287 310V330Q287
364 281 386T261 416T240 426T220 428Q146 428 95 378Q84 368 79 368Q72 368 70 373T66 397Q63 421 63 433Q63 441 67 444T87 456Q151 487 224 487Q312 487 355 446T398 331V44ZM287 155V256Q269 255 252 252T212 241T172 221T143 186T131 134Q131 101 150 78T198
54Q208 54 220 57T248 70T276 101T287 155ZM293 557Q293 546 268 546H237L102 668Q92 677 92 683Q92 691 97 692T116 694H177Q191 694 195 693T205 683L285 572L293 557Z" />
<glyph unicode="&#xe1;" glyph-name="aacute" horiz-adv-x="453" d="M398 44Q398 18 389 9T354 0H334Q307 0 299 9T290 44V69Q274 40 240 15T157 -10Q100 -10 63 33T26 132Q26 167 40 194T82 238T134 266T193 282T242 288T276 291Q284 292 285 294T287 310V330Q287
364 281 386T261 416T240 426T220 428Q146 428 95 378Q84 368 79 368Q72 368 70 373T66 397Q63 421 63 433Q63 441 67 444T87 456Q151 487 224 487Q312 487 355 446T398 331V44ZM287 155V256Q269 255 252 252T212 241T172 221T143 186T131 134Q131 101 150 78T198
54Q208 54 220 57T248 70T276 101T287 155ZM361 683Q361 677 351 668L216 546H185Q160 546 160 557Q160 561 168 572L248 683Q254 691 258 692T276 694H337Q351 694 356 693T361 683Z" />
<glyph unicode="&#xe2;" glyph-name="acircumflex" horiz-adv-x="453" d="M398 44Q398 18 389 9T354 0H334Q307 0 299 9T290 44V69Q274 40 240 15T157 -10Q100 -10 63 33T26 132Q26 167 40 194T82 238T134 266T193 282T242 288T276 291Q284 292 285 294T287 310V330Q287
364 281 386T261 416T240 426T220 428Q146 428 95 378Q84 368 79 368Q72 368 70 373T66 397Q63 421 63 433Q63 441 67 444T87 456Q151 487 224 487Q312 487 355 446T398 331V44ZM287 155V256Q269 255 252 252T212 241T172 221T143 186T131 134Q131 101 150 78T198
54Q208 54 220 57T248 70T276 101T287 155ZM388 560Q392 554 389 547T378 539H331Q327 540 325 541L227 642L129 541L123 539H76Q69 539 66 545T66 558L164 697Q167 701 173 701H284Q290 701 293 697L388 560Z" />
<glyph unicode="&#xe3;" glyph-name="atilde" horiz-adv-x="453" d="M398 44Q398 18 389 9T354 0H334Q307 0 299 9T290 44V69Q274 40 240 15T157 -10Q100 -10 63 33T26 132Q26 167 40 194T82 238T134 266T193 282T242 288T276 291Q284 292 285 294T287 310V330Q287
364 281 386T261 416T240 426T220 428Q146 428 95 378Q84 368 79 368Q72 368 70 373T66 397Q63 421 63 433Q63 441 67 444T87 456Q151 487 224 487Q312 487 355 446T398 331V44ZM287 155V256Q269 255 252 252T212 241T172 221T143 186T131 134Q131 101 150 78T198
54Q208 54 220 57T248 70T276 101T287 155ZM385 663Q385 628 359 595T290 561Q251 561 210 593Q180 616 165 616Q138 616 133 576Q132 565 128 563T108 561H95Q78 561 74 563T69 578Q69 613 95 646T164 680Q203 680 244 648Q274 625 289 625Q316 625 321 665Q322
676 326 678T346 680H360Q376 680 380 678T385 663Z" />
<glyph unicode="&#xe4;" glyph-name="adieresis" horiz-adv-x="453" d="M398 44Q398 18 389 9T354 0H334Q307 0 299 9T290 44V69Q274 40 240 15T157 -10Q100 -10 63 33T26 132Q26 167 40 194T82 238T134 266T193 282T242 288T276 291Q284 292 285 294T287 310V330Q287
364 281 386T261 416T240 426T220 428Q146 428 95 378Q84 368 79 368Q72 368 70 373T66 397Q63 421 63 433Q63 441 67 444T87 456Q151 487 224 487Q312 487 355 446T398 331V44ZM287 155V256Q269 255 252 252T212 241T172 221T143 186T131 134Q131 101 150 78T198
54Q208 54 220 57T248 70T276 101T287 155ZM181 609Q181 584 173 576T140 567H110Q86 567 78 576T70 609V631Q70 657 78 665T110 673H140Q164 673 172 665T181 631V609ZM384 609Q384 584 376 576T343 567H313Q289 567 281 576T273 609V631Q273 657 281 665T313
673H343Q367 673 375 665T384 631V609Z" />
<glyph unicode="&#xe5;" glyph-name="aring" horiz-adv-x="453" d="M398 44Q398 18 389 9T354 0H334Q307 0 299 9T290 44V69Q274 40 240 15T157 -10Q100 -10 63 33T26 132Q26 167 40 194T82 238T134 266T193 282T242 288T276 291Q284 292 285 294T287 310V330Q287
364 281 386T261 416T240 426T220 428Q146 428 95 378Q84 368 79 368Q72 368 70 373T66 397Q63 421 63 433Q63 441 67 444T87 456Q151 487 224 487Q312 487 355 446T398 331V44ZM287 155V256Q269 255 252 252T212 241T172 221T143 186T131 134Q131 101 150 78T198
54Q208 54 220 57T248 70T276 101T287 155ZM273 594T273 609T265 631T249 640T226 642T203 641T187 632T179 609T187 587T203 578T226 576T249 577T265 586ZM332 609Q332 535 225 535Q213 535 202 536T168 544T133 566T120 609Q120 683 227 683Q239 683 250 682T284
674T319 652T332 609Z" />
<glyph unicode="&#xe6;" glyph-name="ae" horiz-adv-x="686" d="M659 276Q659 251 650 242T615 232H398Q402 54 507 54Q578 54 625 117Q631 125 637 125Q644 125 645 122T649 105Q650 102 650 101Q653 74 653 65Q653 55 635 38T581 6T503 -10Q409 -10 345 54Q316
24 264 7T156 -10Q94 -10 61 32T27 123Q27 256 287 266V331Q287 365 281 386T262 416T242 426T221 428Q147 428 95 378Q84 368 79 368Q72 368 70 373T66 397Q63 421 63 433Q63 438 64 440T70 446T89 457Q155 487 225 487Q314 487 360 441Q413 487 491 487Q580 487
623 423Q659 368 659 276ZM570 279Q569 301 568 313T563 350T551 387T528 412T492 423Q450 423 426 382T399 279H570ZM301 137Q296 153 293 173T288 206L287 218Q269 217 251 215T202 204T152 175T132 125Q132 97 150 76T199 54Q233 54 264 75T301 137Z" />
<glyph unicode="&#xe7;" glyph-name="ccedilla" horiz-adv-x="422" d="M395 62Q395 53 380 40T350 19L335 11Q291 -10 238 -10Q138 -10 85 54Q32 119 32 237Q32 357 85 422T242 487Q287 487 313 479T372 452Q388 439 389 434Q389 432 382 397Q379 379 377 374T368
369Q363 369 354 378Q327 399 304 408T243 417Q209 417 188 401T157 354T146 298T143 238Q143 214 143 199T149 154T163 107T192 75T240 60Q309 60 366 117Q373 126 379 126Q386 126 388 121T392 98Q395 74 395 62ZM289 -51Q289 -57 285 -65L239 -169Q234 -180
230 -182T210 -184H174Q149 -184 149 -173Q149 -169 155 -159L223 -53Q229 -44 233 -42T251 -40H264Q289 -40 289 -51Z" />
<glyph unicode="&#xe8;" glyph-name="egrave" horiz-adv-x="438" d="M411 275Q411 249 402 241T367 232H129Q129 219 129 208T133 173T144 131T164 94T197 65T247 54Q324 54 376 116Q384 125 389 125Q396 125 397 122T401 105Q402 102 402 101Q405 74 405 65Q405
42 342 12Q293 -10 243 -10Q212 -10 183 -3T125 22T74 67T40 138T26 239Q26 309 45 360T96 438T161 475T231 487Q318 487 364 433T411 275ZM325 279Q324 301 323 314T317 351T302 387T275 412T232 423Q184 423 159 382T130 279H325ZM286 557Q286 546 261 546H230L95
668Q85 677 85 683Q85 691 90 692T109 694H170Q184 694 188 693T198 683L278 572L286 557Z" />
<glyph unicode="&#xe9;" glyph-name="eacute" horiz-adv-x="438" d="M411 275Q411 249 402 241T367 232H129Q129 219 129 208T133 173T144 131T164 94T197 65T247 54Q324 54 376 116Q384 125 389 125Q396 125 397 122T401 105Q402 102 402 101Q405 74 405 65Q405
42 342 12Q293 -10 243 -10Q212 -10 183 -3T125 22T74 67T40 138T26 239Q26 309 45 360T96 438T161 475T231 487Q318 487 364 433T411 275ZM325 279Q324 301 323 314T317 351T302 387T275 412T232 423Q184 423 159 382T130 279H325ZM354 683Q354 677 344 668L209
546H178Q153 546 153 557Q153 561 161 572L241 683Q247 691 251 692T269 694H330Q344 694 349 693T354 683Z" />
<glyph unicode="&#xea;" glyph-name="ecircumflex" horiz-adv-x="438" d="M411 275Q411 249 402 241T367 232H129Q129 219 129 208T133 173T144 131T164 94T197 65T247 54Q324 54 376 116Q384 125 389 125Q396 125 397 122T401 105Q402 102 402 101Q405 74 405
65Q405 42 342 12Q293 -10 243 -10Q212 -10 183 -3T125 22T74 67T40 138T26 239Q26 309 45 360T96 438T161 475T231 487Q318 487 364 433T411 275ZM325 279Q324 301 323 314T317 351T302 387T275 412T232 423Q184 423 159 382T130 279H325ZM381 560Q385 554 382
547T371 539H324Q320 540 318 541L220 642L122 541L116 539H69Q62 539 59 545T59 558L157 697Q160 701 166 701H277Q283 701 286 697L381 560Z" />
<glyph unicode="&#xeb;" glyph-name="edieresis" horiz-adv-x="438" d="M411 275Q411 249 402 241T367 232H129Q129 219 129 208T133 173T144 131T164 94T197 65T247 54Q324 54 376 116Q384 125 389 125Q396 125 397 122T401 105Q402 102 402 101Q405 74 405 65Q405
42 342 12Q293 -10 243 -10Q212 -10 183 -3T125 22T74 67T40 138T26 239Q26 309 45 360T96 438T161 475T231 487Q318 487 364 433T411 275ZM325 279Q324 301 323 314T317 351T302 387T275 412T232 423Q184 423 159 382T130 279H325ZM174 609Q174 584 166 576T133
567H103Q79 567 71 576T63 609V631Q63 657 71 665T103 673H133Q157 673 165 665T174 631V609ZM377 609Q377 584 369 576T336 567H306Q282 567 274 576T266 609V631Q266 657 274 665T306 673H336Q360 673 368 665T377 631V609Z" />
<glyph unicode="&#xec;" glyph-name="igrave" horiz-adv-x="219" d="M163 44Q163 18 154 9T119 0H100Q73 0 64 9T55 45V427Q55 454 64 463T100 472H119Q146 472 154 463T163 428V44ZM163 557Q163 546 138 546H107L-28 668Q-38 677 -38 683Q-38 691 -33 692T-14
694H47Q61 694 65 693T75 683L155 572L163 557Z" />
<glyph unicode="&#xed;" glyph-name="iacute" horiz-adv-x="219" d="M163 44Q163 18 154 9T119 0H100Q73 0 64 9T55 45V427Q55 454 64 463T100 472H119Q146 472 154 463T163 428V44ZM256 683Q256 677 246 668L111 546H80Q55 546 55 557Q55 561 63 572L143 683Q149
691 153 692T171 694H232Q246 694 251 693T256 683Z" />
<glyph unicode="&#xee;" glyph-name="icircumflex" horiz-adv-x="219" d="M163 44Q163 18 154 9T119 0H100Q73 0 64 9T55 45V427Q55 454 64 463T100 472H119Q146 472 154 463T163 428V44ZM271 560Q275 554 272 547T261 539H214Q210 540 208 541L110 642L12 541L6
539H-41Q-48 539 -51 545T-51 558L47 697Q50 701 56 701H167Q173 701 176 697L271 560Z" />
<glyph unicode="&#xef;" glyph-name="idieresis" horiz-adv-x="219" d="M163 44Q163 18 154 9T119 0H100Q73 0 64 9T55 45V427Q55 454 64 463T100 472H119Q146 472 154 463T163 428V44ZM64 609Q64 584 56 576T23 567H-7Q-31 567 -39 576T-47 609V631Q-47 657 -39
665T-7 673H23Q47 673 55 665T64 631V609ZM267 609Q267 584 259 576T226 567H196Q172 567 164 576T156 609V631Q156 657 164 665T196 673H226Q250 673 258 665T267 631V609Z" />
<glyph unicode="&#xf1;" glyph-name="ntilde" horiz-adv-x="483" d="M428 44Q428 18 419 9T384 0H361Q334 0 326 9T317 44V338Q317 381 306 399T263 418Q224 418 195 383T165 283V44Q165 18 156 9T121 0H99Q72 0 63 9T54 45V433Q54 460 63 469T99 478H115Q142
478 150 469T159 434V380H160Q206 482 300 482Q372 482 400 446T428 342V44ZM400 663Q400 628 374 595T305 561Q266 561 225 593Q195 616 180 616Q153 616 148 576Q147 565 143 563T123 561H110Q94 561 89 563T84 578Q84 613 110 646T179 680Q218 680 259 648Q289
625 304 625Q331 625 336 665Q337 676 341 678T361 680H375Q391 680 395 678T400 663Z" />
<glyph unicode="&#xf2;" glyph-name="ograve" horiz-adv-x="475" d="M448 232Q448 114 392 52Q337 -10 237 -10Q133 -10 79 54Q26 119 26 232Q26 348 77 415Q130 487 237 487Q341 487 396 417Q448 352 448 232ZM337 244Q337 267 337 280T334 319T325 359T308 390T279
415T237 423Q208 423 188 410T159 381T144 335T138 290T137 244T137 198T143 152T158 105T188 74T237 60T286 73T315 104T330 151T336 198T337 244ZM304 557Q304 546 279 546H248L113 668Q103 677 103 683Q103 691 108 692T127 694H188Q202 694 206 693T216 683L296
572L304 557Z" />
<glyph unicode="&#xf3;" glyph-name="oacute" horiz-adv-x="475" d="M448 232Q448 114 392 52Q337 -10 237 -10Q133 -10 79 54Q26 119 26 232Q26 348 77 415Q130 487 237 487Q341 487 396 417Q448 352 448 232ZM337 244Q337 267 337 280T334 319T325 359T308 390T279
415T237 423Q208 423 188 410T159 381T144 335T138 290T137 244T137 198T143 152T158 105T188 74T237 60T286 73T315 104T330 151T336 198T337 244ZM372 683Q372 677 362 668L227 546H196Q171 546 171 557Q171 561 179 572L259 683Q265 691 269 692T287 694H348Q362
694 367 693T372 683Z" />
<glyph unicode="&#xf4;" glyph-name="ocircumflex" horiz-adv-x="475" d="M448 232Q448 114 392 52Q337 -10 237 -10Q133 -10 79 54Q26 119 26 232Q26 348 77 415Q130 487 237 487Q341 487 396 417Q448 352 448 232ZM337 244Q337 267 337 280T334 319T325 359T308
390T279 415T237 423Q208 423 188 410T159 381T144 335T138 290T137 244T137 198T143 152T158 105T188 74T237 60T286 73T315 104T330 151T336 198T337 244ZM399 560Q403 554 400 547T389 539H342Q338 540 336 541L238 642L140 541L134 539H87Q80 539 77 545T77
558L175 697Q178 701 184 701H295Q301 701 304 697L399 560Z" />
<glyph unicode="&#xf5;" glyph-name="otilde" horiz-adv-x="475" d="M448 232Q448 114 392 52Q337 -10 237 -10Q133 -10 79 54Q26 119 26 232Q26 348 77 415Q130 487 237 487Q341 487 396 417Q448 352 448 232ZM337 244Q337 267 337 280T334 319T325 359T308 390T279
415T237 423Q208 423 188 410T159 381T144 335T138 290T137 244T137 198T143 152T158 105T188 74T237 60T286 73T315 104T330 151T336 198T337 244ZM396 663Q396 628 370 595T301 561Q262 561 221 593Q191 616 176 616Q149 616 144 576Q143 565 139 563T119 561H106Q90
561 85 563T80 578Q80 613 106 646T175 680Q214 680 255 648Q285 625 300 625Q327 625 332 665Q333 676 337 678T357 680H371Q387 680 391 678T396 663Z" />
<glyph unicode="&#xf6;" glyph-name="odieresis" horiz-adv-x="475" d="M448 232Q448 114 392 52Q337 -10 237 -10Q133 -10 79 54Q26 119 26 232Q26 348 77 415Q130 487 237 487Q341 487 396 417Q448 352 448 232ZM337 244Q337 267 337 280T334 319T325 359T308
390T279 415T237 423Q208 423 188 410T159 381T144 335T138 290T137 244T137 198T143 152T158 105T188 74T237 60T286 73T315 104T330 151T336 198T337 244ZM192 609Q192 584 184 576T151 567H121Q97 567 89 576T81 609V631Q81 657 89 665T121 673H151Q175 673
183 665T192 631V609ZM395 609Q395 584 387 576T354 567H324Q300 567 292 576T284 609V631Q284 657 292 665T324 673H354Q378 673 386 665T395 631V609Z" />
<glyph unicode="&#xf7;" glyph-name="divide" horiz-adv-x="739" d="M685 299T685 264T640 229H98Q53 229 53 264T104 299H634Q685 299 685 264ZM422 412Q422 393 419 390T397 386H342Q323 386 320 389T316 412V466Q316 485 319 488T341 492H397Q415 492 418 489T422
466V412ZM422 62Q422 43 419 40T397 36H342Q323 36 320 39T316 62V116Q316 135 319 138T341 142H397Q415 142 418 139T422 116V62Z" />
<glyph unicode="&#xf8;" glyph-name="oslash" horiz-adv-x="475" d="M448 232Q448 114 392 52Q337 -10 237 -10Q191 -10 155 3Q129 -50 121 -66Q105 -99 98 -107T77 -115Q62 -115 53 -105T44 -83Q44 -76 71 -22Q81 -4 99 34Q26 97 26 232Q26 348 77 415Q130 487
237 487Q281 487 319 472L366 564Q377 588 397 588Q412 588 421 578T430 556Q430 549 422 535L375 440Q448 372 448 232ZM288 410Q266 423 237 423Q211 423 191 414T160 387T141 352T131 309T128 269T127 232Q127 152 141 118L288 410ZM347 232Q347 315 332 354L187
65Q209 54 237 54Q268 54 290 67T323 97T340 143T346 188T347 232Z" />
<glyph unicode="&#xf9;" glyph-name="ugrave" horiz-adv-x="483" d="M428 44Q428 18 419 9T384 0H364Q337 0 329 9T320 44V75Q282 -10 200 -10Q125 -10 90 22T54 129V427Q54 454 63 463T99 472H121Q148 472 156 463T165 428V122Q165 75 176 59T225 43Q271 43 294
84T317 181V428Q317 454 326 463T361 472H384Q411 472 419 463T428 428V44ZM308 557Q308 546 283 546H252L117 668Q107 677 107 683Q107 691 112 692T131 694H192Q206 694 210 693T220 683L300 572L308 557Z" />
<glyph unicode="&#xfa;" glyph-name="uacute" horiz-adv-x="483" d="M428 44Q428 18 419 9T384 0H364Q337 0 329 9T320 44V75Q282 -10 200 -10Q125 -10 90 22T54 129V427Q54 454 63 463T99 472H121Q148 472 156 463T165 428V122Q165 75 176 59T225 43Q271 43 294
84T317 181V428Q317 454 326 463T361 472H384Q411 472 419 463T428 428V44ZM376 683Q376 677 366 668L231 546H200Q175 546 175 557Q175 561 183 572L263 683Q269 691 273 692T291 694H352Q366 694 371 693T376 683Z" />
<glyph unicode="&#xfb;" glyph-name="ucircumflex" horiz-adv-x="483" d="M428 44Q428 18 419 9T384 0H364Q337 0 329 9T320 44V75Q282 -10 200 -10Q125 -10 90 22T54 129V427Q54 454 63 463T99 472H121Q148 472 156 463T165 428V122Q165 75 176 59T225 43Q271
43 294 84T317 181V428Q317 454 326 463T361 472H384Q411 472 419 463T428 428V44ZM403 560Q407 554 404 547T393 539H346Q342 540 340 541L242 642L144 541L138 539H91Q84 539 81 545T81 558L179 697Q182 701 188 701H299Q305 701 308 697L403 560Z" />
<glyph unicode="&#xfc;" glyph-name="udieresis" horiz-adv-x="483" d="M428 44Q428 18 419 9T384 0H364Q337 0 329 9T320 44V75Q282 -10 200 -10Q125 -10 90 22T54 129V427Q54 454 63 463T99 472H121Q148 472 156 463T165 428V122Q165 75 176 59T225 43Q271 43
294 84T317 181V428Q317 454 326 463T361 472H384Q411 472 419 463T428 428V44ZM196 609Q196 584 188 576T155 567H125Q101 567 93 576T85 609V631Q85 657 93 665T125 673H155Q179 673 187 665T196 631V609ZM399 609Q399 584 391 576T358 567H328Q304 567 296 576T288
609V631Q288 657 296 665T328 673H358Q382 673 390 665T399 631V609Z" />
<glyph unicode="&#xff;" glyph-name="ydieresis" horiz-adv-x="431" d="M408 447Q408 443 403 428L260 -51Q243 -106 203 -141T107 -177Q53 -177 40 -167Q37 -164 34 -139T31 -103Q31 -89 43 -89Q45 -90 50 -92Q80 -106 108 -106Q149 -106 168 -72Q173 -64 182
-36T192 -1Q192 2 188 14L29 430L24 448Q24 472 61 472H73Q106 472 117 460T146 399Q226 188 229 118Q234 179 270 303L307 432Q312 451 321 460T339 470T366 472Q380 472 387 471T401 465T408 447ZM170 609Q170 584 162 576T129 567H99Q75 567 67 576T59 609V631Q59
657 67 665T99 673H129Q153 673 161 665T170 631V609ZM373 609Q373 584 365 576T332 567H302Q278 567 270 576T262 609V631Q262 657 270 665T302 673H332Q356 673 364 665T373 631V609Z" />
<glyph unicode="&#x131;" glyph-name="dotlessi" horiz-adv-x="219" d="M163 44Q163 18 154 9T119 0H100Q73 0 64 9T55 45V427Q55 454 64 463T100 472H119Q146 472 154 463T163 428V44Z" />
<glyph unicode="&#x152;" glyph-name="OE" horiz-adv-x="925" d="M884 44Q884 18 875 9T840 0H512Q482 0 430 -9Q369 -19 342 -19Q184 -19 102 84Q28 178 28 342Q28 521 113 619Q153 666 214 689T342 713Q369 713 430 703Q482 694 512 694H827Q855 694 863 684T871
649Q871 627 864 617T849 606T820 604L613 607H570V400H801Q815 400 822 399T837 388T845 359Q845 345 842 336T830 324T817 320T801 319H570V92L700 94L834 96Q853 96 861 95T877 83T884 52V44ZM450 347Q450 526 445 561Q439 608 420 628T346 649Q305 649 273
635T220 601T184 550T163 495T152 438T148 392T147 359Q147 220 190 141Q214 96 254 71T346 45Q371 45 389 49T418 65T435 88T445 124T448 168T449 226L450 347Z" />
<glyph unicode="&#x153;" glyph-name="oe" horiz-adv-x="739" d="M712 276Q712 251 703 242T668 232H451Q455 54 560 54Q631 54 678 117Q684 125 690 125Q697 125 698 122T702 105Q703 102 703 101Q706 74 706 65Q706 55 688 38T634 6T556 -10Q454 -10 397 57Q338
-10 237 -10Q133 -10 79 58Q26 123 26 239Q26 351 77 417Q131 487 237 487Q337 487 395 423Q453 487 544 487Q633 487 676 423Q712 368 712 276ZM623 279Q622 301 621 313T616 350T604 387T581 412T545 423Q503 423 479 382T452 279H623ZM340 243Q340 265 340 278T337
315T327 356T310 389T281 414T237 423T193 415T162 389T144 355T135 315T132 277T131 243T131 209T134 170T144 127T162 92T192 64T237 54T280 63T309 91T327 126T336 169T339 208T340 243Z" />
<glyph unicode="&#x178;" glyph-name="Ydieresis" horiz-adv-x="636" d="M616 673Q616 668 607 653L377 277V43Q377 16 367 8T333 0H302Q276 0 267 9T258 44V278L25 657Q19 666 19 673Q19 694 54 694H95Q143 694 165 658L278 469Q314 408 326 380Q332 400 374
472T454 606T495 671Q515 694 556 694H581Q616 694 616 673ZM254 785Q254 760 246 752T213 743H183Q159 743 151 752T143 785V807Q143 833 151 841T183 849H213Q237 849 245 841T254 807V785ZM495 785Q495 760 487 752T454 743H424Q400 743 392 752T384 785V807Q384
833 392 841T424 849H454Q478 849 486 841T495 807V785Z" />
<glyph unicode="&#x192;" glyph-name="florin" horiz-adv-x="290" d="M329 640Q329 615 318 615Q313 615 305 621Q279 640 244 640Q227 640 215 635T196 624T187 608T184 591T183 574V472H227Q271 472 271 440T227 408H186V44Q186 18 177 9T142 0H123Q96 0 87
9T78 45V408Q61 408 53 409T35 417T25 440T34 462T53 471T78 472V549Q78 622 120 663T244 704Q274 704 300 699Q321 694 325 690T329 668V640Z" />
<glyph unicode="&#x2c6;" glyph-name="circumflex" horiz-adv-x="475" d="M399 560Q403 554 400 547T389 539H342Q338 540 336 541L238 642L140 541L134 539H87Q80 539 77 545T77 558L175 697Q178 701 184 701H295Q301 701 304 697L399 560Z" />
<glyph unicode="&#x2c7;" glyph-name="caron" horiz-adv-x="475" d="M399 682L301 543Q298 539 292 539H181Q175 539 172 543L77 680Q73 686 76 693T87 701H134Q138 700 140 699L238 598L336 699L342 701H389Q396 701 399 695T399 682Z" />
<glyph unicode="&#x2d8;" glyph-name="breve" horiz-adv-x="475" d="M401 655Q401 613 361 582T238 551Q157 551 116 582T75 655Q75 674 86 682T107 690Q135 690 139 658Q142 631 238 631Q333 631 337 655Q340 690 369 690Q380 690 390 682T401 655Z" />
<glyph unicode="&#x2d9;" glyph-name="dotaccent" horiz-adv-x="264" d="M193 608Q193 580 184 571T148 561H115Q88 561 79 571T70 608V632Q70 661 79 670T115 679H148Q175 679 184 670T193 632V608Z" />
<glyph unicode="&#x2da;" glyph-name="ring" horiz-adv-x="636" d="M365 594T365 609T357 631T341 640T318 642T295 641T279 632T271 609T279 587T295 578T318 576T341 577T357 586ZM424 609Q424 535 317 535Q305 535 294 536T260 544T225 566T212 609Q212 683
319 683Q331 683 342 682T376 674T411 652T424 609Z" />
<glyph unicode="&#x2db;" glyph-name="ogonek" horiz-adv-x="475" d="M339 -133Q341 -139 339 -147T331 -157Q269 -183 231 -184Q187 -185 161 -158T135 -95Q136 -60 153 -31T201 15L268 12Q228 -17 226 -70Q225 -86 234 -96T260 -106Q287 -106 309 -95Q313 -92
321 -94T330 -104L339 -133Z" />
<glyph unicode="&#x2dc;" glyph-name="tilde" horiz-adv-x="475" d="M396 663Q396 628 370 595T301 561Q262 561 221 593Q191 616 176 616Q149 616 144 576Q143 565 139 563T119 561H106Q90 561 85 563T80 578Q80 613 106 646T175 680Q214 680 255 648Q285 625
300 625Q327 625 332 665Q333 676 337 678T357 680H371Q387 680 391 678T396 663Z" />
<glyph unicode="&#x2dd;" glyph-name="hungarumlaut" horiz-adv-x="475" d="M236 683Q236 679 230 669L168 560Q162 550 158 548T139 546H126Q116 546 112 546T104 549T100 558L124 673Q127 688 131 691T151 694H212Q226 694 231 693T236 683ZM394 683Q394 679
388 669L326 560Q320 550 316 548T297 546H284Q274 546 270 546T262 549T258 558L282 673Q285 688 289 691T309 694H370Q384 694 389 693T394 683Z" />
<glyph unicode="&#x3a9;" glyph-name="Omega" horiz-adv-x="686" d="M643 44Q643 18 634 9T599 0H437Q423 0 416 1T400 12T392 40Q392 114 443 236Q482 326 496 371T510 465Q510 649 342 649Q175 649 175 465Q175 419 188 376T230 262Q293 117 293 39Q293 21 285
12T270 2T249 0H87Q58 0 50 10T42 47Q42 80 53 87T96 94Q104 94 119 94T141 93H198Q213 93 220 92Q204 140 148 227Q116 276 100 304T69 376T53 464T65 546T108 625T198 689T343 713Q410 713 462 697T545 656T597 597T624 531T632 464Q632 421 617 376T585 302T535
223Q482 145 465 92Q471 93 487 93H544Q552 93 567 93T589 94Q611 94 620 93T636 81T643 50V44Z" />
<glyph unicode="&#x2013;" glyph-name="endash" horiz-adv-x="475" d="M474 324T474 292T430 260H44Q0 260 0 292T44 324H430Q474 324 474 292Z" />
<glyph unicode="&#x2014;" glyph-name="emdash" horiz-adv-x="950" d="M949 324T949 292T905 260H44Q0 260 0 292T44 324H905Q949 324 949 292Z" />
<glyph unicode="&#x2018;" glyph-name="quoteleft" horiz-adv-x="264" d="M185 503Q185 484 182 481T160 477H104Q86 477 83 480T79 503V574L129 679Q134 690 138 692T158 694Q169 694 173 694T181 691T185 682Q185 681 181 665L157 583Q177 583 181 580T185 557V503Z" />
<glyph unicode="&#x2019;" glyph-name="quoteright" horiz-adv-x="264" d="M185 597L135 492Q130 481 126 479T106 477Q95 477 91 477T83 480T79 489Q79 490 83 506L107 588Q87 588 83 591T79 614V668Q79 687 82 690T104 694H160Q178 694 181 691T185 668V597Z" />
<glyph unicode="&#x201a;" glyph-name="quotesinglbase" horiz-adv-x="264" d="M185 7L135 -98Q130 -109 126 -111T106 -113Q95 -113 91 -113T83 -110T79 -101Q79 -100 83 -84L107 -2Q87 -2 83 1T79 24V78Q79 97 82 100T104 104H160Q178 104 181 101T185 78V7Z" />
<glyph unicode="&#x201c;" glyph-name="quotedblleft" horiz-adv-x="449" d="M185 503Q185 484 182 481T160 477H104Q86 477 83 480T79 503V574L129 679Q134 690 138 692T158 694Q169 694 173 694T181 691T185 682Q185 681 181 665L157 583Q177 583 181 580T185
557V503ZM370 503Q370 484 367 481T345 477H289Q271 477 268 480T264 503V574L314 679Q319 690 323 692T343 694Q354 694 358 694T366 691T370 682Q370 681 366 665L342 583Q362 583 366 580T370 557V503Z" />
<glyph unicode="&#x201d;" glyph-name="quotedblright" horiz-adv-x="449" d="M185 597L135 492Q130 481 126 479T106 477Q95 477 91 477T83 480T79 489Q79 490 83 506L107 588Q87 588 83 591T79 614V668Q79 687 82 690T104 694H160Q178 694 181 691T185 668V597ZM370
597L320 492Q315 481 311 479T291 477Q280 477 276 477T268 480T264 489Q264 490 268 506L292 588Q272 588 268 591T264 614V668Q264 687 267 690T289 694H345Q363 694 366 691T370 668V597Z" />
<glyph unicode="&#x201e;" glyph-name="quotedblbase" horiz-adv-x="449" d="M185 7L135 -98Q130 -109 126 -111T106 -113Q95 -113 91 -113T83 -110T79 -101Q79 -100 83 -84L107 -2Q87 -2 83 1T79 24V78Q79 97 82 100T104 104H160Q178 104 181 101T185 78V7ZM370
7L320 -98Q315 -109 311 -111T291 -113Q280 -113 276 -113T268 -110T264 -101Q264 -100 268 -84L292 -2Q272 -2 268 1T264 24V78Q264 97 267 100T289 104H345Q363 104 366 101T370 78V7Z" />
<glyph unicode="&#x2020;" glyph-name="dagger" horiz-adv-x="511" d="M447 443Q447 421 433 405T390 388T310 414Q288 424 270 428Q273 403 288 359Q304 310 307 289T311 231Q311 137 303 29T289 -130T279 -200Q276 -211 255 -211Q238 -211 235 -204Q231 -199
226 -156Q200 52 200 231Q200 267 203 287T221 353Q238 402 241 428Q219 423 186 407Q148 388 121 388Q95 388 80 404T64 444Q64 466 78 482T121 499T201 473Q223 463 241 459Q238 486 221 542Q200 609 200 643Q200 674 217 688T256 702Q275 702 293 689T311 643Q311
609 289 537Q273 490 270 459Q292 464 325 480Q363 499 390 499Q416 499 431 483T447 443Z" />
<glyph unicode="&#x2021;" glyph-name="daggerdbl" horiz-adv-x="511" d="M447 476Q447 466 444 456T427 433T390 421Q361 421 311 446Q295 454 271 460Q275 435 287 402Q311 337 311 308T294 265T255 250Q235 250 218 264T200 308Q200 341 223 401Q235 433 240
460Q218 454 199 445Q150 421 121 421Q98 421 84 433T67 455T64 476Q64 499 79 515T120 531Q150 531 200 506Q216 498 240 492Q236 517 224 550Q200 615 200 644T217 687T256 702Q276 702 293 688T311 644Q311 611 288 551Q276 519 271 492Q291 497 326 513Q362
531 391 531Q417 531 432 515T447 476ZM447 23Q447 1 433 -15T390 -32Q363 -32 327 -14Q286 4 271 8Q275 -18 289 -55Q311 -115 311 -144T294 -187T255 -202Q235 -202 218 -188T200 -144Q200 -113 220 -62Q236 -18 240 8Q223 4 186 -13Q148 -32 121 -32Q95 -32
80 -16T64 24Q64 46 78 62T121 79Q147 79 201 54Q221 43 240 39Q236 65 222 102Q200 162 200 191T217 234T256 249Q276 249 293 235T311 191Q311 160 291 109Q275 65 271 39Q294 46 325 60Q363 79 390 79Q416 79 431 63T447 23Z" />
<glyph unicode="&#x2022;" glyph-name="bullet" horiz-adv-x="739" d="M538 182Q538 120 527 110T458 99H283Q223 99 212 110T200 182V354Q200 416 211 426T280 437H458Q516 437 527 427T538 354V182Z" />
<glyph unicode="&#x2026;" glyph-name="ellipsis" horiz-adv-x="646" d="M185 26Q185 7 182 4T160 0H105Q86 0 83 3T79 26V80Q79 99 82 102T104 106H160Q178 106 181 103T185 80V26ZM376 26Q376 7 373 4T351 0H296Q277 0 274 3T270 26V80Q270 99 273 102T295 106H351Q369
106 372 103T376 80V26ZM567 26Q567 7 564 4T542 0H487Q468 0 465 3T461 26V80Q461 99 464 102T486 106H542Q560 106 563 103T567 80V26Z" />
<glyph unicode="&#x2030;" glyph-name="perthousand" horiz-adv-x="1216" d="M1155 145Q1155 132 1154 120T1150 81T1136 33T1111 -9T1067 -43T1003 -56Q954 -56 920 -34T872 23T853 87T848 146Q848 239 886 291Q928 347 1003 347Q1039 347 1067 335T1110 300T1136
258T1149 210T1154 171T1155 145ZM778 145Q778 132 777 120T773 81T759 33T734 -9T690 -43T626 -56Q577 -56 543 -34T495 23T476 87T471 146Q471 239 509 291Q551 347 626 347Q662 347 690 335T733 300T759 258T772 210T777 171T778 145ZM369 548Q369 535 368 523T364
484T350 436T325 394T281 360T217 347Q168 347 134 369T86 426T67 490T62 549Q62 642 100 694Q142 750 217 750Q253 750 281 738T324 703T350 661T363 613T368 574T369 548ZM661 715Q661 704 651 689L194 -34Q181 -56 161 -56Q147 -56 137 -46T126 -21Q126 -10
136 5L593 728Q608 750 626 750Q641 750 651 740T661 715ZM1060 146Q1060 189 1054 218T1039 260T1021 278T1003 283Q984 283 972 270T956 232T950 190T949 145T950 101T955 59T972 21T1003 8Q1060 8 1060 146ZM683 146Q683 189 677 218T662 260T644 278T626 283Q607
283 595 270T579 232T573 190T572 145T573 101T578 59T595 21T626 8Q683 8 683 146ZM274 549Q274 592 268 621T253 663T235 681T217 686Q198 686 186 673T170 635T164 593T163 548T164 504T169 462T186 424T217 411Q274 411 274 549Z" />
<glyph unicode="&#x2039;" glyph-name="guilsinglleft" horiz-adv-x="285" d="M232 13Q234 0 221 0H179Q171 0 169 7L75 260Q74 264 75 268L169 521Q171 528 179 528H221Q234 528 232 515L186 264L232 13Z" />
<glyph unicode="&#x203a;" glyph-name="guilsinglright" horiz-adv-x="285" d="M210 260L116 7Q114 0 106 0H64Q51 0 53 13L99 264L53 515Q51 528 64 528H106Q114 528 116 521L210 268Q211 264 210 260Z" />
<glyph unicode="&#x2044;" glyph-name="fraction" horiz-adv-x="556" d="M498 657L118 2Q108 -15 88 -15T58 2T58 38L438 692Q448 709 468 709T498 692T498 657Z" />
<glyph unicode="&#x20ac;" glyph-name="Euro" horiz-adv-x="569" d="M521 49Q521 44 518 40Q461 -19 377 -19Q316 -19 263 6T176 78Q130 139 115 231H59Q46 231 48 244L58 298Q60 307 69 307H107L106 347L107 387H59Q46 387 48 400L58 454Q60 463 69 463H115Q130
555 176 617Q210 663 263 688T377 713Q448 713 506 677Q513 674 511 666L497 586Q495 579 489 578T478 581Q437 627 377 627Q343 627 315 608T268 557Q246 517 236 463H451Q464 463 462 450L452 396Q450 387 441 387H229L228 347L229 307H423Q436 307 434 294L425
240Q423 231 414 231H236Q245 179 268 137Q286 105 314 86T377 67Q449 67 496 119Q501 124 508 122T515 113L521 49Z" />
<glyph unicode="&#x2122;" glyph-name="trademark" horiz-adv-x="888" d="M365 667Q365 651 360 646T338 640L230 642V308Q230 293 225 288T203 282H184Q168 282 163 287T157 309V642L49 640Q32 640 26 645T20 667Q20 683 25 688T47 694H339Q356 694 360 688T365
667ZM818 308Q818 293 813 288T791 282H782Q765 282 760 287T755 308V632Q755 625 734 558T710 485L653 318Q648 303 641 298T615 293Q585 293 577 316L523 475L498 554Q479 614 477 632H476V308Q476 293 471 288T450 282H441Q425 282 420 287T414 309V671Q414
687 419 692T441 698H478Q506 698 514 675L568 517L594 435Q612 381 615 357H616Q617 367 635 430L659 504L718 673Q720 682 722 686T732 694T753 698H791Q807 698 812 692T818 672V308Z" />
<glyph unicode="&#x221a;" glyph-name="radical" horiz-adv-x="449" d="M512 765T512 730T469 695H399Q398 686 382 627L218 -7Q216 -13 214 -23T210 -38T205 -50T200 -61T193 -68T184 -73T172 -75Q159 -75 152 -69T142 -58T136 -39L127 -4Q121 21 111 64T91 144T73
213Q71 211 64 198T52 180T39 168T21 161Q9 161 -1 170T-11 192Q-11 198 -9 204T-4 214T3 225T10 235L85 350Q102 376 121 376Q130 376 136 373T147 363T152 351T156 336T159 323Q162 310 174 260T194 183H195L207 231L324 684Q325 687 327 698T330 716T335 732T343
747T353 758T368 765H468Q512 765 512 730Z" />
<glyph unicode="&#x221e;" glyph-name="infinity" horiz-adv-x="950" d="M409 214L367 277Q340 317 324 338T279 381T220 403Q172 403 150 355T128 236Q128 54 221 54Q329 54 409 214ZM822 236Q822 418 729 418Q621 418 541 258L583 195Q610 155 626 134T671 91T730
69Q778 69 800 117T822 236ZM908 344T908 236T846 49T688 -30Q574 -30 472 120Q381 -31 261 -31Q166 -31 104 48T42 236T104 423T262 502Q376 502 478 352Q569 503 689 503Q784 503 846 424Z" />
<glyph unicode="&#xfb01;" glyph-name="f_i" horiz-adv-x="506" d="M450 628Q450 602 441 593T406 584H383Q356 584 348 593T339 628V651Q339 677 348 686T383 695H406Q433 695 441 686T450 651V628ZM449 44Q449 18 440 9T405 0H385Q358 0 350 9T341 44V428Q341
454 350 463T385 472H405Q432 472 440 463T449 428V44ZM280 472T280 440T236 408H186V44Q186 18 177 9T142 0H123Q96 0 87 9T78 45V408Q61 408 53 409T35 417T25 440T34 462T53 471T78 472V552Q78 630 116 667T214 704Q237 704 258 698Q274 694 277 690T280 668V637Q280
612 269 612Q264 612 256 620Q240 640 216 640Q183 640 183 578V472H236Q280 472 280 440Z" />
<glyph unicode="&#xfb02;" glyph-name="f_l" horiz-adv-x="506" d="M280 472T280 440T236 408H186V44Q186 18 177 9T142 0H123Q96 0 87 9T78 45V408Q61 408 53 409T35 417T25 440T34 462T53 471T78 472V552Q78 630 116 667T214 704Q237 704 258 698Q274 694 277
690T280 668V640Q280 615 269 615Q264 615 259 620Q242 640 216 640Q183 640 183 578V472H236Q280 472 280 440ZM449 44Q449 18 440 9T405 0H385Q358 0 350 9T341 44V650Q341 676 350 685T385 694H405Q432 694 440 685T449 650V44Z" />
</font>
</defs>
</svg>
