<?xml version="1.0" standalone="no"?> <!DOCTYPE svg PUBLIC "-//W3C//DTD SVG 1.0//EN" "http://www.w3.org/TR/2001/REC-SVG-20010904/DTD/svg10.dtd" > <svg xmlns="http://www.w3.org/2000/svg" width="100%" height="100%">
<defs >
<font id="LMSans10-Oblique" horiz-adv-x="540" ><font-face
    font-family="LM Sans 10"
    units-per-em="1000"
    panose-1="0 0 5 0 0 0 0 0 0 0"
    ascent="870"
    descent="-250"
    alphabetic="0" />
<missing-glyph horiz-adv-x="364" d="M33 0V666H298V0H33ZM66 33H265V633H66V33Z" />
<glyph unicode=" " glyph-name="space" horiz-adv-x="333" />
<glyph unicode="!" glyph-name="exclam" horiz-adv-x="319" d="M349 694L239 218L230 175H163L172 218L266 694H349ZM201 0H118L136 83H219L201 0Z" />
<glyph unicode="&quot;" glyph-name="quotedbl" horiz-adv-x="434" d="M269 430H191L252 716H330L269 430ZM425 430H347L408 716H486L425 430Z" />
<glyph unicode="#" glyph-name="numbersign" horiz-adv-x="833" d="M808 150Q804 130 771 130H546L402 -170Q391 -194 375 -194Q367 -194 362 -188T359 -174Q362 -161 367 -156L505 130H317L173 -170Q162 -194 146 -194Q138 -194 133 -188T130 -174Q133 -161 138
-156L276 130H117Q107 130 102 130T91 136T88 150Q92 170 126 170H296L372 330H160Q150 330 144 330T133 336T130 350Q135 370 168 370H393L536 670Q549 694 564 694Q572 694 576 688T579 674Q576 661 571 656L434 370H622L765 670Q778 694 793 694Q801 694 805
688T808 674Q805 661 800 656L663 370H822Q832 370 837 370T847 364T850 350Q846 330 812 330H642L566 170H778Q788 170 794 170T805 164T808 150ZM601 330H413L337 170H525L601 330Z" />
<glyph unicode="$" glyph-name="dollar" horiz-adv-x="500" d="M484 195Q469 121 411 63T277 -8L267 -56H209L219 -10Q128 -1 56 58L83 126Q140 64 232 54L289 322Q250 332 223 351T183 391T165 437T161 479T165 513Q179 578 233 633T370 703L380 750H438L429
704Q503 699 565 649L539 583Q487 633 415 640L364 399Q440 383 469 324T484 195ZM309 414L357 638Q312 628 281 597T241 526Q233 491 249 459T309 414ZM409 182Q418 226 400 261T344 308L291 57Q338 70 369 105T409 182Z" />
<glyph unicode="%" glyph-name="percent" horiz-adv-x="833" d="M449 548Q431 463 378 405T270 347T185 404T173 549Q191 635 245 692T355 750Q410 750 439 693T449 548ZM814 730Q812 723 802 712L208 -40Q197 -56 184 -56Q176 -56 172 -50T168 -36L179 -18L774
734Q787 750 798 750Q806 750 811 744T814 730ZM807 145Q789 60 736 2T627 -56T542 1T530 146Q548 232 602 289T713 347Q767 347 796 290T807 145ZM381 549Q393 604 382 646T342 689Q336 689 330 688T311 678T289 655T267 614T247 548Q239 509 239 481T243 440T257
418T272 409T283 408Q312 408 340 449T381 549ZM738 146Q751 201 740 243T700 286Q694 286 688 285T669 275T647 252T625 211T605 145Q597 106 597 78T601 37T615 15T629 6T640 5Q669 5 697 46T738 146Z" />
<glyph unicode="&amp;" glyph-name="ampersand" horiz-adv-x="758" d="M700 -7Q636 -22 580 -22Q495 -22 432 36Q316 -22 220 -22Q142 -22 100 27T73 146Q86 208 142 257Q145 260 229 322L256 342L267 353Q268 356 266 363Q257 450 272 518Q290 601 340 658T452
716Q509 716 535 668T548 559Q538 512 491 462T351 343Q380 234 460 122Q526 167 588 245Q645 314 689 405L747 387Q649 189 499 79Q543 42 595 42Q653 42 714 60L700 -7ZM479 560Q480 575 482 596T473 636T438 655Q411 655 383 629T344 552L342 544Q341 535 340
526T337 501T336 472T336 439T340 404Q403 452 437 488T479 560ZM390 80Q382 90 364 118T320 197T281 292Q279 291 259 276T222 249T204 235Q163 203 153 153Q144 110 164 76T235 42Q309 42 390 80Z" />
<glyph unicode="&apos;" glyph-name="quotesingle" horiz-adv-x="278" d="M269 430H191L252 716H330L269 430Z" />
<glyph unicode="(" glyph-name="parenleft" horiz-adv-x="389" d="M279 -250H218Q63 -75 132 250Q168 413 240 536Q273 592 315 641T377 707T430 750H491Q385 663 316 541Q245 415 210 250Q190 158 188 78T192 -51T219 -146T250 -210T279 -250Z" />
<glyph unicode=")" glyph-name="parenright" horiz-adv-x="389" d="M362 250Q330 92 254 -36Q221 -92 179 -141T117 -207T64 -250H3Q111 -161 178 -41Q249 85 284 250Q304 342 306 422T302 551T275 646T244 710T215 750H276Q431 575 362 250Z" />
<glyph unicode="*" glyph-name="asterisk" horiz-adv-x="500" d="M528 436Q525 419 512 410T486 400Q475 400 457 416L378 480Q364 374 356 341Q353 324 341 315T314 306Q302 306 293 314T287 341Q290 356 306 414T325 480L215 413Q194 400 183 400Q171 400 163
409T157 436Q160 449 166 455T190 469L311 528Q281 546 255 562T217 584T204 593Q192 602 196 620Q199 637 212 646T237 656T262 645L345 576Q346 584 355 642T367 715Q370 732 382 741T409 750Q421 750 430 742T436 715Q429 678 398 576L509 643Q530 656 540 656Q552
656 561 647T567 620Q564 607 558 601T534 587L412 528Q441 510 468 494T506 471T519 463Q531 454 528 436Z" />
<glyph unicode="+" glyph-name="plus" horiz-adv-x="778" d="M774 250Q770 230 737 230H458L398 -50Q391 -83 371 -83T358 -50L418 230H138Q128 230 123 230T112 236T109 250Q113 270 146 270H426L486 550Q493 583 513 583T526 550L466 270H745Q755 270 760 270T771
264T774 250Z" />
<glyph unicode="," glyph-name="comma" horiz-adv-x="278" d="M180 1L111 -125H70L122 0H97L115 83H198L180 1Z" />
<glyph unicode="-" glyph-name="hyphen" horiz-adv-x="333" d="M317 193H52L64 251H329L317 193Z" />
<glyph unicode="." glyph-name="period" horiz-adv-x="278" d="M180 0H97L115 83H198L180 0Z" />
<glyph unicode="/" glyph-name="slash" horiz-adv-x="500" d="M598 730Q597 725 589 712L48 -230Q38 -250 23 -250Q15 -250 10 -244T7 -230Q8 -225 16 -212L557 730Q567 750 582 750Q590 750 595 744T598 730Z" />
<glyph unicode="0" glyph-name="zero" horiz-adv-x="500" d="M526 326Q495 175 436 88Q401 36 350 7T244 -22Q194 -22 153 6T97 101Q82 181 111 326Q143 477 199 562Q277 678 394 678Q438 678 477 655T534 579Q561 490 526 326ZM451 338Q478 467 471 523Q455 617
380 617Q300 617 247 516Q217 459 192 338Q165 212 169 149Q172 96 195 68T258 39Q339 39 392 146Q424 211 451 338Z" />
<glyph unicode="1" glyph-name="one" horiz-adv-x="500" d="M424 0H95L107 58H232L343 578Q286 556 207 554L219 612Q351 617 423 678H443L311 58H436L424 0Z" />
<glyph unicode="2" glyph-name="two" horiz-adv-x="500" d="M449 0H50L64 64L214 188L306 259Q354 299 378 321T429 382T465 461Q479 523 450 568T353 614Q292 614 254 573T181 459Q178 465 174 472T168 483T165 488Q164 490 151 514Q233 678 380 678Q476 678
521 615T547 463Q539 424 514 387T468 331T410 280Q398 271 357 241T304 202L137 70H246Q252 70 264 70T282 71H464L449 0Z" />
<glyph unicode="3" glyph-name="three" horiz-adv-x="500" d="M495 180Q478 99 405 39T242 -22Q118 -22 59 82L83 142Q105 93 152 66T253 39Q309 39 351 80T406 181Q413 200 411 224T401 271T370 308T307 324H236L249 385Q325 391 329 392Q376 402 413 440T460
526Q469 571 445 595T379 620Q331 620 282 592T201 514L177 568Q219 620 276 649T392 678Q467 678 511 634T542 526Q531 476 493 430T394 354Q447 337 478 291T495 180Z" />
<glyph unicode="4" glyph-name="four" horiz-adv-x="500" d="M507 171H408L372 0H293L329 171H64L77 232L420 656H511L421 232H520L507 171ZM348 232L429 612Q421 575 331 456T155 232H348Z" />
<glyph unicode="5" glyph-name="five" horiz-adv-x="500" d="M492 203Q472 109 394 44T225 -22Q166 -22 122 5T55 76L100 132Q114 91 151 65T237 39Q245 39 255 40T289 50T332 74T373 124T404 205Q421 288 400 327T337 366Q259 366 208 287H142L220 656H555L542
592H279L235 386Q290 427 351 427Q429 427 470 362T492 203Z" />
<glyph unicode="6" glyph-name="six" horiz-adv-x="500" d="M504 222Q491 164 469 125T403 46Q329 -22 246 -22Q218 -22 194 -14T144 17T108 78T93 177T110 322Q144 479 244 578T453 678Q508 678 555 658L542 599Q494 620 442 620Q370 620 306 558T207 379Q291
462 393 462Q463 462 494 392T504 222ZM422 222Q439 297 424 339Q404 401 341 401Q282 401 238 354T181 247Q178 239 174 219Q172 205 172 194T171 158T175 116T189 79T216 50T259 39Q323 39 372 101Q406 143 422 222Z" />
<glyph unicode="7" glyph-name="seven" horiz-adv-x="500" d="M583 591Q540 552 495 500T397 372T300 195T234 -11H150Q220 324 514 586H393Q387 586 375 586T356 585H166L181 656H596L583 591Z" />
<glyph unicode="8" glyph-name="eight" horiz-adv-x="500" d="M495 180Q478 99 405 39T244 -22Q158 -22 111 38T80 180Q94 242 143 288T254 355Q197 375 176 416T163 503Q178 574 245 626T394 678Q474 678 519 626T550 503Q541 458 502 417T395 355Q448 336 478
290T495 180ZM480 503Q491 553 465 586T381 620Q326 620 285 588T233 503T248 418T332 385Q387 385 428 417T480 503ZM414 181Q429 252 399 288T318 324Q270 324 224 289T161 181Q147 113 175 76T258 39Q310 39 355 75T414 181Z" />
<glyph unicode="9" glyph-name="nine" horiz-adv-x="500" d="M528 335Q495 177 399 78T200 -22Q130 -22 77 24L119 77Q157 39 214 39Q278 39 339 100T432 277Q347 194 245 194Q175 194 144 264T134 434Q156 541 237 611Q315 678 397 678Q425 678 449 670T497 638T532
577T545 478T528 335ZM458 411Q462 425 462 435Q466 459 467 485T464 545T440 599T385 620Q324 620 273 563Q235 520 216 434Q200 355 214 315Q235 255 297 255Q354 255 399 301T458 411Z" />
<glyph unicode=":" glyph-name="colon" horiz-adv-x="278" d="M257 361H174L191 444H274L257 361ZM180 0H97L115 83H198L180 0Z" />
<glyph unicode=";" glyph-name="semicolon" horiz-adv-x="278" d="M257 361H174L191 444H274L257 361ZM180 1L111 -125H70L122 0H97L115 83H198L180 1Z" />
<glyph unicode="&lt;" glyph-name="less" horiz-adv-x="778" d="M690 -20Q688 -28 681 -34T665 -40Q660 -40 649 -33L150 228Q134 237 136 250Q139 263 160 272L769 533Q784 540 789 540Q797 540 802 534T805 520Q802 508 781 498L203 250L675 2Q692 -7 690 -20Z" />
<glyph unicode="=" glyph-name="equal" horiz-adv-x="778" d="M795 350Q791 330 757 330H160Q150 330 144 330T133 336T130 350Q135 370 168 370H767Q777 370 782 370T792 364T795 350ZM753 150Q749 130 716 130H117Q107 130 102 130T91 136T88 150Q92 170 126
170H723Q733 170 739 170T750 164T753 150Z" />
<glyph unicode="&gt;" glyph-name="greater" horiz-adv-x="778" d="M747 250Q745 236 723 228L114 -33Q99 -40 94 -40Q86 -40 82 -34T79 -20Q82 -7 102 2L680 250L208 498Q191 507 194 520Q198 540 218 540Q223 540 234 533L733 272Q750 263 747 250Z" />
<glyph unicode="?" glyph-name="question" horiz-adv-x="472" d="M532 550Q517 477 449 430Q390 387 353 335T304 229L292 175H225L232 207Q268 378 403 475Q445 507 454 551Q460 581 454 601T431 629T399 641T361 644Q276 644 204 589L195 652Q283 705 374 705Q476
705 510 659T532 550ZM263 0H180L198 83H281L263 0Z" />
<glyph unicode="@" glyph-name="at" horiz-adv-x="667" d="M628 85Q587 48 524 19T386 -11Q250 -11 174 93T130 347T283 601T537 705Q761 705 687 362Q673 297 644 247T579 171T512 133T451 120Q376 120 335 185T314 347Q334 443 403 508T547 574Q591 574 626
549Q612 644 523 644Q422 644 327 559T205 347Q179 224 235 137T402 50Q475 50 554 81Q563 85 580 85H628ZM594 277T609 347T602 465T534 513T447 465T389 347T396 229T463 181T551 229Z" />
<glyph unicode="A" glyph-name="A" horiz-adv-x="667" d="M638 0H546L513 204H222L102 0H28L437 694H525L638 0ZM503 260L467 517Q456 601 457 622H456Q445 594 359 441L255 260H503Z" />
<glyph unicode="B" glyph-name="B" horiz-adv-x="667" d="M650 188Q634 113 551 57T361 0H97L245 694H482Q587 694 648 642T694 520Q682 465 626 423T494 363Q573 350 618 301T650 188ZM615 519Q626 569 576 603T442 638H316L263 391H379Q476 391 540 430T615
519ZM569 189Q582 248 529 289T395 330H250L192 56H345Q426 56 491 94T569 189Z" />
<glyph unicode="C" glyph-name="C" horiz-adv-x="639" d="M595 34Q534 1 493 -10T390 -22Q296 -22 231 30T143 166T141 347Q172 498 288 607T546 716Q637 716 722 681L690 600Q619 652 532 652Q430 652 343 562T230 347Q216 268 227 200T285 87T405 42Q460 42
502 54T604 103L595 34Z" />
<glyph unicode="D" glyph-name="D" horiz-adv-x="722" d="M737 341Q707 199 597 100T359 0H96L244 694H506Q634 694 701 591T737 341ZM651 341Q679 472 628 555T471 638H318L194 56H347Q453 56 538 135T651 341Z" />
<glyph unicode="E" glyph-name="E" horiz-adv-x="597" d="M554 0H94L241 691H687L673 626H490Q484 626 472 626T454 627H316L266 390H596L583 329H253L198 70H407Q413 70 425 70T443 71H569L554 0Z" />
<glyph unicode="F" glyph-name="F" horiz-adv-x="569" d="M659 626H483Q477 626 465 626T447 627H316L263 376H565L552 315H250L183 0H94L241 691H673L659 626Z" />
<glyph unicode="G" glyph-name="G" horiz-adv-x="667" d="M605 27Q494 -22 386 -22Q251 -22 180 86T141 347Q173 499 289 607T545 716Q589 716 626 708T682 692T733 667L701 586Q634 652 531 652Q430 652 344 563T230 347T251 132T401 42Q465 42 534 62L572 238H440L453
299H663L605 27Z" />
<glyph unicode="H" glyph-name="H" horiz-adv-x="708" d="M613 0H524L594 330H253L183 0H94L242 694H331L266 391H607L672 694H761L613 0Z" />
<glyph unicode="I" glyph-name="I" horiz-adv-x="278" d="M183 0H94L242 694H331L183 0Z" />
<glyph unicode="J" glyph-name="J" horiz-adv-x="472" d="M420 149Q402 67 345 23T208 -22Q123 -22 46 20L76 95Q95 68 126 54T192 39Q233 39 263 53T307 90T326 126T334 152L450 694H536L420 149Z" />
<glyph unicode="K" glyph-name="K" horiz-adv-x="694" d="M651 0H559L391 364L229 227L181 0H96L244 694H329L250 323L692 694H785L458 420L651 0Z" />
<glyph unicode="L" glyph-name="L" horiz-adv-x="542" d="M499 0H94L242 694H331L197 64H246L513 66L499 0Z" />
<glyph unicode="M" glyph-name="M" horiz-adv-x="875" d="M774 0H696L828 620L827 621Q825 617 759 497L684 370L477 22H404L338 411Q310 585 311 620H310L178 0H100L248 694H361L376 607L445 193Q454 128 456 93H457Q480 144 605 355L808 694H922L774 0Z" />
<glyph unicode="N" glyph-name="N" horiz-adv-x="708" d="M611 0H487L345 486L307 623H306L174 0H96L244 694H368L509 208L547 71H548L681 694H759L611 0Z" />
<glyph unicode="O" glyph-name="O" horiz-adv-x="736" d="M752 345Q720 190 605 84T362 -22Q237 -22 167 83T129 345Q163 500 277 608T520 716Q646 716 715 608T752 345ZM667 360Q695 490 646 571T506 652Q417 652 333 572T222 360Q192 220 238 132T377 43Q467
43 552 131T667 360Z" />
<glyph unicode="P" glyph-name="P" horiz-adv-x="639" d="M687 492Q669 408 588 349T413 289H246L185 0H96L244 694H493Q594 694 649 634T687 492ZM606 492Q620 557 580 597T459 638H318L256 347H397Q480 347 536 388T606 492Z" />
<glyph unicode="Q" glyph-name="Q" horiz-adv-x="736" d="M752 345Q734 258 682 176T540 33L625 -125H522L462 -4Q413 -22 362 -22Q237 -22 167 83T129 345Q163 500 277 608T520 716Q646 716 715 608T752 345ZM666 345Q695 480 647 566T506 652Q415 652 330 566T215
345Q187 210 236 126T377 42Q390 42 404 44T427 48L435 51L364 194H453L510 89Q634 184 666 345Z" />
<glyph unicode="R" glyph-name="R" horiz-adv-x="646" d="M617 0H528L407 317H249L182 0H96L244 694H485Q591 694 652 639T697 508Q684 447 628 398T488 326L617 0ZM616 508Q628 563 587 600T462 638H318L262 378H406Q491 378 547 415T616 508Z" />
<glyph unicode="S" glyph-name="S" horiz-adv-x="556" d="M539 189Q521 104 444 41T270 -22Q149 -22 54 47L86 128Q165 47 284 47Q349 47 398 87T458 179Q470 236 436 272Q419 290 402 297T323 321Q273 334 245 347T193 392Q151 449 166 519Q183 597 258 656T434
716T607 666L575 586Q511 650 419 650Q353 650 306 614T248 531Q238 480 266 452Q284 434 300 427T361 408Q433 389 461 375T515 326Q556 268 539 189Z" />
<glyph unicode="T" glyph-name="T" horiz-adv-x="681" d="M776 623H642Q636 623 625 623T607 624H518L385 0H296L429 624H339Q333 624 321 624T302 623H168L182 688H790L776 623Z" />
<glyph unicode="U" glyph-name="U" horiz-adv-x="688" d="M643 233Q620 125 532 52T341 -22Q238 -22 179 51T144 233L242 694H331L232 232Q212 137 249 86T354 34Q422 34 483 86T564 232L663 694H741L643 233Z" />
<glyph unicode="V" glyph-name="V" horiz-adv-x="667" d="M800 694L379 0H287L162 694H255L332 246Q356 103 355 72H356Q379 127 516 352L722 694H800Z" />
<glyph unicode="W" glyph-name="W" horiz-adv-x="944" d="M1077 694L726 0H639L609 401Q597 562 601 621H600Q586 578 472 347L298 0H217L162 694H248L269 412L280 245Q285 91 283 74H284Q300 127 426 382L583 694H664L689 353Q697 252 700 182T702 92L701 72H702Q720
128 847 380L1005 694H1077Z" />
<glyph unicode="X" glyph-name="X" horiz-adv-x="667" d="M652 0H548L391 306L110 0H14L361 366L176 694H280L418 433L662 694H758L447 366L652 0Z" />
<glyph unicode="Y" glyph-name="Y" horiz-adv-x="667" d="M811 694L435 277L376 0H290L349 278L151 694H256L392 404Q393 403 416 347L497 442L519 468L723 694H811Z" />
<glyph unicode="Z" glyph-name="Z" horiz-adv-x="611" d="M560 0H56L65 43L576 633H440Q434 633 422 633T403 632H203L217 694H702L693 653L183 64H215L478 66H574L560 0Z" />
<glyph unicode="[" glyph-name="bracketleft" horiz-adv-x="289" d="M213 -250H49L261 750H425L412 689H320L134 -189H226L213 -250Z" />
<glyph unicode="\" glyph-name="backslash" horiz-adv-x="500" d="M394 -230Q390 -250 370 -250Q355 -250 353 -228L212 712L211 730Q216 750 235 750Q249 750 253 728L393 -212L394 -230Z" />
<glyph unicode="]" glyph-name="bracketright" horiz-adv-x="289" d="M133 -250H-31L-18 -189H74L260 689H168L181 750H345L133 -250Z" />
<glyph unicode="^" glyph-name="asciicircum" horiz-adv-x="556" d="M685 584L668 562L423 685L125 562L119 584L436 744L685 584Z" />
<glyph unicode="_" glyph-name="underscore" horiz-adv-x="667" d="M632 -164H-35L-18 -86H649L632 -164Z" />
<glyph unicode="`" glyph-name="grave" horiz-adv-x="500" d="M432 527H371L257 694H335L432 527Z" />
<glyph unicode="a" glyph-name="a" horiz-adv-x="481" d="M399 0H324L332 36Q261 -11 156 -11Q125 -11 104 2T76 35T66 75T68 113Q82 176 167 209T373 245L382 288Q394 341 375 371T319 402Q239 402 158 352L166 418Q250 461 332 461Q402 461 439 413T460 289L399
0ZM349 132L362 194Q155 184 140 115Q134 85 158 68T220 50Q267 50 302 69Q340 88 349 132Z" />
<glyph unicode="b" glyph-name="b" horiz-adv-x="517" d="M527 223Q506 124 437 57T292 -11Q219 -11 170 46L160 0H82L230 694H305L241 396Q326 455 415 455Q484 455 516 387T527 223ZM449 223Q468 310 436 352T351 394Q283 394 231 335L184 114Q205 50 268 50Q323
50 377 92T449 223Z" />
<glyph unicode="c" glyph-name="c" horiz-adv-x="444" d="M424 40Q339 -11 250 -11Q158 -11 111 58T83 222Q103 316 179 388T354 461Q400 461 430 452T499 418L473 353Q439 379 411 388T341 397Q268 397 222 345T161 223Q146 149 174 101T264 53Q351 53 432 107L424 40Z" />
<glyph unicode="d" glyph-name="d" horiz-adv-x="517" d="M434 0H356L367 52Q289 -11 206 -11Q134 -11 98 56T83 222Q104 319 170 387T310 455Q389 455 444 400L507 694H582L434 0ZM386 139L428 339Q402 394 343 394Q288 394 234 352T161 221Q143 135 174 93T260
50Q301 50 340 78Q379 108 386 139Z" />
<glyph unicode="e" glyph-name="e" horiz-adv-x="444" d="M461 219H152Q139 146 171 98T263 50Q346 50 427 106L419 41Q335 -11 249 -11Q159 -11 111 58T83 226Q103 323 177 392T334 461Q424 461 456 388Q483 327 461 219ZM415 274Q420 338 393 369T321 400Q278
400 235 365T168 274H415Z" />
<glyph unicode="f" glyph-name="f" horiz-adv-x="306" d="M480 627Q445 644 403 644Q390 644 377 642T345 632T312 607T293 563L267 444H380L368 386H258L176 0H101L183 386H109L121 444H195L215 534Q231 608 288 656T417 705Q451 705 495 694L480 627Z" />
<glyph unicode="g" glyph-name="g" horiz-adv-x="500" d="M568 392Q528 395 510 395Q498 395 472 393T435 391L431 392Q455 348 443 292Q429 225 372 177T248 129Q197 129 164 158Q149 143 145 122Q134 69 192 69H280Q457 69 460 -35Q460 -52 456 -70Q444 -127
371 -166T205 -206Q113 -206 57 -167T13 -71Q18 -46 38 -18T99 32Q79 64 89 108Q98 152 136 193Q112 237 124 292Q138 360 195 407T318 455Q374 455 406 423Q487 455 571 455L568 392ZM361 238T373 292T364 372T306 398Q272 398 239 373T194 292T204 211T261 186Q298
186 329 212ZM386 -72Q391 -48 378 -33T338 -12T297 -5T265 -3H175Q149 -3 130 -12T102 -34T89 -55T83 -70V-71Q76 -105 115 -127T218 -149Q280 -149 329 -127T386 -72Z" />
<glyph unicode="h" glyph-name="h" horiz-adv-x="517" d="M435 0H357L419 291Q442 394 344 394Q292 394 258 349T211 245L159 0H81L229 694H304L237 383Q309 455 395 455Q531 455 498 298L435 0Z" />
<glyph unicode="i" glyph-name="i" horiz-adv-x="239" d="M156 0H81L175 444H250L156 0ZM284 566H195L214 655H303L284 566Z" />
<glyph unicode="j" glyph-name="j" horiz-adv-x="267" d="M171 -59Q157 -126 111 -165T15 -205Q-46 -205 -97 -171L-63 -110Q-38 -141 4 -141Q14 -141 24 -139T50 -131T77 -108T94 -69L203 444H278L171 -59ZM304 566H215L234 655H323L304 566Z" />
<glyph unicode="k" glyph-name="k" horiz-adv-x="489" d="M471 0H389L281 224L183 141L153 0H84L232 694H304L206 236L453 444H543L339 272L471 0Z" />
<glyph unicode="l" glyph-name="l" horiz-adv-x="239" d="M156 0H81L229 694H304L156 0Z" />
<glyph unicode="m" glyph-name="m" horiz-adv-x="794" d="M713 0H635L697 291Q701 310 701 324T697 356T673 384T621 394Q570 394 536 349T488 245L436 0H358L420 291Q424 310 424 324T420 356T396 384T344 394Q293 394 259 349T211 245L159 0H81L177 450H249L233
378Q308 455 396 455Q495 455 506 373Q580 455 673 455Q811 455 776 298L713 0Z" />
<glyph unicode="n" glyph-name="n" horiz-adv-x="517" d="M435 0H357L419 291Q442 394 344 394Q292 394 258 349T211 245L159 0H81L177 450H249L234 379Q243 390 259 403T315 436T395 455Q531 455 498 298L435 0Z" />
<glyph unicode="o" glyph-name="o" horiz-adv-x="500" d="M516 220Q495 123 417 56T247 -11Q158 -11 107 55T77 220Q98 319 177 390T348 461Q438 461 487 391T516 220ZM440 230Q458 313 425 356T334 400Q278 400 227 357T157 230Q139 145 171 99T260 53Q319 53
370 99T440 230Z" />
<glyph unicode="p" glyph-name="p" horiz-adv-x="517" d="M527 223Q506 123 437 56T293 -11Q219 -11 170 46L119 -194H41L176 444H251L241 395Q324 455 418 455Q488 455 517 386T527 223ZM449 223Q464 292 435 341T349 391Q282 391 231 333L188 132Q184 113 191
97Q215 50 267 50Q325 50 379 99T449 223Z" />
<glyph unicode="q" glyph-name="q" horiz-adv-x="517" d="M393 -194H315L367 50Q287 -11 203 -11Q132 -11 98 57T83 221Q104 321 173 388T319 455Q354 455 383 440T424 411T441 387L456 455H531L393 -194ZM389 140L419 280Q426 317 408 354T342 391Q285 391 231
343T161 221Q146 151 175 101T261 50Q322 50 372 107Q384 119 389 140Z" />
<glyph unicode="r" glyph-name="r" horiz-adv-x="342" d="M409 388Q335 386 277 338T202 214L157 0H82L178 450H248L228 359Q312 454 424 455L409 388Z" />
<glyph unicode="s" glyph-name="s" horiz-adv-x="383" d="M387 128Q372 57 316 21Q267 -11 194 -11Q115 -11 35 33L61 101Q126 52 206 52Q300 52 315 121Q319 140 313 153T292 174T266 185T236 193Q203 200 191 203T164 212T136 230Q91 271 103 330Q110 361 125
385T161 422T201 444T242 456T275 460T297 461Q371 461 434 429L408 364Q353 402 274 402Q189 402 176 340Q172 322 177 310T197 291T224 279T262 270Q303 262 324 253T368 220L372 214Q375 209 378 202T385 183T389 158T387 128Z" />
<glyph unicode="t" glyph-name="t" horiz-adv-x="361" d="M338 27Q256 -11 184 -11Q102 -11 128 119L185 386H101L113 444H200L227 571H296L269 444H410L398 386H257L204 136Q187 53 237 53T334 86L338 27Z" />
<glyph unicode="u" glyph-name="u" horiz-adv-x="517" d="M435 0H360L370 48Q290 -11 185 -11Q126 -11 109 19T104 109L175 444H253L183 113Q175 76 186 60T246 44Q297 44 338 72T390 154L451 444H529L435 0Z" />
<glyph unicode="v" glyph-name="v" horiz-adv-x="461" d="M540 444L274 0H186L108 444H186L228 185Q244 96 242 53H243Q262 103 342 236L465 444H540Z" />
<glyph unicode="w" glyph-name="w" horiz-adv-x="683" d="M762 444L531 0H443L423 248Q415 338 420 388H419Q406 340 336 206L230 0H151L108 444H184L200 271Q213 99 208 55H209Q226 111 300 256L397 444H467L487 231Q499 95 495 54H496Q508 87 580 232L689 444H762Z" />
<glyph unicode="x" glyph-name="x" horiz-adv-x="461" d="M460 0H377L267 188L82 0H0L243 229L100 444H183L286 279L455 444H537L309 229L460 0Z" />
<glyph unicode="y" glyph-name="y" horiz-adv-x="461" d="M540 444L209 -91Q166 -160 135 -182T71 -205Q35 -205 1 -197L9 -132Q45 -148 84 -148Q94 -148 100 -146T120 -131T153 -90L208 0L108 444H187L215 319Q257 128 249 57H250Q268 126 465 444H540Z" />
<glyph unicode="z" glyph-name="z" horiz-adv-x="435" d="M402 0H28L37 41L377 386H299Q293 386 281 386T263 385H124L136 444H494L486 405L147 61H232Q238 61 250 61T268 62H415L402 0Z" />
<glyph unicode="{" glyph-name="braceleft" horiz-adv-x="500" d="M376 -239Q374 -250 354 -250Q270 -250 223 -212Q193 -187 190 -156T198 -83L240 115Q248 150 240 175T213 213T176 232T139 239Q134 240 133 240T128 241T125 244T125 250Q127 261 141 261Q205
265 255 306Q278 326 286 347T310 444L349 627Q362 680 425 715T566 750Q574 750 577 750T582 747T584 739Q582 730 573 728Q540 726 514 718T478 702T452 682Q432 664 424 643T403 563L364 383Q360 366 356 354T337 320T292 280T218 250Q313 222 312 147Q312 141
295 56L263 -94Q255 -133 256 -142Q257 -174 283 -199T363 -228Q369 -229 371 -229T375 -232T376 -239Z" />
<glyph unicode="|" glyph-name="bar" horiz-adv-x="278" d="M113 -217Q106 -250 86 -250T73 -217L271 717Q278 750 298 750T311 717L113 -217Z" />
<glyph unicode="}" glyph-name="braceright" horiz-adv-x="500" d="M480 250Q478 239 464 239Q400 235 350 194Q327 174 319 153T295 56L256 -127Q244 -180 180 -215T39 -250Q32 -250 29 -250T23 -247T21 -239Q23 -230 33 -228Q65 -226 91 -218T127 -202T153 -182Q174
-165 181 -145T203 -63L241 117Q245 134 249 146T268 180T313 220T387 250Q292 278 293 353Q293 359 310 444L342 594Q350 630 349 642Q348 674 323 699T243 728Q238 729 237 729T232 730T229 733T229 739Q231 750 251 750Q335 750 382 712Q412 687 415 656T407
583L365 385Q358 350 365 325T392 287T429 268T466 261Q471 260 472 260T477 259T480 256T480 250Z" />
<glyph unicode="~" glyph-name="asciitilde" horiz-adv-x="556" d="M617 290L553 246Q529 229 489 211Q446 193 412 193Q371 193 319 227Q264 264 223 264Q155 264 55 193L45 210L108 254Q132 271 172 289Q217 307 249 307Q292 307 342 273Q363 259 373 254T401
242T438 236Q507 236 606 307L617 290Z" />
<glyph unicode="&#xa0;" glyph-name="uni00A0" horiz-adv-x="500" />
<glyph unicode="&#xa1;" glyph-name="exclamdown" horiz-adv-x="319" d="M290 417H207L224 500H307L290 417ZM160 -194H77L186 282L195 325H262L253 282L160 -194Z" />
<glyph unicode="&#xa2;" glyph-name="cent" horiz-adv-x="444" d="M424 40Q349 -4 274 -10L262 -64H198L211 -7Q137 8 102 73T83 222Q101 305 163 373T309 457L320 508H384L374 461Q410 460 437 451T499 418L473 353Q421 393 360 397L287 54Q364 61 432 107L424
40ZM225 59L295 390Q242 375 208 327T161 223Q148 162 165 118T225 59Z" />
<glyph unicode="&#xa3;" glyph-name="sterling" horiz-adv-x="667" d="M631 148Q617 79 567 29T456 -22Q413 -22 354 -6Q301 8 271 14T198 17T134 -8L84 42Q213 165 243 256Q254 286 254 315H134L148 379H247L239 436Q238 535 314 614T487 694Q568 694 611 635T637
491H559Q570 542 545 579T470 616Q410 616 364 566T318 453Q318 439 330 379H481L467 315H333Q330 280 318 246Q296 176 232 97Q283 97 389 70Q434 56 473 56Q502 56 524 83T553 148H631Z" />
<glyph unicode="&#xa5;" glyph-name="yen" horiz-adv-x="667" d="M811 694L512 362H633L619 298H453L435 277L421 213H601L588 149H408L376 0H290L322 149H143L156 213H335L349 278L339 298H174L188 362H309L151 694H256L392 404Q398 392 410 362H429L497 442L519
468L723 694H811Z" />
<glyph unicode="&#xa7;" glyph-name="section" horiz-adv-x="528" d="M537 200Q517 111 432 57Q456 13 445 -36Q429 -110 363 -161T219 -212T97 -163T66 -41H144Q135 -84 161 -113T234 -142T319 -111T367 -36Q380 25 293 71L202 117Q146 146 116 193T98 300Q107
342 134 379T202 442Q178 486 189 536Q205 610 271 661T415 712T537 663T568 541H490Q499 584 473 613T400 642T315 611T267 536Q254 475 341 429L432 383Q489 354 519 307T537 200ZM459 200Q473 266 385 312L294 358Q265 374 243 392Q189 362 176 300Q162 233
249 188L340 142Q370 126 391 107Q444 138 459 200Z" />
<glyph unicode="&#xa8;" glyph-name="dieresis" horiz-adv-x="500" d="M338 571H258L275 651H355L338 571ZM484 571H404L421 651H501L484 571Z" />
<glyph unicode="&#xa9;" glyph-name="copyright" horiz-adv-x="694" d="M799 491T768 347T614 102T347 0T123 101T74 347T228 592T495 694T719 593ZM730 347Q757 475 686 565T486 656T249 566T112 347Q84 219 155 129T355 38T592 128T730 347ZM523 150Q485 129
459 122T394 115Q304 115 261 184T237 347Q257 442 330 511T492 580Q552 580 602 557L583 506Q536 539 483 539Q419 539 365 483T293 347Q276 271 305 213T403 155Q465 155 528 194L523 150Z" />
<glyph unicode="&#xaa;" glyph-name="ordfeminine" horiz-adv-x="372" d="M419 394H356L361 419Q303 386 215 386Q166 386 149 414T138 473Q147 517 218 540T390 565L396 595Q405 632 388 653T340 675Q272 675 206 640L211 686Q279 716 349 716Q408 716 440 683T462
596L419 394ZM374 334Q372 324 361 318T337 311H167Q153 311 146 317T140 334Q146 356 177 356H347Q360 356 368 350T374 334ZM373 486L383 530Q207 521 198 474Q194 453 214 441T267 429Q308 429 335 442Q368 456 373 486Z" />
<glyph unicode="&#xab;" glyph-name="guillemotleft" horiz-adv-x="500" d="M277 0H216L158 219L309 439H370L236 219L277 0ZM444 0H383L325 219L476 439H537L403 219L444 0Z" />
<glyph unicode="&#xac;" glyph-name="logicalnot" horiz-adv-x="778" d="M753 150Q749 130 729 130Q721 130 716 136T713 150L751 330H146Q138 330 133 336T130 350T139 364T155 370H780Q788 370 792 364T795 350L753 150Z" />
<glyph unicode="&#xae;" glyph-name="registered" horiz-adv-x="694" d="M799 491T768 347T614 102T347 0T123 101T74 347T228 592T495 694T719 593ZM730 347Q757 475 686 565T486 656T249 566T112 347Q84 219 155 129T355 38T592 128T730 347ZM553 129H497L422
328H322L279 129H225L318 566H470Q537 566 576 531T604 449Q597 411 561 380T473 334L553 129ZM553 449Q561 483 535 506T456 530H365L330 367H421Q475 367 510 390T553 449Z" />
<glyph unicode="&#xaf;" glyph-name="overscore" horiz-adv-x="500" d="M554 579H193L207 643H568L554 579Z" />
<glyph unicode="&#xb0;" glyph-name="degree" horiz-adv-x="375" d="M444 556Q432 498 383 458T277 417Q219 417 187 457T167 556Q179 613 228 653T336 694Q393 694 424 654T444 556ZM404 556Q413 596 391 625T327 654T251 626T207 556T221 486T285 457T360 486T404 556Z" />
<glyph unicode="&#xb1;" glyph-name="plusminus" horiz-adv-x="778" d="M725 20Q721 0 688 0H89Q79 0 74 0T63 6T60 20Q65 40 98 40H378L436 313H156Q146 313 141 313T130 319T127 333Q131 353 164 353H444L504 633Q511 666 531 666T544 633L484 353H763Q773 353
778 353T789 347T792 333Q788 313 755 313H476L418 40H697Q707 40 712 40T722 34T725 20Z" />
<glyph unicode="&#xb4;" glyph-name="acute" horiz-adv-x="500" d="M539 694L353 527H292L461 694H539Z" />
<glyph unicode="&#xb5;" glyph-name="mu" horiz-adv-x="517" d="M435 0H360L370 48Q292 -11 185 -11Q167 -11 157 -9L118 -194H40L175 444H253L183 115Q179 93 179 77T195 53T246 44Q296 44 337 71T390 156L451 444H529L435 0Z" />
<glyph unicode="&#xb6;" glyph-name="paragraph" horiz-adv-x="611" d="M725 674Q721 654 688 654H638L465 -161Q458 -194 438 -194T425 -161L598 654H528L355 -161Q348 -194 328 -194T315 -161L398 230Q329 233 270 257T175 335T154 463Q174 558 262 626T454
694H697Q707 694 712 694T722 688T725 674Z" />
<glyph unicode="&#xb7;" glyph-name="middot" horiz-adv-x="778" d="M495 306H412L430 389H513L495 306Z" />
<glyph unicode="&#xb8;" glyph-name="cedilla" horiz-adv-x="444" d="M275 -24L173 -192H104L214 -24H275Z" />
<glyph unicode="&#xba;" glyph-name="ordmasculine" horiz-adv-x="419" d="M510 548Q496 480 432 433T291 386Q216 386 172 432T141 548Q156 617 220 666T362 716Q437 716 481 667T510 548ZM433 334Q431 324 420 318T396 311H155Q142 311 134 317T128 334Q130
343 141 349T165 356H406Q419 356 427 350T433 334ZM446 555Q458 613 430 643T352 674Q306 674 264 644T209 555Q196 495 224 463T301 431Q351 431 392 463T446 555Z" />
<glyph unicode="&#xbb;" glyph-name="guillemotright" horiz-adv-x="500" d="M436 219L284 0H223L358 219L316 439H377L436 219ZM269 219L117 0H56L191 219L149 439H210L269 219Z" />
<glyph unicode="&#xbf;" glyph-name="questiondown" horiz-adv-x="472" d="M352 417H269L286 500H369L352 417ZM383 -152Q281 -205 179 -205Q92 -205 62 -162T45 -50Q60 21 120 70Q221 154 245 268L257 325H324L317 293Q283 129 170 27Q133 -4 123 -52Q113 -101
129 -122T193 -144Q285 -144 373 -89L383 -152Z" />
<glyph unicode="&#xc0;" glyph-name="Agrave" horiz-adv-x="667" d="M638 0H546L513 204H222L102 0H28L437 694H525L638 0ZM503 260L467 517Q456 601 457 622H456Q445 594 359 441L255 260H503ZM586 746H497L326 868H437L586 746Z" />
<glyph unicode="&#xc1;" glyph-name="Aacute" horiz-adv-x="667" d="M638 0H546L513 204H222L102 0H28L437 694H525L638 0ZM503 260L467 517Q456 601 457 622H456Q445 594 359 441L255 260H503ZM708 868L485 746H396L597 868H708Z" />
<glyph unicode="&#xc2;" glyph-name="Acircumflex" horiz-adv-x="667" d="M638 0H546L513 204H222L102 0H28L437 694H525L638 0ZM503 260L467 517Q456 601 457 622H456Q445 594 359 441L255 260H503ZM645 736H586L510 833L392 736H333L488 870H548L645 736Z" />
<glyph unicode="&#xc3;" glyph-name="Atilde" horiz-adv-x="667" d="M638 0H546L513 204H222L102 0H28L437 694H525L638 0ZM503 260L467 517Q456 601 457 622H456Q445 594 359 441L255 260H503ZM682 855Q669 800 633 768T558 736Q531 736 500 761Q460 794 436
794Q399 794 384 736H323Q336 791 372 823T447 855Q474 855 505 830Q545 797 569 797Q606 797 621 855H682Z" />
<glyph unicode="&#xc4;" glyph-name="Adieresis" horiz-adv-x="667" d="M638 0H546L513 204H222L102 0H28L437 694H525L638 0ZM503 260L467 517Q456 601 457 622H456Q445 594 359 441L255 260H503ZM442 736H362L379 816H459L442 736ZM616 736H536L553 816H633L616 736Z" />
<glyph unicode="&#xc5;" glyph-name="Aring" horiz-adv-x="667" d="M638 0H546L513 204H222L102 0H28L437 694H525L638 0ZM503 260L467 517Q456 601 457 622H456Q445 594 359 441L255 260H503ZM548 778Q552 795 542 804T523 814T506 815Q456 815 448 778Q444 761
454 752T473 742T490 741Q540 741 548 778ZM609 777Q602 744 565 719T480 694Q433 694 407 718T387 779Q395 812 432 837T516 862T589 838T609 777Z" />
<glyph unicode="&#xc6;" glyph-name="AE" horiz-adv-x="861" d="M818 0H419L466 222H241L103 0H28L460 694H952L938 629H785Q779 629 767 629T749 630H641L590 391H860L847 330H577L522 70H692Q698 70 710 70T728 71H833L818 0ZM478 278L553 630H495L276 278H478Z" />
<glyph unicode="&#xc7;" glyph-name="Ccedilla" horiz-adv-x="639" d="M595 34Q534 1 493 -10T390 -22Q296 -22 231 30T143 166T141 347Q172 498 288 607T546 716Q637 716 722 681L690 600Q619 652 532 652Q430 652 343 562T230 347Q216 268 227 200T285 87T405
42Q460 42 502 54T604 103L595 34ZM388 -46L287 -214H218L327 -46H388Z" />
<glyph unicode="&#xc8;" glyph-name="Egrave" horiz-adv-x="597" d="M554 0H94L241 691H687L673 626H490Q484 626 472 626T454 627H316L266 390H596L583 329H253L198 70H407Q413 70 425 70T443 71H569L554 0ZM552 746H463L292 868H403L552 746Z" />
<glyph unicode="&#xc9;" glyph-name="Eacute" horiz-adv-x="597" d="M554 0H94L241 691H687L673 626H490Q484 626 472 626T454 627H316L266 390H596L583 329H253L198 70H407Q413 70 425 70T443 71H569L554 0ZM674 868L451 746H362L563 868H674Z" />
<glyph unicode="&#xca;" glyph-name="Ecircumflex" horiz-adv-x="597" d="M554 0H94L241 691H687L673 626H490Q484 626 472 626T454 627H316L266 390H596L583 329H253L198 70H407Q413 70 425 70T443 71H569L554 0ZM611 736H552L476 833L358 736H299L454 870H514L611 736Z" />
<glyph unicode="&#xcb;" glyph-name="Edieresis" horiz-adv-x="597" d="M554 0H94L241 691H687L673 626H490Q484 626 472 626T454 627H316L266 390H596L583 329H253L198 70H407Q413 70 425 70T443 71H569L554 0ZM408 736H328L345 816H425L408 736ZM582 736H502L519
816H599L582 736Z" />
<glyph unicode="&#xcc;" glyph-name="Igrave" horiz-adv-x="278" d="M183 0H94L242 694H331L183 0ZM341 746H252L81 868H192L341 746Z" />
<glyph unicode="&#xcd;" glyph-name="Iacute" horiz-adv-x="278" d="M183 0H94L242 694H331L183 0ZM564 868L341 746H252L453 868H564Z" />
<glyph unicode="&#xce;" glyph-name="Icircumflex" horiz-adv-x="278" d="M183 0H94L242 694H331L183 0ZM451 736H392L316 833L198 736H139L294 870H354L451 736Z" />
<glyph unicode="&#xcf;" glyph-name="Idieresis" horiz-adv-x="278" d="M183 0H94L242 694H331L183 0ZM248 736H168L185 816H265L248 736ZM422 736H342L359 816H439L422 736Z" />
<glyph unicode="&#xd1;" glyph-name="Ntilde" horiz-adv-x="708" d="M611 0H487L345 486L307 623H306L174 0H96L244 694H368L509 208L547 71H548L681 694H759L611 0ZM703 855Q690 800 654 768T579 736Q552 736 521 761Q481 794 457 794Q420 794 405 736H344Q357
791 393 823T468 855Q495 855 526 830Q566 797 590 797Q627 797 642 855H703Z" />
<glyph unicode="&#xd2;" glyph-name="Ograve" horiz-adv-x="736" d="M752 345Q720 190 605 84T362 -22Q237 -22 167 83T129 345Q163 500 277 608T520 716Q646 716 715 608T752 345ZM667 360Q695 490 646 571T506 652Q417 652 333 572T222 360Q192 220 238 132T377
43Q467 43 552 131T667 360ZM621 746H532L361 868H472L621 746Z" />
<glyph unicode="&#xd3;" glyph-name="Oacute" horiz-adv-x="736" d="M752 345Q720 190 605 84T362 -22Q237 -22 167 83T129 345Q163 500 277 608T520 716Q646 716 715 608T752 345ZM667 360Q695 490 646 571T506 652Q417 652 333 572T222 360Q192 220 238 132T377
43Q467 43 552 131T667 360ZM743 868L520 746H431L632 868H743Z" />
<glyph unicode="&#xd4;" glyph-name="Ocircumflex" horiz-adv-x="736" d="M752 345Q720 190 605 84T362 -22Q237 -22 167 83T129 345Q163 500 277 608T520 716Q646 716 715 608T752 345ZM667 360Q695 490 646 571T506 652Q417 652 333 572T222 360Q192 220 238
132T377 43Q467 43 552 131T667 360ZM680 736H621L545 833L427 736H368L523 870H583L680 736Z" />
<glyph unicode="&#xd5;" glyph-name="Otilde" horiz-adv-x="736" d="M752 345Q720 190 605 84T362 -22Q237 -22 167 83T129 345Q163 500 277 608T520 716Q646 716 715 608T752 345ZM667 360Q695 490 646 571T506 652Q417 652 333 572T222 360Q192 220 238 132T377
43Q467 43 552 131T667 360ZM717 855Q704 800 668 768T593 736Q566 736 535 761Q495 794 471 794Q434 794 419 736H358Q371 791 407 823T482 855Q509 855 540 830Q580 797 604 797Q641 797 656 855H717Z" />
<glyph unicode="&#xd6;" glyph-name="Odieresis" horiz-adv-x="736" d="M752 345Q720 190 605 84T362 -22Q237 -22 167 83T129 345Q163 500 277 608T520 716Q646 716 715 608T752 345ZM667 360Q695 490 646 571T506 652Q417 652 333 572T222 360Q192 220 238 132T377
43Q467 43 552 131T667 360ZM477 736H397L414 816H494L477 736ZM651 736H571L588 816H668L651 736Z" />
<glyph unicode="&#xd8;" glyph-name="Oslash" horiz-adv-x="778" d="M794 345Q761 191 641 85T383 -22Q305 -22 239 19L173 -65L125 -33L195 57Q93 168 129 345Q162 499 283 607T541 716Q615 716 685 675L751 759L800 727L728 637Q770 595 792 519T794 345ZM641
619Q588 655 527 655Q427 655 336 571T214 345Q185 205 243 117L641 619ZM709 345Q740 489 680 576L284 74Q335 39 397 39Q497 39 588 121T709 345Z" />
<glyph unicode="&#xd9;" glyph-name="Ugrave" horiz-adv-x="688" d="M643 233Q620 125 532 52T341 -22Q238 -22 179 51T144 233L242 694H331L232 232Q212 137 249 86T354 34Q422 34 483 86T564 232L663 694H741L643 233ZM597 746H508L337 868H448L597 746Z" />
<glyph unicode="&#xda;" glyph-name="Uacute" horiz-adv-x="688" d="M643 233Q620 125 532 52T341 -22Q238 -22 179 51T144 233L242 694H331L232 232Q212 137 249 86T354 34Q422 34 483 86T564 232L663 694H741L643 233ZM719 868L496 746H407L608 868H719Z" />
<glyph unicode="&#xdb;" glyph-name="Ucircumflex" horiz-adv-x="688" d="M643 233Q620 125 532 52T341 -22Q238 -22 179 51T144 233L242 694H331L232 232Q212 137 249 86T354 34Q422 34 483 86T564 232L663 694H741L643 233ZM656 736H597L521 833L403 736H344L499
870H559L656 736Z" />
<glyph unicode="&#xdc;" glyph-name="Udieresis" horiz-adv-x="688" d="M643 233Q620 125 532 52T341 -22Q238 -22 179 51T144 233L242 694H331L232 232Q212 137 249 86T354 34Q422 34 483 86T564 232L663 694H741L643 233ZM453 736H373L390 816H470L453 736ZM627
736H547L564 816H644L627 736Z" />
<glyph unicode="&#xdf;" glyph-name="germandbls" horiz-adv-x="481" d="M490 179Q473 98 410 44T274 -11Q265 -11 256 -10T238 -8T222 -5T208 -1T198 3T191 6T189 9L195 20L222 65Q252 50 286 50Q329 50 365 84T413 179Q430 262 399 321T294 383L307 444Q373
445 414 479T466 559Q474 596 453 620T389 644Q377 644 364 642T332 631T297 602T274 551L157 0H82L199 552Q214 624 275 664T403 705Q473 705 514 663T543 558Q534 517 501 478T415 411Q470 372 487 309T490 179Z" />
<glyph unicode="&#xe0;" glyph-name="agrave" horiz-adv-x="481" d="M399 0H324L332 36Q261 -11 156 -11Q125 -11 104 2T76 35T66 75T68 113Q82 176 167 209T373 245L382 288Q394 341 375 371T319 402Q239 402 158 352L166 418Q250 461 332 461Q402 461 439 413T460
289L399 0ZM349 132L362 194Q155 184 140 115Q134 85 158 68T220 50Q267 50 302 69Q340 88 349 132ZM422 527H361L247 694H325L422 527Z" />
<glyph unicode="&#xe1;" glyph-name="aacute" horiz-adv-x="481" d="M399 0H324L332 36Q261 -11 156 -11Q125 -11 104 2T76 35T66 75T68 113Q82 176 167 209T373 245L382 288Q394 341 375 371T319 402Q239 402 158 352L166 418Q250 461 332 461Q402 461 439 413T460
289L399 0ZM349 132L362 194Q155 184 140 115Q134 85 158 68T220 50Q267 50 302 69Q340 88 349 132ZM529 694L343 527H282L451 694H529Z" />
<glyph unicode="&#xe2;" glyph-name="acircumflex" horiz-adv-x="481" d="M399 0H324L332 36Q261 -11 156 -11Q125 -11 104 2T76 35T66 75T68 113Q82 176 167 209T373 245L382 288Q394 341 375 371T319 402Q239 402 158 352L166 418Q250 461 332 461Q402 461 439
413T460 289L399 0ZM349 132L362 194Q155 184 140 115Q134 85 158 68T220 50Q267 50 302 69Q340 88 349 132ZM507 525H448L378 648L256 525H197L358 697H418L507 525Z" />
<glyph unicode="&#xe3;" glyph-name="atilde" horiz-adv-x="481" d="M399 0H324L332 36Q261 -11 156 -11Q125 -11 104 2T76 35T66 75T68 113Q82 176 167 209T373 245L382 288Q394 341 375 371T319 402Q239 402 158 352L166 418Q250 461 332 461Q402 461 439 413T460
289L399 0ZM349 132L362 194Q155 184 140 115Q134 85 158 68T220 50Q267 50 302 69Q340 88 349 132ZM549 670Q536 615 500 583T426 551Q400 551 367 576Q327 609 303 609Q266 609 252 551H191Q204 606 240 638T314 670Q342 670 373 645Q413 612 437 612Q474 612
488 670H549Z" />
<glyph unicode="&#xe4;" glyph-name="adieresis" horiz-adv-x="481" d="M399 0H324L332 36Q261 -11 156 -11Q125 -11 104 2T76 35T66 75T68 113Q82 176 167 209T373 245L382 288Q394 341 375 371T319 402Q239 402 158 352L166 418Q250 461 332 461Q402 461 439
413T460 289L399 0ZM349 132L362 194Q155 184 140 115Q134 85 158 68T220 50Q267 50 302 69Q340 88 349 132ZM328 571H248L265 651H345L328 571ZM474 571H394L411 651H491L474 571Z" />
<glyph unicode="&#xe5;" glyph-name="aring" horiz-adv-x="481" d="M399 0H324L332 36Q261 -11 156 -11Q125 -11 104 2T76 35T66 75T68 113Q82 176 167 209T373 245L382 288Q394 341 375 371T319 402Q239 402 158 352L166 418Q250 461 332 461Q402 461 439 413T460
289L399 0ZM349 132L362 194Q155 184 140 115Q134 85 158 68T220 50Q267 50 302 69Q340 88 349 132ZM418 601Q422 618 412 627T393 637T376 638Q326 638 318 601Q314 584 324 575T343 565T360 564Q410 564 418 601ZM479 600Q471 567 434 542T350 517T277 541T257
602Q264 635 301 660T386 685Q433 685 459 661T479 600Z" />
<glyph unicode="&#xe6;" glyph-name="ae" horiz-adv-x="722" d="M740 219H447Q434 142 466 96T555 50Q632 50 705 106L697 41Q622 -11 541 -11Q444 -11 394 66Q372 40 337 23T262 0T201 -9T159 -11Q125 -11 104 4T77 39T69 80T71 114Q97 233 375 247L383 288Q394
342 375 372T320 402Q239 402 158 352L166 418Q250 461 332 461Q375 461 408 441T457 384Q536 461 625 461Q659 461 684 449T722 420T742 377T750 330T750 282T745 244T740 219ZM692 274Q695 313 688 340T667 379T640 395T613 400Q572 400 530 366T463 274H692ZM354
127Q356 135 364 191Q330 191 290 187T200 165T143 115Q138 87 160 69T222 50Q235 50 248 51T286 59T330 82T354 127Z" />
<glyph unicode="&#xe7;" glyph-name="ccedilla" horiz-adv-x="444" d="M424 40Q339 -11 250 -11Q158 -11 111 58T83 222Q103 316 179 388T354 461Q400 461 430 452T499 418L473 353Q439 379 411 388T341 397Q268 397 222 345T161 223Q146 149 174 101T264 53Q351
53 432 107L424 40ZM281 -46L180 -214H111L220 -46H281Z" />
<glyph unicode="&#xe8;" glyph-name="egrave" horiz-adv-x="444" d="M461 219H152Q139 146 171 98T263 50Q346 50 427 106L419 41Q335 -11 249 -11Q159 -11 111 58T83 226Q103 323 177 392T334 461Q424 461 456 388Q483 327 461 219ZM415 274Q420 338 393 369T321
400Q278 400 235 365T168 274H415ZM404 527H343L229 694H307L404 527Z" />
<glyph unicode="&#xe9;" glyph-name="eacute" horiz-adv-x="444" d="M461 219H152Q139 146 171 98T263 50Q346 50 427 106L419 41Q335 -11 249 -11Q159 -11 111 58T83 226Q103 323 177 392T334 461Q424 461 456 388Q483 327 461 219ZM415 274Q420 338 393 369T321
400Q278 400 235 365T168 274H415ZM511 694L325 527H264L433 694H511Z" />
<glyph unicode="&#xea;" glyph-name="ecircumflex" horiz-adv-x="444" d="M461 219H152Q139 146 171 98T263 50Q346 50 427 106L419 41Q335 -11 249 -11Q159 -11 111 58T83 226Q103 323 177 392T334 461Q424 461 456 388Q483 327 461 219ZM415 274Q420 338 393
369T321 400Q278 400 235 365T168 274H415ZM489 525H430L360 648L238 525H179L340 697H400L489 525Z" />
<glyph unicode="&#xeb;" glyph-name="edieresis" horiz-adv-x="444" d="M461 219H152Q139 146 171 98T263 50Q346 50 427 106L419 41Q335 -11 249 -11Q159 -11 111 58T83 226Q103 323 177 392T334 461Q424 461 456 388Q483 327 461 219ZM415 274Q420 338 393 369T321
400Q278 400 235 365T168 274H415ZM310 571H230L247 651H327L310 571ZM456 571H376L393 651H473L456 571Z" />
<glyph unicode="&#xec;" glyph-name="igrave" horiz-adv-x="239" d="M156 0H81L175 444H250L156 0ZM268 527H207L93 694H171L268 527Z" />
<glyph unicode="&#xed;" glyph-name="iacute" horiz-adv-x="239" d="M156 0H81L175 444H250L156 0ZM440 694L254 527H193L362 694H440Z" />
<glyph unicode="&#xee;" glyph-name="icircumflex" horiz-adv-x="239" d="M156 0H81L175 444H250L156 0ZM386 525H327L257 648L135 525H76L237 697H297L386 525Z" />
<glyph unicode="&#xef;" glyph-name="idieresis" horiz-adv-x="239" d="M156 0H81L175 444H250L156 0ZM207 571H127L144 651H224L207 571ZM353 571H273L290 651H370L353 571Z" />
<glyph unicode="&#xf1;" glyph-name="ntilde" horiz-adv-x="517" d="M435 0H357L419 291Q442 394 344 394Q292 394 258 349T211 245L159 0H81L177 450H249L234 379Q243 390 259 403T315 436T395 455Q531 455 498 298L435 0ZM567 670Q554 615 518 583T444 551Q418
551 385 576Q345 609 321 609Q284 609 270 551H209Q222 606 258 638T332 670Q360 670 391 645Q431 612 455 612Q492 612 506 670H567Z" />
<glyph unicode="&#xf2;" glyph-name="ograve" horiz-adv-x="500" d="M516 220Q495 123 417 56T247 -11Q158 -11 107 55T77 220Q98 319 177 390T348 461Q438 461 487 391T516 220ZM440 230Q458 313 425 356T334 400Q278 400 227 357T157 230Q139 145 171 99T260
53Q319 53 370 99T440 230ZM432 527H371L257 694H335L432 527Z" />
<glyph unicode="&#xf3;" glyph-name="oacute" horiz-adv-x="500" d="M516 220Q495 123 417 56T247 -11Q158 -11 107 55T77 220Q98 319 177 390T348 461Q438 461 487 391T516 220ZM440 230Q458 313 425 356T334 400Q278 400 227 357T157 230Q139 145 171 99T260
53Q319 53 370 99T440 230ZM539 694L353 527H292L461 694H539Z" />
<glyph unicode="&#xf4;" glyph-name="ocircumflex" horiz-adv-x="500" d="M516 220Q495 123 417 56T247 -11Q158 -11 107 55T77 220Q98 319 177 390T348 461Q438 461 487 391T516 220ZM440 230Q458 313 425 356T334 400Q278 400 227 357T157 230Q139 145 171 99T260
53Q319 53 370 99T440 230ZM517 525H458L388 648L266 525H207L368 697H428L517 525Z" />
<glyph unicode="&#xf5;" glyph-name="otilde" horiz-adv-x="500" d="M516 220Q495 123 417 56T247 -11Q158 -11 107 55T77 220Q98 319 177 390T348 461Q438 461 487 391T516 220ZM440 230Q458 313 425 356T334 400Q278 400 227 357T157 230Q139 145 171 99T260
53Q319 53 370 99T440 230ZM559 670Q546 615 510 583T436 551Q410 551 377 576Q337 609 313 609Q276 609 262 551H201Q214 606 250 638T324 670Q352 670 383 645Q423 612 447 612Q484 612 498 670H559Z" />
<glyph unicode="&#xf6;" glyph-name="odieresis" horiz-adv-x="500" d="M516 220Q495 123 417 56T247 -11Q158 -11 107 55T77 220Q98 319 177 390T348 461Q438 461 487 391T516 220ZM440 230Q458 313 425 356T334 400Q278 400 227 357T157 230Q139 145 171 99T260
53Q319 53 370 99T440 230ZM338 571H258L275 651H355L338 571ZM484 571H404L421 651H501L484 571Z" />
<glyph unicode="&#xf7;" glyph-name="divide" horiz-adv-x="778" d="M774 250Q770 230 736 230H139Q129 230 123 230T112 236T109 250Q113 270 146 270H745Q755 270 760 270T771 264T774 250ZM500 331H417L435 414H518L500 331ZM448 85H365L383 168H466L448 85Z" />
<glyph unicode="&#xf8;" glyph-name="oslash" horiz-adv-x="500" d="M514 220Q493 123 415 56T247 -11Q203 -11 165 8L72 -112L26 -82L121 41Q57 118 79 220Q100 319 179 390T348 461Q392 461 432 441L521 557L568 527L474 406Q538 334 514 220ZM389 387Q366 400
335 400Q275 400 224 353T154 220Q137 149 165 99L389 387ZM439 220Q455 298 429 347L207 61Q228 50 260 50Q319 50 370 94T439 220Z" />
<glyph unicode="&#xf9;" glyph-name="ugrave" horiz-adv-x="517" d="M435 0H360L370 48Q290 -11 185 -11Q126 -11 109 19T104 109L175 444H253L183 113Q175 76 186 60T246 44Q297 44 338 72T390 154L451 444H529L435 0ZM440 527H379L265 694H343L440 527Z" />
<glyph unicode="&#xfa;" glyph-name="uacute" horiz-adv-x="517" d="M435 0H360L370 48Q290 -11 185 -11Q126 -11 109 19T104 109L175 444H253L183 113Q175 76 186 60T246 44Q297 44 338 72T390 154L451 444H529L435 0ZM547 694L361 527H300L469 694H547Z" />
<glyph unicode="&#xfb;" glyph-name="ucircumflex" horiz-adv-x="517" d="M435 0H360L370 48Q290 -11 185 -11Q126 -11 109 19T104 109L175 444H253L183 113Q175 76 186 60T246 44Q297 44 338 72T390 154L451 444H529L435 0ZM525 525H466L396 648L274 525H215L376
697H436L525 525Z" />
<glyph unicode="&#xfc;" glyph-name="udieresis" horiz-adv-x="517" d="M435 0H360L370 48Q290 -11 185 -11Q126 -11 109 19T104 109L175 444H253L183 113Q175 76 186 60T246 44Q297 44 338 72T390 154L451 444H529L435 0ZM346 571H266L283 651H363L346 571ZM492
571H412L429 651H509L492 571Z" />
<glyph unicode="&#xff;" glyph-name="ydieresis" horiz-adv-x="461" d="M540 444L209 -91Q166 -160 135 -182T71 -205Q35 -205 1 -197L9 -132Q45 -148 84 -148Q94 -148 100 -146T120 -131T153 -90L208 0L108 444H187L215 319Q257 128 249 57H250Q268 126 465 444H540ZM319
571H239L256 651H336L319 571ZM465 571H385L402 651H482L465 571Z" />
<glyph unicode="&#x131;" glyph-name="dotlessi" horiz-adv-x="239" d="M156 0H81L175 444H250L156 0Z" />
<glyph unicode="&#x152;" glyph-name="OE" horiz-adv-x="972" d="M929 0H519Q490 0 436 -11Q381 -22 353 -22Q222 -22 145 83T101 345T256 608T510 716Q539 716 589 705Q636 694 667 694H1063L1049 629H867Q861 629 849 629T831 630H693L642 391H971L958 330H629L574
70H783Q789 70 801 70T819 71H944L929 0ZM546 347Q584 524 587 560Q591 611 576 633T502 655Q397 655 307 569T191 360Q162 227 214 133T371 39Q429 39 454 60T496 131Q506 160 546 347Z" />
<glyph unicode="&#x153;" glyph-name="oe" horiz-adv-x="778" d="M796 219H502Q489 143 521 97T611 50Q688 50 761 106L753 41Q678 -11 596 -11Q540 -11 498 17T436 90Q345 -11 239 -11Q153 -11 105 57T78 225Q99 323 176 392T339 461Q446 461 492 362Q526 403
576 432T681 461Q732 461 762 437T799 372T806 295T796 219ZM748 274Q753 337 731 368T668 400Q626 400 584 365T518 274H748ZM426 230Q444 314 413 357T326 400Q269 400 219 356T151 230Q133 145 164 98T252 50Q308 50 358 96T426 230Z" />
<glyph unicode="&#x178;" glyph-name="Ydieresis" horiz-adv-x="667" d="M811 694L435 277L376 0H290L349 278L151 694H256L392 404Q393 403 416 347L497 442L519 468L723 694H811ZM442 736H362L379 816H459L442 736ZM616 736H536L553 816H633L616 736Z" />
<glyph unicode="&#x192;" glyph-name="florin" horiz-adv-x="306" d="M480 627Q445 644 403 644Q390 644 377 642T345 632T312 607T293 563L267 444H380L368 386H258L176 0H101L183 386H109L121 444H195L215 534Q231 608 288 656T417 705Q451 705 495 694L480 627Z" />
<glyph unicode="&#x2c6;" glyph-name="circumflex" horiz-adv-x="500" d="M517 525H458L388 648L266 525H207L368 697H428L517 525Z" />
<glyph unicode="&#x2c7;" glyph-name="caron" horiz-adv-x="500" d="M553 697L392 525H332L243 697H302L372 574L494 697H553Z" />
<glyph unicode="&#x2d8;" glyph-name="breve" horiz-adv-x="500" d="M568 700Q550 623 490 573T361 522Q294 522 255 572T231 700H292Q282 649 308 619T376 589Q416 589 455 618T507 700H568Z" />
<glyph unicode="&#x2d9;" glyph-name="dotaccent" horiz-adv-x="278" d="M303 566H214L233 655H322L303 566Z" />
<glyph unicode="&#x2da;" glyph-name="ring" horiz-adv-x="738" d="M546 601Q550 618 540 627T521 637T504 638Q454 638 446 601Q442 584 452 575T471 565T488 564Q538 564 546 601ZM607 600Q599 567 562 542T478 517T405 541T385 602Q392 635 429 660T514 685Q561
685 587 661T607 600Z" />
<glyph unicode="&#x2db;" glyph-name="ogonek" horiz-adv-x="500" d="M309 -187Q251 -212 206 -212Q159 -212 139 -187T125 -127Q131 -90 163 -56T239 0H303Q203 -50 193 -104Q190 -125 201 -132T238 -142Q267 -143 308 -128L309 -187Z" />
<glyph unicode="&#x2dc;" glyph-name="tilde" horiz-adv-x="500" d="M559 670Q546 615 510 583T436 551Q410 551 377 576Q337 609 313 609Q276 609 262 551H201Q214 606 250 638T324 670Q352 670 383 645Q423 612 447 612Q484 612 498 670H559Z" />
<glyph unicode="&#x2dd;" glyph-name="hungarumlaut" horiz-adv-x="500" d="M397 694L281 527H220L319 694H397ZM564 694L448 527H387L486 694H564Z" />
<glyph unicode="&#x3a9;" glyph-name="Omega" horiz-adv-x="722" d="M677 0H432Q444 55 471 103T551 228Q587 280 605 309T645 381T674 461Q692 545 642 600T499 655Q408 655 335 600T243 461Q237 431 237 401T242 336T254 279T271 216Q306 87 289 0H44L59 71H144Q150
71 162 71T180 70H233Q231 124 196 219Q183 252 177 271T162 318T151 366T148 412T154 462Q177 567 281 641T513 716Q640 716 713 642T763 462Q755 423 732 380T688 308T631 235Q545 128 518 70H571Q577 70 589 70T607 71H692L677 0Z" />
<glyph unicode="&#x2013;" glyph-name="endash" horiz-adv-x="500" d="M551 244H52L65 305H564L551 244Z" />
<glyph unicode="&#x2014;" glyph-name="emdash" horiz-adv-x="1000" d="M1051 244H52L65 305H1064L1051 244Z" />
<glyph unicode="&#x2018;" glyph-name="quoteleft" horiz-adv-x="278" d="M283 486H200L218 568L287 694H328L276 569H301L283 486Z" />
<glyph unicode="&#x2019;" glyph-name="quoteright" horiz-adv-x="278" d="M310 612L241 486H200L252 611H227L245 694H328L310 612Z" />
<glyph unicode="&#x201a;" glyph-name="quotesinglbase" horiz-adv-x="278" d="M180 2L112 -124H71L122 1H97L115 84H198L180 2Z" />
<glyph unicode="&#x201c;" glyph-name="quotedblleft" horiz-adv-x="472" d="M283 486H200L218 568L287 694H328L276 569H301L283 486ZM477 486H394L412 568L481 694H522L470 569H495L477 486Z" />
<glyph unicode="&#x201d;" glyph-name="quotedblright" horiz-adv-x="472" d="M311 612L242 486H201L253 611H228L246 694H329L311 612ZM505 612L436 486H395L447 611H422L440 694H523L505 612Z" />
<glyph unicode="&#x201e;" glyph-name="quotedblbase" horiz-adv-x="472" d="M181 2L113 -124H72L123 1H98L116 84H199L181 2ZM375 2L307 -124H266L317 1H292L310 84H393L375 2Z" />
<glyph unicode="&#x2020;" glyph-name="dagger" horiz-adv-x="444" d="M478 430Q471 397 434 397Q410 397 368 411Q338 419 320 421Q315 376 315 350Q314 276 301 218Q278 109 237 -44Q212 -142 193 -198Q190 -205 190 -206T187 -211T182 -215T175 -216Q163 -216
166 -196Q195 35 234 218Q249 283 277 351Q292 388 301 421Q284 419 251 411Q200 397 177 397Q140 397 148 431Q155 464 192 464Q216 464 258 450Q288 442 306 440Q312 478 317 547Q320 619 329 664Q338 705 372 705T396 664Q392 646 362 553Q337 488 325 440Q342
442 375 450Q426 464 449 464Q486 464 478 430Z" />
<glyph unicode="&#x2021;" glyph-name="daggerdbl" horiz-adv-x="444" d="M488 477Q481 444 444 444Q420 444 378 458Q348 466 330 468Q327 445 323 373Q323 317 316 289Q308 250 274 250Q241 250 249 289Q255 316 284 390Q303 435 311 468Q294 466 261 458Q210
444 187 444Q150 444 158 478Q165 511 202 511Q226 511 268 497Q298 489 316 487Q319 510 323 582Q323 638 330 666Q338 705 371 705Q403 705 397 666Q391 639 362 565Q343 520 335 487Q352 489 385 497Q436 511 459 511Q496 511 488 477ZM392 22Q383 -11 351 -11Q328
-11 297 -2Q255 10 234 12Q228 -24 228 -60Q226 -138 220 -166Q212 -205 177 -205Q144 -205 153 -166Q158 -140 182 -82Q213 4 215 12Q192 9 149 -1Q119 -11 88 -11Q71 -11 65 -1T61 22Q63 34 74 44T102 55Q126 55 156 46Q197 34 219 32Q226 83 224 104Q226 182
233 210Q241 249 275 249Q308 249 300 210Q295 184 271 126Q246 62 238 32Q262 34 295 44Q340 55 366 55Q381 55 387 46T392 22Z" />
<glyph unicode="&#x2022;" glyph-name="bullet" horiz-adv-x="778" d="M558 121H272L333 407H619L558 121Z" />
<glyph unicode="&#x2026;" glyph-name="ellipsis" horiz-adv-x="626" d="M181 0H98L116 83H199L181 0ZM355 0H272L290 83H373L355 0ZM529 0H446L464 83H547L529 0Z" />
<glyph unicode="&#x2030;" glyph-name="perthousand" horiz-adv-x="1154" d="M1122 145Q1104 60 1051 2T942 -56T857 1T845 146Q863 232 917 289T1028 347Q1082 347 1111 290T1122 145ZM775 145Q757 60 704 2T595 -56T510 1T498 146Q516 232 570 289T681 347Q735
347 764 290T775 145ZM456 548Q438 463 385 405T277 347T192 404T180 549Q198 635 252 692T362 750Q417 750 446 693T456 548ZM782 730Q780 723 770 712L176 -40Q165 -56 152 -56Q144 -56 140 -50T136 -36L147 -18L742 734Q755 750 766 750Q774 750 779 744T782
730ZM1053 146Q1066 201 1055 243T1015 286Q1009 286 1003 285T984 275T962 252T940 211T920 145Q912 106 912 78T916 37T930 15T944 6T955 5Q984 5 1012 46T1053 146ZM388 549Q400 604 389 646T349 689Q343 689 337 688T318 678T296 655T274 614T254 548Q246 509
246 481T250 440T264 418T279 409T290 408Q319 408 347 449T388 549ZM706 146Q719 201 708 243T668 286Q662 286 656 285T637 275T615 252T593 211T573 145Q565 106 565 78T569 37T583 15T597 6T608 5Q637 5 665 46T706 146Z" />
<glyph unicode="&#x2039;" glyph-name="guilsinglleft" horiz-adv-x="333" d="M277 0H216L158 219L309 439H370L236 219L277 0Z" />
<glyph unicode="&#x203a;" glyph-name="guilsinglright" horiz-adv-x="333" d="M269 219L117 0H56L191 219L149 439H210L269 219Z" />
<glyph unicode="&#x2044;" glyph-name="fraction" horiz-adv-x="558" d="M645 674L106 20H60L599 674H645Z" />
<glyph unicode="&#x20ac;" glyph-name="Euro" horiz-adv-x="599" d="M556 34Q509 0 477 -11T392 -22Q336 -22 292 7T222 86Q183 159 186 255H105L127 311H190Q194 335 197 347Q200 365 206 383H133L154 439H225Q263 535 333 608Q436 716 549 716Q625 716 683 682L651
599Q611 652 536 652Q458 652 385 563Q339 507 313 439H589L567 383H294Q288 365 285 347Q282 335 278 311H539L517 255H273Q271 187 293 131Q330 42 406 42Q458 42 490 54T565 104L556 34Z" />
<glyph unicode="&#x2122;" glyph-name="trademark" horiz-adv-x="933" d="M525 655H445Q442 655 435 655T423 656H370L291 282H238L317 656H263Q259 656 252 656T241 655H161L170 694H534L525 655ZM911 282H864L943 654H942Q935 638 901 580L856 504L733 295H689L649
528Q632 629 633 654H632L553 282H506L594 698H662L672 646L713 397Q718 368 720 337H721Q731 360 809 495L930 698H999L911 282Z" />
<glyph unicode="&#x221a;" glyph-name="radical" horiz-adv-x="472" d="M680 743Q676 725 658 723H560Q555 707 540 678T522 641L204 -44L187 -78Q179 -104 154 -104H140L144 139L77 53L52 83L44 96L226 329L222 83Q225 91 232 105T241 125L509 703Q511 708 518
723T529 744T543 756T566 763H656Q663 763 668 762T678 756T680 743Z" />
<glyph unicode="&#x221e;" glyph-name="infinity" horiz-adv-x="1000" d="M503 213L471 273Q455 303 444 320T414 360T372 392T322 403Q265 403 223 350T165 222Q156 173 157 131T181 60T242 31Q367 31 503 213ZM929 222Q938 271 937 313T914 384T853 413Q728
413 591 231L623 171Q640 140 651 123T680 84T722 52T772 41Q829 41 871 94T929 222ZM991 222Q970 123 894 51T728 -21Q667 -21 628 18T551 125L535 154Q394 -24 264 -24Q173 -24 128 49T103 222Q124 321 200 393T367 465Q427 465 467 426T544 319L560 290Q701
468 830 468Q921 468 966 395T991 222Z" />
<glyph unicode="&#xfb01;" glyph-name="f_i" horiz-adv-x="536" d="M587 612H504L522 695H605L587 612ZM453 0H378L472 444H547L453 0ZM376 386H258L176 0H101L183 386H109L121 444H195L215 535Q231 609 279 657T384 705Q409 705 442 694L427 626Q402 644 371
644Q347 644 325 626T293 565L267 444H388L376 386Z" />
<glyph unicode="&#xfb02;" glyph-name="f_l" horiz-adv-x="536" d="M376 386H258L176 0H101L183 386H109L121 444H195L215 535Q231 609 279 657T384 705Q409 705 442 694L427 627Q404 644 371 644Q347 644 325 626T293 565L267 444H388L376 386ZM453 0H378L526
694H601L453 0Z" />
</font>
</defs>
</svg>
