<?xml version="1.0" standalone="no"?> <!DOCTYPE svg PUBLIC "-//W3C//DTD SVG 1.0//EN" "http://www.w3.org/TR/2001/REC-SVG-20010904/DTD/svg10.dtd" > <svg xmlns="http://www.w3.org/2000/svg" width="100%" height="100%">
<defs >
<font id="LMSansDemiCond10-Oblique" horiz-adv-x="518" ><font-face
    font-family="LM Sans Demi Cond 10"
    units-per-em="1000"
    panose-1="0 0 7 0 0 0 0 0 0 0"
    ascent="874"
    descent="-250"
    alphabetic="0" />
<missing-glyph horiz-adv-x="364" d="M33 0V666H298V0H33ZM66 33H265V633H66V33Z" />
<glyph unicode=" " glyph-name="space" horiz-adv-x="317" />
<glyph unicode="!" glyph-name="exclam" horiz-adv-x="306" d="M349 671L292 429L237 193Q233 183 209 183H175Q154 183 152 190Q151 192 187 381L243 671Q247 688 251 691T274 694H329Q347 694 349 691T349 671ZM215 44Q210 18 199 9T162 0H145Q118 0 111 9T110
45L113 62Q118 88 129 97T167 106H185Q212 106 218 97T219 62L215 44Z" />
<glyph unicode="&quot;" glyph-name="quotedbl" horiz-adv-x="488" d="M287 465Q284 450 271 439T242 428H204Q189 428 181 439T175 465L220 676Q223 691 236 702T265 713H303Q318 713 326 703T332 676L287 465ZM511 465Q508 450 495 439T466 428H428Q413 428
405 439T399 465L444 676Q447 691 460 702T489 713H527Q542 713 550 703T556 676L511 465Z" />
<glyph unicode="#" glyph-name="numbersign" horiz-adv-x="792" d="M770 150Q762 115 711 115H519L402 -138Q387 -167 361 -167Q346 -167 338 -157T333 -132Q334 -127 341 -112L447 115H316L199 -138Q184 -167 158 -167Q143 -167 135 -157T130 -132Q131 -127 138
-112L244 115H128Q116 115 108 116T91 125T85 150Q92 185 137 185H277L351 343H171Q161 343 154 344T138 353T133 378Q141 413 192 413H385L499 660Q514 694 543 694Q558 694 565 684T570 659Q569 652 562 639L457 413H588L702 660Q717 694 746 694Q761 694 768
684T773 659Q772 652 765 639L660 413H775Q787 413 795 412T812 403T818 378Q811 343 766 343H627L553 185H732Q742 185 749 184T765 175T770 150ZM554 343H424L350 185H480L554 343Z" />
<glyph unicode="$" glyph-name="dollar" horiz-adv-x="475" d="M464 202Q424 17 267 -8Q264 -22 262 -29T250 -46T225 -56Q204 -56 201 -39T203 -8Q148 -2 109 22Q54 55 57 72Q58 75 68 100T81 131Q81 134 84 138T94 143Q99 143 107 135Q154 88 222 78L270 306Q207
320 176 374T161 506Q177 582 224 636T354 702Q365 750 396 750Q429 750 418 703Q462 698 497 678Q543 650 540 635Q539 631 529 606T516 576Q516 573 513 569T503 564Q498 564 491 572Q452 609 400 616L357 415Q424 400 452 341T464 202ZM297 434L335 613Q278
597 263 524Q252 457 297 434ZM361 183Q376 261 330 287L286 82Q343 101 361 183Z" />
<glyph unicode="%" glyph-name="percent" horiz-adv-x="879" d="M476 548Q473 533 469 516T449 466T415 409T360 366T282 347Q242 347 216 362T178 400T164 452T162 504T170 549Q188 641 239 694Q292 750 367 750Q403 750 428 738T464 704T481 660T485 613T481
574T476 548ZM860 715Q858 705 844 689L234 -34Q216 -56 196 -56Q182 -56 174 -46T169 -21Q171 -9 184 5L795 728Q815 750 832 750Q847 750 855 740T860 715ZM856 145Q852 128 848 113T829 63T794 6T739 -37T661 -56Q621 -56 595 -41T557 -3T543 49T541 101T549
146Q567 237 618 291Q672 347 747 347Q790 347 817 328T853 286T863 228T862 178T856 145ZM382 549Q396 608 390 638T376 677T354 686Q335 686 321 674T296 635T281 594T270 548Q252 457 264 430Q273 411 295 411Q352 411 382 549ZM761 146Q776 205 770 235T755
274T733 283Q714 283 700 270T675 232T661 190T650 145Q646 128 644 117T640 88T638 57T642 33T653 14T675 8Q732 8 761 146Z" />
<glyph unicode="&amp;" glyph-name="ampersand" horiz-adv-x="717" d="M668 25Q664 7 658 2T621 -10Q586 -19 550 -19Q466 -19 406 37Q302 -19 209 -19Q135 -19 96 29T71 144Q80 184 103 214T148 262L250 337Q230 433 250 532Q267 613 325 663T448 713Q511 713
540 665T556 557Q547 511 499 462T358 344Q383 262 445 159Q556 254 634 422Q641 439 644 443T655 448Q657 448 669 445T695 437T713 432Q722 426 721 419Q720 415 710 393T675 327T621 243Q566 166 493 100Q528 67 571 67Q610 67 657 81Q666 85 670 85Q681 85
676 59L668 25ZM461 557Q469 578 464 613T434 649Q408 649 384 622T350 551Q336 487 345 407Q396 448 424 482T461 557ZM354 98Q301 174 265 276Q243 261 231 251T206 219T187 168Q185 159 184 148T183 115T196 81T230 67Q291 67 354 98Z" />
<glyph unicode="&apos;" glyph-name="quotesingle" horiz-adv-x="264" d="M287 465Q284 450 271 439T242 428H204Q189 428 181 439T175 465L220 676Q223 691 236 702T265 713H303Q318 713 326 703T332 676L287 465Z" />
<glyph unicode="(" glyph-name="parenleft" horiz-adv-x="369" d="M269 -211Q267 -222 243 -222H229Q211 -222 209 -220Q198 -209 188 -198T156 -143T121 -50T109 84T128 264Q182 520 333 676Q352 696 372 713T403 739T418 749T435 750H449Q463 750 467 749T471
739Q469 733 457 722Q303 564 239 264Q218 164 213 84T216 -50T237 -136T266 -198Q270 -207 269 -211Z" />
<glyph unicode=")" glyph-name="parenright" horiz-adv-x="369" d="M352 264Q298 9 148 -148Q129 -168 109 -185T77 -211T62 -221T45 -222H32Q25 -222 22 -222T14 -221T9 -218T9 -211Q11 -205 23 -194Q98 -116 152 -9T241 264Q262 364 267 444T264 579T243 663T214
726Q210 735 211 739Q213 750 238 750H251Q269 750 271 748Q282 737 292 726T324 671T359 578T371 444T352 264Z" />
<glyph unicode="*" glyph-name="asterisk" horiz-adv-x="475" d="M507 422Q503 405 487 391T453 376Q439 376 428 390L355 482Q352 340 346 315Q342 297 327 288T296 278T270 287T262 315Q264 324 270 338L323 482L211 390Q194 376 181 376Q163 376 153 390T147
422Q152 445 179 457L319 514L203 571Q181 583 186 606Q190 623 206 637T240 652Q254 652 265 638L337 546L345 690Q345 705 347 713Q350 731 365 740T396 750T422 741T431 713Q431 712 423 690L369 546L482 638Q499 652 512 652Q530 652 540 638T546 606Q541 584
513 571L373 514L489 457Q512 444 507 422Z" />
<glyph unicode="+" glyph-name="plus" horiz-adv-x="739" d="M741 264Q734 229 687 229H453L403 -6Q391 -53 358 -53Q321 -53 333 -6L383 229H149Q102 229 109 264Q117 299 164 299H398L448 534Q456 581 492 581Q526 581 518 534L468 299H702Q713 299 720 298T736
289T741 264Z" />
<glyph unicode="," glyph-name="comma" horiz-adv-x="264" d="M191 26Q186 7 175 -9Q118 -91 115 -95Q107 -106 103 -108T82 -111Q73 -111 70 -111T62 -110T58 -106T58 -99Q60 -87 107 0Q87 0 84 3T85 26L96 80Q100 99 104 102T127 106H183Q201 106 203 103T202
80L191 26Z" />
<glyph unicode="-" glyph-name="hyphen" horiz-adv-x="317" d="M313 236Q306 204 262 204H98Q87 204 80 205T66 213T61 236Q68 268 112 268H276Q287 268 294 267T308 259T313 236Z" />
<glyph unicode="." glyph-name="period" horiz-adv-x="264" d="M191 26Q187 7 183 4T160 0H105Q86 0 84 3T85 26L96 80Q100 99 104 102T127 106H183Q201 106 203 103T202 80L191 26Z" />
<glyph unicode="/" glyph-name="slash" horiz-adv-x="475" d="M573 715Q570 707 564 696L82 -193Q65 -222 41 -222Q26 -222 18 -212T13 -187Q16 -179 22 -168L504 721Q521 750 545 750Q560 750 568 740T573 715Z" />
<glyph unicode="0" glyph-name="zero" horiz-adv-x="475" d="M510 343Q502 306 497 284T479 219T453 148T418 86T371 31T310 -4T233 -19T163 -5T117 30T93 86T84 148T88 218T98 283T110 343Q118 380 123 403T142 469T168 541T203 605T251 662T312 698T389 713T459
698T505 662T528 605T536 541T532 469T522 403T510 343ZM402 357Q438 526 433 582Q428 649 375 649Q351 649 331 636T298 600T279 563T268 535Q252 487 224 357Q186 176 190 117Q195 45 247 45Q263 45 277 51T304 72T326 101T345 142T361 187T376 241T389 297T402
357Z" />
<glyph unicode="1" glyph-name="one" horiz-adv-x="475" d="M415 32Q408 0 364 0H124Q113 0 106 1T91 9T86 32Q93 64 138 64H205L317 595Q272 580 231 580Q222 580 215 581T201 589T197 612Q199 623 209 633T239 644Q327 648 378 696Q395 713 417 713Q435 713
442 705T449 689T445 669L317 64H378Q389 64 396 63T410 55T415 32Z" />
<glyph unicode="2" glyph-name="two" horiz-adv-x="475" d="M436 44Q431 18 420 9T383 0H92Q65 0 58 9T57 45Q60 64 72 75L289 290Q397 398 416 489Q418 500 419 510T420 544T413 583T389 613T343 627Q295 627 264 594T209 506Q205 499 204 497T201 492T197 488T191
487Q185 487 178 499Q156 545 157 551Q159 556 166 571T194 613T236 661Q297 713 376 713Q469 713 510 648T531 490Q516 422 470 369T293 202L173 92Q180 93 193 93H315L377 94Q422 94 433 88T438 50L436 44Z" />
<glyph unicode="3" glyph-name="three" horiz-adv-x="475" d="M477 200Q453 91 385 36T224 -19Q189 -19 159 -9T111 15T81 45T63 72T59 89Q59 90 65 107T73 127Q79 144 82 149T93 154Q99 154 105 140Q121 107 150 88T199 65T237 61Q326 61 355 202Q371 273 357
308T290 343H256Q238 343 235 346T236 369L239 381Q243 402 250 405Q254 407 279 409Q301 411 311 413T337 424T366 450Q397 489 409 548Q413 566 414 579T413 607T397 630T361 638Q350 638 338 636T305 626T262 600T222 553Q213 541 207 541Q200 541 190 566T181
596T190 612T216 642T257 675T313 702T381 713Q467 713 504 669T524 548Q512 489 474 446T388 376Q505 338 477 200Z" />
<glyph unicode="4" glyph-name="four" horiz-adv-x="475" d="M492 206Q488 187 478 178T461 168T439 166H403L377 44Q372 18 361 9T324 0H307Q280 0 274 9T272 44L298 166H105Q78 166 72 175T71 210L74 228Q78 246 88 261L372 670Q383 686 392 690T420 694H472Q498
694 504 685T506 650L421 247H457Q468 247 473 247T486 242T494 230T492 206ZM322 247L397 604Q394 592 348 517Q317 468 278 410T206 304T167 247H322Z" />
<glyph unicode="5" glyph-name="five" horiz-adv-x="475" d="M474 220Q448 104 379 42Q308 -19 207 -19Q172 -19 144 -8T99 18T71 51T56 80T53 96Q92 159 105 159Q114 159 114 150Q120 119 136 99T172 72T202 63T221 61Q249 61 270 72T304 98T327 138T342 180T352
223Q357 244 359 257T365 292T367 327T363 355T350 377T325 384Q271 384 222 324Q212 311 204 308T179 304Q151 304 145 318T145 350L209 648Q214 675 225 684T264 694H499Q524 694 531 686T533 651Q528 625 517 617T480 608H305L268 433Q302 448 340 448Q385 448
417 430T465 384Q495 323 474 220Z" />
<glyph unicode="6" glyph-name="six" horiz-adv-x="475" d="M484 233Q470 169 452 129T393 47Q328 -19 236 -19Q35 -19 112 339Q150 514 225 605Q271 660 328 686T441 713Q473 713 494 703Q515 694 518 688T518 666L512 642Q507 616 496 616Q492 616 481 623Q462
638 428 638Q392 638 362 620T313 577T278 514T254 451T238 391Q288 474 367 474Q454 474 484 395Q506 337 484 233ZM369 233Q373 254 375 264T380 295T384 325T384 351T380 376T371 393T355 406T330 410Q244 410 210 251Q169 61 252 61Q275 61 293 72T323 97T344
139T358 183T369 233Z" />
<glyph unicode="7" glyph-name="seven" horiz-adv-x="475" d="M572 651Q567 629 556 618Q319 344 248 22Q241 -10 197 -10H168Q139 -10 133 3T134 36Q198 342 455 602Q448 601 432 601H303L240 600Q192 600 182 606T177 644L178 651Q185 683 199 689T265 695H301L534
694Q544 694 548 694T559 692T568 688T572 681T575 669T572 651Z" />
<glyph unicode="8" glyph-name="eight" horiz-adv-x="475" d="M476 199Q454 94 390 38T233 -19Q141 -19 100 37T82 199Q112 337 236 375Q140 408 164 524Q183 612 241 662T389 713Q478 713 514 663T532 524Q508 408 398 375Q505 337 476 199ZM425 503T429 523T435
554T437 584T431 612T411 630T373 638T332 630T304 613T286 585T275 555T267 523Q262 499 261 484T261 449T279 418T324 407Q347 407 365 415T393 434T411 463T422 492ZM363 201Q368 224 370 238T373 274T369 310T349 333T310 343Q281 343 260 330T227 291T209
248T197 201Q192 177 190 163T187 127T191 93T211 71T250 61T292 71T321 92T341 127T354 163T363 201Z" />
<glyph unicode="9" glyph-name="nine" horiz-adv-x="475" d="M510 357Q472 175 389 77Q352 34 300 8T193 -19Q168 -19 148 -14T115 0T94 17T82 32T79 41Q120 102 131 102Q136 102 141 96Q164 61 209 61Q242 61 275 83T330 148Q347 180 356 208T383 303Q329 220
255 220Q166 220 137 304Q116 359 138 462Q146 501 153 524T179 581T227 645Q295 713 391 713Q586 713 510 357ZM412 441Q453 638 376 638Q352 638 333 627T301 600T279 557T265 511T253 461Q248 439 247 430T242 400T238 369T237 343T241 319T250 301T266 288T291
284Q321 284 345 304T383 357T402 407T412 441Z" />
<glyph unicode=":" glyph-name="colon" horiz-adv-x="264" d="M268 392Q264 373 260 370T238 366H182Q164 366 161 369T162 392L174 446Q178 465 182 468T205 472H260Q278 472 281 469T280 446L268 392ZM191 26Q187 7 183 4T160 0H105Q86 0 84 3T85 26L96 80Q100
99 104 102T127 106H183Q201 106 203 103T202 80L191 26Z" />
<glyph unicode=";" glyph-name="semicolon" horiz-adv-x="264" d="M268 392Q264 373 260 370T238 366H182Q164 366 161 369T162 392L174 446Q178 465 182 468T205 472H260Q278 472 281 469T280 446L268 392ZM191 26Q186 7 175 -9Q118 -91 115 -95Q107 -106 103
-108T82 -111Q73 -111 70 -111T62 -110T58 -106T58 -99Q60 -87 107 0Q87 0 84 3T85 26L96 80Q100 99 104 102T127 106H183Q201 106 203 103T202 80L191 26Z" />
<glyph unicode="&lt;" glyph-name="less" horiz-adv-x="778" d="M690 -20Q688 -28 681 -34T665 -40Q660 -40 649 -33L150 228Q134 237 136 250Q139 263 160 272L769 533Q784 540 789 540Q797 540 802 534T805 520Q802 508 781 498L203 250L675 2Q692 -7 690 -20Z" />
<glyph unicode="=" glyph-name="equal" horiz-adv-x="739" d="M765 378Q758 343 713 343H171Q161 343 154 344T138 353T133 378Q141 413 192 413H722Q734 413 742 412T759 403T765 378ZM717 150Q709 115 658 115H128Q116 115 108 116T91 125T85 150Q92 185 137
185H679Q689 185 696 184T712 175T717 150Z" />
<glyph unicode="&gt;" glyph-name="greater" horiz-adv-x="778" d="M747 250Q745 236 723 228L114 -33Q99 -40 94 -40Q86 -40 82 -34T79 -20Q82 -7 102 2L680 250L208 498Q191 507 194 520Q198 540 218 540Q223 540 234 533L733 272Q750 263 747 250Z" />
<glyph unicode="?" glyph-name="question" horiz-adv-x="449" d="M512 552Q497 478 442 438Q331 359 306 244L299 210Q295 190 291 187T267 183H233Q215 183 212 186T213 207L222 250Q247 365 361 477Q374 490 379 496T390 518T402 557Q414 597 404 618T348 640Q280
640 222 587Q212 577 207 577T200 581T194 606Q190 630 190 642Q192 649 214 663T278 690T365 704Q544 704 512 552ZM273 44Q268 18 257 9T220 0H203Q176 0 169 9T168 45L171 62Q176 88 187 97T225 106H243Q270 106 276 97T277 62L273 44Z" />
<glyph unicode="@" glyph-name="at" horiz-adv-x="633" d="M658 367Q650 328 645 308T623 254T583 193Q521 120 422 120Q330 120 294 189Q263 249 287 347Q291 367 296 384T319 440T360 504T425 552T519 574Q554 574 577 565Q575 598 555 619T502 640Q390 640
310 542Q255 474 228 347Q224 328 222 315T217 269T216 211T227 155T254 103T304 69T381 54Q459 54 533 98H576Q590 98 594 97T597 87Q596 83 585 73T552 48T503 21T439 -1T365 -10Q287 -10 228 19T141 106Q94 198 127 347Q159 504 251 597Q358 704 516 704Q565
704 599 690T650 649T675 592T680 519T672 444T658 367ZM553 347Q562 389 563 422T550 483T504 510Q496 510 489 509T467 498T439 474T412 425T388 347Q379 306 378 272T390 211T436 184Q444 184 451 185T473 196T501 220T528 269T553 347Z" />
<glyph unicode="A" glyph-name="A" horiz-adv-x="636" d="M605 25Q600 0 562 0H528Q497 0 489 11T477 64L466 171H224L155 40Q147 26 142 19T124 6T89 0H73Q63 0 57 1T44 8T40 25L48 41L372 657Q392 694 437 694H494Q508 694 515 693T532 683T542 656L604 39L605
25ZM459 246L443 431Q431 538 434 588H433Q422 555 362 439L263 246H459Z" />
<glyph unicode="B" glyph-name="B" horiz-adv-x="635" d="M622 192Q614 155 596 123T546 62T464 17T351 0H126Q99 0 92 9T91 45L219 649Q225 676 236 685T274 694H474Q592 694 636 643T665 516Q653 457 608 418T495 363Q579 348 607 302T622 192ZM553 514Q559
544 550 565T526 596T488 612T453 618T428 619H329L281 393H380Q457 393 499 427T553 514ZM508 194Q516 232 507 259T483 300T442 320T403 328T375 329H267L213 75H337Q407 75 451 105T508 194Z" />
<glyph unicode="C" glyph-name="C" horiz-adv-x="607" d="M570 51Q568 45 565 42T543 27Q495 0 459 -9T369 -19Q219 -19 153 74Q87 166 127 347Q161 512 255 606Q361 713 523 713Q600 713 669 685Q684 678 687 675T689 665Q688 662 661 591Q655 577 646 577Q641
577 633 584Q580 627 505 627Q458 627 419 611T353 565T307 506T276 441T258 386T249 347Q241 311 238 279T237 206T255 136T304 87T389 67T473 77T549 114Q563 123 568 123Q571 123 573 122T575 119T576 115T577 111Q576 108 573 81T570 51Z" />
<glyph unicode="D" glyph-name="D" horiz-adv-x="688" d="M706 342Q670 174 572 85Q480 0 345 0H126Q99 0 92 9T91 45L219 649Q225 676 236 685T274 694H492Q560 694 614 667T694 587Q738 494 706 342ZM587 342Q592 368 595 383T601 431T602 485T590 534T564 578T516
607T443 619H332L216 75H328Q370 75 405 86T465 113T509 155T541 203T563 255T578 301T587 342Z" />
<glyph unicode="E" glyph-name="E" horiz-adv-x="567" d="M535 44Q530 18 519 9T482 0H126Q99 0 92 9T91 45L218 646Q224 673 235 682T273 691H616Q644 691 650 679T650 646Q646 624 637 614T619 603T589 601L377 604H331L288 399H528Q539 399 544 399T557 394T565
382T563 358Q559 339 550 330T533 320T511 318H271L223 92Q241 94 355 94L496 96Q508 96 513 96T526 93T535 87T539 74T537 52L535 44Z" />
<glyph unicode="F" glyph-name="F" horiz-adv-x="540" d="M636 646Q632 624 623 614T605 603T576 601L371 604H331L285 386H498Q509 386 514 386T527 381T535 369T533 345Q529 326 520 317T503 307T481 305H268L212 44Q207 18 196 9T159 0H126Q99 0 92 9T91 45L218
646Q224 673 235 682T273 691H602Q630 691 636 679T636 646Z" />
<glyph unicode="G" glyph-name="G" horiz-adv-x="633" d="M581 58Q577 41 573 36T551 23Q459 -19 365 -19Q207 -19 146 85Q90 179 127 347Q164 522 268 619Q370 713 522 713Q614 713 678 674Q695 663 697 660T699 651Q698 648 671 577Q665 563 656 563Q651 563
644 569Q589 627 505 627Q449 627 404 602T333 544T287 466T261 397T249 347Q245 330 243 316T237 271T236 216T246 162T270 114T316 81T386 67Q430 67 475 78L513 257H451Q431 257 429 261T430 285L435 310Q440 330 444 334T469 338H614Q634 338 636 334T635 310L581
58Z" />
<glyph unicode="H" glyph-name="H" horiz-adv-x="678" d="M605 44Q600 18 589 9T552 0H518Q491 0 485 9T483 44L542 320H271L212 44Q207 18 196 9T159 0H126Q99 0 92 9T91 45L219 649Q225 676 236 685T274 694H307Q334 694 340 685T341 650L288 401H559L612 650Q617
676 628 685T666 694H700Q727 694 733 685T734 650L605 44Z" />
<glyph unicode="I" glyph-name="I" horiz-adv-x="283" d="M211 44Q206 18 195 9T158 0H125Q98 0 91 9T90 45L218 649Q224 676 235 685T273 694H306Q333 694 339 685T340 650L211 44Z" />
<glyph unicode="J" glyph-name="J" horiz-adv-x="450" d="M399 147Q383 69 329 25T199 -19Q128 -19 65 15Q53 22 50 25T48 36Q49 40 60 69T74 104Q80 116 89 116Q94 116 100 106Q129 60 188 60Q261 60 282 153L387 650Q392 676 403 685T441 694H472Q499 694 505
685T506 650L399 147Z" />
<glyph unicode="K" glyph-name="K" horiz-adv-x="663" d="M611 27Q608 14 602 8T590 1T571 0H532Q511 0 504 3T491 23L359 329L239 223L201 44Q196 18 185 9T148 0H126Q99 0 92 9T91 45L219 649Q225 676 236 685T274 694H296Q323 694 329 685T330 650L269 361L621
673Q645 694 678 694H715Q725 694 730 694T740 689T743 675Q742 669 727 655L448 407L611 27Z" />
<glyph unicode="L" glyph-name="L" horiz-adv-x="514" d="M483 45Q477 20 467 10T429 0H126Q99 0 92 9T91 45L219 649Q225 676 236 685T274 694H307Q334 694 340 685T341 650L221 87L450 91Q478 91 484 77T483 45Z" />
<glyph unicode="M" glyph-name="M" horiz-adv-x="836" d="M763 44Q758 18 747 9T710 0H694Q667 0 661 9T659 44L774 584Q771 572 713 463T647 339L492 61Q477 34 464 27T420 19Q403 19 395 20T377 31T365 58L331 322L317 454Q308 560 310 584H309L194 44Q189 18
178 9T141 0H126Q99 0 92 9T91 45L219 649Q225 676 236 685T274 694H336Q350 694 358 693T375 682T386 655L420 392L435 256Q446 155 443 126H444Q451 147 503 248L569 371L726 652Q734 667 739 674T759 687T794 694H858Q885 694 891 685T892 650L763 44Z" />
<glyph unicode="N" glyph-name="N" horiz-adv-x="678" d="M605 44Q600 18 589 9T552 0H479Q452 0 441 8T425 40L329 482Q314 555 311 588H310L194 44Q189 18 178 9T141 0H126Q99 0 92 9T91 45L219 649Q225 676 236 685T274 694H346Q373 694 384 686T400 654L495
212Q512 129 514 106H515L630 650Q635 676 646 685T684 694H700Q727 694 733 685T734 650L605 44Z" />
<glyph unicode="O" glyph-name="O" horiz-adv-x="697" d="M716 342Q678 165 579 72Q483 -19 344 -19Q277 -19 226 4T149 68Q87 164 126 342Q161 506 247 603Q294 656 361 684T500 713Q659 713 711 588Q748 497 716 342ZM597 358Q625 492 605 556Q597 583 582 601T548
628T515 640T485 643Q394 643 331 561Q283 500 251 358Q223 228 238 157Q251 98 286 76T359 53Q457 53 524 156Q570 229 597 358Z" />
<glyph unicode="P" glyph-name="P" horiz-adv-x="608" d="M657 484Q645 427 617 385T551 320T477 288T400 278H262L212 44Q207 18 196 9T159 0H126Q99 0 92 9T91 45L219 649Q225 676 236 685T274 694H480Q589 694 633 638T657 484ZM543 483Q548 506 549 523T547
559T531 591T495 611T434 619H332L274 347H376Q422 347 453 358T502 392T528 434T543 483Z" />
<glyph unicode="Q" glyph-name="Q" horiz-adv-x="697" d="M716 342Q690 229 646 156Q594 71 527 32L571 -62Q580 -85 579 -90Q574 -111 541 -111H481Q458 -111 453 -107T435 -74L412 -13Q378 -19 344 -19Q277 -19 226 4T149 68Q87 164 126 342Q161 506 247 603Q294
656 361 684T500 713Q659 713 711 588Q748 497 716 342ZM597 343Q626 478 606 552Q594 595 562 619T485 643Q444 643 404 622T335 566Q276 490 245 343Q217 216 235 149Q248 94 283 73T359 51Q383 51 384 55L367 99L351 138Q340 168 342 173Q346 194 380 194H426Q442
194 446 193T456 182L490 107Q559 171 597 343Z" />
<glyph unicode="R" glyph-name="R" horiz-adv-x="614" d="M578 22Q573 0 538 0H496Q475 0 469 4T458 24L372 315H267L209 44Q204 18 193 9T156 0H126Q99 0 92 9T91 45L219 649Q225 676 236 685T274 694H473Q590 694 637 641T666 500Q637 364 486 324L575 37Q579
25 578 22ZM552 499Q564 556 544 587T443 619H332L281 379H391Q472 379 506 411T552 499Z" />
<glyph unicode="S" glyph-name="S" horiz-adv-x="528" d="M515 195Q495 99 430 40T259 -19Q157 -19 79 36Q60 49 57 52T55 63Q65 95 84 137Q90 151 99 151Q104 151 113 141Q178 74 278 74Q385 74 408 184Q416 224 402 251T364 290Q361 291 350 294T325 302T302
308Q270 317 255 322T220 341T184 378Q179 385 173 397T160 443T162 512Q181 600 244 656T417 713Q501 713 561 673Q576 663 578 660T580 651Q580 648 552 577Q546 563 537 563Q532 563 526 570Q478 626 399 626Q291 626 270 527Q261 487 287 452Q297 440 311 435T370
416Q403 407 419 402T456 381T493 343Q533 279 515 195Z" />
<glyph unicode="T" glyph-name="T" horiz-adv-x="644" d="M746 643Q740 615 729 607T690 598L511 601L392 44Q387 18 376 9T339 0H306Q279 0 272 9T271 45L389 601L208 598Q180 598 173 606T171 643Q176 670 187 679T225 688H711Q739 688 746 676T746 643Z" />
<glyph unicode="U" glyph-name="U" horiz-adv-x="657" d="M623 228Q600 119 524 50T326 -19T156 49T129 228L219 649Q225 676 236 685T274 694H307Q334 694 340 685T341 650L251 227Q215 56 343 56Q478 56 512 228L602 650Q607 676 618 685T656 694H679Q706 694
712 685T713 650L623 228Z" />
<glyph unicode="V" glyph-name="V" horiz-adv-x="636" d="M754 669Q754 666 745 650L414 39Q393 0 348 0H287Q273 0 265 1T249 12T238 40L166 650Q165 657 165 669Q171 694 208 694H242Q252 694 258 694T272 690T285 678T291 655L331 303Q333 290 341 200Q348
127 347 106H348Q371 164 467 341L637 654Q651 680 665 687T704 694H723Q734 694 740 693T751 687T754 669Z" />
<glyph unicode="W" glyph-name="W" horiz-adv-x="900" d="M1021 668Q1020 664 1015 654L736 39Q728 21 716 12T696 2T674 0H626Q611 0 604 1T588 12T580 41L572 365Q567 532 572 587H571Q558 551 521 466T478 368L332 43Q323 23 311 13T291 2T268 0H225Q211 0
204 1T188 12T179 39L162 654V668Q168 694 207 694H228Q241 694 248 693T264 683T273 656L282 304Q284 154 278 109H279Q297 166 387 366L516 654Q524 673 536 682T557 692T580 694H623Q633 694 638 694T652 690T664 678T668 655L676 322Q680 171 676 107H677Q700
177 770 327L917 656Q925 674 938 683T959 693T984 694Q997 694 1004 693T1017 686T1021 668Z" />
<glyph unicode="X" glyph-name="X" horiz-adv-x="636" d="M609 27Q606 14 600 8T589 1T570 0H514Q494 0 487 3T474 22L369 274L163 22Q151 7 142 4T113 0H65Q54 0 49 0T38 6T35 21Q37 28 48 40L330 367L193 654Q187 666 188 674Q193 694 227 694H283Q303 694 309
691T322 673L411 471L583 676Q598 694 630 694H679Q689 694 694 694T705 688T708 673Q707 668 696 656L448 367L609 27Z" />
<glyph unicode="Y" glyph-name="Y" horiz-adv-x="636" d="M759 673Q758 670 746 653L436 277L386 43Q380 16 369 8T333 0H302Q276 0 269 9T267 44L317 278L165 657Q160 664 162 673Q167 694 202 694H243Q291 694 305 658L378 469Q402 403 407 380Q417 400 474
472T583 605T638 671Q663 694 704 694H729Q740 694 745 694T756 688T759 673Z" />
<glyph unicode="Z" glyph-name="Z" horiz-adv-x="581" d="M543 45Q537 20 527 10T489 0H97Q70 0 63 11T63 45Q68 67 79 80L516 613H480L250 610Q239 610 234 610T222 611T211 615T205 622T202 634T205 652Q209 671 218 681T236 692T259 694H631Q655 694 663 686T665
651Q662 633 649 618L213 87L502 91Q531 91 540 84T543 45Z" />
<glyph unicode="[" glyph-name="bracketleft" horiz-adv-x="293" d="M231 -190Q224 -222 180 -222H75Q48 -222 42 -213T40 -178L228 706Q233 732 244 741T281 750H386Q397 750 404 749T419 741T424 718Q417 686 373 686H329L149 -158H193Q204 -158 211 -159T226
-167T231 -190Z" />
<glyph unicode="\" glyph-name="backslash" horiz-adv-x="500" d="M394 -230Q390 -250 370 -250Q355 -250 353 -228L212 712L211 730Q216 750 235 750Q249 750 253 728L393 -212L394 -230Z" />
<glyph unicode="]" glyph-name="bracketright" horiz-adv-x="293" d="M176 -178Q171 -204 160 -213T123 -222H18Q7 -222 0 -221T-14 -213T-19 -190Q-13 -158 31 -158H75L255 686H211Q200 686 193 687T179 695T174 718Q180 750 224 750H329Q356 750 363 741T364
706L176 -178Z" />
<glyph unicode="^" glyph-name="asciicircum" horiz-adv-x="556" d="M685 584L668 562L423 685L125 562L119 584L436 744L685 584Z" />
<glyph unicode="_" glyph-name="underscore" horiz-adv-x="636" d="M598 -181H-38L-15 -69H621L598 -181Z" />
<glyph unicode="`" glyph-name="grave" horiz-adv-x="475" d="M422 557Q420 546 395 546H364L255 668Q247 676 248 683Q251 694 275 694H336Q350 694 353 693T361 683L418 572L422 557Z" />
<glyph unicode="a" glyph-name="a" horiz-adv-x="453" d="M407 44Q402 18 391 9T354 0H334Q307 0 301 9T299 44L305 69Q283 40 243 15T155 -10Q98 -10 70 33T54 132Q62 167 82 194T133 238T190 266T253 282T303 288T338 291Q346 292 348 294T353 310L357 330Q362
353 362 371T359 399T351 415T337 424T324 427T311 428Q238 428 175 378Q162 368 157 368Q150 368 149 374T150 397Q151 405 155 433Q156 441 161 444T184 456Q254 487 328 487Q416 487 450 446T468 331L407 44ZM320 155L341 256Q317 255 294 250T241 233T189 196T159
134Q153 101 166 78T209 54Q219 54 231 57T263 70T297 101T320 155Z" />
<glyph unicode="b" glyph-name="b" horiz-adv-x="483" d="M500 237Q478 129 424 68Q357 -10 260 -10Q200 -10 174 35Q170 19 161 11T144 1T123 0H101Q74 0 67 9T66 45L194 649Q200 676 211 685T249 694H268Q295 694 301 685T302 650L255 427Q313 482 383 482Q434
482 464 458T503 394T511 316T500 237ZM390 238Q395 260 397 273T402 311T402 351T393 384T372 409T334 418Q306 418 279 403Q258 390 253 383T244 361L187 94Q202 54 246 54Q276 54 300 68T337 99T363 147T379 193T390 238Z" />
<glyph unicode="c" glyph-name="c" horiz-adv-x="422" d="M408 62Q406 53 389 40T354 19L337 11Q288 -10 236 -10Q136 -10 96 54Q59 116 82 237Q108 357 175 422T346 487Q391 487 415 479T468 452Q476 447 477 446T481 441T481 434Q481 433 478 425T471 408T466
397Q459 379 456 374T446 369Q441 369 434 378Q412 399 391 408T332 417Q298 417 273 401T233 354T209 298T194 238Q189 214 187 199T183 154T186 107T208 75T253 60Q321 60 391 117Q400 126 406 126Q413 126 414 121T413 98Q409 65 408 62Z" />
<glyph unicode="d" glyph-name="d" horiz-adv-x="483" d="M435 44Q430 18 419 9T382 0H359Q332 0 326 9T324 44Q319 38 307 28T266 4T206 -10Q114 -10 82 71Q59 133 82 236Q107 350 163 412Q225 482 315 482Q380 482 410 433L456 650Q461 676 472 685T510 694H530Q557
694 563 685T564 650L435 44ZM336 101L397 384L394 387Q392 390 390 393T382 401T370 409T355 415T336 418Q306 418 282 404T245 373T219 326T203 279T193 235Q187 207 185 192T180 146T183 99T205 68T248 54Q297 54 336 101Z" />
<glyph unicode="e" glyph-name="e" horiz-adv-x="438" d="M469 275Q464 249 453 241T416 232H178Q142 54 258 54Q336 54 401 116Q410 125 416 125Q423 125 424 120T423 101Q423 81 419 65Q414 43 345 12Q292 -10 241 -10Q201 -10 168 1T107 41T71 118T77 239Q92
309 122 360T189 438T263 475T335 487Q422 487 456 433T469 275ZM384 279Q387 297 388 308T391 338T389 370T379 396T358 416T322 423Q274 423 240 382T189 279H384Z" />
<glyph unicode="f" glyph-name="f" horiz-adv-x="290" d="M465 640Q463 630 462 626T458 619T449 615T437 621Q414 640 380 640Q359 640 344 634T322 615T311 595T305 574L283 472H327Q338 472 345 471T360 463T365 440Q358 408 314 408H273L195 44Q190 18 179
9T142 0H123Q96 0 89 9T88 45L165 408Q148 408 140 409T124 417T119 440T133 462T153 471T178 472L195 549Q210 622 261 663T394 704Q424 704 449 699Q469 694 472 690T471 668L465 640Z" />
<glyph unicode="g" glyph-name="g" horiz-adv-x="483" d="M432 27Q413 -65 354 -126T193 -187Q112 -187 49 -154Q39 -148 38 -144T40 -124L45 -101Q50 -75 61 -75Q66 -75 73 -82Q130 -123 205 -123Q289 -123 315 0L335 93H334Q290 21 218 21Q128 21 93 84Q61 142
83 238Q104 344 163 409Q228 482 323 482Q385 482 408 424Q412 444 414 451T423 468T438 479T464 482H484Q511 482 518 473T519 438L432 27ZM376 272L389 335Q396 368 382 393T336 418T280 401T239 356T212 299T194 238Q190 220 188 202T187 153T205 104T254 85Q331
85 368 248Q370 260 376 272Z" />
<glyph unicode="h" glyph-name="h" horiz-adv-x="483" d="M437 44Q432 18 421 9T384 0H361Q334 0 328 9T326 44L389 338Q399 380 391 399T352 418Q313 418 276 383T225 283L174 44Q169 18 158 9T121 0H99Q72 0 65 9T64 45L192 649Q198 676 209 685T247 694H266Q293
694 299 685T300 650L244 387H245Q309 482 402 482Q474 482 494 446T501 342L437 44Z" />
<glyph unicode="i" glyph-name="i" horiz-adv-x="219" d="M172 44Q167 18 156 9T119 0H100Q73 0 66 9T65 45L146 427Q151 454 162 463T200 472H219Q246 472 253 463T254 428L172 44ZM300 608Q294 580 283 571T245 561H212Q185 561 179 571T177 608L182 632Q189
661 200 670T237 679H270Q297 679 304 670T305 632L300 608Z" />
<glyph unicode="j" glyph-name="j" horiz-adv-x="246" d="M185 -25Q169 -100 126 -138T24 -177Q-14 -177 -54 -163T-91 -136Q-91 -135 -85 -123T-77 -107Q-69 -92 -66 -88T-56 -84Q-54 -84 -44 -90Q-23 -104 5 -104Q30 -104 46 -92T65 -70T73 -42L173 428Q178
454 189 463T226 472H246Q273 472 280 463T281 428L185 -25ZM319 608Q313 580 302 571T264 561H231Q204 561 198 571T196 608L201 632Q208 661 219 670T256 679H289Q316 679 323 670T324 632L319 608Z" />
<glyph unicode="k" glyph-name="k" horiz-adv-x="457" d="M428 21Q424 0 390 0H362Q331 0 324 15L243 213L192 169L165 44Q160 18 149 9T112 0H106Q79 0 72 9T71 45L199 649Q205 676 216 685T254 694H263Q290 694 296 685T297 650L224 305L389 452Q411 472 444
472H477Q487 472 492 472T503 467T506 453Q505 447 490 433L323 285L425 37Q430 28 428 21Z" />
<glyph unicode="l" glyph-name="l" horiz-adv-x="219" d="M172 44Q167 18 156 9T119 0H100Q73 0 66 9T65 45L193 649Q199 676 210 685T248 694H267Q294 694 300 685T301 650L172 44Z" />
<glyph unicode="m" glyph-name="m" horiz-adv-x="747" d="M702 44Q697 18 686 9T649 0H627Q600 0 593 9T592 45L654 338Q664 379 656 398T617 418Q577 418 540 383T489 283L438 44Q433 18 422 9T385 0H363Q336 0 329 9T328 45L390 338Q400 379 392 398T353 418Q313
418 276 383T225 283L174 44Q169 18 158 9T121 0H99Q72 0 65 9T64 45L146 433Q152 460 163 469T201 478H217Q244 478 250 469T251 434L240 381L241 380Q304 482 402 482Q423 482 439 479T473 467T501 437T508 385Q574 482 666 482Q737 482 758 447T766 342L702
44Z" />
<glyph unicode="n" glyph-name="n" horiz-adv-x="483" d="M437 44Q432 18 421 9T384 0H361Q334 0 328 9T326 44L389 338Q399 380 391 399T352 418Q313 418 276 383T225 283L174 44Q169 18 158 9T121 0H99Q72 0 65 9T64 45L146 433Q152 460 163 469T201 478H217Q244
478 250 469T251 434L240 380H241Q308 482 402 482Q474 482 494 446T501 342L437 44Z" />
<glyph unicode="o" glyph-name="o" horiz-adv-x="475" d="M497 232Q474 115 403 52Q335 -10 235 -10Q132 -10 90 54Q52 117 75 232Q99 346 165 415Q234 487 341 487Q444 487 485 417Q523 352 497 232ZM389 244Q394 267 396 280T401 319T401 359T391 390T368 415T327
423Q298 423 276 410T240 381T215 335T199 289T189 244Q185 223 183 212T178 179T175 143T179 112T191 84T214 67T250 60Q279 60 302 73T338 104T362 151T378 198T389 244Z" />
<glyph unicode="p" glyph-name="p" horiz-adv-x="483" d="M501 238Q477 130 423 66Q392 30 349 10T261 -10Q206 -10 174 35L141 -123Q136 -149 125 -158T88 -167H66Q39 -167 32 -158T30 -122L147 427Q152 454 163 463T201 472H220Q250 472 256 459T254 424Q319
482 390 482Q428 482 454 466T493 426T509 367T511 302T501 238ZM389 236Q394 256 396 277T399 333T382 390T332 412Q286 412 247 375L187 93Q189 88 193 81T212 64T246 54Q275 54 300 71T339 109T366 160T382 205T389 236Z" />
<glyph unicode="q" glyph-name="q" horiz-adv-x="483" d="M400 -123Q395 -149 384 -158T347 -167H324Q297 -167 290 -158T289 -123L324 43Q272 -10 209 -10Q156 -10 124 13T82 76T72 154T82 235Q103 337 154 400Q220 482 319 482Q385 482 407 420L411 438Q416
464 427 473T464 482H484Q511 482 518 473T519 438L400 -123ZM341 109L388 330Q395 362 381 387T334 412Q305 412 281 396T242 359T216 308T200 264T193 234Q184 187 183 147T197 81T249 54Q303 54 341 109Z" />
<glyph unicode="r" glyph-name="r" horiz-adv-x="321" d="M398 427Q394 409 391 406T374 401Q320 396 276 355T216 246L173 44Q168 18 157 9T120 0H101Q74 0 67 9T66 45L148 433Q154 460 165 469T203 478H217Q244 478 250 469T251 434L237 368H238Q271 426 313
454T393 482Q404 482 406 477T404 456L398 427Z" />
<glyph unicode="s" glyph-name="s" horiz-adv-x="364" d="M372 140Q340 -10 186 -10Q136 -10 92 7Q33 32 37 50Q37 53 47 78T60 109Q64 121 74 121Q80 121 88 111Q128 59 199 59Q268 59 282 124Q286 144 283 157T267 179T245 190T216 198Q81 228 106 346Q136 487
291 487Q356 487 403 460Q416 453 418 450T420 441Q416 427 405 404Q398 386 395 382T385 377Q380 377 375 382Q335 425 271 425Q208 425 196 366Q194 357 194 349T196 335T200 325T209 316T219 310T233 305T246 301T262 297Q286 292 298 288T327 273T357 243Q384
199 372 140Z" />
<glyph unicode="t" glyph-name="t" horiz-adv-x="346" d="M329 50Q327 42 304 29T242 3T165 -10Q76 -10 105 121L166 408H149Q138 408 131 409T117 417T112 440Q118 472 163 472H182L201 562Q207 589 218 598T256 607H269Q296 607 302 598T304 563L284 472H358Q369
472 376 471T391 463T396 440Q389 408 345 408H271L214 139Q196 60 231 60Q270 60 300 88Q311 100 317 100Q326 100 328 79Q328 76 328 64T329 50Z" />
<glyph unicode="u" glyph-name="u" horiz-adv-x="483" d="M437 44Q432 18 421 9T384 0H364Q337 0 331 9T329 44L336 75Q280 -10 198 -10Q123 -10 95 22T81 129L145 427Q150 454 161 463T199 472H221Q248 472 255 463T256 428L191 122Q180 77 188 60T234 43Q280
43 312 84T355 181L408 428Q413 454 424 463T461 472H484Q511 472 518 463T519 428L437 44Z" />
<glyph unicode="v" glyph-name="v" horiz-adv-x="431" d="M504 447Q503 442 498 432L303 39Q294 21 282 12T262 2T239 0H191Q177 0 169 1T153 12T143 39L116 447Q122 464 132 468T159 472H171Q198 472 207 463T218 432L240 111L398 431Q411 457 425 464T462 472H471Q478
472 482 472T493 469T503 462T504 447Z" />
<glyph unicode="w" glyph-name="w" horiz-adv-x="642" d="M716 446Q715 443 713 437T709 430L533 39Q525 21 513 12T493 2T471 0H423Q385 0 378 24Q377 30 376 92T374 235T380 354Q373 321 340 239T276 92T243 23Q226 0 189 0H170Q157 0 149 1T133 12T124 39L115
428V446Q120 472 159 472H170Q191 472 201 466T212 452T215 429L221 183Q222 148 219 115H220Q223 122 259 207L358 427Q365 443 370 450T387 465T418 472Q459 472 460 433L468 113L612 433Q620 451 632 460T652 470T678 472Q691 472 698 471T711 464T716 446Z"
/>
<glyph unicode="x" glyph-name="x" horiz-adv-x="431" d="M415 20Q411 0 377 0H353Q333 0 326 4T313 22L250 178L126 23Q114 7 105 4T76 0H52Q42 0 37 0T26 6T23 20Q26 30 36 40L221 244L125 433Q120 445 121 452Q125 472 158 472H182Q197 472 205 470T215 464T223
451L281 326L389 450Q402 465 410 468T438 472H462Q472 472 477 472T488 466T491 451Q490 444 479 433L307 244L411 38Q417 26 415 20Z" />
<glyph unicode="y" glyph-name="y" horiz-adv-x="431" d="M503 447Q502 443 494 428L249 -51Q220 -106 173 -141T69 -177Q15 -177 5 -167Q2 -161 4 -137T9 -103Q12 -89 24 -89L30 -92Q58 -106 85 -106Q126 -106 153 -72Q160 -63 175 -36T192 -1Q192 2 191 14L120
430L119 448Q124 472 161 472H173Q206 472 214 460T231 399Q266 184 254 118Q271 175 334 303L399 432Q408 451 419 460T439 470T466 472Q480 472 486 471T499 465T503 447Z" />
<glyph unicode="z" glyph-name="z" horiz-adv-x="411" d="M388 33Q381 0 337 0H70Q57 0 50 1T37 11T34 38Q37 53 50 68L347 407H309L178 405Q166 405 160 405T145 409T134 419T133 438Q140 472 185 472H435Q448 472 455 471T468 461T471 434Q468 419 455 404L159
65H205L342 67Q359 67 368 66T384 57T388 33Z" />
<glyph unicode="{" glyph-name="braceleft" horiz-adv-x="500" d="M376 -239Q374 -250 354 -250Q270 -250 223 -212Q193 -187 190 -156T198 -83L240 115Q248 150 240 175T213 213T176 232T139 239Q134 240 133 240T128 241T125 244T125 250Q127 261 141 261Q205
265 255 306Q278 326 286 347T310 444L349 627Q362 680 425 715T566 750Q574 750 577 750T582 747T584 739Q582 730 573 728Q540 726 514 718T478 702T452 682Q432 664 424 643T403 563L364 383Q360 366 356 354T337 320T292 280T218 250Q313 222 312 147Q312 141
295 56L263 -94Q255 -133 256 -142Q257 -174 283 -199T363 -228Q369 -229 371 -229T375 -232T376 -239Z" />
<glyph unicode="|" glyph-name="bar" horiz-adv-x="278" d="M113 -217Q106 -250 86 -250T73 -217L271 717Q278 750 298 750T311 717L113 -217Z" />
<glyph unicode="}" glyph-name="braceright" horiz-adv-x="500" d="M480 250Q478 239 464 239Q400 235 350 194Q327 174 319 153T295 56L256 -127Q244 -180 180 -215T39 -250Q32 -250 29 -250T23 -247T21 -239Q23 -230 33 -228Q65 -226 91 -218T127 -202T153 -182Q174
-165 181 -145T203 -63L241 117Q245 134 249 146T268 180T313 220T387 250Q292 278 293 353Q293 359 310 444L342 594Q350 630 349 642Q348 674 323 699T243 728Q238 729 237 729T232 730T229 733T229 739Q231 750 251 750Q335 750 382 712Q412 687 415 656T407
583L365 385Q358 350 365 325T392 287T429 268T466 261Q471 260 472 260T477 259T480 256T480 250Z" />
<glyph unicode="~" glyph-name="asciitilde" horiz-adv-x="556" d="M620 304L556 260Q532 243 492 225Q449 207 415 207Q374 207 322 241Q301 255 291 260T263 272T226 278Q158 278 58 207L48 224L111 268Q135 285 175 303Q220 321 252 321Q295 321 345 287Q366
273 376 268T404 256T441 250Q510 250 609 321L620 304Z" />
<glyph unicode="&#xa0;" glyph-name="uni00A0" horiz-adv-x="475" />
<glyph unicode="&#xa1;" glyph-name="exclamdown" horiz-adv-x="306" d="M305 466Q300 440 289 431T252 422H234Q207 422 200 431T199 466L203 483Q208 510 219 519T257 528H274Q301 528 307 519T309 484L305 466ZM175 -144Q172 -161 168 -164T146 -167H91Q72
-167 69 -164T69 -144L126 99L181 334Q184 345 209 345H243Q264 345 266 339Q267 336 231 147L175 -144Z" />
<glyph unicode="&#xa2;" glyph-name="cent" horiz-adv-x="422" d="M408 62Q406 53 389 40T354 19L337 11Q309 -1 274 -7L261 -65Q259 -73 252 -79T236 -86H193Q184 -86 179 -80T175 -65L188 -5Q125 9 96 54Q59 116 82 237Q104 340 157 403T291 482L303 537Q305
546 313 552T330 558H373Q382 558 386 552T389 537L378 486Q426 481 468 452Q476 447 477 446T481 441T481 434Q481 433 478 425T471 408T466 397Q459 379 456 374T446 369Q441 369 434 378Q399 410 363 415L289 64Q339 73 391 117Q400 126 406 126Q413 126 414
121T413 98Q409 65 408 62ZM205 76L274 401Q219 365 194 238Q166 113 205 76Z" />
<glyph unicode="&#xa3;" glyph-name="sterling" horiz-adv-x="636" d="M605 157Q590 85 536 33T417 -19Q378 -19 324 -4Q285 7 262 11T209 16T165 3Q143 -19 116 -19Q93 -19 80 -3T72 37Q77 58 90 71Q178 161 222 268L237 304H161Q148 304 141 313T135 336L140
358Q143 372 154 381T179 390H259L277 474Q299 563 357 628T490 694Q565 694 597 628T609 471Q605 448 585 432T541 415T505 431T497 471Q520 582 466 582Q413 582 388 471Q384 456 379 428T371 390H433Q446 390 453 381T458 358L453 336Q451 323 440 314T415 304H349Q338
272 327 245Q301 182 264 126Q308 122 375 104Q414 93 441 93Q461 93 474 112T493 157Q498 180 518 196T561 213T597 197T605 157Z" />
<glyph unicode="&#xa5;" glyph-name="yen" horiz-adv-x="636" d="M759 673Q758 670 746 653L523 383H579Q592 383 599 374T605 351L600 329Q597 315 586 306T561 297H452L436 277L428 242H549Q562 242 569 233T575 210L570 188Q567 174 556 165T531 156H410L386
43Q380 16 369 8T333 0H302Q276 0 269 9T267 44L291 156H171Q157 156 150 165T146 188L151 210Q153 223 164 232T189 242H309L317 278L309 297H201Q187 297 180 306T176 329L181 351Q183 364 194 373T219 383H274L165 657Q160 664 162 673Q167 694 202 694H243Q291
694 305 658L378 469Q399 415 406 383H408Q421 406 478 477T585 608T638 671Q663 694 704 694H729Q740 694 745 694T756 688T759 673Z" />
<glyph unicode="&#xa7;" glyph-name="section" horiz-adv-x="491" d="M503 212Q486 131 424 58Q448 15 438 -33Q423 -107 353 -157T202 -207T73 -157T40 -33H152Q145 -65 166 -86T223 -107Q259 -107 289 -86T326 -33Q329 -19 319 -4T297 20T265 43L187 94Q135
129 109 179T95 288Q113 370 174 442Q150 484 160 533Q176 607 245 657T396 707T525 657T558 533H446Q453 565 432 586T375 607Q340 607 310 586T272 533Q269 519 279 504T301 480T333 457L411 406Q463 371 489 321T503 212ZM391 212Q402 264 335 309L257 360L240
372Q217 335 207 288Q196 236 264 191L342 140L358 128Q381 163 391 212Z" />
<glyph unicode="&#xa8;" glyph-name="dieresis" horiz-adv-x="475" d="M321 609Q316 584 306 576T272 567H242Q218 567 212 576T210 609L215 631Q221 657 231 665T264 673H294Q318 673 324 665T326 631L321 609ZM524 609Q519 584 509 576T475 567H445Q421 567
415 576T413 609L418 631Q424 657 434 665T467 673H497Q521 673 527 665T529 631L524 609Z" />
<glyph unicode="&#xa9;" glyph-name="copyright" horiz-adv-x="694" d="M799 491T768 347T614 102T347 0T123 101T74 347T228 592T495 694T719 593ZM704 347Q729 465 664 547T481 630Q364 630 264 548T138 347Q113 230 178 147T361 64Q479 64 579 147T704 347ZM517
166Q516 162 500 152Q452 124 394 124Q303 124 262 181Q223 236 247 347Q269 449 324 505Q390 571 488 571Q534 571 578 554Q591 547 590 541Q588 528 572 496Q569 488 564 488Q561 488 556 492Q522 518 478 518Q444 518 416 503T372 467T344 419T328 377T321 347Q285
176 406 176Q458 176 505 205Q513 210 516 210Q521 210 521 203Q521 186 517 166Z" />
<glyph unicode="&#xaa;" glyph-name="ordfeminine" horiz-adv-x="356" d="M420 403Q416 386 407 380T376 373H360Q337 373 332 379T330 403L333 421Q315 401 283 384T210 366Q162 366 137 396T121 465Q129 501 159 525T234 559T303 572T354 576Q361 577 363 579T366
590L369 604Q376 624 373 637T367 657T355 667T341 671T328 672Q265 672 215 637Q203 630 200 630Q194 630 193 633T193 650Q193 652 194 662T197 676Q198 683 220 692Q277 713 340 713Q414 713 443 684T462 604L420 403ZM356 305Q353 293 339 284T306 275H166Q148
275 138 284T130 305Q132 318 146 327T179 336H319Q337 336 347 327T356 305ZM343 481L358 552Q226 545 209 466Q204 443 216 427T253 410Q266 410 281 413T316 434T343 481Z" />
<glyph unicode="&#xab;" glyph-name="guillemotleft" horiz-adv-x="475" d="M235 13Q233 0 221 0H179Q172 0 170 7L130 260Q130 265 132 268L279 521Q284 528 291 528H333Q338 528 340 524T341 515L242 264L235 13ZM425 13Q423 0 411 0H369Q362 0 360 7L320 260Q320
265 322 268L469 521Q474 528 481 528H523Q528 528 530 524T531 515L432 264L425 13Z" />
<glyph unicode="&#xac;" glyph-name="logicalnot" horiz-adv-x="739" d="M717 150Q714 136 701 126T674 115T652 125T647 150L688 343H161Q147 343 139 353T133 378T149 402T176 413H738Q752 413 760 403T765 378L717 150Z" />
<glyph unicode="&#xae;" glyph-name="registered" horiz-adv-x="694" d="M799 491T768 347T614 102T347 0T123 101T74 347T228 592T495 694T719 593ZM704 347Q729 465 664 547T481 630Q364 630 264 548T138 347Q113 230 178 147T361 64Q479 64 579 147T704 347ZM544
149Q541 135 520 135H494Q481 135 478 137T471 150L419 328H355L319 162Q316 146 310 141T287 135H268Q252 135 248 141T247 163L325 532Q329 548 335 553T358 559H480Q551 559 580 527T598 441Q580 359 488 333L543 158Q544 152 544 149ZM529 440Q536 475 523
494T461 513H394L363 367H430Q480 367 500 386T529 440Z" />
<glyph unicode="&#xaf;" glyph-name="overscore" horiz-adv-x="475" d="M539 610Q535 591 531 588T508 584H217Q198 584 196 587T197 610L201 631Q205 650 209 653T232 657H524Q542 657 544 654T543 631L539 610Z" />
<glyph unicode="&#xb0;" glyph-name="degree" horiz-adv-x="356" d="M430 563Q418 508 372 470T270 431T185 469T166 563Q177 617 224 655T326 694T411 656T430 563ZM360 563Q365 588 351 606T311 624T263 606T236 563Q230 537 244 519T284 501T332 519T360 563Z" />
<glyph unicode="&#xb1;" glyph-name="plusminus" horiz-adv-x="739" d="M692 35Q685 0 638 0H100Q53 0 60 35Q68 70 115 70H349L394 282H160Q113 282 120 317Q128 352 175 352H409L459 587Q467 634 504 634Q537 634 529 587L479 352H713Q724 352 731 351T747 342T752
317Q745 282 698 282H464L419 70H653Q664 70 671 69T687 60T692 35Z" />
<glyph unicode="&#xb4;" glyph-name="acute" horiz-adv-x="475" d="M517 683Q516 677 504 668L343 546H312Q305 546 302 546T294 547T289 550T289 557T301 572L404 683Q415 694 435 694H496Q510 694 514 693T517 683Z" />
<glyph unicode="&#xb5;" glyph-name="mu" horiz-adv-x="483" d="M437 44Q432 18 421 9T384 0H364Q337 0 331 9T329 44L336 75Q280 -10 198 -10Q182 -10 165 0L139 -123Q134 -149 123 -158T86 -167H64Q37 -167 30 -158T28 -122L145 427Q150 454 161 463T199 472H221Q248
472 255 463T256 428L191 122Q180 77 188 60T234 43Q280 43 312 84T355 181L408 428Q413 454 424 463T461 472H484Q511 472 518 463T519 428L437 44Z" />
<glyph unicode="&#xb6;" glyph-name="paragraph" horiz-adv-x="703" d="M811 663Q805 633 760 633H709L542 -150Q533 -194 502 -194Q472 -194 481 -150L648 633H568L401 -150Q392 -194 361 -194Q331 -194 340 -150L419 220Q282 228 211 292T161 457Q183 559 282
626T499 694H773Q785 694 792 693T807 685T811 663Z" />
<glyph unicode="&#xb7;" glyph-name="middot" horiz-adv-x="739" d="M490 320Q486 301 482 298T459 294H404Q385 294 383 297T384 320L395 374Q399 393 403 396T426 400H482Q500 400 502 397T501 374L490 320Z" />
<glyph unicode="&#xb8;" glyph-name="cedilla" horiz-adv-x="422" d="M261 -32Q259 -39 254 -46L186 -150Q179 -161 175 -163T154 -165H118Q111 -165 108 -165T100 -164T95 -161T95 -154T104 -140L195 -34Q203 -25 207 -23T226 -21H239Q246 -21 249 -21T256 -22T261
-25T261 -32Z" />
<glyph unicode="&#xba;" glyph-name="ordmasculine" horiz-adv-x="398" d="M508 618T490 535T416 409Q361 366 277 366Q189 366 153 410Q119 456 136 535Q153 616 206 663Q260 713 351 713Q439 713 474 664Q508 618 490 535ZM398 305Q395 293 381 284T348 275H166Q148
275 138 284T130 305Q132 318 146 327T179 336H361Q379 336 389 327T398 305ZM398 543Q402 560 403 569T406 596T405 624T396 646T375 663T341 669Q311 669 290 657T257 622T240 584T230 543Q226 523 224 511T222 479T227 446T248 425T287 415T330 424T359 446T379
478T391 511T398 543Z" />
<glyph unicode="&#xbb;" glyph-name="guillemotright" horiz-adv-x="475" d="M456 260L308 7Q303 0 296 0H254Q249 0 247 4T246 13L345 264L353 515Q353 528 366 528H408Q415 528 417 521L457 268Q458 266 456 260ZM266 260L118 7Q113 0 106 0H64Q59 0 57 4T56
13L155 264L163 515Q163 528 176 528H218Q225 528 227 521L267 268Q268 266 266 260Z" />
<glyph unicode="&#xbf;" glyph-name="questiondown" horiz-adv-x="449" d="M363 466Q358 440 347 431T310 422H292Q265 422 258 431T257 466L261 483Q266 510 277 519T315 528H332Q359 528 365 519T367 484L363 466ZM371 -115Q369 -123 341 -137T266 -164T173
-177Q15 -177 48 -25Q61 47 111 89Q164 133 191 185T234 306L237 321Q241 338 245 341T267 345H301Q320 345 322 340T320 309Q312 272 304 247T268 166T194 54Q179 35 173 21T158 -30Q147 -76 152 -94T190 -113Q265 -113 336 -60Q349 -50 353 -50Q358 -50 360 -54T366
-79Q371 -109 371 -115Z" />
<glyph unicode="&#xc0;" glyph-name="Agrave" horiz-adv-x="636" d="M605 25Q600 0 562 0H528Q497 0 489 11T477 64L466 171H224L155 40Q147 26 142 19T124 6T89 0H73Q63 0 57 1T44 8T40 25L48 41L372 657Q392 694 437 694H494Q508 694 515 693T532 683T542 656L604
39L605 25ZM459 246L443 431Q431 538 434 588H433Q422 555 362 439L263 246H459ZM568 771Q573 765 570 759T557 753H490L324 852Q320 855 320 860T323 869T337 874H464L568 771Z" />
<glyph unicode="&#xc1;" glyph-name="Aacute" horiz-adv-x="636" d="M605 25Q600 0 562 0H528Q497 0 489 11T477 64L466 171H224L155 40Q147 26 142 19T124 6T89 0H73Q63 0 57 1T44 8T40 25L48 41L372 657Q392 694 437 694H494Q508 694 515 693T532 683T542 656L604
39L605 25ZM459 246L443 431Q431 538 434 588H433Q422 555 362 439L263 246H459ZM675 852L467 753H400Q394 753 392 756T390 763T397 771L545 874H672Q681 874 683 870T683 860T675 852Z" />
<glyph unicode="&#xc2;" glyph-name="Acircumflex" horiz-adv-x="636" d="M605 25Q600 0 562 0H528Q497 0 489 11T477 64L466 171H224L155 40Q147 26 142 19T124 6T89 0H73Q63 0 57 1T44 8T40 25L48 41L372 657Q392 694 437 694H494Q508 694 515 693T532 683T542
656L604 39L605 25ZM459 246L443 431Q431 538 434 588H433Q422 555 362 439L263 246H459ZM653 765Q658 760 654 752T641 743H594L589 744L494 825L365 744L360 743H313Q305 743 304 750T309 763L441 867Q446 870 450 870H561Q566 870 568 867L653 765Z" />
<glyph unicode="&#xc3;" glyph-name="Atilde" horiz-adv-x="636" d="M605 25Q600 0 562 0H528Q497 0 489 11T477 64L466 171H224L155 40Q147 26 142 19T124 6T89 0H73Q63 0 57 1T44 8T40 25L48 41L372 657Q392 694 437 694H494Q508 694 515 693T532 683T542 656L604
39L605 25ZM459 246L443 431Q431 538 434 588H433Q422 555 362 439L263 246H459ZM656 845Q649 810 616 777T540 743Q501 743 467 775Q442 798 426 798Q400 798 386 758Q382 747 378 745T358 743H345Q328 743 324 745T322 760Q330 795 363 828T439 862Q478 862 512
830Q537 807 552 807Q579 807 593 847Q597 858 601 860T621 862H635Q651 862 655 860T656 845Z" />
<glyph unicode="&#xc4;" glyph-name="Adieresis" horiz-adv-x="636" d="M605 25Q600 0 562 0H528Q497 0 489 11T477 64L466 171H224L155 40Q147 26 142 19T124 6T89 0H73Q63 0 57 1T44 8T40 25L48 41L372 657Q392 694 437 694H494Q508 694 515 693T532 683T542
656L604 39L605 25ZM459 246L443 431Q431 538 434 588H433Q422 555 362 439L263 246H459ZM421 785Q416 760 406 752T371 743H341Q317 743 311 752T310 785L314 807Q320 833 330 841T363 849H393Q417 849 424 841T425 807L421 785ZM662 785Q657 760 647 752T612
743H582Q558 743 552 752T551 785L555 807Q561 833 571 841T604 849H634Q658 849 665 841T666 807L662 785Z" />
<glyph unicode="&#xc5;" glyph-name="Aring" horiz-adv-x="636" d="M605 25Q600 0 562 0H528Q497 0 489 11T477 64L466 171H224L155 40Q147 26 142 19T124 6T89 0H73Q63 0 57 1T44 8T40 25L48 41L372 657Q392 694 437 694H494Q508 694 515 693T532 683T542 656L604
39L605 25ZM459 246L443 431Q431 538 434 588H433Q422 555 362 439L263 246H459ZM528 768Q531 783 525 790T511 799T488 801Q441 801 434 768Q431 753 437 746T451 737T474 735Q521 735 528 768ZM587 768Q571 694 464 694Q452 694 441 695T409 703T379 725T375
768Q391 842 498 842Q510 842 521 841T553 833T583 811T587 768Z" />
<glyph unicode="&#xc6;" glyph-name="AE" horiz-adv-x="819" d="M787 44Q782 18 771 9T734 0H444Q417 0 410 9T409 45L442 203H254L158 38Q143 13 128 7T91 0H74Q63 0 57 1T46 7T42 24Q43 28 51 42L409 655Q420 673 433 682T455 692T478 694H869Q897 694 903 682T903
649Q897 619 885 612T845 604L671 607H649L605 400H780Q791 400 796 400T809 395T817 383T815 359Q811 340 802 331T785 321T763 319H588L540 93H584L751 96Q777 96 786 88T789 52L787 44ZM458 278L528 608H491L298 278H458Z" />
<glyph unicode="&#xc7;" glyph-name="Ccedilla" horiz-adv-x="607" d="M570 51Q568 45 565 42T543 27Q495 0 459 -9T369 -19Q219 -19 153 74Q87 166 127 347Q161 512 255 606Q361 713 523 713Q600 713 669 685Q684 678 687 675T689 665Q688 662 661 591Q655 577
646 577Q641 577 633 584Q580 627 505 627Q458 627 419 611T353 565T307 506T276 441T258 386T249 347Q241 311 238 279T237 206T255 136T304 87T389 67T473 77T549 114Q563 123 568 123Q571 123 573 122T575 119T576 115T577 111Q576 108 573 81T570 51ZM369 -51Q367
-58 362 -65L294 -169Q287 -180 283 -182T262 -184H226Q219 -184 216 -184T208 -183T203 -180T203 -173T212 -159L303 -53Q311 -44 315 -42T333 -40H346Q353 -40 356 -40T364 -41T369 -44T369 -51Z" />
<glyph unicode="&#xc8;" glyph-name="Egrave" horiz-adv-x="567" d="M535 44Q530 18 519 9T482 0H126Q99 0 92 9T91 45L218 646Q224 673 235 682T273 691H616Q644 691 650 679T650 646Q646 624 637 614T619 603T589 601L377 604H331L288 399H528Q539 399 544 399T557
394T565 382T563 358Q559 339 550 330T533 320T511 318H271L223 92Q241 94 355 94L496 96Q508 96 513 96T526 93T535 87T539 74T537 52L535 44ZM533 771Q538 765 535 759T522 753H455L289 852Q285 855 285 860T288 869T302 874H429L533 771Z" />
<glyph unicode="&#xc9;" glyph-name="Eacute" horiz-adv-x="567" d="M535 44Q530 18 519 9T482 0H126Q99 0 92 9T91 45L218 646Q224 673 235 682T273 691H616Q644 691 650 679T650 646Q646 624 637 614T619 603T589 601L377 604H331L288 399H528Q539 399 544 399T557
394T565 382T563 358Q559 339 550 330T533 320T511 318H271L223 92Q241 94 355 94L496 96Q508 96 513 96T526 93T535 87T539 74T537 52L535 44ZM640 852L432 753H365Q359 753 357 756T355 763T362 771L510 874H637Q646 874 648 870T648 860T640 852Z" />
<glyph unicode="&#xca;" glyph-name="Ecircumflex" horiz-adv-x="567" d="M535 44Q530 18 519 9T482 0H126Q99 0 92 9T91 45L218 646Q224 673 235 682T273 691H616Q644 691 650 679T650 646Q646 624 637 614T619 603T589 601L377 604H331L288 399H528Q539 399
544 399T557 394T565 382T563 358Q559 339 550 330T533 320T511 318H271L223 92Q241 94 355 94L496 96Q508 96 513 96T526 93T535 87T539 74T537 52L535 44ZM618 765Q623 760 619 752T606 743H559L554 744L459 825L330 744L325 743H278Q270 743 269 750T274 763L406
867Q410 870 415 870H526Q532 870 533 867L618 765Z" />
<glyph unicode="&#xcb;" glyph-name="Edieresis" horiz-adv-x="567" d="M535 44Q530 18 519 9T482 0H126Q99 0 92 9T91 45L218 646Q224 673 235 682T273 691H616Q644 691 650 679T650 646Q646 624 637 614T619 603T589 601L377 604H331L288 399H528Q539 399 544
399T557 394T565 382T563 358Q559 339 550 330T533 320T511 318H271L223 92Q241 94 355 94L496 96Q508 96 513 96T526 93T535 87T539 74T537 52L535 44ZM386 785Q381 760 371 752T336 743H306Q282 743 276 752T275 785L279 807Q285 833 295 841T328 849H358Q382
849 389 841T390 807L386 785ZM627 785Q622 760 612 752T577 743H547Q523 743 517 752T516 785L520 807Q526 833 536 841T569 849H599Q623 849 630 841T631 807L627 785Z" />
<glyph unicode="&#xcc;" glyph-name="Igrave" horiz-adv-x="283" d="M211 44Q206 18 195 9T158 0H125Q98 0 91 9T90 45L218 649Q224 676 235 685T273 694H306Q333 694 339 685T340 650L211 44ZM361 771Q366 765 363 759T350 753H283L117 852Q113 855 113 860T116
869T130 874H257L361 771Z" />
<glyph unicode="&#xcd;" glyph-name="Iacute" horiz-adv-x="283" d="M211 44Q206 18 195 9T158 0H125Q98 0 91 9T90 45L218 649Q224 676 235 685T273 694H306Q333 694 339 685T340 650L211 44ZM527 852L319 753H252Q246 753 244 756T242 763T249 771L397 874H524Q533
874 535 870T535 860T527 852Z" />
<glyph unicode="&#xce;" glyph-name="Icircumflex" horiz-adv-x="283" d="M211 44Q206 18 195 9T158 0H125Q98 0 91 9T90 45L218 649Q224 676 235 685T273 694H306Q333 694 339 685T340 650L211 44ZM476 765Q481 760 477 752T464 743H417L412 744L317 825L188
744L183 743H136Q128 743 127 750T132 763L264 867Q268 870 273 870H384Q390 870 391 867L476 765Z" />
<glyph unicode="&#xcf;" glyph-name="Idieresis" horiz-adv-x="283" d="M211 44Q206 18 195 9T158 0H125Q98 0 91 9T90 45L218 649Q224 676 235 685T273 694H306Q333 694 339 685T340 650L211 44ZM244 785Q239 760 229 752T194 743H164Q140 743 134 752T133 785L137
807Q143 833 153 841T186 849H216Q240 849 247 841T248 807L244 785ZM485 785Q480 760 470 752T435 743H405Q381 743 375 752T374 785L378 807Q384 833 394 841T427 849H457Q481 849 488 841T489 807L485 785Z" />
<glyph unicode="&#xd1;" glyph-name="Ntilde" horiz-adv-x="678" d="M605 44Q600 18 589 9T552 0H479Q452 0 441 8T425 40L329 482Q314 555 311 588H310L194 44Q189 18 178 9T141 0H126Q99 0 92 9T91 45L219 649Q225 676 236 685T274 694H346Q373 694 384 686T400
654L495 212Q512 129 514 106H515L630 650Q635 676 646 685T684 694H700Q727 694 733 685T734 650L605 44ZM677 845Q670 810 637 777T561 743Q522 743 488 775Q463 798 447 798Q421 798 407 758Q403 747 399 745T379 743H366Q350 743 346 745T343 760Q351 795 384
828T460 862Q499 862 533 830Q558 807 573 807Q600 807 614 847Q618 858 622 860T642 862H656Q672 862 676 860T677 845Z" />
<glyph unicode="&#xd2;" glyph-name="Ograve" horiz-adv-x="697" d="M716 342Q678 165 579 72Q483 -19 344 -19Q277 -19 226 4T149 68Q87 164 126 342Q161 506 247 603Q294 656 361 684T500 713Q659 713 711 588Q748 497 716 342ZM597 358Q625 492 605 556Q597
583 582 601T548 628T515 640T485 643Q394 643 331 561Q283 500 251 358Q223 228 238 157Q251 98 286 76T359 53Q457 53 524 156Q570 229 597 358ZM598 771Q603 765 600 759T587 753H520L354 852Q350 855 350 860T353 869T367 874H494L598 771Z" />
<glyph unicode="&#xd3;" glyph-name="Oacute" horiz-adv-x="697" d="M716 342Q678 165 579 72Q483 -19 344 -19Q277 -19 226 4T149 68Q87 164 126 342Q161 506 247 603Q294 656 361 684T500 713Q659 713 711 588Q748 497 716 342ZM597 358Q625 492 605 556Q597
583 582 601T548 628T515 640T485 643Q394 643 331 561Q283 500 251 358Q223 228 238 157Q251 98 286 76T359 53Q457 53 524 156Q570 229 597 358ZM705 852L497 753H430Q424 753 422 756T420 763T427 771L575 874H702Q711 874 713 870T713 860T705 852Z" />
<glyph unicode="&#xd4;" glyph-name="Ocircumflex" horiz-adv-x="697" d="M716 342Q678 165 579 72Q483 -19 344 -19Q277 -19 226 4T149 68Q87 164 126 342Q161 506 247 603Q294 656 361 684T500 713Q659 713 711 588Q748 497 716 342ZM597 358Q625 492 605 556Q597
583 582 601T548 628T515 640T485 643Q394 643 331 561Q283 500 251 358Q223 228 238 157Q251 98 286 76T359 53Q457 53 524 156Q570 229 597 358ZM683 765Q688 760 684 752T671 743H624L619 744L524 825L395 744L390 743H343Q335 743 334 750T339 763L471 867Q476
870 480 870H591Q596 870 598 867L683 765Z" />
<glyph unicode="&#xd5;" glyph-name="Otilde" horiz-adv-x="697" d="M716 342Q678 165 579 72Q483 -19 344 -19Q277 -19 226 4T149 68Q87 164 126 342Q161 506 247 603Q294 656 361 684T500 713Q659 713 711 588Q748 497 716 342ZM597 358Q625 492 605 556Q597
583 582 601T548 628T515 640T485 643Q394 643 331 561Q283 500 251 358Q223 228 238 157Q251 98 286 76T359 53Q457 53 524 156Q570 229 597 358ZM686 845Q679 810 646 777T570 743Q531 743 497 775Q472 798 456 798Q430 798 416 758Q412 747 408 745T388 743H375Q358
743 354 745T352 760Q360 795 393 828T469 862Q508 862 542 830Q567 807 582 807Q609 807 623 847Q627 858 631 860T651 862H665Q681 862 685 860T686 845Z" />
<glyph unicode="&#xd6;" glyph-name="Odieresis" horiz-adv-x="697" d="M716 342Q678 165 579 72Q483 -19 344 -19Q277 -19 226 4T149 68Q87 164 126 342Q161 506 247 603Q294 656 361 684T500 713Q659 713 711 588Q748 497 716 342ZM597 358Q625 492 605 556Q597
583 582 601T548 628T515 640T485 643Q394 643 331 561Q283 500 251 358Q223 228 238 157Q251 98 286 76T359 53Q457 53 524 156Q570 229 597 358ZM451 785Q446 760 436 752T401 743H371Q347 743 341 752T340 785L344 807Q350 833 360 841T393 849H423Q447 849
454 841T455 807L451 785ZM692 785Q687 760 677 752T642 743H612Q588 743 582 752T581 785L585 807Q591 833 601 841T634 849H664Q688 849 695 841T696 807L692 785Z" />
<glyph unicode="&#xd8;" glyph-name="Oslash" horiz-adv-x="739" d="M758 342Q721 170 619 75Q518 -19 365 -19Q292 -19 237 5L203 -42Q188 -63 181 -69T159 -75Q147 -75 137 -66T129 -41Q131 -31 155 2Q169 18 182 39Q80 127 126 342Q163 519 270 619Q369 713
521 713Q591 713 648 688L691 746Q706 769 726 769Q738 769 748 760T756 735Q755 726 745 714L702 653Q805 564 758 342ZM602 624Q563 649 507 649Q465 649 429 636T367 603T320 554T286 498T262 439T247 387T237 343Q204 188 239 118L602 624ZM647 343Q681 504
645 574L284 70Q324 45 379 45Q421 45 457 58T518 89T565 137T598 190T621 248T637 299T647 343Z" />
<glyph unicode="&#xd9;" glyph-name="Ugrave" horiz-adv-x="657" d="M623 228Q600 119 524 50T326 -19T156 49T129 228L219 649Q225 676 236 685T274 694H307Q334 694 340 685T341 650L251 227Q215 56 343 56Q478 56 512 228L602 650Q607 676 618 685T656 694H679Q706
694 712 685T713 650L623 228ZM578 771Q583 765 580 759T567 753H500L334 852Q330 855 330 860T333 869T347 874H474L578 771Z" />
<glyph unicode="&#xda;" glyph-name="Uacute" horiz-adv-x="657" d="M623 228Q600 119 524 50T326 -19T156 49T129 228L219 649Q225 676 236 685T274 694H307Q334 694 340 685T341 650L251 227Q215 56 343 56Q478 56 512 228L602 650Q607 676 618 685T656 694H679Q706
694 712 685T713 650L623 228ZM685 852L477 753H410Q404 753 402 756T400 763T407 771L555 874H682Q691 874 693 870T693 860T685 852Z" />
<glyph unicode="&#xdb;" glyph-name="Ucircumflex" horiz-adv-x="657" d="M623 228Q600 119 524 50T326 -19T156 49T129 228L219 649Q225 676 236 685T274 694H307Q334 694 340 685T341 650L251 227Q215 56 343 56Q478 56 512 228L602 650Q607 676 618 685T656
694H679Q706 694 712 685T713 650L623 228ZM663 765Q668 760 664 752T651 743H604L599 744L504 825L375 744L370 743H323Q315 743 314 750T319 763L451 867Q456 870 460 870H571Q576 870 578 867L663 765Z" />
<glyph unicode="&#xdc;" glyph-name="Udieresis" horiz-adv-x="657" d="M623 228Q600 119 524 50T326 -19T156 49T129 228L219 649Q225 676 236 685T274 694H307Q334 694 340 685T341 650L251 227Q215 56 343 56Q478 56 512 228L602 650Q607 676 618 685T656 694H679Q706
694 712 685T713 650L623 228ZM431 785Q426 760 416 752T381 743H351Q327 743 321 752T320 785L324 807Q330 833 340 841T373 849H403Q427 849 434 841T435 807L431 785ZM672 785Q667 760 657 752T622 743H592Q568 743 562 752T561 785L565 807Q571 833 581 841T614
849H644Q668 849 675 841T676 807L672 785Z" />
<glyph unicode="&#xdf;" glyph-name="germandbls" horiz-adv-x="468" d="M482 192Q478 173 474 158T453 109T415 51T355 9T268 -10Q242 -10 218 -2T196 18Q197 22 210 47Q218 61 222 65T232 69Q234 68 237 66Q261 54 278 54Q300 54 317 67T346 107T361 150T372
192Q416 397 323 408Q309 410 307 413T309 434L312 446Q316 464 318 467T334 472Q367 476 390 495T425 569Q428 589 428 604T414 630T370 640Q346 640 330 634T305 615T292 592T284 565L173 44Q168 18 157 9T120 0H101Q74 0 67 9T66 45L177 567Q186 608 208 637T262
679T323 698T385 704T444 698T497 679T533 637T535 570Q515 477 439 437Q520 371 482 192Z" />
<glyph unicode="&#xe0;" glyph-name="agrave" horiz-adv-x="453" d="M407 44Q402 18 391 9T354 0H334Q307 0 301 9T299 44L305 69Q283 40 243 15T155 -10Q98 -10 70 33T54 132Q62 167 82 194T133 238T190 266T253 282T303 288T338 291Q346 292 348 294T353 310L357
330Q362 353 362 371T359 399T351 415T337 424T324 427T311 428Q238 428 175 378Q162 368 157 368Q150 368 149 374T150 397Q151 405 155 433Q156 441 161 444T184 456Q254 487 328 487Q416 487 450 446T468 331L407 44ZM320 155L341 256Q317 255 294 250T241 233T189
196T159 134Q153 101 166 78T209 54Q219 54 231 57T263 70T297 101T320 155ZM411 557Q409 546 384 546H353L244 668Q236 676 237 683Q240 694 264 694H325Q339 694 342 693T350 683L407 572L411 557Z" />
<glyph unicode="&#xe1;" glyph-name="aacute" horiz-adv-x="453" d="M407 44Q402 18 391 9T354 0H334Q307 0 301 9T299 44L305 69Q283 40 243 15T155 -10Q98 -10 70 33T54 132Q62 167 82 194T133 238T190 266T253 282T303 288T338 291Q346 292 348 294T353 310L357
330Q362 353 362 371T359 399T351 415T337 424T324 427T311 428Q238 428 175 378Q162 368 157 368Q150 368 149 374T150 397Q151 405 155 433Q156 441 161 444T184 456Q254 487 328 487Q416 487 450 446T468 331L407 44ZM320 155L341 256Q317 255 294 250T241 233T189
196T159 134Q153 101 166 78T209 54Q219 54 231 57T263 70T297 101T320 155ZM506 683Q505 677 493 668L332 546H301Q294 546 291 546T283 547T278 550T278 557T290 572L393 683Q404 694 424 694H485Q499 694 503 693T506 683Z" />
<glyph unicode="&#xe2;" glyph-name="acircumflex" horiz-adv-x="453" d="M407 44Q402 18 391 9T354 0H334Q307 0 301 9T299 44L305 69Q283 40 243 15T155 -10Q98 -10 70 33T54 132Q62 167 82 194T133 238T190 266T253 282T303 288T338 291Q346 292 348 294T353
310L357 330Q362 353 362 371T359 399T351 415T337 424T324 427T311 428Q238 428 175 378Q162 368 157 368Q150 368 149 374T150 397Q151 405 155 433Q156 441 161 444T184 456Q254 487 328 487Q416 487 450 446T468 331L407 44ZM320 155L341 256Q317 255 294 250T241
233T189 196T159 134Q153 101 166 78T209 54Q219 54 231 57T263 70T297 101T320 155ZM507 560Q509 554 505 547T493 539H446Q442 540 440 541L363 642L244 541L238 539H191Q184 539 182 545T185 558L312 697Q316 701 322 701H433Q440 701 441 697L507 560Z" />
<glyph unicode="&#xe3;" glyph-name="atilde" horiz-adv-x="453" d="M407 44Q402 18 391 9T354 0H334Q307 0 301 9T299 44L305 69Q283 40 243 15T155 -10Q98 -10 70 33T54 132Q62 167 82 194T133 238T190 266T253 282T303 288T338 291Q346 292 348 294T353 310L357
330Q362 353 362 371T359 399T351 415T337 424T324 427T311 428Q238 428 175 378Q162 368 157 368Q150 368 149 374T150 397Q151 405 155 433Q156 441 161 444T184 456Q254 487 328 487Q416 487 450 446T468 331L407 44ZM320 155L341 256Q317 255 294 250T241 233T189
196T159 134Q153 101 166 78T209 54Q219 54 231 57T263 70T297 101T320 155ZM526 663Q518 628 485 595T409 561Q370 561 336 593Q311 616 296 616Q269 616 255 576Q251 565 247 563T227 561H214Q198 561 194 563T192 578Q199 613 232 646T309 680Q348 680 382 648Q407
625 422 625Q448 625 462 665Q466 676 470 678T491 680H505Q521 680 525 678T526 663Z" />
<glyph unicode="&#xe4;" glyph-name="adieresis" horiz-adv-x="453" d="M407 44Q402 18 391 9T354 0H334Q307 0 301 9T299 44L305 69Q283 40 243 15T155 -10Q98 -10 70 33T54 132Q62 167 82 194T133 238T190 266T253 282T303 288T338 291Q346 292 348 294T353
310L357 330Q362 353 362 371T359 399T351 415T337 424T324 427T311 428Q238 428 175 378Q162 368 157 368Q150 368 149 374T150 397Q151 405 155 433Q156 441 161 444T184 456Q254 487 328 487Q416 487 450 446T468 331L407 44ZM320 155L341 256Q317 255 294 250T241
233T189 196T159 134Q153 101 166 78T209 54Q219 54 231 57T263 70T297 101T320 155ZM310 609Q305 584 295 576T261 567H231Q207 567 201 576T199 609L204 631Q210 657 220 665T253 673H283Q307 673 313 665T315 631L310 609ZM513 609Q508 584 498 576T464 567H434Q410
567 404 576T402 609L407 631Q413 657 423 665T456 673H486Q510 673 516 665T518 631L513 609Z" />
<glyph unicode="&#xe5;" glyph-name="aring" horiz-adv-x="453" d="M407 44Q402 18 391 9T354 0H334Q307 0 301 9T299 44L305 69Q283 40 243 15T155 -10Q98 -10 70 33T54 132Q62 167 82 194T133 238T190 266T253 282T303 288T338 291Q346 292 348 294T353 310L357
330Q362 353 362 371T359 399T351 415T337 424T324 427T311 428Q238 428 175 378Q162 368 157 368Q150 368 149 374T150 397Q151 405 155 433Q156 441 161 444T184 456Q254 487 328 487Q416 487 450 446T468 331L407 44ZM320 155L341 256Q317 255 294 250T241 233T189
196T159 134Q153 101 166 78T209 54Q219 54 231 57T263 70T297 101T320 155ZM402 609Q405 624 399 631T385 640T362 642Q315 642 308 609Q305 594 311 587T325 578T348 576Q396 576 402 609ZM461 609Q446 535 339 535Q330 535 322 535T297 540T270 551T252 573T249
609Q265 683 372 683Q384 683 395 682T427 674T457 652T461 609Z" />
<glyph unicode="&#xe6;" glyph-name="ae" horiz-adv-x="686" d="M718 276Q713 251 702 242T664 232H447Q414 54 518 54Q589 54 650 117Q658 125 664 125Q671 125 672 120T671 101Q671 81 667 65Q663 47 612 19T501 -10Q407 -10 356 54Q321 24 265 7T154 -10Q92
-10 68 32T53 123Q82 256 344 266L357 331Q362 354 363 371T360 399T352 415T339 424T325 427T312 428Q238 428 175 378Q162 368 157 368Q150 368 149 374T150 397Q151 405 155 433Q156 438 157 440T165 446T186 457Q258 487 329 487Q418 487 454 441Q515 487 595
487Q683 487 713 423Q737 369 718 276ZM629 279Q633 300 635 313T637 350T633 387T616 412T582 423Q540 423 507 382T458 279H629ZM330 137Q328 156 329 174T332 205L333 218Q315 217 297 215T245 204T189 175T159 125Q153 97 166 76T210 54Q245 54 280 75T330
137Z" />
<glyph unicode="&#xe7;" glyph-name="ccedilla" horiz-adv-x="422" d="M408 62Q406 53 389 40T354 19L337 11Q288 -10 236 -10Q136 -10 96 54Q59 116 82 237Q108 357 175 422T346 487Q391 487 415 479T468 452Q476 447 477 446T481 441T481 434Q481 433 478 425T471
408T466 397Q459 379 456 374T446 369Q441 369 434 378Q412 399 391 408T332 417Q298 417 273 401T233 354T209 298T194 238Q189 214 187 199T183 154T186 107T208 75T253 60Q321 60 391 117Q400 126 406 126Q413 126 414 121T413 98Q409 65 408 62ZM278 -51Q276
-58 271 -65L203 -169Q196 -180 192 -182T171 -184H135Q128 -184 125 -184T117 -183T112 -180T112 -173T121 -159L212 -53Q220 -44 224 -42T242 -40H255Q262 -40 265 -40T273 -41T278 -44T278 -51Z" />
<glyph unicode="&#xe8;" glyph-name="egrave" horiz-adv-x="438" d="M469 275Q464 249 453 241T416 232H178Q142 54 258 54Q336 54 401 116Q410 125 416 125Q423 125 424 120T423 101Q423 81 419 65Q414 43 345 12Q292 -10 241 -10Q201 -10 168 1T107 41T71 118T77
239Q92 309 122 360T189 438T263 475T335 487Q422 487 456 433T469 275ZM384 279Q387 297 388 308T391 338T389 370T379 396T358 416T322 423Q274 423 240 382T189 279H384ZM404 557Q402 546 377 546H346L237 668Q229 676 230 683Q233 694 257 694H318Q332 694
335 693T343 683L400 572L404 557Z" />
<glyph unicode="&#xe9;" glyph-name="eacute" horiz-adv-x="438" d="M469 275Q464 249 453 241T416 232H178Q142 54 258 54Q336 54 401 116Q410 125 416 125Q423 125 424 120T423 101Q423 81 419 65Q414 43 345 12Q292 -10 241 -10Q201 -10 168 1T107 41T71 118T77
239Q92 309 122 360T189 438T263 475T335 487Q422 487 456 433T469 275ZM384 279Q387 297 388 308T391 338T389 370T379 396T358 416T322 423Q274 423 240 382T189 279H384ZM499 683Q498 677 486 668L325 546H294Q287 546 284 546T276 547T271 550T271 557T283
572L386 683Q397 694 417 694H478Q492 694 496 693T499 683Z" />
<glyph unicode="&#xea;" glyph-name="ecircumflex" horiz-adv-x="438" d="M469 275Q464 249 453 241T416 232H178Q142 54 258 54Q336 54 401 116Q410 125 416 125Q423 125 424 120T423 101Q423 81 419 65Q414 43 345 12Q292 -10 241 -10Q201 -10 168 1T107 41T71
118T77 239Q92 309 122 360T189 438T263 475T335 487Q422 487 456 433T469 275ZM384 279Q387 297 388 308T391 338T389 370T379 396T358 416T322 423Q274 423 240 382T189 279H384ZM500 560Q502 554 498 547T486 539H439Q435 540 433 541L356 642L237 541L231 539H184Q177
539 175 545T178 558L305 697Q309 701 315 701H426Q433 701 434 697L500 560Z" />
<glyph unicode="&#xeb;" glyph-name="edieresis" horiz-adv-x="438" d="M469 275Q464 249 453 241T416 232H178Q142 54 258 54Q336 54 401 116Q410 125 416 125Q423 125 424 120T423 101Q423 81 419 65Q414 43 345 12Q292 -10 241 -10Q201 -10 168 1T107 41T71
118T77 239Q92 309 122 360T189 438T263 475T335 487Q422 487 456 433T469 275ZM384 279Q387 297 388 308T391 338T389 370T379 396T358 416T322 423Q274 423 240 382T189 279H384ZM303 609Q298 584 288 576T254 567H224Q200 567 194 576T192 609L197 631Q203 657
213 665T246 673H276Q300 673 306 665T308 631L303 609ZM506 609Q501 584 491 576T457 567H427Q403 567 397 576T395 609L400 631Q406 657 416 665T449 673H479Q503 673 509 665T511 631L506 609Z" />
<glyph unicode="&#xec;" glyph-name="igrave" horiz-adv-x="219" d="M172 44Q167 18 156 9T119 0H100Q73 0 66 9T65 45L146 427Q151 454 162 463T200 472H219Q246 472 253 463T254 428L172 44ZM281 557Q279 546 254 546H223L114 668Q106 676 107 683Q110 694 134
694H195Q209 694 212 693T220 683L277 572L281 557Z" />
<glyph unicode="&#xed;" glyph-name="iacute" horiz-adv-x="219" d="M172 44Q167 18 156 9T119 0H100Q73 0 66 9T65 45L146 427Q151 454 162 463T200 472H219Q246 472 253 463T254 428L172 44ZM401 683Q400 677 388 668L227 546H196Q189 546 186 546T178 547T173
550T173 557T185 572L288 683Q299 694 319 694H380Q394 694 398 693T401 683Z" />
<glyph unicode="&#xee;" glyph-name="icircumflex" horiz-adv-x="219" d="M172 44Q167 18 156 9T119 0H100Q73 0 66 9T65 45L146 427Q151 454 162 463T200 472H219Q246 472 253 463T254 428L172 44ZM390 560Q392 554 388 547T376 539H329Q325 540 323 541L246
642L127 541L121 539H74Q67 539 65 545T68 558L195 697Q199 701 205 701H316Q323 701 324 697L390 560Z" />
<glyph unicode="&#xef;" glyph-name="idieresis" horiz-adv-x="219" d="M172 44Q167 18 156 9T119 0H100Q73 0 66 9T65 45L146 427Q151 454 162 463T200 472H219Q246 472 253 463T254 428L172 44ZM193 609Q188 584 178 576T144 567H114Q90 567 84 576T82 609L87
631Q93 657 103 665T136 673H166Q190 673 196 665T198 631L193 609ZM396 609Q391 584 381 576T347 567H317Q293 567 287 576T285 609L290 631Q296 657 306 665T339 673H369Q393 673 399 665T401 631L396 609Z" />
<glyph unicode="&#xf1;" glyph-name="ntilde" horiz-adv-x="483" d="M437 44Q432 18 421 9T384 0H361Q334 0 328 9T326 44L389 338Q399 380 391 399T352 418Q313 418 276 383T225 283L174 44Q169 18 158 9T121 0H99Q72 0 65 9T64 45L146 433Q152 460 163 469T201
478H217Q244 478 250 469T251 434L240 380H241Q308 482 402 482Q474 482 494 446T501 342L437 44ZM541 663Q533 628 500 595T424 561Q385 561 351 593Q326 616 311 616Q284 616 270 576Q266 565 262 563T242 561H229Q212 561 208 563T207 578Q214 613 247 646T324
680Q363 680 397 648Q422 625 437 625Q463 625 477 665Q481 676 485 678T506 680H520Q536 680 540 678T541 663Z" />
<glyph unicode="&#xf2;" glyph-name="ograve" horiz-adv-x="475" d="M497 232Q474 115 403 52Q335 -10 235 -10Q132 -10 90 54Q52 117 75 232Q99 346 165 415Q234 487 341 487Q444 487 485 417Q523 352 497 232ZM389 244Q394 267 396 280T401 319T401 359T391
390T368 415T327 423Q298 423 276 410T240 381T215 335T199 289T189 244Q185 223 183 212T178 179T175 143T179 112T191 84T214 67T250 60Q279 60 302 73T338 104T362 151T378 198T389 244ZM422 557Q420 546 395 546H364L255 668Q247 676 248 683Q251 694 275 694H336Q350
694 353 693T361 683L418 572L422 557Z" />
<glyph unicode="&#xf3;" glyph-name="oacute" horiz-adv-x="475" d="M497 232Q474 115 403 52Q335 -10 235 -10Q132 -10 90 54Q52 117 75 232Q99 346 165 415Q234 487 341 487Q444 487 485 417Q523 352 497 232ZM389 244Q394 267 396 280T401 319T401 359T391
390T368 415T327 423Q298 423 276 410T240 381T215 335T199 289T189 244Q185 223 183 212T178 179T175 143T179 112T191 84T214 67T250 60Q279 60 302 73T338 104T362 151T378 198T389 244ZM517 683Q516 677 504 668L343 546H312Q305 546 302 546T294 547T289 550T289
557T301 572L404 683Q415 694 435 694H496Q510 694 514 693T517 683Z" />
<glyph unicode="&#xf4;" glyph-name="ocircumflex" horiz-adv-x="475" d="M497 232Q474 115 403 52Q335 -10 235 -10Q132 -10 90 54Q52 117 75 232Q99 346 165 415Q234 487 341 487Q444 487 485 417Q523 352 497 232ZM389 244Q394 267 396 280T401 319T401 359T391
390T368 415T327 423Q298 423 276 410T240 381T215 335T199 289T189 244Q185 223 183 212T178 179T175 143T179 112T191 84T214 67T250 60Q279 60 302 73T338 104T362 151T378 198T389 244ZM518 560Q520 554 516 547T504 539H457Q453 540 451 541L374 642L255 541L249
539H202Q195 539 193 545T196 558L323 697Q327 701 333 701H444Q451 701 452 697L518 560Z" />
<glyph unicode="&#xf5;" glyph-name="otilde" horiz-adv-x="475" d="M497 232Q474 115 403 52Q335 -10 235 -10Q132 -10 90 54Q52 117 75 232Q99 346 165 415Q234 487 341 487Q444 487 485 417Q523 352 497 232ZM389 244Q394 267 396 280T401 319T401 359T391
390T368 415T327 423Q298 423 276 410T240 381T215 335T199 289T189 244Q185 223 183 212T178 179T175 143T179 112T191 84T214 67T250 60Q279 60 302 73T338 104T362 151T378 198T389 244ZM537 663Q529 628 496 595T420 561Q381 561 347 593Q322 616 307 616Q280
616 266 576Q262 565 258 563T238 561H225Q208 561 204 563T203 578Q210 613 243 646T320 680Q359 680 393 648Q418 625 433 625Q459 625 473 665Q477 676 481 678T502 680H516Q532 680 536 678T537 663Z" />
<glyph unicode="&#xf6;" glyph-name="odieresis" horiz-adv-x="475" d="M497 232Q474 115 403 52Q335 -10 235 -10Q132 -10 90 54Q52 117 75 232Q99 346 165 415Q234 487 341 487Q444 487 485 417Q523 352 497 232ZM389 244Q394 267 396 280T401 319T401 359T391
390T368 415T327 423Q298 423 276 410T240 381T215 335T199 289T189 244Q185 223 183 212T178 179T175 143T179 112T191 84T214 67T250 60Q279 60 302 73T338 104T362 151T378 198T389 244ZM321 609Q316 584 306 576T272 567H242Q218 567 212 576T210 609L215 631Q221
657 231 665T264 673H294Q318 673 324 665T326 631L321 609ZM524 609Q519 584 509 576T475 567H445Q421 567 415 576T413 609L418 631Q424 657 434 665T467 673H497Q521 673 527 665T529 631L524 609Z" />
<glyph unicode="&#xf7;" glyph-name="divide" horiz-adv-x="739" d="M741 264Q734 229 689 229H147Q137 229 130 230T114 239T109 264Q117 299 168 299H698Q710 299 718 298T735 289T741 264ZM510 412Q506 393 502 390T479 386H424Q405 386 403 389T404 412L415
466Q419 485 423 488T446 492H502Q520 492 522 489T521 466L510 412ZM435 62Q431 43 427 40T405 36H350Q331 36 328 39T329 62L341 116Q345 135 349 138T371 142H427Q445 142 447 139T447 116L435 62Z" />
<glyph unicode="&#xf8;" glyph-name="oslash" horiz-adv-x="475" d="M497 232Q474 115 403 52Q335 -10 235 -10Q190 -10 156 3L107 -66Q77 -107 69 -112Q62 -115 53 -115Q38 -115 31 -105T26 -83Q28 -76 66 -22Q80 -4 106 34Q48 96 75 232Q99 346 165 415Q234
487 341 487Q385 487 419 472L486 564Q501 588 522 588Q537 588 544 578T548 556Q546 548 536 535L469 440Q527 372 497 232ZM375 410Q358 423 327 423T271 408T231 375T204 325T187 277T176 232Q159 152 166 118L375 410ZM396 232Q414 313 407 354L201 65Q220
54 248 54Q279 54 304 67T343 98T370 143T386 188T396 232Z" />
<glyph unicode="&#xf9;" glyph-name="ugrave" horiz-adv-x="483" d="M437 44Q432 18 421 9T384 0H364Q337 0 331 9T329 44L336 75Q280 -10 198 -10Q123 -10 95 22T81 129L145 427Q150 454 161 463T199 472H221Q248 472 255 463T256 428L191 122Q180 77 188 60T234
43Q280 43 312 84T355 181L408 428Q413 454 424 463T461 472H484Q511 472 518 463T519 428L437 44ZM426 557Q424 546 399 546H368L259 668Q251 676 252 683Q255 694 279 694H340Q354 694 357 693T365 683L422 572L426 557Z" />
<glyph unicode="&#xfa;" glyph-name="uacute" horiz-adv-x="483" d="M437 44Q432 18 421 9T384 0H364Q337 0 331 9T329 44L336 75Q280 -10 198 -10Q123 -10 95 22T81 129L145 427Q150 454 161 463T199 472H221Q248 472 255 463T256 428L191 122Q180 77 188 60T234
43Q280 43 312 84T355 181L408 428Q413 454 424 463T461 472H484Q511 472 518 463T519 428L437 44ZM521 683Q520 677 508 668L347 546H316Q309 546 306 546T298 547T293 550T293 557T305 572L408 683Q419 694 439 694H500Q514 694 518 693T521 683Z" />
<glyph unicode="&#xfb;" glyph-name="ucircumflex" horiz-adv-x="483" d="M437 44Q432 18 421 9T384 0H364Q337 0 331 9T329 44L336 75Q280 -10 198 -10Q123 -10 95 22T81 129L145 427Q150 454 161 463T199 472H221Q248 472 255 463T256 428L191 122Q180 77 188
60T234 43Q280 43 312 84T355 181L408 428Q413 454 424 463T461 472H484Q511 472 518 463T519 428L437 44ZM522 560Q524 554 520 547T508 539H461Q457 540 455 541L378 642L259 541L253 539H206Q199 539 197 545T200 558L327 697Q331 701 337 701H448Q455 701 456
697L522 560Z" />
<glyph unicode="&#xfc;" glyph-name="udieresis" horiz-adv-x="483" d="M437 44Q432 18 421 9T384 0H364Q337 0 331 9T329 44L336 75Q280 -10 198 -10Q123 -10 95 22T81 129L145 427Q150 454 161 463T199 472H221Q248 472 255 463T256 428L191 122Q180 77 188
60T234 43Q280 43 312 84T355 181L408 428Q413 454 424 463T461 472H484Q511 472 518 463T519 428L437 44ZM325 609Q320 584 310 576T276 567H246Q222 567 216 576T214 609L219 631Q225 657 235 665T268 673H298Q322 673 328 665T330 631L325 609ZM528 609Q523
584 513 576T479 567H449Q425 567 419 576T417 609L422 631Q428 657 438 665T471 673H501Q525 673 531 665T533 631L528 609Z" />
<glyph unicode="&#xff;" glyph-name="ydieresis" horiz-adv-x="431" d="M503 447Q502 443 494 428L249 -51Q220 -106 173 -141T69 -177Q15 -177 5 -167Q2 -161 4 -137T9 -103Q12 -89 24 -89L30 -92Q58 -106 85 -106Q126 -106 153 -72Q160 -63 175 -36T192 -1Q192
2 191 14L120 430L119 448Q124 472 161 472H173Q206 472 214 460T231 399Q266 184 254 118Q271 175 334 303L399 432Q408 451 419 460T439 470T466 472Q480 472 486 471T499 465T503 447ZM299 609Q294 584 284 576T250 567H220Q196 567 190 576T188 609L193 631Q199
657 209 665T242 673H272Q296 673 302 665T304 631L299 609ZM502 609Q497 584 487 576T453 567H423Q399 567 393 576T391 609L396 631Q402 657 412 665T445 673H475Q499 673 505 665T507 631L502 609Z" />
<glyph unicode="&#x131;" glyph-name="dotlessi" horiz-adv-x="219" d="M172 44Q167 18 156 9T119 0H100Q73 0 66 9T65 45L146 427Q151 454 162 463T200 472H219Q246 472 253 463T254 428L172 44Z" />
<glyph unicode="&#x152;" glyph-name="OE" horiz-adv-x="925" d="M893 44Q888 18 877 9T840 0H512Q482 0 428 -9Q365 -19 338 -19Q181 -19 120 84Q66 177 101 342Q138 520 245 619Q295 666 361 689T494 713Q520 713 579 703Q630 694 660 694H975Q1003 694 1009
682T1009 649Q1004 627 995 617T977 606T948 604L742 607H699L655 400H886Q897 400 902 400T915 395T923 383T921 359Q917 340 908 331T891 321T869 319H638L590 92L720 94L854 96Q866 96 871 96T884 93T893 87T897 74T895 52L893 44ZM524 347Q562 527 564 561Q568
607 554 628T484 649Q443 649 408 635T348 601T302 550T268 495T245 438T231 392T223 359Q194 218 220 141Q235 96 270 71T356 45Q386 45 407 53T442 72T465 110T481 158T497 226L524 347Z" />
<glyph unicode="&#x153;" glyph-name="oe" horiz-adv-x="739" d="M771 276Q766 251 755 242T717 232H500Q467 54 571 54Q642 54 703 117Q711 125 717 125Q724 125 725 120T724 101Q724 81 720 65Q716 47 665 19T554 -10Q452 -10 409 57Q336 -10 235 -10Q131 -10
91 58Q52 123 77 239Q102 353 166 417Q234 487 341 487Q439 487 485 423Q556 487 648 487Q736 487 766 423Q790 369 771 276ZM682 279Q686 300 688 313T690 350T686 387T669 412T635 423Q593 423 560 382T511 279H682ZM392 243Q397 266 398 278T403 315T403 356T392
388T369 414T327 423Q297 423 273 409T234 378T209 331T193 285T183 243Q178 222 176 209T171 170T171 127T181 92T205 64T248 54Q277 54 301 69T339 102T365 152T382 200T392 243Z" />
<glyph unicode="&#x178;" glyph-name="Ydieresis" horiz-adv-x="636" d="M759 673Q758 670 746 653L436 277L386 43Q380 16 369 8T333 0H302Q276 0 269 9T267 44L317 278L165 657Q160 664 162 673Q167 694 202 694H243Q291 694 305 658L378 469Q402 403 407 380Q417
400 474 472T583 605T638 671Q663 694 704 694H729Q740 694 745 694T756 688T759 673ZM421 785Q416 760 406 752T371 743H341Q317 743 311 752T310 785L314 807Q320 833 330 841T363 849H393Q417 849 424 841T425 807L421 785ZM662 785Q657 760 647 752T612 743H582Q558
743 552 752T551 785L555 807Q561 833 571 841T604 849H634Q658 849 665 841T666 807L662 785Z" />
<glyph unicode="&#x192;" glyph-name="florin" horiz-adv-x="290" d="M465 640Q463 630 462 626T458 619T449 615T437 621Q414 640 380 640Q359 640 344 634T322 615T311 595T305 574L283 472H327Q338 472 345 471T360 463T365 440Q358 408 314 408H273L195 44Q190
18 179 9T142 0H123Q96 0 89 9T88 45L165 408Q148 408 140 409T124 417T119 440T133 462T153 471T178 472L195 549Q210 622 261 663T394 704Q424 704 449 699Q469 694 472 690T471 668L465 640Z" />
<glyph unicode="&#x2c6;" glyph-name="circumflex" horiz-adv-x="475" d="M518 560Q520 554 516 547T504 539H457Q453 540 451 541L374 642L255 541L249 539H202Q195 539 193 545T196 558L323 697Q327 701 333 701H444Q451 701 452 697L518 560Z" />
<glyph unicode="&#x2c7;" glyph-name="caron" horiz-adv-x="475" d="M544 682L416 543Q413 539 407 539H296Q290 539 287 543L222 680Q219 686 224 693T236 701H283Q287 700 289 699L365 598L485 699L491 701H538Q545 701 547 695T544 682Z" />
<glyph unicode="&#x2d8;" glyph-name="breve" horiz-adv-x="475" d="M540 655Q531 613 484 582T355 551Q274 551 240 582T214 655Q218 674 230 682T254 690Q281 690 279 658Q278 649 287 643T314 634T343 632T372 631Q467 631 476 655Q486 690 516 690Q527 690
535 682T540 655Z" />
<glyph unicode="&#x2d9;" glyph-name="dotaccent" horiz-adv-x="264" d="M322 608Q316 580 305 571T267 561H234Q207 561 201 571T199 608L204 632Q211 661 222 670T259 679H292Q319 679 326 670T327 632L322 608Z" />
<glyph unicode="&#x2da;" glyph-name="ring" horiz-adv-x="699" d="M525 609Q528 624 522 631T508 640T485 642Q438 642 431 609Q428 594 434 587T448 578T471 576Q519 576 525 609ZM584 609Q569 535 462 535Q453 535 445 535T420 540T393 551T375 573T372 609Q388
683 495 683Q507 683 518 682T550 674T580 652T584 609Z" />
<glyph unicode="&#x2db;" glyph-name="ogonek" horiz-adv-x="475" d="M311 -133Q311 -151 298 -157Q230 -183 192 -184Q148 -185 127 -158T115 -95Q133 -21 204 15L271 12Q224 -18 211 -70Q202 -106 237 -106Q264 -106 289 -95Q294 -92 301 -94T308 -104L311 -133Z" />
<glyph unicode="&#x2dc;" glyph-name="tilde" horiz-adv-x="475" d="M537 663Q529 628 496 595T420 561Q381 561 347 593Q322 616 307 616Q280 616 266 576Q262 565 258 563T238 561H225Q208 561 204 563T203 578Q210 613 243 646T320 680Q359 680 393 648Q418
625 433 625Q459 625 473 665Q477 676 481 678T502 680H516Q532 680 536 678T537 663Z" />
<glyph unicode="&#x2dd;" glyph-name="hungarumlaut" horiz-adv-x="475" d="M381 683Q380 679 372 669L287 560Q279 550 275 548T255 546H242Q234 546 231 546T224 547T219 551T219 558L267 673Q273 688 277 691T299 694H360Q374 694 378 693T381 683ZM539 683Q538
679 530 669L445 560Q437 550 433 548T413 546H400Q392 546 389 546T382 547T377 551T377 558L425 673Q431 688 435 691T457 694H518Q532 694 536 693T539 683Z" />
<glyph unicode="&#x3a9;" glyph-name="Omega" horiz-adv-x="686" d="M652 44Q647 18 636 9T599 0H437Q427 0 422 0T409 5T400 17T401 40Q416 113 493 236Q552 328 575 372T609 465Q648 649 480 649Q313 649 274 465Q258 390 286 262Q317 117 301 39Q297 21 288
12T270 2T249 0H87Q58 0 52 11T52 47Q59 80 71 87T116 94Q124 94 139 94T161 93H218Q233 93 240 92Q234 139 196 227Q183 257 177 272T161 315T149 363T146 411T152 464Q161 507 182 546T241 625T345 689T495 713Q551 713 594 702T664 672T708 628T731 575T737
519T731 464Q722 421 697 376T649 302T582 223Q510 141 485 92Q491 93 507 93H564Q572 93 587 93T609 94Q620 94 625 94T638 93T648 89T654 81T657 69T654 50L652 44Z" />
<glyph unicode="&#x2013;" glyph-name="endash" horiz-adv-x="475" d="M536 292Q529 260 485 260H99Q88 260 81 261T67 269T62 292Q69 324 113 324H499Q510 324 517 323T531 315T536 292Z" />
<glyph unicode="&#x2014;" glyph-name="emdash" horiz-adv-x="950" d="M1011 292Q1004 260 960 260H99Q88 260 81 261T67 269T62 292Q69 324 113 324H974Q985 324 992 323T1006 315T1011 292Z" />
<glyph unicode="&#x2018;" glyph-name="quoteleft" horiz-adv-x="264" d="M292 503Q288 484 284 481T261 477H205Q187 477 185 480T186 503L201 574L273 679Q281 690 285 692T306 694Q315 694 318 694T326 693T330 689T330 682Q330 680 322 665L281 583Q301 583
304 580T303 557L292 503Z" />
<glyph unicode="&#x2019;" glyph-name="quoteright" horiz-adv-x="264" d="M312 597L240 492Q232 481 228 479T207 477Q198 477 195 477T187 478T183 482T183 489Q183 491 191 506L232 588Q212 588 209 591T210 614L221 668Q225 687 229 690T252 694H308Q326 694
328 691T327 668L312 597Z" />
<glyph unicode="&#x201a;" glyph-name="quotesinglbase" horiz-adv-x="264" d="M186 7L114 -98Q106 -109 102 -111T82 -113Q73 -113 70 -113T62 -112T58 -108T58 -101Q59 -96 65 -84L107 -2Q87 -2 84 1T84 24L96 78Q100 97 104 100T126 104H182Q200 104 203 101T202
78L186 7Z" />
<glyph unicode="&#x201c;" glyph-name="quotedblleft" horiz-adv-x="449" d="M292 503Q288 484 284 481T261 477H205Q187 477 185 480T186 503L201 574L273 679Q281 690 285 692T306 694Q315 694 318 694T326 693T330 689T330 682Q330 680 322 665L281 583Q301
583 304 580T303 557L292 503ZM477 503Q473 484 469 481T446 477H390Q372 477 370 480T371 503L386 574L458 679Q466 690 470 692T491 694Q500 694 503 694T511 693T515 689T515 682Q515 680 507 665L466 583Q486 583 489 580T488 557L477 503Z" />
<glyph unicode="&#x201d;" glyph-name="quotedblright" horiz-adv-x="449" d="M312 597L240 492Q232 481 228 479T207 477Q198 477 195 477T187 478T183 482T183 489Q183 491 191 506L232 588Q212 588 209 591T210 614L221 668Q225 687 229 690T252 694H308Q326
694 328 691T327 668L312 597ZM497 597L425 492Q417 481 413 479T392 477Q383 477 380 477T372 478T368 482T368 489Q368 491 376 506L417 588Q397 588 394 591T395 614L406 668Q410 687 414 690T437 694H493Q511 694 513 691T512 668L497 597Z" />
<glyph unicode="&#x201e;" glyph-name="quotedblbase" horiz-adv-x="449" d="M186 7L114 -98Q106 -109 102 -111T82 -113Q73 -113 70 -113T62 -112T58 -108T58 -101Q59 -96 65 -84L107 -2Q87 -2 84 1T84 24L96 78Q100 97 104 100T126 104H182Q200 104 203 101T202
78L186 7ZM371 7L299 -98Q291 -109 287 -111T267 -113Q258 -113 255 -113T247 -112T243 -108T243 -101Q244 -96 250 -84L292 -2Q272 -2 269 1T269 24L281 78Q285 97 289 100T311 104H367Q385 104 387 101T387 78L371 7Z" />
<glyph unicode="&#x2020;" glyph-name="dagger" horiz-adv-x="511" d="M541 443Q537 422 519 405T472 388T398 414Q378 425 361 428Q359 408 364 359Q370 304 369 286T360 231Q340 137 310 30T261 -132T236 -200Q231 -211 210 -211Q193 -211 192 -204Q188 -198
193 -156Q210 47 249 231Q257 267 264 287T296 353Q324 404 332 428Q309 423 273 407Q229 388 203 388T165 404T158 444Q163 466 181 482T227 499Q254 499 302 473Q322 462 339 459Q341 487 336 542Q330 609 337 643Q343 674 363 688T405 702Q424 702 439 689T448
643Q441 608 403 537Q379 495 368 459Q392 465 427 480Q469 499 496 499Q522 499 534 483T541 443Z" />
<glyph unicode="&#x2021;" glyph-name="daggerdbl" horiz-adv-x="511" d="M548 476Q546 466 541 456T519 433T479 421Q450 421 406 446Q392 453 369 460Q368 432 372 402Q383 341 376 308Q370 279 350 265T308 250Q288 250 274 264T265 308Q272 339 308 401Q328
433 338 460Q315 455 294 445Q239 421 210 421Q187 421 175 432T164 456T165 476Q170 499 188 515T233 531Q262 531 308 506Q324 498 345 492Q346 515 341 550Q331 617 337 644Q343 673 363 687T405 702Q425 702 439 688T448 644Q441 613 405 551Q384 517 376 492Q398
497 435 513Q476 531 504 531Q530 531 541 515T548 476ZM452 23Q448 2 430 -15T383 -32Q356 -32 324 -14Q286 4 273 8Q271 -21 277 -55Q287 -113 280 -144Q274 -173 254 -187T212 -202Q192 -202 178 -188T169 -144Q177 -112 207 -62Q231 -20 242 8Q222 3 183 -13Q141
-32 114 -32Q88 -32 76 -16T69 24Q73 45 91 62T138 79Q164 79 212 54Q231 43 248 39Q250 68 244 102Q234 160 241 191Q247 220 267 234T309 249Q329 249 343 235T352 191Q344 159 314 109Q290 67 279 39Q304 46 338 60Q380 79 407 79Q433 79 445 63T452 23Z" />
<glyph unicode="&#x2022;" glyph-name="bullet" horiz-adv-x="739" d="M577 182Q564 120 551 110T479 99H304Q244 99 235 110T239 182L275 354Q288 416 301 426T373 437H551Q610 437 618 427T613 354L577 182Z" />
<glyph unicode="&#x2026;" glyph-name="ellipsis" horiz-adv-x="646" d="M191 26Q187 7 183 4T160 0H105Q86 0 84 3T85 26L96 80Q100 99 104 102T127 106H183Q201 106 203 103T202 80L191 26ZM382 26Q378 7 374 4T351 0H296Q277 0 275 3T276 26L287 80Q291 99
295 102T318 106H374Q392 106 394 103T393 80L382 26ZM573 26Q569 7 565 4T542 0H487Q468 0 466 3T467 26L478 80Q482 99 486 102T509 106H565Q583 106 585 103T584 80L573 26Z" />
<glyph unicode="&#x2030;" glyph-name="perthousand" horiz-adv-x="1216" d="M1186 145Q1182 128 1178 113T1159 63T1124 6T1069 -37T991 -56Q951 -56 925 -41T887 -3T873 49T871 101T879 146Q897 237 948 291Q1002 347 1077 347Q1120 347 1147 328T1183 286T1193
228T1192 178T1186 145ZM809 145Q805 128 801 113T782 63T747 6T692 -37T614 -56Q574 -56 548 -41T510 -3T496 49T494 101T502 146Q520 237 571 291Q625 347 700 347Q743 347 770 328T806 286T816 228T815 178T809 145ZM485 548Q482 533 478 516T458 466T424 409T369
366T291 347Q251 347 225 362T187 400T173 452T171 504T179 549Q197 641 248 694Q301 750 376 750Q412 750 437 738T473 704T490 660T494 613T490 574T485 548ZM813 715Q811 705 797 689L187 -34Q169 -56 149 -56Q135 -56 127 -46T122 -21Q124 -9 137 5L748 728Q768
750 785 750Q800 750 808 740T813 715ZM1091 146Q1106 205 1100 235T1085 274T1063 283Q1044 283 1030 270T1005 232T991 190T980 145Q976 128 974 117T970 88T968 57T972 33T983 14T1005 8Q1062 8 1091 146ZM714 146Q729 205 723 235T708 274T686 283Q667 283
653 270T628 232T614 190T603 145Q599 128 597 117T593 88T591 57T595 33T606 14T628 8Q685 8 714 146ZM391 549Q405 608 399 638T385 677T363 686Q344 686 330 674T305 635T290 594T279 548Q261 457 273 430Q282 411 304 411Q361 411 391 549Z" />
<glyph unicode="&#x2039;" glyph-name="guilsinglleft" horiz-adv-x="285" d="M235 13Q233 0 221 0H179Q172 0 170 7L130 260Q130 265 132 268L279 521Q284 528 291 528H333Q338 528 340 524T341 515L242 264L235 13Z" />
<glyph unicode="&#x203a;" glyph-name="guilsinglright" horiz-adv-x="285" d="M266 260L118 7Q113 0 106 0H64Q59 0 57 4T56 13L155 264L163 515Q163 528 176 528H218Q225 528 227 521L267 268Q268 266 266 260Z" />
<glyph unicode="&#x2044;" glyph-name="fraction" horiz-adv-x="556" d="M638 657L118 2Q104 -15 85 -15Q65 -15 59 2T66 38L585 692Q599 709 619 709T645 692T638 657Z" />
<glyph unicode="&#x20ac;" glyph-name="Euro" horiz-adv-x="569" d="M531 49Q531 45 526 40Q456 -19 373 -19Q312 -19 264 6T192 78Q161 139 164 231H108Q103 231 101 235T100 244L121 298Q125 307 134 307H172L180 347L189 387H142Q129 387 133 400L154 454Q159
463 167 463H213Q247 553 307 617Q351 663 410 688T529 713Q599 713 650 677Q655 674 652 666L621 586Q619 579 612 578T601 581Q571 627 510 627Q440 627 387 557Q357 519 335 463H549Q554 463 556 459T557 450L536 396Q532 387 524 387H311L302 347L294 307H489Q501
307 497 294L476 240Q472 231 463 231H285Q283 178 297 137Q308 105 332 86T391 67Q462 67 522 119Q528 124 534 122T539 113L531 49Z" />
<glyph unicode="&#x2122;" glyph-name="trademark" horiz-adv-x="888" d="M507 667Q503 651 497 646T474 640L366 642L295 308Q292 293 286 288T263 282H244Q228 282 224 287T223 309L293 642L185 640Q168 640 163 645T162 667Q165 683 172 688T195 694H487Q504
694 507 687T507 667ZM883 308Q880 293 874 288T851 282H842Q825 282 821 287T820 308L889 632Q888 625 853 559T813 485L721 318Q712 303 704 298T677 293Q667 293 662 294T651 300T644 316L624 475L616 554Q609 609 611 632H610L541 308Q538 293 532 288T510
282H501Q485 282 481 287T480 309L557 671Q560 687 566 692T589 698H626Q654 698 657 675L678 517L686 435Q693 381 691 357H692Q696 370 726 430L766 504L861 673Q865 682 868 686T880 694T901 698H939Q956 698 960 692T961 672L883 308Z" />
<glyph unicode="&#x221a;" glyph-name="radical" horiz-adv-x="449" d="M667 730Q659 695 617 695H547Q545 689 515 627L217 -7Q214 -13 209 -23T202 -38T195 -50T187 -61T179 -68T169 -73T156 -75Q143 -75 137 -69T130 -58T128 -39L126 -4Q125 14 123 92T118
213Q116 210 106 198T90 180T74 168T55 161Q43 161 35 170T30 192Q31 198 34 204T41 214T51 225T60 235L159 350Q181 376 201 376Q210 376 215 373T223 363T227 351T228 336T228 323Q229 308 230 259T233 183H234Q237 192 245 209T256 231L469 684Q470 686 476
701T486 723T497 741T512 757T531 765H631Q650 765 660 757T667 730Z" />
<glyph unicode="&#x221e;" glyph-name="infinity" horiz-adv-x="950" d="M455 214L426 277Q412 307 404 322T380 360T346 393T306 403Q258 403 226 355T178 236Q141 54 232 54Q341 54 455 214ZM872 236Q911 418 818 418Q710 418 596 258L625 195Q638 166 646 150T670
112T703 80T744 69Q792 69 824 117T872 236ZM958 236Q936 128 857 49T682 -30Q568 -30 497 120Q373 -31 255 -31Q160 -31 115 48T92 236T194 423T368 502Q484 502 553 352Q677 503 796 503Q891 503 936 424T958 236Z" />
<glyph unicode="&#xfb01;" glyph-name="f_i" horiz-adv-x="506" d="M583 628Q578 602 567 593T530 584H507Q480 584 474 593T472 628L477 651Q483 677 494 686T531 695H554Q581 695 587 686T588 651L583 628ZM458 44Q453 18 442 9T405 0H385Q358 0 352 9T350 44L432
428Q437 454 448 463T485 472H505Q532 472 539 463T540 428L458 44ZM374 440Q367 408 323 408H273L195 44Q190 18 179 9T142 0H123Q96 0 89 9T88 45L165 408Q148 408 140 409T124 417T119 440T133 462T153 471T178 472L195 552Q212 630 258 667T364 704Q387 704
406 698Q422 694 424 690T422 668L415 637Q410 612 399 612Q394 612 388 620Q376 640 352 640Q319 640 306 578L283 472H336Q347 472 354 471T369 463T374 440Z" />
<glyph unicode="&#xfb02;" glyph-name="f_l" horiz-adv-x="506" d="M374 440Q367 408 323 408H273L195 44Q190 18 179 9T142 0H123Q96 0 89 9T88 45L165 408Q148 408 140 409T124 417T119 440T133 462T153 471T178 472L195 552Q212 630 258 667T364 704Q387 704
406 698Q422 694 424 690T422 668L416 640Q414 630 413 626T409 619T400 615Q394 615 391 620Q379 640 352 640Q319 640 306 578L283 472H336Q347 472 354 471T369 463T374 440ZM458 44Q453 18 442 9T405 0H385Q358 0 352 9T350 44L479 650Q484 676 495 685T533
694H553Q580 694 586 685T587 650L458 44Z" />
</font>
</defs>
</svg>
